# Blender 4.5.1 LTS
# www.blender.org
mtllib province_126.mtl
o province_126
v 6.679950 0.006502 0.776521
v 6.669672 0.006502 0.709714
v 6.618283 0.006502 0.637769
v 6.685375 0.006502 0.582097
v 6.729628 0.006502 0.599227
v 6.801002 0.006502 0.580670
v 6.865239 0.006502 0.459333
v 6.973728 0.006502 0.417936
v 7.057950 0.006502 0.473608
v 7.069370 0.006502 0.537845
v 7.000850 0.006502 0.597799
v 7.003706 0.006502 0.660609
v 7.029400 0.006502 0.706288
v 6.985148 0.006502 0.757678
v 6.722787 0.006502 0.822214
v 6.988631 0.006502 0.813408
v 6.872518 0.006502 0.861053
v 6.835027 0.006502 0.891047
v 6.799441 0.006502 0.864358
v 6.775114 0.006502 0.802728
v 6.722787 -0.013498 0.822214
v 6.988631 -0.013498 0.813408
v 6.872518 -0.013498 0.861053
v 6.835027 -0.013498 0.891047
v 6.799441 -0.013498 0.864358
v 6.775114 -0.013498 0.802728
vn -0.0000 1.0000 -0.0000
vn 0.3796 -0.0000 0.9251
vn 0.6247 -0.0000 0.7809
vn -0.6000 -0.0000 0.8000
vn -0.9302 -0.0000 0.3672
vn 0.3490 -0.0000 0.9371
vn -0.9302 -0.0000 0.3671
vt 0.000000 0.000000
s 0
f 9/1/1 8/1/1 11/1/1
f 17/1/2 22/1/2 16/1/2
f 18/1/3 23/1/3 17/1/3
f 19/1/4 24/1/4 18/1/4
f 20/1/5 25/1/5 19/1/5
f 15/1/6 26/1/6 20/1/6
f 1/1/1 15/1/1 20/1/1
f 20/1/1 19/1/1 17/1/1
f 19/1/1 18/1/1 17/1/1
f 17/1/1 16/1/1 14/1/1
f 2/1/1 1/1/1 20/1/1
f 4/1/1 3/1/1 2/1/1
f 5/1/1 4/1/1 2/1/1
f 2/1/1 20/1/1 5/1/1
f 20/1/1 17/1/1 14/1/1
f 5/1/1 20/1/1 6/1/1
f 14/1/1 13/1/1 12/1/1
f 14/1/1 12/1/1 6/1/1
f 6/1/1 20/1/1 14/1/1
f 8/1/1 7/1/1 11/1/1
f 7/1/1 6/1/1 11/1/1
f 12/1/1 11/1/1 6/1/1
f 11/1/1 10/1/1 9/1/1
f 17/1/2 23/1/2 22/1/2
f 18/1/3 24/1/3 23/1/3
f 19/1/4 25/1/4 24/1/4
f 20/1/7 26/1/7 25/1/7
f 15/1/6 21/1/6 26/1/6
