# Blender 4.5.1 LTS
# www.blender.org
mtllib province_090.mtl
o province_090
v 0.744201 0.006502 -0.750541
v 0.821285 0.006502 -0.716282
v 0.765613 0.006502 -0.644907
v 0.814147 0.006502 -0.821915
v 0.879812 0.006502 -0.803358
v 0.991155 0.006502 -0.921839
v 1.078232 0.006502 -0.841900
v 1.086797 0.006502 -0.779091
v 1.066812 0.006502 -0.642053
v 0.888377 0.006502 -0.614930
vn -0.0000 1.0000 -0.0000
vt 0.000000 0.000000
s 0
f 2/1/1 10/1/1 5/1/1
f 2/1/1 3/1/1 10/1/1
f 10/1/1 9/1/1 5/1/1
f 9/1/1 8/1/1 5/1/1
f 8/1/1 7/1/1 5/1/1
f 7/1/1 6/1/1 5/1/1
f 5/1/1 4/1/1 2/1/1
f 4/1/1 1/1/1 2/1/1
