# Blender 4.5.1 LTS
# www.blender.org
mtllib province_046.mtl
o province_046
v -4.149270 0.006502 -0.874750
v -4.128714 0.006502 -0.907639
v -4.101992 0.006502 -0.932306
v -4.093770 0.006502 -0.985750
v -4.093770 0.006502 -1.018640
v -4.064991 0.006502 -1.053584
v -4.038270 0.006502 -1.094696
v -4.036214 0.006502 -1.119362
v -3.950057 0.006502 -1.144262
v -3.900381 0.006502 -1.135697
v -3.825010 0.006502 -1.139123
v -3.775334 0.006502 -1.147688
v -3.746213 0.006502 -1.120281
v -3.753065 0.006502 -1.079169
v -3.698250 0.006502 -1.060326
v -3.682833 0.006502 -1.024354
v -3.711954 0.006502 -0.995234
v -3.768482 0.006502 -0.996947
v -3.780473 0.006502 -0.948983
v -3.819871 0.006502 -0.904446
v -3.869547 0.006502 -0.906159
v -3.891816 0.006502 -0.868474
v -3.938066 0.006502 -0.835927
v -3.998020 0.006502 -0.837640
v -4.025428 0.006502 -0.811945
v -4.087095 0.006502 -0.849631
v -4.149270 -0.013498 -0.874750
v -4.025428 -0.013498 -0.811945
v -4.087095 -0.013498 -0.849631
vn -0.0000 1.0000 -0.0000
vn -0.5215 -0.0000 0.8533
vn -0.3746 -0.0000 0.9272
vn -0.5214 -0.0000 0.8533
vt 0.000000 0.000000
s 0
f 18/1/1 14/1/1 11/1/1
f 26/1/2 28/1/2 25/1/2
f 1/1/3 29/1/3 26/1/3
f 2/1/1 1/1/1 26/1/1
f 26/1/1 25/1/1 24/1/1
f 24/1/1 23/1/1 22/1/1
f 21/1/1 20/1/1 19/1/1
f 24/1/1 22/1/1 21/1/1
f 2/1/1 26/1/1 3/1/1
f 26/1/1 24/1/1 3/1/1
f 21/1/1 19/1/1 18/1/1
f 3/1/1 24/1/1 4/1/1
f 24/1/1 21/1/1 4/1/1
f 6/1/1 5/1/1 4/1/1
f 18/1/1 17/1/1 14/1/1
f 17/1/1 16/1/1 15/1/1
f 4/1/1 21/1/1 6/1/1
f 21/1/1 18/1/1 10/1/1
f 7/1/1 21/1/1 10/1/1
f 7/1/1 6/1/1 21/1/1
f 9/1/1 8/1/1 7/1/1
f 10/1/1 9/1/1 7/1/1
f 17/1/1 15/1/1 14/1/1
f 14/1/1 13/1/1 12/1/1
f 14/1/1 12/1/1 11/1/1
f 11/1/1 10/1/1 18/1/1
f 26/1/4 29/1/4 28/1/4
f 1/1/3 27/1/3 29/1/3
