# Blender 4.5.1 LTS
# www.blender.org
mtllib province_028.mtl
o province_028
v 0.087564 0.001999 0.000407
v 0.091846 0.001999 -0.004047
v 0.133472 0.001999 -0.017408
v 0.087421 0.001999 0.005831
v 0.093845 0.001999 0.008829
v 0.101981 0.001999 0.005688
v 0.108262 0.001999 0.011256
v 0.115257 0.001999 0.004118
v 0.121823 0.001999 0.005974
v 0.132958 0.001999 -0.005874
v 0.128104 0.001999 -0.012298
v 0.091096 0.001999 -0.012747
v 0.098171 0.001999 -0.015983
v 0.132213 0.001999 -0.022584
v 0.102469 0.001999 -0.017978
v 0.109032 0.001999 -0.014963
v 0.118570 0.001999 -0.023820
v 0.124948 0.001999 -0.020223
v 0.091096 -0.000001 -0.012747
v 0.098171 -0.000001 -0.015983
v 0.102469 -0.000001 -0.017978
v 0.109032 -0.000001 -0.014963
v 0.118570 -0.000001 -0.023820
v 0.124948 -0.000001 -0.020223
v 0.132213 -0.000001 -0.022584
vn -0.0000 1.0000 -0.0000
vn -0.4159 -0.0000 -0.9094
vn -0.4211 -0.0000 -0.9070
vn 0.4175 -0.0000 -0.9087
vn -0.6805 -0.0000 -0.7328
vn 0.4913 -0.0000 -0.8710
vn -0.3091 -0.0000 -0.9510
vt 0.000000 0.000000
s 0
f 4/1/1 5/1/1 6/1/1 7/1/1 8/1/1 9/1/1 10/1/1 11/1/1 3/1/1 14/1/1 18/1/1 17/1/1 16/1/1 15/1/1 13/1/1 12/1/1 2/1/1 1/1/1
f 12/1/2 13/1/2 20/1/2 19/1/2
f 13/1/3 15/1/3 21/1/3 20/1/3
f 15/1/4 16/1/4 22/1/4 21/1/4
f 16/1/5 17/1/5 23/1/5 22/1/5
f 17/1/6 18/1/6 24/1/6 23/1/6
f 18/1/7 14/1/7 25/1/7 24/1/7
