# Blender 4.5.1 LTS
# www.blender.org
mtllib province_082.mtl
o province_082
v -0.522546 0.006502 -0.787370
v -0.488287 0.006502 -0.834477
v -0.411203 0.006502 -0.827340
v -0.359813 0.006502 -0.871592
v -0.364096 0.006502 -0.928691
v -0.379798 0.006502 -0.962950
v -0.349821 0.006502 -1.025760
v -0.418340 0.006502 -1.114263
v -0.342684 0.006502 -1.111408
v -0.244187 0.006502 -1.188493
v -1.044135 0.006502 -1.327096
v -0.972190 0.006502 -1.339430
v -0.867356 0.006502 -1.310652
v -0.754300 0.006502 -1.349708
v -0.696743 0.006502 -1.322985
v -0.635076 0.006502 -1.351763
v -0.583687 0.006502 -1.366152
v -0.530242 0.006502 -1.337374
v -0.542575 0.006502 -1.283929
v -0.491186 0.006502 -1.251040
v -0.452130 0.006502 -1.255151
v -0.396630 0.006502 -1.314763
v -0.380185 0.006502 -1.384652
v -0.353463 0.006502 -1.388764
v -0.322629 0.006502 -1.331207
v -0.300018 0.006502 -1.316818
v -0.293851 0.006502 -1.244873
v -0.242462 0.006502 -1.214040
v -1.092553 0.006502 -1.243344
v -1.023537 0.006502 -1.134890
v -0.934202 0.006502 -1.000887
v -0.851410 0.006502 -0.935424
v -0.782521 0.006502 -0.946535
v -0.759414 0.006502 -0.868812
v -1.088965 0.006502 -1.343107
v -0.662415 0.006502 -0.867168
v -0.614383 0.006502 -0.821138
v -0.600419 0.006502 -0.760177
v -0.759414 -0.013498 -0.868812
v -1.092553 -0.013498 -1.243344
v -1.023537 -0.013498 -1.134890
v -0.934202 -0.013498 -1.000887
v -0.851410 -0.013498 -0.935424
v -0.782521 -0.013498 -0.946535
v -1.088965 -0.013498 -1.343107
v -0.662415 -0.013498 -0.867168
v -0.614383 -0.013498 -0.821138
v -0.600419 -0.013498 -0.760177
vn -0.9748 -0.0000 0.2233
vn -0.6919 -0.0000 0.7220
vn -0.0169 -0.0000 0.9999
vn -0.9994 -0.0000 -0.0359
vn -0.9585 -0.0000 0.2850
vn 0.1592 -0.0000 0.9872
vn -0.6202 -0.0000 0.7844
vn -0.8321 -0.0000 0.5547
vn -0.8437 -0.0000 0.5369
vn -0.0000 1.0000 -0.0000
vt 0.000000 0.000000
s 0
f 37/1/1 48/1/1 38/1/1
f 36/1/2 47/1/2 37/1/2
f 34/1/3 46/1/3 36/1/3
f 35/1/4 40/1/4 29/1/4
f 33/1/5 39/1/5 34/1/5
f 32/1/6 44/1/6 33/1/6
f 31/1/7 43/1/7 32/1/7
f 30/1/8 42/1/8 31/1/8
f 29/1/9 41/1/9 30/1/9
f 21/1/10 20/1/10 8/1/10
f 37/1/1 47/1/1 48/1/1
f 36/1/2 46/1/2 47/1/2
f 34/1/3 39/1/3 46/1/3
f 35/1/4 45/1/4 40/1/4
f 33/1/5 44/1/5 39/1/5
f 32/1/6 43/1/6 44/1/6
f 31/1/7 42/1/7 43/1/7
f 30/1/8 41/1/8 42/1/8
f 29/1/9 40/1/9 41/1/9
f 11/1/10 35/1/10 29/1/10
f 29/1/10 30/1/10 12/1/10
f 30/1/10 31/1/10 13/1/10
f 31/1/10 32/1/10 33/1/10
f 33/1/10 34/1/10 36/1/10
f 37/1/10 38/1/10 1/1/10
f 36/1/10 37/1/10 2/1/10
f 37/1/10 1/1/10 2/1/10
f 2/1/10 3/1/10 5/1/10
f 3/1/10 4/1/10 5/1/10
f 30/1/10 13/1/10 12/1/10
f 31/1/10 33/1/10 13/1/10
f 33/1/10 36/1/10 8/1/10
f 36/1/10 2/1/10 6/1/10
f 6/1/10 7/1/10 8/1/10
f 2/1/10 5/1/10 6/1/10
f 36/1/10 6/1/10 8/1/10
f 12/1/10 11/1/10 29/1/10
f 15/1/10 14/1/10 13/1/10
f 8/1/10 9/1/10 21/1/10
f 9/1/10 10/1/10 27/1/10
f 33/1/10 8/1/10 20/1/10
f 15/1/10 33/1/10 19/1/10
f 15/1/10 13/1/10 33/1/10
f 17/1/10 16/1/10 19/1/10
f 16/1/10 15/1/10 19/1/10
f 19/1/10 18/1/10 17/1/10
f 19/1/10 33/1/10 20/1/10
f 9/1/10 27/1/10 21/1/10
f 10/1/10 28/1/10 27/1/10
f 27/1/10 26/1/10 25/1/10
f 27/1/10 25/1/10 22/1/10
f 21/1/10 27/1/10 22/1/10
f 25/1/10 24/1/10 23/1/10
f 25/1/10 23/1/10 22/1/10
