# Blender 4.5.1 LTS
# www.blender.org
o province_142
v 22.567783 0.045516 -4.528628
v 22.357941 0.045516 -3.929085
v 22.427891 0.045516 -3.359519
v 22.967476 0.045516 -3.189649
v 22.967476 0.045516 -2.989801
v 22.507826 0.045516 -2.959825
v 22.657118 0.045516 -2.594027
v 23.562351 0.045516 -5.108794
v 24.204679 0.045516 -4.943032
v 24.598364 0.045516 -4.977854
v 25.093010 0.045516 -4.925254
v 25.471970 0.045516 -5.020957
v 22.932907 0.045516 -2.546063
v 23.628378 0.045516 -2.701944
v 24.036068 0.045516 -3.085652
v 24.539684 0.045516 -3.217551
v 25.019318 0.045516 -3.793113
v 25.007326 0.045516 -4.308720
v 25.512941 0.045516 -4.554533
v 25.580889 0.045516 -4.870292
vn -0.0000 1.0000 -0.0000
vt 0.000000 0.000000
s 1
f 13/1/1 14/1/1 5/1/1
f 9/1/1 8/1/1 15/1/1
f 8/1/1 1/1/1 4/1/1
f 1/1/1 2/1/1 4/1/1
f 2/1/1 3/1/1 4/1/1
f 10/1/1 9/1/1 18/1/1
f 8/1/1 4/1/1 15/1/1
f 20/1/1 12/1/1 11/1/1
f 11/1/1 10/1/1 18/1/1
f 9/1/1 15/1/1 16/1/1
f 18/1/1 9/1/1 16/1/1
f 19/1/1 20/1/1 11/1/1
f 16/1/1 17/1/1 18/1/1
f 18/1/1 19/1/1 11/1/1
f 4/1/1 5/1/1 14/1/1
f 15/1/1 4/1/1 14/1/1
f 5/1/1 6/1/1 7/1/1
f 7/1/1 13/1/1 5/1/1
