# Blender 4.5.1 LTS
# www.blender.org
o province_144
v 23.580412 0.045516 -1.095169
v 22.848969 0.045516 -1.574803
v 22.369335 0.045516 -1.898557
v 22.585171 0.045516 -2.090411
v 22.657116 0.045516 -2.594027
v 22.507231 0.045516 -1.754667
v 22.932907 0.045516 -2.546063
v 23.628376 0.045516 -2.701944
v 24.036068 0.045516 -3.085652
v 24.539684 0.045516 -3.217551
v 25.019318 0.045516 -3.793113
v 25.343071 0.045516 -3.361442
v 25.247145 0.045516 -2.881807
v 25.355062 0.045516 -2.462127
v 25.079273 0.045516 -1.910547
v 24.491718 0.045516 -1.550821
v 24.359818 0.045516 -1.790639
v 24.143982 0.045516 -1.898556
v 23.880182 0.045516 -1.610776
v 23.976109 0.045516 -1.179105
vn -0.0000 1.0000 -0.0000
vt 0.000000 0.000000
s 1
f 17/1/1 15/1/1 10/1/1
f 3/1/1 6/1/1 4/1/1
f 6/1/1 2/1/1 4/1/1
f 2/1/1 1/1/1 19/1/1
f 1/1/1 20/1/1 19/1/1
f 7/1/1 5/1/1 4/1/1
f 10/1/1 9/1/1 18/1/1
f 9/1/1 8/1/1 18/1/1
f 8/1/1 7/1/1 19/1/1
f 7/1/1 4/1/1 2/1/1
f 19/1/1 7/1/1 2/1/1
f 19/1/1 18/1/1 8/1/1
f 12/1/1 11/1/1 10/1/1
f 15/1/1 14/1/1 10/1/1
f 14/1/1 13/1/1 10/1/1
f 13/1/1 12/1/1 10/1/1
f 17/1/1 16/1/1 15/1/1
f 10/1/1 18/1/1 17/1/1
