# Blender 4.5.1 LTS
# www.blender.org
o province_049
v -24.421207 0.045516 -4.704368
v -24.404554 0.045516 -4.346309
v -24.238014 0.045516 -4.129808
v -23.879957 0.045516 -4.188097
v -23.605167 0.045516 -4.079847
v -23.480263 0.045516 -3.830039
v -23.088896 0.045516 -3.655172
v -22.847416 0.045516 -3.430344
v -22.939013 0.045516 -3.197190
v -23.080572 0.045516 -3.063958
v -22.972321 0.045516 -2.689245
v -23.047264 0.045516 -2.489398
v -23.538553 0.045516 -2.331187
v -23.613497 0.045516 -2.031416
v -24.163074 0.045516 -2.081378
v -24.521132 0.045516 -1.839897
v -25.029078 0.045516 -2.256244
v -25.320520 0.045516 -2.664265
v -26.086601 0.045516 -2.947381
v -26.211506 0.045516 -3.380383
v -26.211506 0.045516 -3.713461
v -24.482784 0.045516 -4.796733
v -25.082798 0.045516 -4.770313
v -25.437374 0.045516 -4.569900
v -25.922581 0.045516 -4.118156
v -26.384848 0.045516 -3.899188
v -24.482784 -0.094484 -4.796733
v -25.082798 -0.094484 -4.770313
v -25.437374 -0.094484 -4.569900
v -25.922581 -0.094484 -4.118156
v -24.521132 -0.094484 -1.839897
v -25.029078 -0.094484 -2.256244
v -25.320520 -0.094484 -2.664265
v -26.086601 -0.094484 -2.947381
v -26.211506 -0.094484 -3.380383
v -26.211506 -0.094484 -3.713461
v -26.384848 -0.094484 -3.899188
vn -0.6814 -0.0000 -0.7319
vn -0.0000 1.0000 -0.0000
vn -0.4281 -0.0000 -0.9037
vn -0.7311 -0.0000 0.6823
vn -0.3467 -0.0000 0.9380
vn -0.3466 -0.0000 0.9380
vn -0.9608 -0.0000 0.2772
vn -0.0440 -0.0000 -0.9990
vn -0.8137 -0.0000 0.5812
vn -0.4921 -0.0000 -0.8706
vn -1.0000 -0.0000 -0.0000
vn -0.6339 -0.0000 0.7734
vt 0.000000 0.000000
s 1
f 29/1/1 25/1/1 24/1/1
s 2
f 25/1/2 2/1/2 24/1/2
s 3
f 30/1/3 26/1/3 25/1/3
s 4
f 37/1/4 21/1/4 26/1/4
s 5
f 34/1/5 18/1/6 19/1/5
s 6
f 35/1/7 19/1/7 20/1/7
s 7
f 27/1/8 23/1/8 22/1/8
s 8
f 33/1/9 17/1/9 18/1/9
s 9
f 28/1/10 24/1/10 23/1/10
s 10
f 36/1/11 20/1/11 21/1/11
s 11
f 32/1/12 16/1/12 17/1/12
s 1
f 29/1/1 30/1/1 25/1/1
s 2
f 12/1/2 11/1/2 13/1/2
f 11/1/2 10/1/2 13/1/2
f 10/1/2 9/1/2 7/1/2
f 9/1/2 8/1/2 7/1/2
f 7/1/2 6/1/2 10/1/2
f 6/1/2 5/1/2 4/1/2
f 6/1/2 4/1/2 3/1/2
f 15/1/2 14/1/2 13/1/2
f 17/1/2 16/1/2 15/1/2
f 20/1/2 19/1/2 18/1/2
f 18/1/2 17/1/2 15/1/2
f 15/1/2 13/1/2 3/1/2
f 13/1/2 10/1/2 6/1/2
f 6/1/2 3/1/2 13/1/2
f 2/1/2 1/1/2 23/1/2
f 1/1/2 22/1/2 23/1/2
f 15/1/2 3/1/2 18/1/2
f 3/1/2 2/1/2 25/1/2
f 18/1/2 3/1/2 25/1/2
f 20/1/2 18/1/2 25/1/2
f 20/1/2 25/1/2 21/1/2
f 25/1/2 26/1/2 21/1/2
f 2/1/2 23/1/2 24/1/2
s 3
f 30/1/3 37/1/3 26/1/3
s 4
f 37/1/4 36/1/4 21/1/4
s 5
f 34/1/5 33/1/6 18/1/6
s 6
f 35/1/7 34/1/7 19/1/7
s 7
f 27/1/8 28/1/8 23/1/8
s 8
f 33/1/9 32/1/9 17/1/9
s 9
f 28/1/10 29/1/10 24/1/10
s 10
f 36/1/11 35/1/11 20/1/11
s 11
f 32/1/12 31/1/12 16/1/12
