# Blender 4.5.1 LTS
# www.blender.org
mtllib province_101.mtl
o province_101
v -1.318331 0.006502 0.817895
v -1.276696 0.006502 0.932093
v -1.199374 0.006502 0.921387
v -1.137516 0.006502 0.865477
v -1.035214 0.006502 0.923766
v -1.004285 0.006502 0.816705
v -0.945996 0.006502 0.776260
v -0.945996 0.006502 0.653734
v -1.017370 0.006502 0.657303
v -1.351117 0.006502 0.640738
v -1.371411 0.006502 0.686101
v -1.365096 0.006502 0.777677
v -1.050058 0.006502 0.637026
v -1.119422 0.006502 0.646899
v -1.197047 0.006502 0.672245
v -1.282683 0.006502 0.632442
v -1.351117 -0.013498 0.640738
v -1.371411 -0.013498 0.686101
v -1.050058 -0.013498 0.637026
v -1.119422 -0.013498 0.646899
v -1.197047 -0.013498 0.672245
v -1.282683 -0.013498 0.632442
v -1.318331 -0.013498 0.817895
v -1.276696 -0.013498 0.932093
v -1.365096 -0.013498 0.777677
vn -0.1409 -0.0000 -0.9900
vn -0.0000 1.0000 -0.0000
vn -0.3104 -0.0000 -0.9506
vn 0.4215 -0.0000 -0.9068
vn -0.1203 -0.0000 -0.9927
vn -0.9128 -0.0000 -0.4084
vn -0.9976 -0.0000 0.0688
vn -0.9395 -0.0000 0.3425
vn -0.6520 -0.0000 0.7582
vt 0.000000 0.000000
s 0
f 13/1/1 20/1/1 14/1/1
f 15/1/2 1/1/2 4/1/2
f 14/1/3 21/1/3 15/1/3
f 15/1/4 22/1/4 16/1/4
f 16/1/5 17/1/5 10/1/5
f 10/1/6 18/1/6 11/1/6
f 11/1/7 25/1/7 12/1/7
f 1/1/8 24/1/8 2/1/8
f 12/1/9 23/1/9 1/1/9
f 13/1/1 19/1/1 20/1/1
f 9/1/2 13/1/2 14/1/2
f 15/1/2 16/1/2 1/1/2
f 16/1/2 10/1/2 11/1/2
f 9/1/2 14/1/2 6/1/2
f 14/1/2 15/1/2 4/1/2
f 6/1/2 14/1/2 4/1/2
f 7/1/2 8/1/2 9/1/2
f 4/1/2 5/1/2 6/1/2
f 6/1/2 7/1/2 9/1/2
f 16/1/2 11/1/2 12/1/2
f 2/1/2 3/1/2 1/1/2
f 3/1/2 4/1/2 1/1/2
f 16/1/2 12/1/2 1/1/2
f 14/1/3 20/1/3 21/1/3
f 15/1/4 21/1/4 22/1/4
f 16/1/5 22/1/5 17/1/5
f 10/1/6 17/1/6 18/1/6
f 11/1/7 18/1/7 25/1/7
f 1/1/8 23/1/8 24/1/8
f 12/1/9 25/1/9 23/1/9
