# Blender 4.5.1 LTS
# www.blender.org
mtllib province_150.mtl
o province_150
v 1.465097 0.006502 0.656114
v 1.354096 0.006502 0.664336
v 1.294484 0.006502 0.693114
v 1.222539 0.006502 0.631447
v 1.197872 0.006502 0.565668
v 1.226650 0.006502 0.499890
v 1.210206 0.006502 0.411500
v 1.296540 0.006502 0.345722
v 1.569931 0.006502 0.401222
v 1.666543 0.006502 0.460834
v 1.701488 0.006502 0.569779
v 1.633654 0.006502 0.617058
v 1.551431 0.006502 0.588280
v 1.293007 0.006502 0.266245
v 1.360835 0.006502 0.260389
v 1.432412 0.006502 0.331966
v 1.555821 0.006502 0.358891
v 1.293007 -0.013498 0.266245
v 1.360835 -0.013498 0.260389
v 1.432412 -0.013498 0.331966
v 1.569931 -0.013498 0.401222
v 1.666543 -0.013498 0.460834
v 1.701488 -0.013498 0.569779
v 1.555821 -0.013498 0.358891
vn -0.0000 1.0000 -0.0000
vn -0.0860 -0.0000 -0.9963
vn 0.7071 -0.0000 -0.7071
vn 0.2132 -0.0000 -0.9770
vn 0.5251 -0.0000 -0.8510
vn 0.9522 -0.0000 -0.3054
vn 0.9487 -0.0000 -0.3162
vt 0.000000 0.000000
s 0
f 16/1/1 6/1/1 2/1/1
f 15/1/2 18/1/2 14/1/2
f 16/1/3 19/1/3 15/1/3
f 17/1/4 20/1/4 16/1/4
f 10/1/5 21/1/5 9/1/5
f 11/1/6 22/1/6 10/1/6
f 9/1/7 24/1/7 17/1/7
f 11/1/1 10/1/1 12/1/1
f 10/1/1 9/1/1 13/1/1
f 9/1/1 17/1/1 16/1/1
f 16/1/1 15/1/1 8/1/1
f 15/1/1 14/1/1 8/1/1
f 8/1/1 7/1/1 6/1/1
f 10/1/1 13/1/1 12/1/1
f 9/1/1 16/1/1 13/1/1
f 2/1/1 1/1/1 16/1/1
f 1/1/1 13/1/1 16/1/1
f 4/1/1 3/1/1 2/1/1
f 6/1/1 5/1/1 4/1/1
f 16/1/1 8/1/1 6/1/1
f 4/1/1 2/1/1 6/1/1
f 15/1/2 19/1/2 18/1/2
f 16/1/3 20/1/3 19/1/3
f 17/1/4 24/1/4 20/1/4
f 10/1/5 22/1/5 21/1/5
f 11/1/6 23/1/6 22/1/6
f 9/1/7 21/1/7 24/1/7
