# Blender 4.5.1 LTS
# www.blender.org
mtllib province_165.mtl
o province_165
v -3.759014 0.006502 1.226632
v -3.712621 0.006502 1.192134
v -3.662659 0.006502 1.212357
v -3.619834 0.006502 1.209978
v -3.567494 0.006502 1.176670
v -3.494930 0.006502 1.186187
v -3.759014 0.006502 1.282303
v -3.790418 0.006502 1.335120
v -3.436403 0.006502 1.485005
v -3.413564 0.006502 1.426479
v -3.409281 0.006502 1.362242
v -3.386442 0.006502 1.312280
v -3.459243 0.006502 1.192372
v -3.834702 0.006502 1.365420
v -3.799711 0.006502 1.402910
v -3.732396 0.006502 1.400105
v -3.667837 0.006502 1.448883
v -3.596056 0.006502 1.450237
v -3.584470 0.006502 1.463853
v -3.759014 -0.013498 1.226632
v -3.759014 -0.013498 1.282303
v -3.790418 -0.013498 1.335120
v -3.584470 -0.013498 1.463853
v -3.596056 -0.013498 1.450237
v -3.834702 -0.013498 1.365420
v -3.799711 -0.013498 1.402910
v -3.732396 -0.013498 1.400105
v -3.667837 -0.013498 1.448883
vn -0.7311 -0.0000 0.6823
vn 0.0416 -0.0000 0.9991
vn -0.6028 -0.0000 0.7979
vn -0.0000 1.0000 -0.0000
vn -1.0000 -0.0000 -0.0000
vn -0.8595 -0.0000 -0.5111
vn -0.5647 -0.0000 -0.8253
vn -0.7616 -0.0000 0.6481
vn -0.0189 -0.0000 0.9998
vn -0.7310 -0.0000 0.6823
vn -0.7616 -0.0000 0.6480
vt 0.000000 0.000000
s 0
f 14/1/1 26/1/1 15/1/1
f 15/1/2 27/1/2 16/1/2
f 16/1/3 28/1/3 17/1/3
f 18/1/4 11/1/4 4/1/4
f 1/1/5 21/1/5 7/1/5
f 7/1/6 22/1/6 8/1/6
f 8/1/7 25/1/7 14/1/7
f 18/1/8 23/1/8 19/1/8
f 17/1/9 24/1/9 18/1/9
f 14/1/10 25/1/10 26/1/10
f 15/1/2 26/1/2 27/1/2
f 16/1/3 27/1/3 28/1/3
f 3/1/4 2/1/4 1/1/4
f 3/1/4 1/1/4 7/1/4
f 6/1/4 5/1/4 4/1/4
f 4/1/4 3/1/4 16/1/4
f 3/1/4 7/1/4 16/1/4
f 8/1/4 14/1/4 15/1/4
f 7/1/4 8/1/4 16/1/4
f 13/1/4 6/1/4 11/1/4
f 6/1/4 4/1/4 11/1/4
f 11/1/4 12/1/4 13/1/4
f 9/1/4 10/1/4 19/1/4
f 10/1/4 11/1/4 18/1/4
f 18/1/4 19/1/4 10/1/4
f 16/1/4 17/1/4 4/1/4
f 17/1/4 18/1/4 4/1/4
f 8/1/4 15/1/4 16/1/4
f 1/1/5 20/1/5 21/1/5
f 7/1/6 21/1/6 22/1/6
f 8/1/7 22/1/7 25/1/7
f 18/1/11 24/1/11 23/1/11
f 17/1/9 28/1/9 24/1/9
