# Blender 4.5.1 LTS
# www.blender.org
o province_022
v -49.023243 0.045516 -22.213305
v -49.052017 0.045516 -22.875202
v -48.922520 0.045516 -23.234928
v -49.498081 0.045516 -23.623432
v -50.467793 0.045516 -22.827774
v -51.412640 0.045516 -22.529400
v -51.636414 0.045516 -21.833200
v -51.561821 0.045516 -20.689440
v -51.039673 0.045516 -20.415934
v -50.517525 0.045516 -20.813763
v -50.268883 0.045516 -20.664577
v -50.293743 0.045516 -20.217018
v -49.962795 0.045516 -19.886070
v -49.559898 0.045516 -20.375299
v -49.559898 0.045516 -21.051586
v -49.732567 0.045516 -21.569592
v -49.372841 0.045516 -22.030045
v -49.498081 -0.094484 -23.623432
v -50.467793 -0.094484 -22.827774
v -51.412640 -0.094484 -22.529400
v -51.636414 -0.094484 -21.833200
v -51.561821 -0.094484 -20.689440
v -51.039673 -0.094484 -20.415934
v -50.517525 -0.094484 -20.813763
v -50.268883 -0.094484 -20.664577
v -50.293743 -0.094484 -20.217018
vn -0.9985 -0.0000 -0.0555
vn -0.6343 -0.0000 -0.7731
vn -0.9520 -0.0000 -0.3060
vn -0.9979 -0.0000 0.0651
vn -0.0000 1.0000 -0.0000
vn 0.6060 -0.0000 0.7954
vn -0.5145 -0.0000 0.8575
vn -0.3011 -0.0000 -0.9536
vn -0.4640 -0.0000 0.8858
vt 0.000000 0.000000
s 1
f 25/1/1 12/1/1 11/1/1
s 2
f 18/1/2 5/1/2 4/1/2
s 3
f 20/1/3 7/1/3 6/1/3
s 4
f 21/1/4 8/1/4 7/1/4
s 5
f 7/1/5 10/1/5 16/1/5
s 6
f 23/1/6 10/1/6 9/1/6
s 7
f 24/1/7 11/1/7 10/1/7
s 8
f 19/1/8 6/1/8 5/1/8
s 9
f 22/1/9 9/1/9 8/1/9
s 1
f 25/1/1 26/1/1 12/1/1
s 2
f 18/1/2 19/1/2 5/1/2
s 3
f 20/1/3 21/1/3 7/1/3
s 4
f 21/1/4 22/1/4 8/1/4
s 5
f 17/1/5 1/1/5 2/1/5
f 2/1/5 3/1/5 4/1/5
f 5/1/5 6/1/5 7/1/5
f 2/1/5 4/1/5 5/1/5
f 16/1/5 17/1/5 5/1/5
f 17/1/5 2/1/5 5/1/5
f 14/1/5 15/1/5 11/1/5
f 15/1/5 16/1/5 11/1/5
f 12/1/5 13/1/5 14/1/5
f 11/1/5 12/1/5 14/1/5
f 8/1/5 9/1/5 10/1/5
f 10/1/5 11/1/5 16/1/5
f 16/1/5 5/1/5 7/1/5
f 7/1/5 8/1/5 10/1/5
s 6
f 23/1/6 24/1/6 10/1/6
s 7
f 24/1/7 25/1/7 11/1/7
s 8
f 19/1/8 20/1/8 6/1/8
s 9
f 22/1/9 23/1/9 9/1/9
