# Blender 4.5.1 LTS
# www.blender.org
mtllib province_117.mtl
o province_117
v 0.264630 0.001999 0.192416
v 0.271619 0.001999 0.188510
v 0.280047 0.001999 0.185838
v 0.287447 0.001999 0.189538
v 0.294231 0.001999 0.189127
v 0.298136 0.001999 0.185838
v 0.310264 0.001999 0.212047
v 0.306496 0.001999 0.205366
v 0.308723 0.001999 0.196459
v 0.302899 0.001999 0.189778
v 0.268913 0.001999 0.197384
v 0.268742 0.001999 0.204407
v 0.275251 0.001999 0.209032
v 0.268056 0.001999 0.215884
v 0.259663 0.001999 0.220338
v 0.267029 0.001999 0.227189
v 0.274908 0.001999 0.229416
v 0.285529 0.001999 0.237467
v 0.300603 0.001999 0.237296
v 0.305742 0.001999 0.230273
v 0.305742 0.001999 0.226847
v 0.312080 0.001999 0.222564
v 0.313451 0.001999 0.216740
v 0.264630 -0.000001 0.192416
v 0.268913 -0.000001 0.197384
v 0.268742 -0.000001 0.204407
v 0.275251 -0.000001 0.209032
v 0.268056 -0.000001 0.215884
v 0.259663 -0.000001 0.220338
vn -0.0000 1.0000 -0.0000
vn -0.7574 -0.0000 0.6529
vn -0.9997 -0.0000 -0.0244
vn -0.5792 -0.0000 0.8152
vn -0.6897 -0.0000 -0.7241
vn -0.4687 -0.0000 -0.8833
vt 0.000000 0.000000
s 0
f 2/1/1 1/1/1 11/1/1 12/1/1 13/1/1 14/1/1 15/1/1 16/1/1 17/1/1 18/1/1 19/1/1 20/1/1 21/1/1 22/1/1 23/1/1 7/1/1 8/1/1 9/1/1 10/1/1 6/1/1 5/1/1 4/1/1 3/1/1
f 11/1/2 1/1/2 24/1/2 25/1/2
f 12/1/3 11/1/3 25/1/3 26/1/3
f 13/1/4 12/1/4 26/1/4 27/1/4
f 14/1/5 13/1/5 27/1/5 28/1/5
f 15/1/6 14/1/6 28/1/6 29/1/6
