# Blender 4.5.1 LTS
# www.blender.org
mtllib province_109.mtl
o province_109
v -1.427143 0.006502 2.079067
v -1.498677 0.006502 2.121001
v -1.511011 0.006502 2.207335
v -1.597345 0.006502 2.291202
v -1.585011 0.006502 2.377536
v -1.466610 0.006502 2.486070
v -1.469077 0.006502 2.599538
v -1.345742 0.006502 2.641472
v -1.333409 0.006502 2.717939
v -1.064540 0.006502 2.804273
v -0.958472 0.006502 2.621738
v -1.010273 0.006502 2.584738
v -1.002873 0.006502 2.488537
v -1.094140 0.006502 2.454003
v -1.121274 0.006502 2.372603
v -1.224874 0.006502 2.306002
v -1.261875 0.006502 2.214735
v -1.239675 0.006502 2.158001
v -1.348209 0.006502 2.180201
v -1.380276 0.006502 2.113601
v -1.427143 -0.013498 2.079067
v -1.498677 -0.013498 2.121001
v -1.511011 -0.013498 2.207335
v -1.597345 -0.013498 2.291202
v -1.585011 -0.013498 2.377536
v -1.466610 -0.013498 2.486070
v -1.469077 -0.013498 2.599538
v -1.345742 -0.013498 2.641472
v -1.333409 -0.013498 2.717939
v -1.064540 -0.013498 2.804273
vn -0.0000 1.0000 -0.0000
vn -0.5057 -0.0000 -0.8627
vn -0.9899 -0.0000 -0.1414
vn -0.6968 -0.0000 -0.7173
vn -0.9899 -0.0000 0.1414
vn -0.6757 -0.0000 0.7372
vn -0.9998 -0.0000 -0.0217
vn -0.3219 -0.0000 0.9468
vn -0.9872 -0.0000 0.1592
vn -0.3057 -0.0000 0.9521
vt 0.000000 0.000000
s 0
f 16/1/1 19/1/1 6/1/1
f 1/1/2 22/1/2 2/1/2
f 2/1/3 23/1/3 3/1/3
f 3/1/4 24/1/4 4/1/4
f 4/1/5 25/1/5 5/1/5
f 5/1/6 26/1/6 6/1/6
f 6/1/7 27/1/7 7/1/7
f 7/1/8 28/1/8 8/1/8
f 8/1/9 29/1/9 9/1/9
f 9/1/10 30/1/10 10/1/10
f 20/1/1 1/1/1 2/1/1
f 3/1/1 4/1/1 5/1/1
f 20/1/1 2/1/1 3/1/1
f 17/1/1 18/1/1 19/1/1
f 19/1/1 20/1/1 3/1/1
f 3/1/1 5/1/1 6/1/1
f 6/1/1 7/1/1 8/1/1
f 8/1/1 9/1/1 12/1/1
f 9/1/1 10/1/1 12/1/1
f 10/1/1 11/1/1 12/1/1
f 12/1/1 13/1/1 14/1/1
f 14/1/1 15/1/1 16/1/1
f 16/1/1 17/1/1 19/1/1
f 19/1/1 3/1/1 6/1/1
f 6/1/1 8/1/1 16/1/1
f 14/1/1 8/1/1 12/1/1
f 14/1/1 16/1/1 8/1/1
f 1/1/2 21/1/2 22/1/2
f 2/1/3 22/1/3 23/1/3
f 3/1/4 23/1/4 24/1/4
f 4/1/5 24/1/5 25/1/5
f 5/1/6 25/1/6 26/1/6
f 6/1/7 26/1/7 27/1/7
f 7/1/8 27/1/8 28/1/8
f 8/1/9 28/1/9 29/1/9
f 9/1/10 29/1/10 30/1/10
