# Blender 4.5.1 LTS
# www.blender.org
mtllib province_183.mtl
o province_183
v -0.413763 0.006502 -0.543028
v -0.318121 0.006502 -0.530181
v -0.255312 0.006502 -0.503058
v -0.203923 0.006502 -0.541600
v -0.136831 0.006502 -0.528753
v -0.522546 0.006502 -0.787370
v -0.488287 0.006502 -0.834477
v -0.411203 0.006502 -0.827340
v -0.359813 0.006502 -0.871592
v -0.364096 0.006502 -0.928691
v -0.379798 0.006502 -0.962950
v -0.349821 0.006502 -1.025760
v -0.418340 0.006502 -1.114263
v -0.342684 0.006502 -1.111408
v -0.244187 0.006502 -1.188493
v -0.179951 0.006502 -1.129966
v -0.058615 0.006502 -1.124256
v 0.038454 0.006502 -1.051454
v 0.139805 0.006502 -1.005775
v 0.188340 0.006502 -0.955813
v 0.194050 0.006502 -0.907279
v 0.158362 0.006502 -0.867309
v 0.159790 0.006502 -0.808782
v 0.218317 0.006502 -0.790225
v 0.251149 0.006502 -0.686019
v 0.211179 0.006502 -0.591805
v 0.081278 0.006502 -0.584668
v 0.034172 0.006502 -0.506156
v -0.064325 0.006502 -0.484744
v -0.600419 0.006502 -0.760177
v -0.503284 0.006502 -0.676719
v -0.495787 0.006502 -0.594252
v -0.534962 0.006502 -0.519036
v -0.493443 0.006502 -0.495718
v -0.600419 -0.013498 -0.760177
v -0.503284 -0.013498 -0.676719
v -0.495787 -0.013498 -0.594252
v -0.534962 -0.013498 -0.519036
v -0.493443 -0.013498 -0.495718
vn -0.4897 -0.0000 0.8719
vn -0.8869 -0.0000 -0.4619
vn -0.9959 -0.0000 0.0905
vn -0.6517 -0.0000 0.7585
vn -0.0000 1.0000 -0.0000
vt 0.000000 0.000000
s 0
f 33/1/1 39/1/1 34/1/1
f 32/1/2 38/1/2 33/1/2
f 31/1/3 37/1/3 32/1/3
f 30/1/4 36/1/4 31/1/4
f 9/1/5 18/1/5 16/1/5
f 33/1/1 38/1/1 39/1/1
f 32/1/2 37/1/2 38/1/2
f 31/1/3 36/1/3 37/1/3
f 30/1/4 35/1/4 36/1/4
f 6/1/5 30/1/5 31/1/5
f 32/1/5 33/1/5 34/1/5
f 7/1/5 6/1/5 8/1/5
f 6/1/5 31/1/5 8/1/5
f 32/1/5 34/1/5 1/1/5
f 31/1/5 32/1/5 1/1/5
f 8/1/5 31/1/5 1/1/5
f 8/1/5 1/1/5 2/1/5
f 2/1/5 3/1/5 4/1/5
f 5/1/5 29/1/5 27/1/5
f 29/1/5 28/1/5 27/1/5
f 2/1/5 4/1/5 8/1/5
f 4/1/5 5/1/5 9/1/5
f 27/1/5 26/1/5 25/1/5
f 5/1/5 27/1/5 23/1/5
f 9/1/5 8/1/5 4/1/5
f 5/1/5 23/1/5 9/1/5
f 27/1/5 25/1/5 23/1/5
f 25/1/5 24/1/5 23/1/5
f 22/1/5 21/1/5 20/1/5
f 22/1/5 20/1/5 19/1/5
f 23/1/5 22/1/5 18/1/5
f 9/1/5 23/1/5 18/1/5
f 10/1/5 9/1/5 16/1/5
f 12/1/5 11/1/5 10/1/5
f 14/1/5 13/1/5 12/1/5
f 16/1/5 15/1/5 14/1/5
f 18/1/5 17/1/5 16/1/5
f 22/1/5 19/1/5 18/1/5
f 16/1/5 14/1/5 12/1/5
f 12/1/5 10/1/5 16/1/5
