# Blender 4.5.1 LTS
# www.blender.org
o province_179
v 13.594725 0.045516 -4.499465
v 13.025160 0.045516 -4.409534
v 12.515549 0.045516 -4.579404
v 11.736144 0.045516 -4.309609
v 11.376419 0.045516 -4.649350
v 11.186563 0.045516 -5.188939
v 11.146593 0.045516 -5.688557
v 11.466349 0.045516 -6.218153
v 11.949313 0.045516 -6.234807
v 12.174141 0.045516 -6.667809
v 12.773684 0.045516 -6.742753
v 13.281629 0.045516 -6.442981
v 13.639688 0.045516 -6.426327
v 14.014401 0.045516 -5.585303
vn -0.0000 1.0000 -0.0000
vt 0.000000 0.000000
s 1
f 12/1/1 9/1/1 3/1/1
f 1/1/1 14/1/1 2/1/1
f 14/1/1 13/1/1 12/1/1
f 12/1/1 11/1/1 9/1/1
f 11/1/1 10/1/1 9/1/1
f 14/1/1 12/1/1 3/1/1
f 3/1/1 2/1/1 14/1/1
f 5/1/1 4/1/1 3/1/1
f 7/1/1 6/1/1 9/1/1
f 6/1/1 5/1/1 3/1/1
f 9/1/1 8/1/1 7/1/1
f 6/1/1 3/1/1 9/1/1
