# Blender 4.5.1 LTS
# www.blender.org
o province_005
v -20.961357 0.045516 -0.389620
v -21.058506 0.045516 -0.729637
v -20.711550 0.045516 -1.076594
v -20.794821 0.045516 -1.319463
v -21.148714 0.045516 -1.499880
v -21.079323 0.045516 -1.902349
v -20.729589 0.045516 -2.132174
v -20.519751 0.045516 -2.122181
v -20.140041 0.045516 -1.972296
v -19.880241 0.045516 -2.162150
v -19.480547 0.045516 -2.142166
v -19.290693 0.045516 -2.501890
v -19.110832 0.045516 -2.491898
v -18.920975 0.045516 -2.302043
v -20.970745 0.045516 0.071572
v -20.208302 0.045516 0.061295
v -19.865501 0.045516 0.299348
v -19.487965 0.045516 0.119160
v -19.233948 0.045516 -0.216503
v -19.192013 0.045516 -0.551987
v -18.858974 0.045516 -0.774011
v -18.801838 0.045516 -1.050170
v -18.539534 0.045516 -1.373008
v -18.383408 0.045516 -1.887305
v -18.485544 0.045516 -2.119437
v -18.806074 0.045516 -2.312783
v -20.970745 -0.094484 0.071572
v -20.208302 -0.094484 0.061295
v -19.865501 -0.094484 0.299348
v -19.487965 -0.094484 0.119160
v -19.233948 -0.094484 -0.216503
v -19.192013 -0.094484 -0.551987
v -18.858974 -0.094484 -0.774011
v -18.801838 -0.094484 -1.050170
v -18.539534 -0.094484 -1.373008
v -18.383408 -0.094484 -1.887305
v -18.485544 -0.094484 -2.119437
v -18.806074 -0.094484 -2.312783
vn 0.5165 -0.0000 -0.8563
vn 0.7761 -0.0000 0.6306
vn -0.0000 1.0000 -0.0000
vn 0.0135 -0.0000 0.9999
vn 0.9793 -0.0000 0.2026
vn 0.5547 -0.0000 0.8321
vn -0.5704 -0.0000 0.8214
vn 0.4307 -0.0000 0.9025
vn 0.9923 -0.0000 0.1240
vn 0.9153 -0.0000 -0.4027
vn 0.9569 -0.0000 0.2905
vn 0.7974 -0.0000 0.6034
vt 0.000000 0.000000
s 1
f 37/1/1 26/1/1 25/1/1
s 2
f 34/1/2 23/1/2 22/1/2
s 3
f 3/1/3 16/1/3 20/1/3
s 4
f 27/1/4 16/1/4 15/1/4
s 5
f 33/1/5 22/1/5 21/1/5
s 6
f 32/1/6 21/1/6 20/1/6
s 7
f 28/1/7 17/1/7 16/1/7
s 8
f 29/1/8 18/1/8 17/1/8
s 9
f 31/1/9 20/1/9 19/1/9
s 10
f 36/1/10 25/1/10 24/1/10
s 11
f 35/1/11 24/1/11 23/1/11
s 12
f 30/1/12 19/1/12 18/1/12
s 1
f 37/1/1 38/1/1 26/1/1
s 2
f 34/1/2 35/1/2 23/1/2
s 3
f 7/1/3 6/1/3 4/1/3
f 6/1/3 5/1/3 4/1/3
f 9/1/3 8/1/3 4/1/3
f 8/1/3 7/1/3 4/1/3
f 11/1/3 10/1/3 9/1/3
f 13/1/3 12/1/3 11/1/3
f 25/1/3 26/1/3 14/1/3
f 14/1/3 13/1/3 11/1/3
f 25/1/3 14/1/3 24/1/3
f 14/1/3 11/1/3 23/1/3
f 24/1/3 14/1/3 23/1/3
f 11/1/3 9/1/3 22/1/3
f 9/1/3 4/1/3 3/1/3
f 3/1/3 2/1/3 1/1/3
f 9/1/3 3/1/3 20/1/3
f 22/1/3 23/1/3 11/1/3
f 20/1/3 21/1/3 22/1/3
f 18/1/3 19/1/3 16/1/3
f 19/1/3 20/1/3 16/1/3
f 16/1/3 17/1/3 18/1/3
f 1/1/3 15/1/3 16/1/3
f 9/1/3 20/1/3 22/1/3
f 3/1/3 1/1/3 16/1/3
s 4
f 27/1/4 28/1/4 16/1/4
s 5
f 33/1/5 34/1/5 22/1/5
s 6
f 32/1/6 33/1/6 21/1/6
s 7
f 28/1/7 29/1/7 17/1/7
s 8
f 29/1/8 30/1/8 18/1/8
s 9
f 31/1/9 32/1/9 20/1/9
s 10
f 36/1/10 37/1/10 25/1/10
s 11
f 35/1/11 36/1/11 24/1/11
s 12
f 30/1/12 31/1/12 19/1/12
