# Blender 4.5.1 LTS
# www.blender.org
mtllib province_110.mtl
o province_110
v -0.504602 0.006502 2.550204
v -0.615603 0.006502 2.579804
v -0.793204 0.006502 2.567471
v -0.847471 0.006502 2.525537
v -0.958472 0.006502 2.621738
v -1.010273 0.006502 2.584738
v -1.002873 0.006502 2.488537
v -1.094140 0.006502 2.454003
v -1.121274 0.006502 2.372603
v -1.224875 0.006502 2.306002
v -1.261875 0.006502 2.214735
v -1.239675 0.006502 2.158001
v -1.165674 0.006502 2.130867
v -1.113874 0.006502 2.081534
v -1.005339 0.006502 2.103734
v -0.978206 0.006502 2.066734
v -0.904205 0.006502 2.135801
v -0.854871 0.006502 2.133334
v -0.509535 0.006502 2.434270
v -0.817175 0.006502 2.249430
v -0.810295 0.006502 2.235860
v -0.798849 0.006502 2.330588
v -0.688106 0.006502 2.403517
v -0.518279 0.006502 2.323456
v -0.457001 0.006502 2.371230
v -0.810295 -0.013498 2.235860
v -0.817175 -0.013498 2.249430
v -0.798849 -0.013498 2.330588
v -0.688106 -0.013498 2.403517
v -0.518279 -0.013498 2.323456
v -0.457001 -0.013498 2.371230
vn 0.8919 -0.0000 0.4522
vn -0.0000 1.0000 -0.0000
vn 0.9754 -0.0000 -0.2203
vn 0.5500 -0.0000 -0.8352
vn -0.4264 -0.0000 -0.9045
vn 0.6149 -0.0000 -0.7886
vn 0.8919 -0.0000 0.4523
vt 0.000000 0.000000
s 0
f 20/1/1 26/1/1 21/1/1
f 20/1/2 17/1/2 9/1/2
f 22/1/3 27/1/3 20/1/3
f 23/1/4 28/1/4 22/1/4
f 24/1/5 29/1/5 23/1/5
f 25/1/6 30/1/6 24/1/6
f 20/1/7 27/1/7 26/1/7
f 2/1/2 1/1/2 19/1/2
f 19/1/2 25/1/2 24/1/2
f 19/1/2 24/1/2 23/1/2
f 3/1/2 2/1/2 23/1/2
f 2/1/2 19/1/2 23/1/2
f 6/1/2 5/1/2 7/1/2
f 5/1/2 4/1/2 7/1/2
f 4/1/2 3/1/2 23/1/2
f 9/1/2 8/1/2 7/1/2
f 11/1/2 10/1/2 13/1/2
f 10/1/2 9/1/2 13/1/2
f 13/1/2 12/1/2 11/1/2
f 15/1/2 14/1/2 13/1/2
f 17/1/2 16/1/2 15/1/2
f 21/1/2 18/1/2 17/1/2
f 20/1/2 21/1/2 17/1/2
f 17/1/2 15/1/2 9/1/2
f 15/1/2 13/1/2 9/1/2
f 9/1/2 7/1/2 22/1/2
f 7/1/2 4/1/2 22/1/2
f 4/1/2 23/1/2 22/1/2
f 22/1/2 20/1/2 9/1/2
f 22/1/3 28/1/3 27/1/3
f 23/1/4 29/1/4 28/1/4
f 24/1/5 30/1/5 29/1/5
f 25/1/6 31/1/6 30/1/6
