# Blender 4.5.1 LTS
# www.blender.org
o province_124
v 32.719398 0.045516 5.048440
v 33.223015 0.045516 5.408166
v 34.146317 0.045516 5.360202
v 32.754272 0.045516 2.485883
v 33.122051 0.045516 3.145106
v 33.052658 0.045516 3.568395
v 33.364925 0.045516 3.922293
v 32.740398 0.045516 4.442731
v 33.869427 0.045516 2.653756
v 34.432999 0.045516 2.425929
v 35.032543 0.045516 2.078193
v 35.512180 0.045516 2.701720
v 35.452225 0.045516 3.301265
v 35.979824 0.045516 4.080674
v 35.248379 0.045516 4.464383
v 34.504944 0.045516 4.956010
v 32.754272 -0.094484 2.485883
v 33.869427 -0.094484 2.653756
v 34.432999 -0.094484 2.425929
v 35.032543 -0.094484 2.078193
vn -0.3748 -0.0000 -0.9271
vn 0.1489 -0.0000 -0.9889
vn -0.0000 1.0000 -0.0000
vn -0.5017 -0.0000 -0.8650
vt 0.000000 0.000000
s 1
f 19/1/1 9/1/1 10/1/1
s 2
f 18/1/2 4/1/2 9/1/2
s 3
f 13/1/3 9/1/3 7/1/3
s 4
f 20/1/4 10/1/4 11/1/4
s 1
f 19/1/1 18/1/1 9/1/1
s 2
f 18/1/2 17/1/2 4/1/2
s 3
f 15/1/3 14/1/3 13/1/3
f 13/1/3 12/1/3 10/1/3
f 12/1/3 11/1/3 10/1/3
f 16/1/3 15/1/3 7/1/3
f 15/1/3 13/1/3 7/1/3
f 2/1/3 3/1/3 7/1/3
f 3/1/3 16/1/3 7/1/3
f 8/1/3 1/1/3 2/1/3
f 5/1/3 6/1/3 7/1/3
f 7/1/3 8/1/3 2/1/3
f 13/1/3 10/1/3 9/1/3
f 9/1/3 4/1/3 5/1/3
f 9/1/3 5/1/3 7/1/3
s 4
f 20/1/4 19/1/4 10/1/4
