# Blender 4.5.1 LTS
# www.blender.org
o province_052
v -22.893215 0.045516 1.807539
v -22.592518 0.045516 2.241234
v -22.043171 0.045516 2.009930
v -21.742477 0.045516 2.061973
v -19.562431 0.045516 2.599755
v -19.394737 0.045516 2.432060
v -19.608692 0.045516 2.137146
v -19.273302 0.045516 1.512625
v -18.926344 0.045516 1.136755
v -19.122953 0.045516 0.888103
v -19.284866 0.045516 0.471755
v -22.234724 0.045516 0.471081
v -21.828733 0.045516 0.400194
v -21.229853 0.045516 0.187882
v -20.980446 0.045516 0.239426
v -23.036957 0.045516 1.663870
v -22.489122 0.045516 1.517267
v -22.213463 0.045516 0.947573
v -20.258675 0.045516 0.229673
v -19.877472 0.045516 0.494396
v -19.393230 0.045516 0.263451
v -21.431334 0.045516 -0.097700
v -21.607862 0.045516 -0.034551
v -22.234724 -0.094484 0.471081
v -21.828733 -0.094484 0.400194
v -21.229853 -0.094484 0.187882
v -20.980446 -0.094484 0.239426
v -22.998371 -0.094484 1.810725
v -23.036957 -0.094484 1.663870
v -22.489122 -0.094484 1.517267
v -22.213463 -0.094484 0.947573
v -20.258675 -0.094484 0.229673
v -19.877472 -0.094484 0.494396
v -19.393230 -0.094484 0.263451
v -21.431334 -0.094484 -0.097700
v -21.607862 -0.094484 -0.034551
v -19.955648 0.045516 2.848408
v -21.008083 0.045516 2.628669
v -20.314171 0.045516 2.588191
v -22.998371 0.045516 1.810725
vn -0.0135 -0.0000 -0.9999
vn -0.3368 -0.0000 -0.9416
vn -0.9002 -0.0000 -0.4356
vn -0.4305 -0.0000 -0.9026
vn 0.8171 -0.0000 -0.5765
vn 0.2024 -0.0000 -0.9793
vn -0.9990 -0.0000 0.0446
vn -0.8915 -0.0000 -0.4529
vn -0.1720 -0.0000 -0.9851
vn -0.0000 1.0000 -0.0000
vn -0.2585 -0.0000 -0.9660
vn 0.5704 -0.0000 -0.8214
vn -0.9672 -0.0000 0.2541
vt 0.000000 0.000000
s 1
f 32/1/1 15/1/1 19/1/1
s 2
f 35/1/2 23/1/2 22/1/2
s 3
f 31/1/3 17/1/3 18/1/3
s 4
f 34/1/4 20/1/4 21/1/4
s 5
f 26/1/5 22/1/5 14/1/5
s 6
f 27/1/6 14/1/6 15/1/6
s 7
f 24/1/7 18/1/7 12/1/7
s 8
f 36/1/8 13/1/8 23/1/8
s 9
f 25/1/9 12/1/9 13/1/9
s 10
f 14/1/10 23/1/10 13/1/10
s 11
f 30/1/11 16/1/11 17/1/11
s 12
f 33/1/12 19/1/12 20/1/12
s 13
f 29/1/13 40/1/13 16/1/13
s 1
f 32/1/1 27/1/1 15/1/1
s 2
f 35/1/2 36/1/2 23/1/2
s 3
f 31/1/3 30/1/3 17/1/3
s 4
f 34/1/4 33/1/4 20/1/4
s 5
f 26/1/5 35/1/5 22/1/5
s 6
f 27/1/6 26/1/6 14/1/6
s 7
f 24/1/7 31/1/7 18/1/7
s 8
f 36/1/8 25/1/8 13/1/8
s 9
f 25/1/9 24/1/9 12/1/9
s 10
f 39/1/10 37/1/10 5/1/10
f 5/1/10 6/1/10 7/1/10
f 8/1/10 9/1/10 10/1/10
f 39/1/10 5/1/10 7/1/10
f 7/1/10 8/1/10 20/1/10
f 8/1/10 10/1/10 20/1/10
f 10/1/10 11/1/10 20/1/10
f 11/1/10 21/1/10 20/1/10
f 20/1/10 19/1/10 15/1/10
f 39/1/10 7/1/10 20/1/10
f 4/1/10 38/1/10 39/1/10
f 1/1/10 2/1/10 17/1/10
f 2/1/10 3/1/10 17/1/10
f 4/1/10 39/1/10 15/1/10
f 3/1/10 4/1/10 18/1/10
f 17/1/10 3/1/10 18/1/10
f 16/1/10 40/1/10 1/1/10
f 17/1/10 16/1/10 1/1/10
f 39/1/10 20/1/10 15/1/10
f 14/1/10 22/1/10 23/1/10
f 15/1/10 14/1/10 13/1/10
f 4/1/10 15/1/10 13/1/10
f 18/1/10 4/1/10 13/1/10
f 13/1/10 12/1/10 18/1/10
s 11
f 30/1/11 29/1/11 16/1/11
s 12
f 33/1/12 32/1/12 19/1/12
s 13
f 29/1/13 28/1/13 40/1/13
