# Blender 4.5.1 LTS
# www.blender.org
o province_092
v -0.118459 0.045516 0.865242
v -0.178414 0.045516 0.615433
v -0.538139 0.045516 0.275693
v -0.528147 0.045516 -0.014086
v -1.047750 0.045516 -0.193949
v -1.207628 0.045516 -0.513705
v -0.538139 0.045516 -1.393034
v -0.648055 0.045516 -1.013324
v 0.261251 0.045516 -1.163209
v 0.830816 0.045516 -1.462980
v 1.150572 0.045516 -1.393034
v 1.490312 0.045516 -1.103255
v 1.810068 0.045516 -1.522935
v 1.969946 0.045516 -1.413018
v 2.229748 0.045516 -1.413018
v 2.271383 0.045516 -1.197905
v 2.049330 0.045516 -0.961974
v 1.466442 0.045516 -0.802373
v 1.348477 0.045516 -0.261120
v 0.939067 0.045516 -0.052946
v 0.814162 0.045516 0.405038
v 0.869675 0.045516 0.911596
v 0.550475 0.045516 1.487545
v 0.314544 0.045516 1.529180
v -0.011596 0.045516 1.126710
vn -0.0000 1.0000 -0.0000
vt 0.000000 0.000000
s 1
f 20/1/1 4/1/1 2/1/1
f 14/1/1 13/1/1 12/1/1
f 12/1/1 11/1/1 18/1/1
f 11/1/1 10/1/1 18/1/1
f 9/1/1 7/1/1 8/1/1
f 10/1/1 9/1/1 18/1/1
f 15/1/1 14/1/1 16/1/1
f 14/1/1 12/1/1 17/1/1
f 17/1/1 16/1/1 14/1/1
f 20/1/1 19/1/1 18/1/1
f 18/1/1 17/1/1 12/1/1
f 9/1/1 8/1/1 4/1/1
f 20/1/1 9/1/1 4/1/1
f 20/1/1 18/1/1 9/1/1
f 8/1/1 6/1/1 5/1/1
f 5/1/1 4/1/1 8/1/1
f 4/1/1 3/1/1 2/1/1
f 2/1/1 1/1/1 21/1/1
f 1/1/1 25/1/1 22/1/1
f 21/1/1 1/1/1 22/1/1
f 25/1/1 24/1/1 23/1/1
f 23/1/1 22/1/1 25/1/1
f 21/1/1 20/1/1 2/1/1
