# Blender 4.5.1 LTS
# www.blender.org
o province_180
v 12.528681 0.045516 25.458319
v 12.570315 0.045516 25.225163
v 13.203168 0.045516 24.692234
v 14.252373 0.045516 24.717215
v 15.418154 0.045516 24.500713
v 15.801196 0.045516 24.051054
v 15.776214 0.045516 23.751282
v 14.976820 0.045516 23.493145
v 14.560471 0.045516 23.201698
v 14.910204 0.045516 22.735386
v 14.943511 0.045516 22.152494
v 15.426479 0.045516 21.877705
v 15.651310 0.045516 21.827744
v 20.297178 0.045516 23.932856
v 20.017712 0.045516 23.469988
v 19.519817 0.045516 23.418125
v 19.454762 0.045516 23.130016
v 18.289825 0.045516 22.901884
v 18.854816 0.045516 23.255003
v 20.151712 0.045516 24.441988
v 20.441206 0.045516 24.818327
v 20.295399 0.045516 25.458319
v 15.791623 0.045516 21.486977
v 16.097771 0.045516 21.443449
v 16.120258 0.045516 21.810778
v 16.405218 0.045516 21.977003
v 16.341482 0.045516 22.247889
v 16.876139 0.045516 22.733044
v 17.215473 0.045516 22.503763
v 17.482662 0.045516 22.517122
v 17.721394 0.045516 22.821714
v 20.297178 -0.094484 23.932856
v 20.017712 -0.094484 23.469988
v 19.519817 -0.094484 23.418125
v 19.454762 -0.094484 23.130016
v 18.854816 -0.094484 23.255003
v 18.289825 -0.094484 22.901884
v 20.151712 -0.094484 24.441988
v 20.441206 -0.094484 24.818327
v 15.791623 -0.094484 21.486977
v 16.097771 -0.094484 21.443449
v 16.120258 -0.094484 21.810778
v 16.405218 -0.094484 21.977003
v 16.341482 -0.094484 22.247889
v 16.876139 -0.094484 22.733044
v 17.215473 -0.094484 22.503763
v 17.482662 -0.094484 22.517122
v 17.721394 -0.094484 22.821714
v 12.528681 -0.094484 25.458319
v 12.570315 -0.094484 25.225163
v 13.203168 -0.094484 24.692234
v 14.252373 -0.094484 24.717215
v 15.418154 -0.094484 24.500713
v 15.801196 -0.094484 24.051054
v 15.776214 -0.094484 23.751282
v 14.976820 -0.094484 23.493145
v 14.560471 -0.094484 23.201698
v 20.295399 -0.094484 25.458319
vn 0.9981 -0.0000 -0.0611
vn 0.1397 -0.0000 -0.9902
vn 0.5039 -0.0000 -0.8638
vn 0.9754 -0.0000 -0.2203
vn -0.1826 -0.0000 -0.9832
vn 0.8561 -0.0000 -0.5169
vn -0.5599 -0.0000 -0.8286
vn 0.7871 -0.0000 -0.6169
vn -0.1408 -0.0000 -0.9900
vn 0.9734 -0.0000 0.2290
vn 0.9615 -0.0000 0.2747
vn 0.0499 -0.0000 -0.9988
vn -0.2040 -0.0000 -0.9790
vn 0.6720 -0.0000 -0.7406
vn -0.9844 -0.0000 -0.1758
vn 0.5300 -0.0000 -0.8480
vn 0.0238 -0.0000 -0.9997
vn 0.7926 -0.0000 -0.6097
vn 0.1036 -0.0000 -0.9946
vn -0.9965 -0.0000 0.0830
vn -0.3073 -0.0000 0.9516
vn 0.9750 -0.0000 0.2221
vn -0.6441 -0.0000 -0.7649
vn -0.0000 1.0000 -0.0000
vn -0.7612 -0.0000 -0.6485
vn -0.0000 -0.0000 1.0000
vn -0.5735 -0.0000 0.8192
vn -0.9965 -0.0000 0.0831
vt 0.000000 0.000000
s 1
f 42/1/1 24/1/1 25/1/1
s 2
f 37/1/2 31/1/2 18/1/2
s 3
f 43/1/3 25/1/3 26/1/3
s 4
f 34/1/4 17/1/4 16/1/4
s 5
f 53/1/5 4/1/5 5/1/5
s 6
f 32/1/6 15/1/6 14/1/6
s 7
f 46/1/7 28/1/7 29/1/7
s 8
f 48/1/8 30/1/8 31/1/8
s 9
f 41/1/9 23/1/9 24/1/9
s 10
f 44/1/10 26/1/10 27/1/10
s 11
f 38/1/11 14/1/11 20/1/11
s 12
f 47/1/12 29/1/12 30/1/12
s 13
f 35/1/13 19/1/13 17/1/13
s 14
f 45/1/14 27/1/14 28/1/14
s 15
f 50/1/15 1/1/15 2/1/15
s 16
f 36/1/16 18/1/16 19/1/16
s 17
f 52/1/17 3/1/17 4/1/17
s 18
f 39/1/18 20/1/18 21/1/18
s 19
f 33/1/19 16/1/19 15/1/19
s 20
f 55/1/20 6/1/20 7/1/20
s 21
f 56/1/21 7/1/21 8/1/21
s 22
f 58/1/22 21/1/22 22/1/22
s 23
f 51/1/23 2/1/23 3/1/23
s 24
f 25/1/24 13/1/24 27/1/24
s 25
f 54/1/25 5/1/25 6/1/25
s 26
f 49/1/26 22/1/26 1/1/26
s 27
f 57/1/27 8/1/27 9/1/27
s 1
f 42/1/1 41/1/1 24/1/1
s 2
f 37/1/2 48/1/2 31/1/2
s 3
f 43/1/3 42/1/3 25/1/3
s 4
f 34/1/4 35/1/4 17/1/4
s 5
f 53/1/5 52/1/5 4/1/5
s 6
f 32/1/6 33/1/6 15/1/6
s 7
f 46/1/7 45/1/7 28/1/7
s 8
f 48/1/8 47/1/8 30/1/8
s 9
f 41/1/9 40/1/9 23/1/9
s 10
f 44/1/10 43/1/10 26/1/10
s 11
f 38/1/11 32/1/11 14/1/11
s 12
f 47/1/12 46/1/12 29/1/12
s 13
f 35/1/13 36/1/13 19/1/13
s 14
f 45/1/14 44/1/14 27/1/14
s 15
f 50/1/15 49/1/15 1/1/15
s 16
f 36/1/16 37/1/16 18/1/16
s 17
f 52/1/17 51/1/17 3/1/17
s 18
f 39/1/18 38/1/18 20/1/18
s 19
f 33/1/19 34/1/19 16/1/19
s 20
f 55/1/20 54/1/28 6/1/20
s 21
f 56/1/21 55/1/21 7/1/21
s 22
f 58/1/22 39/1/22 21/1/22
s 23
f 51/1/23 50/1/23 2/1/23
s 24
f 30/1/24 29/1/24 31/1/24
f 29/1/24 28/1/24 31/1/24
f 27/1/24 26/1/24 25/1/24
f 18/1/24 31/1/24 19/1/24
f 31/1/24 28/1/24 6/1/24
f 16/1/24 17/1/24 19/1/24
f 31/1/24 6/1/24 19/1/24
f 14/1/24 15/1/24 16/1/24
f 22/1/24 21/1/24 20/1/24
f 20/1/24 14/1/24 16/1/24
f 20/1/24 16/1/24 19/1/24
f 1/1/24 22/1/24 5/1/24
f 22/1/24 20/1/24 19/1/24
f 1/1/24 5/1/24 4/1/24
f 3/1/24 2/1/24 1/1/24
f 4/1/24 3/1/24 1/1/24
f 6/1/24 28/1/24 7/1/24
f 5/1/24 22/1/24 6/1/24
f 6/1/24 22/1/24 19/1/24
f 9/1/24 8/1/24 10/1/24
f 8/1/24 7/1/24 10/1/24
f 12/1/24 11/1/24 10/1/24
f 24/1/24 23/1/24 25/1/24
f 23/1/24 13/1/24 25/1/24
f 13/1/24 12/1/24 27/1/24
f 12/1/24 10/1/24 27/1/24
f 10/1/24 7/1/24 27/1/24
f 7/1/24 28/1/24 27/1/24
s 25
f 54/1/25 53/1/25 5/1/25
s 26
f 49/1/26 58/1/26 22/1/26
s 27
f 57/1/27 56/1/27 8/1/27
