# Blender 4.5.1 LTS
# www.blender.org
o province_078
v -7.491163 0.045516 -2.672057
v -7.682683 0.045516 -2.363959
v -7.616067 0.045516 -2.047534
v -7.357931 0.045516 -1.872668
v -7.024853 0.045516 -1.423011
v -6.250444 0.045516 -1.606205
v -5.734172 0.045516 -1.972591
v -5.068015 0.045516 -2.655403
v -4.651666 0.045516 -3.229964
v -5.267862 0.045516 -3.221637
v -5.509344 0.045516 -3.604678
v -6.317060 0.045516 -3.596351
v -6.949910 0.045516 -3.971065
v -7.627126 0.045516 -2.867133
v -7.369865 0.045516 -4.477908
v -7.328472 0.045516 -3.774396
v -7.563966 0.045516 -3.496850
v -7.796986 0.045516 -3.281090
v -7.627126 -0.094484 -2.867133
v -7.369865 -0.094484 -4.477908
v -7.328472 -0.094484 -3.774396
v -7.563966 -0.094484 -3.496850
v -7.796986 -0.094484 -3.281090
vn -0.6794 -0.0000 -0.7338
vn -0.0000 1.0000 -0.0000
vn -0.9983 -0.0000 0.0587
vn -0.7625 -0.0000 -0.6470
vn -0.9251 -0.0000 0.3796
vt 0.000000 0.000000
s 1
f 22/1/1 18/1/1 17/1/1
s 2
f 7/1/2 12/1/2 1/1/2
s 3
f 20/1/3 16/1/3 15/1/3
s 4
f 21/1/4 17/1/4 16/1/4
s 5
f 23/1/5 14/1/5 18/1/5
s 1
f 22/1/1 23/1/1 18/1/1
s 2
f 1/1/2 2/1/2 4/1/2
f 2/1/2 3/1/2 4/1/2
f 4/1/2 5/1/2 6/1/2
f 18/1/2 14/1/2 17/1/2
f 14/1/2 1/1/2 17/1/2
f 1/1/2 4/1/2 6/1/2
f 6/1/2 7/1/2 1/1/2
f 7/1/2 8/1/2 10/1/2
f 12/1/2 7/1/2 10/1/2
f 8/1/2 9/1/2 10/1/2
f 10/1/2 11/1/2 12/1/2
f 13/1/2 15/1/2 16/1/2
f 12/1/2 13/1/2 16/1/2
f 16/1/2 17/1/2 12/1/2
f 17/1/2 1/1/2 12/1/2
s 3
f 20/1/3 21/1/3 16/1/3
s 4
f 21/1/4 22/1/4 17/1/4
s 5
f 23/1/5 19/1/5 14/1/5
