# Blender 4.5.1 LTS
# www.blender.org
o province_059
v -24.994431 0.045516 6.873150
v -25.312473 0.045516 6.728586
v -25.335606 0.045516 6.416325
v -24.930822 0.045516 5.901672
v -24.497126 0.045516 5.791803
v -24.306301 0.045516 5.572063
v -25.230595 0.045516 5.347235
v -26.038307 0.045516 5.413851
v -26.163212 0.045516 5.638679
v -25.971693 0.045516 6.446393
v -26.005001 0.045516 6.712856
v -26.313097 0.045516 7.095897
v -26.762754 0.045516 7.795361
v -26.879330 0.045516 8.145093
v -26.671156 0.045516 8.511480
v -26.313097 0.045516 8.586422
v -25.988346 0.045516 8.344940
v -25.638615 0.045516 8.486500
v -25.338842 0.045516 8.469845
v -24.972458 0.045516 8.236691
v -24.464512 0.045516 8.303306
v -24.131433 0.045516 7.995208
v -24.089798 0.045516 7.453955
v -23.801235 0.045516 7.112680
v -24.162861 0.045516 6.992267
v -24.451286 0.045516 7.031094
v -24.545122 0.045516 6.936640
v -24.451286 -0.094484 7.031094
v -23.801235 -0.094484 7.112680
v -24.162861 -0.094484 6.992267
v -24.689342 -0.094484 4.781002
v -25.230595 -0.094484 5.347235
v -26.038307 -0.094484 5.413851
v -26.163212 -0.094484 5.638679
v -25.971693 -0.094484 6.446393
v -26.005001 -0.094484 6.712856
v -26.313097 -0.094484 7.095897
v -26.762754 -0.094484 7.795361
v -26.879330 -0.094484 8.145093
v -26.671156 -0.094484 8.511480
v -26.313097 -0.094484 8.586422
v -24.545122 -0.094484 6.936640
v -24.581089 0.045516 5.247312
v -24.689342 0.045516 4.781002
vn -0.7792 -0.0000 -0.6268
vn 0.3159 -0.0000 -0.9488
vn -0.1334 -0.0000 -0.9911
vn 0.7094 -0.0000 -0.7048
vn -0.9923 -0.0000 -0.1240
vn -0.2049 -0.0000 0.9788
vn -0.9730 -0.0000 0.2307
vn -0.7229 -0.0000 -0.6910
vn -0.8412 -0.0000 -0.5408
vn -0.0822 -0.0000 -0.9966
vn -0.8742 -0.0000 -0.4856
vn -0.8695 -0.0000 0.4940
vn -0.0000 1.0000 -0.0000
vn -0.9487 -0.0000 -0.3162
vt 0.000000 0.000000
s 1
f 36/1/1 12/1/1 11/1/1
s 2
f 29/1/2 25/1/2 24/1/2
s 3
f 30/1/3 26/1/3 25/1/3
s 4
f 28/1/4 27/1/4 26/1/4
s 5
f 35/1/5 11/1/5 10/1/5
s 6
f 40/1/6 16/1/6 15/1/6
s 7
f 34/1/7 10/1/7 9/1/7
s 8
f 31/1/8 7/1/8 44/1/8
s 9
f 37/1/9 13/1/9 12/1/9
s 10
f 32/1/10 8/1/10 7/1/10
s 11
f 33/1/11 9/1/11 8/1/11
s 12
f 39/1/12 15/1/12 14/1/12
s 13
f 4/1/13 43/1/13 7/1/13
s 14
f 38/1/14 14/1/14 13/1/14
s 1
f 36/1/1 37/1/1 12/1/1
s 2
f 29/1/2 30/1/2 25/1/2
s 3
f 30/1/3 28/1/3 26/1/3
s 4
f 28/1/4 42/1/4 27/1/4
s 5
f 35/1/5 36/1/5 11/1/5
s 6
f 40/1/6 41/1/6 16/1/6
s 7
f 34/1/7 35/1/7 10/1/7
s 8
f 31/1/8 32/1/8 7/1/8
s 9
f 37/1/9 38/1/9 13/1/9
s 10
f 32/1/10 33/1/10 8/1/10
s 11
f 33/1/11 34/1/11 9/1/11
s 12
f 39/1/12 40/1/12 15/1/12
s 13
f 20/1/13 21/1/13 22/1/13
f 23/1/13 24/1/13 25/1/13
f 20/1/13 22/1/13 23/1/13
f 18/1/13 19/1/13 20/1/13
f 15/1/13 16/1/13 17/1/13
f 17/1/13 18/1/13 20/1/13
f 20/1/13 23/1/13 26/1/13
f 23/1/13 25/1/13 26/1/13
f 26/1/13 27/1/13 1/1/13
f 14/1/13 15/1/13 17/1/13
f 17/1/13 20/1/13 2/1/13
f 20/1/13 26/1/13 1/1/13
f 20/1/13 1/1/13 2/1/13
f 13/1/13 14/1/13 17/1/13
f 11/1/13 12/1/13 2/1/13
f 12/1/13 13/1/13 17/1/13
f 8/1/13 9/1/13 7/1/13
f 9/1/13 10/1/13 3/1/13
f 12/1/13 17/1/13 2/1/13
f 9/1/13 3/1/13 7/1/13
f 10/1/13 11/1/13 2/1/13
f 2/1/13 3/1/13 10/1/13
f 43/1/13 44/1/13 7/1/13
f 5/1/13 6/1/13 43/1/13
f 4/1/13 5/1/13 43/1/13
f 3/1/13 4/1/13 7/1/13
s 14
f 38/1/14 39/1/14 14/1/14
