# Blender 4.5.1 LTS
# www.blender.org
mtllib province_132.mtl
o province_132
v 0.262897 0.001999 0.027783
v 0.247812 0.001999 0.034760
v 0.246955 0.001999 0.043039
v 0.256805 0.001999 0.050605
v 0.268225 0.001999 0.052033
v 0.274220 0.001999 0.069162
v 0.255212 0.001999 0.029416
v 0.275505 0.001999 0.064452
v 0.269438 0.001999 0.060241
v 0.274491 0.001999 0.037156
v 0.288797 0.001999 0.039623
v 0.299158 0.001999 0.057383
v 0.292744 0.001999 0.062316
v 0.283124 0.001999 0.064536
v 0.296938 0.001999 0.049243
v 0.270544 0.001999 0.031030
v 0.288466 0.001999 0.043719
v 0.274220 -0.000001 0.069162
v 0.299158 -0.000001 0.057383
v 0.292744 -0.000001 0.062316
v 0.283124 -0.000001 0.064536
vn -0.0000 1.0000 -0.0000
vn 0.6097 -0.0000 0.7926
vn 0.2249 -0.0000 0.9744
vn 0.4610 -0.0000 0.8874
vt 0.000000 0.000000
s 0
f 7/1/1 2/1/1 3/1/1 4/1/1 5/1/1 9/1/1 8/1/1 6/1/1 14/1/1 13/1/1 12/1/1 15/1/1 17/1/1 11/1/1 10/1/1 16/1/1 1/1/1
f 12/1/2 13/1/2 20/1/2 19/1/2
f 13/1/3 14/1/3 21/1/3 20/1/3
f 14/1/4 6/1/4 18/1/4 21/1/4
