# Blender 4.5.1 LTS
# www.blender.org
mtllib province_016.mtl
o province_016
v -0.172518 0.006502 -0.073386
v -0.295282 0.006502 -0.081951
v -0.332396 0.006502 -0.111928
v -0.413763 0.006502 -0.543028
v -0.318121 0.006502 -0.530181
v -0.255312 0.006502 -0.503058
v -0.203923 0.006502 -0.541600
v -0.136831 0.006502 -0.528753
v -0.158243 0.006502 -0.471654
v -0.182511 0.006502 -0.454524
v -0.145396 0.006502 -0.395997
v -0.145396 0.006502 -0.337471
v -0.055465 0.006502 -0.247539
v -0.076877 0.006502 -0.199005
v -0.092579 0.006502 -0.144761
v -0.448472 0.006502 -0.208108
v -0.507639 0.006502 -0.323626
v -0.485759 0.006502 -0.374223
v -0.493443 0.006502 -0.495718
v -0.435096 0.006502 -0.122072
v -0.448472 -0.013498 -0.208108
v -0.507639 -0.013498 -0.323626
v -0.485759 -0.013498 -0.374223
v -0.493443 -0.013498 -0.495718
v -0.435096 -0.013498 -0.122072
vn -0.9881 -0.0000 0.1536
vn -0.9980 -0.0000 0.0631
vn -0.9179 -0.0000 -0.3969
vn -0.8900 -0.0000 0.4559
vn -0.0000 1.0000 -0.0000
vt 0.000000 0.000000
s 0
f 16/1/1 25/1/1 20/1/1
f 19/1/2 23/1/2 18/1/2
f 18/1/3 22/1/3 17/1/3
f 17/1/4 21/1/4 16/1/4
f 12/1/5 3/1/5 14/1/5
f 16/1/1 21/1/1 25/1/1
f 19/1/2 24/1/2 23/1/2
f 18/1/3 23/1/3 22/1/3
f 17/1/4 22/1/4 21/1/4
f 5/1/5 4/1/5 18/1/5
f 4/1/5 19/1/5 18/1/5
f 18/1/5 17/1/5 16/1/5
f 8/1/5 7/1/5 9/1/5
f 7/1/5 6/1/5 10/1/5
f 9/1/5 7/1/5 10/1/5
f 6/1/5 5/1/5 18/1/5
f 16/1/5 20/1/5 3/1/5
f 6/1/5 18/1/5 12/1/5
f 18/1/5 16/1/5 12/1/5
f 12/1/5 11/1/5 10/1/5
f 16/1/5 3/1/5 12/1/5
f 3/1/5 2/1/5 1/1/5
f 1/1/5 15/1/5 3/1/5
f 15/1/5 14/1/5 3/1/5
f 14/1/5 13/1/5 12/1/5
f 12/1/5 10/1/5 6/1/5
