# Blender 4.5.1 LTS
# www.blender.org
o province_113
v 2.119832 0.045516 4.212685
v 1.900000 0.045516 4.352579
v 0.291283 0.045516 4.700713
v 0.334450 0.045516 4.254653
v 0.665397 0.045516 4.153930
v 1.068290 0.045516 4.412933
v 1.643850 0.045516 4.427322
v 1.370459 0.045516 7.017344
v 1.758962 0.045516 6.398616
v 2.161855 0.045516 6.484950
v 2.291356 0.045516 6.988565
v 2.636692 0.045516 7.190011
v 3.183475 0.045516 6.931009
v 3.500033 0.045516 6.355448
v 3.384921 0.045516 5.851833
v 3.571979 0.045516 5.506497
v 4.190706 0.045516 5.808666
v 4.636766 0.045516 5.707943
v 4.982102 0.045516 5.492107
v 5.169159 0.045516 4.599988
v 5.600830 0.045516 4.369764
v 5.600830 0.045516 3.995649
v 5.370606 0.045516 3.664701
v 4.866991 0.045516 4.125150
v 4.305819 0.045516 4.168316
v 3.989260 0.045516 3.765424
v 3.226642 0.045516 4.153927
v 2.593526 0.045516 3.981260
v 0.240259 0.045516 6.471468
v 0.184057 0.045516 6.064001
v -0.015257 0.045516 5.793503
v -0.043997 0.045516 5.290556
v -0.241826 0.045516 5.013596
v -0.044561 0.045516 4.689517
v 0.967178 0.045516 7.062153
v 0.240259 -0.094484 6.471468
v 0.184057 -0.094484 6.064001
v -0.015257 -0.094484 5.793503
v -0.043997 -0.094484 5.290556
v -0.241826 -0.094484 5.013596
v -0.044561 -0.094484 4.689517
v 0.967178 -0.094484 7.062153
vn -0.9984 -0.0000 0.0570
vn -0.9906 -0.0000 0.1366
vn -0.8137 -0.0000 0.5812
vn -0.0000 1.0000 -0.0000
vn -0.8542 -0.0000 -0.5199
vn -0.8051 -0.0000 0.5932
vn -0.6306 -0.0000 0.7761
vt 0.000000 0.000000
s 1
f 39/1/1 31/1/1 32/1/1
s 2
f 37/1/2 29/1/2 30/1/2
s 3
f 40/1/3 32/1/3 33/1/3
s 4
f 32/1/4 30/1/4 3/1/4
s 5
f 41/1/5 33/1/5 34/1/5
s 6
f 38/1/6 30/1/6 31/1/6
s 7
f 36/1/7 35/1/7 29/1/7
s 1
f 39/1/1 38/1/1 31/1/1
s 2
f 37/1/2 36/1/2 29/1/2
s 3
f 40/1/3 39/1/3 32/1/3
s 4
f 17/1/4 18/1/4 25/1/4
f 18/1/4 19/1/4 25/1/4
f 20/1/4 21/1/4 24/1/4
f 21/1/4 22/1/4 24/1/4
f 19/1/4 20/1/4 25/1/4
f 16/1/4 17/1/4 25/1/4
f 22/1/4 23/1/4 24/1/4
f 20/1/4 24/1/4 25/1/4
f 25/1/4 26/1/4 27/1/4
f 13/1/4 14/1/4 10/1/4
f 14/1/4 15/1/4 10/1/4
f 16/1/4 25/1/4 27/1/4
f 12/1/4 13/1/4 11/1/4
f 15/1/4 16/1/4 2/1/4
f 16/1/4 27/1/4 1/1/4
f 2/1/4 16/1/4 1/1/4
f 27/1/4 28/1/4 1/1/4
f 13/1/4 10/1/4 11/1/4
f 10/1/4 15/1/4 2/1/4
f 35/1/4 8/1/4 9/1/4
f 29/1/4 35/1/4 9/1/4
f 9/1/4 10/1/4 2/1/4
f 2/1/4 7/1/4 9/1/4
f 6/1/4 5/1/4 3/1/4
f 5/1/4 4/1/4 3/1/4
f 9/1/4 7/1/4 6/1/4
f 30/1/4 29/1/4 9/1/4
f 32/1/4 31/1/4 30/1/4
f 34/1/4 33/1/4 32/1/4
f 9/1/4 6/1/4 30/1/4
f 6/1/4 3/1/4 30/1/4
f 3/1/4 34/1/4 32/1/4
s 5
f 41/1/5 40/1/5 33/1/5
s 6
f 38/1/6 37/1/6 30/1/6
s 7
f 36/1/7 42/1/7 35/1/7
