# Blender 4.5.1 LTS
# www.blender.org
o province_162
v 46.759647 0.045516 5.435647
v 46.687706 0.045516 4.968001
v 46.327984 0.045516 4.464383
v 45.524593 0.045516 4.368456
v 45.104912 0.045516 4.020720
v 42.837059 0.045516 3.997042
v 42.804626 0.045516 4.624171
v 43.637810 0.045516 5.195811
v 43.442116 0.045516 6.239497
v 43.024296 0.045516 6.537938
v 42.964161 0.045516 6.968915
v 43.281933 0.045516 7.204681
v 43.883713 0.045516 7.340934
v 44.593689 0.045516 7.212906
v 45.365559 0.045516 6.979007
v 45.855133 0.045516 6.596899
v 46.174946 0.045516 6.478452
v 46.669624 0.045516 6.007898
v 47.059513 0.045516 5.755501
v 44.646347 0.045516 3.881157
v 44.340858 0.045516 4.287974
v 43.650970 0.045516 4.076787
v 43.518730 0.045516 3.740176
v 43.069073 0.045516 3.593548
v 42.837059 -0.094484 3.997042
v 42.804626 -0.094484 4.624171
v 43.637810 -0.094484 5.195811
v 43.442116 -0.094484 6.239497
v 43.024296 -0.094484 6.537938
v 42.964161 -0.094484 6.968915
v 43.281933 -0.094484 7.204681
v 43.883713 -0.094484 7.340934
v 44.593689 -0.094484 7.212906
v 45.365559 -0.094484 6.979007
v 45.855133 -0.094484 6.596899
v 46.174946 -0.094484 6.478452
v 46.669624 -0.094484 6.007898
v 47.059513 -0.094484 5.755501
v 44.646347 -0.094484 3.881157
v 44.340858 -0.094484 4.287974
v 43.650970 -0.094484 4.076787
v 43.518730 -0.094484 3.740176
v 43.069073 -0.094484 3.593548
vn -0.5812 -0.0000 -0.8137
vn 0.6153 -0.0000 0.7883
vn -0.5958 -0.0000 0.8031
vn 0.5434 -0.0000 0.8395
vn 0.1775 -0.0000 0.9841
vn 0.9308 -0.0000 -0.3657
vn -0.7996 -0.0000 -0.6005
vn -0.2208 -0.0000 0.9753
vn -0.9904 -0.0000 -0.1382
vn 0.3473 -0.0000 0.9377
vn 0.3473 -0.0000 0.9378
vn -0.5657 -0.0000 0.8246
vn 0.2900 -0.0000 0.9570
vn 0.6892 -0.0000 0.7246
vn -0.9829 -0.0000 -0.1843
vn 0.2927 -0.0000 -0.9562
vn -0.8669 -0.0000 -0.4985
vn 0.3100 -0.0000 -0.9507
vn -0.0000 1.0000 -0.0000
vn -0.9987 -0.0000 -0.0516
vt 0.000000 0.000000
s 1
f 28/1/1 10/1/1 9/1/1
s 2
f 34/1/2 16/1/2 15/1/2
s 3
f 30/1/3 12/1/3 11/1/3
s 4
f 37/1/4 19/1/4 18/1/4
s 5
f 32/1/5 14/1/5 13/1/5
s 6
f 41/1/6 23/1/6 22/1/6
s 7
f 39/1/7 21/1/7 20/1/7
s 8
f 31/1/8 13/1/8 12/1/8
s 9
f 29/1/9 11/1/9 10/1/9
s 10
f 35/1/10 17/1/11 16/1/10
s 11
f 27/1/12 7/1/12 26/1/12
s 12
f 33/1/13 15/1/13 14/1/13
s 13
f 36/1/14 18/1/14 17/1/14
s 14
f 27/1/15 9/1/15 8/1/15
s 15
f 40/1/16 22/1/16 21/1/16
s 16
f 43/1/17 6/1/17 24/1/17
s 17
f 42/1/18 24/1/18 23/1/18
s 18
f 21/1/19 22/1/19 8/1/19
s 19
f 25/1/20 7/1/20 6/1/20
s 1
f 28/1/1 29/1/1 10/1/1
s 2
f 34/1/2 35/1/2 16/1/2
s 3
f 30/1/3 31/1/3 12/1/3
s 4
f 37/1/4 38/1/4 19/1/4
s 5
f 32/1/5 33/1/5 14/1/5
s 6
f 41/1/6 42/1/6 23/1/6
s 7
f 39/1/7 40/1/7 21/1/7
s 8
f 31/1/8 32/1/8 13/1/8
s 9
f 29/1/9 30/1/9 11/1/9
s 10
f 35/1/10 36/1/11 17/1/11
s 11
f 27/1/12 8/1/12 7/1/12
s 12
f 33/1/13 34/1/13 15/1/13
s 13
f 36/1/14 37/1/14 18/1/14
s 14
f 27/1/15 28/1/15 9/1/15
s 15
f 40/1/16 41/1/16 22/1/16
s 16
f 43/1/17 25/1/17 6/1/17
s 17
f 42/1/18 43/1/18 24/1/18
s 18
f 13/1/19 14/1/19 9/1/19
f 14/1/19 15/1/19 9/1/19
f 16/1/19 17/1/19 4/1/19
f 17/1/19 18/1/19 1/1/19
f 15/1/19 16/1/19 8/1/19
f 11/1/19 12/1/19 10/1/19
f 12/1/19 13/1/19 9/1/19
f 9/1/19 10/1/19 12/1/19
f 6/1/19 7/1/19 22/1/19
f 7/1/19 8/1/19 22/1/19
f 24/1/19 6/1/19 23/1/19
f 23/1/19 6/1/19 22/1/19
f 8/1/19 9/1/19 15/1/19
f 17/1/19 1/1/19 4/1/19
f 18/1/19 19/1/19 1/1/19
f 1/1/19 2/1/19 4/1/19
f 2/1/19 3/1/19 4/1/19
f 4/1/19 5/1/19 21/1/19
f 5/1/19 20/1/19 21/1/19
f 8/1/19 16/1/19 4/1/19
f 4/1/19 21/1/19 8/1/19
s 19
f 25/1/20 26/1/20 7/1/20
