# Blender 4.5.1 LTS
# www.blender.org
o province_173
v -8.936872 0.045516 6.524652
v -8.395618 0.045516 6.449710
v -7.962615 0.045516 6.058342
v -7.246496 0.045516 6.466364
v -6.994689 0.045516 7.113870
v -6.670936 0.045516 6.934006
v -6.215284 0.045516 6.922015
v -5.915513 0.045516 7.605493
v -6.742881 0.045516 7.917255
v -7.462332 0.045516 8.432861
v -7.426359 0.045516 9.236249
v -8.157801 0.045516 8.804577
v -9.284940 0.045516 8.744623
v -9.440821 0.045516 8.145082
v -8.997159 0.045516 7.917255
v -8.733360 0.045516 7.137850
v -8.936872 -0.094484 6.524652
v -7.426359 -0.094484 9.236249
v -8.157801 -0.094484 8.804577
v -9.284940 -0.094484 8.744623
v -9.440821 -0.094484 8.145082
v -8.997159 -0.094484 7.917255
v -8.733360 -0.094484 7.137850
vn -0.0531 -0.0000 0.9986
vn -0.9678 -0.0000 0.2516
vn -0.9472 -0.0000 -0.3206
vn -0.5083 -0.0000 0.8612
vn -0.9491 -0.0000 0.3150
vn -0.0000 1.0000 -0.0000
vn -0.4568 -0.0000 -0.8896
vt 0.000000 0.000000
s 1
f 20/1/1 12/1/1 13/1/1
s 2
f 21/1/2 13/1/2 14/1/2
s 3
f 23/1/3 15/1/3 16/1/3
s 4
f 19/1/4 11/1/4 12/1/4
s 5
f 17/1/5 16/1/5 1/1/5
s 6
f 5/1/6 2/1/6 16/1/6
s 7
f 22/1/7 14/1/7 15/1/7
s 1
f 20/1/1 19/1/1 12/1/1
s 2
f 21/1/2 20/1/2 13/1/2
s 3
f 23/1/3 22/1/3 15/1/3
s 4
f 19/1/4 18/1/4 11/1/4
s 5
f 17/1/5 23/1/5 16/1/5
s 6
f 12/1/6 11/1/6 10/1/6
f 9/1/6 8/1/6 6/1/6
f 8/1/6 7/1/6 6/1/6
f 12/1/6 10/1/6 15/1/6
f 10/1/6 9/1/6 5/1/6
f 14/1/6 13/1/6 15/1/6
f 13/1/6 12/1/6 15/1/6
f 10/1/6 5/1/6 16/1/6
f 5/1/6 9/1/6 6/1/6
f 5/1/6 4/1/6 2/1/6
f 4/1/6 3/1/6 2/1/6
f 2/1/6 1/1/6 16/1/6
f 16/1/6 15/1/6 10/1/6
s 7
f 22/1/7 21/1/7 14/1/7
