# Blender 4.5.1 LTS
# www.blender.org
mtllib province_160.mtl
o province_160
v 6.956426 0.006502 0.170672
v 7.030427 0.006502 0.202739
v 7.114295 0.006502 0.163271
v 7.190763 0.006502 0.185472
v 7.296831 0.006502 0.123804
v 7.383165 0.006502 0.148471
v 7.353565 0.006502 0.210139
v 7.452233 0.006502 0.220006
v 7.496634 0.006502 0.249606
v 7.543501 0.006502 0.249606
v 7.580502 0.006502 0.284140
v 7.661579 0.006502 0.236902
v 6.973728 0.006502 0.417936
v 7.036538 0.006502 0.367974
v 6.989430 0.006502 0.272332
v 6.999423 0.006502 0.252347
v 7.057950 0.006502 0.473608
v 7.069370 0.006502 0.537845
v 7.000850 0.006502 0.597799
v 7.003705 0.006502 0.660609
v 7.029400 0.006502 0.706288
v 6.985148 0.006502 0.757678
v 7.661579 0.006502 0.922535
v 6.988631 0.006502 0.813408
v 7.194735 0.006502 0.889569
v 7.212790 0.006502 0.920521
v 7.251092 0.006502 0.916144
v 7.275104 0.006502 0.893633
v 7.334601 0.006502 0.900716
v 7.404753 0.006502 0.826179
v 7.465932 0.006502 0.852847
v 7.559858 0.006502 0.854292
v 6.988631 -0.013498 0.813408
v 7.194735 -0.013498 0.889569
v 7.212790 -0.013498 0.920521
v 7.251092 -0.013498 0.916144
v 7.275104 -0.013498 0.893633
v 7.334601 -0.013498 0.900716
v 7.404753 -0.013498 0.826179
v 7.465932 -0.013498 0.852847
v 7.559858 -0.013498 0.854292
v 7.661579 -0.013498 0.236902
v 7.661579 -0.013498 0.922535
vn -0.0000 1.0000 -0.0000
vn -0.3466 -0.0000 0.9380
vn -0.8638 -0.0000 0.5039
vn 0.1135 -0.0000 0.9935
vn 0.6839 -0.0000 0.7295
vn -0.1182 -0.0000 0.9930
vn 0.7282 -0.0000 0.6854
vn -0.3996 -0.0000 0.9167
vn -0.0154 -0.0000 0.9999
vn -0.5571 -0.0000 0.8304
vn 1.0000 -0.0000 -0.0000
vt 0.000000 0.000000
s 0
f 17/1/1 7/1/1 4/1/1
f 24/1/2 34/1/2 25/1/2
f 25/1/3 35/1/3 26/1/3
f 26/1/4 36/1/4 27/1/4
f 27/1/5 37/1/5 28/1/5
f 28/1/6 38/1/6 29/1/6
f 29/1/7 39/1/7 30/1/7
f 30/1/8 40/1/8 31/1/8
f 31/1/9 41/1/9 32/1/9
f 32/1/10 43/1/10 23/1/10
f 23/1/11 42/1/11 12/1/11
f 2/1/1 1/1/1 16/1/1
f 16/1/1 15/1/1 14/1/1
f 14/1/1 13/1/1 17/1/1
f 18/1/1 19/1/1 20/1/1
f 18/1/1 20/1/1 21/1/1
f 21/1/1 22/1/1 24/1/1
f 25/1/1 26/1/1 27/1/1
f 21/1/1 24/1/1 25/1/1
f 18/1/1 21/1/1 30/1/1
f 21/1/1 25/1/1 30/1/1
f 25/1/1 27/1/1 28/1/1
f 28/1/1 29/1/1 30/1/1
f 30/1/1 31/1/1 32/1/1
f 32/1/1 23/1/1 12/1/1
f 11/1/1 10/1/1 9/1/1
f 32/1/1 12/1/1 11/1/1
f 25/1/1 28/1/1 30/1/1
f 30/1/1 32/1/1 11/1/1
f 9/1/1 8/1/1 7/1/1
f 30/1/1 11/1/1 9/1/1
f 17/1/1 18/1/1 7/1/1
f 18/1/1 30/1/1 9/1/1
f 7/1/1 18/1/1 9/1/1
f 7/1/1 6/1/1 5/1/1
f 4/1/1 3/1/1 14/1/1
f 3/1/1 2/1/1 14/1/1
f 7/1/1 5/1/1 4/1/1
f 2/1/1 16/1/1 14/1/1
f 14/1/1 17/1/1 4/1/1
f 24/1/2 33/1/2 34/1/2
f 25/1/3 34/1/3 35/1/3
f 26/1/4 35/1/4 36/1/4
f 27/1/5 36/1/5 37/1/5
f 28/1/6 37/1/6 38/1/6
f 29/1/7 38/1/7 39/1/7
f 30/1/8 39/1/8 40/1/8
f 31/1/9 40/1/9 41/1/9
f 32/1/10 41/1/10 43/1/10
f 23/1/11 43/1/11 42/1/11
