# Blender 4.5.1 LTS
# www.blender.org
mtllib province_071.mtl
o province_071
v -2.216374 0.006502 -0.131379
v -2.182670 0.006502 -0.156161
v -2.204764 0.006502 -0.355576
v -2.263251 0.006502 -0.295107
v -2.284068 0.006502 -0.209855
v -1.993270 0.006502 -0.017962
v -1.941881 0.006502 0.004649
v -2.124254 0.006502 -0.376132
v -2.074577 0.006502 -0.410392
v -2.012910 0.006502 -0.415531
v -1.891919 0.006502 -0.006771
v -1.819118 0.006502 -0.079572
v -1.787713 0.006502 -0.100985
v -1.782003 0.006502 -0.209473
v -1.712057 0.006502 -0.269427
v -1.772011 0.006502 -0.297977
v -1.860515 0.006502 -0.260862
v -1.953301 0.006502 -0.268000
v -1.967576 0.006502 -0.352221
v -2.138202 0.006502 -0.150405
v -2.160317 0.006502 -0.148929
v -2.119637 0.006502 -0.111588
v -2.076565 0.006502 -0.111588
v -2.076565 0.006502 -0.035497
v -2.038179 0.006502 -0.005131
v -2.160317 -0.013498 -0.148929
v -2.138202 -0.013498 -0.150405
v -2.119637 -0.013498 -0.111588
v -2.076565 -0.013498 -0.111588
v -2.076565 -0.013498 -0.035497
v -2.038179 -0.013498 -0.005131
vn -0.6204 -0.0000 0.7843
vn -1.0000 -0.0000 -0.0000
vn -0.0000 -0.0000 1.0000
vn -0.9021 -0.0000 0.4315
vn -0.0000 1.0000 -0.0000
vn 0.0666 -0.0000 0.9978
vt 0.000000 0.000000
s 0
f 24/1/1 31/1/1 25/1/1
f 23/1/2 30/1/2 24/1/2
f 22/1/3 29/1/3 23/1/3
f 20/1/4 28/1/4 22/1/4
f 8/1/5 3/1/5 20/1/5
f 21/1/6 27/1/6 20/1/6
f 24/1/1 30/1/1 31/1/1
f 23/1/2 29/1/2 30/1/2
f 22/1/3 28/1/3 29/1/3
f 20/1/4 27/1/4 28/1/4
f 2/1/5 21/1/5 20/1/5
f 20/1/5 22/1/5 23/1/5
f 23/1/5 24/1/5 6/1/5
f 24/1/5 25/1/5 6/1/5
f 6/1/5 7/1/5 11/1/5
f 23/1/5 6/1/5 18/1/5
f 6/1/5 11/1/5 12/1/5
f 12/1/5 13/1/5 14/1/5
f 6/1/5 12/1/5 18/1/5
f 20/1/5 23/1/5 18/1/5
f 14/1/5 15/1/5 16/1/5
f 12/1/5 14/1/5 17/1/5
f 18/1/5 12/1/5 17/1/5
f 5/1/5 1/1/5 2/1/5
f 2/1/5 20/1/5 3/1/5
f 14/1/5 16/1/5 17/1/5
f 18/1/5 19/1/5 8/1/5
f 19/1/5 10/1/5 9/1/5
f 8/1/5 19/1/5 9/1/5
f 5/1/5 2/1/5 4/1/5
f 20/1/5 18/1/5 8/1/5
f 3/1/5 4/1/5 2/1/5
f 21/1/6 26/1/6 27/1/6
