# Blender 4.5.1 LTS
# www.blender.org
o province_131
v 16.387989 0.045516 -6.774062
v 16.531879 0.045516 -5.982666
v 16.057041 0.045516 -5.450273
v 15.610981 0.045516 -5.191270
v 15.682927 0.045516 -4.788378
v 16.033859 0.045516 -4.096905
v 17.015350 0.045516 -7.102132
v 16.845400 0.045516 -3.440766
v 17.846876 0.045516 -3.268098
v 16.957794 0.045516 -6.598516
v 17.216797 0.045516 -6.123678
v 17.806747 0.045516 -5.922232
v 17.979416 0.045516 -5.375449
v 17.677246 0.045516 -4.857444
v 18.008192 0.045516 -4.339440
v 18.454250 0.045516 -3.878991
v 16.569130 0.045516 -3.869559
v 18.352011 0.045516 -3.573545
vn -0.0000 1.0000 -0.0000
vt 0.000000 0.000000
s 1
f 2/1/1 14/1/1 11/1/1
f 3/1/1 4/1/1 5/1/1
f 5/1/1 6/1/1 3/1/1
f 6/1/1 17/1/1 3/1/1
f 17/1/1 8/1/1 15/1/1
f 8/1/1 9/1/1 15/1/1
f 9/1/1 18/1/1 15/1/1
f 18/1/1 16/1/1 15/1/1
f 14/1/1 17/1/1 15/1/1
f 2/1/1 3/1/1 14/1/1
f 14/1/1 3/1/1 17/1/1
f 7/1/1 1/1/1 10/1/1
f 1/1/1 2/1/1 10/1/1
f 14/1/1 13/1/1 11/1/1
f 13/1/1 12/1/1 11/1/1
f 11/1/1 10/1/1 2/1/1
