# Blender 4.5.1 LTS
# www.blender.org
o province_147
v 25.471970 0.045516 -5.020957
v 25.019318 0.045516 -3.793113
v 25.007328 0.045516 -4.308720
v 25.512941 0.045516 -4.554533
v 25.580891 0.045516 -4.870292
v 25.343071 0.045516 -3.361442
v 25.247147 0.045516 -2.881807
v 25.355062 0.045516 -2.462127
v 25.668753 0.045516 -5.260069
v 26.221292 0.045516 -5.208268
v 27.334547 0.045516 -5.637777
v 28.362385 0.045516 -5.622673
v 28.621386 0.045516 -5.294602
v 28.517786 0.045516 -4.897464
v 28.949457 0.045516 -4.258591
v 28.397076 0.045516 -3.764166
v 28.379648 0.045516 -3.326180
v 27.740774 0.045516 -3.412514
v 27.278168 0.045516 -2.741904
v 26.268694 0.045516 -1.959539
v 25.893219 0.045516 -2.290168
v 26.009691 0.045516 -1.925006
v 26.492321 0.045516 -2.395688
v 27.464506 0.045516 -3.162144
v 26.527779 0.045516 -5.320502
v 26.654402 0.045516 -5.772479
v 26.960892 0.045516 -5.884713
v 28.024719 0.045516 -5.270221
v 28.863125 0.045516 -3.956420
vn -0.0000 1.0000 -0.0000
vt 0.000000 0.000000
s 1
f 6/1/1 21/1/1 23/1/1
f 11/1/1 27/1/1 26/1/1
f 11/1/1 26/1/1 25/1/1
f 13/1/1 12/1/1 28/1/1
f 28/1/1 11/1/1 25/1/1
f 10/1/1 9/1/1 5/1/1
f 9/1/1 1/1/1 5/1/1
f 28/1/1 25/1/1 18/1/1
f 25/1/1 10/1/1 24/1/1
f 18/1/1 25/1/1 24/1/1
f 14/1/1 13/1/1 28/1/1
f 29/1/1 15/1/1 16/1/1
f 15/1/1 14/1/1 16/1/1
f 18/1/1 17/1/1 16/1/1
f 14/1/1 28/1/1 16/1/1
f 16/1/1 28/1/1 18/1/1
f 4/1/1 3/1/1 2/1/1
f 10/1/1 5/1/1 4/1/1
f 10/1/1 4/1/1 24/1/1
f 4/1/1 2/1/1 6/1/1
f 6/1/1 7/1/1 21/1/1
f 7/1/1 8/1/1 21/1/1
f 4/1/1 6/1/1 24/1/1
f 23/1/1 19/1/1 24/1/1
f 22/1/1 20/1/1 21/1/1
f 20/1/1 23/1/1 21/1/1
f 23/1/1 24/1/1 6/1/1
