# Blender 4.5.1 LTS
# www.blender.org
mtllib province_124.mtl
o province_124
v 0.501262 0.001999 0.158430
v 0.508457 0.001999 0.163569
v 0.521647 0.001999 0.162884
v 0.501760 0.001999 0.121822
v 0.507014 0.001999 0.131240
v 0.506023 0.001999 0.137287
v 0.510484 0.001999 0.142343
v 0.501562 0.001999 0.149777
v 0.517691 0.001999 0.124221
v 0.525742 0.001999 0.120966
v 0.534307 0.001999 0.115998
v 0.541159 0.001999 0.124906
v 0.540302 0.001999 0.133471
v 0.547840 0.001999 0.144605
v 0.537390 0.001999 0.150087
v 0.526770 0.001999 0.157110
v 0.501760 -0.000001 0.121822
v 0.517691 -0.000001 0.124221
v 0.525742 -0.000001 0.120966
v 0.534307 -0.000001 0.115998
vn -0.0000 1.0000 -0.0000
vn 0.1489 -0.0000 -0.9889
vn -0.3748 -0.0000 -0.9271
vn -0.5017 -0.0000 -0.8650
vt 0.000000 0.000000
s 0
f 2/1/1 3/1/1 16/1/1 15/1/1 14/1/1 13/1/1 12/1/1 11/1/1 10/1/1 9/1/1 4/1/1 5/1/1 6/1/1 7/1/1 8/1/1 1/1/1
f 4/1/2 9/1/2 18/1/2 17/1/2
f 9/1/3 10/1/3 19/1/3 18/1/3
f 10/1/4 11/1/4 20/1/4 19/1/4
