# Blender 4.5.1 LTS
# www.blender.org
mtllib province_048.mtl
o province_048
v -0.307034 0.001999 -0.011672
v -0.309774 0.001999 -0.015612
v -0.309603 0.001999 -0.021093
v -0.312344 0.001999 -0.024862
v -0.310288 0.001999 -0.026232
v -0.304293 0.001999 -0.026232
v -0.302409 0.001999 -0.029316
v -0.294201 0.001999 -0.029672
v -0.284089 0.001999 -0.028840
v -0.267792 0.001999 -0.028959
v -0.261250 0.001999 -0.026223
v -0.255778 0.001999 -0.019680
v -0.256373 0.001999 -0.015517
v -0.259346 0.001999 -0.013494
v -0.263510 0.001999 -0.009331
v -0.267435 0.001999 -0.011234
v -0.272075 0.001999 -0.010877
v -0.274335 0.001999 -0.006476
v -0.277904 0.001999 -0.003145
v -0.281829 0.001999 -0.000885
v -0.285160 0.001999 -0.003383
v -0.288848 0.001999 -0.004097
v -0.292178 0.001999 -0.008617
v -0.297650 0.001999 -0.009212
v -0.300862 0.001999 -0.007190
v -0.305502 0.001999 -0.009212
v -0.302409 -0.000001 -0.029316
v -0.294201 -0.000001 -0.029672
v -0.284089 -0.000001 -0.028840
v -0.267792 -0.000001 -0.028959
v -0.261250 -0.000001 -0.026223
v -0.255778 -0.000001 -0.019680
vn -0.0000 1.0000 -0.0000
vn -0.0434 -0.0000 -0.9991
vn 0.0821 -0.0000 -0.9966
vn -0.0073 -0.0000 -1.0000
vn 0.3858 -0.0000 -0.9226
vn 0.7671 -0.0000 -0.6416
vt 0.000000 0.000000
s 0
f 1/1/1 26/1/1 25/1/1 24/1/1 23/1/1 22/1/1 21/1/1 20/1/1 19/1/1 18/1/1 17/1/1 16/1/1 15/1/1 14/1/1 13/1/1 12/1/1 11/1/1 10/1/1 9/1/1 8/1/1 7/1/1 6/1/1 5/1/1 4/1/1 3/1/1 2/1/1
f 7/1/2 8/1/2 28/1/2 27/1/2
f 8/1/3 9/1/3 29/1/3 28/1/3
f 9/1/4 10/1/4 30/1/4 29/1/4
f 10/1/5 11/1/5 31/1/5 30/1/5
f 11/1/6 12/1/6 32/1/6 31/1/6
