# Blender 4.5.1 LTS
# www.blender.org
mtllib province_178.mtl
o province_178
v 4.236063 0.006502 2.785341
v 4.258903 0.006502 2.865280
v 4.207513 0.006502 2.900967
v 4.208941 0.006502 2.948074
v 4.307437 0.006502 3.028014
v 4.324567 0.006502 3.086541
v 4.281742 0.006502 3.126510
v 4.353117 0.006502 3.192175
v 4.127117 0.006502 2.797674
v 4.049005 0.006502 2.863453
v 3.997615 0.006502 2.830564
v 3.841391 0.006502 2.822341
v 3.792057 0.006502 2.869619
v 3.812613 0.006502 2.949787
v 3.783835 0.006502 3.001176
v 3.829058 0.006502 3.044343
v 3.794113 0.006502 3.077233
v 3.645083 0.006502 3.054964
v 3.430960 0.006502 3.018991
v 3.465219 0.006502 3.097789
v 3.401839 0.006502 3.180012
v 3.382139 0.006502 3.251672
v 3.434386 0.006502 3.375292
v 3.504618 0.006502 3.377006
v 3.590267 0.006502 3.436960
v 3.771843 0.006502 3.397561
v 3.845502 0.006502 3.335894
v 4.028791 0.006502 3.397561
v 4.224072 0.006502 3.366728
v 4.261757 0.006502 3.311912
v 4.316572 0.006502 3.272513
v 4.236063 -0.013498 2.785341
v 4.127117 -0.013498 2.797674
v 4.049005 -0.013498 2.863453
v 3.997615 -0.013498 2.830564
v 3.841391 -0.013498 2.822341
v 3.792057 -0.013498 2.869619
v 3.812613 -0.013498 2.949787
v 3.783835 -0.013498 3.001176
v 3.829058 -0.013498 3.044343
v 3.794113 -0.013498 3.077233
v 3.645083 -0.013498 3.054964
v 3.430960 -0.013498 3.018991
vn -0.0000 1.0000 -0.0000
vn -0.1125 -0.0000 -0.9937
vn -0.6441 -0.0000 -0.7649
vn 0.5391 -0.0000 -0.8423
vn 0.0526 -0.0000 -0.9986
vn -0.6919 -0.0000 -0.7220
vn -0.9687 -0.0000 0.2484
vn -0.8725 -0.0000 -0.4886
vn -0.6905 -0.0000 0.7234
vn -0.6854 -0.0000 -0.7282
vn 0.1478 -0.0000 -0.9890
vn 0.1657 -0.0000 -0.9862
vt 0.000000 0.000000
s 0
f 30/1/1 31/1/1 7/1/1
f 1/1/2 33/1/2 9/1/2
f 9/1/3 34/1/3 10/1/3
f 10/1/4 35/1/4 11/1/4
f 11/1/5 36/1/5 12/1/5
f 12/1/6 37/1/6 13/1/6
f 13/1/7 38/1/7 14/1/7
f 14/1/8 39/1/8 15/1/8
f 15/1/9 40/1/9 16/1/9
f 16/1/10 41/1/10 17/1/10
f 17/1/11 42/1/11 18/1/11
f 18/1/12 43/1/12 19/1/12
f 3/1/1 2/1/1 1/1/1
f 1/1/1 9/1/1 3/1/1
f 9/1/1 10/1/1 3/1/1
f 10/1/1 11/1/1 14/1/1
f 11/1/1 12/1/1 14/1/1
f 12/1/1 13/1/1 14/1/1
f 14/1/1 15/1/1 16/1/1
f 14/1/1 16/1/1 10/1/1
f 10/1/1 16/1/1 4/1/1
f 16/1/1 17/1/1 27/1/1
f 4/1/1 16/1/1 7/1/1
f 4/1/1 3/1/1 10/1/1
f 6/1/1 5/1/1 7/1/1
f 5/1/1 4/1/1 7/1/1
f 31/1/1 8/1/1 7/1/1
f 7/1/1 16/1/1 28/1/1
f 18/1/1 19/1/1 20/1/1
f 28/1/1 16/1/1 27/1/1
f 17/1/1 18/1/1 26/1/1
f 18/1/1 20/1/1 24/1/1
f 17/1/1 26/1/1 27/1/1
f 20/1/1 21/1/1 24/1/1
f 21/1/1 22/1/1 24/1/1
f 22/1/1 23/1/1 24/1/1
f 24/1/1 25/1/1 26/1/1
f 28/1/1 29/1/1 30/1/1
f 24/1/1 26/1/1 18/1/1
f 7/1/1 28/1/1 30/1/1
f 1/1/2 32/1/2 33/1/2
f 9/1/3 33/1/3 34/1/3
f 10/1/4 34/1/4 35/1/4
f 11/1/5 35/1/5 36/1/5
f 12/1/6 36/1/6 37/1/6
f 13/1/7 37/1/7 38/1/7
f 14/1/8 38/1/8 39/1/8
f 15/1/9 39/1/9 40/1/9
f 16/1/10 40/1/10 41/1/10
f 17/1/11 41/1/11 42/1/11
f 18/1/12 42/1/12 43/1/12
