# Blender 4.5.1 LTS
# www.blender.org
mtllib province_009.mtl
o province_009
v -0.173586 0.006502 1.783681
v -0.117057 0.006502 1.754560
v -0.060529 0.006502 1.771690
v -0.041686 0.006502 1.823079
v 0.030259 0.006502 1.829931
v 0.073083 0.006502 1.881320
v 0.026833 0.006502 1.920719
v 0.055953 0.006502 1.975534
v 0.049101 0.006502 2.073174
v 0.083361 0.006502 2.122850
v 0.061092 0.006502 2.229055
v -0.108493 0.006502 2.253037
v -0.123909 0.006502 2.213639
v -0.115344 0.006502 2.163962
v -0.192428 0.006502 2.169101
v -0.255809 0.006502 2.215352
v -0.344884 0.006502 2.167388
v -0.362013 0.006502 2.129703
v -0.444236 0.006502 2.100582
v -0.454514 0.006502 2.021785
v -0.368865 0.006502 1.965257
v -0.266087 0.006502 1.987525
v -0.195854 0.006502 1.973822
v -0.211271 0.006502 1.912154
v -0.168447 0.006502 1.864191
v 0.073083 -0.013498 1.881320
v 0.026833 -0.013498 1.920719
v 0.055953 -0.013498 1.975534
v 0.049101 -0.013498 2.073174
v 0.083361 -0.013498 2.122850
v 0.061092 -0.013498 2.229055
v -0.108493 -0.013498 2.253037
vn -0.0000 1.0000 -0.0000
vn 0.6485 -0.0000 0.7612
vn 0.8831 -0.0000 -0.4692
vn 0.9975 -0.0000 0.0700
vn 0.8232 -0.0000 -0.5677
vn 0.9787 -0.0000 0.2052
vn 0.1400 -0.0000 0.9901
vt 0.000000 0.000000
s 0
f 7/1/1 4/1/1 25/1/1
f 7/1/2 26/1/2 6/1/2
f 8/1/3 27/1/3 7/1/3
f 9/1/4 28/1/4 8/1/4
f 10/1/5 29/1/5 9/1/5
f 11/1/6 30/1/6 10/1/6
f 12/1/7 31/1/7 11/1/7
f 20/1/1 19/1/1 18/1/1
f 18/1/1 17/1/1 15/1/1
f 17/1/1 16/1/1 15/1/1
f 21/1/1 20/1/1 18/1/1
f 22/1/1 21/1/1 18/1/1
f 18/1/1 15/1/1 22/1/1
f 15/1/1 14/1/1 23/1/1
f 22/1/1 15/1/1 23/1/1
f 14/1/1 13/1/1 12/1/1
f 12/1/1 11/1/1 14/1/1
f 11/1/1 10/1/1 14/1/1
f 9/1/1 8/1/1 23/1/1
f 8/1/1 7/1/1 23/1/1
f 10/1/1 9/1/1 14/1/1
f 7/1/1 6/1/1 5/1/1
f 14/1/1 9/1/1 23/1/1
f 25/1/1 24/1/1 23/1/1
f 2/1/1 1/1/1 25/1/1
f 4/1/1 3/1/1 2/1/1
f 7/1/1 5/1/1 4/1/1
f 2/1/1 25/1/1 4/1/1
f 25/1/1 23/1/1 7/1/1
f 7/1/2 27/1/2 26/1/2
f 8/1/3 28/1/3 27/1/3
f 9/1/4 29/1/4 28/1/4
f 10/1/5 30/1/5 29/1/5
f 11/1/6 31/1/6 30/1/6
f 12/1/7 32/1/7 31/1/7
