# Blender 4.5.1 LTS
# www.blender.org
o province_081
v -7.210712 0.045516 -0.897417
v -7.735975 0.045516 -1.234822
v -7.357931 0.045516 -1.872668
v -7.024852 0.045516 -1.423012
v -6.250444 0.045516 -1.606205
v -5.734172 0.045516 -1.972591
v -5.374447 0.045516 -1.602874
v -4.914797 0.045516 -1.462980
v -4.615026 0.045516 -1.073278
v -4.095423 0.045516 -1.103255
v -3.665751 0.045516 -1.433003
v -4.085431 0.045516 0.885227
v -4.565064 0.045516 0.595448
v -4.575057 0.045516 0.245715
v -5.074676 0.045516 -0.084034
v -5.284515 0.045516 -0.343835
v -5.564301 0.045516 -0.303866
v -5.764149 0.045516 0.095829
v -6.003966 0.045516 0.085836
v -6.123874 0.045516 -0.193950
v -6.773378 0.045516 -0.213935
v -3.314162 0.045516 -1.440994
v -3.227036 0.045516 -0.880471
v -3.469509 0.045516 -0.547069
v -3.320406 0.045516 -0.131710
v -3.348898 0.045516 0.381152
v -3.519992 0.045516 0.954820
v -3.314162 -0.094484 -1.440994
v -3.227036 -0.094484 -0.880471
v -3.469509 -0.094484 -0.547069
v -3.320406 -0.094484 -0.131710
v -3.348898 -0.094484 0.381152
v -3.519992 -0.094484 0.954820
vn 0.9985 -0.0000 0.0555
vn 0.9583 -0.0000 0.2858
vn 0.9881 -0.0000 -0.1536
vn 0.9412 -0.0000 -0.3379
vn -0.0000 1.0000 -0.0000
vn 0.8087 -0.0000 0.5882
vt 0.000000 0.000000
s 1
f 32/1/1 25/1/1 26/1/1
s 2
f 33/1/2 26/1/2 27/1/2
s 3
f 29/1/3 22/1/3 23/1/3
s 4
f 31/1/4 24/1/4 25/1/4
s 5
f 12/1/5 26/1/5 14/1/5
s 6
f 30/1/6 23/1/6 24/1/6
s 1
f 32/1/1 31/1/1 25/1/1
s 2
f 33/1/2 32/1/2 26/1/2
s 3
f 29/1/3 28/1/3 22/1/3
s 4
f 31/1/4 30/1/4 24/1/4
s 5
f 7/1/5 6/1/5 5/1/5
f 4/1/5 3/1/5 2/1/5
f 7/1/5 5/1/5 17/1/5
f 5/1/5 4/1/5 1/1/5
f 20/1/5 5/1/5 21/1/5
f 9/1/5 8/1/5 16/1/5
f 8/1/5 7/1/5 16/1/5
f 22/1/5 11/1/5 23/1/5
f 11/1/5 10/1/5 23/1/5
f 5/1/5 20/1/5 17/1/5
f 4/1/5 2/1/5 1/1/5
f 23/1/5 10/1/5 24/1/5
f 10/1/5 9/1/5 14/1/5
f 24/1/5 10/1/5 14/1/5
f 26/1/5 25/1/5 14/1/5
f 25/1/5 24/1/5 14/1/5
f 5/1/5 1/1/5 21/1/5
f 20/1/5 19/1/5 18/1/5
f 20/1/5 18/1/5 17/1/5
f 12/1/5 27/1/5 26/1/5
f 14/1/5 13/1/5 12/1/5
f 16/1/5 15/1/5 9/1/5
f 15/1/5 14/1/5 9/1/5
f 7/1/5 17/1/5 16/1/5
s 6
f 30/1/6 29/1/6 23/1/6
