# Blender 4.5.1 LTS
# www.blender.org
mtllib province_027.mtl
o province_027
v -1.064540 0.006502 2.804273
v -0.867205 0.006502 2.870874
v -0.793204 0.006502 2.947341
v -0.679736 0.006502 2.917741
v -0.662470 0.006502 2.804273
v -0.620536 0.006502 2.851140
v -0.413334 0.006502 2.861007
v -0.218466 0.006502 2.831407
v -0.280133 0.006502 2.705606
v -0.336867 0.006502 2.656272
v -0.475001 0.006502 2.656272
v -0.504602 0.006502 2.550204
v -0.615603 0.006502 2.579805
v -0.793204 0.006502 2.567471
v -0.847471 0.006502 2.525537
v -0.958472 0.006502 2.621738
v -1.064540 -0.013498 2.804273
v -0.867205 -0.013498 2.870874
v -0.793204 -0.013498 2.947341
v -0.679736 -0.013498 2.917741
v -0.662470 -0.013498 2.804273
v -0.620536 -0.013498 2.851140
v -0.413334 -0.013498 2.861007
v -0.218466 -0.013498 2.831407
vn -0.0000 1.0000 -0.0000
vn -0.3198 -0.0000 0.9475
vn -0.7186 -0.0000 0.6954
vn 0.2524 -0.0000 0.9676
vn 0.9886 -0.0000 0.1504
vn -0.7452 -0.0000 0.6668
vn -0.0476 -0.0000 0.9989
vn 0.1502 -0.0000 0.9887
vt 0.000000 0.000000
s 0
f 11/1/1 13/1/1 5/1/1
f 1/1/2 18/1/2 2/1/2
f 2/1/3 19/1/3 3/1/3
f 3/1/4 20/1/4 4/1/4
f 4/1/5 21/1/5 5/1/5
f 5/1/6 22/1/6 6/1/6
f 6/1/7 23/1/7 7/1/7
f 7/1/8 24/1/8 8/1/8
f 16/1/1 1/1/1 2/1/1
f 2/1/1 3/1/1 5/1/1
f 3/1/1 4/1/1 5/1/1
f 5/1/1 6/1/1 11/1/1
f 6/1/1 7/1/1 11/1/1
f 15/1/1 16/1/1 14/1/1
f 16/1/1 2/1/1 14/1/1
f 7/1/1 8/1/1 9/1/1
f 14/1/1 2/1/1 5/1/1
f 11/1/1 12/1/1 13/1/1
f 13/1/1 14/1/1 5/1/1
f 7/1/1 9/1/1 10/1/1
f 11/1/1 7/1/1 10/1/1
f 1/1/2 17/1/2 18/1/2
f 2/1/3 18/1/3 19/1/3
f 3/1/4 19/1/4 20/1/4
f 4/1/5 20/1/5 21/1/5
f 5/1/6 21/1/6 22/1/6
f 6/1/7 22/1/7 23/1/7
f 7/1/8 23/1/8 24/1/8
