# Blender 4.5.1 LTS
# www.blender.org
o province_159
v -16.588711 0.045516 -7.835636
v -16.463804 0.045516 -7.426227
v -16.658102 0.045516 -7.100087
v -16.554014 0.045516 -6.544957
v -16.397884 0.045516 -6.359914
v -16.235971 0.045516 -5.978261
v -15.877449 0.045516 -6.036088
v -15.495797 0.045516 -6.001392
v -15.212449 0.045516 -5.596609
v -14.819231 0.045516 -5.521435
v -15.952623 0.045516 -7.957070
v -15.224013 0.045516 -7.951288
v -14.639970 0.045516 -7.824070
v -14.776867 0.045516 -5.284194
v -14.088840 0.045516 -8.130253
v -13.800622 0.045516 -7.717707
v -13.757380 0.045516 -7.394421
v -14.289722 0.045516 -7.120686
v -14.418016 0.045516 -6.796576
v -14.377003 0.045516 -6.146190
v -14.506384 0.045516 -5.429612
v -14.776867 -0.094484 -5.284194
v -13.800622 -0.094484 -7.717707
v -13.757380 -0.094484 -7.394421
v -14.289722 -0.094484 -7.120686
v -14.418016 -0.094484 -6.796576
v -14.377003 -0.094484 -6.146190
v -14.506384 -0.094484 -5.429612
v -16.588711 -0.094484 -7.835636
v -15.952623 -0.094484 -7.957070
v -15.224013 -0.094484 -7.951288
v -14.639970 -0.094484 -7.824070
v -14.088840 -0.094484 -8.130253
vn -0.1875 -0.0000 -0.9823
vn 0.9298 -0.0000 0.3680
vn 0.9298 -0.0000 0.3681
vn 0.8198 -0.0000 -0.5727
vn 0.9912 -0.0000 -0.1326
vn 0.0079 -0.0000 -1.0000
vn 0.2128 -0.0000 -0.9771
vn 0.4573 -0.0000 0.8893
vn -0.4856 -0.0000 -0.8742
vn 0.4735 -0.0000 0.8808
vn -0.0000 1.0000 -0.0000
vn 0.9980 -0.0000 -0.0629
vn 0.9841 -0.0000 0.1777
vt 0.000000 0.000000
s 1
f 30/1/1 1/1/1 11/1/1
s 2
f 26/1/2 18/1/3 19/1/2
s 3
f 23/1/4 15/1/4 16/1/4
s 4
f 24/1/5 16/1/5 17/1/5
s 5
f 31/1/6 11/1/6 12/1/6
s 6
f 32/1/7 12/1/7 13/1/7
s 7
f 25/1/8 17/1/8 18/1/8
s 8
f 33/1/9 13/1/9 15/1/9
s 9
f 22/1/10 21/1/10 14/1/10
s 10
f 8/1/11 12/1/11 2/1/11
s 11
f 27/1/12 19/1/12 20/1/12
s 12
f 28/1/13 20/1/13 21/1/13
s 1
f 30/1/1 29/1/1 1/1/1
s 2
f 26/1/2 25/1/3 18/1/3
s 3
f 23/1/4 33/1/4 15/1/4
s 4
f 24/1/5 23/1/5 16/1/5
s 5
f 31/1/6 30/1/6 11/1/6
s 6
f 32/1/7 31/1/7 12/1/7
s 7
f 25/1/8 24/1/8 17/1/8
s 8
f 33/1/9 32/1/9 13/1/9
s 9
f 22/1/10 28/1/10 21/1/10
s 10
f 8/1/11 9/1/11 20/1/11
f 9/1/11 10/1/11 20/1/11
f 10/1/11 14/1/11 21/1/11
f 21/1/11 20/1/11 10/1/11
f 20/1/11 19/1/11 8/1/11
f 18/1/11 17/1/11 16/1/11
f 18/1/11 16/1/11 13/1/11
f 16/1/11 15/1/11 13/1/11
f 19/1/11 18/1/11 13/1/11
f 13/1/11 12/1/11 19/1/11
f 12/1/11 11/1/11 2/1/11
f 19/1/11 12/1/11 8/1/11
f 7/1/11 8/1/11 2/1/11
f 5/1/11 6/1/11 7/1/11
f 3/1/11 4/1/11 2/1/11
f 4/1/11 5/1/11 2/1/11
f 11/1/11 1/1/11 2/1/11
f 5/1/11 7/1/11 2/1/11
s 11
f 27/1/12 26/1/12 19/1/12
s 12
f 28/1/13 27/1/13 20/1/13
