# Blender 4.5.1 LTS
# www.blender.org
mtllib province_109.mtl
o province_109
v -0.108872 0.001999 0.294216
v -0.116026 0.001999 0.298410
v -0.117259 0.001999 0.307043
v -0.125892 0.001999 0.315430
v -0.124659 0.001999 0.324063
v -0.112819 0.001999 0.334917
v -0.113066 0.001999 0.346264
v -0.100732 0.001999 0.350457
v -0.099499 0.001999 0.358104
v -0.072612 0.001999 0.366737
v -0.062005 0.001999 0.348484
v -0.067185 0.001999 0.344784
v -0.066445 0.001999 0.335163
v -0.075572 0.001999 0.331710
v -0.078285 0.001999 0.323570
v -0.088645 0.001999 0.316910
v -0.092345 0.001999 0.307783
v -0.090125 0.001999 0.302110
v -0.100979 0.001999 0.304330
v -0.104185 0.001999 0.297670
v -0.108872 -0.000001 0.294216
v -0.116026 -0.000001 0.298410
v -0.117259 -0.000001 0.307043
v -0.125892 -0.000001 0.315430
v -0.124659 -0.000001 0.324063
v -0.112819 -0.000001 0.334917
v -0.113066 -0.000001 0.346264
v -0.100732 -0.000001 0.350457
v -0.099499 -0.000001 0.358104
v -0.072612 -0.000001 0.366737
vn -0.0000 1.0000 -0.0000
vn -0.5057 -0.0000 -0.8627
vn -0.9899 -0.0000 -0.1414
vn -0.6968 -0.0000 -0.7173
vn -0.9899 -0.0000 0.1414
vn -0.6757 -0.0000 0.7372
vn -0.9998 -0.0000 -0.0217
vn -0.3219 -0.0000 0.9468
vn -0.9872 -0.0000 0.1592
vn -0.3057 -0.0000 0.9521
vt 0.000000 0.000000
s 0
f 1/1/1 2/1/1 3/1/1 4/1/1 5/1/1 6/1/1 7/1/1 8/1/1 9/1/1 10/1/1 11/1/1 12/1/1 13/1/1 14/1/1 15/1/1 16/1/1 17/1/1 18/1/1 19/1/1 20/1/1
f 2/1/2 1/1/2 21/1/2 22/1/2
f 3/1/3 2/1/3 22/1/3 23/1/3
f 4/1/4 3/1/4 23/1/4 24/1/4
f 5/1/5 4/1/5 24/1/5 25/1/5
f 6/1/6 5/1/6 25/1/6 26/1/6
f 7/1/7 6/1/7 26/1/7 27/1/7
f 8/1/8 7/1/8 27/1/8 28/1/8
f 9/1/9 8/1/9 28/1/9 29/1/9
f 10/1/10 9/1/10 29/1/10 30/1/10
