# Blender 4.5.1 LTS
# www.blender.org
mtllib province_067.mtl
o province_067
v -0.158496 0.001999 0.134053
v -0.164046 0.001999 0.130353
v -0.171652 0.001999 0.128297
v -0.178435 0.001999 0.125419
v -0.175027 0.001999 0.155561
v -0.166462 0.001999 0.158987
v -0.162751 0.001999 0.156132
v -0.161894 0.001999 0.150993
v -0.163607 0.001999 0.146854
v -0.160182 0.001999 0.143428
v -0.185060 0.001999 0.129265
v -0.181866 0.001999 0.132457
v -0.182424 0.001999 0.135988
v -0.177563 0.001999 0.138766
v -0.178432 0.001999 0.144107
v -0.181296 0.001999 0.148307
v -0.180254 0.001999 0.155793
v -0.185060 -0.000001 0.129265
v -0.181866 -0.000001 0.132457
v -0.182424 -0.000001 0.135988
v -0.177563 -0.000001 0.138766
v -0.178432 -0.000001 0.144107
v -0.181296 -0.000001 0.148307
v -0.180254 -0.000001 0.155793
v -0.175027 -0.000001 0.155561
v -0.166462 -0.000001 0.158987
vn -0.0000 1.0000 -0.0000
vn -0.7070 -0.0000 0.7072
vn -0.9878 -0.0000 -0.1560
vn -0.4961 -0.0000 0.8682
vn -0.9870 -0.0000 -0.1607
vn -0.8262 -0.0000 -0.5633
vn -0.9904 -0.0000 0.1379
vn 0.0444 -0.0000 0.9990
vn -0.3714 -0.0000 0.9285
vt 0.000000 0.000000
s 0
f 16/1/1 17/1/1 5/1/1 6/1/1 7/1/1 8/1/1 9/1/1 10/1/1 1/1/1 2/1/1 3/1/1 4/1/1 11/1/1 12/1/1 13/1/1 14/1/1 15/1/1
f 12/1/2 11/1/2 18/1/2 19/1/2
f 13/1/3 12/1/3 19/1/3 20/1/3
f 14/1/4 13/1/4 20/1/4 21/1/4
f 15/1/5 14/1/5 21/1/5 22/1/5
f 16/1/6 15/1/6 22/1/6 23/1/6
f 17/1/7 16/1/7 23/1/7 24/1/7
f 5/1/8 17/1/8 24/1/8 25/1/8
f 6/1/9 5/1/9 25/1/9 26/1/9
