# Blender 4.5.1 LTS
# www.blender.org
mtllib province_128.mtl
o province_128
v 0.247368 0.001999 0.364803
v 0.250081 0.001999 0.357380
v 0.254934 0.001999 0.355096
v 0.247328 0.001999 0.345435
v 0.237462 0.001999 0.345435
v 0.232117 0.001999 0.341323
v 0.229856 0.001999 0.330018
v 0.222456 0.001999 0.327551
v 0.212795 0.001999 0.330018
v 0.201694 0.001999 0.337418
v 0.201283 0.001999 0.347696
v 0.208067 0.001999 0.351190
v 0.204367 0.001999 0.355918
v 0.243719 0.001999 0.366842
v 0.205287 0.001999 0.360211
v 0.232164 0.001999 0.366430
v 0.212031 0.001999 0.363358
v 0.217886 0.001999 0.363358
v 0.221224 0.001999 0.357966
v 0.226229 0.001999 0.366070
v 0.236094 0.001999 0.365120
v 0.243719 -0.000001 0.366842
v 0.205287 -0.000001 0.360211
v 0.212031 -0.000001 0.363358
v 0.217886 -0.000001 0.363358
v 0.221224 -0.000001 0.357966
v 0.226229 -0.000001 0.366070
v 0.232164 -0.000001 0.366430
v 0.236094 -0.000001 0.365120
v 0.254934 -0.000001 0.355096
v 0.247328 -0.000001 0.345435
v 0.237462 -0.000001 0.345435
v 0.232117 -0.000001 0.341323
v 0.229856 -0.000001 0.330018
v 0.222456 -0.000001 0.327551
v 0.212795 -0.000001 0.330018
v 0.201694 -0.000001 0.337418
v 0.201283 -0.000001 0.347696
v 0.208067 -0.000001 0.351190
v 0.204367 -0.000001 0.355918
vn -0.2204 -0.0000 0.9754
vn 0.3162 -0.0000 0.9487
vn -0.0605 -0.0000 0.9982
vn -0.8508 -0.0000 0.5255
vn 0.8503 -0.0000 0.5264
vn -0.0000 -0.0000 1.0000
vn -0.4229 -0.0000 0.9062
vn -0.0000 1.0000 -0.0000
vn 0.7857 -0.0000 -0.6186
vn -0.0000 -0.0000 -1.0000
vn 0.6097 -0.0000 -0.7926
vn 0.9806 -0.0000 -0.1961
vn 0.3162 -0.0000 -0.9487
vn -0.2474 -0.0000 -0.9689
vn -0.5547 -0.0000 -0.8321
vn -0.9992 -0.0000 -0.0400
vn -0.4580 -0.0000 0.8890
vn -0.7875 -0.0000 -0.6163
vn -0.9778 -0.0000 0.2095
vt 0.000000 0.000000
s 0
f 14/1/1 21/1/1 29/1/1 22/1/1
f 21/1/2 16/1/2 28/1/2 29/1/2
f 16/1/3 20/1/3 27/1/3 28/1/3
f 20/1/4 19/1/4 26/1/4 27/1/4
f 19/1/5 18/1/5 25/1/5 26/1/5
f 18/1/6 17/1/6 24/1/6 25/1/6
f 17/1/7 15/1/7 23/1/7 24/1/7
f 13/1/8 15/1/8 17/1/8 18/1/8 19/1/8 20/1/8 16/1/8 21/1/8 14/1/8 1/1/8 2/1/8 3/1/8 4/1/8 5/1/8 6/1/8 7/1/8 8/1/8 9/1/8 10/1/8 11/1/8 12/1/8
f 4/1/9 3/1/9 30/1/9 31/1/9
f 5/1/10 4/1/10 31/1/10 32/1/10
f 6/1/11 5/1/11 32/1/11 33/1/11
f 7/1/12 6/1/12 33/1/12 34/1/12
f 8/1/13 7/1/13 34/1/13 35/1/13
f 9/1/14 8/1/14 35/1/14 36/1/14
f 10/1/15 9/1/15 36/1/15 37/1/15
f 11/1/16 10/1/16 37/1/16 38/1/16
f 12/1/17 11/1/17 38/1/17 39/1/17
f 13/1/18 12/1/18 39/1/18 40/1/18
f 15/1/19 13/1/19 40/1/19 23/1/19
