# Blender 4.5.1 LTS
# www.blender.org
mtllib province_173.mtl
o province_173
v -1.276696 0.006502 0.932093
v -1.199374 0.006502 0.921387
v -1.137516 0.006502 0.865477
v -1.035214 0.006502 0.923766
v -0.999241 0.006502 1.016267
v -0.952991 0.006502 0.990572
v -0.887898 0.006502 0.988859
v -0.845073 0.006502 1.086499
v -0.963269 0.006502 1.131037
v -1.066047 0.006502 1.204695
v -1.060908 0.006502 1.319464
v -1.165400 0.006502 1.257797
v -1.326420 0.006502 1.249232
v -1.348689 0.006502 1.163583
v -1.285308 0.006502 1.131037
v -1.247623 0.006502 1.019693
v -1.276696 -0.013498 0.932093
v -1.060908 -0.013498 1.319464
v -1.165400 -0.013498 1.257797
v -1.326420 -0.013498 1.249232
v -1.348689 -0.013498 1.163583
v -1.285308 -0.013498 1.131037
v -1.247623 -0.013498 1.019693
vn -0.0000 1.0000 -0.0000
vn -0.5083 -0.0000 0.8612
vn -0.0531 -0.0000 0.9986
vn -0.9678 -0.0000 0.2516
vn -0.4568 -0.0000 -0.8896
vn -0.9472 -0.0000 -0.3206
vn -0.9491 -0.0000 0.3150
vt 0.000000 0.000000
s 0
f 2/1/1 16/1/1 5/1/1
f 12/1/2 18/1/2 11/1/2
f 13/1/3 19/1/3 12/1/3
f 14/1/4 20/1/4 13/1/4
f 15/1/5 21/1/5 14/1/5
f 16/1/6 22/1/6 15/1/6
f 1/1/7 23/1/7 16/1/7
f 15/1/1 14/1/1 13/1/1
f 12/1/1 11/1/1 10/1/1
f 15/1/1 13/1/1 12/1/1
f 2/1/1 1/1/1 16/1/1
f 16/1/1 15/1/1 10/1/1
f 15/1/1 12/1/1 10/1/1
f 10/1/1 9/1/1 5/1/1
f 16/1/1 10/1/1 5/1/1
f 9/1/1 8/1/1 6/1/1
f 8/1/1 7/1/1 6/1/1
f 6/1/1 5/1/1 9/1/1
f 5/1/1 4/1/1 2/1/1
f 4/1/1 3/1/1 2/1/1
f 12/1/2 19/1/2 18/1/2
f 13/1/3 20/1/3 19/1/3
f 14/1/4 21/1/4 20/1/4
f 15/1/5 22/1/5 21/1/5
f 16/1/6 23/1/6 22/1/6
f 1/1/7 17/1/7 23/1/7
