# Blender 4.5.1 LTS
# www.blender.org
mtllib province_185.mtl
o province_185
v -6.678367 0.006502 -3.693449
v -6.641253 0.006502 -3.733419
v -6.598428 0.006502 -3.764824
v -6.628405 0.006502 -3.831915
v -6.589862 0.006502 -3.881878
v -6.715482 0.006502 -3.750549
v -6.803986 0.006502 -3.766251
v -6.881070 0.006502 -3.829061
v -6.959582 0.006502 -3.846190
v -6.975285 0.006502 -3.954679
v -7.089483 0.006502 -4.057458
v -7.040948 0.006502 -4.143108
v -7.010972 0.006502 -4.165948
v -7.009544 0.006502 -4.220192
v -6.936742 0.006502 -4.250170
v -6.879643 0.006502 -4.227330
v -6.863941 0.006502 -4.153100
v -6.813979 0.006502 -4.114558
v -6.736895 0.006502 -4.097428
v -6.688360 0.006502 -4.051749
v -6.688360 0.006502 -3.957534
v -6.589862 -0.013498 -3.881878
v -7.040948 -0.013498 -4.143108
v -7.010972 -0.013498 -4.165948
v -7.009544 -0.013498 -4.220192
v -6.936742 -0.013498 -4.250170
v -6.879643 -0.013498 -4.227330
v -6.863941 -0.013498 -4.153100
v -6.813979 -0.013498 -4.114558
v -6.736895 -0.013498 -4.097428
v -6.688360 -0.013498 -4.051749
v -6.688360 -0.013498 -3.957534
vn -0.0000 1.0000 -0.0000
vn -0.6061 -0.0000 -0.7954
vn -0.9997 -0.0000 -0.0263
vn -0.3807 -0.0000 -0.9247
vn 0.3714 -0.0000 -0.9285
vn 0.9783 -0.0000 -0.2070
vn 0.6108 -0.0000 -0.7918
vn 0.2169 -0.0000 -0.9762
vn 0.6854 -0.0000 -0.7282
vn 1.0000 -0.0000 -0.0000
vn 0.6091 -0.0000 -0.7931
vn -0.3808 -0.0000 -0.9247
vn 0.9784 -0.0000 -0.2069
vt 0.000000 0.000000
s 0
f 13/1/1 10/1/1 17/1/1
f 13/1/2 23/1/2 12/1/2
f 14/1/3 24/1/3 13/1/3
f 15/1/4 25/1/4 14/1/4
f 16/1/5 26/1/5 15/1/5
f 17/1/6 27/1/6 16/1/6
f 18/1/7 28/1/7 17/1/7
f 19/1/8 29/1/8 18/1/8
f 20/1/9 30/1/9 19/1/9
f 21/1/10 31/1/10 20/1/10
f 5/1/11 32/1/11 21/1/11
f 2/1/1 3/1/1 4/1/1
f 4/1/1 5/1/1 21/1/1
f 21/1/1 20/1/1 19/1/1
f 21/1/1 19/1/1 18/1/1
f 2/1/1 4/1/1 6/1/1
f 4/1/1 21/1/1 6/1/1
f 6/1/1 1/1/1 2/1/1
f 8/1/1 7/1/1 21/1/1
f 7/1/1 6/1/1 21/1/1
f 10/1/1 9/1/1 8/1/1
f 12/1/1 11/1/1 10/1/1
f 15/1/1 14/1/1 13/1/1
f 13/1/1 12/1/1 10/1/1
f 10/1/1 8/1/1 21/1/1
f 21/1/1 18/1/1 10/1/1
f 18/1/1 17/1/1 10/1/1
f 17/1/1 16/1/1 15/1/1
f 15/1/1 13/1/1 17/1/1
f 13/1/2 24/1/2 23/1/2
f 14/1/3 25/1/3 24/1/3
f 15/1/12 26/1/12 25/1/12
f 16/1/5 27/1/5 26/1/5
f 17/1/13 28/1/13 27/1/13
f 18/1/7 29/1/7 28/1/7
f 19/1/8 30/1/8 29/1/8
f 20/1/9 31/1/9 30/1/9
f 21/1/10 32/1/10 31/1/10
f 5/1/11 22/1/11 32/1/11
