# Blender 4.5.1 LTS
# www.blender.org
o province_085
v -1.709311 0.045516 -8.319447
v -1.259655 0.045516 -7.909760
v -0.410303 0.045516 -7.869791
v 0.269178 0.045516 -7.360179
v 0.978636 0.045516 -7.040423
v 1.318377 0.045516 -6.690691
v 1.358347 0.045516 -6.350950
v 1.108537 0.045516 -6.071164
v 1.118530 0.045516 -5.661476
v 1.528217 0.045516 -5.531576
v 1.758041 0.045516 -4.802133
v -2.100124 0.045516 -9.217729
v -2.056957 0.045516 -8.714113
v -1.697232 0.045516 -8.498278
v -0.267923 0.045516 -10.654232
v -0.795520 0.045516 -10.558304
v -1.478998 0.045516 -10.090662
v -1.550943 0.045516 -9.527091
v 2.741291 0.045516 -4.981995
v 3.113007 0.045516 -5.197830
v 3.160971 0.045516 -5.833345
v 3.760513 0.045516 -6.013208
v 4.060284 0.045516 -6.324970
v -0.289815 0.045516 -11.540885
v 4.007782 0.045516 -6.933995
v 3.060997 0.045516 -7.024853
v 2.847294 0.045516 -7.766531
v 2.528509 0.045516 -8.064063
v 1.928490 0.045516 -8.064063
v 1.759154 0.045516 -8.971219
v 1.267066 0.045516 -9.029801
v 0.980801 0.045516 -9.752278
v 1.158919 0.045516 -10.019456
v 1.158919 0.045516 -10.295320
v 0.849987 0.045516 -10.604253
v 0.814219 0.045516 -11.033468
v 0.252192 0.045516 -11.540394
v -0.289815 -0.094484 -11.540885
v 4.007782 -0.094484 -6.933995
v 3.060997 -0.094484 -7.024853
v 2.847294 -0.094484 -7.766531
v 2.528509 -0.094484 -8.064063
v 1.928490 -0.094484 -8.064063
v 1.759154 -0.094484 -8.971219
v 1.267066 -0.094484 -9.029801
v 0.980801 -0.094484 -9.752278
v 1.158919 -0.094484 -10.019456
v 1.158919 -0.094484 -10.295320
v 0.849987 -0.094484 -10.604253
v 0.814219 -0.094484 -11.033468
v 0.252192 -0.094484 -11.540394
vn 0.9830 -0.0000 -0.1835
vn 0.9965 -0.0000 -0.0830
vn 0.9297 -0.0000 -0.3684
vn 0.0009 -0.0000 -1.0000
vn 0.6698 -0.0000 -0.7426
vn 0.1182 -0.0000 -0.9930
vn 0.8321 -0.0000 0.5547
vn 0.9609 -0.0000 -0.2769
vn -0.0000 -0.0000 -1.0000
vn 1.0000 -0.0000 -0.0000
vn 0.7071 -0.0000 -0.7071
vn 0.6823 -0.0000 -0.7311
vn -0.0000 1.0000 -0.0000
vn 0.0955 -0.0000 -0.9954
vt 0.000000 0.000000
s 1
f 43/1/1 30/1/1 29/1/1
s 2
f 49/1/2 36/1/2 35/1/2
s 3
f 45/1/3 32/1/3 31/1/3
s 4
f 51/1/4 24/1/4 37/1/4
s 5
f 50/1/5 37/1/5 36/1/5
s 6
f 44/1/6 31/1/6 30/1/6
s 7
f 46/1/7 33/1/7 32/1/7
s 8
f 40/1/8 27/1/8 26/1/8
s 9
f 42/1/9 29/1/9 28/1/9
s 10
f 47/1/10 34/1/10 33/1/10
s 11
f 48/1/11 35/1/11 34/1/11
s 12
f 41/1/12 28/1/12 27/1/12
s 13
f 14/1/13 3/1/13 18/1/13
s 14
f 39/1/14 26/1/14 25/1/14
s 1
f 43/1/1 44/1/1 30/1/1
s 2
f 49/1/2 50/1/2 36/1/2
s 3
f 45/1/3 46/1/3 32/1/3
s 4
f 51/1/4 38/1/4 24/1/4
s 5
f 50/1/5 51/1/5 37/1/5
s 6
f 44/1/6 45/1/6 31/1/6
s 7
f 46/1/7 47/1/7 33/1/7
s 8
f 40/1/8 41/1/8 27/1/8
s 9
f 42/1/9 43/1/9 29/1/9
s 10
f 47/1/10 48/1/10 34/1/10
s 11
f 48/1/11 49/1/11 35/1/11
s 12
f 41/1/12 42/1/12 28/1/12
s 13
f 21/1/13 22/1/13 26/1/13
f 22/1/13 23/1/13 26/1/13
f 23/1/13 25/1/13 26/1/13
f 26/1/13 27/1/13 29/1/13
f 27/1/13 28/1/13 29/1/13
f 29/1/13 30/1/13 31/1/13
f 19/1/13 20/1/13 21/1/13
f 10/1/13 11/1/13 19/1/13
f 8/1/13 9/1/13 10/1/13
f 7/1/13 8/1/13 10/1/13
f 10/1/13 19/1/13 21/1/13
f 21/1/13 26/1/13 7/1/13
f 26/1/13 29/1/13 6/1/13
f 26/1/13 6/1/13 7/1/13
f 29/1/13 31/1/13 4/1/13
f 6/1/13 29/1/13 5/1/13
f 7/1/13 10/1/13 21/1/13
f 5/1/13 29/1/13 4/1/13
f 3/1/13 4/1/13 31/1/13
f 32/1/13 33/1/13 35/1/13
f 33/1/13 34/1/13 35/1/13
f 31/1/13 32/1/13 3/1/13
f 1/1/13 2/1/13 14/1/13
f 2/1/13 3/1/13 14/1/13
f 35/1/13 36/1/13 15/1/13
f 36/1/13 37/1/13 15/1/13
f 37/1/13 24/1/13 15/1/13
f 15/1/13 16/1/13 18/1/13
f 16/1/13 17/1/13 18/1/13
f 18/1/13 12/1/13 14/1/13
f 12/1/13 13/1/13 14/1/13
f 3/1/13 32/1/13 18/1/13
f 32/1/13 35/1/13 15/1/13
f 18/1/13 32/1/13 15/1/13
s 14
f 39/1/14 40/1/14 26/1/14
