# Blender 4.5.1 LTS
# www.blender.org
mtllib province_005.mtl
o province_005
v -2.994480 0.006502 -0.055660
v -3.008358 0.006502 -0.104234
v -2.958793 0.006502 -0.153799
v -2.970689 0.006502 -0.188495
v -3.021245 0.006502 -0.214269
v -3.011332 0.006502 -0.271764
v -2.961370 0.006502 -0.304596
v -2.931393 0.006502 -0.303169
v -2.877149 0.006502 -0.281757
v -2.840034 0.006502 -0.308879
v -2.782935 0.006502 -0.306024
v -2.755813 0.006502 -0.357413
v -2.730119 0.006502 -0.355985
v -2.702996 0.006502 -0.328863
v -2.995821 0.006502 0.010225
v -2.886900 0.006502 0.008756
v -2.837929 0.006502 0.042764
v -2.783995 0.006502 0.017023
v -2.747707 0.006502 -0.030929
v -2.741716 0.006502 -0.078855
v -2.694139 0.006502 -0.110573
v -2.685977 0.006502 -0.150024
v -2.648505 0.006502 -0.196144
v -2.626201 0.006502 -0.269615
v -2.640792 0.006502 -0.302777
v -2.686582 0.006502 -0.330398
v -2.995821 -0.013498 0.010225
v -2.886900 -0.013498 0.008756
v -2.837929 -0.013498 0.042764
v -2.783995 -0.013498 0.017023
v -2.747707 -0.013498 -0.030929
v -2.741716 -0.013498 -0.078855
v -2.694139 -0.013498 -0.110573
v -2.685977 -0.013498 -0.150024
v -2.648505 -0.013498 -0.196144
v -2.626201 -0.013498 -0.269615
v -2.640792 -0.013498 -0.302777
v -2.686582 -0.013498 -0.330398
vn 0.5165 -0.0000 -0.8563
vn 0.9153 -0.0000 -0.4027
vn 0.9569 -0.0000 0.2905
vn 0.7761 -0.0000 0.6306
vn 0.9793 -0.0000 0.2026
vn 0.5547 -0.0000 0.8321
vn 0.9923 -0.0000 0.1240
vn 0.7974 -0.0000 0.6034
vn 0.4307 -0.0000 0.9025
vn -0.5704 -0.0000 0.8214
vn 0.0135 -0.0000 0.9999
vn -0.0000 1.0000 -0.0000
vt 0.000000 0.000000
s 0
f 25/1/1 38/1/1 26/1/1
f 24/1/2 37/1/2 25/1/2
f 23/1/3 36/1/3 24/1/3
f 22/1/4 35/1/4 23/1/4
f 21/1/5 34/1/5 22/1/5
f 20/1/6 33/1/6 21/1/6
f 19/1/7 32/1/7 20/1/7
f 18/1/8 31/1/8 19/1/8
f 17/1/9 30/1/9 18/1/9
f 16/1/10 29/1/10 17/1/10
f 15/1/11 28/1/11 16/1/11
f 7/1/12 6/1/12 4/1/12
f 25/1/1 37/1/1 38/1/1
f 24/1/2 36/1/2 37/1/2
f 23/1/3 35/1/3 36/1/3
f 22/1/4 34/1/4 35/1/4
f 21/1/5 33/1/5 34/1/5
f 20/1/6 32/1/6 33/1/6
f 19/1/7 31/1/7 32/1/7
f 18/1/8 30/1/8 31/1/8
f 17/1/9 29/1/9 30/1/9
f 16/1/10 28/1/10 29/1/10
f 15/1/11 27/1/11 28/1/11
f 1/1/12 15/1/12 16/1/12
f 16/1/12 17/1/12 18/1/12
f 18/1/12 19/1/12 16/1/12
f 19/1/12 20/1/12 16/1/12
f 20/1/12 21/1/12 22/1/12
f 22/1/12 23/1/12 11/1/12
f 23/1/12 24/1/12 14/1/12
f 11/1/12 23/1/12 14/1/12
f 24/1/12 25/1/12 14/1/12
f 25/1/12 26/1/12 14/1/12
f 14/1/12 13/1/12 11/1/12
f 13/1/12 12/1/12 11/1/12
f 20/1/12 22/1/12 9/1/12
f 20/1/12 9/1/12 3/1/12
f 2/1/12 1/1/12 3/1/12
f 1/1/12 16/1/12 3/1/12
f 16/1/12 20/1/12 3/1/12
f 11/1/12 10/1/12 9/1/12
f 9/1/12 22/1/12 11/1/12
f 6/1/12 5/1/12 4/1/12
f 4/1/12 3/1/12 9/1/12
f 9/1/12 8/1/12 4/1/12
f 8/1/12 7/1/12 4/1/12
