# Blender 4.5.1 LTS
# www.blender.org
mtllib province_093.mtl
o province_093
v 0.765613 0.006502 -0.644907
v 0.764186 0.006502 -0.542129
v 1.066812 0.006502 -0.642053
v 0.888377 0.006502 -0.614930
v 1.078232 0.006502 -0.584953
v 1.152461 0.006502 -0.579243
v 1.223835 0.006502 -0.610648
v 1.259522 0.006502 -0.583526
v 0.802952 0.006502 -0.460783
v 1.252787 0.006502 -0.536384
v 1.195214 0.006502 -0.508388
v 1.089628 0.006502 -0.503927
v 1.006965 0.006502 -0.439792
v 0.929640 0.006502 -0.438481
v 0.869594 0.006502 -0.468504
v 0.802952 -0.013498 -0.460783
v 1.252787 -0.013498 -0.536384
v 1.195214 -0.013498 -0.508388
v 1.089628 -0.013498 -0.503927
v 1.006965 -0.013498 -0.439792
v 0.929640 -0.013498 -0.438481
v 0.869594 -0.013498 -0.468504
vn -0.0000 1.0000 -0.0000
vn 0.4373 -0.0000 0.8993
vn 0.0422 -0.0000 0.9991
vn 0.6130 -0.0000 0.7901
vn 0.0169 -0.0000 0.9999
vn -0.4472 -0.0000 0.8944
vn 0.1151 -0.0000 0.9934
vt 0.000000 0.000000
s 0
f 5/1/1 12/1/1 6/1/1
f 11/1/2 17/1/2 10/1/2
f 12/1/3 18/1/3 11/1/3
f 13/1/4 19/1/4 12/1/4
f 14/1/5 20/1/5 13/1/5
f 15/1/6 21/1/6 14/1/6
f 9/1/7 22/1/7 15/1/7
f 1/1/1 2/1/1 4/1/1
f 2/1/1 9/1/1 15/1/1
f 15/1/1 14/1/1 4/1/1
f 14/1/1 13/1/1 4/1/1
f 2/1/1 15/1/1 4/1/1
f 5/1/1 3/1/1 4/1/1
f 13/1/1 12/1/1 5/1/1
f 12/1/1 11/1/1 6/1/1
f 11/1/1 10/1/1 7/1/1
f 6/1/1 11/1/1 7/1/1
f 10/1/1 8/1/1 7/1/1
f 13/1/1 5/1/1 4/1/1
f 11/1/2 18/1/2 17/1/2
f 12/1/3 19/1/3 18/1/3
f 13/1/4 20/1/4 19/1/4
f 14/1/5 21/1/5 20/1/5
f 15/1/6 22/1/6 21/1/6
f 9/1/7 16/1/7 22/1/7
