# Blender 4.5.1 LTS
# www.blender.org
o province_115
v 5.068436 0.045516 5.017270
v 5.169159 0.045516 4.599989
v 5.600830 0.045516 4.369764
v 5.600830 0.045516 3.995650
v 5.370605 0.045516 3.664702
v 5.790285 0.045516 3.694679
v 5.800278 0.045516 3.374923
v 5.570453 0.045516 3.175076
v 5.720338 0.045516 2.945252
v 5.710346 0.045516 2.565542
v 5.500506 0.045516 2.255778
v 5.730331 0.045516 2.115885
v 6.130025 0.045516 2.405664
v 6.849476 0.045516 2.215809
v 5.874222 0.045516 5.218717
v 6.176391 0.045516 5.564053
v 6.838285 0.045516 5.290661
v 7.154844 0.045516 5.635997
v 6.895842 0.045516 6.125224
v 6.478560 0.045516 6.369837
v 7.068511 0.045516 6.686396
v 7.205207 0.045516 6.895037
v 8.025380 0.045516 6.492145
v 8.572163 0.045516 6.679202
v 9.147722 0.045516 6.305087
v 9.565004 0.045516 5.772693
v 10.658570 0.045516 6.247530
v 11.032684 0.045516 5.700748
v 10.672959 0.045516 5.542469
v 10.543459 0.045516 5.139577
v 10.255678 0.045516 4.592794
v 9.478672 0.045516 4.650351
v 9.061391 0.045516 4.851797
v 8.557775 0.045516 4.420126
v 8.385107 0.045516 3.959678
v 8.586553 0.045516 3.499229
v 8.471440 0.045516 2.880502
v 9.075779 0.045516 2.420053
v 7.236611 0.045516 1.871689
v 9.051052 0.045516 1.863713
v 8.697467 0.045516 1.632956
v 8.184315 0.045516 2.298484
v 7.629132 0.045516 2.348954
v 7.236611 -0.094484 1.871689
v 9.051052 -0.094484 1.863713
v 8.697467 -0.094484 1.632956
v 8.184315 -0.094484 2.298484
v 7.629132 -0.094484 2.348954
vn 0.7723 -0.0000 -0.6352
vn -0.7919 -0.0000 -0.6106
vn -0.0000 1.0000 -0.0000
vn 0.5465 -0.0000 -0.8374
vn -0.0905 -0.0000 -0.9959
vt 0.000000 0.000000
s 1
f 48/1/1 39/1/1 43/1/1
s 2
f 47/1/2 41/1/2 46/1/2
s 3
f 13/1/3 12/1/3 10/1/3
s 4
f 45/1/4 41/1/4 40/1/4
s 5
f 47/1/5 43/1/5 42/1/5
s 1
f 48/1/1 44/1/1 39/1/1
s 2
f 47/1/2 42/1/2 41/1/2
s 3
f 26/1/3 27/1/3 29/1/3
f 27/1/3 28/1/3 29/1/3
f 29/1/3 30/1/3 26/1/3
f 30/1/3 31/1/3 32/1/3
f 26/1/3 30/1/3 32/1/3
f 24/1/3 25/1/3 23/1/3
f 25/1/3 26/1/3 33/1/3
f 23/1/3 25/1/3 33/1/3
f 21/1/3 22/1/3 23/1/3
f 32/1/3 33/1/3 26/1/3
f 21/1/3 23/1/3 19/1/3
f 19/1/3 20/1/3 21/1/3
f 18/1/3 19/1/3 23/1/3
f 23/1/3 33/1/3 18/1/3
f 33/1/3 34/1/3 18/1/3
f 35/1/3 36/1/3 37/1/3
f 18/1/3 34/1/3 17/1/3
f 34/1/3 35/1/3 17/1/3
f 15/1/3 16/1/3 17/1/3
f 37/1/3 38/1/3 42/1/3
f 38/1/3 40/1/3 42/1/3
f 17/1/3 35/1/3 6/1/3
f 35/1/3 37/1/3 43/1/3
f 1/1/3 15/1/3 2/1/3
f 15/1/3 17/1/3 3/1/3
f 3/1/3 2/1/3 15/1/3
f 6/1/3 5/1/3 4/1/3
f 6/1/3 4/1/3 3/1/3
f 9/1/3 8/1/3 7/1/3
f 6/1/3 3/1/3 17/1/3
f 10/1/3 9/1/3 13/1/3
f 9/1/3 7/1/3 13/1/3
f 7/1/3 6/1/3 35/1/3
f 35/1/3 43/1/3 7/1/3
f 40/1/3 41/1/3 42/1/3
f 43/1/3 39/1/3 14/1/3
f 37/1/3 42/1/3 43/1/3
f 43/1/3 14/1/3 7/1/3
f 14/1/3 13/1/3 7/1/3
f 12/1/3 11/1/3 10/1/3
s 4
f 45/1/4 46/1/4 41/1/4
s 5
f 47/1/5 48/1/5 43/1/5
