# Blender 4.5.1 LTS
# www.blender.org
mtllib province_031.mtl
o province_031
v -1.617843 0.006502 -0.232313
v -1.565026 0.006502 -0.255153
v -1.523629 0.006502 -0.316534
v -1.449400 0.006502 -0.290840
v -1.572639 0.006502 -0.175214
v -1.483422 0.006502 -0.154991
v -1.439408 0.006502 -0.120494
v -1.382308 0.006502 -0.131200
v -1.340674 0.006502 -0.202574
v -1.297849 0.006502 -0.227555
v -1.187219 0.006502 -0.193057
v -1.105139 0.006502 -0.176403
v -1.070166 0.006502 -0.381723
v -1.097526 0.006502 -0.337708
v -1.088010 0.006502 -0.292505
v -1.051133 0.006502 -0.267524
v -1.421452 0.006502 -0.315178
v -1.431842 0.006502 -0.316661
v -1.364502 0.006502 -0.333648
v -1.321116 0.006502 -0.403065
v -1.293249 0.006502 -0.434028
v -1.232224 0.006502 -0.434028
v -1.189251 0.006502 -0.389894
v -1.130279 0.006502 -0.376625
v -1.089589 0.006502 -0.409590
v -1.431842 -0.013498 -0.316661
v -1.421452 -0.013498 -0.315178
v -1.364502 -0.013498 -0.333648
v -1.321116 -0.013498 -0.403065
v -1.293249 -0.013498 -0.434028
v -1.232224 -0.013498 -0.434028
v -1.189251 -0.013498 -0.389894
v -1.130279 -0.013498 -0.376625
v -1.089589 -0.013498 -0.409590
vn -0.0000 1.0000 -0.0000
vn -0.3085 -0.0000 -0.9512
vn -0.8480 -0.0000 -0.5300
vn -0.7433 -0.0000 -0.6690
vn -0.0000 -0.0000 -1.0000
vn 0.7165 -0.0000 -0.6976
vn 0.2195 -0.0000 -0.9756
vn -0.6295 -0.0000 -0.7770
vn 0.1413 -0.0000 -0.9900
vt 0.000000 0.000000
s 0
f 19/1/1 17/1/1 9/1/1
f 19/1/2 27/1/2 17/1/2
f 20/1/3 28/1/3 19/1/3
f 21/1/4 29/1/4 20/1/4
f 22/1/5 30/1/5 21/1/5
f 23/1/6 31/1/6 22/1/6
f 24/1/7 32/1/7 23/1/7
f 25/1/8 33/1/8 24/1/8
f 17/1/9 26/1/9 18/1/9
f 12/1/1 16/1/1 15/1/1
f 14/1/1 13/1/1 24/1/1
f 13/1/1 25/1/1 24/1/1
f 12/1/1 15/1/1 11/1/1
f 15/1/1 14/1/1 23/1/1
f 11/1/1 15/1/1 23/1/1
f 10/1/1 11/1/1 23/1/1
f 7/1/1 8/1/1 6/1/1
f 8/1/1 9/1/1 6/1/1
f 23/1/1 14/1/1 24/1/1
f 6/1/1 9/1/1 4/1/1
f 9/1/1 10/1/1 19/1/1
f 4/1/1 9/1/1 17/1/1
f 1/1/1 5/1/1 2/1/1
f 5/1/1 6/1/1 2/1/1
f 4/1/1 3/1/1 2/1/1
f 23/1/1 22/1/1 20/1/1
f 22/1/1 21/1/1 20/1/1
f 2/1/1 6/1/1 4/1/1
f 17/1/1 18/1/1 4/1/1
f 10/1/1 23/1/1 20/1/1
f 20/1/1 19/1/1 10/1/1
f 19/1/2 28/1/2 27/1/2
f 20/1/3 29/1/3 28/1/3
f 21/1/4 30/1/4 29/1/4
f 22/1/5 31/1/5 30/1/5
f 23/1/6 32/1/6 31/1/6
f 24/1/7 33/1/7 32/1/7
f 25/1/8 34/1/8 33/1/8
f 17/1/9 27/1/9 26/1/9
