# Blender 4.5.1 LTS
# www.blender.org
o province_152
v -25.983677 0.045516 -6.966635
v -26.379374 0.045516 -6.978626
v -26.463310 0.045516 -6.642883
v -26.739098 0.045516 -6.331122
v -27.086832 0.045516 -6.343113
v -27.242712 0.045516 -6.079315
v -27.566462 0.045516 -5.851490
v -27.986141 0.045516 -5.863481
v -28.177994 0.045516 -5.683619
v -25.611961 0.045516 -6.750802
v -27.568794 0.045516 -4.604445
v -28.043432 0.045516 -5.104063
v -28.060085 0.045516 -5.395506
v -25.418068 0.045516 -6.638495
v -25.455578 0.045516 -6.742603
v -25.339935 0.045516 -6.247838
v -25.069590 0.045516 -6.041859
v -24.843737 0.045516 -5.785893
v -24.826859 0.045516 -5.566470
v -24.486229 0.045516 -5.225839
v -24.594852 0.045516 -4.960314
v -25.127691 0.045516 -4.936807
v -25.536739 0.045516 -4.705605
v -26.017460 0.045516 -4.258038
v -26.533077 0.045516 -4.013798
v -25.455578 -0.094484 -6.742603
v -25.418068 -0.094484 -6.638495
v -25.339935 -0.094484 -6.247838
v -25.069590 -0.094484 -6.041859
v -24.843737 -0.094484 -5.785893
v -24.826859 -0.094484 -5.566470
v -24.486229 -0.094484 -5.225839
v -24.594852 -0.094484 -4.960314
v -25.127691 -0.094484 -4.936807
v -25.536739 -0.094484 -4.705605
v -26.017460 -0.094484 -4.258038
v -28.177994 -0.094484 -5.683619
v -27.568794 -0.094484 -4.604445
v -28.043432 -0.094484 -5.104063
v -28.060085 -0.094484 -5.395506
v -26.533077 -0.094484 -4.013798
vn 0.9408 -0.0000 -0.3390
vn 0.6814 -0.0000 0.7319
vn 0.4921 -0.0000 0.8706
vn 0.9255 -0.0000 0.3786
vn 0.7071 -0.0000 -0.7071
vn -0.7250 -0.0000 0.6887
vn -0.9984 -0.0000 0.0570
vn 0.9971 -0.0000 -0.0767
vn -0.4954 -0.0000 0.8687
vn 0.6060 -0.0000 -0.7954
vn 0.0441 -0.0000 0.9990
vn 0.7498 -0.0000 -0.6616
vn 0.9806 -0.0000 -0.1961
vn 0.4281 -0.0000 0.9037
vn -0.0000 1.0000 -0.0000
vn -0.9255 -0.0000 0.3788
vn 0.9256 -0.0000 0.3786
vt 0.000000 0.000000
s 1
f 27/1/1 15/1/1 14/1/1
s 2
f 36/1/2 23/1/2 24/1/2
s 3
f 35/1/3 22/1/3 23/1/3
s 4
f 33/1/4 20/1/4 21/1/4
s 5
f 32/1/5 19/1/5 20/1/5
s 6
f 39/1/6 11/1/6 12/1/6
s 7
f 40/1/7 12/1/7 13/1/7
s 8
f 31/1/8 18/1/8 19/1/8
s 9
f 38/1/9 25/1/9 11/1/9
s 10
f 29/1/10 16/1/10 17/1/10
s 11
f 34/1/11 21/1/11 22/1/11
s 12
f 30/1/12 17/1/12 18/1/12
s 13
f 28/1/13 14/1/13 16/1/13
s 14
f 41/1/14 24/1/14 25/1/14
s 15
f 11/1/15 6/1/15 7/1/15
s 16
f 37/1/16 13/1/16 9/1/16
s 1
f 27/1/1 26/1/1 15/1/1
s 2
f 36/1/2 35/1/2 23/1/2
s 3
f 35/1/3 34/1/3 22/1/3
s 4
f 33/1/4 32/1/17 20/1/4
s 5
f 32/1/5 31/1/5 19/1/5
s 6
f 39/1/6 38/1/6 11/1/6
s 7
f 40/1/7 39/1/7 12/1/7
s 8
f 31/1/8 30/1/8 18/1/8
s 9
f 38/1/9 41/1/9 25/1/9
s 10
f 29/1/10 28/1/10 16/1/10
s 11
f 34/1/11 33/1/11 21/1/11
s 12
f 30/1/12 29/1/12 17/1/12
s 13
f 28/1/13 27/1/13 14/1/13
s 14
f 41/1/14 36/1/14 24/1/14
s 15
f 22/1/15 21/1/15 19/1/15
f 21/1/15 20/1/15 19/1/15
f 19/1/15 18/1/15 17/1/15
f 25/1/15 24/1/15 11/1/15
f 24/1/15 23/1/15 4/1/15
f 11/1/15 24/1/15 6/1/15
f 23/1/15 22/1/15 16/1/15
f 22/1/15 19/1/15 17/1/15
f 16/1/15 22/1/15 17/1/15
f 16/1/15 14/1/15 10/1/15
f 14/1/15 15/1/15 10/1/15
f 10/1/15 1/1/15 3/1/15
f 1/1/15 2/1/15 3/1/15
f 6/1/15 24/1/15 4/1/15
f 13/1/15 12/1/15 7/1/15
f 12/1/15 11/1/15 7/1/15
f 8/1/15 9/1/15 13/1/15
f 7/1/15 8/1/15 13/1/15
f 23/1/15 16/1/15 4/1/15
f 16/1/15 10/1/15 3/1/15
f 4/1/15 16/1/15 3/1/15
f 4/1/15 5/1/15 6/1/15
s 16
f 37/1/16 40/1/16 13/1/16
