# Blender 4.5.1 LTS
# www.blender.org
mtllib province_002.mtl
o province_002
v 1.977791 0.006502 -0.218819
v 2.079142 0.006502 -0.301613
v 1.962088 0.006502 -0.341582
v 1.960661 0.006502 -0.391544
v 1.917836 0.006502 -0.417239
v 1.950668 0.006502 -0.510025
v 1.980646 0.006502 -0.568552
v 1.942104 0.006502 -0.642781
v 1.860737 0.006502 -0.629933
v 1.787935 0.006502 -0.654201
v 1.676592 0.006502 -0.615659
v 1.733691 0.006502 -0.551422
v 1.710852 0.006502 -0.480048
v 1.733691 0.006502 -0.440078
v 2.016361 0.006502 -0.587442
v 1.701792 0.006502 -0.413324
v 1.703234 0.006502 -0.364815
v 1.768283 0.006502 -0.346823
v 1.781670 0.006502 -0.276910
v 1.942189 0.006502 -0.153754
v 1.701792 -0.013498 -0.413324
v 1.703234 -0.013498 -0.364815
v 1.768283 -0.013498 -0.346823
v 1.781670 -0.013498 -0.276910
v 1.977791 -0.013498 -0.218819
v 2.079142 -0.013498 -0.301613
v 1.942189 -0.013498 -0.153754
vn -0.0000 1.0000 -0.0000
vn -0.9996 -0.0000 0.0297
vn -0.2666 -0.0000 0.9638
vn -0.9822 -0.0000 0.1881
vn -0.6087 -0.0000 0.7934
vn 0.6326 -0.0000 0.7744
vn 0.8773 -0.0000 0.4800
vt 0.000000 0.000000
s 0
f 6/1/1 9/1/1 12/1/1
f 16/1/2 22/1/2 17/1/2
f 17/1/3 23/1/3 18/1/3
f 18/1/4 24/1/4 19/1/4
f 19/1/5 27/1/5 20/1/5
f 1/1/6 26/1/6 2/1/6
f 20/1/7 25/1/7 1/1/7
f 14/1/1 16/1/1 18/1/1
f 16/1/1 17/1/1 18/1/1
f 18/1/1 19/1/1 3/1/1
f 19/1/1 20/1/1 1/1/1
f 12/1/1 13/1/1 14/1/1
f 10/1/1 11/1/1 12/1/1
f 7/1/1 8/1/1 9/1/1
f 9/1/1 10/1/1 12/1/1
f 12/1/1 14/1/1 5/1/1
f 14/1/1 18/1/1 5/1/1
f 19/1/1 1/1/1 3/1/1
f 1/1/1 2/1/1 3/1/1
f 3/1/1 4/1/1 5/1/1
f 6/1/1 7/1/1 9/1/1
f 3/1/1 5/1/1 18/1/1
f 5/1/1 6/1/1 12/1/1
f 16/1/2 21/1/2 22/1/2
f 17/1/3 22/1/3 23/1/3
f 18/1/4 23/1/4 24/1/4
f 19/1/5 24/1/5 27/1/5
f 1/1/6 25/1/6 26/1/6
f 20/1/7 27/1/7 25/1/7
l 7 15
