# Blender 4.5.1 LTS
# www.blender.org
o province_126
v 46.759651 0.045516 5.435647
v 46.687706 0.045516 4.968001
v 46.327984 0.045516 4.464383
v 46.797626 0.045516 4.074678
v 47.107391 0.045516 4.194588
v 47.607014 0.045516 4.064687
v 48.056675 0.045516 3.215330
v 48.816097 0.045516 2.925550
v 49.405655 0.045516 3.315254
v 49.485592 0.045516 3.764914
v 49.005951 0.045516 4.184595
v 49.025940 0.045516 4.624261
v 49.205803 0.045516 4.944018
v 48.896034 0.045516 5.303746
v 47.059513 0.045516 5.755501
v 48.920418 0.045516 5.693859
v 48.107628 0.045516 6.027372
v 47.845188 0.045516 6.237326
v 47.596085 0.045516 6.050504
v 47.425797 0.045516 5.619096
v 47.059513 -0.094484 5.755501
v 48.920418 -0.094484 5.693859
v 48.107628 -0.094484 6.027372
v 47.845188 -0.094484 6.237326
v 47.596085 -0.094484 6.050504
v 47.425797 -0.094484 5.619096
vn 0.6247 -0.0000 0.7809
vn -0.9302 -0.0000 0.3672
vn -0.6000 -0.0000 0.8000
vn 0.3490 -0.0000 0.9371
vn -0.0000 1.0000 -0.0000
vn 0.3796 -0.0000 0.9251
vt 0.000000 0.000000
s 1
f 24/1/1 17/1/1 18/1/1
s 2
f 26/1/2 19/1/2 20/1/2
s 3
f 25/1/3 18/1/3 19/1/3
s 4
f 21/1/4 20/1/4 15/1/4
s 5
f 2/1/5 20/1/5 5/1/5
s 6
f 23/1/6 16/1/6 17/1/6
s 1
f 24/1/1 23/1/1 17/1/1
s 2
f 26/1/2 25/1/2 19/1/2
s 3
f 25/1/3 24/1/3 18/1/3
s 4
f 21/1/4 26/1/4 20/1/4
s 5
f 9/1/5 8/1/5 11/1/5
f 8/1/5 7/1/5 11/1/5
f 7/1/5 6/1/5 11/1/5
f 11/1/5 10/1/5 9/1/5
f 14/1/5 13/1/5 12/1/5
f 14/1/5 12/1/5 6/1/5
f 12/1/5 11/1/5 6/1/5
f 17/1/5 16/1/5 14/1/5
f 19/1/5 18/1/5 17/1/5
f 1/1/5 15/1/5 20/1/5
f 20/1/5 19/1/5 17/1/5
f 17/1/5 14/1/5 20/1/5
f 6/1/5 5/1/5 20/1/5
f 5/1/5 4/1/5 2/1/5
f 4/1/5 3/1/5 2/1/5
f 2/1/5 1/1/5 20/1/5
f 14/1/5 6/1/5 20/1/5
s 6
f 23/1/6 22/1/6 16/1/6
