# Blender 4.5.1 LTS
# www.blender.org
mtllib province_081.mtl
o province_081
v -1.030102 0.006502 -0.128202
v -1.006310 0.006502 -0.092515
v -1.105139 0.006502 -0.176403
v -1.051133 0.006502 -0.267524
v -1.003550 0.006502 -0.203287
v -0.892921 0.006502 -0.229458
v -0.819167 0.006502 -0.281799
v -0.767778 0.006502 -0.228982
v -0.702114 0.006502 -0.208997
v -0.659289 0.006502 -0.153325
v -0.585060 0.006502 -0.157608
v -0.523679 0.006502 -0.204715
v -0.583633 0.006502 0.126461
v -0.652152 0.006502 0.085064
v -0.653580 0.006502 0.035102
v -0.724954 0.006502 -0.012005
v -0.754931 0.006502 -0.049119
v -0.794900 0.006502 -0.043409
v -0.823450 0.006502 0.013690
v -0.857709 0.006502 0.012262
v -0.874839 0.006502 -0.027707
v -0.967625 0.006502 -0.030562
v -0.473452 0.006502 -0.205856
v -0.461005 0.006502 -0.125782
v -0.495644 0.006502 -0.078153
v -0.474344 0.006502 -0.018816
v -0.478414 0.006502 0.054450
v -0.502856 0.006502 0.136403
v -0.473452 -0.013498 -0.205856
v -0.461005 -0.013498 -0.125782
v -0.495644 -0.013498 -0.078153
v -0.474344 -0.013498 -0.018816
v -0.478414 -0.013498 0.054450
v -0.502856 -0.013498 0.136403
vn 0.9583 -0.0000 0.2858
vn 0.9985 -0.0000 0.0555
vn 0.9412 -0.0000 -0.3379
vn 0.8087 -0.0000 0.5882
vn 0.9881 -0.0000 -0.1536
vn -0.0000 1.0000 -0.0000
vt 0.000000 0.000000
s 0
f 28/1/1 33/1/1 27/1/1
f 27/1/2 32/1/2 26/1/2
f 26/1/3 31/1/3 25/1/3
f 25/1/4 30/1/4 24/1/4
f 24/1/5 29/1/5 23/1/5
f 5/1/6 1/1/6 2/1/6
f 28/1/1 34/1/1 33/1/1
f 27/1/2 33/1/2 32/1/2
f 26/1/3 32/1/3 31/1/3
f 25/1/4 31/1/4 30/1/4
f 24/1/5 30/1/5 29/1/5
f 24/1/6 23/1/6 12/1/6
f 24/1/6 12/1/6 11/1/6
f 27/1/6 26/1/6 15/1/6
f 26/1/6 25/1/6 15/1/6
f 25/1/6 24/1/6 11/1/6
f 10/1/6 9/1/6 17/1/6
f 9/1/6 8/1/6 17/1/6
f 25/1/6 11/1/6 15/1/6
f 11/1/6 10/1/6 15/1/6
f 28/1/6 27/1/6 13/1/6
f 14/1/6 13/1/6 15/1/6
f 15/1/6 13/1/6 27/1/6
f 17/1/6 16/1/6 10/1/6
f 16/1/6 15/1/6 10/1/6
f 8/1/6 7/1/6 6/1/6
f 20/1/6 19/1/6 21/1/6
f 19/1/6 18/1/6 21/1/6
f 18/1/6 17/1/6 8/1/6
f 8/1/6 6/1/6 18/1/6
f 6/1/6 5/1/6 2/1/6
f 18/1/6 6/1/6 21/1/6
f 5/1/6 4/1/6 3/1/6
f 5/1/6 3/1/6 1/1/6
f 22/1/6 21/1/6 2/1/6
f 2/1/6 21/1/6 6/1/6
