# Blender 4.5.1 LTS
# www.blender.org
mtllib province_022.mtl
o province_022
v -7.003320 0.006502 -3.173329
v -7.007431 0.006502 -3.267886
v -6.988931 0.006502 -3.319275
v -7.071155 0.006502 -3.374776
v -7.209685 0.006502 -3.261111
v -7.344663 0.006502 -3.218486
v -7.376631 0.006502 -3.119029
v -7.365974 0.006502 -2.955634
v -7.291382 0.006502 -2.916562
v -7.216789 0.006502 -2.973395
v -7.181269 0.006502 -2.952082
v -7.184821 0.006502 -2.888145
v -7.137542 0.006502 -2.840867
v -7.079986 0.006502 -2.910757
v -7.079986 0.006502 -3.007370
v -7.104652 0.006502 -3.081370
v -7.053263 0.006502 -3.147149
v -7.071155 -0.013498 -3.374776
v -7.209685 -0.013498 -3.261111
v -7.344663 -0.013498 -3.218486
v -7.376631 -0.013498 -3.119029
v -7.365974 -0.013498 -2.955634
v -7.291382 -0.013498 -2.916562
v -7.216789 -0.013498 -2.973395
v -7.181269 -0.013498 -2.952082
v -7.184821 -0.013498 -2.888145
vn -0.0000 1.0000 -0.0000
vn -0.6343 -0.0000 -0.7731
vn -0.3011 -0.0000 -0.9536
vn -0.9520 -0.0000 -0.3060
vn -0.9979 -0.0000 0.0651
vn -0.4640 -0.0000 0.8858
vn 0.6060 -0.0000 0.7954
vn -0.5145 -0.0000 0.8575
vn -0.9985 -0.0000 -0.0555
vt 0.000000 0.000000
s 0
f 7/1/1 10/1/1 16/1/1
f 4/1/2 19/1/2 5/1/2
f 5/1/3 20/1/3 6/1/3
f 6/1/4 21/1/4 7/1/4
f 7/1/5 22/1/5 8/1/5
f 8/1/6 23/1/6 9/1/6
f 9/1/7 24/1/7 10/1/7
f 10/1/8 25/1/8 11/1/8
f 11/1/9 26/1/9 12/1/9
f 17/1/1 1/1/1 2/1/1
f 2/1/1 3/1/1 4/1/1
f 5/1/1 6/1/1 7/1/1
f 2/1/1 4/1/1 5/1/1
f 16/1/1 17/1/1 5/1/1
f 17/1/1 2/1/1 5/1/1
f 14/1/1 15/1/1 11/1/1
f 15/1/1 16/1/1 11/1/1
f 12/1/1 13/1/1 14/1/1
f 11/1/1 12/1/1 14/1/1
f 8/1/1 9/1/1 10/1/1
f 10/1/1 11/1/1 16/1/1
f 16/1/1 5/1/1 7/1/1
f 7/1/1 8/1/1 10/1/1
f 4/1/2 18/1/2 19/1/2
f 5/1/3 19/1/3 20/1/3
f 6/1/4 20/1/4 21/1/4
f 7/1/5 21/1/5 22/1/5
f 8/1/6 22/1/6 23/1/6
f 9/1/7 23/1/7 24/1/7
f 10/1/8 24/1/8 25/1/8
f 11/1/9 25/1/9 26/1/9
