# Blender 4.5.1 LTS
# www.blender.org
mtllib province_053.mtl
o province_053
v -0.246365 0.001999 0.128901
v -0.251239 0.001999 0.127001
v -0.245621 0.001999 0.123449
v -0.243226 0.001999 0.121053
v -0.246282 0.001999 0.116840
v -0.241491 0.001999 0.107919
v -0.236534 0.001999 0.102549
v -0.239343 0.001999 0.098997
v -0.242152 0.001999 0.129314
v -0.237608 0.001999 0.134849
v -0.233478 0.001999 0.135427
v -0.227199 0.001999 0.132206
v -0.224308 0.001999 0.129810
v -0.220426 0.001999 0.130388
v -0.217452 0.001999 0.134436
v -0.213899 0.001999 0.133940
v -0.213156 0.001999 0.130471
v -0.210430 0.001999 0.126919
v -0.208778 0.001999 0.120558
v -0.212082 0.001999 0.114610
v -0.207539 0.001999 0.109901
v -0.208943 0.001999 0.104780
v -0.214973 0.001999 0.096601
v -0.219682 0.001999 0.098336
v -0.225134 0.001999 0.096436
v -0.228852 0.001999 0.096849
v -0.231743 0.001999 0.093214
v -0.235378 0.001999 0.097345
v -0.246365 0.001999 0.128901
v -0.242152 0.001999 0.129314
v -0.251239 0.001999 0.127001
v -0.237608 0.001999 0.134849
v -0.233478 0.001999 0.135427
v -0.227199 0.001999 0.132206
v -0.224308 0.001999 0.129810
v -0.220426 0.001999 0.130388
v -0.217452 0.001999 0.134436
v -0.213899 0.001999 0.133940
vn -0.0000 1.0000 -0.0000
vt 0.000000 0.000000
s 0
f 9/1/1 10/1/1 11/1/1 12/1/1 13/1/1 14/1/1 15/1/1 16/1/1 17/1/1 18/1/1 19/1/1 20/1/1 21/1/1 22/1/1 23/1/1 24/1/1 25/1/1 26/1/1 27/1/1 28/1/1 8/1/1 7/1/1 6/1/1 5/1/1 4/1/1 3/1/1 2/1/1 1/1/1
f 10/1/1 9/1/1 30/1/1 32/1/1
f 11/1/1 10/1/1 32/1/1 33/1/1
f 12/1/1 11/1/1 33/1/1 34/1/1
f 13/1/1 12/1/1 34/1/1 35/1/1
f 14/1/1 13/1/1 35/1/1 36/1/1
f 15/1/1 14/1/1 36/1/1 37/1/1
f 16/1/1 15/1/1 37/1/1 38/1/1
f 9/1/1 1/1/1 29/1/1 30/1/1
f 1/1/1 2/1/1 31/1/1 29/1/1
