# Blender 4.5.1 LTS
# www.blender.org
o province_017
v 3.976348 0.045516 -11.564970
v 3.976348 0.045516 -11.960668
v 4.336073 0.045516 -11.073345
v 4.348064 0.045516 -10.689639
v 4.911633 0.045516 -10.461812
v 4.935617 0.045516 -12.668128
v 5.535160 0.045516 -12.044604
v 7.285823 0.045516 -12.140531
v 5.966831 0.045516 -10.281949
v 5.511179 0.045516 -10.097290
v 7.658149 0.045516 -11.757862
v 6.461053 0.045516 -10.912733
v 6.342409 0.045516 -10.320470
v 6.461053 -0.094484 -10.912733
v 6.342409 -0.094484 -10.320470
v 4.935617 -0.094484 -12.668128
v 5.535160 -0.094484 -12.044604
v 7.285823 -0.094484 -12.140531
v 7.658149 -0.094484 -11.757862
vn -0.0547 -0.0000 -0.9985
vn 0.9805 -0.0000 0.1964
vn 0.7167 -0.0000 -0.6974
vn -0.0000 1.0000 -0.0000
vn 0.7208 -0.0000 -0.6931
vn 0.5767 -0.0000 0.8169
vt 0.000000 0.000000
s 1
f 7/1/1 18/1/1 17/1/1
s 2
f 15/1/2 12/1/2 13/1/2
s 3
f 19/1/3 8/1/3 11/1/3
s 4
f 7/1/4 5/1/4 12/1/4
s 5
f 17/1/5 6/1/5 7/1/5
s 6
f 19/1/6 12/1/6 14/1/6
s 1
f 7/1/1 8/1/1 18/1/1
s 2
f 15/1/2 14/1/2 12/1/2
s 3
f 19/1/3 18/1/3 8/1/3
s 4
f 7/1/4 6/1/4 2/1/4
f 2/1/4 1/1/4 3/1/4
f 3/1/4 4/1/4 5/1/4
f 5/1/4 10/1/4 9/1/4
f 9/1/4 13/1/4 12/1/4
f 12/1/4 11/1/4 8/1/4
f 7/1/4 2/1/4 3/1/4
f 12/1/4 8/1/4 7/1/4
f 5/1/4 9/1/4 12/1/4
f 7/1/4 3/1/4 5/1/4
s 5
f 17/1/5 16/1/5 6/1/5
s 6
f 19/1/6 11/1/6 12/1/6
