# Blender 4.5.1 LTS
# www.blender.org
mtllib province_083.mtl
o province_083
v -1.044135 0.006502 -1.327096
v -0.972190 0.006502 -1.339429
v -0.867356 0.006502 -1.310651
v -0.754300 0.006502 -1.349707
v -0.696743 0.006502 -1.322985
v -0.635076 0.006502 -1.351763
v -1.101691 0.006502 -1.651877
v -0.996857 0.006502 -1.664210
v -1.009191 0.006502 -1.594321
v -0.963968 0.006502 -1.557320
v -0.910523 0.006502 -1.575820
v -0.848856 0.006502 -1.577876
v -0.789244 0.006502 -1.625154
v -0.752244 0.006502 -1.588154
v -0.785133 0.006502 -1.542931
v -0.752244 0.006502 -1.499764
v -0.672077 0.006502 -1.495653
v -0.637132 0.006502 -1.438097
v -1.198854 0.006502 -1.582742
v -1.132018 0.006502 -1.481474
v -1.088965 0.006502 -1.343107
v -1.132018 -0.013498 -1.481474
v -1.088965 -0.013498 -1.343107
v -1.101691 -0.013498 -1.651877
v -0.996857 -0.013498 -1.664210
v -1.198854 -0.013498 -1.582742
vn -0.9548 -0.0000 0.2971
vn -0.8346 -0.0000 0.5508
vn -0.0000 1.0000 -0.0000
vn -0.5798 -0.0000 -0.8148
vn -0.1168 -0.0000 -0.9932
vt 0.000000 0.000000
s 0
f 20/1/1 23/1/1 21/1/1
f 19/1/2 22/1/2 20/1/2
f 15/1/3 13/1/3 12/1/3
f 7/1/4 26/1/4 19/1/4
f 8/1/5 24/1/5 7/1/5
f 20/1/1 22/1/1 23/1/1
f 19/1/2 26/1/2 22/1/2
f 8/1/3 7/1/3 9/1/3
f 7/1/3 19/1/3 20/1/3
f 20/1/3 21/1/3 1/1/3
f 7/1/3 20/1/3 9/1/3
f 20/1/3 1/1/3 2/1/3
f 2/1/3 3/1/3 11/1/3
f 3/1/3 4/1/3 16/1/3
f 2/1/3 11/1/3 10/1/3
f 4/1/3 5/1/3 18/1/3
f 5/1/3 6/1/3 18/1/3
f 18/1/3 17/1/3 16/1/3
f 4/1/3 18/1/3 16/1/3
f 20/1/3 2/1/3 10/1/3
f 20/1/3 10/1/3 9/1/3
f 15/1/3 14/1/3 13/1/3
f 16/1/3 15/1/3 3/1/3
f 12/1/3 11/1/3 15/1/3
f 15/1/3 11/1/3 3/1/3
f 7/1/4 24/1/4 26/1/4
f 8/1/5 25/1/5 24/1/5
