# Blender 4.5.1 LTS
# www.blender.org
o province_008
v -4.445534 0.045516 -9.462342
v -4.085809 0.045516 -9.563066
v -3.711694 0.045516 -9.361620
v -3.798028 0.045516 -8.987505
v -3.438303 0.045516 -8.757280
v -3.164911 0.045516 -8.786058
v -2.776408 0.045516 -9.203340
v -2.661296 0.045516 -9.692567
v -2.474239 0.045516 -9.721345
v -2.258404 0.045516 -9.318453
v -2.100124 0.045516 -9.217730
v -4.704536 0.045516 -10.469573
v -4.459923 0.045516 -10.066680
v -3.841195 0.045516 -12.368923
v -4.428746 0.045516 -10.805317
v -4.033048 0.045516 -10.673418
v -3.577396 0.045516 -10.721381
v -3.301607 0.045516 -11.081106
v -3.781240 0.045516 -11.716621
v -2.869936 0.045516 -12.608740
v -0.267923 0.045516 -10.654232
v -0.795520 0.045516 -10.558305
v -1.478999 0.045516 -10.090662
v -1.550944 0.045516 -9.527092
v -2.038382 0.045516 -12.580066
v -0.867335 0.045516 -12.028984
v -0.634701 0.045516 -11.612693
v -0.289816 0.045516 -11.540886
v -2.038382 -0.094484 -12.580066
v -0.867335 -0.094484 -12.028984
v -0.634701 -0.094484 -11.612693
v -0.289816 -0.094484 -11.540886
v -3.841195 -0.094484 -12.368923
v -2.869936 -0.094484 -12.608740
vn 0.8729 -0.0000 -0.4878
vn 0.0345 -0.0000 -0.9994
vn 0.4258 -0.0000 -0.9048
vn 0.2038 -0.0000 -0.9790
vn -0.0000 1.0000 -0.0000
vn -0.2397 -0.0000 -0.9708
vt 0.000000 0.000000
s 1
f 31/1/1 26/1/1 27/1/1
s 2
f 29/1/2 20/1/2 25/1/2
s 3
f 30/1/3 25/1/3 26/1/3
s 4
f 32/1/4 27/1/4 28/1/4
s 5
f 13/1/5 2/1/5 16/1/5
s 6
f 34/1/6 14/1/6 20/1/6
s 1
f 31/1/1 30/1/1 26/1/1
s 2
f 29/1/2 34/1/2 20/1/2
s 3
f 30/1/3 29/1/3 25/1/3
s 4
f 32/1/4 31/1/4 27/1/4
s 5
f 22/1/5 21/1/5 27/1/5
f 21/1/5 28/1/5 27/1/5
f 27/1/5 26/1/5 23/1/5
f 26/1/5 25/1/5 23/1/5
f 11/1/5 24/1/5 10/1/5
f 24/1/5 23/1/5 9/1/5
f 10/1/5 24/1/5 9/1/5
f 23/1/5 22/1/5 27/1/5
f 25/1/5 20/1/5 18/1/5
f 23/1/5 25/1/5 18/1/5
f 20/1/5 14/1/5 19/1/5
f 20/1/5 19/1/5 18/1/5
f 23/1/5 18/1/5 9/1/5
f 18/1/5 17/1/5 8/1/5
f 8/1/5 9/1/5 18/1/5
f 6/1/5 7/1/5 3/1/5
f 7/1/5 8/1/5 3/1/5
f 4/1/5 5/1/5 3/1/5
f 5/1/5 6/1/5 3/1/5
f 13/1/5 1/1/5 2/1/5
f 2/1/5 3/1/5 17/1/5
f 3/1/5 8/1/5 17/1/5
f 17/1/5 16/1/5 2/1/5
f 16/1/5 15/1/5 12/1/5
f 12/1/5 13/1/5 16/1/5
s 6
f 34/1/6 33/1/6 14/1/6
