# Blender 4.5.1 LTS
# www.blender.org
mtllib province_121.mtl
o province_121
v 3.785161 0.006502 1.120331
v 3.733772 0.006502 1.072367
v 3.612150 0.006502 1.118618
v 3.683410 0.006502 1.379676
v 3.683410 0.006502 1.347130
v 3.721096 0.006502 1.307731
v 3.700540 0.006502 1.276897
v 3.638873 0.006502 1.251203
v 3.575492 0.006502 1.244351
v 3.560076 0.006502 1.206665
v 3.608039 0.006502 1.156989
v 3.743365 0.006502 1.396806
v 3.807601 0.006502 1.468181
v 3.803319 0.006502 1.545265
v 3.817594 0.006502 1.622349
v 3.750502 0.006502 1.690868
v 3.756212 0.006502 1.743685
v 3.833296 0.006502 1.839327
v 4.093499 0.006502 1.386529
v 4.161333 0.006502 1.458474
v 4.268223 0.006502 1.497530
v 4.303168 0.006502 1.561253
v 4.264112 0.006502 1.641421
v 4.183122 0.006502 1.709255
v 4.181889 0.006502 1.807923
v 4.027720 0.006502 1.764756
v 3.916718 0.006502 1.816145
v 3.852255 0.006502 1.141298
v 3.915786 0.006502 1.196041
v 4.010951 0.006502 1.212511
v 4.082127 0.006502 1.301481
v 4.091708 0.006502 1.305956
v 4.091708 -0.013498 1.305956
v 4.082127 -0.013498 1.301481
v 3.852255 -0.013498 1.141298
v 3.915786 -0.013498 1.196041
v 4.010951 -0.013498 1.212511
v 3.833296 -0.013498 1.839327
v 4.181889 -0.013498 1.807923
v 4.027720 -0.013498 1.764756
v 3.916718 -0.013498 1.816145
vn 0.7809 -0.0000 -0.6247
vn 0.1705 -0.0000 -0.9854
vn 0.6528 -0.0000 -0.7576
vn 0.4232 -0.0000 -0.9061
vn -0.0000 1.0000 -0.0000
vn -0.2696 -0.0000 0.9630
vn 0.4201 -0.0000 0.9075
vn 0.2677 -0.0000 0.9635
vt 0.000000 0.000000
s 0
f 31/1/1 37/1/1 30/1/1
f 30/1/2 36/1/2 29/1/2
f 29/1/3 35/1/3 28/1/3
f 32/1/4 34/1/4 31/1/4
f 5/1/5 4/1/5 12/1/5
f 26/1/6 39/1/6 25/1/6
f 27/1/7 40/1/7 26/1/7
f 18/1/8 41/1/8 27/1/8
f 31/1/1 34/1/1 37/1/1
f 30/1/2 37/1/2 36/1/2
f 29/1/3 36/1/3 35/1/3
f 32/1/4 33/1/4 34/1/4
f 29/1/5 28/1/5 6/1/5
f 28/1/5 1/1/5 7/1/5
f 1/1/5 2/1/5 11/1/5
f 2/1/5 3/1/5 11/1/5
f 11/1/5 10/1/5 9/1/5
f 31/1/5 30/1/5 29/1/5
f 28/1/5 7/1/5 6/1/5
f 1/1/5 11/1/5 8/1/5
f 7/1/5 1/1/5 8/1/5
f 11/1/5 9/1/5 8/1/5
f 31/1/5 29/1/5 13/1/5
f 31/1/5 13/1/5 19/1/5
f 19/1/5 32/1/5 31/1/5
f 22/1/5 21/1/5 23/1/5
f 21/1/5 20/1/5 23/1/5
f 20/1/5 19/1/5 14/1/5
f 29/1/5 6/1/5 12/1/5
f 20/1/5 15/1/5 26/1/5
f 24/1/5 23/1/5 20/1/5
f 26/1/5 25/1/5 24/1/5
f 18/1/5 27/1/5 17/1/5
f 27/1/5 26/1/5 15/1/5
f 16/1/5 17/1/5 15/1/5
f 15/1/5 17/1/5 27/1/5
f 13/1/5 14/1/5 19/1/5
f 14/1/5 15/1/5 20/1/5
f 26/1/5 24/1/5 20/1/5
f 13/1/5 29/1/5 12/1/5
f 6/1/5 5/1/5 12/1/5
f 26/1/6 40/1/6 39/1/6
f 27/1/7 41/1/7 40/1/7
f 18/1/8 38/1/8 41/1/8
