# Blender 4.5.1 LTS
# www.blender.org
mtllib province_119.mtl
o province_119
v 0.259663 0.001999 0.220338
v 0.267029 0.001999 0.227189
v 0.274908 0.001999 0.229416
v 0.285529 0.001999 0.237467
v 0.300603 0.001999 0.237296
v 0.295264 0.001999 0.245661
v 0.298262 0.001999 0.250115
v 0.297520 0.001999 0.258194
v 0.292723 0.001999 0.261963
v 0.289629 0.001999 0.268771
v 0.283348 0.001999 0.267344
v 0.277210 0.001999 0.269199
v 0.271643 0.001999 0.268200
v 0.270786 0.001999 0.265060
v 0.261793 0.001999 0.261776
v 0.260365 0.001999 0.258636
v 0.255655 0.001999 0.259064
v 0.253085 0.001999 0.264346
v 0.246376 0.001999 0.262347
v 0.239096 0.001999 0.255353
v 0.239524 0.001999 0.249928
v 0.226962 0.001999 0.246930
v 0.230531 0.001999 0.243219
v 0.240952 0.001999 0.242791
v 0.245091 0.001999 0.239793
v 0.246519 0.001999 0.234083
v 0.251372 0.001999 0.229658
v 0.253228 0.001999 0.224376
v 0.259663 -0.000001 0.220338
v 0.226962 -0.000001 0.246930
v 0.230531 -0.000001 0.243219
v 0.240952 -0.000001 0.242791
v 0.245091 -0.000001 0.239793
v 0.246519 -0.000001 0.234083
v 0.251372 -0.000001 0.229658
v 0.253228 -0.000001 0.224376
vn -0.0000 1.0000 -0.0000
vn -0.7208 -0.0000 -0.6931
vn -0.0411 -0.0000 -0.9992
vn -0.5865 -0.0000 -0.8099
vn -0.9701 -0.0000 -0.2425
vn -0.6738 -0.0000 -0.7390
vn -0.9435 -0.0000 -0.3315
vn -0.5316 -0.0000 -0.8470
vt 0.000000 0.000000
s 0
f 1/1/1 28/1/1 27/1/1 26/1/1 25/1/1 24/1/1 23/1/1 22/1/1 21/1/1 20/1/1 19/1/1 18/1/1 17/1/1 16/1/1 15/1/1 14/1/1 13/1/1 12/1/1 11/1/1 10/1/1 9/1/1 8/1/1 7/1/1 6/1/1 5/1/1 4/1/1 3/1/1 2/1/1
f 22/1/2 23/1/2 31/1/2 30/1/2
f 23/1/3 24/1/3 32/1/3 31/1/3
f 24/1/4 25/1/4 33/1/4 32/1/4
f 25/1/5 26/1/5 34/1/5 33/1/5
f 26/1/6 27/1/6 35/1/6 34/1/6
f 27/1/7 28/1/7 36/1/7 35/1/7
f 28/1/8 1/1/8 29/1/8 36/1/8
