# Blender 4.5.1 LTS
# www.blender.org
mtllib province_068.mtl
o province_068
v -2.095435 0.006502 0.191787
v -2.143018 0.006502 0.214586
v -2.195557 0.006502 0.213595
v -1.993270 0.006502 -0.017962
v -1.941881 0.006502 0.004649
v -1.935714 0.006502 0.062205
v -1.839102 0.006502 0.095094
v -1.804158 0.006502 0.076594
v -1.767157 0.006502 0.086872
v -1.765102 0.006502 0.148539
v -1.814435 0.006502 0.187595
v -1.818546 0.006502 0.224595
v -1.756879 0.006502 0.335596
v -1.806213 0.006502 0.380818
v -1.814435 0.006502 0.423985
v -1.847324 0.006502 0.471263
v -1.923381 0.006502 0.477430
v -1.978881 0.006502 0.440430
v -2.054937 0.006502 0.419874
v -2.122771 0.006502 0.391096
v -2.038179 0.006502 -0.005131
v -2.013795 0.006502 0.045849
v -2.057661 0.006502 0.115584
v -2.079060 0.006502 0.132703
v -2.088056 0.006502 0.135217
v -2.210469 0.006502 0.267145
v -2.216519 0.006502 0.261164
v -2.188111 0.006502 0.316333
v -2.218617 0.006502 0.369472
v -2.189018 0.006502 0.429550
v -2.088056 -0.013498 0.135217
v -2.079060 -0.013498 0.132703
v -2.216519 -0.013498 0.261164
v -2.210469 -0.013498 0.267145
v -2.038179 -0.013498 -0.005131
v -2.013795 -0.013498 0.045849
v -2.057661 -0.013498 0.115584
v -2.188111 -0.013498 0.316333
v -2.218617 -0.013498 0.369472
v -2.189018 -0.013498 0.429550
vn -0.8673 -0.0000 -0.4979
vn -0.9104 -0.0000 0.4138
vn -0.6247 -0.0000 -0.7809
vn -0.8465 -0.0000 -0.5325
vn -0.9021 -0.0000 0.4315
vn -0.0000 1.0000 -0.0000
vn -0.8970 -0.0000 0.4419
vn -0.2692 -0.0000 -0.9631
vn -0.7030 -0.0000 0.7112
vn -0.8465 -0.0000 -0.5324
vt 0.000000 0.000000
s 0
f 28/1/1 39/1/1 29/1/1
f 26/1/2 38/1/2 28/1/2
f 23/1/3 32/1/3 24/1/3
f 22/1/4 37/1/4 23/1/4
f 21/1/5 36/1/5 22/1/5
f 18/1/6 17/1/6 14/1/6
f 29/1/7 40/1/7 30/1/7
f 24/1/8 31/1/8 25/1/8
f 27/1/9 34/1/9 26/1/9
f 28/1/1 38/1/1 39/1/1
f 26/1/2 34/1/2 38/1/2
f 23/1/3 37/1/3 32/1/3
f 22/1/10 36/1/10 37/1/10
f 21/1/5 35/1/5 36/1/5
f 24/1/6 25/1/6 1/1/6
f 2/1/6 3/1/6 26/1/6
f 3/1/6 27/1/6 26/1/6
f 23/1/6 24/1/6 1/1/6
f 1/1/6 2/1/6 20/1/6
f 2/1/6 26/1/6 28/1/6
f 22/1/6 23/1/6 6/1/6
f 23/1/6 1/1/6 12/1/6
f 6/1/6 23/1/6 12/1/6
f 4/1/6 21/1/6 22/1/6
f 6/1/6 5/1/6 22/1/6
f 5/1/6 4/1/6 22/1/6
f 9/1/6 8/1/6 10/1/6
f 8/1/6 7/1/6 10/1/6
f 7/1/6 6/1/6 11/1/6
f 2/1/6 28/1/6 20/1/6
f 11/1/6 10/1/6 7/1/6
f 14/1/6 13/1/6 12/1/6
f 12/1/6 11/1/6 6/1/6
f 12/1/6 1/1/6 18/1/6
f 28/1/6 29/1/6 20/1/6
f 29/1/6 30/1/6 20/1/6
f 20/1/6 19/1/6 1/1/6
f 19/1/6 18/1/6 1/1/6
f 15/1/6 14/1/6 17/1/6
f 14/1/6 12/1/6 18/1/6
f 17/1/6 16/1/6 15/1/6
f 29/1/7 39/1/7 40/1/7
f 24/1/8 32/1/8 31/1/8
f 27/1/9 33/1/9 34/1/9
