# Blender 4.5.1 LTS
# www.blender.org
mtllib province_044.mtl
o province_044
v -0.439372 0.001999 -0.077728
v -0.451733 0.001999 -0.076875
v -0.462389 0.001999 -0.066645
v -0.464094 0.001999 -0.054711
v -0.453864 0.001999 -0.049169
v -0.450028 0.001999 -0.044055
v -0.450881 0.001999 -0.036382
v -0.445340 0.001999 -0.034251
v -0.441930 0.001999 -0.028710
v -0.436898 0.001999 -0.031966
v -0.435714 0.001999 -0.035222
v -0.430978 0.001999 -0.037294
v -0.426242 0.001999 -0.038182
v -0.421210 0.001999 -0.043510
v -0.409073 0.001999 -0.044102
v -0.431150 0.001999 -0.071218
v -0.425840 0.001999 -0.071218
v -0.417104 0.001999 -0.072589
v -0.408539 0.001999 -0.072246
v -0.401173 0.001999 -0.068478
v -0.393807 0.001999 -0.062482
v -0.405635 0.001999 -0.049635
v -0.408317 0.001999 -0.048577
v -0.401373 0.001999 -0.047770
v -0.393741 0.001999 -0.051041
v -0.391108 0.001999 -0.053410
v -0.389250 0.001999 -0.057391
v -0.389250 0.001999 -0.061991
v -0.408317 -0.000001 -0.048577
v -0.405635 -0.000001 -0.049635
v -0.401373 -0.000001 -0.047770
v -0.393741 -0.000001 -0.051041
v -0.391108 -0.000001 -0.053410
v -0.389250 -0.000001 -0.057391
v -0.439372 -0.000001 -0.077728
v -0.451733 -0.000001 -0.076875
v -0.462389 -0.000001 -0.066645
v -0.464094 -0.000001 -0.054711
v -0.453864 -0.000001 -0.049169
v -0.450028 -0.000001 -0.044055
v -0.450881 -0.000001 -0.036382
v -0.445340 -0.000001 -0.034251
v -0.441930 -0.000001 -0.028710
v -0.431150 -0.000001 -0.071218
v -0.425840 -0.000001 -0.071218
v -0.417104 -0.000001 -0.072589
v -0.408539 -0.000001 -0.072246
v -0.401173 -0.000001 -0.068478
v -0.393807 -0.000001 -0.062482
v -0.389250 -0.000001 -0.061991
vn 1.0000 -0.0000 -0.0000
vn 0.9062 -0.0000 0.4229
vn 0.6690 -0.0000 0.7433
vn 0.3939 -0.0000 0.9191
vn -0.4008 -0.0000 0.9162
vn -0.0000 1.0000 -0.0000
vn 0.3670 -0.0000 0.9302
vn 0.1072 -0.0000 -0.9942
vn -0.0688 -0.0000 -0.9976
vn -0.6925 -0.0000 -0.7214
vn -0.9899 -0.0000 -0.1414
vn -0.4763 -0.0000 0.8793
vn -0.8000 -0.0000 0.6000
vn -0.9939 -0.0000 -0.1104
vn -0.3590 -0.0000 0.9333
vn -0.8517 -0.0000 0.5241
vn 0.6207 -0.0000 -0.7840
vn -0.0000 -0.0000 -1.0000
vn -0.1550 -0.0000 -0.9879
vn 0.0400 -0.0000 -0.9992
vn 0.4555 -0.0000 -0.8902
vn 0.6313 -0.0000 -0.7756
vt 0.000000 0.000000
s 0
f 28/1/1 27/1/1 34/1/1 50/1/1
f 27/1/2 26/1/2 33/1/2 34/1/2
f 26/1/3 25/1/3 32/1/3 33/1/3
f 25/1/4 24/1/4 31/1/4 32/1/4
f 24/1/5 22/1/5 30/1/5 31/1/5
f 1/1/6 2/1/6 3/1/6 4/1/6 5/1/6 6/1/6 7/1/6 8/1/6 9/1/6 10/1/6 11/1/6 12/1/6 13/1/6 14/1/6 15/1/6 23/1/6 22/1/6 24/1/6 25/1/6 26/1/6 27/1/6 28/1/6 21/1/6 20/1/6 19/1/6 18/1/6 17/1/6 16/1/6
f 22/1/7 23/1/7 29/1/7 30/1/7
f 21/1/8 28/1/8 50/1/8 49/1/8
f 2/1/9 1/1/9 35/1/9 36/1/9
f 3/1/10 2/1/10 36/1/10 37/1/10
f 4/1/11 3/1/11 37/1/11 38/1/11
f 5/1/12 4/1/12 38/1/12 39/1/12
f 6/1/13 5/1/13 39/1/13 40/1/13
f 7/1/14 6/1/14 40/1/14 41/1/14
f 8/1/15 7/1/15 41/1/15 42/1/15
f 9/1/16 8/1/16 42/1/16 43/1/16
f 1/1/17 16/1/17 44/1/17 35/1/17
f 16/1/18 17/1/18 45/1/18 44/1/18
f 17/1/19 18/1/19 46/1/19 45/1/19
f 18/1/20 19/1/20 47/1/20 46/1/20
f 19/1/21 20/1/21 48/1/21 47/1/21
f 20/1/22 21/1/22 49/1/22 48/1/22
