# Blender 4.5.1 LTS
# www.blender.org
mtllib province_089.mtl
o province_089
v 0.165333 0.001999 -0.029228
v 0.164648 0.001999 -0.021348
v 0.152657 0.001999 -0.014325
v 0.145805 0.001999 -0.014667
v 0.141180 0.001999 -0.019635
v 0.133472 0.001999 -0.017408
v 0.132958 0.001999 -0.005874
v 0.128104 0.001999 -0.012298
v 0.141665 0.001999 0.002120
v 0.142522 0.001999 0.008401
v 0.180660 0.001999 -0.004519
v 0.172381 0.001999 -0.003377
v 0.167384 0.001999 -0.008374
v 0.159962 0.001999 -0.005376
v 0.156536 0.001999 -0.001379
v 0.150968 0.001999 -0.000808
v 0.177377 0.001999 -0.015226
v 0.169097 0.001999 -0.025075
v 0.174470 0.001999 -0.021589
v 0.170129 0.001999 -0.030598
v 0.168977 0.001999 -0.030269
v 0.168977 -0.000001 -0.030269
v 0.170129 -0.000001 -0.030598
vn -0.0000 1.0000 -0.0000
vn -0.2747 -0.0000 -0.9615
vt 0.000000 0.000000
s 0
f 20/1/1 21/1/1 1/1/1 2/1/1 3/1/1 4/1/1 5/1/1 6/1/1 8/1/1 7/1/1 9/1/1 10/1/1 16/1/1 15/1/1 14/1/1 13/1/1 12/1/1 11/1/1 17/1/1 19/1/1 18/1/1
f 21/1/2 20/1/2 23/1/2 22/1/2
