# Blender 4.5.1 LTS
# www.blender.org
mtllib province_052.mtl
o province_052
v -3.270459 0.006502 0.258220
v -3.227503 0.006502 0.320176
v -3.149024 0.006502 0.287133
v -3.106068 0.006502 0.294568
v -3.001155 0.006502 0.375524
v -2.902024 0.006502 0.369741
v -2.850807 0.006502 0.406915
v -2.794633 0.006502 0.371394
v -2.770677 0.006502 0.347437
v -2.801242 0.006502 0.305307
v -2.753329 0.006502 0.216089
v -2.703763 0.006502 0.162394
v -2.731850 0.006502 0.126872
v -2.754981 0.006502 0.067394
v -3.176389 0.006502 0.067297
v -3.118391 0.006502 0.057171
v -3.032836 0.006502 0.026840
v -2.997206 0.006502 0.034204
v -3.285481 0.006502 0.258675
v -3.290994 0.006502 0.237696
v -3.212732 0.006502 0.216752
v -3.173352 0.006502 0.135368
v -2.894096 0.006502 0.032810
v -2.839639 0.006502 0.070628
v -2.770462 0.006502 0.037636
v -3.061619 0.006502 -0.013957
v -3.086838 0.006502 -0.004936
v -3.176389 -0.013498 0.067297
v -3.118391 -0.013498 0.057171
v -3.032836 -0.013498 0.026840
v -2.997206 -0.013498 0.034204
v -3.285481 -0.013498 0.258675
v -3.290994 -0.013498 0.237696
v -3.212732 -0.013498 0.216752
v -3.173352 -0.013498 0.135368
v -2.894096 -0.013498 0.032810
v -2.839639 -0.013498 0.070628
v -2.770462 -0.013498 0.037636
v -3.061619 -0.013498 -0.013957
v -3.086838 -0.013498 -0.004936
v -2.850807 0.006502 0.406915
v -3.270459 0.006502 0.258220
v -3.227503 0.006502 0.320176
v -3.149024 0.006502 0.287133
v -3.106068 0.006502 0.294568
v -3.001155 0.006502 0.375524
v -2.902024 0.006502 0.369741
v -3.285481 0.006502 0.258675
v -3.227503 0.006502 0.320176
vn -0.8915 -0.0000 -0.4529
vn -0.3368 -0.0000 -0.9416
vn 0.8171 -0.0000 -0.5765
vn -0.4305 -0.0000 -0.9026
vn 0.5704 -0.0000 -0.8214
vn -0.0135 -0.0000 -0.9999
vn -0.9990 -0.0000 0.0446
vn -0.9002 -0.0000 -0.4356
vn -0.2585 -0.0000 -0.9660
vn -0.9672 -0.0000 0.2541
vn 0.2024 -0.0000 -0.9793
vn -0.1720 -0.0000 -0.9851
vn -0.0000 1.0000 -0.0000
vt 0.000000 0.000000
s 0
f 27/1/1 29/1/1 16/1/1
f 26/1/2 40/1/2 27/1/2
f 17/1/3 39/1/3 26/1/3
f 25/1/4 37/1/4 24/1/4
f 24/1/5 36/1/5 23/1/5
f 23/1/6 31/1/6 18/1/6
f 15/1/7 35/1/7 22/1/7
f 22/1/8 34/1/8 21/1/8
f 21/1/9 33/1/9 20/1/9
f 20/1/10 32/1/10 19/1/10
f 18/1/11 30/1/11 17/1/11
f 16/1/12 28/1/12 15/1/12
f 10/1/13 24/1/13 6/1/13
f 2/1/13 42/1/13 43/1/13
f 3/1/13 43/1/13 44/1/13
f 4/1/13 44/1/13 45/1/13
f 5/1/13 45/1/13 46/1/13
f 6/1/13 46/1/13 47/1/13
f 7/1/13 47/1/13 41/1/13
f 1/1/13 48/1/13 42/1/13
f 27/1/1 40/1/1 29/1/1
f 26/1/2 39/1/2 40/1/2
f 17/1/3 30/1/3 39/1/3
f 25/1/4 38/1/4 37/1/4
f 24/1/5 37/1/5 36/1/5
f 23/1/6 36/1/6 31/1/6
f 15/1/7 28/1/7 35/1/7
f 22/1/8 35/1/8 34/1/8
f 21/1/9 34/1/9 33/1/9
f 20/1/10 33/1/10 32/1/10
f 18/1/11 31/1/11 30/1/11
f 16/1/12 29/1/12 28/1/12
f 16/1/13 15/1/13 22/1/13
f 21/1/13 20/1/13 1/1/13
f 20/1/13 19/1/13 1/1/13
f 16/1/13 22/1/13 4/1/13
f 22/1/13 21/1/13 3/1/13
f 16/1/13 18/1/13 17/1/13
f 26/1/13 27/1/13 17/1/13
f 27/1/13 16/1/13 17/1/13
f 18/1/13 16/1/13 4/1/13
f 24/1/13 23/1/13 18/1/13
f 4/1/13 22/1/13 3/1/13
f 21/1/13 1/1/13 2/1/13
f 21/1/13 2/1/13 3/1/13
f 24/1/13 18/1/13 6/1/13
f 14/1/13 25/1/13 24/1/13
f 11/1/13 12/1/13 13/1/13
f 13/1/13 14/1/13 24/1/13
f 4/1/13 5/1/13 6/1/13
f 18/1/13 4/1/13 6/1/13
f 11/1/13 13/1/13 24/1/13
f 8/1/13 9/1/13 10/1/13
f 10/1/13 11/1/13 24/1/13
f 6/1/13 7/1/13 8/1/13
f 8/1/13 10/1/13 6/1/13
f 2/1/13 1/1/13 42/1/13
f 3/1/13 2/1/13 43/1/13
f 4/1/13 3/1/13 44/1/13
f 5/1/13 4/1/13 45/1/13
f 6/1/13 5/1/13 46/1/13
f 7/1/13 6/1/13 47/1/13
f 1/1/13 19/1/13 48/1/13
