# Blender 4.5.1 LTS
# www.blender.org
mtllib province_055.mtl
o province_055
v -3.298414 0.006502 -0.522167
v -3.250831 0.006502 -0.540011
v -3.155666 0.006502 -0.594731
v -3.141392 0.006502 -0.625660
v -3.263916 0.006502 -0.490049
v -3.277002 0.006502 -0.456741
v -3.297225 0.006502 -0.437708
v -3.281760 0.006502 -0.384178
v -3.292466 0.006502 -0.355628
v -3.011332 0.006502 -0.271764
v -3.057923 0.006502 -0.299521
v -3.140202 0.006502 -0.296547
v -3.182827 0.006502 -0.324303
v -3.260149 0.006502 -0.323312
v -2.690585 0.006502 -0.467368
v -2.961370 0.006502 -0.304596
v -2.931393 0.006502 -0.303169
v -2.877149 0.006502 -0.281757
v -2.840035 0.006502 -0.308879
v -2.782936 0.006502 -0.306024
v -2.755814 0.006502 -0.357413
v -2.730119 0.006502 -0.355985
v -2.702997 0.006502 -0.328863
v -2.746257 0.006502 -0.474506
v -2.824768 0.006502 -0.454521
v -2.844753 0.006502 -0.514475
v -2.814776 0.006502 -0.544452
v -2.839043 0.006502 -0.575857
v -2.896142 0.006502 -0.615826
v -2.903280 0.006502 -0.662933
v -2.963233 0.006502 -0.681490
v -3.000348 0.006502 -0.632956
v -3.080287 0.006502 -0.622963
v -2.686582 0.006502 -0.330398
v -2.669637 0.006502 -0.410509
v -2.686582 -0.013498 -0.330398
v -2.669637 -0.013498 -0.410509
vn 0.9784 -0.0000 0.2069
vn -0.0000 1.0000 -0.0000
vt 0.000000 0.000000
s 0
f 34/1/1 37/1/1 35/1/1
f 21/1/2 22/1/2 24/1/2
f 34/1/1 36/1/1 37/1/1
f 2/1/2 1/1/2 5/1/2
f 6/1/2 7/1/2 8/1/2
f 3/1/2 2/1/2 5/1/2
f 5/1/2 6/1/2 13/1/2
f 6/1/2 8/1/2 13/1/2
f 8/1/2 9/1/2 14/1/2
f 13/1/2 12/1/2 11/1/2
f 8/1/2 14/1/2 13/1/2
f 3/1/2 5/1/2 13/1/2
f 33/1/2 4/1/2 3/1/2
f 30/1/2 31/1/2 29/1/2
f 31/1/2 32/1/2 29/1/2
f 32/1/2 33/1/2 11/1/2
f 33/1/2 3/1/2 11/1/2
f 11/1/2 10/1/2 16/1/2
f 3/1/2 13/1/2 11/1/2
f 32/1/2 11/1/2 16/1/2
f 28/1/2 29/1/2 26/1/2
f 29/1/2 32/1/2 26/1/2
f 26/1/2 27/1/2 28/1/2
f 15/1/2 24/1/2 35/1/2
f 24/1/2 25/1/2 21/1/2
f 35/1/2 24/1/2 22/1/2
f 25/1/2 26/1/2 16/1/2
f 26/1/2 32/1/2 16/1/2
f 25/1/2 16/1/2 17/1/2
f 17/1/2 18/1/2 19/1/2
f 19/1/2 20/1/2 21/1/2
f 22/1/2 23/1/2 34/1/2
f 17/1/2 19/1/2 25/1/2
f 19/1/2 21/1/2 25/1/2
f 22/1/2 34/1/2 35/1/2
