# Blender 4.5.1 LTS
# www.blender.org
mtllib province_070.mtl
o province_070
v -1.767157 0.006502 0.086872
v -1.765102 0.006502 0.148539
v -1.814435 0.006502 0.187595
v -1.818547 0.006502 0.224595
v -1.756879 0.006502 0.335596
v -1.806213 0.006502 0.380818
v -1.814435 0.006502 0.423985
v -1.847324 0.006502 0.471263
v -1.780358 0.006502 0.515507
v -1.741816 0.006502 0.492667
v -1.671870 0.006502 0.498378
v -1.621908 0.006502 0.536919
v -1.581939 0.006502 0.518362
v -1.521984 0.006502 0.501232
v -1.496290 0.006502 0.444133
v -1.731470 0.006502 0.105429
v -1.654387 0.006502 0.106856
v -1.607280 0.006502 0.082589
v -1.554463 0.006502 0.082589
v -1.514494 0.006502 0.099719
v -1.521631 0.006502 0.163955
v -1.477379 0.006502 0.195360
v -1.474524 0.006502 0.222482
v -1.503074 0.006502 0.253887
v -1.498791 0.006502 0.310986
v -1.441692 0.006502 0.330971
v -1.394585 0.006502 0.346673
v -1.447266 0.006502 0.434746
v -1.402055 0.006502 0.373917
v -1.392978 0.006502 0.368936
v -1.392978 -0.013498 0.368936
v -1.402055 -0.013498 0.373917
v -1.447266 -0.013498 0.434746
vn -0.0000 1.0000 -0.0000
vn 0.8026 -0.0000 0.5965
vn 0.4812 -0.0000 0.8766
vt 0.000000 0.000000
s 0
f 25/1/1 11/1/1 15/1/1
f 28/1/2 32/1/2 29/1/2
f 29/1/3 31/1/3 30/1/3
f 16/1/1 1/1/1 2/1/1
f 2/1/1 3/1/1 4/1/1
f 5/1/1 6/1/1 10/1/1
f 6/1/1 7/1/1 10/1/1
f 2/1/1 4/1/1 5/1/1
f 17/1/1 16/1/1 2/1/1
f 19/1/1 18/1/1 21/1/1
f 18/1/1 17/1/1 21/1/1
f 21/1/1 20/1/1 19/1/1
f 23/1/1 22/1/1 24/1/1
f 22/1/1 21/1/1 24/1/1
f 17/1/1 2/1/1 5/1/1
f 7/1/1 8/1/1 9/1/1
f 21/1/1 17/1/1 24/1/1
f 17/1/1 5/1/1 24/1/1
f 7/1/1 9/1/1 10/1/1
f 25/1/1 24/1/1 5/1/1
f 5/1/1 10/1/1 11/1/1
f 11/1/1 12/1/1 13/1/1
f 13/1/1 14/1/1 15/1/1
f 15/1/1 28/1/1 26/1/1
f 28/1/1 29/1/1 26/1/1
f 29/1/1 30/1/1 27/1/1
f 26/1/1 25/1/1 15/1/1
f 25/1/1 5/1/1 11/1/1
f 29/1/1 27/1/1 26/1/1
f 11/1/1 13/1/1 15/1/1
f 28/1/2 33/1/2 32/1/2
f 29/1/3 32/1/3 31/1/3
