# Blender 4.5.1 LTS
# www.blender.org
mtllib province_167.mtl
o province_167
v 0.598883 0.006502 -1.729223
v 0.530364 0.006502 -1.794316
v 0.425873 0.006502 -1.782325
v 0.338511 0.006502 -1.823436
v 0.258001 0.006502 -1.820011
v 0.210037 0.006502 -1.876539
v 0.194621 0.006502 -1.979317
v 0.292260 0.006502 -1.999873
v 0.340224 0.006502 -2.034133
v 0.353928 0.006502 -2.112930
v 0.425873 0.006502 -2.136911
v 0.460132 0.006502 -2.097513
v 0.449855 0.006502 -2.022142
v 0.502957 0.006502 -1.979317
v 0.605736 0.006502 -1.934780
v 0.641708 0.006502 -1.874826
v 0.705088 0.006502 -1.809733
v 0.194621 -0.013498 -1.979317
v 0.292260 -0.013498 -1.999873
v 0.340224 -0.013498 -2.034133
v 0.353928 -0.013498 -2.112930
v 0.425873 -0.013498 -2.136911
v 0.460132 -0.013498 -2.097513
v 0.449855 -0.013498 -2.022142
v 0.502957 -0.013498 -1.979317
v 0.605736 -0.013498 -1.934780
v 0.641708 -0.013498 -1.874826
v 0.705088 -0.013498 -1.809733
vn -0.0000 1.0000 -0.0000
vn -0.2060 -0.0000 -0.9785
vn -0.5812 -0.0000 -0.8137
vn -0.9852 -0.0000 -0.1713
vn -0.3162 -0.0000 -0.9487
vn 0.7546 -0.0000 -0.6562
vn 0.9908 -0.0000 0.1351
vn 0.6278 -0.0000 -0.7784
vn 0.3976 -0.0000 -0.9176
vn 0.8575 -0.0000 -0.5145
vn 0.7165 -0.0000 -0.6976
vt 0.000000 0.000000
s 0
f 14/1/1 13/1/1 4/1/1
f 8/1/2 18/1/2 7/1/2
f 9/1/3 19/1/3 8/1/3
f 10/1/4 20/1/4 9/1/4
f 11/1/5 21/1/5 10/1/5
f 12/1/6 22/1/6 11/1/6
f 13/1/7 23/1/7 12/1/7
f 14/1/8 24/1/8 13/1/8
f 15/1/9 25/1/9 14/1/9
f 16/1/10 26/1/10 15/1/10
f 17/1/11 27/1/11 16/1/11
f 2/1/1 1/1/1 16/1/1
f 1/1/1 17/1/1 16/1/1
f 16/1/1 15/1/1 2/1/1
f 15/1/1 14/1/1 2/1/1
f 4/1/1 3/1/1 14/1/1
f 3/1/1 2/1/1 14/1/1
f 6/1/1 5/1/1 4/1/1
f 8/1/1 7/1/1 6/1/1
f 11/1/1 10/1/1 12/1/1
f 10/1/1 9/1/1 13/1/1
f 9/1/1 8/1/1 4/1/1
f 8/1/1 6/1/1 4/1/1
f 9/1/1 4/1/1 13/1/1
f 13/1/1 12/1/1 10/1/1
f 8/1/2 19/1/2 18/1/2
f 9/1/3 20/1/3 19/1/3
f 10/1/4 21/1/4 20/1/4
f 11/1/5 22/1/5 21/1/5
f 12/1/6 23/1/6 22/1/6
f 13/1/7 24/1/7 23/1/7
f 14/1/8 25/1/8 24/1/8
f 15/1/9 26/1/9 25/1/9
f 16/1/10 27/1/10 26/1/10
f 17/1/11 28/1/11 27/1/11
