# Blender 4.5.1 LTS
# www.blender.org
o province_168
v -4.812354 0.045516 8.936476
v -5.291988 0.045516 9.164302
v -5.675695 0.045516 9.452082
v -5.975466 0.045516 9.452082
v -6.335192 0.045516 10.111578
v -4.572537 0.045516 9.715880
v -4.188830 0.045516 10.015652
v -4.020958 0.045516 10.339405
v -3.589288 0.045516 10.411350
v -3.337480 0.045516 10.159542
v -3.037709 0.045516 10.279450
v -3.085672 0.045516 10.771075
v -3.865077 0.045516 11.454553
v -4.200821 0.045516 11.166774
v -4.776382 0.045516 11.478536
v -5.867549 0.045516 11.610435
v -6.011439 0.045516 12.150023
v -6.622972 0.045516 12.857483
v -7.054643 0.045516 12.377850
v -6.730890 0.045516 12.090070
v -6.790844 0.045516 11.466544
v -6.515055 0.045516 10.878994
v -5.915513 0.045516 10.723112
v -5.843567 0.045516 10.459314
v -2.810861 0.045516 11.065516
v -3.194857 0.045516 11.667321
v -2.810861 -0.094484 11.065516
v -3.194857 -0.094484 11.667321
v -6.335192 -0.094484 10.111578
v -7.054643 -0.094484 12.377850
v -6.730890 -0.094484 12.090070
v -6.790844 -0.094484 11.466544
v -6.515055 -0.094484 10.878994
v -5.915513 -0.094484 10.723112
v -5.843567 -0.094484 10.459314
vn -0.9052 -0.0000 -0.4249
vn -0.5775 -0.0000 0.8164
vn -0.9954 -0.0000 0.0957
vn -0.6644 -0.0000 -0.7474
vn -0.9648 -0.0000 -0.2631
vn -0.0000 1.0000 -0.0000
vn -0.2516 -0.0000 -0.9678
vn 0.8430 -0.0000 0.5379
vt 0.000000 0.000000
s 1
f 33/1/1 21/1/1 22/1/1
s 2
f 29/1/2 24/1/2 5/1/2
s 3
f 32/1/3 20/1/3 21/1/3
s 4
f 31/1/4 19/1/4 20/1/4
s 5
f 35/1/5 23/1/5 24/1/5
s 6
f 21/1/6 20/1/6 16/1/6
s 7
f 34/1/7 22/1/7 23/1/7
s 8
f 28/1/8 25/1/8 26/1/8
s 1
f 33/1/1 32/1/1 21/1/1
s 2
f 29/1/2 35/1/2 24/1/2
s 3
f 32/1/3 31/1/3 20/1/3
s 4
f 31/1/4 30/1/4 19/1/4
s 5
f 35/1/5 34/1/5 23/1/5
s 6
f 18/1/6 17/1/6 20/1/6
f 17/1/6 16/1/6 20/1/6
f 18/1/6 20/1/6 19/1/6
f 16/1/6 15/1/6 23/1/6
f 15/1/6 14/1/6 8/1/6
f 14/1/6 13/1/6 9/1/6
f 13/1/6 26/1/6 12/1/6
f 26/1/6 25/1/6 12/1/6
f 12/1/6 11/1/6 9/1/6
f 11/1/6 10/1/6 9/1/6
f 13/1/6 12/1/6 9/1/6
f 15/1/6 8/1/6 7/1/6
f 8/1/6 14/1/6 9/1/6
f 7/1/6 6/1/6 24/1/6
f 6/1/6 1/1/6 2/1/6
f 3/1/6 4/1/6 24/1/6
f 4/1/6 5/1/6 24/1/6
f 6/1/6 2/1/6 3/1/6
f 23/1/6 15/1/6 24/1/6
f 7/1/6 24/1/6 15/1/6
f 6/1/6 3/1/6 24/1/6
f 23/1/6 22/1/6 16/1/6
f 22/1/6 21/1/6 16/1/6
s 7
f 34/1/7 33/1/7 22/1/7
s 8
f 28/1/8 27/1/8 25/1/8
