# Blender 4.5.1 LTS
# www.blender.org
o province_087
v 3.652595 0.045516 -9.070874
v 3.053053 0.045516 -9.010920
v 2.813236 0.045516 -9.286710
v 2.285639 0.045516 -9.094856
v 3.784494 0.045516 -8.699158
v 3.735198 0.045516 -8.267488
v 4.112577 0.045516 -7.961054
v 4.192183 0.045516 -7.655954
v 3.985856 0.045516 -7.105726
v 3.189520 0.045516 -7.182087
v 2.995013 0.045516 -7.857140
v 2.594347 0.045516 -8.231094
v 2.080682 0.045516 -8.231094
v 1.927031 0.045516 -9.057107
v 4.421601 0.045516 -7.306839
v 3.985856 -0.094484 -7.105726
v 3.189520 -0.094484 -7.182087
v 2.995013 -0.094484 -7.857140
v 2.594347 -0.094484 -8.231094
v 2.080682 -0.094484 -8.231094
v 1.927031 -0.094484 -9.057107
v 4.421601 -0.094484 -7.306839
vn -0.0955 -0.0000 0.9954
vn -0.9831 -0.0000 0.1829
vn -0.9609 -0.0000 0.2769
vn -0.0000 1.0000 -0.0000
vn -0.0000 -0.0000 1.0000
vn -0.6823 -0.0000 0.7311
vn 0.4191 -0.0000 0.9080
vt 0.000000 0.000000
s 1
f 17/1/1 9/1/1 10/1/1
s 2
f 21/1/2 13/1/2 14/1/2
s 3
f 18/1/3 10/1/3 11/1/3
s 4
f 9/1/4 15/1/4 8/1/4
s 5
f 20/1/5 12/1/5 13/1/5
s 6
f 19/1/6 11/1/6 12/1/6
s 7
f 16/1/7 15/1/7 9/1/7
s 1
f 17/1/1 16/1/1 9/1/1
s 2
f 21/1/2 20/1/2 13/1/2
s 3
f 18/1/3 17/1/3 10/1/3
s 4
f 4/1/4 14/1/4 13/1/4
f 4/1/4 13/1/4 12/1/4
f 2/1/4 3/1/4 4/1/4
f 5/1/4 1/1/4 2/1/4
f 8/1/4 7/1/4 10/1/4
f 7/1/4 6/1/4 11/1/4
f 6/1/4 5/1/4 2/1/4
f 2/1/4 4/1/4 12/1/4
f 11/1/4 10/1/4 7/1/4
f 10/1/4 9/1/4 8/1/4
f 2/1/4 12/1/4 11/1/4
f 6/1/4 2/1/4 11/1/4
s 5
f 20/1/5 19/1/5 12/1/5
s 6
f 19/1/6 18/1/6 11/1/6
s 7
f 16/1/7 22/1/7 15/1/7
