# Blender 4.5.1 LTS
# www.blender.org
o province_074
v -12.659558 0.045516 -6.747551
v -12.887383 0.045516 -6.435790
v -12.359787 0.045516 -6.064074
v -12.143951 0.045516 -5.860229
v -11.916125 0.045516 -5.332633
v -11.940107 0.045516 -4.745081
v -10.825281 0.045516 -4.304144
v -11.454800 0.045516 -4.484006
v -9.364731 0.045516 -6.086116
v -9.955946 0.045516 -5.528209
v -10.072523 0.045516 -5.045245
v -10.480543 0.045516 -4.512318
v -10.261371 0.045516 -7.872643
v -9.810327 0.045516 -7.754679
v -9.442552 0.045516 -7.157912
v -9.525822 0.045516 -6.651354
v -10.525058 0.045516 -7.317513
v -11.212033 0.045516 -7.268938
v -11.531235 0.045516 -6.970555
vn -0.0000 1.0000 -0.0000
vt 0.000000 0.000000
s 1
f 5/1/1 8/1/1 12/1/1
f 16/1/1 15/1/1 17/1/1
f 15/1/1 14/1/1 17/1/1
f 14/1/1 13/1/1 17/1/1
f 17/1/1 18/1/1 19/1/1
f 19/1/1 1/1/1 3/1/1
f 1/1/1 2/1/1 3/1/1
f 17/1/1 19/1/1 10/1/1
f 19/1/1 3/1/1 4/1/1
f 19/1/1 4/1/1 5/1/1
f 9/1/1 16/1/1 10/1/1
f 16/1/1 17/1/1 10/1/1
f 12/1/1 11/1/1 5/1/1
f 11/1/1 10/1/1 5/1/1
f 19/1/1 5/1/1 10/1/1
f 5/1/1 6/1/1 8/1/1
f 8/1/1 7/1/1 12/1/1
