# Blender 4.5.1 LTS
# www.blender.org
mtllib province_166.mtl
o province_166
v 2.545989 0.006502 1.850747
v 2.472330 0.006502 1.903849
v 2.391820 0.006502 1.939822
v 2.384968 0.006502 1.975794
v 2.438071 0.006502 2.022045
v 2.424366 0.006502 2.078573
v 2.557868 0.006502 1.824612
v 2.495059 0.006502 1.810338
v 2.433677 0.006502 1.828895
v 2.378005 0.006502 1.818902
v 2.369440 0.006502 1.787498
v 2.279509 0.006502 1.754665
v 2.265234 0.006502 1.723261
v 2.218126 0.006502 1.727543
v 2.192432 0.006502 1.780360
v 2.125340 0.006502 1.760375
v 2.052538 0.006502 1.690428
v 2.056820 0.006502 1.636184
v 1.931202 0.006502 1.606206
v 1.914072 0.006502 1.751810
v 1.828423 0.006502 1.791209
v 1.778746 0.006502 1.907692
v 1.639994 0.006502 1.941951
v 1.646846 0.006502 1.996767
v 1.850692 0.006502 2.051582
v 2.119630 0.006502 2.137231
v 2.278938 0.006502 2.130379
v 2.424366 -0.013498 2.078573
v 1.931202 -0.013498 1.606206
v 1.914072 -0.013498 1.751810
v 1.828423 -0.013498 1.791209
v 1.778746 -0.013498 1.907692
v 1.639994 -0.013498 1.941951
v 1.646846 -0.013498 1.996767
v 1.850692 -0.013498 2.051582
v 2.119630 -0.013498 2.137231
v 2.278938 -0.013498 2.130379
vn -0.0000 1.0000 -0.0000
vn -0.9932 -0.0000 -0.1168
vn -0.4179 -0.0000 -0.9085
vn -0.9198 -0.0000 -0.3923
vn -0.2397 -0.0000 -0.9708
vn -0.9923 -0.0000 0.1240
vn -0.2597 -0.0000 0.9657
vn -0.3035 -0.0000 0.9528
vn 0.0430 -0.0000 0.9991
vn 0.3356 -0.0000 0.9420
vt 0.000000 0.000000
s 0
f 16/1/1 20/1/1 25/1/1
f 19/1/2 30/1/2 20/1/2
f 20/1/3 31/1/3 21/1/3
f 21/1/4 32/1/4 22/1/4
f 22/1/5 33/1/5 23/1/5
f 23/1/6 34/1/6 24/1/6
f 24/1/7 35/1/7 25/1/7
f 25/1/8 36/1/8 26/1/8
f 26/1/9 37/1/9 27/1/9
f 27/1/10 28/1/10 6/1/10
f 2/1/1 1/1/1 8/1/1
f 1/1/1 7/1/1 8/1/1
f 8/1/1 9/1/1 2/1/1
f 10/1/1 11/1/1 12/1/1
f 2/1/1 9/1/1 3/1/1
f 9/1/1 10/1/1 3/1/1
f 12/1/1 13/1/1 14/1/1
f 3/1/1 10/1/1 15/1/1
f 10/1/1 12/1/1 15/1/1
f 6/1/1 5/1/1 4/1/1
f 4/1/1 3/1/1 15/1/1
f 12/1/1 14/1/1 15/1/1
f 27/1/1 6/1/1 4/1/1
f 25/1/1 26/1/1 16/1/1
f 26/1/1 27/1/1 15/1/1
f 16/1/1 26/1/1 15/1/1
f 23/1/1 24/1/1 22/1/1
f 24/1/1 25/1/1 22/1/1
f 20/1/1 21/1/1 22/1/1
f 27/1/1 4/1/1 15/1/1
f 17/1/1 18/1/1 19/1/1
f 16/1/1 17/1/1 20/1/1
f 17/1/1 19/1/1 20/1/1
f 20/1/1 22/1/1 25/1/1
f 19/1/2 29/1/2 30/1/2
f 20/1/3 30/1/3 31/1/3
f 21/1/4 31/1/4 32/1/4
f 22/1/5 32/1/5 33/1/5
f 23/1/6 33/1/6 34/1/6
f 24/1/7 34/1/7 35/1/7
f 25/1/8 35/1/8 36/1/8
f 26/1/9 36/1/9 37/1/9
f 27/1/10 37/1/10 28/1/10
