# Blender 4.5.1 LTS
# www.blender.org
mtllib province_175.mtl
o province_175
v 1.048843 0.006502 1.014811
v 1.028287 0.006502 1.092923
v 1.029315 0.006502 0.985005
v 1.146483 0.006502 0.927449
v 1.224595 0.006502 0.954172
v 1.306818 0.006502 0.900727
v 1.366429 0.006502 0.824670
v 1.522653 0.006502 0.892504
v 1.689154 0.006502 1.067228
v 1.670654 0.006502 1.001450
v 1.574042 0.006502 0.931560
v 1.532931 0.006502 1.239897
v 1.668599 0.006502 1.194674
v 1.413707 0.006502 1.241952
v 1.349985 0.006502 1.180285
v 1.204039 0.006502 1.143285
v 1.107427 0.006502 1.133007
v 1.028287 -0.013498 1.092923
v 1.689154 -0.013498 1.067228
v 1.532931 -0.013498 1.239897
v 1.668599 -0.013498 1.194674
v 1.413707 -0.013498 1.241952
v 1.349985 -0.013498 1.180285
v 1.204039 -0.013498 1.143285
v 1.107427 -0.013498 1.133007
vn -0.0000 1.0000 -0.0000
vn 0.9872 -0.0000 0.1592
vn 0.3162 -0.0000 0.9487
vn 0.0172 -0.0000 0.9999
vn -0.6954 -0.0000 0.7186
vn -0.2457 -0.0000 0.9693
vn -0.1058 -0.0000 0.9944
vn -0.4518 -0.0000 0.8921
vt 0.000000 0.000000
s 0
f 5/1/1 15/1/1 6/1/1
f 13/1/2 19/1/2 9/1/2
f 12/1/3 21/1/3 13/1/3
f 14/1/4 20/1/4 12/1/4
f 15/1/5 22/1/5 14/1/5
f 16/1/6 23/1/6 15/1/6
f 17/1/7 24/1/7 16/1/7
f 2/1/8 25/1/8 17/1/8
f 1/1/1 2/1/1 17/1/1
f 1/1/1 17/1/1 5/1/1
f 17/1/1 16/1/1 5/1/1
f 4/1/1 3/1/1 1/1/1
f 5/1/1 4/1/1 1/1/1
f 16/1/1 15/1/1 5/1/1
f 15/1/1 14/1/1 12/1/1
f 12/1/1 13/1/1 9/1/1
f 9/1/1 10/1/1 11/1/1
f 11/1/1 8/1/1 15/1/1
f 8/1/1 7/1/1 6/1/1
f 8/1/1 6/1/1 15/1/1
f 12/1/1 9/1/1 11/1/1
f 15/1/1 12/1/1 11/1/1
f 13/1/2 21/1/2 19/1/2
f 12/1/3 20/1/3 21/1/3
f 14/1/4 22/1/4 20/1/4
f 15/1/5 23/1/5 22/1/5
f 16/1/6 24/1/6 23/1/6
f 17/1/7 25/1/7 24/1/7
f 2/1/8 18/1/8 25/1/8
