# Blender 4.5.1 LTS
# www.blender.org
o province_143
v 23.127230 0.045516 -4.839431
v 23.562353 0.045516 -5.108793
v 24.204681 0.045516 -4.943032
v 24.598366 0.045516 -4.977853
v 25.093010 0.045516 -4.925253
v 25.471970 0.045516 -5.020957
v 23.140680 0.045516 -6.247316
v 23.060740 0.045516 -5.927560
v 22.880878 0.045516 -5.817644
v 22.870884 0.045516 -5.517872
v 23.210627 0.045516 -5.208108
v 23.512396 0.045516 -6.199353
v 24.075966 0.045516 -6.247316
v 24.423702 0.045516 -6.487134
v 24.795420 0.045516 -6.499125
v 25.059219 0.045516 -6.738942
v 25.368982 0.045516 -6.529102
v 25.339005 0.045516 -6.299277
v 25.139156 0.045516 -6.099429
v 25.119171 0.045516 -5.809649
v 25.518867 0.045516 -5.479900
v 25.668753 0.045516 -5.260068
vn -0.0000 1.0000 -0.0000
vt 0.000000 0.000000
s 1
f 15/1/1 18/1/1 16/1/1
f 2/1/1 3/1/1 13/1/1
f 3/1/1 4/1/1 13/1/1
f 4/1/1 5/1/1 20/1/1
f 5/1/1 6/1/1 21/1/1
f 20/1/1 5/1/1 21/1/1
f 6/1/1 22/1/1 21/1/1
f 11/1/1 1/1/1 2/1/1
f 9/1/1 10/1/1 8/1/1
f 10/1/1 11/1/1 8/1/1
f 12/1/1 7/1/1 8/1/1
f 11/1/1 2/1/1 8/1/1
f 4/1/1 20/1/1 13/1/1
f 12/1/1 8/1/1 2/1/1
f 15/1/1 14/1/1 19/1/1
f 14/1/1 13/1/1 20/1/1
f 19/1/1 14/1/1 20/1/1
f 13/1/1 12/1/1 2/1/1
f 19/1/1 18/1/1 15/1/1
f 18/1/1 17/1/1 16/1/1
