# Blender 4.5.1 LTS
# www.blender.org
mtllib province_166.mtl
o province_166
v 0.288441 0.001999 0.271384
v 0.281075 0.001999 0.276695
v 0.273024 0.001999 0.280292
v 0.272339 0.001999 0.283889
v 0.277649 0.001999 0.288514
v 0.276279 0.001999 0.294167
v 0.289629 0.001999 0.268771
v 0.283348 0.001999 0.267344
v 0.277210 0.001999 0.269199
v 0.271643 0.001999 0.268200
v 0.270786 0.001999 0.265060
v 0.261793 0.001999 0.261776
v 0.260365 0.001999 0.258636
v 0.255655 0.001999 0.259064
v 0.253085 0.001999 0.264346
v 0.246376 0.001999 0.262347
v 0.239096 0.001999 0.255353
v 0.239524 0.001999 0.249928
v 0.226962 0.001999 0.246930
v 0.225249 0.001999 0.261491
v 0.216684 0.001999 0.265431
v 0.211717 0.001999 0.277079
v 0.197842 0.001999 0.280505
v 0.198527 0.001999 0.285986
v 0.218911 0.001999 0.291468
v 0.245805 0.001999 0.300033
v 0.261736 0.001999 0.299348
v 0.276279 -0.000001 0.294167
v 0.226962 -0.000001 0.246930
v 0.225249 -0.000001 0.261491
v 0.216684 -0.000001 0.265431
v 0.211717 -0.000001 0.277079
v 0.197842 -0.000001 0.280505
v 0.198527 -0.000001 0.285986
v 0.218911 -0.000001 0.291468
v 0.245805 -0.000001 0.300033
v 0.261736 -0.000001 0.299348
vn -0.0000 1.0000 -0.0000
vn -0.9932 -0.0000 -0.1168
vn -0.4179 -0.0000 -0.9085
vn -0.9198 -0.0000 -0.3923
vn -0.2397 -0.0000 -0.9708
vn -0.9923 -0.0000 0.1240
vn -0.2597 -0.0000 0.9657
vn -0.3035 -0.0000 0.9528
vn 0.0430 -0.0000 0.9991
vn 0.3356 -0.0000 0.9420
vt 0.000000 0.000000
s 0
f 1/1/1 7/1/1 8/1/1 9/1/1 10/1/1 11/1/1 12/1/1 13/1/1 14/1/1 15/1/1 16/1/1 17/1/1 18/1/1 19/1/1 20/1/1 21/1/1 22/1/1 23/1/1 24/1/1 25/1/1 26/1/1 27/1/1 6/1/1 5/1/1 4/1/1 3/1/1 2/1/1
f 20/1/2 19/1/2 29/1/2 30/1/2
f 21/1/3 20/1/3 30/1/3 31/1/3
f 22/1/4 21/1/4 31/1/4 32/1/4
f 23/1/5 22/1/5 32/1/5 33/1/5
f 24/1/6 23/1/6 33/1/6 34/1/6
f 25/1/7 24/1/7 34/1/7 35/1/7
f 26/1/8 25/1/8 35/1/8 36/1/8
f 27/1/9 26/1/9 36/1/9 37/1/9
f 6/1/10 27/1/10 37/1/10 28/1/10
