# Blender 4.5.1 LTS
# www.blender.org
o province_178
v 29.652437 0.045516 19.497385
v 29.812317 0.045516 20.056961
v 29.452591 0.045516 20.306772
v 29.462584 0.045516 20.636520
v 30.152058 0.045516 21.196096
v 30.271969 0.045516 21.605785
v 29.972195 0.045516 21.885572
v 30.471815 0.045516 22.345222
v 28.889820 0.045516 19.583719
v 28.343033 0.045516 20.044168
v 27.983305 0.045516 19.813946
v 26.889738 0.045516 19.756386
v 26.544399 0.045516 20.087336
v 26.688292 0.045516 20.648510
v 26.486845 0.045516 21.008234
v 26.803404 0.045516 21.310404
v 26.558788 0.045516 21.540630
v 24.016718 0.045516 21.132940
v 24.256535 0.045516 21.684521
v 23.812872 0.045516 22.260086
v 23.674974 0.045516 22.761703
v 24.040699 0.045516 23.627047
v 24.532326 0.045516 23.639038
v 25.131870 0.045516 24.058720
v 26.402905 0.045516 23.782928
v 26.918512 0.045516 23.351255
v 28.201536 0.045516 23.782928
v 29.568501 0.045516 23.567093
v 29.832298 0.045516 23.183384
v 30.216005 0.045516 22.907593
v 29.652437 -0.094484 19.497385
v 28.889820 -0.094484 19.583719
v 28.343033 -0.094484 20.044168
v 27.983305 -0.094484 19.813946
v 26.889738 -0.094484 19.756386
v 26.544399 -0.094484 20.087336
v 26.688292 -0.094484 20.648510
v 26.486845 -0.094484 21.008234
v 26.803404 -0.094484 21.310404
v 26.558788 -0.094484 21.540630
v 24.016718 -0.094484 21.132940
vn -0.6854 -0.0000 -0.7282
vn -0.1125 -0.0000 -0.9937
vn -0.8725 -0.0000 -0.4886
vn 0.0526 -0.0000 -0.9986
vn -0.6919 -0.0000 -0.7220
vn -0.6441 -0.0000 -0.7649
vn -0.0000 1.0000 -0.0000
vn 0.1584 -0.0000 -0.9874
vn 0.5391 -0.0000 -0.8423
vn 0.5390 -0.0000 -0.8423
vn -0.6905 -0.0000 0.7234
vn -0.9687 -0.0000 0.2484
vt 0.000000 0.000000
s 1
f 39/1/1 17/1/1 16/1/1
s 2
f 31/1/2 9/1/2 1/1/2
s 3
f 37/1/3 15/1/3 14/1/3
s 4
f 34/1/4 12/1/4 11/1/4
s 5
f 35/1/5 13/1/5 12/1/5
s 6
f 32/1/6 10/1/6 9/1/6
s 7
f 4/1/7 3/1/7 10/1/7
s 8
f 40/1/8 18/1/8 17/1/8
s 9
f 33/1/9 11/1/10 10/1/9
s 10
f 38/1/11 16/1/11 15/1/11
s 11
f 36/1/12 14/1/12 13/1/12
s 1
f 39/1/1 40/1/1 17/1/1
s 2
f 31/1/2 32/1/2 9/1/2
s 3
f 37/1/3 38/1/3 15/1/3
s 4
f 34/1/4 35/1/4 12/1/4
s 5
f 35/1/5 36/1/5 13/1/5
s 6
f 32/1/6 33/1/6 10/1/6
s 7
f 26/1/7 27/1/7 16/1/7
f 27/1/7 28/1/7 29/1/7
f 29/1/7 30/1/7 7/1/7
f 30/1/7 8/1/7 7/1/7
f 27/1/7 29/1/7 7/1/7
f 24/1/7 25/1/7 23/1/7
f 25/1/7 26/1/7 17/1/7
f 23/1/7 25/1/7 17/1/7
f 21/1/7 22/1/7 23/1/7
f 27/1/7 7/1/7 16/1/7
f 7/1/7 6/1/7 5/1/7
f 21/1/7 23/1/7 20/1/7
f 19/1/7 20/1/7 23/1/7
f 17/1/7 18/1/7 19/1/7
f 14/1/7 15/1/7 16/1/7
f 17/1/7 19/1/7 23/1/7
f 7/1/7 5/1/7 4/1/7
f 7/1/7 4/1/7 16/1/7
f 16/1/7 17/1/7 26/1/7
f 12/1/7 13/1/7 14/1/7
f 12/1/7 14/1/7 11/1/7
f 14/1/7 16/1/7 10/1/7
f 10/1/7 11/1/7 14/1/7
f 1/1/7 9/1/7 3/1/7
f 9/1/7 10/1/7 3/1/7
f 3/1/7 2/1/7 1/1/7
f 16/1/7 4/1/7 10/1/7
s 8
f 40/1/8 41/1/8 18/1/8
s 9
f 33/1/9 34/1/10 11/1/10
s 10
f 38/1/11 39/1/11 16/1/11
s 11
f 36/1/12 37/1/12 14/1/12
