# Blender 4.5.1 LTS
# www.blender.org
mtllib province_073.mtl
o province_073
v -1.820499 0.006502 -1.005047
v -1.808509 0.006502 -0.963936
v -1.943720 0.006502 -1.201985
v -1.776189 0.006502 -1.187116
v -1.657233 0.006502 -1.205950
v -1.560084 0.006502 -1.265429
v -1.519441 0.006502 -1.206942
v -1.475823 0.006502 -1.191081
v -1.465910 0.006502 -1.124663
v -1.503580 0.006502 -1.045359
v -1.601719 0.006502 -1.038420
v -1.647319 0.006502 -0.995794
v -1.723650 0.006502 -0.982907
v -1.991918 0.006502 -1.173394
v -1.947242 0.006502 -1.109447
v -1.938565 0.006502 -1.044914
v -1.947242 -0.013498 -1.109447
v -1.938565 -0.013498 -1.044914
v -1.943720 -0.013498 -1.201985
v -1.776189 -0.013498 -1.187116
v -1.657233 -0.013498 -1.205950
v -1.560084 -0.013498 -1.265429
v -1.991918 -0.013498 -1.173394
vn -0.0000 1.0000 -0.0000
vn -0.8198 -0.0000 0.5727
vn -0.9911 -0.0000 0.1333
vn 0.0884 -0.0000 -0.9961
vn -0.1564 -0.0000 -0.9877
vn -0.5222 -0.0000 -0.8529
vn -0.5102 -0.0000 -0.8601
vt 0.000000 0.000000
s 0
f 9/1/1 7/1/1 11/1/1
f 14/1/2 17/1/2 15/1/2
f 15/1/3 18/1/3 16/1/3
f 4/1/4 19/1/4 3/1/4
f 5/1/5 20/1/5 4/1/5
f 6/1/6 21/1/6 5/1/6
f 3/1/7 23/1/7 14/1/7
f 4/1/1 3/1/1 15/1/1
f 3/1/1 14/1/1 15/1/1
f 15/1/1 16/1/1 1/1/1
f 7/1/1 6/1/1 5/1/1
f 5/1/1 4/1/1 12/1/1
f 4/1/1 15/1/1 1/1/1
f 1/1/1 2/1/1 13/1/1
f 4/1/1 1/1/1 13/1/1
f 8/1/1 7/1/1 9/1/1
f 7/1/1 5/1/1 11/1/1
f 10/1/1 9/1/1 11/1/1
f 13/1/1 12/1/1 4/1/1
f 12/1/1 11/1/1 5/1/1
f 14/1/2 23/1/2 17/1/2
f 15/1/3 17/1/3 18/1/3
f 4/1/4 20/1/4 19/1/4
f 5/1/5 21/1/5 20/1/5
f 6/1/6 22/1/6 21/1/6
f 3/1/7 19/1/7 23/1/7
