# Blender 4.5.1 LTS
# www.blender.org
o province_161
v 29.601768 0.045516 6.319474
v 29.062180 0.045516 5.815856
v 29.074169 0.045516 5.228302
v 28.618519 0.045516 4.796630
v 30.249277 0.045516 5.875811
v 30.501085 0.045516 5.444139
v 31.040674 0.045516 5.348212
v 31.556282 0.045516 5.707939
v 32.467590 0.045516 5.444139
v 32.719398 0.045516 5.048440
v 28.826694 0.045516 4.546820
v 28.604641 0.045516 4.283131
v 28.188290 0.045516 4.310887
v 27.869089 0.045516 3.984746
v 28.000931 0.045516 3.381038
v 28.722607 0.045516 3.325524
v 30.686394 0.045516 2.416491
v 32.754272 0.045516 2.485883
v 33.122047 0.045516 3.145105
v 33.052658 0.045516 3.568395
v 33.364922 0.045516 3.922293
v 32.740395 0.045516 4.442731
v 28.618519 -0.094484 4.796630
v 28.826694 -0.094484 4.546820
v 28.604641 -0.094484 4.283131
v 28.188290 -0.094484 4.310887
v 27.869089 -0.094484 3.984746
v 28.000931 -0.094484 3.381038
v 28.722607 -0.094484 3.325524
v 30.686394 -0.094484 2.416491
v 32.754272 -0.094484 2.485883
vn -0.0767 -0.0000 -0.9971
vn -0.0000 1.0000 -0.0000
vn 0.0335 -0.0000 -0.9994
vn -0.7649 -0.0000 0.6441
vn -0.9770 -0.0000 -0.2134
vn -0.7147 -0.0000 0.6995
vn -0.7682 -0.0000 -0.6402
vn -0.4201 -0.0000 -0.9075
vn 0.0665 -0.0000 0.9978
vt 0.000000 0.000000
s 1
f 29/1/1 15/1/1 16/1/1
s 2
f 11/1/2 3/1/2 6/1/2
s 3
f 31/1/3 17/1/3 18/1/3
s 4
f 25/1/4 11/1/4 12/1/4
s 5
f 28/1/5 14/1/5 15/1/5
s 6
f 27/1/6 13/1/6 14/1/6
s 7
f 24/1/7 4/1/7 11/1/7
s 8
f 30/1/8 16/1/8 17/1/8
s 9
f 26/1/9 12/1/9 13/1/9
s 1
f 29/1/1 28/1/1 15/1/1
s 2
f 20/1/2 19/1/2 18/1/2
f 18/1/2 17/1/2 20/1/2
f 17/1/2 16/1/2 11/1/2
f 20/1/2 17/1/2 22/1/2
f 16/1/2 15/1/2 12/1/2
f 15/1/2 14/1/2 12/1/2
f 14/1/2 13/1/2 12/1/2
f 11/1/2 4/1/2 3/1/2
f 16/1/2 12/1/2 11/1/2
f 22/1/2 17/1/2 7/1/2
f 22/1/2 21/1/2 20/1/2
f 9/1/2 10/1/2 7/1/2
f 10/1/2 22/1/2 7/1/2
f 7/1/2 8/1/2 9/1/2
f 1/1/2 5/1/2 2/1/2
f 5/1/2 6/1/2 3/1/2
f 2/1/2 5/1/2 3/1/2
f 6/1/2 7/1/2 17/1/2
f 6/1/2 17/1/2 11/1/2
s 3
f 31/1/3 30/1/3 17/1/3
s 4
f 25/1/4 24/1/4 11/1/4
s 5
f 28/1/5 27/1/5 14/1/5
s 6
f 27/1/6 26/1/6 13/1/6
s 7
f 24/1/7 23/1/7 4/1/7
s 8
f 30/1/8 29/1/8 16/1/8
s 9
f 26/1/9 25/1/9 12/1/9
