# Blender 4.5.1 LTS
# www.blender.org
o province_026
v 7.950945 0.045516 13.419119
v 8.526509 0.045516 13.375952
v 8.972570 0.045516 13.591788
v 9.073295 0.045516 14.555856
v 8.267506 0.045516 15.160198
v 7.763887 0.045516 15.145811
v 7.634385 0.045516 15.447981
v 8.080447 0.045516 15.850875
v 8.138003 0.045516 16.757387
v 7.188324 0.045516 16.958836
v 6.512036 0.045516 16.642275
v 6.253033 0.045516 16.901278
v 4.799736 0.045516 16.944445
v 4.914849 0.045516 16.081099
v 5.490412 0.045516 15.735763
v 5.303354 0.045516 15.117031
v 5.490411 0.045516 14.742916
v 5.936473 0.045516 14.512691
v 6.094753 0.045516 13.721291
v 7.116378 0.045516 13.203284
v 7.950945 -0.094484 13.419119
v 8.526509 -0.094484 13.375952
v 8.972570 -0.094484 13.591788
v 9.073295 -0.094484 14.555856
v 8.267506 -0.094484 15.160198
v 7.763887 -0.094484 15.145811
v 7.634385 -0.094484 15.447981
v 8.080447 -0.094484 15.850875
v 8.138003 -0.094484 16.757387
v 7.188324 -0.094484 16.958836
v 6.512036 -0.094484 16.642275
v 6.253033 -0.094484 16.901278
v 4.799736 -0.094484 16.944445
v 4.914849 -0.094484 16.081099
v 5.490412 -0.094484 15.735763
v 5.303354 -0.094484 15.117031
v 5.490411 -0.094484 14.742916
v 5.936473 -0.094484 14.512691
v 6.094753 -0.094484 13.721291
v 7.116378 -0.094484 13.203284
vn 0.9191 -0.0000 0.3939
vn 0.6000 -0.0000 0.8000
vn -0.5145 -0.0000 -0.8575
vn 0.0297 -0.0000 0.9996
vn -0.8944 -0.0000 -0.4472
vn -0.0748 -0.0000 -0.9972
vn -0.4586 -0.0000 -0.8886
vn -0.9912 -0.0000 -0.1322
vn 0.2504 -0.0000 -0.9681
vn 0.9946 -0.0000 -0.1039
vn 0.7071 -0.0000 0.7071
vn -0.4522 -0.0000 -0.8919
vn -0.0000 -1.0000 -0.0000
vn -0.9572 -0.0000 0.2894
vn -0.0286 -0.0000 0.9996
vn 0.2075 -0.0000 0.9782
vn 0.6703 -0.0000 -0.7421
vn -0.0000 1.0000 -0.0000
vn -0.4239 -0.0000 0.9057
vn -0.9806 -0.0000 -0.1961
vn 0.4356 -0.0000 -0.9002
vn 0.9980 -0.0000 -0.0634
vt 0.000000 0.000000
s 1
f 26/1/1 7/1/1 27/1/1
s 2
f 24/1/2 5/1/2 25/1/2
s 3
f 34/1/3 15/1/3 35/1/3
s 4
f 32/1/4 13/1/4 33/1/4
s 5
f 36/1/5 17/1/5 37/1/5
s 6
f 21/1/6 2/1/6 22/1/6
s 7
f 37/1/7 18/1/7 38/1/7
s 8
f 33/1/8 14/1/8 34/1/8
s 9
f 40/1/9 1/1/9 21/1/9
s 10
f 23/1/10 4/1/10 24/1/10
s 11
f 31/1/11 12/1/11 32/1/11
s 12
f 39/1/12 20/1/12 40/1/12
s 13
f 21/1/13 22/1/13 24/1/13
s 14
f 35/1/14 16/1/14 36/1/14
s 15
f 25/1/15 6/1/15 26/1/15
s 16
f 29/1/16 10/1/16 30/1/16
s 17
f 27/1/17 8/1/17 28/1/17
s 18
f 15/1/18 11/1/18 7/1/18
s 19
f 30/1/19 11/1/19 31/1/19
s 20
f 38/1/20 19/1/20 39/1/20
s 21
f 22/1/21 3/1/21 23/1/21
s 22
f 28/1/22 9/1/22 29/1/22
s 1
f 26/1/1 6/1/1 7/1/1
s 2
f 24/1/2 4/1/2 5/1/2
s 3
f 34/1/3 14/1/3 15/1/3
s 4
f 32/1/4 12/1/4 13/1/4
s 5
f 36/1/5 16/1/5 17/1/5
s 6
f 21/1/6 1/1/6 2/1/6
s 7
f 37/1/7 17/1/7 18/1/7
s 8
f 33/1/8 13/1/8 14/1/8
s 9
f 40/1/9 20/1/9 1/1/9
s 10
f 23/1/10 3/1/10 4/1/10
s 11
f 31/1/11 11/1/11 12/1/11
s 12
f 39/1/12 19/1/12 20/1/12
s 13
f 31/1/13 32/1/13 35/1/13
f 32/1/13 33/1/13 34/1/13
f 35/1/13 32/1/13 34/1/13
f 35/1/13 36/1/13 37/1/13
f 38/1/13 39/1/13 26/1/13
f 39/1/13 40/1/13 26/1/13
f 35/1/13 37/1/13 38/1/13
f 29/1/13 30/1/13 28/1/13
f 30/1/13 31/1/13 27/1/13
f 27/1/13 28/1/13 30/1/13
f 24/1/13 25/1/13 21/1/13
f 25/1/13 26/1/13 21/1/13
f 23/1/13 24/1/13 22/1/13
f 26/1/13 27/1/13 38/1/13
f 27/1/13 31/1/13 35/1/13
f 38/1/13 27/1/13 35/1/13
f 40/1/13 21/1/13 26/1/13
s 14
f 35/1/14 15/1/14 16/1/14
s 15
f 25/1/15 5/1/15 6/1/15
s 16
f 29/1/16 9/1/16 10/1/16
s 17
f 27/1/17 7/1/17 8/1/17
s 18
f 6/1/18 5/1/18 1/1/18
f 5/1/18 4/1/18 1/1/18
f 4/1/18 3/1/18 2/1/18
f 1/1/18 20/1/18 6/1/18
f 20/1/18 19/1/18 6/1/18
f 4/1/18 2/1/18 1/1/18
f 19/1/18 18/1/18 6/1/18
f 18/1/18 17/1/18 15/1/18
f 17/1/18 16/1/18 15/1/18
f 15/1/18 14/1/18 12/1/18
f 14/1/18 13/1/18 12/1/18
f 9/1/18 8/1/18 10/1/18
f 8/1/18 7/1/18 10/1/18
f 7/1/18 6/1/18 18/1/18
f 7/1/18 18/1/18 15/1/18
f 15/1/18 12/1/18 11/1/18
f 11/1/18 10/1/18 7/1/18
s 19
f 30/1/19 10/1/19 11/1/19
s 20
f 38/1/20 18/1/20 19/1/20
s 21
f 22/1/21 2/1/21 3/1/21
s 22
f 28/1/22 8/1/22 9/1/22
