# Blender 4.5.1 LTS
# www.blender.org
mtllib province_012.mtl
o province_012
v 0.056045 0.001999 -0.079761
v 0.064781 0.001999 -0.077876
v 0.073346 0.001999 -0.078904
v 0.080541 0.001999 -0.072909
v 0.090647 0.001999 -0.078904
v 0.095786 0.001999 -0.071881
v 0.095957 0.001999 -0.066399
v 0.104008 0.001999 -0.063145
v 0.099897 0.001999 -0.057149
v 0.093559 0.001999 -0.055608
v 0.092017 0.001999 -0.048756
v 0.086022 0.001999 -0.043274
v 0.077457 0.001999 -0.042418
v 0.074031 0.001999 -0.046358
v 0.066494 0.001999 -0.043617
v 0.061371 0.001999 -0.043077
v 0.053994 0.001999 -0.043990
v 0.050532 0.001999 -0.052725
v 0.052784 0.001999 -0.056103
v 0.052784 0.001999 -0.061755
v 0.048160 0.001999 -0.066379
v 0.047627 0.001999 -0.072720
v 0.061371 -0.000001 -0.043077
v 0.053994 -0.000001 -0.043990
v 0.050532 -0.000001 -0.052725
v 0.052784 -0.000001 -0.056103
v 0.052784 -0.000001 -0.061755
v 0.048160 -0.000001 -0.066379
v 0.047627 -0.000001 -0.072720
vn -0.9965 -0.0000 0.0838
vn -0.7071 -0.0000 0.7071
vn -1.0000 -0.0000 -0.0000
vn -0.8320 -0.0000 -0.5547
vn -0.9297 -0.0000 0.3684
vn -0.1228 -0.0000 0.9924
vn -0.0000 1.0000 -0.0000
vt 0.000000 0.000000
s 0
f 21/1/1 22/1/1 29/1/1 28/1/1
f 20/1/2 21/1/2 28/1/2 27/1/2
f 19/1/3 20/1/3 27/1/3 26/1/3
f 18/1/4 19/1/4 26/1/4 25/1/4
f 17/1/5 18/1/5 25/1/5 24/1/5
f 16/1/6 17/1/6 24/1/6 23/1/6
f 12/1/7 11/1/7 10/1/7 9/1/7 8/1/7 7/1/7 6/1/7 5/1/7 4/1/7 3/1/7 2/1/7 1/1/7 22/1/7 21/1/7 20/1/7 19/1/7 18/1/7 17/1/7 16/1/7 15/1/7 14/1/7 13/1/7
