# Blender 4.5.1 LTS
# www.blender.org
o province_001
v 0.076555 0.045516 17.437027
v -0.372383 0.045516 17.730562
v -0.406916 0.045516 18.283100
v -1.252990 0.045516 18.835640
v -1.960930 0.045516 18.939240
v -2.358067 0.045516 18.593903
v -3.325009 0.045516 18.593903
v -3.532210 0.045516 17.851429
v -3.566744 0.045516 17.039890
v -1.477459 0.045516 17.005356
v -3.199009 0.045516 16.598608
v -2.194547 0.045516 16.265043
v -1.565660 0.045516 16.677748
v -3.199009 -0.094484 16.598608
v -2.194547 -0.094484 16.265043
v 0.076555 -0.094484 17.437027
v -1.477459 -0.094484 17.005356
v -1.565660 -0.094484 16.677748
vn 0.2676 -0.0000 -0.9635
vn 0.9656 -0.0000 -0.2600
vn -0.3152 -0.0000 -0.9490
vn -0.0000 1.0000 -0.0000
vn 0.5487 -0.0000 -0.8360
vt 0.000000 0.000000
s 1
f 16/1/1 10/1/1 1/1/1
s 2
f 17/1/2 13/1/2 10/1/2
s 3
f 15/1/3 11/1/3 12/1/3
s 4
f 10/1/4 11/1/4 8/1/4
s 5
f 18/1/5 12/1/5 13/1/5
s 1
f 16/1/1 17/1/1 10/1/1
s 2
f 17/1/2 18/1/2 13/1/2
s 3
f 15/1/3 14/1/3 11/1/3
s 4
f 5/1/4 4/1/4 6/1/4
f 4/1/4 3/1/4 2/1/4
f 2/1/4 1/1/4 10/1/4
f 4/1/4 2/1/4 10/1/4
f 6/1/4 4/1/4 10/1/4
f 8/1/4 7/1/4 6/1/4
f 10/1/4 13/1/4 12/1/4
f 9/1/4 8/1/4 11/1/4
f 8/1/4 6/1/4 10/1/4
f 12/1/4 11/1/4 10/1/4
s 5
f 18/1/5 15/1/5 12/1/5
