# Blender 4.5.1 LTS
# www.blender.org
o province_032
v 2.049330 0.045516 -0.961974
v 1.466442 0.045516 -0.802373
v 1.348476 0.045516 -0.261120
v 0.939067 0.045516 -0.052946
v 0.814162 0.045516 0.405038
v 0.869675 0.045516 0.911596
v 0.550475 0.045516 1.487545
v 1.258267 0.045516 1.397336
v 2.063208 0.045516 1.015683
v 2.375470 0.045516 0.960170
v 2.902845 0.045516 0.807509
v 3.957595 0.045516 1.098953
v 4.311492 0.045516 0.863022
v 4.235161 0.045516 0.342586
v 3.596760 0.045516 0.120533
v 3.555125 0.045516 -0.212545
v 2.632219 0.045516 -0.524807
vn -0.0000 1.0000 -0.0000
vt 0.000000 0.000000
s 1
f 11/1/1 15/1/1 17/1/1
f 17/1/1 1/1/1 3/1/1
f 1/1/1 2/1/1 3/1/1
f 3/1/1 4/1/1 5/1/1
f 15/1/1 16/1/1 17/1/1
f 13/1/1 14/1/1 12/1/1
f 14/1/1 15/1/1 12/1/1
f 11/1/1 12/1/1 15/1/1
f 9/1/1 10/1/1 3/1/1
f 10/1/1 11/1/1 17/1/1
f 7/1/1 8/1/1 6/1/1
f 8/1/1 9/1/1 6/1/1
f 3/1/1 5/1/1 9/1/1
f 5/1/1 6/1/1 9/1/1
f 10/1/1 17/1/1 3/1/1
