# Blender 4.5.1 LTS
# www.blender.org
mtllib province_133.mtl
o province_133
v 2.653155 0.006502 -0.289270
v 2.630954 0.006502 -0.370670
v 2.651177 0.006502 -0.390893
v 2.682106 0.006502 -0.434907
v 2.736826 0.006502 -0.440855
v 2.778461 0.006502 -0.472973
v 2.814148 0.006502 -0.453940
v 2.823664 0.006502 -0.417063
v 2.849835 0.006502 -0.362343
v 2.923588 0.006502 -0.332604
v 2.979498 0.006502 -0.317140
v 2.985446 0.006502 -0.292159
v 3.023512 0.006502 -0.254092
v 3.018754 0.006502 -0.199372
v 2.986636 0.006502 -0.168444
v 2.922399 0.006502 -0.201751
v 2.849835 0.006502 -0.213647
v 2.811769 0.006502 -0.238628
v 2.717793 0.006502 -0.267178
v 2.653155 -0.013498 -0.289270
v 2.986636 -0.013498 -0.168444
v 2.922399 -0.013498 -0.201751
v 2.849835 -0.013498 -0.213647
v 2.811769 -0.013498 -0.238628
v 2.717793 -0.013498 -0.267178
vn -0.0000 1.0000 -0.0000
vn -0.4603 -0.0000 0.8878
vn -0.1618 -0.0000 0.9868
vn -0.5487 -0.0000 0.8360
vn -0.2907 -0.0000 0.9568
vn -0.3234 -0.0000 0.9463
vt 0.000000 0.000000
s 0
f 9/1/1 8/1/1 5/1/1
f 16/1/2 21/1/2 15/1/2
f 17/1/3 22/1/3 16/1/3
f 18/1/4 23/1/4 17/1/4
f 19/1/5 24/1/5 18/1/5
f 1/1/6 25/1/6 19/1/6
f 2/1/1 1/1/1 3/1/1
f 1/1/1 19/1/1 3/1/1
f 18/1/1 17/1/1 10/1/1
f 17/1/1 16/1/1 10/1/1
f 19/1/1 18/1/1 9/1/1
f 3/1/1 19/1/1 5/1/1
f 5/1/1 4/1/1 3/1/1
f 5/1/1 19/1/1 9/1/1
f 16/1/1 15/1/1 14/1/1
f 7/1/1 6/1/1 5/1/1
f 9/1/1 18/1/1 10/1/1
f 16/1/1 14/1/1 13/1/1
f 12/1/1 11/1/1 10/1/1
f 16/1/1 13/1/1 12/1/1
f 8/1/1 7/1/1 5/1/1
f 12/1/1 10/1/1 16/1/1
f 16/1/2 22/1/2 21/1/2
f 17/1/3 23/1/3 22/1/3
f 18/1/4 24/1/4 23/1/4
f 19/1/5 25/1/5 24/1/5
f 1/1/6 20/1/6 25/1/6
