# Blender 4.5.1 LTS
# www.blender.org
o province_182
v 46.692020 0.045516 1.799044
v 47.434498 0.045516 1.868111
v 48.142441 0.045516 1.091101
v 48.694984 0.045516 1.194702
v 46.327980 0.045516 4.464384
v 45.524590 0.045516 4.368457
v 45.104912 0.045516 4.020720
v 46.797626 0.045516 4.074679
v 47.107391 0.045516 4.194589
v 47.607010 0.045516 4.064688
v 48.056671 0.045516 3.215332
v 48.816097 0.045516 2.925551
v 49.255764 0.045516 2.575816
v 48.926014 0.045516 1.906324
v 48.995956 0.045516 1.766430
v 46.280724 0.045516 1.534639
v 44.646347 0.045516 3.881159
v 44.471531 0.045516 3.482917
v 44.124996 0.045516 3.348773
v 44.055336 0.045516 2.890985
v 44.410912 0.045516 2.587698
v 45.065536 0.045516 2.461366
v 45.927177 0.045516 2.448695
v 44.646347 -0.094484 3.881159
v 44.471531 -0.094484 3.482917
v 44.124996 -0.094484 3.348773
v 44.055336 -0.094484 2.890985
v 44.410912 -0.094484 2.587698
v 45.065536 -0.094484 2.461366
v 45.927177 -0.094484 2.448695
v 46.280724 -0.094484 1.534639
vn -0.9886 -0.0000 0.1504
vn -0.9327 -0.0000 -0.3607
vn -0.3610 -0.0000 0.9326
vn -0.6489 -0.0000 -0.7608
vn -0.1895 -0.0000 -0.9819
vn -0.0000 1.0000 -0.0000
vn -0.0147 -0.0000 -0.9999
vn -0.9157 -0.0000 0.4019
vn -0.9157 -0.0000 0.4020
vt 0.000000 0.000000
s 1
f 27/1/1 19/1/1 20/1/1
s 2
f 31/1/2 23/1/2 16/1/2
s 3
f 26/1/3 18/1/3 19/1/3
s 4
f 28/1/4 20/1/4 21/1/4
s 5
f 29/1/5 21/1/5 22/1/5
s 6
f 2/1/6 23/1/6 11/1/6
s 7
f 30/1/7 22/1/7 23/1/7
s 8
f 25/1/8 17/1/9 18/1/8
s 1
f 27/1/1 26/1/1 19/1/1
s 2
f 31/1/2 30/1/2 23/1/2
s 3
f 26/1/3 25/1/3 18/1/3
s 4
f 28/1/4 27/1/4 20/1/4
s 5
f 29/1/5 28/1/5 21/1/5
s 6
f 7/1/6 6/1/6 23/1/6
f 6/1/6 5/1/6 8/1/6
f 8/1/6 9/1/6 10/1/6
f 6/1/6 8/1/6 23/1/6
f 18/1/6 17/1/6 7/1/6
f 20/1/6 19/1/6 18/1/6
f 22/1/6 21/1/6 18/1/6
f 21/1/6 20/1/6 18/1/6
f 1/1/6 16/1/6 23/1/6
f 23/1/6 22/1/6 7/1/6
f 7/1/6 22/1/6 18/1/6
f 8/1/6 10/1/6 11/1/6
f 11/1/6 12/1/6 2/1/6
f 12/1/6 13/1/6 14/1/6
f 8/1/6 11/1/6 23/1/6
f 2/1/6 1/1/6 23/1/6
f 4/1/6 3/1/6 14/1/6
f 3/1/6 2/1/6 14/1/6
f 14/1/6 15/1/6 4/1/6
f 12/1/6 14/1/6 2/1/6
s 7
f 30/1/7 29/1/7 22/1/7
s 8
f 25/1/8 24/1/9 17/1/9
