# Blender 4.5.1 LTS
# www.blender.org
o province_035
v 18.568855 0.045516 22.182148
v 18.339029 0.045516 21.722498
v 18.778694 0.045516 21.082983
v 18.808674 0.045516 20.623333
v 18.528885 0.045516 20.063757
v 14.946842 0.045516 19.494513
v 15.136698 0.045516 18.974907
v 15.476439 0.045516 18.815027
v 15.746235 0.045516 19.224716
v 16.735485 0.045516 19.664383
v 17.844643 0.045516 19.694363
v 18.350119 0.045516 22.742117
v 15.847779 0.045516 21.315615
v 16.253736 0.045516 21.257622
v 16.281525 0.045516 21.711477
v 16.596113 0.045516 21.894983
v 16.526619 0.045516 22.190336
v 16.891277 0.045516 22.521231
v 17.168142 0.045516 22.334160
v 17.567114 0.045516 22.354107
v 17.811699 0.045516 22.666164
v 15.438090 0.045516 21.019245
v 15.421820 0.045516 20.669474
v 15.709595 0.045516 20.412531
v 15.604494 0.045516 19.992134
v 14.824353 0.045516 19.842102
v 14.691360 0.045516 19.637281
v 18.350119 -0.094484 22.742117
v 15.847779 -0.094484 21.315615
v 16.253736 -0.094484 21.257622
v 16.281525 -0.094484 21.711477
v 16.596113 -0.094484 21.894983
v 16.526619 -0.094484 22.190336
v 16.891277 -0.094484 22.521231
v 17.168142 -0.094484 22.334160
v 17.567114 -0.094484 22.354107
v 17.811699 -0.094484 22.666164
v 15.438090 -0.094484 21.019245
v 15.421820 -0.094484 20.669474
v 15.709595 -0.094484 20.412531
v 15.604494 -0.094484 19.992134
v 14.824353 -0.094484 19.842102
v 14.691360 -0.094484 19.637281
v 18.528885 -0.094484 20.063757
v 15.476439 -0.094484 18.815027
v 15.746235 -0.094484 19.224716
v 16.735485 -0.094484 19.664383
v 17.844643 -0.094484 19.694363
vn 0.1414 -0.0000 0.9899
vn -0.9989 -0.0000 0.0465
vn -0.1889 -0.0000 0.9820
vn -0.7871 -0.0000 0.6169
vn -0.5861 -0.0000 0.8102
vn -0.5039 -0.0000 0.8638
vn -0.0000 1.0000 -0.0000
vn -0.0499 -0.0000 0.9988
vn -0.6720 -0.0000 0.7406
vn -0.9734 -0.0000 -0.2290
vn 0.5599 -0.0000 0.8286
vn -0.8387 -0.0000 0.5446
vn -0.1397 -0.0000 0.9902
vn -0.9701 -0.0000 0.2425
vn -0.6660 -0.0000 -0.7459
vn 0.0270 -0.0000 -0.9996
vn 0.4751 -0.0000 -0.8800
vn 0.4061 -0.0000 -0.9138
vn 0.8352 -0.0000 -0.5500
vn -0.9981 -0.0000 0.0611
vn -0.9734 -0.0000 -0.2291
vt 0.000000 0.000000
s 1
f 29/1/1 14/1/1 13/1/1
s 2
f 39/1/2 22/1/2 23/1/2
s 3
f 42/1/3 25/1/3 26/1/3
s 4
f 36/1/4 21/1/4 20/1/4
s 5
f 38/1/5 13/1/5 22/1/5
s 6
f 31/1/6 16/1/6 15/1/6
s 7
f 14/1/7 16/1/7 2/1/7
s 8
f 35/1/8 20/1/8 19/1/8
s 9
f 33/1/9 18/1/9 17/1/9
s 10
f 32/1/10 17/1/10 16/1/10
s 11
f 34/1/11 19/1/11 18/1/11
s 12
f 43/1/12 26/1/12 27/1/12
s 13
f 37/1/13 12/1/13 21/1/13
s 14
f 41/1/14 24/1/14 25/1/14
s 15
f 40/1/15 23/1/15 24/1/15
s 16
f 48/1/16 10/1/16 11/1/16
s 17
f 44/1/17 11/1/17 5/1/17
s 18
f 47/1/18 9/1/18 10/1/18
s 19
f 46/1/19 8/1/19 9/1/19
s 20
f 30/1/20 15/1/20 14/1/20
s 1
f 29/1/1 30/1/1 14/1/1
s 2
f 39/1/2 38/1/2 22/1/2
s 3
f 42/1/3 41/1/3 25/1/3
s 4
f 36/1/4 37/1/4 21/1/4
s 5
f 38/1/5 29/1/5 13/1/5
s 6
f 31/1/6 32/1/6 16/1/6
s 7
f 2/1/7 3/1/7 5/1/7
f 3/1/7 4/1/7 5/1/7
f 5/1/7 11/1/7 2/1/7
f 11/1/7 10/1/7 14/1/7
f 2/1/7 11/1/7 14/1/7
f 12/1/7 1/1/7 21/1/7
f 1/1/7 2/1/7 20/1/7
f 21/1/7 1/1/7 20/1/7
f 9/1/7 8/1/7 7/1/7
f 10/1/7 9/1/7 25/1/7
f 10/1/7 25/1/7 24/1/7
f 9/1/7 7/1/7 6/1/7
f 6/1/7 27/1/7 26/1/7
f 9/1/7 6/1/7 25/1/7
f 19/1/7 20/1/7 16/1/7
f 20/1/7 2/1/7 16/1/7
f 17/1/7 18/1/7 19/1/7
f 14/1/7 15/1/7 16/1/7
f 16/1/7 17/1/7 19/1/7
f 6/1/7 26/1/7 25/1/7
f 24/1/7 23/1/7 22/1/7
f 24/1/7 22/1/7 13/1/7
f 10/1/7 24/1/7 14/1/7
f 24/1/7 13/1/7 14/1/7
s 8
f 35/1/8 36/1/8 20/1/8
s 9
f 33/1/9 34/1/9 18/1/9
s 10
f 32/1/10 33/1/21 17/1/10
s 11
f 34/1/11 35/1/11 19/1/11
s 12
f 43/1/12 42/1/12 26/1/12
s 13
f 37/1/13 28/1/13 12/1/13
s 14
f 41/1/14 40/1/14 24/1/14
s 15
f 40/1/15 39/1/15 23/1/15
s 16
f 48/1/16 47/1/16 10/1/16
s 17
f 44/1/17 48/1/17 11/1/17
s 18
f 47/1/18 46/1/18 9/1/18
s 19
f 46/1/19 45/1/19 8/1/19
s 20
f 30/1/20 31/1/20 15/1/20
