# Blender 4.5.1 LTS
# www.blender.org
o province_163
v 10.658569 0.045516 6.247531
v 11.032684 0.045516 5.700749
v 10.672958 0.045516 5.542470
v 10.543458 0.045516 5.139577
v 10.255678 0.045516 4.592795
v 11.910415 0.045516 3.988456
v 11.435576 0.045516 4.319404
v 10.860016 0.045516 4.117957
v 12.442808 0.045516 4.520849
v 12.514753 0.045516 5.211523
v 12.874478 0.045516 5.513692
v 13.047148 0.045516 6.204364
v 12.601087 0.045516 6.636035
v 12.644254 0.045516 7.053317
v 11.824080 0.045516 7.470598
v 11.694580 0.045516 7.010149
v 11.910415 -0.094484 3.988456
v 12.442808 -0.094484 4.520849
v 12.514753 -0.094484 5.211523
v 12.874478 -0.094484 5.513692
v 13.047148 -0.094484 6.204364
v 12.601087 -0.094484 6.636035
v 12.644254 -0.094484 7.053317
v 11.824080 -0.094484 7.470598
vn 0.6432 -0.0000 -0.7657
vn 0.4535 -0.0000 0.8913
vn 0.9946 -0.0000 -0.1036
vn 0.9947 -0.0000 -0.1029
vn 0.7071 -0.0000 -0.7071
vn 0.6954 -0.0000 0.7186
vn -0.0000 1.0000 -0.0000
vn 0.9701 -0.0000 -0.2425
vt 0.000000 0.000000
s 1
f 20/1/1 10/1/1 11/1/1
s 2
f 24/1/2 14/1/2 15/1/2
s 3
f 19/1/3 9/1/3 10/1/3
s 4
f 23/1/4 13/1/4 14/1/4
s 5
f 18/1/5 6/1/5 9/1/5
s 6
f 22/1/6 12/1/6 13/1/6
s 7
f 2/1/7 13/1/7 10/1/7
s 8
f 21/1/8 11/1/8 12/1/8
s 1
f 20/1/1 19/1/1 10/1/1
s 2
f 24/1/2 23/1/2 14/1/2
s 3
f 19/1/3 18/1/3 9/1/3
s 4
f 23/1/4 22/1/4 13/1/4
s 5
f 18/1/5 17/1/5 6/1/5
s 6
f 22/1/6 21/1/6 12/1/6
s 7
f 16/1/7 15/1/7 14/1/7
f 13/1/7 12/1/7 11/1/7
f 16/1/7 14/1/7 13/1/7
f 2/1/7 1/1/7 16/1/7
f 4/1/7 3/1/7 2/1/7
f 8/1/7 5/1/7 4/1/7
f 9/1/7 6/1/7 7/1/7
f 7/1/7 8/1/7 4/1/7
f 2/1/7 16/1/7 13/1/7
f 7/1/7 4/1/7 2/1/7
f 10/1/7 9/1/7 7/1/7
f 13/1/7 11/1/7 10/1/7
f 7/1/7 2/1/7 10/1/7
s 8
f 21/1/8 20/1/8 11/1/8
