# Blender 4.5.1 LTS
# www.blender.org
o province_185
v -46.748566 0.045516 -25.854143
v -46.488770 0.045516 -26.133932
v -46.188995 0.045516 -26.353765
v -46.398834 0.045516 -26.823408
v -46.129036 0.045516 -27.173143
v -47.008373 0.045516 -26.253839
v -47.627903 0.045516 -26.363756
v -48.167492 0.045516 -26.803425
v -48.717075 0.045516 -26.923332
v -48.826992 0.045516 -27.682755
v -49.626381 0.045516 -28.402208
v -49.286640 0.045516 -29.001755
v -49.076801 0.045516 -29.161636
v -49.066807 0.045516 -29.541348
v -48.557198 0.045516 -29.751188
v -48.157501 0.045516 -29.591309
v -48.047585 0.045516 -29.071701
v -47.697849 0.045516 -28.801907
v -47.158264 0.045516 -28.681999
v -46.818520 0.045516 -28.362242
v -46.818520 0.045516 -27.702740
v -46.129036 -0.094484 -27.173143
v -49.286640 -0.094484 -29.001755
v -49.076801 -0.094484 -29.161636
v -49.066807 -0.094484 -29.541348
v -48.557198 -0.094484 -29.751188
v -48.157501 -0.094484 -29.591309
v -48.047585 -0.094484 -29.071701
v -47.697849 -0.094484 -28.801907
v -47.158264 -0.094484 -28.681999
v -46.818520 -0.094484 -28.362242
v -46.818520 -0.094484 -27.702740
vn 1.0000 -0.0000 -0.0000
vn -0.9997 -0.0000 -0.0263
vn -0.3808 -0.0000 -0.9247
vn 0.9783 -0.0000 -0.2070
vn 0.2169 -0.0000 -0.9762
vn 0.3714 -0.0000 -0.9285
vn -0.6061 -0.0000 -0.7954
vn 0.6108 -0.0000 -0.7918
vn -0.0000 1.0000 -0.0000
vn 0.6854 -0.0000 -0.7282
vn 0.6092 -0.0000 -0.7931
vn -0.6060 -0.0000 -0.7954
vt 0.000000 0.000000
s 1
f 32/1/1 20/1/1 21/1/1
s 2
f 25/1/2 13/1/2 14/1/2
s 3
f 26/1/3 14/1/3 15/1/3
s 4
f 28/1/4 16/1/4 17/1/4
s 5
f 30/1/5 18/1/5 19/1/5
s 6
f 27/1/6 15/1/6 16/1/6
s 7
f 24/1/7 12/1/7 13/1/7
s 8
f 29/1/8 17/1/8 18/1/8
s 9
f 4/1/9 21/1/9 6/1/9
s 10
f 31/1/10 19/1/10 20/1/10
s 11
f 22/1/11 21/1/11 5/1/11
s 1
f 32/1/1 31/1/1 20/1/1
s 2
f 25/1/2 24/1/2 13/1/2
s 3
f 26/1/3 25/1/3 14/1/3
s 4
f 28/1/4 27/1/4 16/1/4
s 5
f 30/1/5 29/1/5 18/1/5
s 6
f 27/1/6 26/1/6 15/1/6
s 7
f 24/1/7 23/1/12 12/1/7
s 8
f 29/1/8 28/1/8 17/1/8
s 9
f 13/1/9 12/1/9 10/1/9
f 12/1/9 11/1/9 10/1/9
f 10/1/9 9/1/9 8/1/9
f 15/1/9 14/1/9 13/1/9
f 17/1/9 16/1/9 15/1/9
f 20/1/9 19/1/9 21/1/9
f 19/1/9 18/1/9 21/1/9
f 17/1/9 15/1/9 13/1/9
f 18/1/9 17/1/9 10/1/9
f 17/1/9 13/1/9 10/1/9
f 10/1/9 8/1/9 21/1/9
f 18/1/9 10/1/9 21/1/9
f 8/1/9 7/1/9 21/1/9
f 7/1/9 6/1/9 21/1/9
f 6/1/9 1/1/9 2/1/9
f 2/1/9 3/1/9 4/1/9
f 4/1/9 5/1/9 21/1/9
f 6/1/9 2/1/9 4/1/9
s 10
f 31/1/10 30/1/10 19/1/10
s 11
f 22/1/11 32/1/11 21/1/11
