# Blender 4.5.1 LTS
# www.blender.org
mtllib province_116.mtl
o province_116
v 2.642943 0.006502 0.995283
v 2.647055 0.006502 0.943894
v 2.540164 0.006502 0.886338
v 2.531942 0.006502 0.822615
v 2.591554 0.006502 0.752725
v 2.496997 0.006502 0.676669
v 2.556952 0.006502 0.640696
v 2.692277 0.006502 0.657826
v 2.795056 0.006502 0.635557
v 2.887558 0.006502 0.680095
v 2.954364 0.006502 0.575603
v 3.017744 0.006502 0.544769
v 3.103393 0.006502 0.594445
v 3.153070 0.006502 0.698937
v 3.248997 0.006502 0.712641
v 3.362054 0.006502 0.692085
v 3.420295 0.006502 0.644122
v 3.596733 0.006502 0.668104
v 3.785161 0.006502 1.120331
v 3.733772 0.006502 1.072367
v 3.612150 0.006502 1.118618
v 3.577890 0.006502 1.092923
v 3.505945 0.006502 1.072367
v 3.490528 0.006502 1.031256
v 3.413444 0.006502 1.026117
v 3.365480 0.006502 1.101488
v 3.274693 0.006502 1.120331
v 3.231868 0.006502 1.151165
v 3.154784 0.006502 1.108340
v 3.101681 0.006502 1.068941
v 3.009180 0.006502 1.067228
v 2.983486 0.006502 1.110053
v 2.944087 0.006502 1.115192
v 2.884132 0.006502 1.221397
v 2.764224 0.006502 1.257369
v 2.726538 0.006502 1.190563
v 2.748807 0.006502 1.101488
v 2.690566 0.006502 1.034681
v 3.654536 0.006502 0.694891
v 3.601157 0.006502 0.733257
v 3.584211 0.006502 0.838702
v 3.626064 0.006502 0.901482
v 3.674489 0.006502 0.885917
v 3.747749 0.006502 0.984151
v 3.842043 0.006502 0.997157
v 3.843629 0.006502 1.052666
v 3.895969 0.006502 1.093042
v 3.852255 0.006502 1.141298
v 3.601157 -0.013498 0.733257
v 3.584211 -0.013498 0.838702
v 3.626064 -0.013498 0.901482
v 3.674489 -0.013498 0.885917
v 3.747749 -0.013498 0.984151
v 3.842043 -0.013498 0.997157
v 3.843629 -0.013498 1.052666
v 3.895969 -0.013498 1.093042
v 3.852255 -0.013498 1.141298
v 2.496997 -0.013498 0.676669
v 2.556952 -0.013498 0.640696
v 2.692277 -0.013498 0.657826
v 2.795056 -0.013498 0.635557
v 2.887558 -0.013498 0.680095
v 2.954364 -0.013498 0.575603
v 3.017744 -0.013498 0.544769
v 3.103393 -0.013498 0.594445
v 3.153070 -0.013498 0.698937
v 3.248997 -0.013498 0.712641
v 3.362054 -0.013498 0.692085
v 3.420295 -0.013498 0.644122
v 3.596733 -0.013498 0.668104
v 3.654536 -0.013498 0.694891
vn 0.7411 -0.0000 0.6714
vn 0.6108 -0.0000 -0.7918
vn 0.9996 -0.0000 -0.0286
vn 0.1366 -0.0000 -0.9906
vn 0.8016 -0.0000 -0.5978
vn -0.3060 -0.0000 -0.9520
vn 0.8321 -0.0000 -0.5547
vn 0.9873 -0.0000 0.1587
vn -0.0000 1.0000 -0.0000
vn 0.5836 -0.0000 0.8120
vn -0.5145 -0.0000 -0.8575
vn 0.1256 -0.0000 -0.9921
vn -0.2118 -0.0000 -0.9773
vn 0.4338 -0.0000 -0.9010
vn -0.8425 -0.0000 -0.5387
vn -0.4375 -0.0000 -0.8992
vn 0.5017 -0.0000 -0.8650
vn 0.9031 -0.0000 -0.4294
vn 0.1414 -0.0000 -0.9899
vn -0.1789 -0.0000 -0.9839
vn -0.6357 -0.0000 -0.7719
vn 0.1347 -0.0000 -0.9909
vn 0.4205 -0.0000 -0.9073
vn 0.8320 -0.0000 -0.5547
vt 0.000000 0.000000
s 0
f 48/1/1 56/1/1 47/1/1
f 47/1/2 55/1/2 46/1/2
f 46/1/3 54/1/3 45/1/3
f 45/1/4 53/1/4 44/1/4
f 44/1/5 52/1/5 43/1/5
f 43/1/6 51/1/6 42/1/6
f 42/1/7 50/1/7 41/1/7
f 41/1/8 49/1/8 40/1/8
f 42/1/9 41/1/9 24/1/9
f 40/1/10 71/1/10 39/1/10
f 7/1/11 58/1/11 6/1/11
f 8/1/12 59/1/12 7/1/12
f 9/1/13 60/1/13 8/1/13
f 10/1/14 61/1/14 9/1/14
f 11/1/15 62/1/15 10/1/15
f 12/1/16 63/1/16 11/1/16
f 13/1/17 64/1/17 12/1/17
f 14/1/18 65/1/18 13/1/18
f 15/1/19 66/1/19 14/1/19
f 16/1/20 67/1/20 15/1/20
f 17/1/21 68/1/21 16/1/21
f 18/1/22 69/1/22 17/1/22
f 39/1/23 70/1/23 18/1/23
f 48/1/1 57/1/1 56/1/1
f 47/1/2 56/1/2 55/1/2
f 46/1/3 55/1/3 54/1/3
f 45/1/4 54/1/4 53/1/4
f 44/1/5 53/1/5 52/1/5
f 43/1/6 52/1/6 51/1/6
f 42/1/24 51/1/24 50/1/24
f 41/1/8 50/1/8 49/1/8
f 2/1/9 1/1/9 38/1/9
f 37/1/9 36/1/9 34/1/9
f 36/1/9 35/1/9 34/1/9
f 2/1/9 38/1/9 10/1/9
f 38/1/9 37/1/9 33/1/9
f 4/1/9 3/1/9 5/1/9
f 3/1/9 2/1/9 5/1/9
f 7/1/9 6/1/9 5/1/9
f 5/1/9 2/1/9 8/1/9
f 38/1/9 33/1/9 31/1/9
f 8/1/9 7/1/9 5/1/9
f 10/1/9 9/1/9 8/1/9
f 12/1/9 11/1/9 13/1/9
f 11/1/9 10/1/9 13/1/9
f 14/1/9 13/1/9 10/1/9
f 10/1/9 8/1/9 2/1/9
f 38/1/9 31/1/9 10/1/9
f 37/1/9 34/1/9 33/1/9
f 33/1/9 32/1/9 31/1/9
f 14/1/9 10/1/9 31/1/9
f 14/1/9 31/1/9 30/1/9
f 15/1/9 14/1/9 30/1/9
f 30/1/9 29/1/9 27/1/9
f 29/1/9 28/1/9 27/1/9
f 27/1/9 26/1/9 25/1/9
f 24/1/9 23/1/9 22/1/9
f 30/1/9 27/1/9 25/1/9
f 15/1/9 30/1/9 25/1/9
f 18/1/9 17/1/9 40/1/9
f 17/1/9 16/1/9 40/1/9
f 16/1/9 15/1/9 25/1/9
f 16/1/9 25/1/9 41/1/9
f 25/1/9 24/1/9 41/1/9
f 39/1/9 18/1/9 40/1/9
f 24/1/9 22/1/9 42/1/9
f 22/1/9 21/1/9 20/1/9
f 20/1/9 19/1/9 46/1/9
f 19/1/9 48/1/9 46/1/9
f 48/1/9 47/1/9 46/1/9
f 46/1/9 45/1/9 44/1/9
f 44/1/9 43/1/9 42/1/9
f 41/1/9 40/1/9 16/1/9
f 46/1/9 44/1/9 20/1/9
f 44/1/9 42/1/9 22/1/9
f 20/1/9 44/1/9 22/1/9
f 40/1/10 49/1/10 71/1/10
f 7/1/11 59/1/11 58/1/11
f 8/1/12 60/1/12 59/1/12
f 9/1/13 61/1/13 60/1/13
f 10/1/14 62/1/14 61/1/14
f 11/1/15 63/1/15 62/1/15
f 12/1/16 64/1/16 63/1/16
f 13/1/17 65/1/17 64/1/17
f 14/1/18 66/1/18 65/1/18
f 15/1/19 67/1/19 66/1/19
f 16/1/20 68/1/20 67/1/20
f 17/1/21 69/1/21 68/1/21
f 18/1/22 70/1/22 69/1/22
f 39/1/23 71/1/23 70/1/23
