# Blender 4.5.1 LTS
# www.blender.org
o province_154
v 34.687344 0.045516 12.879934
v 34.065735 0.045516 13.121671
v 33.478657 0.045516 13.138938
v 32.684380 0.045516 14.174951
v 32.010971 0.045516 14.503022
v 32.045506 0.045516 15.366364
v 32.494442 0.045516 15.815304
v 33.185120 0.045516 16.091574
v 34.013931 0.045516 16.246975
v 34.186596 0.045516 16.523247
v 33.530457 0.045516 16.937653
v 33.133320 0.045516 17.300255
v 33.150585 0.045516 18.042732
v 33.513187 0.045516 18.370802
v 33.409584 0.045516 18.767941
v 35.170815 0.045516 13.121671
v 36.189564 0.045516 14.330351
v 36.258633 0.045516 14.951960
v 36.759373 0.045516 15.608101
v 37.225582 0.045516 15.884373
v 37.605453 0.045516 16.419645
v 37.570919 0.045516 16.937653
v 37.139248 0.045516 17.559261
v 37.242847 0.045516 18.008198
v 37.501854 0.045516 18.474403
v 37.950790 0.045516 18.578003
v 38.278862 0.045516 18.405336
v 38.848671 0.045516 18.767941
v 37.467316 0.045516 19.320482
v 36.120499 0.045516 19.251415
v 35.481625 0.045516 19.614021
v 34.652813 0.045516 19.631287
v 33.962139 0.045516 19.493151
v 38.693268 0.045516 18.344902
v 38.209789 0.045516 19.130545
v 32.010971 -0.094484 14.503022
v 32.045506 -0.094484 15.366364
v 32.494442 -0.094484 15.815304
v 33.185120 -0.094484 16.091574
v 34.013931 -0.094484 16.246975
v 34.186596 -0.094484 16.523247
v 33.530457 -0.094484 16.937653
v 33.133320 -0.094484 17.300255
v 33.150585 -0.094484 18.042732
v 33.513187 -0.094484 18.370802
v 33.409584 -0.094484 18.767941
vn -0.6709 -0.0000 0.7415
vn -0.7071 -0.0000 0.7071
vn -0.9997 -0.0000 0.0232
vn -0.9997 -0.0000 0.0233
vn -0.8480 -0.0000 0.5300
vn -0.9676 -0.0000 -0.2524
vn -0.9992 -0.0000 0.0400
vn -0.1843 -0.0000 0.9829
vn -0.0000 1.0000 -0.0000
vn -0.3714 -0.0000 0.9285
vn -0.6743 -0.0000 -0.7385
vn -0.5340 -0.0000 -0.8455
vt 0.000000 0.000000
s 1
f 44/1/1 14/1/1 13/1/1
s 2
f 37/1/2 7/1/2 6/1/2
s 3
f 43/1/3 13/1/4 12/1/3
s 4
f 40/1/5 10/1/5 9/1/5
s 5
f 45/1/6 15/1/6 14/1/6
s 6
f 36/1/7 6/1/7 5/1/7
s 7
f 39/1/8 9/1/8 8/1/8
s 8
f 26/1/9 25/1/9 29/1/9
s 9
f 38/1/10 8/1/10 7/1/10
s 10
f 42/1/11 12/1/11 11/1/11
s 11
f 41/1/12 11/1/12 10/1/12
s 1
f 44/1/1 45/1/1 14/1/1
s 2
f 37/1/2 38/1/2 7/1/2
s 3
f 43/1/3 44/1/4 13/1/4
s 4
f 40/1/5 41/1/5 10/1/5
s 5
f 45/1/6 46/1/6 15/1/6
s 6
f 36/1/7 37/1/7 6/1/7
s 7
f 39/1/8 40/1/8 9/1/8
s 8
f 18/1/9 17/1/9 9/1/9
f 17/1/9 16/1/9 2/1/9
f 16/1/9 1/1/9 2/1/9
f 2/1/9 3/1/9 4/1/9
f 4/1/9 5/1/9 6/1/9
f 6/1/9 7/1/9 4/1/9
f 7/1/9 8/1/9 4/1/9
f 8/1/9 9/1/9 4/1/9
f 2/1/9 4/1/9 9/1/9
f 17/1/9 2/1/9 9/1/9
f 21/1/9 20/1/9 22/1/9
f 20/1/9 19/1/9 23/1/9
f 19/1/9 18/1/9 10/1/9
f 10/1/9 18/1/9 9/1/9
f 10/1/9 11/1/9 14/1/9
f 11/1/9 12/1/9 13/1/9
f 20/1/9 23/1/9 22/1/9
f 23/1/9 19/1/9 10/1/9
f 11/1/9 13/1/9 14/1/9
f 24/1/9 23/1/9 30/1/9
f 23/1/9 10/1/9 30/1/9
f 14/1/9 15/1/9 33/1/9
f 33/1/9 32/1/9 14/1/9
f 32/1/9 31/1/9 14/1/9
f 30/1/9 29/1/9 25/1/9
f 29/1/9 35/1/9 26/1/9
f 31/1/9 30/1/9 14/1/9
f 10/1/9 14/1/9 30/1/9
f 25/1/9 24/1/9 30/1/9
f 34/1/9 27/1/9 28/1/9
f 27/1/9 26/1/9 35/1/9
f 28/1/9 27/1/9 35/1/9
s 9
f 38/1/10 39/1/10 8/1/10
s 10
f 42/1/11 43/1/11 12/1/11
s 11
f 41/1/12 42/1/12 11/1/12
