# Blender 4.5.1 LTS
# www.blender.org
o province_132
v 16.033861 0.045516 -4.096905
v 14.977866 0.045516 -3.608479
v 14.917912 0.045516 -3.028921
v 15.607387 0.045516 -2.499325
v 16.406776 0.045516 -2.399402
v 16.826454 0.045516 -1.200317
v 15.495872 0.045516 -3.982593
v 16.916386 0.045516 -1.530065
v 16.491709 0.045516 -1.824840
v 16.845402 0.045516 -3.440766
v 17.846878 0.045516 -3.268098
v 18.572083 0.045516 -2.024887
v 18.123146 0.045516 -1.679550
v 17.449738 0.045516 -1.524149
v 18.416679 0.045516 -2.594692
v 16.569132 0.045516 -3.869559
v 17.823679 0.045516 -2.981356
v 16.826454 -0.094484 -1.200317
v 18.572083 -0.094484 -2.024887
v 18.123146 -0.094484 -1.679550
v 17.449738 -0.094484 -1.524149
vn 0.2249 -0.0000 0.9744
vn 0.6097 -0.0000 0.7926
vn -0.0000 1.0000 -0.0000
vn 0.4610 -0.0000 0.8874
vt 0.000000 0.000000
s 1
f 21/1/1 13/1/1 14/1/1
s 2
f 20/1/2 12/1/2 13/1/2
s 3
f 14/1/3 17/1/3 5/1/3
s 4
f 18/1/4 14/1/4 6/1/4
s 1
f 21/1/1 20/1/1 13/1/1
s 2
f 20/1/2 19/1/2 12/1/2
s 3
f 8/1/3 6/1/3 14/1/3
f 14/1/3 13/1/3 17/1/3
f 13/1/3 12/1/3 15/1/3
f 17/1/3 13/1/3 15/1/3
f 17/1/3 11/1/3 10/1/3
f 10/1/3 16/1/3 4/1/3
f 16/1/3 1/1/3 4/1/3
f 1/1/3 7/1/3 4/1/3
f 7/1/3 2/1/3 3/1/3
f 4/1/3 7/1/3 3/1/3
f 5/1/3 9/1/3 8/1/3
f 4/1/3 5/1/3 10/1/3
f 17/1/3 10/1/3 5/1/3
f 8/1/3 14/1/3 5/1/3
s 4
f 18/1/4 21/1/4 14/1/4
