# Blender 4.5.1 LTS
# www.blender.org
mtllib province_062.mtl
o province_062
v -0.279524 0.001999 0.239616
v -0.282236 0.001999 0.237475
v -0.277668 0.001999 0.233193
v -0.278382 0.001999 0.225770
v -0.273100 0.001999 0.221915
v -0.255920 0.001999 0.224590
v -0.261915 0.001999 0.223049
v -0.268767 0.001999 0.225789
v -0.236758 0.001999 0.246578
v -0.245799 0.001999 0.246697
v -0.253055 0.001999 0.244437
v -0.261382 0.001999 0.248601
v -0.272701 0.001999 0.241747
v -0.267154 0.001999 0.248607
v -0.278194 0.001999 0.242480
v -0.248412 0.001999 0.222382
v -0.244422 0.001999 0.226586
v -0.239655 0.001999 0.227207
v -0.237355 0.001999 0.225449
v -0.235156 0.001999 0.228689
v -0.236745 0.001999 0.232926
v -0.232300 0.001999 0.237556
v -0.230141 0.001999 0.244033
v -0.278194 -0.000001 0.242480
v -0.272701 -0.000001 0.241747
v -0.248412 -0.000001 0.222382
v -0.244422 -0.000001 0.226586
v -0.239655 -0.000001 0.227207
v -0.237355 -0.000001 0.225449
v -0.235156 -0.000001 0.228689
v -0.236745 -0.000001 0.232926
v -0.232300 -0.000001 0.237556
v -0.230141 -0.000001 0.244033
v -0.236758 -0.000001 0.246578
v -0.245799 -0.000001 0.246697
v -0.253055 -0.000001 0.244437
v -0.261382 -0.000001 0.248601
v -0.267154 -0.000001 0.248607
vn -0.0000 1.0000 -0.0000
vn -0.7776 -0.0000 0.6287
vn 0.1322 -0.0000 0.9912
vn 0.7252 -0.0000 -0.6885
vn 0.1293 -0.0000 -0.9916
vn -0.6075 -0.0000 -0.7944
vn 0.8275 -0.0000 -0.5615
vn 0.9363 -0.0000 0.3511
vn 0.7214 -0.0000 -0.6925
vn 0.9487 -0.0000 -0.3162
vn 0.0012 -0.0000 1.0000
vn 0.3590 -0.0000 0.9333
vn 0.0132 -0.0000 0.9999
vn -0.2974 -0.0000 0.9548
vn 0.4472 -0.0000 0.8944
vt 0.000000 0.000000
s 0
f 5/1/1 4/1/1 3/1/1 2/1/1 1/1/1 15/1/1 13/1/1 14/1/1 12/1/1 11/1/1 10/1/1 9/1/1 23/1/1 22/1/1 21/1/1 20/1/1 19/1/1 18/1/1 17/1/1 16/1/1 6/1/1 7/1/1 8/1/1
f 14/1/2 13/1/2 25/1/2 38/1/2
f 13/1/3 15/1/3 24/1/3 25/1/3
f 16/1/4 17/1/4 27/1/4 26/1/4
f 17/1/5 18/1/5 28/1/5 27/1/5
f 18/1/6 19/1/6 29/1/6 28/1/6
f 19/1/7 20/1/7 30/1/7 29/1/7
f 20/1/8 21/1/8 31/1/8 30/1/8
f 21/1/9 22/1/9 32/1/9 31/1/9
f 22/1/10 23/1/10 33/1/10 32/1/10
f 12/1/11 14/1/11 38/1/11 37/1/11
f 23/1/12 9/1/12 34/1/12 33/1/12
f 9/1/13 10/1/13 35/1/13 34/1/13
f 10/1/14 11/1/14 36/1/14 35/1/14
f 11/1/15 12/1/15 37/1/15 36/1/15
