# Blender 4.5.1 LTS
# www.blender.org
o province_028
v 3.760513 0.045516 -6.013208
v 4.060284 0.045516 -6.324970
v 6.974063 0.045516 -7.260256
v 3.750521 0.045516 -5.633498
v 4.200177 0.045516 -5.423658
v 4.769742 0.045516 -5.643490
v 5.209407 0.045516 -5.253788
v 5.699033 0.045516 -5.753406
v 6.158682 0.045516 -5.623505
v 6.938087 0.045516 -6.452872
v 6.598346 0.045516 -6.902529
v 4.007782 0.045516 -6.933995
v 6.885942 0.045516 -7.622535
v 4.803900 0.045516 -7.300162
v 5.263271 0.045516 -7.089099
v 5.930979 0.045516 -7.709114
v 6.377430 0.045516 -7.457270
v 4.007782 -0.094484 -6.933995
v 4.803900 -0.094484 -7.300162
v 5.263271 -0.094484 -7.089099
v 5.930979 -0.094484 -7.709114
v 6.377430 -0.094484 -7.457270
v 6.885942 -0.094484 -7.622535
vn -0.3091 -0.0000 -0.9510
vn -0.4179 -0.0000 -0.9085
vn 0.4913 -0.0000 -0.8710
vn -0.0000 1.0000 -0.0000
vn 0.4175 -0.0000 -0.9087
vn -0.6805 -0.0000 -0.7328
vt 0.000000 0.000000
s 1
f 23/1/1 17/1/1 13/1/1
s 2
f 12/1/2 19/1/2 18/1/2
s 3
f 22/1/3 16/1/3 17/1/3
s 4
f 15/1/4 2/1/4 6/1/4
s 5
f 20/1/5 14/1/5 15/1/5
s 6
f 21/1/6 15/1/6 16/1/6
s 1
f 23/1/1 22/1/1 17/1/1
s 2
f 12/1/2 14/1/2 19/1/2
s 3
f 22/1/3 21/1/3 16/1/3
s 4
f 8/1/4 9/1/4 11/1/4
f 9/1/4 10/1/4 11/1/4
f 11/1/4 3/1/4 17/1/4
f 3/1/4 13/1/4 17/1/4
f 6/1/4 7/1/4 8/1/4
f 4/1/4 5/1/4 1/1/4
f 5/1/4 6/1/4 2/1/4
f 2/1/4 1/1/4 5/1/4
f 14/1/4 12/1/4 2/1/4
f 17/1/4 16/1/4 15/1/4
f 15/1/4 14/1/4 2/1/4
f 6/1/4 8/1/4 15/1/4
f 8/1/4 11/1/4 15/1/4
f 17/1/4 15/1/4 11/1/4
s 5
f 20/1/5 19/1/5 14/1/5
s 6
f 21/1/6 20/1/6 15/1/6
