# Blender 4.5.1 LTS
# www.blender.org
o province_158
v -0.701559 0.045516 4.571211
v -1.104452 0.045516 4.168319
v -1.636845 0.045516 4.340988
v -2.154526 0.045516 4.365640
v -2.043281 0.045516 4.699375
v -2.413503 0.045516 5.010361
v -2.386069 0.045516 5.353283
v -2.550206 0.045516 5.634661
v -2.151676 0.045516 5.778575
v -1.676978 0.045516 5.645066
v -1.312845 0.045516 5.921808
v -0.822712 0.045516 5.840118
v -0.806956 0.045516 6.312796
v -0.277175 0.045516 6.527230
v 0.068569 0.045516 6.449160
v 0.024394 0.045516 6.128894
v -0.179184 0.045516 5.852609
v -0.208000 0.045516 5.348325
v -0.441842 0.045516 5.020947
v -0.227306 0.045516 4.668495
v 0.068569 -0.094484 6.449160
v -2.154526 -0.094484 4.365640
v -2.043281 -0.094484 4.699375
v -2.413503 -0.094484 5.010361
v -2.386069 -0.094484 5.353283
v -2.550206 -0.094484 5.634661
v -2.151676 -0.094484 5.778575
v -1.676978 -0.094484 5.645066
v -1.312845 -0.094484 5.921808
v -0.822712 -0.094484 5.840118
v -0.806956 -0.094484 6.312796
v -0.277175 -0.094484 6.527230
v 0.024394 -0.094484 6.128894
v -0.179184 -0.094484 5.852609
v -0.208000 -0.094484 5.348325
v -0.441842 -0.094484 5.020947
v -0.227306 -0.094484 4.668495
vn 0.2707 -0.0000 0.9627
vn 0.9906 -0.0000 -0.1366
vn -0.3752 -0.0000 0.9269
vn -0.6432 -0.0000 -0.7657
vn 0.8051 -0.0000 -0.5932
vn 0.9984 -0.0000 -0.0571
vn -0.9487 -0.0000 0.3162
vn 0.8542 -0.0000 0.5199
vn 0.1644 -0.0000 0.9864
vn 0.2203 -0.0000 0.9754
vn 0.8137 -0.0000 -0.5812
vn -0.3396 -0.0000 0.9406
vn -0.8638 -0.0000 -0.5039
vn -0.0000 1.0000 -0.0000
vn -0.9968 -0.0000 0.0797
vn -0.9994 -0.0000 0.0333
vn -0.6051 -0.0000 0.7962
vt 0.000000 0.000000
s 1
f 27/1/1 10/1/1 9/1/1
s 2
f 21/1/2 16/1/2 15/1/2
s 3
f 31/1/3 14/1/3 13/1/3
s 4
f 23/1/4 6/1/4 5/1/4
s 5
f 33/1/5 17/1/5 16/1/5
s 6
f 34/1/6 18/1/6 17/1/6
s 7
f 22/1/7 5/1/7 4/1/7
s 8
f 36/1/8 20/1/8 19/1/8
s 9
f 29/1/9 12/1/9 11/1/9
s 10
f 32/1/10 15/1/10 14/1/10
s 11
f 35/1/11 19/1/11 18/1/11
s 12
f 26/1/12 9/1/12 8/1/12
s 13
f 25/1/13 8/1/13 7/1/13
s 14
f 13/1/14 14/1/14 17/1/14
s 15
f 24/1/15 7/1/15 6/1/15
s 16
f 30/1/16 13/1/16 12/1/16
s 17
f 28/1/17 11/1/17 10/1/17
s 1
f 27/1/1 28/1/1 10/1/1
s 2
f 21/1/2 33/1/2 16/1/2
s 3
f 31/1/3 32/1/3 14/1/3
s 4
f 23/1/4 24/1/4 6/1/4
s 5
f 33/1/5 34/1/5 17/1/5
s 6
f 34/1/6 35/1/6 18/1/6
s 7
f 22/1/7 23/1/7 5/1/7
s 8
f 36/1/8 37/1/8 20/1/8
s 9
f 29/1/9 30/1/9 12/1/9
s 10
f 32/1/10 21/1/10 15/1/10
s 11
f 35/1/11 36/1/11 19/1/11
s 12
f 26/1/12 27/1/12 9/1/12
s 13
f 25/1/13 26/1/13 8/1/13
s 14
f 15/1/14 16/1/14 14/1/14
f 16/1/14 17/1/14 14/1/14
f 17/1/14 18/1/14 12/1/14
f 18/1/14 19/1/14 12/1/14
f 19/1/14 20/1/14 1/1/14
f 1/1/14 2/1/14 3/1/14
f 3/1/14 4/1/14 5/1/14
f 5/1/14 6/1/14 7/1/14
f 7/1/14 8/1/14 9/1/14
f 10/1/14 11/1/14 12/1/14
f 7/1/14 9/1/14 10/1/14
f 3/1/14 5/1/14 10/1/14
f 5/1/14 7/1/14 10/1/14
f 19/1/14 1/1/14 10/1/14
f 1/1/14 3/1/14 10/1/14
f 12/1/14 19/1/14 10/1/14
f 12/1/14 13/1/14 17/1/14
s 15
f 24/1/15 25/1/15 7/1/15
s 16
f 30/1/16 31/1/16 13/1/16
s 17
f 28/1/17 29/1/17 11/1/17
