# Blender 4.5.1 LTS
# www.blender.org
o province_031
v -11.324901 0.045516 -1.626190
v -10.955182 0.045516 -1.786068
v -10.665404 0.045516 -2.215739
v -10.145801 0.045516 -2.035877
v -11.008474 0.045516 -1.226496
v -10.383952 0.045516 -1.084937
v -10.075854 0.045516 -0.843455
v -9.676159 0.045516 -0.918397
v -9.384715 0.045516 -1.418016
v -9.084944 0.045516 -1.592882
v -8.310535 0.045516 -1.351400
v -7.735974 0.045516 -1.234822
v -7.491163 0.045516 -2.672058
v -7.682683 0.045516 -2.363959
v -7.616067 0.045516 -2.047534
v -7.357930 0.045516 -1.872668
v -9.950166 0.045516 -2.206244
v -10.022892 0.045516 -2.216624
v -9.551513 0.045516 -2.335537
v -9.247812 0.045516 -2.821458
v -9.052746 0.045516 -3.038198
v -8.625570 0.045516 -3.038198
v -8.324758 0.045516 -2.729255
v -7.911952 0.045516 -2.636374
v -7.627125 0.045516 -2.867133
v -10.022892 -0.094484 -2.216624
v -9.950166 -0.094484 -2.206244
v -9.551513 -0.094484 -2.335537
v -9.247812 -0.094484 -2.821458
v -9.052746 -0.094484 -3.038198
v -8.625570 -0.094484 -3.038198
v -8.324758 -0.094484 -2.729255
v -7.911952 -0.094484 -2.636374
v -7.627125 -0.094484 -2.867133
vn 0.1413 -0.0000 -0.9900
vn -0.3085 -0.0000 -0.9512
vn -0.0000 -0.0000 -1.0000
vn 0.7165 -0.0000 -0.6976
vn -0.8480 -0.0000 -0.5300
vn -0.6295 -0.0000 -0.7770
vn -0.7433 -0.0000 -0.6690
vn -0.0000 1.0000 -0.0000
vn 0.2195 -0.0000 -0.9756
vt 0.000000 0.000000
s 1
f 27/1/1 18/1/1 17/1/1
s 2
f 28/1/2 17/1/2 19/1/2
s 3
f 31/1/3 21/1/3 22/1/3
s 4
f 32/1/4 22/1/4 23/1/4
s 5
f 29/1/5 19/1/5 20/1/5
s 6
f 34/1/6 24/1/6 25/1/6
s 7
f 30/1/7 20/1/7 21/1/7
s 8
f 23/1/8 20/1/8 10/1/8
s 9
f 33/1/9 23/1/9 24/1/9
s 1
f 27/1/1 26/1/1 18/1/1
s 2
f 28/1/2 27/1/2 17/1/2
s 3
f 31/1/3 30/1/3 21/1/3
s 4
f 32/1/4 31/1/4 22/1/4
s 5
f 29/1/5 28/1/5 19/1/5
s 6
f 34/1/6 33/1/6 24/1/6
s 7
f 30/1/7 29/1/7 20/1/7
s 8
f 6/1/8 7/1/8 8/1/8
f 6/1/8 8/1/8 9/1/8
f 1/1/8 5/1/8 2/1/8
f 5/1/8 6/1/8 2/1/8
f 4/1/8 3/1/8 2/1/8
f 6/1/8 9/1/8 4/1/8
f 9/1/8 10/1/8 19/1/8
f 4/1/8 9/1/8 17/1/8
f 10/1/8 11/1/8 23/1/8
f 11/1/8 12/1/8 15/1/8
f 23/1/8 15/1/8 14/1/8
f 12/1/8 16/1/8 15/1/8
f 14/1/8 13/1/8 24/1/8
f 13/1/8 25/1/8 24/1/8
f 11/1/8 15/1/8 23/1/8
f 2/1/8 6/1/8 4/1/8
f 23/1/8 22/1/8 20/1/8
f 22/1/8 21/1/8 20/1/8
f 14/1/8 24/1/8 23/1/8
f 9/1/8 19/1/8 17/1/8
f 17/1/8 18/1/8 4/1/8
f 19/1/8 10/1/8 20/1/8
s 9
f 33/1/9 32/1/9 23/1/9
