# Blender 4.5.1 LTS
# www.blender.org
mtllib province_175.mtl
o province_175
v 0.138726 0.001999 0.187791
v 0.136671 0.001999 0.195602
v 0.136774 0.001999 0.184810
v 0.148490 0.001999 0.179055
v 0.156302 0.001999 0.181727
v 0.164524 0.001999 0.176382
v 0.170485 0.001999 0.168777
v 0.186107 0.001999 0.175560
v 0.202758 0.001999 0.193033
v 0.200908 0.001999 0.186455
v 0.191246 0.001999 0.179466
v 0.187135 0.001999 0.210299
v 0.200702 0.001999 0.205777
v 0.175213 0.001999 0.210505
v 0.168841 0.001999 0.204338
v 0.154246 0.001999 0.200638
v 0.144585 0.001999 0.199610
v 0.136671 -0.000001 0.195602
v 0.202758 -0.000001 0.193033
v 0.187135 -0.000001 0.210299
v 0.200702 -0.000001 0.205777
v 0.175213 -0.000001 0.210505
v 0.168841 -0.000001 0.204338
v 0.154246 -0.000001 0.200638
v 0.144585 -0.000001 0.199610
vn -0.0000 1.0000 -0.0000
vn 0.9872 -0.0000 0.1592
vn 0.3162 -0.0000 0.9487
vn 0.0172 -0.0000 0.9999
vn -0.6954 -0.0000 0.7186
vn -0.2457 -0.0000 0.9693
vn -0.1058 -0.0000 0.9944
vn -0.4518 -0.0000 0.8921
vt 0.000000 0.000000
s 0
f 1/1/1 2/1/1 17/1/1 16/1/1 15/1/1 14/1/1 12/1/1 13/1/1 9/1/1 10/1/1 11/1/1 8/1/1 7/1/1 6/1/1 5/1/1 4/1/1 3/1/1
f 9/1/2 13/1/2 21/1/2 19/1/2
f 13/1/3 12/1/3 20/1/3 21/1/3
f 12/1/4 14/1/4 22/1/4 20/1/4
f 14/1/5 15/1/5 23/1/5 22/1/5
f 15/1/6 16/1/6 24/1/6 23/1/6
f 16/1/7 17/1/7 25/1/7 24/1/7
f 17/1/8 2/1/8 18/1/8 25/1/8
