# Blender 4.5.1 LTS
# www.blender.org
mtllib province_044.mtl
o province_044
v -4.732143 0.006502 -1.640375
v -4.855754 0.006502 -1.631850
v -4.962314 0.006502 -1.529552
v -4.979364 0.006502 -1.410204
v -4.877066 0.006502 -1.354792
v -4.838704 0.006502 -1.303643
v -4.847229 0.006502 -1.226920
v -4.791817 0.006502 -1.205608
v -4.757718 0.006502 -1.150196
v -4.707397 0.006502 -1.182756
v -4.695557 0.006502 -1.215316
v -4.648197 0.006502 -1.236037
v -4.600837 0.006502 -1.244917
v -4.550516 0.006502 -1.298197
v -4.429155 0.006502 -1.304117
v -4.649920 0.006502 -1.575282
v -4.596818 0.006502 -1.575282
v -4.509457 0.006502 -1.588986
v -4.423808 0.006502 -1.585560
v -4.350151 0.006502 -1.547874
v -4.276493 0.006502 -1.487920
v -4.394773 0.006502 -1.359448
v -4.421590 0.006502 -1.348868
v -4.352146 0.006502 -1.340798
v -4.275828 0.006502 -1.373506
v -4.249499 0.006502 -1.397202
v -4.230925 0.006502 -1.437004
v -4.230925 0.006502 -1.483005
v -4.421590 -0.013498 -1.348868
v -4.394773 -0.013498 -1.359448
v -4.352146 -0.013498 -1.340798
v -4.275828 -0.013498 -1.373506
v -4.249499 -0.013498 -1.397202
v -4.230925 -0.013498 -1.437004
v -4.732143 -0.013498 -1.640375
v -4.855754 -0.013498 -1.631850
v -4.962314 -0.013498 -1.529552
v -4.979364 -0.013498 -1.410204
v -4.877066 -0.013498 -1.354792
v -4.838704 -0.013498 -1.303643
v -4.847229 -0.013498 -1.226920
v -4.791817 -0.013498 -1.205608
v -4.757718 -0.013498 -1.150196
v -4.649920 -0.013498 -1.575282
v -4.596818 -0.013498 -1.575282
v -4.509457 -0.013498 -1.588986
v -4.423808 -0.013498 -1.585560
v -4.350151 -0.013498 -1.547874
v -4.276493 -0.013498 -1.487920
v -4.230925 -0.013498 -1.483005
vn 1.0000 -0.0000 -0.0000
vn 0.9062 -0.0000 0.4229
vn 0.6690 -0.0000 0.7433
vn 0.3939 -0.0000 0.9191
vn -0.4008 -0.0000 0.9162
vn -0.0000 1.0000 -0.0000
vn 0.3670 -0.0000 0.9302
vn 0.1073 -0.0000 -0.9942
vn -0.0688 -0.0000 -0.9976
vn -0.6925 -0.0000 -0.7214
vn -0.9899 -0.0000 -0.1414
vn -0.4763 -0.0000 0.8793
vn -0.8000 -0.0000 0.6000
vn -0.9939 -0.0000 -0.1104
vn -0.3590 -0.0000 0.9333
vn -0.8517 -0.0000 0.5241
vn 0.6207 -0.0000 -0.7840
vn -0.0000 -0.0000 -1.0000
vn -0.1550 -0.0000 -0.9879
vn 0.0400 -0.0000 -0.9992
vn 0.4555 -0.0000 -0.8902
vn 0.6313 -0.0000 -0.7756
vn 0.1072 -0.0000 -0.9942
vt 0.000000 0.000000
s 0
f 27/1/1 50/1/1 28/1/1
f 26/1/2 34/1/2 27/1/2
f 25/1/3 33/1/3 26/1/3
f 24/1/4 32/1/4 25/1/4
f 22/1/5 31/1/5 24/1/5
f 22/1/6 25/1/6 21/1/6
f 23/1/7 30/1/7 22/1/7
f 28/1/8 49/1/8 21/1/8
f 1/1/9 36/1/9 2/1/9
f 2/1/10 37/1/10 3/1/10
f 3/1/11 38/1/11 4/1/11
f 4/1/12 39/1/12 5/1/12
f 5/1/13 40/1/13 6/1/13
f 6/1/14 41/1/14 7/1/14
f 7/1/15 42/1/15 8/1/15
f 8/1/16 43/1/16 9/1/16
f 16/1/17 35/1/17 1/1/17
f 17/1/18 44/1/18 16/1/18
f 18/1/19 45/1/19 17/1/19
f 19/1/20 46/1/20 18/1/20
f 20/1/21 47/1/21 19/1/21
f 21/1/22 48/1/22 20/1/22
f 27/1/1 34/1/1 50/1/1
f 26/1/2 33/1/2 34/1/2
f 25/1/3 32/1/3 33/1/3
f 24/1/4 31/1/4 32/1/4
f 22/1/5 30/1/5 31/1/5
f 16/1/6 1/1/6 2/1/6
f 2/1/6 3/1/6 5/1/6
f 3/1/6 4/1/6 5/1/6
f 16/1/6 2/1/6 5/1/6
f 6/1/6 7/1/6 8/1/6
f 16/1/6 5/1/6 6/1/6
f 19/1/6 18/1/6 23/1/6
f 18/1/6 17/1/6 23/1/6
f 19/1/6 23/1/6 22/1/6
f 17/1/6 16/1/6 14/1/6
f 16/1/6 6/1/6 12/1/6
f 14/1/6 16/1/6 12/1/6
f 6/1/6 8/1/6 11/1/6
f 8/1/6 9/1/6 10/1/6
f 11/1/6 8/1/6 10/1/6
f 12/1/6 13/1/6 14/1/6
f 11/1/6 12/1/6 6/1/6
f 14/1/6 15/1/6 23/1/6
f 22/1/6 24/1/6 25/1/6
f 14/1/6 23/1/6 17/1/6
f 21/1/6 20/1/6 22/1/6
f 20/1/6 19/1/6 22/1/6
f 27/1/6 28/1/6 21/1/6
f 25/1/6 26/1/6 21/1/6
f 26/1/6 27/1/6 21/1/6
f 23/1/7 29/1/7 30/1/7
f 28/1/23 50/1/23 49/1/23
f 1/1/9 35/1/9 36/1/9
f 2/1/10 36/1/10 37/1/10
f 3/1/11 37/1/11 38/1/11
f 4/1/12 38/1/12 39/1/12
f 5/1/13 39/1/13 40/1/13
f 6/1/14 40/1/14 41/1/14
f 7/1/15 41/1/15 42/1/15
f 8/1/16 42/1/16 43/1/16
f 16/1/17 44/1/17 35/1/17
f 17/1/18 45/1/18 44/1/18
f 18/1/19 46/1/19 45/1/19
f 19/1/20 47/1/20 46/1/20
f 20/1/21 48/1/21 47/1/21
f 21/1/22 49/1/22 48/1/22
