# Blender 4.5.1 LTS
# www.blender.org
mtllib province_017.mtl
o province_017
v 0.568050 0.006502 -1.652139
v 0.568050 0.006502 -1.708667
v 0.598883 0.006502 -1.729223
v 0.619439 0.006502 -1.581906
v 0.621152 0.006502 -1.527091
v 0.701662 0.006502 -1.494545
v 0.705088 0.006502 -1.809733
v 0.790737 0.006502 -1.720658
v 0.926062 0.006502 -1.729223
v 1.040832 0.006502 -1.734362
v 0.852404 0.006502 -1.468850
v 0.787311 0.006502 -1.442470
v 1.094021 0.006502 -1.679695
v 1.011698 0.006502 -1.625933
v 0.923008 0.006502 -1.558962
v 0.906058 0.006502 -1.474353
v 1.011698 -0.013498 -1.625933
v 0.923008 -0.013498 -1.558962
v 0.906058 -0.013498 -1.474353
v 0.705088 -0.013498 -1.809733
v 0.790737 -0.013498 -1.720658
v 0.926062 -0.013498 -1.729223
v 1.040832 -0.013498 -1.734362
v 1.094021 -0.013498 -1.679695
vn -0.0000 1.0000 -0.0000
vn 0.5468 -0.0000 0.8373
vn 0.6026 -0.0000 0.7980
vn 0.9805 -0.0000 0.1964
vn 0.7167 -0.0000 -0.6974
vn 0.7208 -0.0000 -0.6931
vn -0.0632 -0.0000 -0.9980
vn -0.0447 -0.0000 -0.9990
vt 0.000000 0.000000
s 0
f 6/1/1 15/1/1 8/1/1
f 14/1/2 24/1/2 13/1/2
f 15/1/3 17/1/3 14/1/3
f 16/1/4 18/1/4 15/1/4
f 13/1/5 23/1/5 10/1/5
f 8/1/6 20/1/6 7/1/6
f 9/1/7 21/1/7 8/1/7
f 10/1/8 22/1/8 9/1/8
f 6/1/1 12/1/1 11/1/1
f 11/1/1 16/1/1 15/1/1
f 14/1/1 13/1/1 10/1/1
f 6/1/1 11/1/1 15/1/1
f 15/1/1 14/1/1 9/1/1
f 14/1/1 10/1/1 9/1/1
f 9/1/1 8/1/1 15/1/1
f 8/1/1 7/1/1 3/1/1
f 3/1/1 2/1/1 1/1/1
f 4/1/1 5/1/1 6/1/1
f 3/1/1 1/1/1 4/1/1
f 8/1/1 3/1/1 4/1/1
f 4/1/1 6/1/1 8/1/1
f 14/1/2 17/1/2 24/1/2
f 15/1/3 18/1/3 17/1/3
f 16/1/4 19/1/4 18/1/4
f 13/1/5 24/1/5 23/1/5
f 8/1/6 21/1/6 20/1/6
f 9/1/7 22/1/7 21/1/7
f 10/1/8 23/1/8 22/1/8
