# Blender 4.5.1 LTS
# www.blender.org
mtllib province_069.mtl
o province_069
v -1.847325 0.006502 0.471263
v -1.923381 0.006502 0.477430
v -2.003045 0.006502 0.726774
v -1.965931 0.006502 0.698224
v -1.957366 0.006502 0.646835
v -1.974496 0.006502 0.605438
v -1.940236 0.006502 0.571179
v -1.913114 0.006502 0.749613
v -1.843168 0.006502 0.749613
v -1.780358 0.006502 0.779591
v -1.720404 0.006502 0.799575
v -1.718977 0.006502 0.728201
v -1.746099 0.006502 0.699652
v -1.744671 0.006502 0.656827
v -1.714694 0.006502 0.625423
v -1.741816 0.006502 0.589736
v -1.791778 0.006502 0.555476
v -1.780358 0.006502 0.515507
v -2.003045 -0.013498 0.726774
v -1.913114 -0.013498 0.749613
v -1.843168 -0.013498 0.749613
v -1.780358 -0.013498 0.779591
v -1.720404 -0.013498 0.799575
vn -0.0000 1.0000 -0.0000
vn -0.2462 -0.0000 0.9692
vn -0.0000 -0.0000 1.0000
vn -0.4307 -0.0000 0.9025
vn -0.3162 -0.0000 0.9487
vt 0.000000 0.000000
s 0
f 17/1/1 1/1/1 7/1/1
f 3/1/2 20/1/2 8/1/2
f 8/1/3 21/1/3 9/1/3
f 9/1/4 22/1/4 10/1/4
f 10/1/5 23/1/5 11/1/5
f 3/1/1 8/1/1 4/1/1
f 8/1/1 9/1/1 5/1/1
f 4/1/1 8/1/1 5/1/1
f 9/1/1 10/1/1 13/1/1
f 10/1/1 11/1/1 12/1/1
f 13/1/1 10/1/1 12/1/1
f 14/1/1 15/1/1 16/1/1
f 14/1/1 16/1/1 17/1/1
f 9/1/1 13/1/1 14/1/1
f 7/1/1 6/1/1 5/1/1
f 9/1/1 14/1/1 17/1/1
f 17/1/1 18/1/1 1/1/1
f 1/1/1 2/1/1 7/1/1
f 7/1/1 5/1/1 17/1/1
f 5/1/1 9/1/1 17/1/1
f 3/1/2 19/1/2 20/1/2
f 8/1/3 20/1/3 21/1/3
f 9/1/4 21/1/4 22/1/4
f 10/1/5 22/1/5 23/1/5
