# Blender 4.5.1 LTS
# www.blender.org
o province_098
v 12.773683 0.045516 -6.742753
v 13.281628 0.045516 -6.442982
v 13.639688 0.045516 -6.426328
v 13.519779 0.045516 -7.097815
v 13.915477 0.045516 -7.661386
v 14.311175 0.045516 -7.877221
v 14.598955 0.045516 -8.668616
v 14.862753 0.045516 -9.004360
v 14.335156 0.045516 -9.208204
v 13.675660 0.045516 -9.160241
v 13.172045 0.045516 -9.543948
v 12.511950 0.045516 -7.582911
v 12.571903 0.045516 -8.162469
v 12.471979 0.045516 -8.742026
v 12.871675 0.045516 -9.141722
v 14.862753 -0.094484 -9.004360
v 14.335156 -0.094484 -9.208204
v 13.675660 -0.094484 -9.160241
v 13.172045 -0.094484 -9.543948
vn 0.3604 -0.0000 -0.9328
vn -0.0000 1.0000 -0.0000
vn 0.6060 -0.0000 -0.7954
vn -0.0725 -0.0000 -0.9974
vt 0.000000 0.000000
s 1
f 16/1/1 9/1/1 8/1/1
s 2
f 5/1/2 10/1/2 13/1/2
s 3
f 18/1/3 11/1/3 10/1/3
s 4
f 17/1/4 10/1/4 9/1/4
s 1
f 16/1/1 17/1/1 9/1/1
s 2
f 8/1/2 9/1/2 7/1/2
f 9/1/2 10/1/2 7/1/2
f 10/1/2 11/1/2 15/1/2
f 15/1/2 14/1/2 13/1/2
f 13/1/2 12/1/2 5/1/2
f 12/1/2 1/1/2 4/1/2
f 1/1/2 2/1/2 4/1/2
f 2/1/2 3/1/2 4/1/2
f 15/1/2 13/1/2 10/1/2
f 12/1/2 4/1/2 5/1/2
f 7/1/2 10/1/2 6/1/2
f 5/1/2 6/1/2 10/1/2
s 3
f 18/1/3 19/1/3 11/1/3
s 4
f 17/1/4 18/1/4 10/1/4
