# Blender 4.5.1 LTS
# www.blender.org
o province_020
v -20.441202 0.045516 5.546807
v -20.441202 0.045516 5.986471
v -20.151424 0.045516 6.246273
v -20.151424 0.045516 6.576020
v -20.101461 0.045516 5.696693
v -19.541889 0.045516 5.656723
v -19.172173 0.045516 5.446884
v -18.202915 0.045516 5.926517
v -18.292845 0.045516 6.376173
v -18.602608 0.045516 6.655958
v -18.297840 0.045516 5.726670
v -20.263493 0.045516 6.852455
v -18.807846 0.045516 6.786109
v -19.419464 0.045516 6.918351
v -19.588997 0.045516 7.057964
v -19.854374 0.045516 7.112601
v -20.263493 -0.094484 6.852455
v -18.807846 -0.094484 6.786109
v -19.419464 -0.094484 6.918351
v -19.588997 -0.094484 7.057964
v -19.854374 -0.094484 7.112601
v -18.292845 -0.094484 6.376173
v -18.602608 -0.094484 6.655958
v -20.271332 0.045516 5.546807
v -18.932356 0.045516 5.516830
v -18.392769 0.045516 5.526823
v -18.202915 -0.094484 5.926517
v -18.297840 -0.094484 5.726670
vn 0.2017 -0.0000 0.9795
vn 0.2113 -0.0000 0.9774
vn -0.5366 -0.0000 0.8438
vn 0.9033 -0.0000 -0.4290
vn 0.5355 -0.0000 0.8445
vn 0.9806 -0.0000 0.1961
vn -0.0000 1.0000 -0.0000
vn 0.6357 -0.0000 0.7719
vn 0.6703 -0.0000 0.7421
vt 0.000000 0.000000
s 1
f 21/1/1 15/1/1 16/1/1
s 2
f 19/1/2 13/1/2 14/1/2
s 3
f 17/1/3 16/1/3 12/1/3
s 4
f 27/1/4 11/1/4 8/1/4
s 5
f 18/1/5 10/1/5 13/1/5
s 6
f 22/1/6 8/1/6 9/1/6
s 7
f 3/1/7 4/1/7 14/1/7
s 8
f 20/1/8 14/1/8 15/1/8
s 9
f 23/1/9 9/1/9 10/1/9
s 1
f 21/1/1 20/1/1 15/1/1
s 2
f 19/1/2 18/1/2 13/1/2
s 3
f 17/1/3 21/1/3 16/1/3
s 4
f 27/1/4 28/1/4 11/1/4
s 5
f 18/1/5 23/1/5 10/1/5
s 6
f 22/1/6 27/1/6 8/1/6
s 7
f 10/1/7 9/1/7 25/1/7
f 9/1/7 8/1/7 11/1/7
f 25/1/7 9/1/7 11/1/7
f 11/1/7 26/1/7 25/1/7
f 25/1/7 7/1/7 6/1/7
f 13/1/7 10/1/7 25/1/7
f 16/1/7 15/1/7 4/1/7
f 15/1/7 14/1/7 4/1/7
f 14/1/7 13/1/7 6/1/7
f 6/1/7 13/1/7 25/1/7
f 5/1/7 24/1/7 2/1/7
f 24/1/7 1/1/7 2/1/7
f 6/1/7 5/1/7 3/1/7
f 14/1/7 6/1/7 3/1/7
f 4/1/7 12/1/7 16/1/7
f 2/1/7 3/1/7 5/1/7
s 8
f 20/1/8 19/1/8 14/1/8
s 9
f 23/1/9 22/1/9 9/1/9
