# Blender 4.5.1 LTS
# www.blender.org
o province_037
v -45.943981 0.045516 -24.155828
v -46.015926 0.045516 -23.752934
v -45.656197 0.045516 -23.493931
v -45.684978 0.045516 -22.932756
v -46.116650 0.045516 -22.774477
v -46.116650 0.045516 -21.954298
v -46.433205 0.045516 -22.299637
v -46.908047 0.045516 -22.198914
v -46.979992 0.045516 -21.565792
v -47.368496 0.045516 -21.148508
v -47.785782 0.045516 -21.119728
v -47.771385 0.045516 -21.493847
v -48.447678 0.045516 -21.709682
v -48.692291 0.045516 -22.112577
v -49.023243 0.045516 -22.213303
v -49.052017 0.045516 -22.875200
v -48.922516 0.045516 -23.234926
v -49.498081 0.045516 -23.623432
v -49.325417 0.045516 -24.026325
v -48.793015 0.045516 -24.155828
v -48.649124 0.045516 -24.774559
v -48.275009 0.045516 -24.990395
v -47.857727 0.045516 -24.573112
v -47.282166 0.045516 -24.587502
v -46.778549 0.045516 -24.285330
v -46.116650 -0.094484 -21.954298
v -46.433205 -0.094484 -22.299637
v -46.908047 -0.094484 -22.198914
v -46.979992 -0.094484 -21.565792
v -47.368496 -0.094484 -21.148508
v -47.785782 -0.094484 -21.119728
v -49.498081 -0.094484 -23.623432
v -49.325417 -0.094484 -24.026325
vn -0.7372 -0.0000 0.6757
vn 0.2075 -0.0000 0.9782
vn 0.0688 -0.0000 0.9976
vn 0.9936 -0.0000 0.1129
vn -0.0000 1.0000 -0.0000
vn -0.9191 -0.0000 -0.3939
vn -0.9192 -0.0000 -0.3939
vn 0.7319 -0.0000 0.6814
vt 0.000000 0.000000
s 1
f 27/1/1 6/1/1 7/1/1
s 2
f 28/1/2 7/1/2 8/1/2
s 3
f 31/1/3 10/1/3 11/1/3
s 4
f 29/1/4 8/1/4 9/1/4
s 5
f 14/1/5 12/1/5 8/1/5
s 6
f 33/1/6 18/1/7 19/1/6
s 7
f 30/1/8 9/1/8 10/1/8
s 1
f 27/1/1 26/1/1 6/1/1
s 2
f 28/1/2 27/1/2 7/1/2
s 3
f 31/1/3 30/1/3 10/1/3
s 4
f 29/1/4 28/1/4 8/1/4
s 5
f 22/1/5 21/1/5 23/1/5
f 21/1/5 20/1/5 23/1/5
f 20/1/5 19/1/5 17/1/5
f 19/1/5 18/1/5 17/1/5
f 17/1/5 16/1/5 14/1/5
f 16/1/5 15/1/5 14/1/5
f 25/1/5 24/1/5 23/1/5
f 2/1/5 1/1/5 25/1/5
f 4/1/5 3/1/5 5/1/5
f 3/1/5 2/1/5 5/1/5
f 7/1/5 6/1/5 5/1/5
f 2/1/5 25/1/5 5/1/5
f 25/1/5 23/1/5 17/1/5
f 5/1/5 25/1/5 8/1/5
f 23/1/5 20/1/5 17/1/5
f 14/1/5 13/1/5 12/1/5
f 12/1/5 11/1/5 10/1/5
f 10/1/5 9/1/5 12/1/5
f 9/1/5 8/1/5 12/1/5
f 8/1/5 7/1/5 5/1/5
f 8/1/5 25/1/5 17/1/5
f 17/1/5 14/1/5 8/1/5
s 6
f 33/1/6 32/1/7 18/1/7
s 7
f 30/1/8 29/1/8 9/1/8
