# Blender 4.5.1 LTS
# www.blender.org
mtllib province_178.mtl
o province_178
v 0.457448 0.001999 0.364844
v 0.459732 0.001999 0.372838
v 0.454593 0.001999 0.376406
v 0.454736 0.001999 0.381117
v 0.464586 0.001999 0.389111
v 0.466299 0.001999 0.394964
v 0.462016 0.001999 0.398961
v 0.469154 0.001999 0.405527
v 0.446554 0.001999 0.366077
v 0.438743 0.001999 0.372655
v 0.433604 0.001999 0.369366
v 0.417981 0.001999 0.368544
v 0.413048 0.001999 0.373272
v 0.415103 0.001999 0.381288
v 0.412226 0.001999 0.386427
v 0.416748 0.001999 0.390744
v 0.413253 0.001999 0.394033
v 0.398350 0.001999 0.391806
v 0.376938 0.001999 0.388209
v 0.380364 0.001999 0.396089
v 0.374026 0.001999 0.404311
v 0.372056 0.001999 0.411477
v 0.377281 0.001999 0.423839
v 0.384304 0.001999 0.424010
v 0.392869 0.001999 0.430006
v 0.411026 0.001999 0.426066
v 0.418392 0.001999 0.419899
v 0.436721 0.001999 0.426066
v 0.456249 0.001999 0.422983
v 0.460018 0.001999 0.417501
v 0.465499 0.001999 0.413561
v 0.457448 -0.000001 0.364844
v 0.446554 -0.000001 0.366077
v 0.438743 -0.000001 0.372655
v 0.433604 -0.000001 0.369366
v 0.417981 -0.000001 0.368544
v 0.413048 -0.000001 0.373272
v 0.415103 -0.000001 0.381288
v 0.412226 -0.000001 0.386427
v 0.416748 -0.000001 0.390744
v 0.413253 -0.000001 0.394033
v 0.398350 -0.000001 0.391806
v 0.376938 -0.000001 0.388209
vn -0.0000 1.0000 -0.0000
vn -0.1125 -0.0000 -0.9937
vn -0.6441 -0.0000 -0.7649
vn 0.5391 -0.0000 -0.8423
vn 0.0526 -0.0000 -0.9986
vn -0.6919 -0.0000 -0.7220
vn -0.9687 -0.0000 0.2484
vn -0.8725 -0.0000 -0.4886
vn -0.6905 -0.0000 0.7234
vn -0.6854 -0.0000 -0.7282
vn 0.1478 -0.0000 -0.9890
vn 0.1657 -0.0000 -0.9862
vt 0.000000 0.000000
s 0
f 2/1/1 1/1/1 9/1/1 10/1/1 11/1/1 12/1/1 13/1/1 14/1/1 15/1/1 16/1/1 17/1/1 18/1/1 19/1/1 20/1/1 21/1/1 22/1/1 23/1/1 24/1/1 25/1/1 26/1/1 27/1/1 28/1/1 29/1/1 30/1/1 31/1/1 8/1/1 7/1/1 6/1/1 5/1/1 4/1/1 3/1/1
f 9/1/2 1/1/2 32/1/2 33/1/2
f 10/1/3 9/1/3 33/1/3 34/1/3
f 11/1/4 10/1/4 34/1/4 35/1/4
f 12/1/5 11/1/5 35/1/5 36/1/5
f 13/1/6 12/1/6 36/1/6 37/1/6
f 14/1/7 13/1/7 37/1/7 38/1/7
f 15/1/8 14/1/8 38/1/8 39/1/8
f 16/1/9 15/1/9 39/1/9 40/1/9
f 17/1/10 16/1/10 40/1/10 41/1/10
f 18/1/11 17/1/11 41/1/11 42/1/11
f 19/1/12 18/1/12 42/1/12 43/1/12
