# Blender 4.5.1 LTS
# www.blender.org
mtllib province_006.mtl
o province_006
v -0.213899 0.001999 0.133940
v -0.213156 0.001999 0.130471
v -0.210430 0.001999 0.126919
v -0.208778 0.001999 0.120558
v -0.195329 0.001999 0.124819
v -0.201574 0.001999 0.122539
v -0.205143 0.001999 0.123629
v -0.209240 0.001999 0.136815
v -0.202301 0.001999 0.139393
v -0.201211 0.001999 0.142862
v -0.207258 0.001999 0.143358
v -0.210926 0.001999 0.142763
v -0.212809 0.001999 0.145539
v -0.216774 0.001999 0.144845
v -0.217270 0.001999 0.150991
v -0.213206 0.001999 0.156840
v -0.204779 0.001999 0.160309
v -0.194470 0.001999 0.158029
v -0.186143 0.001999 0.156840
v -0.190711 0.001999 0.123587
v -0.187424 0.001999 0.130248
v -0.184409 0.001999 0.133262
v -0.185038 0.001999 0.137243
v -0.180184 0.001999 0.140016
v -0.180702 0.001999 0.143200
v -0.183787 0.001999 0.147724
v -0.182621 0.001999 0.156094
v -0.190711 -0.000001 0.123587
v -0.187424 -0.000001 0.130248
v -0.184409 -0.000001 0.133262
v -0.185038 -0.000001 0.137243
v -0.180184 -0.000001 0.140016
v -0.180702 -0.000001 0.143200
v -0.183787 -0.000001 0.147724
v -0.182621 -0.000001 0.156094
v -0.213206 -0.000001 0.156840
v -0.204779 -0.000001 0.160309
v -0.194470 -0.000001 0.158029
v -0.186143 -0.000001 0.156840
v -0.213899 0.001999 0.133940
v -0.209240 0.001999 0.136815
v -0.202301 0.001999 0.139393
v -0.201211 0.001999 0.142862
v -0.207258 0.001999 0.143358
v -0.210926 0.001999 0.142763
v -0.212809 0.001999 0.145539
v -0.216774 0.001999 0.144845
v -0.217270 0.001999 0.150991
v -0.213206 0.001999 0.156840
v -0.213206 -0.000001 0.156840
vn -0.0000 1.0000 -0.0000
vn 0.8967 -0.0000 -0.4426
vn 0.7071 -0.0000 -0.7071
vn 0.9878 -0.0000 0.1560
vn 0.4961 -0.0000 -0.8682
vn 0.9870 -0.0000 0.1607
vn 0.8262 -0.0000 0.5633
vn 0.9904 -0.0000 -0.1379
vn 0.2070 -0.0000 0.9783
vn -0.3808 -0.0000 0.9247
vn 0.2159 -0.0000 0.9764
vn 0.1414 -0.0000 0.9899
vt 0.000000 0.000000
s 0
f 1/1/1 8/1/1 9/1/1 10/1/1 11/1/1 12/1/1 13/1/1 14/1/1 15/1/1 16/1/1 17/1/1 18/1/1 19/1/1 27/1/1 26/1/1 25/1/1 24/1/1 23/1/1 22/1/1 21/1/1 20/1/1 5/1/1 6/1/1 7/1/1 4/1/1 3/1/1 2/1/1
f 20/1/2 21/1/2 29/1/2 28/1/2
f 21/1/3 22/1/3 30/1/3 29/1/3
f 22/1/4 23/1/4 31/1/4 30/1/4
f 23/1/5 24/1/5 32/1/5 31/1/5
f 24/1/6 25/1/6 33/1/6 32/1/6
f 25/1/7 26/1/7 34/1/7 33/1/7
f 26/1/8 27/1/8 35/1/8 34/1/8
f 27/1/9 19/1/9 39/1/9 35/1/9
f 17/1/10 16/1/10 36/1/10 37/1/10
f 18/1/11 17/1/11 37/1/11 38/1/11
f 19/1/12 18/1/12 38/1/12 39/1/12
f 15/1/1 14/1/1 47/1/1 48/1/1
f 16/1/1 15/1/1 48/1/1 49/1/1
f 8/1/1 1/1/1 40/1/1 41/1/1
f 9/1/1 8/1/1 41/1/1 42/1/1
f 10/1/1 9/1/1 42/1/1 43/1/1
f 11/1/1 10/1/1 43/1/1 44/1/1
f 12/1/1 11/1/1 44/1/1 45/1/1
f 13/1/1 12/1/1 45/1/1 46/1/1
f 14/1/1 13/1/1 46/1/1 47/1/1
