# Blender 4.5.1 LTS
# www.blender.org
mtllib province_136.mtl
o province_136
v 0.303682 0.001999 -0.022508
v 0.308163 0.001999 -0.030443
v 0.312891 0.001999 -0.009599
v 0.309397 0.001999 -0.009805
v 0.306930 0.001999 -0.012477
v 0.307752 0.001999 -0.017616
v 0.318363 0.001999 -0.009718
v 0.321218 0.001999 -0.007696
v 0.323716 0.001999 -0.003889
v 0.329188 0.001999 -0.004127
v 0.334065 0.001999 -0.002224
v 0.341203 0.001999 -0.004841
v 0.345723 0.001999 -0.010789
v 0.350148 0.001999 -0.018569
v 0.347389 0.001999 -0.020662
v 0.342987 0.001999 -0.026015
v 0.337158 0.001999 -0.029108
v 0.329188 0.001999 -0.028632
v 0.325144 0.001999 -0.030298
v 0.347936 0.001999 -0.014679
v 0.308163 -0.000001 -0.030443
v 0.350148 -0.000001 -0.018569
v 0.347389 -0.000001 -0.020662
v 0.342987 -0.000001 -0.026015
v 0.337158 -0.000001 -0.029108
v 0.329188 -0.000001 -0.028632
v 0.325144 -0.000001 -0.030298
vn -0.0000 1.0000 -0.0000
vn 0.4687 -0.0000 -0.8833
vn -0.0596 -0.0000 -0.9982
vn 0.3807 -0.0000 -0.9247
vn 0.0085 -0.0000 -1.0000
vn 0.6044 -0.0000 -0.7967
vn 0.7724 -0.0000 -0.6351
vt 0.000000 0.000000
s 0
f 2/1/1 1/1/1 6/1/1 5/1/1 4/1/1 3/1/1 7/1/1 8/1/1 9/1/1 10/1/1 11/1/1 12/1/1 13/1/1 20/1/1 14/1/1 15/1/1 16/1/1 17/1/1 18/1/1 19/1/1
f 17/1/2 16/1/2 24/1/2 25/1/2
f 18/1/3 17/1/3 25/1/3 26/1/3
f 19/1/4 18/1/4 26/1/4 27/1/4
f 2/1/5 19/1/5 27/1/5 21/1/5
f 15/1/6 14/1/6 22/1/6 23/1/6
f 16/1/7 15/1/7 23/1/7 24/1/7
