# Blender 4.5.1 LTS
# www.blender.org
mtllib province_181.mtl
o province_181
v 0.443192 0.001999 0.224963
v 0.449975 0.001999 0.232157
v 0.460664 0.001999 0.236063
v 0.431544 0.001999 0.191320
v 0.438053 0.001999 0.189949
v 0.443021 0.001999 0.184982
v 0.453812 0.001999 0.184982
v 0.457238 0.001999 0.181556
v 0.463919 0.001999 0.187551
v 0.470942 0.001999 0.185838
v 0.475053 0.001999 0.191662
v 0.469401 0.001999 0.199713
v 0.471114 0.001999 0.205709
v 0.474540 0.001999 0.210505
v 0.474197 0.001999 0.217528
v 0.476253 0.001999 0.223352
v 0.485160 0.001999 0.225922
v 0.486702 0.001999 0.233802
v 0.478822 0.001999 0.236200
v 0.466317 0.001999 0.230547
v 0.426581 0.001999 0.194766
v 0.421659 0.001999 0.200265
v 0.425424 0.001999 0.203493
v 0.436235 0.001999 0.205364
v 0.443918 0.001999 0.214967
v 0.443013 0.001999 0.216905
v 0.443013 -0.000001 0.216905
v 0.443918 -0.000001 0.214967
v 0.426581 -0.000001 0.194766
v 0.421659 -0.000001 0.200265
v 0.425424 -0.000001 0.203493
v 0.436235 -0.000001 0.205364
vn -0.7809 -0.0000 0.6247
vn -0.1705 -0.0000 0.9854
vn -0.6508 -0.0000 0.7593
vn -0.7451 -0.0000 -0.6670
vn -0.9061 -0.0000 -0.4232
vn -0.0000 1.0000 -0.0000
vt 0.000000 0.000000
s 0
f 25/1/1 24/1/1 32/1/1 28/1/1
f 24/1/2 23/1/2 31/1/2 32/1/2
f 23/1/3 22/1/3 30/1/3 31/1/3
f 22/1/4 21/1/4 29/1/4 30/1/4
f 26/1/5 25/1/5 28/1/5 27/1/5
f 20/1/6 19/1/6 18/1/6 17/1/6 16/1/6 15/1/6 14/1/6 13/1/6 12/1/6 11/1/6 10/1/6 9/1/6 8/1/6 7/1/6 6/1/6 5/1/6 4/1/6 21/1/6 22/1/6 23/1/6 24/1/6 25/1/6 26/1/6 1/1/6 2/1/6 3/1/6
