# Blender 4.5.1 LTS
# www.blender.org
mtllib province_095.mtl
o province_095
v 1.508264 0.006502 -0.277117
v 1.522653 0.006502 -0.213394
v 1.557597 0.006502 -0.182561
v 1.711766 0.006502 0.008608
v 1.709710 0.006502 -0.071560
v 1.643932 0.006502 -0.079782
v 1.623376 0.006502 -0.151727
v 1.600764 0.006502 -0.365507
v 1.913554 0.006502 -0.053231
v 1.779371 0.006502 -0.013261
v 1.597932 0.006502 -0.395252
v 1.677884 0.006502 -0.390385
v 1.679208 0.006502 -0.346703
v 1.747635 0.006502 -0.327776
v 1.759942 0.006502 -0.263506
v 1.933197 0.006502 -0.130577
v 1.597932 -0.013498 -0.395252
v 1.677884 -0.013498 -0.390385
v 1.679208 -0.013498 -0.346703
v 1.747635 -0.013498 -0.327776
v 1.759942 -0.013498 -0.263506
v 1.933197 -0.013498 -0.130577
v 1.711766 -0.013498 0.008608
v 1.913554 -0.013498 -0.053231
v 1.779371 -0.013498 -0.013261
vn -0.0000 1.0000 -0.0000
vn 0.0608 -0.0000 -0.9982
vn 0.9995 -0.0000 -0.0303
vn 0.2666 -0.0000 -0.9638
vn 0.9822 -0.0000 -0.1881
vn 0.6087 -0.0000 -0.7934
vn 0.2855 -0.0000 0.9584
vn 0.3078 -0.0000 0.9515
vn 0.9692 -0.0000 0.2462
vt 0.000000 0.000000
s 0
f 13/1/1 12/1/1 8/1/1
f 12/1/2 17/1/2 11/1/2
f 13/1/3 18/1/3 12/1/3
f 14/1/4 19/1/4 13/1/4
f 15/1/5 20/1/5 14/1/5
f 16/1/6 21/1/6 15/1/6
f 10/1/7 24/1/7 9/1/7
f 4/1/8 25/1/8 10/1/8
f 9/1/9 22/1/9 16/1/9
f 7/1/1 6/1/1 5/1/1
f 5/1/1 4/1/1 10/1/1
f 10/1/1 9/1/1 16/1/1
f 15/1/1 14/1/1 13/1/1
f 10/1/1 16/1/1 5/1/1
f 16/1/1 15/1/1 5/1/1
f 7/1/1 5/1/1 15/1/1
f 2/1/1 3/1/1 1/1/1
f 3/1/1 7/1/1 13/1/1
f 8/1/1 3/1/1 13/1/1
f 8/1/1 1/1/1 3/1/1
f 12/1/1 11/1/1 8/1/1
f 15/1/1 13/1/1 7/1/1
f 12/1/2 18/1/2 17/1/2
f 13/1/3 19/1/3 18/1/3
f 14/1/4 20/1/4 19/1/4
f 15/1/5 21/1/5 20/1/5
f 16/1/6 22/1/6 21/1/6
f 10/1/7 25/1/7 24/1/7
f 4/1/8 23/1/8 25/1/8
f 9/1/9 24/1/9 22/1/9
