# Blender 4.5.1 LTS
# www.blender.org
o province_133
v 18.572083 0.045516 -2.024887
v 18.416679 0.045516 -2.594692
v 18.558239 0.045516 -2.736250
v 18.774740 0.045516 -3.044348
v 19.157780 0.045516 -3.085983
v 19.449224 0.045516 -3.310812
v 19.699036 0.045516 -3.177580
v 19.765652 0.045516 -2.919444
v 19.948845 0.045516 -2.536402
v 20.465118 0.045516 -2.328228
v 20.856485 0.045516 -2.219977
v 20.898121 0.045516 -2.045111
v 21.164585 0.045516 -1.778647
v 21.131279 0.045516 -1.395606
v 20.906450 0.045516 -1.179105
v 20.456791 0.045516 -1.412260
v 19.948849 0.045516 -1.495529
v 19.682383 0.045516 -1.670396
v 18.572083 -0.094484 -2.024887
v 20.906450 -0.094484 -1.179105
v 20.456791 -0.094484 -1.412260
v 19.948849 -0.094484 -1.495529
v 19.682383 -0.094484 -1.670396
vn -0.4603 -0.0000 0.8878
vn -0.3041 -0.0000 0.9526
vn -0.5487 -0.0000 0.8360
vn -0.0000 1.0000 -0.0000
vn -0.1618 -0.0000 0.9868
vt 0.000000 0.000000
s 1
f 21/1/1 15/1/1 16/1/1
s 2
f 18/1/2 19/1/2 23/1/2
s 3
f 23/1/3 17/1/3 18/1/3
s 4
f 10/1/4 9/1/4 18/1/4
s 5
f 22/1/5 16/1/5 17/1/5
s 1
f 21/1/1 20/1/1 15/1/1
s 2
f 18/1/2 1/1/2 19/1/2
s 3
f 23/1/3 22/1/3 17/1/3
s 4
f 8/1/4 7/1/4 5/1/4
f 7/1/4 6/1/4 5/1/4
f 5/1/4 4/1/4 3/1/4
f 9/1/4 8/1/4 5/1/4
f 5/1/4 3/1/4 1/1/4
f 3/1/4 2/1/4 1/1/4
f 1/1/4 18/1/4 9/1/4
f 18/1/4 17/1/4 10/1/4
f 17/1/4 16/1/4 10/1/4
f 16/1/4 15/1/4 14/1/4
f 14/1/4 13/1/4 16/1/4
f 13/1/4 12/1/4 16/1/4
f 12/1/4 11/1/4 10/1/4
f 9/1/4 5/1/4 1/1/4
f 12/1/4 10/1/4 16/1/4
s 5
f 22/1/5 21/1/5 16/1/5
