# Blender 4.5.1 LTS
# www.blender.org
mtllib province_086.mtl
o province_086
v 0.222028 0.006502 -1.660703
v 0.309390 0.006502 -1.641861
v 0.395039 0.006502 -1.652138
v 0.466984 0.006502 -1.592184
v 0.568050 0.006502 -1.652138
v 0.568050 0.006502 -1.708667
v 0.598883 0.006502 -1.729223
v 0.530364 0.006502 -1.794316
v 0.425873 0.006502 -1.782325
v 0.338511 0.006502 -1.823436
v 0.258001 0.006502 -1.820010
v 0.210037 0.006502 -1.876539
v 0.194621 0.006502 -1.979317
v 0.040453 0.006502 -1.945058
v -0.134271 0.006502 -1.850844
v -0.214781 0.006502 -1.833714
v -0.250700 0.006502 -1.804466
v -0.106812 0.006502 -1.736755
v -0.075052 0.006502 -1.679919
v -0.040465 0.006502 -1.672714
v 0.137848 0.006502 -1.590298
v 0.046509 0.006502 -1.672628
v -0.106812 -0.013498 -1.736755
v -0.075052 -0.013498 -1.679919
v -0.040465 -0.013498 -1.672714
v 0.137848 -0.013498 -1.590298
v 0.046509 -0.013498 -1.672628
v 0.194621 -0.013498 -1.979317
v 0.040453 -0.013498 -1.945058
v -0.134271 -0.013498 -1.850844
v -0.214781 -0.013498 -1.833714
v -0.250700 -0.013498 -1.804466
vn -0.0010 -0.0000 1.0000
vn -0.6695 -0.0000 0.7428
vn -0.2040 -0.0000 0.9790
vn -0.8729 -0.0000 0.4878
vn -0.4258 -0.0000 0.9048
vn -0.0000 1.0000 -0.0000
vn -0.6314 -0.0000 -0.7754
vn -0.2169 -0.0000 -0.9762
vn -0.4746 -0.0000 -0.8802
vn -0.2081 -0.0000 -0.9781
vt 0.000000 0.000000
s 0
f 20/1/1 27/1/1 22/1/1
f 22/1/2 26/1/2 21/1/2
f 19/1/3 25/1/3 20/1/3
f 18/1/4 24/1/4 19/1/4
f 17/1/5 23/1/5 18/1/5
f 9/1/6 10/1/6 3/1/6
f 16/1/7 32/1/7 17/1/7
f 13/1/8 29/1/8 14/1/8
f 14/1/9 30/1/9 15/1/9
f 15/1/10 31/1/10 16/1/10
f 20/1/1 25/1/1 27/1/1
f 22/1/2 27/1/2 26/1/2
f 19/1/3 24/1/3 25/1/3
f 18/1/4 23/1/4 24/1/4
f 17/1/5 32/1/5 23/1/5
f 18/1/6 19/1/6 20/1/6
f 22/1/6 21/1/6 1/1/6
f 18/1/6 20/1/6 22/1/6
f 16/1/6 17/1/6 18/1/6
f 13/1/6 14/1/6 12/1/6
f 14/1/6 15/1/6 18/1/6
f 15/1/6 16/1/6 18/1/6
f 18/1/6 22/1/6 14/1/6
f 22/1/6 1/1/6 11/1/6
f 1/1/6 2/1/6 11/1/6
f 2/1/6 3/1/6 10/1/6
f 11/1/6 2/1/6 10/1/6
f 3/1/6 4/1/6 6/1/6
f 4/1/6 5/1/6 6/1/6
f 6/1/6 7/1/6 8/1/6
f 22/1/6 11/1/6 12/1/6
f 12/1/6 14/1/6 22/1/6
f 3/1/6 6/1/6 9/1/6
f 6/1/6 8/1/6 9/1/6
f 16/1/7 31/1/7 32/1/7
f 13/1/8 28/1/8 29/1/8
f 14/1/9 29/1/9 30/1/9
f 15/1/10 30/1/10 31/1/10
