# Blender 4.5.1 LTS
# www.blender.org
o province_025
v 2.229748 0.045516 -1.413018
v 2.519526 0.045516 -1.992576
v 2.599466 0.045516 -2.412256
v 3.119069 0.045516 -2.322324
v 3.558733 0.045516 -2.722019
v 2.271383 0.045516 -1.197905
v 2.049330 0.045516 -0.961974
v 4.311492 0.045516 0.863022
v 4.235161 0.045516 0.342586
v 3.596760 0.045516 0.120533
v 3.555125 0.045516 -0.212545
v 2.632219 0.045516 -0.524807
v 4.818049 0.045516 0.710361
v 5.539721 0.045516 1.189162
v 7.565952 0.045516 1.175283
v 7.232872 0.045516 0.890778
v 6.712437 0.045516 0.273194
v 6.240575 0.045516 0.065020
v 5.928314 0.045516 -0.545625
v 5.602174 0.045516 -1.010548
v 5.851983 0.045516 -1.413018
v 5.720140 0.045516 -1.940393
v 6.261393 0.045516 -2.217959
v 6.337723 0.045516 -2.689821
v 3.818813 0.045516 -2.662065
v 5.782131 0.045516 1.429271
v 6.469915 0.045516 1.158229
v 7.029250 0.045516 1.425744
v 5.743920 0.045516 -3.089729
v 5.112158 0.045516 -2.697317
v 4.103638 0.045516 -3.048107
v 3.994577 0.045516 -3.147590
v 5.782131 -0.094484 1.429271
v 3.994577 -0.094484 -3.147590
v 4.103638 -0.094484 -3.048107
v 6.469915 -0.094484 1.158229
v 7.029250 -0.094484 1.425744
v 5.743920 -0.094484 -3.089729
v 5.112158 -0.094484 -2.697317
vn -0.5276 -0.0000 -0.8495
vn 0.3666 -0.0000 0.9304
vn 0.6739 -0.0000 -0.7388
vn -0.0000 1.0000 -0.0000
vn -0.4315 -0.0000 0.9021
vn 0.3285 -0.0000 -0.9445
vt 0.000000 0.000000
s 1
f 38/1/1 30/1/1 29/1/1
s 2
f 33/1/2 27/1/2 26/1/2
s 3
f 35/1/3 32/1/3 31/1/3
s 4
f 14/1/4 27/1/4 18/1/4
s 5
f 36/1/5 28/1/5 27/1/5
s 6
f 39/1/6 31/1/6 30/1/6
s 1
f 38/1/1 39/1/1 30/1/1
s 2
f 33/1/2 36/1/2 27/1/2
s 3
f 35/1/3 34/1/3 32/1/3
s 4
f 6/1/4 7/1/4 12/1/4
f 11/1/4 10/1/4 9/1/4
f 6/1/4 12/1/4 4/1/4
f 12/1/4 11/1/4 4/1/4
f 6/1/4 4/1/4 2/1/4
f 2/1/4 1/1/4 6/1/4
f 4/1/4 3/1/4 2/1/4
f 25/1/4 5/1/4 4/1/4
f 31/1/4 32/1/4 25/1/4
f 24/1/4 29/1/4 23/1/4
f 29/1/4 30/1/4 22/1/4
f 23/1/4 29/1/4 22/1/4
f 30/1/4 31/1/4 25/1/4
f 25/1/4 4/1/4 11/1/4
f 9/1/4 8/1/4 13/1/4
f 11/1/4 9/1/4 20/1/4
f 25/1/4 20/1/4 30/1/4
f 20/1/4 21/1/4 22/1/4
f 25/1/4 11/1/4 20/1/4
f 9/1/4 13/1/4 19/1/4
f 20/1/4 9/1/4 19/1/4
f 20/1/4 22/1/4 30/1/4
f 18/1/4 19/1/4 13/1/4
f 16/1/4 17/1/4 27/1/4
f 17/1/4 18/1/4 27/1/4
f 28/1/4 15/1/4 16/1/4
f 14/1/4 26/1/4 27/1/4
f 27/1/4 28/1/4 16/1/4
f 13/1/4 14/1/4 18/1/4
s 5
f 36/1/5 37/1/5 28/1/5
s 6
f 39/1/6 35/1/6 31/1/6
