# Blender 4.5.1 LTS
# www.blender.org
mtllib province_184.mtl
o province_184
v -0.315508 0.001999 0.264074
v -0.306801 0.001999 0.267214
v -0.299949 0.001999 0.274637
v -0.290527 0.001999 0.277492
v -0.284532 0.001999 0.274351
v -0.282962 0.001999 0.269070
v -0.279821 0.001999 0.260362
v -0.283104 0.001999 0.251512
v -0.314937 0.001999 0.259791
v -0.309227 0.001999 0.254938
v -0.314366 0.001999 0.249371
v -0.314081 0.001999 0.245516
v -0.279750 0.001999 0.248252
v -0.308253 0.001999 0.239689
v -0.286292 0.001999 0.242551
v -0.290674 0.001999 0.243865
v -0.298392 0.001999 0.243393
v -0.301372 0.001999 0.239845
v -0.282458 0.001999 0.245455
v -0.273714 0.001999 0.244290
v -0.270262 0.001999 0.248558
v -0.277510 0.001999 0.244796
v -0.282458 -0.000001 0.245455
v -0.286292 -0.000001 0.242551
v -0.290674 -0.000001 0.243865
v -0.298392 -0.000001 0.243393
v -0.301372 -0.000001 0.239845
v -0.308253 -0.000001 0.239689
v -0.277510 -0.000001 0.244796
v -0.273714 -0.000001 0.244290
v -0.315508 -0.000001 0.264074
v -0.306801 -0.000001 0.267214
v -0.299949 -0.000001 0.274637
v -0.290527 -0.000001 0.277492
v -0.284532 -0.000001 0.274351
v -0.282962 -0.000001 0.269070
v -0.279821 -0.000001 0.260362
v -0.283104 -0.000001 0.251512
v -0.279750 -0.000001 0.248252
v -0.270262 -0.000001 0.248558
vn -0.0000 1.0000 -0.0000
vn 0.6039 -0.0000 -0.7971
vn -0.2873 -0.0000 -0.9578
vn 0.0611 -0.0000 -0.9981
vn 0.7657 -0.0000 -0.6432
vn 0.0227 -0.0000 -0.9997
vn -0.1322 -0.0000 -0.9912
vn 0.7776 -0.0000 -0.6287
vn -0.3393 -0.0000 0.9407
vn -0.7348 -0.0000 0.6783
vn -0.2900 -0.0000 0.9570
vn 0.4640 -0.0000 0.8858
vn 0.9585 -0.0000 0.2850
vn -0.0322 -0.0000 0.9995
vn 0.9407 -0.0000 0.3393
vn 0.9376 -0.0000 -0.3478
vn 0.6969 -0.0000 0.7172
vt 0.000000 0.000000
s 0
f 2/1/1 3/1/1 4/1/1 5/1/1 6/1/1 7/1/1 8/1/1 13/1/1 21/1/1 20/1/1 22/1/1 19/1/1 15/1/1 16/1/1 17/1/1 18/1/1 14/1/1 12/1/1 11/1/1 10/1/1 9/1/1 1/1/1
f 15/1/2 19/1/2 23/1/2 24/1/2
f 16/1/3 15/1/3 24/1/3 25/1/3
f 17/1/4 16/1/4 25/1/4 26/1/4
f 18/1/5 17/1/5 26/1/5 27/1/5
f 14/1/6 18/1/6 27/1/6 28/1/6
f 19/1/7 22/1/7 29/1/7 23/1/7
f 20/1/8 21/1/8 40/1/8 30/1/8
f 22/1/7 20/1/7 30/1/7 29/1/7
f 2/1/9 1/1/9 31/1/9 32/1/9
f 3/1/10 2/1/10 32/1/10 33/1/10
f 4/1/11 3/1/11 33/1/11 34/1/11
f 5/1/12 4/1/12 34/1/12 35/1/12
f 6/1/13 5/1/13 35/1/13 36/1/13
f 21/1/14 13/1/14 39/1/14 40/1/14
f 7/1/15 6/1/15 36/1/15 37/1/15
f 8/1/16 7/1/16 37/1/16 38/1/16
f 13/1/17 8/1/17 38/1/17 39/1/17
