# Blender 4.5.1 LTS
# www.blender.org
mtllib province_035.mtl
o province_035
v 0.299111 0.001999 0.403198
v 0.295828 0.001999 0.396631
v 0.302109 0.001999 0.387495
v 0.302537 0.001999 0.380929
v 0.298540 0.001999 0.372935
v 0.247368 0.001999 0.364803
v 0.250081 0.001999 0.357380
v 0.254934 0.001999 0.355096
v 0.258788 0.001999 0.360949
v 0.272920 0.001999 0.367230
v 0.288766 0.001999 0.367658
v 0.295987 0.001999 0.411197
v 0.260239 0.001999 0.390819
v 0.266038 0.001999 0.389990
v 0.266435 0.001999 0.396474
v 0.270929 0.001999 0.399095
v 0.269937 0.001999 0.403315
v 0.275146 0.001999 0.408042
v 0.279101 0.001999 0.405369
v 0.284801 0.001999 0.405654
v 0.288295 0.001999 0.410112
v 0.254386 0.001999 0.386585
v 0.254154 0.001999 0.381588
v 0.258265 0.001999 0.377917
v 0.256763 0.001999 0.371912
v 0.245619 0.001999 0.369768
v 0.243719 0.001999 0.366842
v 0.295987 -0.000001 0.411197
v 0.260239 -0.000001 0.390819
v 0.266038 -0.000001 0.389990
v 0.266435 -0.000001 0.396474
v 0.270929 -0.000001 0.399095
v 0.269937 -0.000001 0.403315
v 0.275146 -0.000001 0.408042
v 0.279101 -0.000001 0.405369
v 0.284801 -0.000001 0.405654
v 0.288295 -0.000001 0.410112
v 0.254386 -0.000001 0.386585
v 0.254154 -0.000001 0.381588
v 0.258265 -0.000001 0.377917
v 0.256763 -0.000001 0.371912
v 0.245619 -0.000001 0.369768
v 0.243719 -0.000001 0.366842
v 0.298540 -0.000001 0.372935
v 0.254934 -0.000001 0.355096
v 0.258788 -0.000001 0.360949
v 0.272920 -0.000001 0.367230
v 0.288766 -0.000001 0.367658
vn -0.5861 -0.0000 0.8102
vn -0.1397 -0.0000 0.9902
vn -0.7871 -0.0000 0.6169
vn -0.0499 -0.0000 0.9988
vn 0.5599 -0.0000 0.8286
vn -0.6720 -0.0000 0.7406
vn -0.9734 -0.0000 -0.2290
vn -0.5039 -0.0000 0.8638
vn -0.9981 -0.0000 0.0611
vn 0.1414 -0.0000 0.9899
vn -0.8387 -0.0000 0.5446
vn -0.1888 -0.0000 0.9820
vn -0.9701 -0.0000 0.2425
vn -0.0000 1.0000 -0.0000
vn -0.9989 -0.0000 0.0465
vn -0.6660 -0.0000 -0.7459
vn 0.8352 -0.0000 -0.5500
vn 0.4061 -0.0000 -0.9138
vn 0.0270 -0.0000 -0.9996
vn 0.4751 -0.0000 -0.8800
vt 0.000000 0.000000
s 0
f 13/1/1 22/1/1 38/1/1 29/1/1
f 12/1/2 21/1/2 37/1/2 28/1/2
f 21/1/3 20/1/3 36/1/3 37/1/3
f 20/1/4 19/1/4 35/1/4 36/1/4
f 19/1/5 18/1/5 34/1/5 35/1/5
f 18/1/6 17/1/6 33/1/6 34/1/6
f 17/1/7 16/1/7 32/1/7 33/1/7
f 16/1/8 15/1/8 31/1/8 32/1/8
f 15/1/9 14/1/9 30/1/9 31/1/9
f 14/1/10 13/1/10 29/1/10 30/1/10
f 26/1/11 27/1/11 43/1/11 42/1/11
f 25/1/12 26/1/12 42/1/12 41/1/12
f 24/1/13 25/1/13 41/1/13 40/1/13
f 5/1/14 11/1/14 10/1/14 9/1/14 8/1/14 7/1/14 6/1/14 27/1/14 26/1/14 25/1/14 24/1/14 23/1/14 22/1/14 13/1/14 14/1/14 15/1/14 16/1/14 17/1/14 18/1/14 19/1/14 20/1/14 21/1/14 12/1/14 1/1/14 2/1/14 3/1/14 4/1/14
f 22/1/15 23/1/15 39/1/15 38/1/15
f 23/1/16 24/1/16 40/1/16 39/1/16
f 8/1/17 9/1/17 46/1/17 45/1/17
f 9/1/18 10/1/18 47/1/18 46/1/18
f 10/1/19 11/1/19 48/1/19 47/1/19
f 11/1/20 5/1/20 44/1/20 48/1/20
