# Blender 4.5.1 LTS
# www.blender.org
mtllib province_134.mtl
o province_134
v 0.288797 0.001999 0.039623
v 0.296938 0.001999 0.049243
v 0.290691 0.001999 0.009518
v 0.286374 0.001999 0.016918
v 0.291102 0.001999 0.024318
v 0.297474 0.001999 0.030896
v 0.296014 0.001999 0.035259
v 0.298091 0.001999 0.008490
v 0.319791 0.001999 0.022757
v 0.312891 0.001999 0.022519
v 0.307657 0.001999 0.020735
v 0.303256 0.001999 0.020378
v 0.300876 0.001999 0.015739
v 0.302423 0.001999 0.011218
v 0.288466 0.001999 0.043719
v 0.298960 0.001999 0.047220
v 0.302053 0.001999 0.042819
v 0.307525 0.001999 0.042224
v 0.311688 0.001999 0.039012
v 0.316328 0.001999 0.034611
v 0.320848 0.001999 0.033659
v 0.322989 0.001999 0.030329
v 0.320729 0.001999 0.027355
vn -0.0000 1.0000 -0.0000
vt 0.000000 0.000000
s 0
f 2/1/1 16/1/1 17/1/1 18/1/1 19/1/1 20/1/1 21/1/1 22/1/1 23/1/1 9/1/1 10/1/1 11/1/1 12/1/1 13/1/1 14/1/1 8/1/1 3/1/1 4/1/1 5/1/1 6/1/1 7/1/1 1/1/1 15/1/1
