# Blender 4.5.1 LTS
# www.blender.org
mtllib province_016.mtl
o province_016
v 0.016590 0.001999 0.078971
v 0.004314 0.001999 0.078115
v 0.000602 0.001999 0.075117
v -0.007534 0.001999 0.032007
v 0.002030 0.001999 0.033292
v 0.008311 0.001999 0.036004
v 0.013450 0.001999 0.032150
v 0.020159 0.001999 0.033434
v 0.018018 0.001999 0.039144
v 0.015591 0.001999 0.040857
v 0.019302 0.001999 0.046710
v 0.019302 0.001999 0.052563
v 0.028296 0.001999 0.061556
v 0.026154 0.001999 0.066409
v 0.024584 0.001999 0.071834
v -0.011005 0.001999 0.065499
v -0.016922 0.001999 0.053947
v -0.014734 0.001999 0.048887
v -0.015502 0.001999 0.036738
v -0.009667 0.001999 0.074103
v -0.011005 -0.000001 0.065499
v -0.016922 -0.000001 0.053947
v -0.014734 -0.000001 0.048887
v -0.015502 -0.000001 0.036738
v -0.009667 -0.000001 0.074103
vn -0.9881 -0.0000 0.1536
vn -0.9980 -0.0000 0.0631
vn -0.9179 -0.0000 -0.3969
vn -0.8900 -0.0000 0.4559
vn -0.0000 1.0000 -0.0000
vt 0.000000 0.000000
s 0
f 20/1/1 16/1/1 21/1/1 25/1/1
f 18/1/2 19/1/2 24/1/2 23/1/2
f 17/1/3 18/1/3 23/1/3 22/1/3
f 16/1/4 17/1/4 22/1/4 21/1/4
f 4/1/5 19/1/5 18/1/5 17/1/5 16/1/5 20/1/5 3/1/5 2/1/5 1/1/5 15/1/5 14/1/5 13/1/5 12/1/5 11/1/5 10/1/5 9/1/5 8/1/5 7/1/5 6/1/5 5/1/5
