# Blender 4.5.1 LTS
# www.blender.org
mtllib province_007.mtl
o province_007
v 0.511122 0.001999 0.354423
v 0.528882 0.001999 0.366757
v 0.519015 0.001999 0.364783
v 0.507553 0.001999 0.352425
v 0.478718 0.001999 0.353424
v 0.467584 0.001999 0.362845
v 0.457448 0.001999 0.364844
v 0.459732 0.001999 0.372838
v 0.454593 0.001999 0.376406
v 0.454736 0.001999 0.381117
v 0.464586 0.001999 0.389111
v 0.466299 0.001999 0.394964
v 0.462016 0.001999 0.398961
v 0.469154 0.001999 0.405527
v 0.477576 0.001999 0.405099
v 0.484999 0.001999 0.398390
v 0.497846 0.001999 0.396677
v 0.510265 0.001999 0.382259
v 0.523113 0.001999 0.379119
v 0.528252 0.001999 0.374265
v 0.511122 -0.000001 0.354423
v 0.507553 -0.000001 0.352425
v 0.478718 -0.000001 0.353424
v 0.467584 -0.000001 0.362845
v 0.457448 -0.000001 0.364844
vn -0.0000 1.0000 -0.0000
vn 0.4886 -0.0000 -0.8725
vn -0.0346 -0.0000 -0.9994
vn -0.6459 -0.0000 -0.7634
vn -0.1935 -0.0000 -0.9811
vt 0.000000 0.000000
s 0
f 20/1/1 2/1/1 3/1/1 1/1/1 4/1/1 5/1/1 6/1/1 7/1/1 8/1/1 9/1/1 10/1/1 11/1/1 12/1/1 13/1/1 14/1/1 15/1/1 16/1/1 17/1/1 18/1/1 19/1/1
f 4/1/2 1/1/2 21/1/2 22/1/2
f 5/1/3 4/1/3 22/1/3 23/1/3
f 6/1/4 5/1/4 23/1/4 24/1/4
f 7/1/5 6/1/5 24/1/5 25/1/5
