# Blender 4.5.1 LTS
# www.blender.org
mtllib province_131.mtl
o province_131
v 0.267956 0.001999 -0.010463
v 0.270012 0.001999 0.000843
v 0.263228 0.001999 0.008449
v 0.256856 0.001999 0.012149
v 0.257884 0.001999 0.017904
v 0.262897 0.001999 0.027783
v 0.276919 0.001999 -0.015149
v 0.274491 0.001999 0.037156
v 0.288797 0.001999 0.039623
v 0.276096 0.001999 -0.007955
v 0.279796 0.001999 -0.001171
v 0.288224 0.001999 0.001706
v 0.290691 0.001999 0.009518
v 0.286374 0.001999 0.016918
v 0.291102 0.001999 0.024318
v 0.297474 0.001999 0.030896
v 0.270544 0.001999 0.031030
v 0.296014 0.001999 0.035259
vn -0.0000 1.0000 -0.0000
vt 0.000000 0.000000
s 0
f 8/1/1 9/1/1 18/1/1 16/1/1 15/1/1 14/1/1 13/1/1 12/1/1 11/1/1 10/1/1 7/1/1 1/1/1 2/1/1 3/1/1 4/1/1 5/1/1 6/1/1 17/1/1
