# Blender 4.5.1 LTS
# www.blender.org
mtllib province_144.mtl
o province_144
v 3.368630 0.006502 -0.156453
v 3.312102 0.006502 -0.190712
v 3.264138 0.006502 -0.224972
v 3.195619 0.006502 -0.271222
v 3.226453 0.006502 -0.298630
v 3.236731 0.006502 -0.370575
v 3.215319 0.006502 -0.250667
v 3.276129 0.006502 -0.363723
v 3.375482 0.006502 -0.385992
v 3.433724 0.006502 -0.440807
v 3.505669 0.006502 -0.459650
v 3.574188 0.006502 -0.541873
v 3.620439 0.006502 -0.480206
v 3.606735 0.006502 -0.411687
v 3.622152 0.006502 -0.351732
v 3.582753 0.006502 -0.272935
v 3.498817 0.006502 -0.221546
v 3.479974 0.006502 -0.255806
v 3.449140 0.006502 -0.271222
v 3.411455 0.006502 -0.230111
v 3.425159 0.006502 -0.168444
vn -0.0000 1.0000 -0.0000
vt 0.000000 0.000000
s 0
f 13/1/1 12/1/1 11/1/1
f 2/1/1 1/1/1 20/1/1
f 1/1/1 21/1/1 20/1/1
f 4/1/1 7/1/1 5/1/1
f 7/1/1 3/1/1 5/1/1
f 3/1/1 2/1/1 20/1/1
f 3/1/1 20/1/1 8/1/1
f 20/1/1 19/1/1 9/1/1
f 8/1/1 6/1/1 5/1/1
f 11/1/1 10/1/1 19/1/1
f 10/1/1 9/1/1 19/1/1
f 9/1/1 8/1/1 20/1/1
f 8/1/1 5/1/1 3/1/1
f 18/1/1 17/1/1 16/1/1
f 19/1/1 18/1/1 11/1/1
f 18/1/1 16/1/1 11/1/1
f 16/1/1 15/1/1 11/1/1
f 15/1/1 14/1/1 11/1/1
f 14/1/1 13/1/1 11/1/1
