# Blender 4.5.1 LTS
# www.blender.org
o province_174
v -31.004091 0.045516 -9.128818
v -28.253498 0.045516 -7.835536
v -28.483719 0.045516 -8.166483
v -28.958557 0.045516 -8.065761
v -29.145611 0.045516 -7.878703
v -29.634838 0.045516 -7.878703
v -29.994562 0.045516 -7.763591
v -30.152843 0.045516 -7.921870
v -30.483788 0.045516 -8.008204
v -30.598902 0.045516 -8.238428
v -30.929848 0.045516 -8.497429
v -31.016180 0.045516 -8.770820
v -29.101290 0.045516 -10.455960
v -28.429806 0.045516 -10.407997
v -28.142025 0.045516 -10.084246
v -28.130033 0.045516 -9.556650
v -27.770309 0.045516 -9.364798
v -27.434566 0.045516 -9.268870
v -27.542482 0.045516 -8.633358
v -27.794289 0.045516 -8.453495
v -27.650400 0.045516 -8.009835
v -30.830362 0.045516 -9.363106
v -30.951132 0.045516 -9.442076
v -30.465708 0.045516 -9.203569
v -29.839602 0.045516 -9.471900
v -29.609507 0.045516 -9.678987
v -29.449446 0.045516 -10.021976
v -29.449446 0.045516 -10.388264
v -30.951132 -0.094484 -9.442076
v -30.830362 -0.094484 -9.363106
v -30.465708 -0.094484 -9.203569
v -29.839602 -0.094484 -9.471900
v -29.609507 -0.094484 -9.678987
v -29.449446 -0.094484 -10.021976
v -29.101290 -0.094484 -10.455960
v -28.429806 -0.094484 -10.407997
v -28.142025 -0.094484 -10.084246
v -28.130033 -0.094484 -9.556650
v -27.770309 -0.094484 -9.364798
v -27.434566 -0.094484 -9.268870
v -29.449446 -0.094484 -10.388264
vn -0.0000 1.0000 -0.0000
vn -1.0000 -0.0000 -0.0000
vn -0.3939 -0.0000 -0.9191
vn 0.0712 -0.0000 -0.9975
vn 0.2747 -0.0000 -0.9615
vn -0.6690 -0.0000 -0.7433
vn -0.9062 -0.0000 -0.4229
vn -0.1909 -0.0000 -0.9816
vn 0.4008 -0.0000 -0.9162
vn 0.7474 -0.0000 -0.6644
vn 0.5473 -0.0000 -0.8370
vn 0.5473 -0.0000 -0.8369
vn 0.9997 -0.0000 -0.0227
vn 0.4706 -0.0000 -0.8824
vt 0.000000 0.000000
s 1
f 25/1/1 24/1/1 8/1/1
s 2
f 41/1/2 27/1/2 28/1/2
s 3
f 32/1/3 24/1/3 25/1/3
s 4
f 36/1/4 13/1/4 14/1/4
s 5
f 40/1/5 17/1/5 18/1/5
s 6
f 33/1/6 25/1/6 26/1/6
s 7
f 34/1/7 26/1/7 27/1/7
s 8
f 35/1/8 28/1/8 13/1/8
s 9
f 31/1/9 22/1/9 24/1/9
s 10
f 37/1/10 14/1/10 15/1/10
s 11
f 30/1/11 23/1/11 22/1/12
s 12
f 38/1/13 15/1/13 16/1/13
s 13
f 39/1/14 16/1/14 17/1/14
s 1
f 3/1/1 2/1/1 20/1/1
f 2/1/1 21/1/1 20/1/1
f 20/1/1 19/1/1 17/1/1
f 19/1/1 18/1/1 17/1/1
f 6/1/1 5/1/1 4/1/1
f 4/1/1 3/1/1 16/1/1
f 3/1/1 20/1/1 16/1/1
f 16/1/1 15/1/1 14/1/1
f 20/1/1 17/1/1 16/1/1
f 6/1/1 4/1/1 25/1/1
f 26/1/1 16/1/1 27/1/1
f 8/1/1 7/1/1 6/1/1
f 10/1/1 9/1/1 8/1/1
f 12/1/1 11/1/1 24/1/1
f 11/1/1 10/1/1 24/1/1
f 23/1/1 1/1/1 22/1/1
f 1/1/1 12/1/1 24/1/1
f 22/1/1 1/1/1 24/1/1
f 10/1/1 8/1/1 24/1/1
f 8/1/1 6/1/1 25/1/1
f 16/1/1 26/1/1 4/1/1
f 16/1/1 14/1/1 27/1/1
f 14/1/1 13/1/1 27/1/1
f 13/1/1 28/1/1 27/1/1
f 4/1/1 26/1/1 25/1/1
s 2
f 41/1/2 34/1/2 27/1/2
s 3
f 32/1/3 31/1/3 24/1/3
s 4
f 36/1/4 35/1/4 13/1/4
s 5
f 40/1/5 39/1/5 17/1/5
s 6
f 33/1/6 32/1/6 25/1/6
s 7
f 34/1/7 33/1/7 26/1/7
s 8
f 35/1/8 41/1/8 28/1/8
s 9
f 31/1/9 30/1/9 22/1/9
s 10
f 37/1/10 36/1/10 14/1/10
s 11
f 30/1/11 29/1/11 23/1/11
s 12
f 38/1/13 37/1/13 15/1/13
s 13
f 39/1/14 38/1/14 16/1/14
