# Blender 4.5.1 LTS
# www.blender.org
mtllib province_021.mtl
o province_021
v 0.391613 0.006502 -0.711714
v 0.444715 0.006502 -0.742547
v 0.451567 0.006502 -0.833335
v 0.537216 0.006502 -0.859030
v 0.508390 0.006502 -0.388860
v 0.468421 0.006502 -0.430257
v 0.474131 0.006502 -0.490211
v 0.451291 0.006502 -0.513051
v 0.399902 0.006502 -0.511623
v 0.371878 0.006502 -0.591300
v 0.325673 0.006502 -0.638669
v 0.545545 0.006502 -0.380295
v 0.535789 0.006502 -0.804785
v 0.600025 0.006502 -0.774808
v 0.681392 0.006502 -0.806213
v 0.744201 0.006502 -0.750541
v 0.821285 0.006502 -0.716282
v 0.765613 0.006502 -0.644907
v 0.764186 0.006502 -0.542129
v 0.802952 0.006502 -0.460783
v 0.725158 0.006502 -0.412386
v 0.594073 0.006502 -0.457981
v 0.570654 0.006502 -0.449656
v 0.570654 -0.013498 -0.449656
v 0.594073 -0.013498 -0.457981
v 0.802952 -0.013498 -0.460783
v 0.725158 -0.013498 -0.412386
vn -0.3285 -0.0000 0.9445
vn 0.5282 -0.0000 0.8491
vn 0.3350 -0.0000 0.9422
vn -0.0000 1.0000 -0.0000
vt 0.000000 0.000000
s 0
f 22/1/1 27/1/1 21/1/1
f 21/1/2 26/1/2 20/1/2
f 23/1/3 25/1/3 22/1/3
f 18/1/4 14/1/4 22/1/4
f 22/1/1 25/1/1 27/1/1
f 21/1/2 27/1/2 26/1/2
f 23/1/3 24/1/3 25/1/3
f 13/1/4 4/1/4 3/1/4
f 2/1/4 1/1/4 10/1/4
f 1/1/4 11/1/4 10/1/4
f 13/1/4 3/1/4 2/1/4
f 16/1/4 15/1/4 14/1/4
f 14/1/4 13/1/4 2/1/4
f 10/1/4 9/1/4 8/1/4
f 7/1/4 6/1/4 23/1/4
f 6/1/4 5/1/4 23/1/4
f 2/1/4 10/1/4 8/1/4
f 5/1/4 12/1/4 23/1/4
f 2/1/4 8/1/4 14/1/4
f 8/1/4 7/1/4 22/1/4
f 14/1/4 8/1/4 22/1/4
f 16/1/4 14/1/4 18/1/4
f 18/1/4 17/1/4 16/1/4
f 21/1/4 20/1/4 19/1/4
f 19/1/4 18/1/4 22/1/4
f 22/1/4 21/1/4 19/1/4
f 7/1/4 23/1/4 22/1/4
