# Blender 4.5.1 LTS
# www.blender.org
o province_135
v 17.015350 0.045516 -7.102132
v 17.976536 0.045516 -7.522291
v 18.114672 0.045516 -7.758271
v 18.888800 0.045516 -7.617259
v 18.667208 0.045516 -7.536680
v 17.366442 0.045516 -7.412935
v 16.957796 0.045516 -6.598516
v 17.216799 0.045516 -6.123679
v 17.806749 0.045516 -5.922232
v 17.979416 0.045516 -5.375449
v 18.497423 0.045516 -5.447394
v 18.828369 0.045516 -5.735175
v 19.260040 0.045516 -5.965399
v 19.648544 0.045516 -6.325125
v 19.533432 0.045516 -6.713628
v 19.288818 0.045516 -6.728017
v 19.116150 0.045516 -6.915075
v 19.173706 0.045516 -7.274800
vn -0.0000 1.0000 -0.0000
vt 0.000000 0.000000
s 1
f 9/1/1 17/1/1 2/1/1
f 12/1/1 13/1/1 16/1/1
f 13/1/1 14/1/1 16/1/1
f 12/1/1 16/1/1 17/1/1
f 14/1/1 15/1/1 16/1/1
f 17/1/1 18/1/1 5/1/1
f 18/1/1 4/1/1 5/1/1
f 10/1/1 11/1/1 9/1/1
f 11/1/1 12/1/1 9/1/1
f 5/1/1 3/1/1 2/1/1
f 2/1/1 6/1/1 9/1/1
f 6/1/1 1/1/1 7/1/1
f 9/1/1 6/1/1 8/1/1
f 7/1/1 8/1/1 6/1/1
f 5/1/1 2/1/1 17/1/1
f 12/1/1 17/1/1 9/1/1
