# Blender 4.5.1 LTS
# www.blender.org
mtllib province_043.mtl
o province_043
v -0.604585 0.001999 -0.223163
v -0.588388 0.001999 -0.235524
v -0.581141 0.001999 -0.234245
v -0.569207 0.001999 -0.235098
v -0.564944 0.001999 -0.241918
v -0.555140 0.001999 -0.238508
v -0.548321 0.001999 -0.232114
v -0.538517 0.001999 -0.228704
v -0.532123 0.001999 -0.221884
v -0.532549 0.001999 -0.205261
v -0.541927 0.001999 -0.197588
v -0.558977 0.001999 -0.198014
v -0.573043 0.001999 -0.207818
v -0.587109 0.001999 -0.207392
v -0.596060 0.001999 -0.215917
v -0.604585 -0.000001 -0.223163
v -0.564944 -0.000001 -0.241918
v -0.555140 -0.000001 -0.238508
v -0.548321 -0.000001 -0.232114
v -0.538517 -0.000001 -0.228704
v -0.532123 -0.000001 -0.221884
v -0.532549 -0.000001 -0.205261
v -0.541927 -0.000001 -0.197588
v -0.558977 -0.000001 -0.198014
v -0.573043 -0.000001 -0.207818
v -0.587109 -0.000001 -0.207392
v -0.596060 -0.000001 -0.215917
vn -0.0000 1.0000 -0.0000
vn 0.6332 -0.0000 0.7740
vn -0.0250 -0.0000 0.9997
vn -0.5718 -0.0000 0.8204
vn 0.0303 -0.0000 0.9995
vn -0.6897 -0.0000 0.7241
vn -0.6476 -0.0000 0.7619
vn 0.3285 -0.0000 -0.9445
vn 0.6839 -0.0000 -0.7295
vn 0.7295 -0.0000 -0.6839
vn 0.9997 -0.0000 0.0256
vt 0.000000 0.000000
s 0
f 2/1/1 1/1/1 15/1/1 14/1/1 13/1/1 12/1/1 11/1/1 10/1/1 9/1/1 8/1/1 7/1/1 6/1/1 5/1/1 4/1/1 3/1/1
f 10/1/2 11/1/2 23/1/2 22/1/2
f 11/1/3 12/1/3 24/1/3 23/1/3
f 12/1/4 13/1/4 25/1/4 24/1/4
f 13/1/5 14/1/5 26/1/5 25/1/5
f 14/1/6 15/1/6 27/1/6 26/1/6
f 15/1/7 1/1/7 16/1/7 27/1/7
f 5/1/8 6/1/8 18/1/8 17/1/8
f 6/1/9 7/1/9 19/1/9 18/1/9
f 7/1/8 8/1/8 20/1/8 19/1/8
f 8/1/10 9/1/10 21/1/10 20/1/10
f 9/1/11 10/1/11 22/1/11 21/1/11
