# Blender 4.5.1 LTS
# www.blender.org
mtllib province_024.mtl
o province_024
v -2.142671 0.006502 1.108112
v -2.193228 0.006502 1.143799
v -1.841210 0.006502 1.198295
v -1.790083 0.006502 1.277982
v -1.752969 0.006502 1.333654
v -1.738694 0.006502 1.450707
v -1.770099 0.006502 1.510662
v -1.832908 0.006502 1.536356
v -1.947106 0.006502 1.532074
v -2.001350 0.006502 1.502097
v -2.065587 0.006502 1.539211
v -2.155518 0.006502 1.529219
v -1.990707 0.006502 1.172937
v -2.258576 0.006502 1.217979
v -2.218906 0.006502 1.263459
v -2.145226 0.006502 1.288721
v -2.140874 0.006502 1.348196
v -2.237700 0.006502 1.363237
v -2.200962 0.006502 1.436714
v -2.239035 0.006502 1.484578
v -2.258576 -0.013498 1.217979
v -2.218906 -0.013498 1.263459
v -2.145226 -0.013498 1.288721
v -2.140874 -0.013498 1.348196
v -2.237700 -0.013498 1.363237
v -2.200962 -0.013498 1.436714
v -2.142671 -0.013498 1.108112
v -1.841210 -0.013498 1.198295
v -1.790083 -0.013498 1.277982
v -1.752969 -0.013498 1.333654
v -1.738694 -0.013498 1.450707
v -1.770099 -0.013498 1.510662
v -1.832908 -0.013498 1.536356
v -1.947106 -0.013498 1.532074
v -2.001350 -0.013498 1.502097
v -2.065587 -0.013498 1.539211
v -2.155518 -0.013498 1.529219
v -1.990707 -0.013498 1.172937
v -2.239035 -0.013498 1.484578
vn -0.0000 1.0000 -0.0000
vn -0.7536 -0.0000 0.6573
vn -0.3243 -0.0000 0.9459
vn -0.9973 -0.0000 0.0730
vn -0.1535 -0.0000 -0.9881
vn -0.8944 -0.0000 0.4472
vn -0.7826 -0.0000 -0.6225
vn -0.4714 -0.0000 0.8819
vn 0.1672 -0.0000 -0.9859
vn 0.8417 -0.0000 -0.5400
vn 0.8320 -0.0000 -0.5547
vn 0.9926 -0.0000 -0.1211
vn 0.8858 -0.0000 0.4640
vn 0.3786 -0.0000 0.9255
vn -0.0375 -0.0000 0.9993
vn -0.4837 -0.0000 0.8752
vn 0.5003 -0.0000 0.8659
vn -0.1104 -0.0000 0.9939
vn 0.3924 -0.0000 -0.9198
vt 0.000000 0.000000
s 0
f 13/1/1 17/1/1 10/1/1
f 14/1/2 22/1/2 15/1/2
f 15/1/3 23/1/3 16/1/3
f 16/1/4 24/1/4 17/1/4
f 17/1/5 25/1/5 18/1/5
f 18/1/6 26/1/6 19/1/6
f 19/1/7 39/1/7 20/1/7
f 20/1/8 37/1/8 12/1/8
f 3/1/9 38/1/9 13/1/9
f 4/1/10 28/1/10 3/1/10
f 5/1/11 29/1/11 4/1/11
f 6/1/12 30/1/12 5/1/12
f 7/1/13 31/1/13 6/1/13
f 8/1/14 32/1/14 7/1/14
f 9/1/15 33/1/15 8/1/15
f 10/1/16 34/1/16 9/1/16
f 11/1/17 35/1/17 10/1/17
f 12/1/18 36/1/18 11/1/18
f 13/1/19 27/1/19 1/1/19
f 19/1/1 20/1/1 12/1/1
f 12/1/1 11/1/1 19/1/1
f 11/1/1 10/1/1 17/1/1
f 19/1/1 11/1/1 17/1/1
f 10/1/1 9/1/1 4/1/1
f 9/1/1 8/1/1 5/1/1
f 4/1/1 9/1/1 5/1/1
f 8/1/1 7/1/1 6/1/1
f 6/1/1 5/1/1 8/1/1
f 4/1/1 3/1/1 13/1/1
f 13/1/1 1/1/1 16/1/1
f 1/1/1 2/1/1 16/1/1
f 2/1/1 14/1/1 15/1/1
f 2/1/1 15/1/1 16/1/1
f 4/1/1 13/1/1 10/1/1
f 13/1/1 16/1/1 17/1/1
f 17/1/1 18/1/1 19/1/1
f 14/1/2 21/1/2 22/1/2
f 15/1/3 22/1/3 23/1/3
f 16/1/4 23/1/4 24/1/4
f 17/1/5 24/1/5 25/1/5
f 18/1/6 25/1/6 26/1/6
f 19/1/7 26/1/7 39/1/7
f 20/1/8 39/1/8 37/1/8
f 3/1/9 28/1/9 38/1/9
f 4/1/10 29/1/10 28/1/10
f 5/1/11 30/1/11 29/1/11
f 6/1/12 31/1/12 30/1/12
f 7/1/13 32/1/13 31/1/13
f 8/1/14 33/1/14 32/1/14
f 9/1/15 34/1/15 33/1/15
f 10/1/16 35/1/16 34/1/16
f 11/1/17 36/1/17 35/1/17
f 12/1/18 37/1/18 36/1/18
f 13/1/19 38/1/19 27/1/19
