# Blender 4.5.1 LTS
# www.blender.org
mtllib province_062.mtl
o province_062
v -3.133659 0.006502 1.533064
v -3.160782 0.006502 1.511652
v -3.115102 0.006502 1.468828
v -3.122240 0.006502 1.394599
v -3.069423 0.006502 1.356057
v -2.897618 0.006502 1.382806
v -2.957572 0.006502 1.367390
v -3.026091 0.006502 1.394797
v -2.706002 0.006502 1.602686
v -2.796409 0.006502 1.603875
v -2.868973 0.006502 1.581274
v -2.952243 0.006502 1.622909
v -3.065428 0.006502 1.554374
v -3.009962 0.006502 1.622977
v -3.120365 0.006502 1.561699
v -2.822542 0.006502 1.360725
v -2.782637 0.006502 1.402761
v -2.734973 0.006502 1.408978
v -2.711973 0.006502 1.391389
v -2.689983 0.006502 1.423796
v -2.705869 0.006502 1.466160
v -2.661418 0.006502 1.512464
v -2.639827 0.006502 1.577234
v -3.120365 -0.013498 1.561699
v -3.065428 -0.013498 1.554374
v -2.822542 -0.013498 1.360725
v -2.782637 -0.013498 1.402761
v -2.734973 -0.013498 1.408978
v -2.711973 -0.013498 1.391389
v -2.689983 -0.013498 1.423796
v -2.705869 -0.013498 1.466160
v -2.661418 -0.013498 1.512464
v -2.639827 -0.013498 1.577234
v -2.706002 -0.013498 1.602686
v -2.796409 -0.013498 1.603875
v -2.868973 -0.013498 1.581274
v -2.952243 -0.013498 1.622909
v -3.009962 -0.013498 1.622977
vn -0.0000 1.0000 -0.0000
vn -0.7776 -0.0000 0.6287
vn 0.1322 -0.0000 0.9912
vn 0.7252 -0.0000 -0.6885
vn 0.1293 -0.0000 -0.9916
vn -0.6075 -0.0000 -0.7944
vn 0.8275 -0.0000 -0.5615
vn 0.9363 -0.0000 0.3511
vn 0.7214 -0.0000 -0.6925
vn 0.9487 -0.0000 -0.3162
vn 0.0012 -0.0000 1.0000
vn 0.3590 -0.0000 0.9333
vn 0.0132 -0.0000 0.9999
vn -0.2974 -0.0000 0.9548
vn 0.4472 -0.0000 0.8944
vt 0.000000 0.000000
s 0
f 13/1/1 12/1/1 11/1/1
f 13/1/2 38/1/2 14/1/2
f 15/1/3 25/1/3 13/1/3
f 17/1/4 26/1/4 16/1/4
f 18/1/5 27/1/5 17/1/5
f 19/1/6 28/1/6 18/1/6
f 20/1/7 29/1/7 19/1/7
f 21/1/8 30/1/8 20/1/8
f 22/1/9 31/1/9 21/1/9
f 23/1/10 32/1/10 22/1/10
f 14/1/11 37/1/11 12/1/11
f 9/1/12 33/1/12 23/1/12
f 10/1/13 34/1/13 9/1/13
f 11/1/14 35/1/14 10/1/14
f 12/1/15 36/1/15 11/1/15
f 8/1/1 5/1/1 4/1/1
f 3/1/1 2/1/1 1/1/1
f 8/1/1 4/1/1 3/1/1
f 6/1/1 7/1/1 8/1/1
f 17/1/1 16/1/1 6/1/1
f 20/1/1 19/1/1 18/1/1
f 17/1/1 6/1/1 11/1/1
f 6/1/1 8/1/1 11/1/1
f 20/1/1 18/1/1 21/1/1
f 18/1/1 17/1/1 21/1/1
f 23/1/1 22/1/1 9/1/1
f 22/1/1 21/1/1 9/1/1
f 8/1/1 3/1/1 13/1/1
f 3/1/1 1/1/1 13/1/1
f 1/1/1 15/1/1 13/1/1
f 13/1/1 14/1/1 12/1/1
f 21/1/1 17/1/1 10/1/1
f 8/1/1 13/1/1 11/1/1
f 11/1/1 10/1/1 17/1/1
f 10/1/1 9/1/1 21/1/1
f 13/1/2 25/1/2 38/1/2
f 15/1/3 24/1/3 25/1/3
f 17/1/4 27/1/4 26/1/4
f 18/1/5 28/1/5 27/1/5
f 19/1/6 29/1/6 28/1/6
f 20/1/7 30/1/7 29/1/7
f 21/1/8 31/1/8 30/1/8
f 22/1/9 32/1/9 31/1/9
f 23/1/10 33/1/10 32/1/10
f 14/1/11 38/1/11 37/1/11
f 9/1/12 34/1/12 33/1/12
f 10/1/13 35/1/13 34/1/13
f 11/1/14 36/1/14 35/1/14
f 12/1/15 37/1/15 36/1/15
