# Blender 4.5.1 LTS
# www.blender.org
o province_014
v -24.312958 0.045516 -0.743515
v -24.167236 0.045516 -0.500646
v -23.639862 0.045516 -0.500646
v -23.334539 0.045516 -0.243898
v -23.216576 0.045516 0.096119
v -22.633690 0.045516 0.109997
v -24.621056 0.045516 -0.601957
v -25.012421 0.045516 -0.568650
v -25.045731 0.045516 -0.110667
v -24.429535 0.045516 0.405604
v -24.604401 0.045516 0.996818
v -24.745960 0.045516 1.471454
v -23.771706 0.045516 2.070995
v -24.227133 0.045516 0.810634
v -24.216774 0.045516 0.530981
v -22.402607 0.045516 0.325674
v -23.240761 0.045516 1.545500
v -22.606167 0.045516 1.375680
v -22.377102 0.045516 0.902278
v -22.402607 -0.094484 0.325674
v -23.162647 -0.094484 1.842777
v -23.240761 -0.094484 1.545500
v -22.606167 -0.094484 1.375680
v -22.377102 -0.094484 0.902278
v -24.312958 -0.094484 -0.743515
v -24.621056 -0.094484 -0.601957
v -25.012421 -0.094484 -0.568650
v -25.045731 -0.094484 -0.110667
v -24.429535 -0.094484 0.405604
v -24.604401 -0.094484 0.996818
v -24.745960 -0.094484 1.471454
v -24.446188 -0.094484 2.137611
v -24.227133 -0.094484 0.810634
v -24.216774 -0.094484 0.530981
v -24.446188 0.045516 2.137611
v -23.593334 0.045516 2.004158
v -23.162647 0.045516 1.842777
vn -0.9119 -0.0000 0.4104
vn 0.9990 -0.0000 -0.0442
vn -0.9583 -0.0000 -0.2858
vn -0.4425 -0.0000 -0.8967
vn -0.4426 -0.0000 -0.8967
vn 0.9672 -0.0000 -0.2541
vn -0.9993 -0.0000 -0.0370
vn -0.4175 -0.0000 -0.9087
vn -0.9974 -0.0000 -0.0725
vn 0.2585 -0.0000 0.9660
vn 0.9002 -0.0000 0.4356
vn -0.0000 1.0000 -0.0000
vn -0.5077 -0.0000 0.8615
vn -0.0848 -0.0000 -0.9964
vn -0.6422 -0.0000 0.7665
vt 0.000000 0.000000
s 1
f 31/1/1 35/1/1 12/1/1
s 2
f 24/1/2 16/1/2 19/1/2
s 3
f 30/1/3 12/1/3 11/1/3
s 4
f 33/1/4 11/1/4 14/1/5
s 5
f 21/1/6 17/1/6 37/1/6
s 6
f 34/1/7 14/1/7 15/1/7
s 7
f 25/1/8 7/1/8 1/1/8
s 8
f 27/1/9 9/1/9 8/1/9
s 9
f 22/1/10 18/1/10 17/1/10
s 10
f 23/1/11 19/1/11 18/1/11
s 11
f 5/1/12 4/1/12 15/1/12
s 12
f 29/1/13 15/1/13 10/1/13
s 13
f 26/1/14 8/1/14 7/1/14
s 14
f 28/1/15 10/1/15 9/1/15
s 1
f 31/1/1 32/1/1 35/1/1
s 2
f 24/1/2 20/1/2 16/1/2
s 3
f 30/1/3 31/1/3 12/1/3
s 4
f 33/1/4 30/1/4 11/1/4
s 5
f 21/1/6 22/1/6 17/1/6
s 6
f 34/1/7 33/1/7 14/1/7
s 7
f 25/1/8 26/1/8 7/1/8
s 8
f 27/1/9 28/1/9 9/1/9
s 9
f 22/1/10 23/1/10 18/1/10
s 10
f 23/1/11 24/1/11 19/1/11
s 11
f 9/1/12 10/1/12 7/1/12
f 10/1/12 15/1/12 2/1/12
f 7/1/12 10/1/12 2/1/12
f 14/1/12 11/1/12 12/1/12
f 8/1/12 9/1/12 7/1/12
f 14/1/12 12/1/12 13/1/12
f 12/1/12 35/1/12 13/1/12
f 1/1/12 7/1/12 2/1/12
f 15/1/12 14/1/12 5/1/12
f 14/1/12 13/1/12 36/1/12
f 17/1/12 14/1/12 36/1/12
f 36/1/12 37/1/12 17/1/12
f 17/1/12 18/1/12 19/1/12
f 14/1/12 17/1/12 5/1/12
f 2/1/12 15/1/12 3/1/12
f 4/1/12 3/1/12 15/1/12
f 17/1/12 19/1/12 5/1/12
f 19/1/12 16/1/12 6/1/12
f 5/1/12 19/1/12 6/1/12
s 12
f 29/1/13 34/1/13 15/1/13
s 13
f 26/1/14 27/1/14 8/1/14
s 14
f 28/1/15 29/1/15 10/1/15
