# Blender 4.5.1 LTS
# www.blender.org
mtllib province_050.mtl
o province_050
v -0.317997 0.001999 -0.006533
v -0.309089 0.001999 -0.008589
v -0.307034 0.001999 -0.011672
v -0.281829 0.001999 -0.000885
v -0.285160 0.001999 -0.003383
v -0.288848 0.001999 -0.004097
v -0.292178 0.001999 -0.008617
v -0.297650 0.001999 -0.009212
v -0.300862 0.001999 -0.007190
v -0.305502 0.001999 -0.009212
v -0.315032 0.001999 0.019104
v -0.314794 0.001999 0.024220
v -0.312415 0.001999 0.027312
v -0.307300 0.001999 0.026480
v -0.303375 0.001999 0.028026
v -0.301590 0.001999 0.031595
v -0.295999 0.001999 0.034093
v -0.291241 0.001999 0.032309
v -0.281725 0.001999 0.026837
v -0.280297 0.001999 0.023744
v -0.280059 0.001999 0.017796
v -0.282557 0.001999 0.013038
v -0.280178 0.001999 0.009469
v -0.276609 0.001999 0.006971
v -0.276609 0.001999 0.003402
v -0.322643 0.001999 -0.001741
v -0.318751 0.001999 0.002671
v -0.318516 0.001999 0.005726
v -0.313166 0.001999 0.011075
v -0.315912 0.001999 0.017785
v -0.322643 -0.000001 -0.001741
v -0.318751 -0.000001 0.002671
v -0.318516 -0.000001 0.005726
v -0.313166 -0.000001 0.011075
v -0.315912 -0.000001 0.017785
vn -0.9255 -0.0000 -0.3787
vn -0.7071 -0.0000 0.7071
vn -0.9971 -0.0000 0.0767
vn -0.7498 -0.0000 0.6616
vn -0.0000 1.0000 -0.0000
vt 0.000000 0.000000
s 0
f 30/1/1 29/1/1 34/1/1 35/1/1
f 29/1/2 28/1/2 33/1/2 34/1/2
f 28/1/3 27/1/3 32/1/3 33/1/3
f 27/1/4 26/1/4 31/1/4 32/1/4
f 1/1/5 26/1/5 27/1/5 28/1/5 29/1/5 30/1/5 11/1/5 12/1/5 13/1/5 14/1/5 15/1/5 16/1/5 17/1/5 18/1/5 19/1/5 20/1/5 21/1/5 22/1/5 23/1/5 24/1/5 25/1/5 4/1/5 5/1/5 6/1/5 7/1/5 8/1/5 9/1/5 10/1/5 3/1/5 2/1/5
