# Blender 4.5.1 LTS
# www.blender.org
o province_101
v -9.228316 0.045516 5.725263
v -8.936872 0.045516 6.524653
v -8.395618 0.045516 6.449710
v -7.962615 0.045516 6.058342
v -7.246496 0.045516 6.466364
v -7.029994 0.045516 5.716937
v -6.621972 0.045516 5.433819
v -6.621972 0.045516 4.576140
v -7.121591 0.045516 4.601121
v -9.457820 0.045516 4.485163
v -9.599880 0.045516 4.802710
v -9.555672 0.045516 5.443738
v -7.350407 0.045516 4.459184
v -7.835956 0.045516 4.528290
v -8.379328 0.045516 4.705718
v -8.978782 0.045516 4.427097
v -9.457820 -0.094484 4.485163
v -9.599880 -0.094484 4.802710
v -7.350407 -0.094484 4.459184
v -7.835956 -0.094484 4.528290
v -8.379328 -0.094484 4.705718
v -8.978782 -0.094484 4.427097
v -9.228316 -0.094484 5.725263
v -8.936872 -0.094484 6.524653
v -9.555672 -0.094484 5.443738
vn -0.9976 -0.0000 0.0688
vn -0.9128 -0.0000 -0.4084
vn -0.0000 1.0000 -0.0000
vn -0.1203 -0.0000 -0.9927
vn -0.9395 -0.0000 0.3425
vn -0.1409 -0.0000 -0.9900
vn 0.4215 -0.0000 -0.9068
vn -0.6520 -0.0000 0.7582
vn -0.3104 -0.0000 -0.9506
vt 0.000000 0.000000
s 1
f 18/1/1 12/1/1 11/1/1
s 2
f 17/1/2 11/1/2 10/1/2
s 3
f 15/1/3 1/1/3 4/1/3
s 4
f 22/1/4 10/1/4 16/1/4
s 5
f 23/1/5 2/1/5 1/1/5
s 6
f 19/1/6 14/1/6 13/1/6
s 7
f 21/1/7 16/1/7 15/1/7
s 8
f 25/1/8 1/1/8 12/1/8
s 9
f 20/1/9 15/1/9 14/1/9
s 1
f 18/1/1 25/1/1 12/1/1
s 2
f 17/1/2 18/1/2 11/1/2
s 3
f 9/1/3 13/1/3 14/1/3
f 15/1/3 16/1/3 1/1/3
f 16/1/3 10/1/3 11/1/3
f 9/1/3 14/1/3 6/1/3
f 14/1/3 15/1/3 4/1/3
f 6/1/3 14/1/3 4/1/3
f 7/1/3 8/1/3 9/1/3
f 4/1/3 5/1/3 6/1/3
f 6/1/3 7/1/3 9/1/3
f 16/1/3 11/1/3 12/1/3
f 2/1/3 3/1/3 1/1/3
f 3/1/3 4/1/3 1/1/3
f 16/1/3 12/1/3 1/1/3
s 4
f 22/1/4 17/1/4 10/1/4
s 5
f 23/1/5 24/1/5 2/1/5
s 6
f 19/1/6 20/1/6 14/1/6
s 7
f 21/1/7 22/1/7 16/1/7
s 8
f 25/1/8 23/1/8 1/1/8
s 9
f 20/1/9 21/1/9 15/1/9
