# Blender 4.5.1 LTS
# www.blender.org
o province_053
v -19.955647 0.045516 2.848407
v -19.562431 0.045516 2.599755
v -19.394735 0.045516 2.432059
v -19.608692 0.045516 2.137146
v -19.273300 0.045516 1.512625
v -18.926342 0.045516 1.136755
v -19.122952 0.045516 0.888103
v -19.319559 0.045516 3.010321
v -19.001516 0.045516 3.397756
v -18.712385 0.045516 3.438233
v -17.341908 0.045516 3.334145
v -17.289864 0.045516 3.091275
v -17.099037 0.045516 2.842623
v -16.983385 0.045516 2.397362
v -17.214687 0.045516 1.981014
v -16.896645 0.045516 1.651405
v -16.994949 0.045516 1.292884
v -17.417080 0.045516 0.720405
v -17.746689 0.045516 0.841840
v -18.128340 0.045516 0.708840
v -18.388557 0.045516 0.737753
v -18.590950 0.045516 0.483319
v -18.845383 0.045516 0.772449
v -19.614473 0.045516 2.981408
v -18.272907 0.045516 3.212712
v -18.070515 0.045516 3.045016
v -17.798733 0.045516 3.085494
v -17.590559 0.045516 3.368841
vn -0.0000 1.0000 -0.0000
vt 0.000000 0.000000
s 1
f 8/1/1 9/1/1 10/1/1
f 27/1/1 28/1/1 12/1/1
f 28/1/1 11/1/1 12/1/1
f 12/1/1 13/1/1 27/1/1
f 13/1/1 14/1/1 15/1/1
f 27/1/1 13/1/1 15/1/1
f 10/1/1 25/1/1 8/1/1
f 25/1/1 26/1/1 3/1/1
f 8/1/1 25/1/1 3/1/1
f 26/1/1 27/1/1 15/1/1
f 15/1/1 16/1/1 17/1/1
f 17/1/1 18/1/1 19/1/1
f 19/1/1 20/1/1 21/1/1
f 21/1/1 22/1/1 23/1/1
f 23/1/1 7/1/1 6/1/1
f 6/1/1 5/1/1 26/1/1
f 5/1/1 4/1/1 3/1/1
f 5/1/1 3/1/1 26/1/1
f 21/1/1 23/1/1 6/1/1
f 17/1/1 19/1/1 15/1/1
f 19/1/1 21/1/1 6/1/1
f 15/1/1 19/1/1 6/1/1
f 15/1/1 6/1/1 26/1/1
f 2/1/1 1/1/1 24/1/1
f 3/1/1 2/1/1 8/1/1
f 2/1/1 24/1/1 8/1/1
