# Blender 4.5.1 LTS
# www.blender.org
mtllib province_181.mtl
o province_181
v 4.093498 0.006502 1.386529
v 4.161332 0.006502 1.458474
v 4.268222 0.006502 1.497530
v 3.977015 0.006502 1.050099
v 4.042109 0.006502 1.036395
v 4.091785 0.006502 0.986718
v 4.199703 0.006502 0.986718
v 4.233963 0.006502 0.952459
v 4.300769 0.006502 1.012413
v 4.371002 0.006502 0.995283
v 4.412114 0.006502 1.053525
v 4.355585 0.006502 1.134035
v 4.372715 0.006502 1.193990
v 4.406974 0.006502 1.241953
v 4.403548 0.006502 1.312186
v 4.424104 0.006502 1.370427
v 4.513179 0.006502 1.396122
v 4.528596 0.006502 1.474919
v 4.449799 0.006502 1.498901
v 4.324751 0.006502 1.442372
v 3.927393 0.006502 1.084559
v 3.878166 0.006502 1.139554
v 3.915822 0.006502 1.171830
v 4.023933 0.006502 1.190542
v 4.100759 0.006502 1.286575
v 4.091708 0.006502 1.305956
v 4.091708 -0.013498 1.305956
v 4.100759 -0.013498 1.286575
v 3.927393 -0.013498 1.084559
v 3.878166 -0.013498 1.139554
v 3.915822 -0.013498 1.171830
v 4.023933 -0.013498 1.190542
vn -0.7809 -0.0000 0.6247
vn -0.1705 -0.0000 0.9854
vn -0.6508 -0.0000 0.7593
vn -0.7451 -0.0000 -0.6670
vn -0.9061 -0.0000 -0.4232
vn -0.0000 1.0000 -0.0000
vn -0.9061 -0.0000 -0.4231
vt 0.000000 0.000000
s 0
f 24/1/1 28/1/1 25/1/1
f 23/1/2 32/1/2 24/1/2
f 22/1/3 31/1/3 23/1/3
f 21/1/4 30/1/4 22/1/4
f 25/1/5 27/1/5 26/1/5
f 12/1/6 9/1/6 7/1/6
f 24/1/1 32/1/1 28/1/1
f 23/1/2 31/1/2 32/1/2
f 22/1/3 30/1/3 31/1/3
f 21/1/4 29/1/4 30/1/4
f 25/1/7 28/1/7 27/1/7
f 20/1/6 19/1/6 16/1/6
f 19/1/6 18/1/6 17/1/6
f 16/1/6 19/1/6 17/1/6
f 15/1/6 14/1/6 13/1/6
f 15/1/6 13/1/6 25/1/6
f 13/1/6 12/1/6 25/1/6
f 20/1/6 16/1/6 15/1/6
f 2/1/6 3/1/6 20/1/6
f 26/1/6 1/1/6 25/1/6
f 1/1/6 2/1/6 25/1/6
f 2/1/6 20/1/6 25/1/6
f 20/1/6 15/1/6 25/1/6
f 12/1/6 11/1/6 9/1/6
f 11/1/6 10/1/6 9/1/6
f 9/1/6 8/1/6 7/1/6
f 7/1/6 6/1/6 5/1/6
f 5/1/6 4/1/6 24/1/6
f 4/1/6 21/1/6 24/1/6
f 21/1/6 22/1/6 23/1/6
f 24/1/6 25/1/6 7/1/6
f 25/1/6 12/1/6 7/1/6
f 21/1/6 23/1/6 24/1/6
f 7/1/6 5/1/6 24/1/6
