# Blender 4.5.1 LTS
# www.blender.org
o province_068
v -14.668044 0.045516 1.342506
v -15.001122 0.045516 1.502105
v -15.368896 0.045516 1.495166
v -13.952890 0.045516 -0.125737
v -13.593165 0.045516 0.032542
v -13.549999 0.045516 0.435434
v -12.873716 0.045516 0.665658
v -12.629104 0.045516 0.536156
v -12.370101 0.045516 0.608101
v -12.355712 0.045516 1.039771
v -12.701048 0.045516 1.313162
v -12.729825 0.045516 1.572163
v -12.298155 0.045516 2.349169
v -12.643491 0.045516 2.665727
v -12.701048 0.045516 2.967896
v -12.931272 0.045516 3.298842
v -13.463664 0.045516 3.342009
v -13.852167 0.045516 3.083007
v -14.384560 0.045516 2.939117
v -14.859397 0.045516 2.737671
v -14.267256 0.045516 -0.035918
v -14.096567 0.045516 0.320943
v -14.403625 0.045516 0.809085
v -14.553421 0.045516 0.928921
v -14.616394 0.045516 0.946520
v -15.473285 0.045516 1.870016
v -15.515635 0.045516 1.828151
v -15.316777 0.045516 2.214331
v -15.530317 0.045516 2.586304
v -15.323126 0.045516 3.006851
v -14.616394 -0.094484 0.946520
v -14.553421 -0.094484 0.928921
v -15.515635 -0.094484 1.828151
v -15.473285 -0.094484 1.870016
v -14.267256 -0.094484 -0.035918
v -14.096567 -0.094484 0.320943
v -14.403625 -0.094484 0.809085
v -15.316777 -0.094484 2.214331
v -15.530317 -0.094484 2.586304
v -15.323126 -0.094484 3.006851
vn -0.6247 -0.0000 -0.7809
vn -0.9104 -0.0000 0.4138
vn -0.7030 -0.0000 0.7112
vn -0.8970 -0.0000 0.4419
vn -0.8673 -0.0000 -0.4979
vn -0.8465 -0.0000 -0.5325
vn -0.0000 1.0000 -0.0000
vn -0.2692 -0.0000 -0.9631
vn -0.2691 -0.0000 -0.9631
vn -0.9021 -0.0000 0.4315
vt 0.000000 0.000000
s 1
f 37/1/1 24/1/1 23/1/1
s 2
f 34/1/2 28/1/2 26/1/2
s 3
f 33/1/3 26/1/3 27/1/3
s 4
f 39/1/4 30/1/4 29/1/4
s 5
f 38/1/5 29/1/5 28/1/5
s 6
f 36/1/6 23/1/6 22/1/6
s 7
f 14/1/7 12/1/7 18/1/7
s 8
f 32/1/8 25/1/8 24/1/9
s 9
f 35/1/10 22/1/10 21/1/10
s 1
f 37/1/1 32/1/1 24/1/1
s 2
f 34/1/2 38/1/2 28/1/2
s 3
f 33/1/3 34/1/3 26/1/3
s 4
f 39/1/4 40/1/4 30/1/4
s 5
f 38/1/5 39/1/5 29/1/5
s 6
f 36/1/6 37/1/6 23/1/6
s 7
f 2/1/7 3/1/7 26/1/7
f 3/1/7 27/1/7 26/1/7
f 24/1/7 25/1/7 1/1/7
f 1/1/7 2/1/7 20/1/7
f 2/1/7 26/1/7 28/1/7
f 28/1/7 29/1/7 20/1/7
f 29/1/7 30/1/7 20/1/7
f 2/1/7 28/1/7 20/1/7
f 23/1/7 24/1/7 1/1/7
f 4/1/7 21/1/7 22/1/7
f 22/1/7 23/1/7 6/1/7
f 23/1/7 1/1/7 12/1/7
f 6/1/7 12/1/7 11/1/7
f 20/1/7 19/1/7 1/1/7
f 19/1/7 18/1/7 1/1/7
f 5/1/7 4/1/7 22/1/7
f 12/1/7 6/1/7 23/1/7
f 18/1/7 17/1/7 14/1/7
f 17/1/7 16/1/7 15/1/7
f 14/1/7 17/1/7 15/1/7
f 1/1/7 18/1/7 12/1/7
f 6/1/7 5/1/7 22/1/7
f 9/1/7 8/1/7 10/1/7
f 8/1/7 7/1/7 10/1/7
f 7/1/7 6/1/7 11/1/7
f 14/1/7 13/1/7 12/1/7
f 11/1/7 10/1/7 7/1/7
s 8
f 32/1/8 31/1/8 25/1/8
s 9
f 35/1/10 36/1/10 22/1/10
