# Blender 4.5.1 LTS
# www.blender.org
mtllib province_014.mtl
o province_014
v -0.313486 0.001999 0.075688
v -0.311404 0.001999 0.079158
v -0.303870 0.001999 0.079158
v -0.299508 0.001999 0.082825
v -0.297823 0.001999 0.087683
v -0.289496 0.001999 0.087881
v -0.317887 0.001999 0.077710
v -0.323478 0.001999 0.078186
v -0.323954 0.001999 0.084729
v -0.315151 0.001999 0.092104
v -0.317649 0.001999 0.100550
v -0.319672 0.001999 0.107331
v -0.315389 0.001999 0.116847
v -0.305754 0.001999 0.115895
v -0.312260 0.001999 0.097890
v -0.312112 0.001999 0.093895
v -0.303206 0.001999 0.114941
v -0.286195 0.001999 0.090962
v -0.297053 0.001999 0.112635
v -0.298169 0.001999 0.108388
v -0.289103 0.001999 0.105962
v -0.285831 0.001999 0.099199
v -0.286195 -0.000001 0.090962
v -0.297053 -0.000001 0.112635
v -0.298169 -0.000001 0.108388
v -0.289103 -0.000001 0.105962
v -0.285831 -0.000001 0.099199
v -0.313486 -0.000001 0.075688
v -0.317887 -0.000001 0.077710
v -0.323478 -0.000001 0.078186
v -0.323954 -0.000001 0.084729
v -0.315151 -0.000001 0.092104
v -0.317649 -0.000001 0.100550
v -0.319672 -0.000001 0.107331
v -0.315389 -0.000001 0.116847
v -0.312260 -0.000001 0.097890
v -0.312112 -0.000001 0.093895
v -0.315389 0.001999 0.116847
v -0.305754 0.001999 0.115895
v -0.303206 0.001999 0.114941
v -0.297053 0.001999 0.112635
vn 0.9990 -0.0000 -0.0442
vn 0.9002 -0.0000 0.4356
vn 0.2585 -0.0000 0.9660
vn 0.9672 -0.0000 -0.2541
vn -0.0000 1.0000 -0.0000
vn -0.4425 -0.0000 -0.8967
vn -0.9993 -0.0000 -0.0370
vn -0.5077 -0.0000 0.8615
vn -0.4175 -0.0000 -0.9087
vn -0.0848 -0.0000 -0.9964
vn -0.9974 -0.0000 -0.0725
vn -0.6422 -0.0000 0.7665
vn -0.9583 -0.0000 -0.2858
vn -0.9119 -0.0000 0.4104
vt 0.000000 0.000000
s 0
f 18/1/1 22/1/1 27/1/1 23/1/1
f 22/1/2 21/1/2 26/1/2 27/1/2
f 21/1/3 20/1/3 25/1/3 26/1/3
f 20/1/4 19/1/4 24/1/4 25/1/4
f 2/1/5 1/1/5 7/1/5 8/1/5 9/1/5 10/1/5 16/1/5 15/1/5 11/1/5 12/1/5 13/1/5 14/1/5 17/1/5 19/1/5 20/1/5 21/1/5 22/1/5 18/1/5 6/1/5 5/1/5 4/1/5 3/1/5
f 11/1/6 15/1/6 36/1/6 33/1/6
f 15/1/7 16/1/7 37/1/7 36/1/7
f 16/1/8 10/1/8 32/1/8 37/1/8
f 7/1/9 1/1/9 28/1/9 29/1/9
f 8/1/10 7/1/10 29/1/10 30/1/10
f 9/1/11 8/1/11 30/1/11 31/1/11
f 10/1/12 9/1/12 31/1/12 32/1/12
f 12/1/13 11/1/13 33/1/13 34/1/13
f 13/1/14 12/1/14 34/1/14 35/1/14
f 19/1/5 17/1/5 40/1/5 41/1/5
f 14/1/5 13/1/5 38/1/5 39/1/5
f 17/1/5 14/1/5 39/1/5 40/1/5
