# Blender 4.5.1 LTS
# www.blender.org
o province_140
v 21.831675 0.045516 -6.796897
v 22.141439 0.045516 -7.341482
v 21.931599 0.045516 -6.607042
v 22.361271 0.045516 -6.517110
v 22.750975 0.045516 -6.587058
v 23.140678 0.045516 -6.247316
v 23.512394 0.045516 -6.199353
v 24.075966 0.045516 -6.247316
v 24.423702 0.045516 -6.487134
v 24.795418 0.045516 -6.499125
v 25.095190 0.045516 -7.074686
v 24.267822 0.045516 -7.086677
v 23.908096 0.045516 -7.218576
v 23.524387 0.045516 -7.242558
v 23.140680 0.045516 -7.542330
v 22.377262 0.045516 -7.506358
v 24.675510 0.045516 -7.164618
v 25.059217 0.045516 -6.738942
v 22.768963 0.045516 -7.554321
v 22.141439 -0.094484 -7.341482
v 25.095190 -0.094484 -7.074686
v 24.267822 -0.094484 -7.086677
v 23.908096 -0.094484 -7.218576
v 23.524387 -0.094484 -7.242558
v 23.140680 -0.094484 -7.542330
v 22.377262 -0.094484 -7.506358
v 24.675510 -0.094484 -7.164618
v 22.768963 -0.094484 -7.554321
vn -0.0000 1.0000 -0.0000
vn 0.3443 -0.0000 -0.9389
vn -0.1215 -0.0000 -0.9926
vn 0.2095 -0.0000 -0.9778
vn -0.5730 -0.0000 -0.8196
vn -0.1878 -0.0000 -0.9822
vn 0.6156 -0.0000 -0.7880
vn 0.0624 -0.0000 -0.9981
vn 0.0322 -0.0000 -0.9995
vt 0.000000 0.000000
s 1
f 9/1/1 10/1/1 17/1/1
s 2
f 22/1/2 13/1/2 12/1/2
s 3
f 28/1/3 16/1/3 19/1/3
s 4
f 21/1/4 17/1/4 11/1/4
s 5
f 26/1/5 2/1/5 16/1/5
s 6
f 27/1/6 12/1/6 17/1/6
s 7
f 24/1/7 15/1/7 14/1/7
s 8
f 23/1/8 14/1/8 13/1/8
s 9
f 25/1/9 19/1/9 15/1/9
s 1
f 16/1/1 2/1/1 5/1/1
f 2/1/1 1/1/1 4/1/1
f 5/1/1 2/1/1 4/1/1
f 1/1/1 3/1/1 4/1/1
f 5/1/1 6/1/1 14/1/1
f 6/1/1 7/1/1 14/1/1
f 19/1/1 16/1/1 5/1/1
f 14/1/1 15/1/1 5/1/1
f 15/1/1 19/1/1 5/1/1
f 12/1/1 13/1/1 8/1/1
f 13/1/1 14/1/1 7/1/1
f 8/1/1 13/1/1 7/1/1
f 11/1/1 17/1/1 18/1/1
f 17/1/1 12/1/1 9/1/1
f 10/1/1 18/1/1 17/1/1
f 8/1/1 9/1/1 12/1/1
s 2
f 22/1/2 23/1/2 13/1/2
s 3
f 28/1/3 26/1/3 16/1/3
s 4
f 21/1/4 27/1/4 17/1/4
s 5
f 26/1/5 20/1/5 2/1/5
s 6
f 27/1/6 22/1/6 12/1/6
s 7
f 24/1/7 25/1/7 15/1/7
s 8
f 23/1/8 24/1/8 14/1/8
s 9
f 25/1/9 28/1/9 19/1/9
