# Blender 4.5.1 LTS
# www.blender.org
o province_166
v 17.821920 0.045516 12.955228
v 17.306313 0.045516 13.326944
v 16.742741 0.045516 13.578753
v 16.694778 0.045516 13.830561
v 17.066494 0.045516 14.154314
v 16.970566 0.045516 14.550014
v 17.905079 0.045516 12.772286
v 17.465412 0.045516 12.672363
v 17.035740 0.045516 12.802264
v 16.646034 0.045516 12.732317
v 16.586082 0.045516 12.512485
v 15.956560 0.045516 12.282658
v 15.856634 0.045516 12.062824
v 15.526884 0.045516 12.092802
v 15.347022 0.045516 12.462520
v 14.877380 0.045516 12.322627
v 14.367765 0.045516 11.832998
v 14.397743 0.045516 11.453286
v 13.518411 0.045516 11.243444
v 13.398502 0.045516 12.262671
v 12.798958 0.045516 12.538462
v 12.451222 0.045516 13.353842
v 11.479959 0.045516 13.593658
v 11.527924 0.045516 13.977365
v 14.837411 0.045516 14.960619
v 15.952564 0.045516 14.912656
v 16.970566 -0.094484 14.550014
v 13.518411 -0.094484 11.243444
v 13.398502 -0.094484 12.262671
v 12.798958 -0.094484 12.538462
v 12.451222 -0.094484 13.353842
v 11.479959 -0.094484 13.593658
v 11.527924 -0.094484 13.977365
v 14.837411 -0.094484 14.960619
v 15.952564 -0.094484 14.912656
vn 0.3356 -0.0000 0.9420
vn -0.9932 -0.0000 -0.1168
vn -0.4179 -0.0000 -0.9085
vn -0.2848 -0.0000 0.9586
vn 0.0430 -0.0000 0.9991
vn -0.9923 -0.0000 0.1240
vn -0.2397 -0.0000 -0.9708
vn -0.0000 1.0000 -0.0000
vn -0.9198 -0.0000 -0.3923
vt 0.000000 0.000000
s 1
f 35/1/1 6/1/1 26/1/1
s 2
f 28/1/2 20/1/2 19/1/2
s 3
f 29/1/3 21/1/3 20/1/3
s 4
f 34/1/4 24/1/4 33/1/4
s 5
f 34/1/5 26/1/5 25/1/5
s 6
f 32/1/6 24/1/6 23/1/6
s 7
f 31/1/7 23/1/7 22/1/7
s 8
f 10/1/8 12/1/8 15/1/8
s 9
f 30/1/9 22/1/9 21/1/9
s 1
f 35/1/1 27/1/1 6/1/1
s 2
f 28/1/2 29/1/2 20/1/2
s 3
f 29/1/3 30/1/3 21/1/3
s 4
f 34/1/4 25/1/4 24/1/4
s 5
f 34/1/5 35/1/5 26/1/5
s 6
f 32/1/6 33/1/6 24/1/6
s 7
f 31/1/7 32/1/7 23/1/7
s 8
f 23/1/8 24/1/8 22/1/8
f 24/1/8 25/1/8 22/1/8
f 25/1/8 26/1/8 15/1/8
f 26/1/8 6/1/8 4/1/8
f 6/1/8 5/1/8 4/1/8
f 3/1/8 2/1/8 9/1/8
f 2/1/8 1/1/8 8/1/8
f 26/1/8 4/1/8 15/1/8
f 2/1/8 8/1/8 9/1/8
f 1/1/8 7/1/8 8/1/8
f 4/1/8 3/1/8 15/1/8
f 20/1/8 21/1/8 22/1/8
f 18/1/8 19/1/8 17/1/8
f 19/1/8 20/1/8 17/1/8
f 20/1/8 22/1/8 25/1/8
f 20/1/8 25/1/8 16/1/8
f 16/1/8 17/1/8 20/1/8
f 13/1/8 14/1/8 12/1/8
f 14/1/8 15/1/8 12/1/8
f 15/1/8 16/1/8 25/1/8
f 10/1/8 11/1/8 12/1/8
f 3/1/8 9/1/8 10/1/8
f 3/1/8 10/1/8 15/1/8
s 9
f 30/1/9 31/1/9 22/1/9
