# Blender 4.5.1 LTS
# www.blender.org
mtllib province_185.mtl
o province_185
v -0.633995 0.001999 -0.283035
v -0.630283 0.001999 -0.287032
v -0.626001 0.001999 -0.290173
v -0.628998 0.001999 -0.296882
v -0.625144 0.001999 -0.301878
v -0.637706 0.001999 -0.288745
v -0.646557 0.001999 -0.290315
v -0.654265 0.001999 -0.296596
v -0.662116 0.001999 -0.298309
v -0.663686 0.001999 -0.309158
v -0.675106 0.001999 -0.319436
v -0.670253 0.001999 -0.328001
v -0.667255 0.001999 -0.330285
v -0.667112 0.001999 -0.335709
v -0.659832 0.001999 -0.338707
v -0.654122 0.001999 -0.336423
v -0.652552 0.001999 -0.329000
v -0.647556 0.001999 -0.325146
v -0.639847 0.001999 -0.323433
v -0.634994 0.001999 -0.318865
v -0.634994 0.001999 -0.309444
v -0.625144 -0.000001 -0.301878
v -0.670253 -0.000001 -0.328001
v -0.667255 -0.000001 -0.330285
v -0.667112 -0.000001 -0.335709
v -0.659832 -0.000001 -0.338707
v -0.654122 -0.000001 -0.336423
v -0.652552 -0.000001 -0.329000
v -0.647556 -0.000001 -0.325146
v -0.639847 -0.000001 -0.323433
v -0.634994 -0.000001 -0.318865
v -0.634994 -0.000001 -0.309444
vn -0.0000 1.0000 -0.0000
vn -0.6060 -0.0000 -0.7954
vn -0.9997 -0.0000 -0.0263
vn -0.3808 -0.0000 -0.9247
vn 0.3714 -0.0000 -0.9285
vn 0.9784 -0.0000 -0.2070
vn 0.6108 -0.0000 -0.7918
vn 0.2169 -0.0000 -0.9762
vn 0.6854 -0.0000 -0.7282
vn 1.0000 -0.0000 -0.0000
vn 0.6092 -0.0000 -0.7931
vt 0.000000 0.000000
s 0
f 2/1/1 3/1/1 4/1/1 5/1/1 21/1/1 20/1/1 19/1/1 18/1/1 17/1/1 16/1/1 15/1/1 14/1/1 13/1/1 12/1/1 11/1/1 10/1/1 9/1/1 8/1/1 7/1/1 6/1/1 1/1/1
f 12/1/2 13/1/2 24/1/2 23/1/2
f 13/1/3 14/1/3 25/1/3 24/1/3
f 14/1/4 15/1/4 26/1/4 25/1/4
f 15/1/5 16/1/5 27/1/5 26/1/5
f 16/1/6 17/1/6 28/1/6 27/1/6
f 17/1/7 18/1/7 29/1/7 28/1/7
f 18/1/8 19/1/8 30/1/8 29/1/8
f 19/1/9 20/1/9 31/1/9 30/1/9
f 20/1/10 21/1/10 32/1/10 31/1/10
f 21/1/11 5/1/11 22/1/11 32/1/11
