# Blender 4.5.1 LTS
# www.blender.org
mtllib province_004.mtl
o province_004
v -0.012566 0.006502 1.223537
v 0.073083 0.006502 1.228676
v 0.330030 0.006502 1.401687
v 0.348873 0.006502 1.456502
v 0.304335 0.006502 1.516456
v 0.304335 0.006502 1.615809
v -0.036226 0.006502 1.258541
v -0.008866 0.006502 1.295417
v -0.061207 0.006502 1.348948
v 0.030390 0.006502 1.451251
v 0.104343 0.006502 1.207420
v 0.018359 0.006502 1.531785
v 0.105423 0.006502 1.529936
v 0.141389 0.006502 1.632439
v 0.230064 0.006502 1.699364
v 0.157557 0.006502 1.232956
v 0.197038 0.006502 1.220808
v 0.235070 0.006502 1.298458
v 0.332538 0.006502 1.364062
v 0.104343 -0.013498 1.207420
v 0.018359 -0.013498 1.531785
v 0.105423 -0.013498 1.529936
v 0.141389 -0.013498 1.632439
v 0.157557 -0.013498 1.232956
v 0.197038 -0.013498 1.220808
v 0.235070 -0.013498 1.298458
v 0.330030 -0.013498 1.401687
v 0.348873 -0.013498 1.456502
v 0.304335 -0.013498 1.516456
v 0.304335 -0.013498 1.615809
v 0.230064 -0.013498 1.699364
v 0.332538 -0.013498 1.364062
vn -0.0000 1.0000 -0.0000
vn 0.0212 -0.0000 0.9998
vn -0.9436 -0.0000 0.3311
vn -0.6024 -0.0000 0.7982
vn 0.4326 -0.0000 -0.9016
vn -0.2941 -0.0000 -0.9558
vn 0.8981 -0.0000 -0.4399
vn 0.5584 -0.0000 -0.8296
vn 0.7474 -0.0000 0.6644
vn 0.9978 -0.0000 0.0665
vn 0.9457 -0.0000 -0.3251
vn 0.8027 -0.0000 0.5963
vn 1.0000 -0.0000 -0.0000
vt 0.000000 0.000000
s 0
f 5/1/1 3/1/1 13/1/1
f 12/1/2 22/1/2 13/1/2
f 13/1/3 23/1/3 14/1/3
f 14/1/4 31/1/4 15/1/4
f 16/1/5 20/1/5 11/1/5
f 17/1/6 24/1/6 16/1/6
f 18/1/7 25/1/7 17/1/7
f 19/1/8 26/1/8 18/1/8
f 15/1/9 30/1/9 6/1/9
f 3/1/10 32/1/10 19/1/10
f 4/1/11 27/1/11 3/1/11
f 5/1/12 28/1/12 4/1/12
f 6/1/13 29/1/13 5/1/13
f 16/1/1 11/1/1 2/1/1
f 2/1/1 1/1/1 8/1/1
f 1/1/1 7/1/1 8/1/1
f 8/1/1 9/1/1 10/1/1
f 18/1/1 17/1/1 16/1/1
f 16/1/1 2/1/1 10/1/1
f 2/1/1 8/1/1 10/1/1
f 10/1/1 12/1/1 13/1/1
f 3/1/1 19/1/1 18/1/1
f 18/1/1 16/1/1 10/1/1
f 13/1/1 14/1/1 5/1/1
f 14/1/1 15/1/1 6/1/1
f 5/1/1 14/1/1 6/1/1
f 18/1/1 10/1/1 13/1/1
f 4/1/1 3/1/1 5/1/1
f 3/1/1 18/1/1 13/1/1
f 12/1/2 21/1/2 22/1/2
f 13/1/3 22/1/3 23/1/3
f 14/1/4 23/1/4 31/1/4
f 16/1/5 24/1/5 20/1/5
f 17/1/6 25/1/6 24/1/6
f 18/1/7 26/1/7 25/1/7
f 19/1/8 32/1/8 26/1/8
f 15/1/9 31/1/9 30/1/9
f 3/1/10 27/1/10 32/1/10
f 4/1/11 28/1/11 27/1/11
f 5/1/12 29/1/12 28/1/12
f 6/1/13 30/1/13 29/1/13
