# Blender 4.5.1 LTS
# www.blender.org
o province_127
v 24.016718 0.045516 21.132940
v 24.256535 0.045516 21.684521
v 23.812872 0.045516 22.260086
v 23.674976 0.045516 22.761705
v 22.845604 0.045516 23.061480
v 22.495871 0.045516 22.871624
v 22.156128 0.045516 22.901602
v 21.626532 0.045516 23.551107
v 21.096933 0.045516 23.581087
v 20.917070 0.045516 23.920828
v 18.568855 0.045516 22.182150
v 18.339027 0.045516 21.722500
v 18.778694 0.045516 21.082985
v 18.808672 0.045516 20.623333
v 18.528883 0.045516 20.063757
v 18.968548 0.045516 19.873903
v 19.877857 0.045516 20.123711
v 20.467409 0.045516 19.913870
v 21.756430 0.045516 20.103725
v 21.726452 0.045516 20.493429
v 22.325996 0.045516 21.023027
v 23.195335 0.045516 21.172915
v 20.479061 0.045516 23.920828
v 20.111597 0.045516 23.311834
v 19.656345 0.045516 23.264412
v 19.581509 0.045516 22.932993
v 18.350117 0.045516 22.742119
v 18.886992 0.045516 23.077682
v 20.479061 -0.094484 23.920828
v 20.111597 -0.094484 23.311834
v 19.656345 -0.094484 23.264412
v 19.581509 -0.094484 22.932993
v 18.886992 -0.094484 23.077682
v 18.350117 -0.094484 22.742119
v 24.016718 -0.094484 21.132940
v 18.528883 -0.094484 20.063757
v 18.968548 -0.094484 19.873903
v 19.877857 -0.094484 20.123711
v 20.467409 -0.094484 19.913870
v 21.756430 -0.094484 20.103725
v 21.726452 -0.094484 20.493429
v 22.325996 -0.094484 21.023027
v 23.195335 -0.094484 21.172915
vn 0.2040 -0.0000 0.9790
vn -0.9754 -0.0000 0.2203
vn 0.1457 -0.0000 -0.9893
vn -0.5300 -0.0000 0.8480
vn 0.6620 -0.0000 -0.7495
vn -0.8562 -0.0000 0.5166
vn 0.2649 -0.0000 -0.9643
vn 0.9971 -0.0000 0.0767
vn 0.1699 -0.0000 -0.9855
vn -0.1036 -0.0000 0.9946
vn -0.0000 1.0000 -0.0000
vn -0.3353 -0.0000 -0.9421
vn -0.3964 -0.0000 -0.9181
vn -0.0486 -0.0000 -0.9988
vt 0.000000 0.000000
s 1
f 33/1/1 26/1/1 28/1/1
s 2
f 32/1/2 25/1/2 26/1/2
s 3
f 40/1/3 18/1/3 19/1/3
s 4
f 34/1/4 28/1/4 27/1/4
s 5
f 42/1/5 20/1/5 21/1/5
s 6
f 30/1/6 23/1/6 24/1/6
s 7
f 38/1/7 16/1/7 17/1/7
s 8
f 41/1/8 19/1/8 20/1/8
s 9
f 43/1/9 21/1/9 22/1/9
s 10
f 31/1/10 24/1/10 25/1/10
s 11
f 6/1/11 22/1/11 21/1/11
s 12
f 39/1/12 17/1/12 18/1/12
s 13
f 37/1/13 15/1/13 16/1/13
s 14
f 35/1/14 22/1/14 1/1/14
s 1
f 33/1/1 32/1/1 26/1/1
s 2
f 32/1/2 31/1/2 25/1/2
s 3
f 40/1/3 39/1/3 18/1/3
s 4
f 34/1/4 33/1/4 28/1/4
s 5
f 42/1/5 41/1/5 20/1/5
s 6
f 30/1/6 29/1/6 23/1/6
s 7
f 38/1/7 37/1/7 16/1/7
s 8
f 41/1/8 40/1/8 19/1/8
s 9
f 43/1/9 42/1/9 21/1/9
s 10
f 31/1/10 30/1/10 24/1/10
s 11
f 24/1/11 23/1/11 9/1/11
f 23/1/11 10/1/11 9/1/11
f 9/1/11 8/1/11 7/1/11
f 26/1/11 25/1/11 24/1/11
f 27/1/11 28/1/11 11/1/11
f 28/1/11 26/1/11 11/1/11
f 13/1/11 12/1/11 11/1/11
f 26/1/11 24/1/11 20/1/11
f 24/1/11 9/1/11 7/1/11
f 24/1/11 7/1/11 20/1/11
f 13/1/11 11/1/11 26/1/11
f 16/1/11 15/1/11 14/1/11
f 14/1/11 13/1/11 17/1/11
f 13/1/11 26/1/11 17/1/11
f 7/1/11 6/1/11 21/1/11
f 20/1/11 7/1/11 21/1/11
f 6/1/11 5/1/11 3/1/11
f 5/1/11 4/1/11 3/1/11
f 3/1/11 2/1/11 22/1/11
f 2/1/11 1/1/11 22/1/11
f 17/1/11 26/1/11 20/1/11
f 17/1/11 16/1/11 14/1/11
f 19/1/11 18/1/11 20/1/11
f 18/1/11 17/1/11 20/1/11
f 6/1/11 3/1/11 22/1/11
s 12
f 39/1/12 38/1/12 17/1/12
s 13
f 37/1/13 36/1/13 15/1/13
s 14
f 35/1/14 43/1/14 22/1/14
