# Blender 4.5.1 LTS
# www.blender.org
o province_096
v 8.802385 0.045516 -2.429045
v 8.831162 0.045516 -2.947050
v 9.147721 0.045516 -2.112487
v 9.838394 0.045516 -2.256377
v 10.557845 0.045516 -1.939819
v 11.205350 0.045516 -2.558547
v 8.785633 0.045516 -3.577774
v 8.429559 0.045516 -3.403965
v 11.185520 0.045516 -2.766765
v 10.773399 0.045516 -3.065881
v 10.826167 0.045516 -3.567183
v 10.068672 0.045516 -3.682734
v 9.135120 0.045516 -3.539111
v 8.785633 -0.094484 -3.577774
v 8.429559 -0.094484 -3.403965
v 11.185520 -0.094484 -2.766765
v 10.773399 -0.094484 -3.065881
v 10.826167 -0.094484 -3.567183
v 10.068672 -0.094484 -3.682734
v 9.135120 -0.094484 -3.539111
vn -0.1521 -0.0000 -0.9884
vn 0.1508 -0.0000 -0.9886
vn 0.5874 -0.0000 -0.8093
vn 0.9945 -0.0000 0.1047
vn -0.4387 -0.0000 -0.8987
vn -0.0000 1.0000 -0.0000
vn 0.1100 -0.0000 -0.9939
vt 0.000000 0.000000
s 1
f 19/1/1 13/1/1 12/1/1
s 2
f 18/1/2 12/1/2 11/1/2
s 3
f 16/1/3 10/1/3 9/1/3
s 4
f 17/1/4 11/1/4 10/1/4
s 5
f 14/1/5 8/1/5 7/1/5
s 6
f 4/1/6 13/1/6 2/1/6
s 7
f 20/1/7 7/1/7 13/1/7
s 1
f 19/1/1 20/1/1 13/1/1
s 2
f 18/1/2 19/1/2 12/1/2
s 3
f 16/1/3 17/1/3 10/1/3
s 4
f 17/1/4 18/1/4 11/1/4
s 5
f 14/1/5 15/1/5 8/1/5
s 6
f 1/1/6 3/1/6 2/1/6
f 3/1/6 4/1/6 2/1/6
f 4/1/6 5/1/6 10/1/6
f 5/1/6 6/1/6 10/1/6
f 6/1/6 9/1/6 10/1/6
f 10/1/6 11/1/6 12/1/6
f 13/1/6 7/1/6 2/1/6
f 7/1/6 8/1/6 2/1/6
f 10/1/6 12/1/6 4/1/6
f 12/1/6 13/1/6 4/1/6
s 7
f 20/1/7 14/1/7 7/1/7
