# Blender 4.5.1 LTS
# www.blender.org
mtllib province_076.mtl
o province_076
v -1.425133 0.006502 -0.402183
v -1.439408 0.006502 -0.459282
v -1.467957 0.006502 -0.484977
v -1.526484 0.006502 -0.503534
v -1.573591 0.006502 -0.553496
v -1.546469 0.006502 -0.614878
v -1.116559 0.006502 -0.539935
v -1.110611 0.006502 -0.630342
v -1.148677 0.006502 -0.669598
v -1.143919 0.006502 -0.730266
v -1.108232 0.006502 -0.802829
v -1.177227 0.006502 -0.874203
v -1.247412 0.006502 -0.858739
v -1.275961 0.006502 -0.840896
v -1.337819 0.006502 -0.869445
v -1.422278 0.006502 -0.789744
v -1.438932 0.006502 -0.720749
v -1.497221 0.006502 -0.644617
v -1.380839 0.006502 -0.353101
v -1.341367 0.006502 -0.416234
v -1.303877 0.006502 -0.457890
v -1.222154 0.006502 -0.457890
v -1.177099 0.006502 -0.411618
v -1.138622 0.006502 -0.402960
v -1.111967 0.006502 -0.424617
v -1.096990 0.006502 -0.516962
v -1.135562 0.006502 -0.481243
v -1.380839 -0.013498 -0.353101
v -1.341367 -0.013498 -0.416234
v -1.303877 -0.013498 -0.457890
v -1.222154 -0.013498 -0.457890
v -1.177099 -0.013498 -0.411618
v -1.138622 -0.013498 -0.402960
v -1.111967 -0.013498 -0.424617
v -1.096990 -0.013498 -0.516962
v -1.135562 -0.013498 -0.481243
vn -0.0000 1.0000 -0.0000
vn 0.8479 -0.0000 0.5301
vn 0.7433 -0.0000 0.6690
vn -0.0000 -0.0000 1.0000
vn -0.7165 -0.0000 0.6976
vn -0.2195 -0.0000 0.9756
vn 0.6306 -0.0000 0.7761
vn 0.6794 -0.0000 0.7337
vn 0.9231 -0.0000 -0.3846
vt 0.000000 0.000000
s 0
f 14/1/1 17/1/1 9/1/1
f 19/1/2 29/1/2 20/1/2
f 20/1/3 30/1/3 21/1/3
f 21/1/4 31/1/4 22/1/4
f 22/1/5 32/1/5 23/1/5
f 23/1/6 33/1/6 24/1/6
f 24/1/7 34/1/7 25/1/7
f 27/1/8 35/1/8 26/1/8
f 25/1/9 36/1/9 27/1/9
f 1/1/1 19/1/1 20/1/1
f 1/1/1 20/1/1 2/1/1
f 20/1/1 21/1/1 2/1/1
f 22/1/1 23/1/1 27/1/1
f 23/1/1 24/1/1 27/1/1
f 2/1/1 21/1/1 3/1/1
f 21/1/1 22/1/1 9/1/1
f 3/1/1 21/1/1 18/1/1
f 5/1/1 4/1/1 6/1/1
f 4/1/1 3/1/1 18/1/1
f 18/1/1 21/1/1 17/1/1
f 24/1/1 25/1/1 27/1/1
f 27/1/1 26/1/1 7/1/1
f 4/1/1 18/1/1 6/1/1
f 15/1/1 16/1/1 14/1/1
f 16/1/1 17/1/1 14/1/1
f 17/1/1 21/1/1 9/1/1
f 22/1/1 27/1/1 7/1/1
f 7/1/1 8/1/1 9/1/1
f 10/1/1 11/1/1 12/1/1
f 22/1/1 7/1/1 9/1/1
f 9/1/1 10/1/1 14/1/1
f 10/1/1 12/1/1 13/1/1
f 14/1/1 10/1/1 13/1/1
f 19/1/2 28/1/2 29/1/2
f 20/1/3 29/1/3 30/1/3
f 21/1/4 30/1/4 31/1/4
f 22/1/5 31/1/5 32/1/5
f 23/1/6 32/1/6 33/1/6
f 24/1/7 33/1/7 34/1/7
f 27/1/8 36/1/8 35/1/8
f 25/1/9 34/1/9 36/1/9
