# Blender 4.5.1 LTS
# www.blender.org
mtllib province_060.mtl
o province_060
v -3.436404 0.006502 1.485005
v -3.943159 0.006502 1.416486
v -3.983128 0.006502 1.457883
v -4.025953 0.006502 1.479295
v -4.037373 0.006502 1.532112
v -3.961716 0.006502 1.583501
v -3.880350 0.006502 1.672005
v -3.831815 0.006502 1.776211
v -3.740457 0.006502 1.777638
v -3.577724 0.006502 1.764791
v -3.493503 0.006502 1.777638
v -3.487793 0.006502 1.734814
v -3.430694 0.006502 1.686280
v -3.482083 0.006502 1.630608
v -3.479228 0.006502 1.592066
v -3.856161 0.006502 1.377401
v -3.809675 0.006502 1.427208
v -3.739953 0.006502 1.424302
v -3.676038 0.006502 1.472594
v -3.596506 0.006502 1.474094
v -3.584470 0.006502 1.463853
v -3.420951 0.006502 1.533788
v -3.418150 0.006502 1.509984
v -3.418150 -0.013498 1.509984
v -3.420951 -0.013498 1.533788
v -3.943159 -0.013498 1.416486
v -3.983128 -0.013498 1.457883
v -4.025953 -0.013498 1.479295
v -4.037373 -0.013498 1.532112
v -3.961716 -0.013498 1.583501
v -3.880350 -0.013498 1.672005
v -3.831815 -0.013498 1.776211
v -3.740457 -0.013498 1.777638
v -3.577724 -0.013498 1.764791
v -3.493503 -0.013498 1.777638
v -3.856161 -0.013498 1.377401
v -3.584470 -0.013498 1.463853
v -3.596506 -0.013498 1.474094
v -3.809675 -0.013498 1.427208
v -3.739953 -0.013498 1.424302
v -3.676038 -0.013498 1.472594
vn 0.0189 -0.0000 -0.9998
vn -0.6480 -0.0000 -0.7616
vn -0.0000 1.0000 -0.0000
vn 0.9931 -0.0000 0.1168
vn -0.7194 -0.0000 -0.6946
vn -0.4472 -0.0000 -0.8944
vn -0.9774 -0.0000 -0.2113
vn -0.5619 -0.0000 0.8272
vn -0.7362 -0.0000 0.6768
vn -0.9065 -0.0000 0.4222
vn -0.0156 -0.0000 0.9999
vn 0.0787 -0.0000 0.9969
vn -0.1508 -0.0000 0.9886
vn -0.4098 -0.0000 -0.9122
vn 0.6028 -0.0000 -0.7979
vn -0.0416 -0.0000 -0.9991
vn 0.7311 -0.0000 -0.6823
vn -0.6481 -0.0000 -0.7616
vt 0.000000 0.000000
s 0
f 20/1/1 41/1/1 19/1/1
f 21/1/2 38/1/2 20/1/2
f 17/1/3 2/1/3 6/1/3
f 22/1/4 24/1/4 23/1/4
f 2/1/5 27/1/5 3/1/5
f 3/1/6 28/1/6 4/1/6
f 4/1/7 29/1/7 5/1/7
f 5/1/8 30/1/8 6/1/8
f 6/1/9 31/1/9 7/1/9
f 7/1/10 32/1/10 8/1/10
f 8/1/11 33/1/11 9/1/11
f 9/1/12 34/1/12 10/1/12
f 10/1/13 35/1/13 11/1/13
f 16/1/14 26/1/14 2/1/14
f 19/1/15 40/1/15 18/1/15
f 18/1/16 39/1/16 17/1/16
f 17/1/17 36/1/17 16/1/17
f 20/1/1 38/1/1 41/1/1
f 21/1/18 37/1/18 38/1/18
f 10/1/3 11/1/3 12/1/3
f 12/1/3 13/1/3 14/1/3
f 15/1/3 22/1/3 1/1/3
f 22/1/3 23/1/3 1/1/3
f 10/1/3 12/1/3 14/1/3
f 10/1/3 14/1/3 20/1/3
f 14/1/3 15/1/3 20/1/3
f 10/1/3 20/1/3 19/1/3
f 8/1/3 9/1/3 7/1/3
f 9/1/3 10/1/3 19/1/3
f 7/1/3 9/1/3 19/1/3
f 15/1/3 1/1/3 21/1/3
f 21/1/3 20/1/3 15/1/3
f 19/1/3 18/1/3 17/1/3
f 4/1/3 5/1/3 3/1/3
f 5/1/3 6/1/3 3/1/3
f 6/1/3 7/1/3 17/1/3
f 7/1/3 19/1/3 17/1/3
f 16/1/3 2/1/3 17/1/3
f 2/1/3 3/1/3 6/1/3
f 22/1/4 25/1/4 24/1/4
f 2/1/5 26/1/5 27/1/5
f 3/1/6 27/1/6 28/1/6
f 4/1/7 28/1/7 29/1/7
f 5/1/8 29/1/8 30/1/8
f 6/1/9 30/1/9 31/1/9
f 7/1/10 31/1/10 32/1/10
f 8/1/11 32/1/11 33/1/11
f 9/1/12 33/1/12 34/1/12
f 10/1/13 34/1/13 35/1/13
f 16/1/14 36/1/14 26/1/14
f 19/1/15 41/1/15 40/1/15
f 18/1/16 40/1/16 39/1/16
f 17/1/17 39/1/17 36/1/17
