# Blender 4.5.1 LTS
# www.blender.org
o province_075
v -11.940109 0.045516 -4.745081
v -12.275853 0.045516 -4.493274
v -12.743496 0.045516 -4.757072
v -13.151184 0.045516 -4.733090
v -13.426973 0.045516 -4.529246
v -13.762717 0.045516 -4.601192
v -14.090372 0.045516 -2.908714
v -14.078382 0.045516 -3.340384
v -13.886530 0.045516 -3.616173
v -13.958474 0.045516 -4.107798
v -11.984397 0.045516 -1.885992
v -12.404078 0.045516 -2.085839
v -13.023603 0.045516 -1.826038
v -13.673107 0.045516 -1.875999
v -13.773031 0.045516 -2.465549
v -11.674635 0.045516 -1.856015
v -11.324902 0.045516 -1.626190
v -10.955184 0.045516 -1.786068
v -10.665406 0.045516 -2.215740
v -10.145803 0.045516 -2.035877
v -9.975933 0.045516 -2.815282
v -10.075856 0.045516 -3.214976
v -10.275703 0.045516 -3.394839
v -10.685390 0.045516 -3.524739
v -11.015138 0.045516 -3.874472
v -10.825283 0.045516 -4.304144
v -11.454802 0.045516 -4.484006
v -10.001038 0.045516 -2.363092
v -10.022895 0.045516 -2.216624
v -9.665874 0.045516 -2.471704
v -10.022895 -0.094484 -2.216624
v -10.001038 -0.094484 -2.363092
v -9.665874 -0.094484 -2.471704
vn 0.9890 -0.0000 0.1476
vn -0.0000 1.0000 -0.0000
vn 0.3083 -0.0000 0.9513
vt 0.000000 0.000000
s 1
f 31/1/1 28/1/1 29/1/1
s 2
f 2/1/2 3/1/2 5/1/2
s 3
f 32/1/3 30/1/3 28/1/3
s 1
f 31/1/1 32/1/1 28/1/1
s 2
f 17/1/2 18/1/2 16/1/2
f 18/1/2 19/1/2 16/1/2
f 19/1/2 20/1/2 29/1/2
f 28/1/2 30/1/2 21/1/2
f 19/1/2 29/1/2 28/1/2
f 12/1/2 11/1/2 16/1/2
f 14/1/2 13/1/2 15/1/2
f 13/1/2 12/1/2 15/1/2
f 8/1/2 7/1/2 9/1/2
f 7/1/2 15/1/2 9/1/2
f 12/1/2 16/1/2 25/1/2
f 16/1/2 19/1/2 24/1/2
f 19/1/2 28/1/2 21/1/2
f 21/1/2 22/1/2 23/1/2
f 21/1/2 23/1/2 19/1/2
f 23/1/2 24/1/2 19/1/2
f 16/1/2 24/1/2 25/1/2
f 15/1/2 12/1/2 9/1/2
f 6/1/2 10/1/2 5/1/2
f 10/1/2 9/1/2 5/1/2
f 25/1/2 26/1/2 27/1/2
f 9/1/2 12/1/2 2/1/2
f 5/1/2 9/1/2 2/1/2
f 3/1/2 4/1/2 5/1/2
f 12/1/2 25/1/2 2/1/2
f 25/1/2 27/1/2 2/1/2
f 27/1/2 1/1/2 2/1/2
s 3
f 32/1/3 33/1/3 30/1/3
