# Blender 4.5.1 LTS
# www.blender.org
mtllib province_145.mtl
o province_145
v 0.368678 0.001999 0.074776
v 0.370705 0.001999 0.070664
v 0.392117 0.001999 0.059016
v 0.383724 0.001999 0.064155
v 0.381840 0.001999 0.060729
v 0.378756 0.001999 0.059188
v 0.374988 0.001999 0.063299
v 0.376358 0.001999 0.069465
v 0.372104 0.001999 0.078630
v 0.375816 0.001999 0.082341
v 0.382239 0.001999 0.084054
v 0.389377 0.001999 0.086767
v 0.399512 0.001999 0.086338
v 0.401642 0.001999 0.083877
v 0.403223 0.001999 0.078630
v 0.398655 0.001999 0.076203
v 0.395943 0.001999 0.070065
v 0.395515 0.001999 0.065069
v 0.368678 -0.000001 0.074776
v 0.372104 -0.000001 0.078630
v 0.375816 -0.000001 0.082341
v 0.382239 -0.000001 0.084054
v 0.389377 -0.000001 0.086767
v 0.399512 -0.000001 0.086338
v 0.401642 -0.000001 0.083877
vn -0.0000 1.0000 -0.0000
vn -0.7474 -0.0000 0.6644
vn -0.7071 -0.0000 0.7071
vn -0.2577 -0.0000 0.9662
vn -0.3552 -0.0000 0.9348
vn 0.0422 -0.0000 0.9991
vn 0.7562 -0.0000 0.6544
vt 0.000000 0.000000
s 0
f 2/1/1 1/1/1 9/1/1 10/1/1 11/1/1 12/1/1 13/1/1 14/1/1 15/1/1 16/1/1 17/1/1 18/1/1 3/1/1 4/1/1 5/1/1 6/1/1 7/1/1 8/1/1
f 9/1/2 1/1/2 19/1/2 20/1/2
f 10/1/3 9/1/3 20/1/3 21/1/3
f 11/1/4 10/1/4 21/1/4 22/1/4
f 12/1/5 11/1/5 22/1/5 23/1/5
f 13/1/6 12/1/6 23/1/6 24/1/6
f 14/1/7 13/1/7 24/1/7 25/1/7
