# Blender 4.5.1 LTS
# www.blender.org
mtllib province_114.mtl
o province_114
v 0.195780 0.006502 1.002478
v 0.251280 0.006502 0.914088
v 0.308836 0.006502 0.926422
v 0.327337 0.006502 0.998367
v 0.376670 0.006502 1.027145
v 0.454782 0.006502 0.990144
v 0.487329 0.006502 1.027830
v 0.473625 0.006502 1.080932
v 0.545570 0.006502 1.122043
v 0.555848 0.006502 1.192276
v 0.643210 0.006502 1.219683
v 0.660339 0.006502 1.274499
v 0.590107 0.006502 1.327601
v 0.417097 0.006502 1.325888
v 0.138168 0.006502 1.008879
v 0.127648 0.006502 1.191957
v 0.126012 0.006502 1.128168
v 0.085040 0.006502 1.080892
v 0.159686 0.006502 1.207335
v 0.209501 0.006502 1.192007
v 0.253691 0.006502 1.282228
v 0.348360 0.006502 1.345948
v 0.138168 -0.013498 1.008879
v 0.127648 -0.013498 1.191957
v 0.126012 -0.013498 1.128168
v 0.085040 -0.013498 1.080892
v 0.159686 -0.013498 1.207335
v 0.209501 -0.013498 1.192007
v 0.253691 -0.013498 1.282228
v 0.660339 -0.013498 1.274499
v 0.590107 -0.013498 1.327601
v 0.417097 -0.013498 1.325888
v 0.348360 -0.013498 1.345948
vn -0.0000 1.0000 -0.0000
vn -0.9997 -0.0000 0.0256
vn -0.7557 -0.0000 0.6549
vn -0.8047 -0.0000 -0.5937
vn -0.4327 -0.0000 0.9015
vn 0.2941 -0.0000 0.9558
vn -0.8981 -0.0000 0.4399
vn -0.5584 -0.0000 0.8296
vn 0.6031 -0.0000 0.7977
vn -0.0099 -0.0000 1.0000
vn 0.2802 -0.0000 0.9600
vt 0.000000 0.000000
s 0
f 4/1/1 1/1/1 20/1/1
f 17/1/2 24/1/2 16/1/2
f 18/1/3 25/1/3 17/1/3
f 15/1/4 26/1/4 18/1/4
f 16/1/5 27/1/5 19/1/5
f 19/1/6 28/1/6 20/1/6
f 20/1/7 29/1/7 21/1/7
f 21/1/8 33/1/8 22/1/8
f 13/1/9 30/1/9 12/1/9
f 14/1/10 31/1/10 13/1/10
f 22/1/11 32/1/11 14/1/11
f 14/1/1 13/1/1 10/1/1
f 13/1/1 12/1/1 11/1/1
f 10/1/1 13/1/1 11/1/1
f 10/1/1 9/1/1 8/1/1
f 8/1/1 7/1/1 6/1/1
f 8/1/1 6/1/1 5/1/1
f 10/1/1 8/1/1 14/1/1
f 8/1/1 5/1/1 21/1/1
f 21/1/1 5/1/1 20/1/1
f 4/1/1 3/1/1 2/1/1
f 5/1/1 4/1/1 20/1/1
f 22/1/1 14/1/1 21/1/1
f 8/1/1 21/1/1 14/1/1
f 16/1/1 19/1/1 17/1/1
f 19/1/1 20/1/1 17/1/1
f 15/1/1 18/1/1 17/1/1
f 4/1/1 2/1/1 1/1/1
f 15/1/1 17/1/1 1/1/1
f 17/1/1 20/1/1 1/1/1
f 17/1/2 25/1/2 24/1/2
f 18/1/3 26/1/3 25/1/3
f 15/1/4 23/1/4 26/1/4
f 16/1/5 24/1/5 27/1/5
f 19/1/6 27/1/6 28/1/6
f 20/1/7 28/1/7 29/1/7
f 21/1/8 29/1/8 33/1/8
f 13/1/9 31/1/9 30/1/9
f 14/1/10 32/1/10 31/1/10
f 22/1/11 33/1/11 32/1/11
