# Blender 4.5.1 LTS
# www.blender.org
mtllib province_087.mtl
o province_087
v 0.521799 0.006502 -1.295839
v 0.436150 0.006502 -1.287274
v 0.401891 0.006502 -1.326673
v 0.326520 0.006502 -1.299265
v 0.540642 0.006502 -1.242737
v 0.533600 0.006502 -1.181070
v 0.587511 0.006502 -1.137293
v 0.598883 0.006502 -1.093708
v 0.569408 0.006502 -1.015104
v 0.455646 0.006502 -1.026012
v 0.427859 0.006502 -1.122449
v 0.370621 0.006502 -1.175871
v 0.297240 0.006502 -1.175871
v 0.275290 0.006502 -1.293872
v 0.631657 0.006502 -1.043834
v 0.569408 -0.013498 -1.015104
v 0.455646 -0.013498 -1.026012
v 0.427859 -0.013498 -1.122449
v 0.370621 -0.013498 -1.175871
v 0.297240 -0.013498 -1.175871
v 0.275290 -0.013498 -1.293872
v 0.631657 -0.013498 -1.043834
vn -0.9831 -0.0000 0.1829
vn -0.0000 -0.0000 1.0000
vn -0.6823 -0.0000 0.7311
vn -0.9609 -0.0000 0.2769
vn -0.0955 -0.0000 0.9954
vn -0.0000 1.0000 -0.0000
vn 0.4191 -0.0000 0.9080
vt 0.000000 0.000000
s 0
f 14/1/1 20/1/1 13/1/1
f 13/1/2 19/1/2 12/1/2
f 12/1/3 18/1/3 11/1/3
f 11/1/4 17/1/4 10/1/4
f 10/1/5 16/1/5 9/1/5
f 6/1/6 2/1/6 11/1/6
f 9/1/7 22/1/7 15/1/7
f 14/1/1 21/1/1 20/1/1
f 13/1/2 20/1/2 19/1/2
f 12/1/3 19/1/3 18/1/3
f 11/1/4 18/1/4 17/1/4
f 10/1/5 17/1/5 16/1/5
f 11/1/6 10/1/6 7/1/6
f 10/1/6 9/1/6 8/1/6
f 9/1/6 15/1/6 8/1/6
f 8/1/6 7/1/6 10/1/6
f 7/1/6 6/1/6 11/1/6
f 6/1/6 5/1/6 2/1/6
f 5/1/6 1/1/6 2/1/6
f 2/1/6 3/1/6 4/1/6
f 12/1/6 11/1/6 2/1/6
f 14/1/6 13/1/6 4/1/6
f 13/1/6 12/1/6 4/1/6
f 2/1/6 4/1/6 12/1/6
f 9/1/7 16/1/7 22/1/7
