# Blender 4.5.1 LTS
# www.blender.org
mtllib province_102.mtl
o province_102
v -0.060758 0.001999 0.163936
v -0.060758 0.001999 0.151683
v -0.067895 0.001999 0.152040
v -0.046070 0.001999 0.130235
v -0.045659 0.001999 0.133729
v -0.041959 0.001999 0.136402
v -0.038670 0.001999 0.134757
v -0.031886 0.001999 0.140513
v -0.026953 0.001999 0.140513
v -0.022225 0.001999 0.136607
v -0.016469 0.001999 0.135785
v -0.005780 0.001999 0.139279
v -0.006397 0.001999 0.144007
v -0.014619 0.001999 0.168263
v -0.026336 0.001999 0.162096
v -0.037847 0.001999 0.161480
v -0.046275 0.001999 0.160246
v -0.053881 0.001999 0.167235
v -0.057381 0.001999 0.132986
v -0.069409 0.001999 0.140203
v -0.068010 0.001999 0.145331
v -0.071164 0.001999 0.150012
v 0.000269 0.001999 0.147840
v 0.001876 0.001999 0.152660
v -0.003113 0.001999 0.156850
v -0.002715 0.001999 0.161830
v -0.006079 0.001999 0.167580
v -0.057381 -0.000001 0.132986
v -0.069409 -0.000001 0.140203
v -0.068010 -0.000001 0.145331
v -0.071164 -0.000001 0.150012
v 0.000269 -0.000001 0.147840
v 0.001876 -0.000001 0.152660
v -0.003113 -0.000001 0.156850
v -0.002715 -0.000001 0.161830
v -0.006079 -0.000001 0.167580
vn -0.8293 -0.0000 -0.5588
vn -0.9648 -0.0000 0.2631
vn -0.5145 -0.0000 -0.8575
vn -0.0000 1.0000 -0.0000
vn 0.9487 -0.0000 -0.3162
vn 0.6432 -0.0000 0.7657
vn 0.9968 -0.0000 -0.0797
vn 0.8631 -0.0000 0.5051
vt 0.000000 0.000000
s 0
f 22/1/1 21/1/1 30/1/1 31/1/1
f 21/1/2 20/1/2 29/1/2 30/1/2
f 20/1/3 19/1/3 28/1/3 29/1/3
f 1/1/4 18/1/4 17/1/4 16/1/4 15/1/4 14/1/4 27/1/4 26/1/4 25/1/4 24/1/4 23/1/4 13/1/4 12/1/4 11/1/4 10/1/4 9/1/4 8/1/4 7/1/4 6/1/4 5/1/4 4/1/4 19/1/4 20/1/4 21/1/4 22/1/4 3/1/4 2/1/4
f 23/1/5 24/1/5 33/1/5 32/1/5
f 24/1/6 25/1/6 34/1/6 33/1/6
f 25/1/7 26/1/7 35/1/7 34/1/7
f 26/1/8 27/1/8 36/1/8 35/1/8
