# Blender 4.5.1 LTS
# www.blender.org
o province_042
v -44.689896 0.045516 -21.663086
v -43.556080 0.045516 -22.528366
v -43.048851 0.045516 -22.438852
v -42.213406 0.045516 -22.498529
v -41.915035 0.045516 -22.975924
v -42.951050 0.045516 -23.206148
v -42.965439 0.045516 -23.752935
v -43.497833 0.045516 -24.242163
v -44.217289 0.045516 -24.414833
v -44.706520 0.045516 -24.170218
v -45.267696 0.045516 -24.458000
v -45.943981 0.045516 -24.155828
v -46.015926 0.045516 -23.752935
v -45.656197 0.045516 -23.493931
v -45.684978 0.045516 -22.932756
v -46.116650 0.045516 -22.774477
v -46.116650 0.045516 -21.954298
v -45.483528 0.045516 -21.594572
v -44.689896 -0.094484 -21.663086
v -41.915035 -0.094484 -22.975924
v -42.951050 -0.094484 -23.206148
v -42.965439 -0.094484 -23.752935
v -43.497833 -0.094484 -24.242163
v -46.116650 -0.094484 -21.954298
v -45.483528 -0.094484 -21.594572
vn 0.2169 -0.0000 -0.9762
vn -0.0000 1.0000 -0.0000
vn -0.4940 -0.0000 0.8695
vn 0.0860 -0.0000 0.9963
vn 0.9997 -0.0000 -0.0263
vn 0.6766 -0.0000 -0.7363
vt 0.000000 0.000000
s 1
f 20/1/1 6/1/1 5/1/1
s 2
f 2/1/2 6/1/2 8/1/2
s 3
f 24/1/3 18/1/3 17/1/3
s 4
f 25/1/4 1/1/4 18/1/4
s 5
f 21/1/5 7/1/5 6/1/5
s 6
f 22/1/6 8/1/6 7/1/6
s 1
f 20/1/1 21/1/1 6/1/1
s 2
f 16/1/2 17/1/2 15/1/2
f 17/1/2 18/1/2 15/1/2
f 18/1/2 1/1/2 15/1/2
f 1/1/2 2/1/2 15/1/2
f 2/1/2 3/1/2 6/1/2
f 3/1/2 4/1/2 6/1/2
f 4/1/2 5/1/2 6/1/2
f 6/1/2 7/1/2 8/1/2
f 8/1/2 9/1/2 10/1/2
f 10/1/2 11/1/2 14/1/2
f 11/1/2 12/1/2 14/1/2
f 12/1/2 13/1/2 14/1/2
f 14/1/2 15/1/2 10/1/2
f 15/1/2 2/1/2 10/1/2
f 8/1/2 10/1/2 2/1/2
s 3
f 24/1/3 25/1/3 18/1/3
s 4
f 25/1/4 19/1/4 1/1/4
s 5
f 21/1/5 22/1/5 7/1/5
s 6
f 22/1/6 23/1/6 8/1/6
