# Blender 4.5.1 LTS
# www.blender.org
mtllib province_099.mtl
o province_099
v 0.197647 0.001999 -0.002521
v 0.192365 0.001999 -0.009944
v 0.187512 0.001999 -0.010515
v 0.188226 0.001999 -0.003663
v 0.180660 0.001999 -0.004519
v 0.177377 0.001999 -0.015226
v 0.174470 0.001999 -0.021589
v 0.204547 0.001999 -0.002759
v 0.207758 0.001999 -0.008945
v 0.216323 0.001999 -0.010015
v 0.179467 0.001999 -0.031011
v 0.188603 0.001999 -0.032153
v 0.196739 0.001999 -0.025586
v 0.203734 0.001999 -0.023017
v 0.212584 0.001999 -0.022018
vn -0.0000 1.0000 -0.0000
vt 0.000000 0.000000
s 0
f 1/1/1 8/1/1 9/1/1 10/1/1 15/1/1 14/1/1 13/1/1 12/1/1 11/1/1 7/1/1 6/1/1 5/1/1 4/1/1 3/1/1 2/1/1
