# Blender 4.5.1 LTS
# www.blender.org
mtllib province_114.mtl
o province_114
v 0.053420 0.001999 0.186558
v 0.058970 0.001999 0.177719
v 0.064726 0.001999 0.178952
v 0.066576 0.001999 0.186146
v 0.071509 0.001999 0.189024
v 0.079320 0.001999 0.185324
v 0.082575 0.001999 0.189093
v 0.081205 0.001999 0.194403
v 0.088399 0.001999 0.198514
v 0.089427 0.001999 0.205537
v 0.098163 0.001999 0.208278
v 0.099876 0.001999 0.213760
v 0.092853 0.001999 0.219070
v 0.075552 0.001999 0.218899
v 0.047659 0.001999 0.187198
v 0.046607 0.001999 0.205505
v 0.046443 0.001999 0.199127
v 0.042346 0.001999 0.194399
v 0.049811 0.001999 0.207043
v 0.054792 0.001999 0.205510
v 0.059211 0.001999 0.214533
v 0.068678 0.001999 0.220905
v 0.047659 -0.000001 0.187198
v 0.046607 -0.000001 0.205505
v 0.046443 -0.000001 0.199127
v 0.042346 -0.000001 0.194399
v 0.049811 -0.000001 0.207043
v 0.054792 -0.000001 0.205510
v 0.059211 -0.000001 0.214533
v 0.099876 -0.000001 0.213760
v 0.092853 -0.000001 0.219070
v 0.075552 -0.000001 0.218899
v 0.068678 -0.000001 0.220905
vn -0.0000 1.0000 -0.0000
vn -0.9997 -0.0000 0.0256
vn -0.7557 -0.0000 0.6549
vn -0.8047 -0.0000 -0.5937
vn -0.4327 -0.0000 0.9015
vn 0.2941 -0.0000 0.9558
vn -0.8981 -0.0000 0.4399
vn -0.5584 -0.0000 0.8296
vn 0.6031 -0.0000 0.7977
vn -0.0099 -0.0000 1.0000
vn 0.2802 -0.0000 0.9600
vt 0.000000 0.000000
s 0
f 14/1/1 13/1/1 12/1/1 11/1/1 10/1/1 9/1/1 8/1/1 7/1/1 6/1/1 5/1/1 4/1/1 3/1/1 2/1/1 1/1/1 15/1/1 18/1/1 17/1/1 16/1/1 19/1/1 20/1/1 21/1/1 22/1/1
f 16/1/2 17/1/2 25/1/2 24/1/2
f 17/1/3 18/1/3 26/1/3 25/1/3
f 18/1/4 15/1/4 23/1/4 26/1/4
f 19/1/5 16/1/5 24/1/5 27/1/5
f 20/1/6 19/1/6 27/1/6 28/1/6
f 21/1/7 20/1/7 28/1/7 29/1/7
f 22/1/8 21/1/8 29/1/8 33/1/8
f 12/1/9 13/1/9 31/1/9 30/1/9
f 13/1/10 14/1/10 32/1/10 31/1/10
f 14/1/11 22/1/11 33/1/11 32/1/11
