# Blender 4.5.1 LTS
# www.blender.org
mtllib province_143.mtl
o province_143
v 3.303890 0.006502 -0.691347
v 3.366050 0.006502 -0.729828
v 3.457812 0.006502 -0.706147
v 3.514052 0.006502 -0.711122
v 3.584716 0.006502 -0.703608
v 3.638853 0.006502 -0.717279
v 3.305811 0.006502 -0.892474
v 3.294391 0.006502 -0.846794
v 3.268697 0.006502 -0.831092
v 3.267269 0.006502 -0.788267
v 3.315804 0.006502 -0.744015
v 3.358914 0.006502 -0.885622
v 3.439424 0.006502 -0.892474
v 3.489100 0.006502 -0.926733
v 3.542203 0.006502 -0.928446
v 3.579888 0.006502 -0.962706
v 3.624140 0.006502 -0.932729
v 3.619858 0.006502 -0.899897
v 3.591308 0.006502 -0.871347
v 3.588453 0.006502 -0.829950
v 3.645552 0.006502 -0.782843
v 3.666965 0.006502 -0.751438
vn -0.0000 1.0000 -0.0000
vt 0.000000 0.000000
s 0
f 15/1/1 18/1/1 16/1/1
f 2/1/1 3/1/1 13/1/1
f 3/1/1 4/1/1 13/1/1
f 4/1/1 5/1/1 20/1/1
f 5/1/1 6/1/1 21/1/1
f 20/1/1 5/1/1 21/1/1
f 6/1/1 22/1/1 21/1/1
f 11/1/1 1/1/1 2/1/1
f 9/1/1 10/1/1 8/1/1
f 10/1/1 11/1/1 8/1/1
f 12/1/1 7/1/1 8/1/1
f 11/1/1 2/1/1 8/1/1
f 4/1/1 20/1/1 13/1/1
f 12/1/1 8/1/1 2/1/1
f 15/1/1 14/1/1 19/1/1
f 14/1/1 13/1/1 20/1/1
f 19/1/1 14/1/1 20/1/1
f 13/1/1 12/1/1 2/1/1
f 19/1/1 18/1/1 15/1/1
f 18/1/1 17/1/1 16/1/1
