# Blender 4.5.1 LTS
# www.blender.org
o province_095
v 10.557845 0.045516 -1.939819
v 10.658568 0.045516 -1.493760
v 10.903182 0.045516 -1.277924
v 11.982361 0.045516 0.060255
v 11.967972 0.045516 -0.500917
v 11.507523 0.045516 -0.558473
v 11.363633 0.045516 -1.062088
v 11.205351 0.045516 -2.558547
v 13.394878 0.045516 -0.372616
v 11.185520 0.045516 -2.766765
v 11.745192 0.045516 -2.732698
v 11.754457 0.045516 -2.426920
v 12.233441 0.045516 -2.294434
v 12.319592 0.045516 -1.844539
v 13.532383 0.045516 -0.914036
v 11.185520 -0.094484 -2.766765
v 11.745192 -0.094484 -2.732698
v 11.754457 -0.094484 -2.426920
v 12.233441 -0.094484 -2.294434
v 12.319592 -0.094484 -1.844539
v 13.532383 -0.094484 -0.914036
v 11.982361 -0.094484 0.060255
v 13.394878 -0.094484 -0.372616
vn -0.0000 1.0000 -0.0000
vn 0.0608 -0.0000 -0.9982
vn 0.2666 -0.0000 -0.9638
vn 0.9995 -0.0000 -0.0303
vn 0.9692 -0.0000 0.2462
vn 0.2930 -0.0000 0.9561
vn 0.6087 -0.0000 -0.7934
vn 0.9822 -0.0000 -0.1881
vt 0.000000 0.000000
s 1
f 7/1/1 5/1/1 14/1/1
s 2
f 17/1/2 10/1/2 11/1/2
s 3
f 19/1/3 12/1/3 13/1/3
s 4
f 18/1/4 11/1/4 12/1/4
s 5
f 23/1/5 15/1/5 9/1/5
s 6
f 9/1/6 22/1/6 23/1/6
s 7
f 21/1/7 14/1/7 15/1/7
s 8
f 20/1/8 13/1/8 14/1/8
s 1
f 12/1/1 11/1/1 8/1/1
f 11/1/1 10/1/1 8/1/1
f 8/1/1 1/1/1 3/1/1
f 1/1/1 2/1/1 3/1/1
f 14/1/1 13/1/1 12/1/1
f 9/1/1 15/1/1 5/1/1
f 15/1/1 14/1/1 5/1/1
f 5/1/1 4/1/1 9/1/1
f 7/1/1 6/1/1 5/1/1
f 3/1/1 7/1/1 12/1/1
f 12/1/1 8/1/1 3/1/1
f 14/1/1 12/1/1 7/1/1
s 2
f 17/1/2 16/1/2 10/1/2
s 3
f 19/1/3 18/1/3 12/1/3
s 4
f 18/1/4 17/1/4 11/1/4
s 5
f 23/1/5 21/1/5 15/1/5
s 6
f 9/1/6 4/1/6 22/1/6
s 7
f 21/1/7 20/1/7 14/1/7
s 8
f 20/1/8 19/1/8 13/1/8
