# Blender 4.5.1 LTS
# www.blender.org
mtllib province_158.mtl
o province_158
v -0.100223 0.006502 0.653030
v -0.157779 0.006502 0.595474
v -0.233835 0.006502 0.620141
v -0.307789 0.006502 0.623663
v -0.291897 0.006502 0.671339
v -0.344786 0.006502 0.715766
v -0.340867 0.006502 0.764755
v -0.364315 0.006502 0.804952
v -0.307382 0.006502 0.825511
v -0.239568 0.006502 0.806438
v -0.187549 0.006502 0.845973
v -0.117530 0.006502 0.834303
v -0.115279 0.006502 0.901828
v -0.039596 0.006502 0.932461
v 0.009796 0.006502 0.921309
v 0.003485 0.006502 0.875556
v -0.025598 0.006502 0.836087
v -0.029714 0.006502 0.764046
v -0.063120 0.006502 0.717278
v -0.032472 0.006502 0.666928
v 0.009796 -0.013498 0.921309
v -0.307789 -0.013498 0.623663
v -0.291897 -0.013498 0.671339
v -0.344786 -0.013498 0.715766
v -0.340867 -0.013498 0.764755
v -0.364315 -0.013498 0.804952
v -0.307382 -0.013498 0.825511
v -0.239568 -0.013498 0.806438
v -0.187549 -0.013498 0.845973
v -0.117530 -0.013498 0.834303
v -0.115279 -0.013498 0.901828
v -0.039596 -0.013498 0.932461
v 0.003485 -0.013498 0.875556
v -0.025598 -0.013498 0.836087
v -0.029714 -0.013498 0.764046
v -0.063120 -0.013498 0.717278
v -0.032472 -0.013498 0.666928
vn -0.0000 1.0000 -0.0000
vn -0.9487 -0.0000 0.3162
vn -0.6432 -0.0000 -0.7657
vn -0.9968 -0.0000 0.0797
vn -0.8638 -0.0000 -0.5039
vn -0.3396 -0.0000 0.9406
vn 0.2707 -0.0000 0.9627
vn -0.6051 -0.0000 0.7962
vn 0.1644 -0.0000 0.9864
vn -0.9994 -0.0000 0.0333
vn -0.3752 -0.0000 0.9269
vn 0.2203 -0.0000 0.9754
vn 0.9906 -0.0000 -0.1366
vn 0.8051 -0.0000 -0.5932
vn 0.9984 -0.0000 -0.0571
vn 0.8137 -0.0000 -0.5812
vn 0.8542 -0.0000 0.5199
vt 0.000000 0.000000
s 0
f 1/1/1 3/1/1 10/1/1
f 4/1/2 23/1/2 5/1/2
f 5/1/3 24/1/3 6/1/3
f 6/1/4 25/1/4 7/1/4
f 7/1/5 26/1/5 8/1/5
f 8/1/6 27/1/6 9/1/6
f 9/1/7 28/1/7 10/1/7
f 10/1/8 29/1/8 11/1/8
f 11/1/9 30/1/9 12/1/9
f 12/1/10 31/1/10 13/1/10
f 13/1/11 32/1/11 14/1/11
f 14/1/12 21/1/12 15/1/12
f 15/1/13 33/1/13 16/1/13
f 16/1/14 34/1/14 17/1/14
f 17/1/15 35/1/15 18/1/15
f 18/1/16 36/1/16 19/1/16
f 19/1/17 37/1/17 20/1/17
f 7/1/1 8/1/1 9/1/1
f 10/1/1 11/1/1 12/1/1
f 7/1/1 9/1/1 10/1/1
f 5/1/1 6/1/1 7/1/1
f 3/1/1 4/1/1 5/1/1
f 1/1/1 2/1/1 3/1/1
f 19/1/1 20/1/1 1/1/1
f 17/1/1 18/1/1 12/1/1
f 18/1/1 19/1/1 12/1/1
f 15/1/1 16/1/1 14/1/1
f 16/1/1 17/1/1 14/1/1
f 13/1/1 14/1/1 17/1/1
f 7/1/1 10/1/1 5/1/1
f 10/1/1 12/1/1 19/1/1
f 5/1/1 10/1/1 3/1/1
f 12/1/1 13/1/1 17/1/1
f 19/1/1 1/1/1 10/1/1
f 4/1/2 22/1/2 23/1/2
f 5/1/3 23/1/3 24/1/3
f 6/1/4 24/1/4 25/1/4
f 7/1/5 25/1/5 26/1/5
f 8/1/6 26/1/6 27/1/6
f 9/1/7 27/1/7 28/1/7
f 10/1/8 28/1/8 29/1/8
f 11/1/9 29/1/9 30/1/9
f 12/1/10 30/1/10 31/1/10
f 13/1/11 31/1/11 32/1/11
f 14/1/12 32/1/12 21/1/12
f 15/1/13 21/1/13 33/1/13
f 16/1/14 33/1/14 34/1/14
f 17/1/15 34/1/15 35/1/15
f 18/1/16 35/1/16 36/1/16
f 19/1/17 36/1/17 37/1/17
