# Blender 4.5.1 LTS
# www.blender.org
mtllib province_120.mtl
o province_120
v 2.636776 0.006502 1.718847
v 2.715574 0.006502 1.763385
v 2.835483 0.006502 1.768523
v 2.960530 0.006502 1.711995
v 3.046180 0.006502 1.742829
v 3.124977 0.006502 1.775376
v 3.181505 0.006502 1.759959
v 3.286568 0.006502 1.943534
v 3.255163 0.006502 1.826480
v 2.588813 0.006502 1.756533
v 2.545988 0.006502 1.850747
v 2.472330 0.006502 1.903849
v 2.391820 0.006502 1.939822
v 2.384968 0.006502 1.975794
v 2.438070 0.006502 2.022045
v 2.424366 0.006502 2.078573
v 2.557979 0.006502 2.102555
v 2.710435 0.006502 2.095703
v 2.787519 0.006502 2.068295
v 2.897150 0.006502 2.102555
v 3.042753 0.006502 2.099129
v 3.114699 0.006502 2.037462
v 3.179792 0.006502 1.963804
v 3.244885 0.006502 1.948387
v 2.557868 0.006502 1.824612
v 3.286568 -0.013498 1.943534
v 2.424366 -0.013498 2.078573
v 2.557979 -0.013498 2.102555
v 2.710435 -0.013498 2.095703
v 2.787519 -0.013498 2.068295
v 2.897150 -0.013498 2.102555
v 3.042753 -0.013498 2.099129
v 3.114699 -0.013498 2.037462
v 3.179792 -0.013498 1.963804
v 3.244885 -0.013498 1.948387
vn -0.0000 1.0000 -0.0000
vn 0.7493 -0.0000 0.6622
vn 0.2305 -0.0000 0.9731
vn 0.1156 -0.0000 0.9933
vn -0.1767 -0.0000 0.9843
vn 0.0449 -0.0000 0.9990
vn 0.3350 -0.0000 0.9422
vn -0.2983 -0.0000 0.9545
vn 0.0235 -0.0000 0.9997
vn 0.6508 -0.0000 0.7593
vt 0.000000 0.000000
s 0
f 12/1/1 15/1/1 17/1/1
f 22/1/2 34/1/2 23/1/2
f 23/1/3 35/1/3 24/1/3
f 24/1/4 26/1/4 8/1/4
f 16/1/5 28/1/5 17/1/5
f 17/1/6 29/1/6 18/1/6
f 18/1/7 30/1/7 19/1/7
f 19/1/8 31/1/8 20/1/8
f 20/1/9 32/1/9 21/1/9
f 21/1/10 33/1/10 22/1/10
f 2/1/1 1/1/1 10/1/1
f 2/1/1 10/1/1 25/1/1
f 5/1/1 4/1/1 3/1/1
f 3/1/1 2/1/1 19/1/1
f 2/1/1 25/1/1 11/1/1
f 2/1/1 11/1/1 18/1/1
f 19/1/1 2/1/1 18/1/1
f 6/1/1 5/1/1 22/1/1
f 5/1/1 3/1/1 22/1/1
f 22/1/1 3/1/1 20/1/1
f 9/1/1 7/1/1 6/1/1
f 24/1/1 8/1/1 9/1/1
f 21/1/1 22/1/1 20/1/1
f 22/1/1 23/1/1 6/1/1
f 23/1/1 24/1/1 9/1/1
f 9/1/1 6/1/1 23/1/1
f 11/1/1 12/1/1 17/1/1
f 12/1/1 13/1/1 15/1/1
f 13/1/1 14/1/1 15/1/1
f 15/1/1 16/1/1 17/1/1
f 19/1/1 20/1/1 3/1/1
f 17/1/1 18/1/1 11/1/1
f 22/1/2 33/1/2 34/1/2
f 23/1/3 34/1/3 35/1/3
f 24/1/4 35/1/4 26/1/4
f 16/1/5 27/1/5 28/1/5
f 17/1/6 28/1/6 29/1/6
f 18/1/7 29/1/7 30/1/7
f 19/1/8 30/1/8 31/1/8
f 20/1/9 31/1/9 32/1/9
f 21/1/10 32/1/10 33/1/10
