# Blender 4.5.1 LTS
# www.blender.org
mtllib province_176.mtl
o province_176
v 0.142522 0.001999 0.008401
v 0.140523 0.001999 0.022105
v 0.141665 0.001999 0.027814
v 0.149088 0.001999 0.028385
v 0.156226 0.001999 0.025245
v 0.159794 0.001999 0.027957
v 0.193650 0.001999 0.012182
v 0.188368 0.001999 0.011468
v 0.184942 0.001999 0.006187
v 0.179946 0.001999 0.009755
v 0.178804 0.001999 0.014894
v 0.173094 0.001999 0.018035
v 0.171952 0.001999 0.024173
v 0.165529 0.001999 0.025315
v 0.193079 0.001999 0.005045
v 0.197647 0.001999 -0.002521
v 0.192365 0.001999 -0.009944
v 0.187512 0.001999 -0.010515
v 0.188226 0.001999 -0.003663
v 0.180660 0.001999 -0.004519
v 0.172381 0.001999 -0.003377
v 0.167384 0.001999 -0.008374
v 0.159962 0.001999 -0.005376
v 0.156536 0.001999 -0.001379
v 0.150968 0.001999 -0.000808
vn -0.0000 1.0000 -0.0000
vt 0.000000 0.000000
s 0
f 14/1/1 13/1/1 12/1/1 11/1/1 10/1/1 9/1/1 8/1/1 7/1/1 15/1/1 16/1/1 17/1/1 18/1/1 19/1/1 20/1/1 21/1/1 22/1/1 23/1/1 24/1/1 25/1/1 1/1/1 2/1/1 3/1/1 4/1/1 5/1/1 6/1/1
