# Blender 4.5.1 LTS
# www.blender.org
mtllib province_159.mtl
o province_159
v -0.203139 0.001999 -0.025628
v -0.201355 0.001999 -0.019779
v -0.204131 0.001999 -0.015120
v -0.202644 0.001999 -0.007190
v -0.200413 0.001999 -0.004546
v -0.198100 0.001999 0.000906
v -0.192979 0.001999 0.000080
v -0.187526 0.001999 0.000576
v -0.183479 0.001999 0.006358
v -0.177861 0.001999 0.007432
v -0.194053 0.001999 -0.027363
v -0.183644 0.001999 -0.027280
v -0.175300 0.001999 -0.025463
v -0.177256 0.001999 0.010821
v -0.167427 0.001999 -0.029837
v -0.163310 0.001999 -0.023943
v -0.162692 0.001999 -0.019325
v -0.170297 0.001999 -0.015414
v -0.172130 0.001999 -0.010784
v -0.171544 0.001999 -0.001493
v -0.173392 0.001999 0.008744
v -0.177256 -0.000001 0.010821
v -0.163310 -0.000001 -0.023943
v -0.162692 -0.000001 -0.019325
v -0.170297 -0.000001 -0.015414
v -0.172130 -0.000001 -0.010784
v -0.171544 -0.000001 -0.001493
v -0.173392 -0.000001 0.008744
v -0.203139 -0.000001 -0.025628
v -0.194053 -0.000001 -0.027363
v -0.183644 -0.000001 -0.027280
v -0.175300 -0.000001 -0.025463
v -0.167427 -0.000001 -0.029837
vn -0.0000 1.0000 -0.0000
vn 0.8198 -0.0000 -0.5727
vn 0.9912 -0.0000 -0.1326
vn 0.4573 -0.0000 0.8893
vn 0.9298 -0.0000 0.3680
vn 0.9980 -0.0000 -0.0629
vn 0.9841 -0.0000 0.1777
vn 0.4735 -0.0000 0.8808
vn -0.4856 -0.0000 -0.8742
vn -0.1875 -0.0000 -0.9823
vn 0.0079 -0.0000 -1.0000
vn 0.2128 -0.0000 -0.9771
vt 0.000000 0.000000
s 0
f 11/1/1 1/1/1 2/1/1 3/1/1 4/1/1 5/1/1 6/1/1 7/1/1 8/1/1 9/1/1 10/1/1 14/1/1 21/1/1 20/1/1 19/1/1 18/1/1 17/1/1 16/1/1 15/1/1 13/1/1 12/1/1
f 15/1/2 16/1/2 23/1/2 33/1/2
f 16/1/3 17/1/3 24/1/3 23/1/3
f 17/1/4 18/1/4 25/1/4 24/1/4
f 18/1/5 19/1/5 26/1/5 25/1/5
f 19/1/6 20/1/6 27/1/6 26/1/6
f 20/1/7 21/1/7 28/1/7 27/1/7
f 21/1/8 14/1/8 22/1/8 28/1/8
f 13/1/9 15/1/9 33/1/9 32/1/9
f 1/1/10 11/1/10 30/1/10 29/1/10
f 11/1/11 12/1/11 31/1/11 30/1/11
f 12/1/12 13/1/12 32/1/12 31/1/12
