# Blender 4.5.1 LTS
# www.blender.org
o province_164
v -22.606213 0.045516 5.306065
v -22.881182 0.045516 5.523215
v -24.994429 0.045516 6.873151
v -25.312471 0.045516 6.728586
v -25.335604 0.045516 6.416325
v -24.930820 0.045516 5.901673
v -24.497126 0.045516 5.791803
v -24.306301 0.045516 5.572063
v -23.514084 0.045516 5.537368
v -22.279554 0.045516 5.541985
v -22.215969 0.045516 6.247763
v -22.252144 0.045516 6.573350
v -22.606167 0.045516 6.909059
v -22.438200 0.045516 7.338309
v -22.518316 0.045516 7.776600
v -22.746225 0.045516 7.752611
v -23.704487 0.045516 6.972228
v -24.153688 0.045516 6.822495
v -24.473572 0.045516 6.865555
v -24.545120 0.045516 6.936640
v -22.518316 -0.094484 7.776600
v -24.473572 -0.094484 6.865555
v -22.279554 -0.094484 5.541985
v -22.215969 -0.094484 6.247763
v -22.252144 -0.094484 6.573350
v -22.606167 -0.094484 6.909059
v -22.438200 -0.094484 7.338309
v -22.746225 -0.094484 7.752611
v -23.704487 -0.094484 6.972228
v -24.153688 -0.094484 6.822495
v -24.545120 -0.094484 6.936640
v -23.965126 0.045516 5.716629
vn 0.9837 -0.0000 0.1798
vn -0.3162 -0.0000 0.9487
vn 0.9939 -0.0000 0.1104
vn 0.7048 -0.0000 0.7094
vn -0.1047 -0.0000 0.9945
vn -0.6315 -0.0000 0.7754
vn 0.9960 -0.0000 -0.0897
vn -0.0000 1.0000 -0.0000
vn 0.9312 -0.0000 -0.3644
vn 0.6881 -0.0000 0.7256
vn 0.1334 -0.0000 0.9911
vt 0.000000 0.000000
s 1
f 21/1/1 14/1/1 15/1/1
s 2
f 30/1/2 17/1/2 18/1/2
s 3
f 25/1/3 11/1/3 12/1/3
s 4
f 31/1/4 19/1/4 20/1/4
s 5
f 28/1/5 15/1/5 16/1/5
s 6
f 29/1/6 16/1/6 17/1/6
s 7
f 24/1/7 10/1/7 11/1/7
s 8
f 17/1/8 16/1/8 13/1/8
s 9
f 27/1/9 13/1/9 14/1/9
s 10
f 26/1/10 12/1/10 13/1/10
s 11
f 22/1/11 18/1/11 19/1/11
s 1
f 21/1/1 27/1/1 14/1/1
s 2
f 30/1/2 29/1/2 17/1/2
s 3
f 25/1/3 24/1/3 11/1/3
s 4
f 31/1/4 22/1/4 19/1/4
s 5
f 28/1/5 21/1/5 15/1/5
s 6
f 29/1/6 28/1/6 16/1/6
s 7
f 24/1/7 23/1/7 10/1/7
s 8
f 7/1/8 6/1/8 19/1/8
f 6/1/8 5/1/8 3/1/8
f 5/1/8 4/1/8 3/1/8
f 3/1/8 20/1/8 19/1/8
f 3/1/8 19/1/8 6/1/8
f 19/1/8 18/1/8 7/1/8
f 32/1/8 8/1/8 7/1/8
f 2/1/8 9/1/8 13/1/8
f 9/1/8 32/1/8 17/1/8
f 13/1/8 9/1/8 17/1/8
f 10/1/8 1/1/8 2/1/8
f 12/1/8 11/1/8 13/1/8
f 11/1/8 10/1/8 2/1/8
f 15/1/8 14/1/8 16/1/8
f 14/1/8 13/1/8 16/1/8
f 11/1/8 2/1/8 13/1/8
f 32/1/8 7/1/8 18/1/8
f 32/1/8 18/1/8 17/1/8
s 9
f 27/1/9 26/1/9 13/1/9
s 10
f 26/1/10 25/1/10 12/1/10
s 11
f 22/1/11 30/1/11 18/1/11
