# Blender 4.5.1 LTS
# www.blender.org
o province_041
v -43.497833 0.045516 -24.242165
v -44.217285 0.045516 -24.414833
v -44.706516 0.045516 -24.170218
v -45.267693 0.045516 -24.458000
v -45.943981 0.045516 -24.155830
v -46.778549 0.045516 -24.285332
v -46.878471 0.045516 -24.655054
v -46.528732 0.045516 -25.104713
v -46.558708 0.045516 -25.494415
v -46.748566 0.045516 -25.854143
v -46.488766 0.045516 -26.133930
v -46.188992 0.045516 -26.353764
v -46.398834 0.045516 -26.823408
v -46.129036 0.045516 -27.173141
v -45.129791 0.045516 -26.913340
v -43.970673 0.045516 -26.183893
v -43.540997 0.045516 -26.273827
v -43.181271 0.045516 -25.844151
v -42.811554 0.045516 -25.674278
v -42.811554 0.045516 -25.104710
v -43.331158 0.045516 -24.715006
v -43.497833 -0.094484 -24.242165
v -46.129036 -0.094484 -27.173141
v -45.129791 -0.094484 -26.913340
v -43.970673 -0.094484 -26.183893
v -43.540997 -0.094484 -26.273827
v -43.181271 -0.094484 -25.844151
v -42.811554 -0.094484 -25.674278
v -42.811554 -0.094484 -25.104710
v -43.331158 -0.094484 -24.715006
vn 0.7668 -0.0000 -0.6419
vn 0.9431 -0.0000 0.3324
vn 0.5326 -0.0000 -0.8464
vn -0.0000 1.0000 -0.0000
vn 0.2516 -0.0000 -0.9678
vn 1.0000 -0.0000 -0.0000
vn 0.6000 -0.0000 0.8000
vn 0.4175 -0.0000 -0.9087
vn -0.2049 -0.0000 -0.9788
vt 0.000000 0.000000
s 1
f 27/1/1 17/1/1 18/1/1
s 2
f 22/1/2 21/1/2 1/1/2
s 3
f 25/1/3 15/1/3 16/1/3
s 4
f 15/1/4 12/1/4 4/1/4
s 5
f 24/1/5 14/1/5 15/1/5
s 6
f 29/1/6 19/1/6 20/1/6
s 7
f 30/1/7 20/1/7 21/1/7
s 8
f 28/1/8 18/1/8 19/1/8
s 9
f 26/1/9 16/1/9 17/1/9
s 1
f 27/1/1 26/1/1 17/1/1
s 2
f 22/1/2 30/1/2 21/1/2
s 3
f 25/1/3 24/1/3 15/1/3
s 4
f 8/1/4 7/1/4 6/1/4
f 6/1/4 5/1/4 8/1/4
f 5/1/4 4/1/4 8/1/4
f 4/1/4 3/1/4 2/1/4
f 2/1/4 1/1/4 21/1/4
f 21/1/4 20/1/4 18/1/4
f 20/1/4 19/1/4 18/1/4
f 18/1/4 17/1/4 16/1/4
f 4/1/4 2/1/4 16/1/4
f 2/1/4 21/1/4 16/1/4
f 11/1/4 10/1/4 9/1/4
f 9/1/4 8/1/4 4/1/4
f 21/1/4 18/1/4 16/1/4
f 16/1/4 15/1/4 4/1/4
f 15/1/4 14/1/4 12/1/4
f 11/1/4 9/1/4 12/1/4
f 9/1/4 4/1/4 12/1/4
f 14/1/4 13/1/4 12/1/4
s 5
f 24/1/5 23/1/5 14/1/5
s 6
f 29/1/6 28/1/6 19/1/6
s 7
f 30/1/7 29/1/7 20/1/7
s 8
f 28/1/8 27/1/8 18/1/8
s 9
f 26/1/9 25/1/9 16/1/9
