# Blender 4.5.1 LTS
# www.blender.org
o province_030
v -10.920590 0.045516 -8.858003
v -10.636086 0.045516 -8.448593
v -10.330763 0.045516 -8.337566
v -10.261372 0.045516 -7.872643
v -9.810327 0.045516 -7.754679
v -8.299480 0.045516 -8.186349
v -8.932597 0.045516 -7.884179
v -9.464991 0.045516 -8.056848
v -10.244307 0.045516 -9.203339
v -10.014083 0.045516 -9.548676
v -9.999693 0.045516 -10.081068
v -9.524856 0.045516 -10.354460
v -9.150742 0.045516 -10.397628
v -8.848572 0.045516 -10.843687
v -7.809422 0.045516 -8.626145
v -8.536004 0.045516 -10.994183
v -8.061450 0.045516 -10.275162
v -7.783101 0.045516 -9.381513
v -7.809422 -0.094484 -8.626145
v -8.536004 -0.094484 -10.994183
v -8.061450 -0.094484 -10.275162
v -7.783101 -0.094484 -9.381513
v -10.920590 -0.094484 -8.858003
v -10.244307 -0.094484 -9.203339
v -10.014083 -0.094484 -9.548676
v -9.999693 -0.094484 -10.081068
v -9.524856 -0.094484 -10.354460
v -9.150742 -0.094484 -10.397628
v -8.848572 -0.094484 -10.843687
vn -0.4338 -0.0000 -0.9010
vn -0.8279 -0.0000 -0.5608
vn -0.9996 -0.0000 -0.0270
vn -0.4990 -0.0000 -0.8666
vn 0.9994 -0.0000 0.0348
vn -0.4548 -0.0000 -0.8906
vn 0.8346 -0.0000 -0.5508
vn 0.9548 -0.0000 -0.2974
vn -0.0000 1.0000 -0.0000
vn -0.1146 -0.0000 -0.9934
vn -0.8321 -0.0000 -0.5547
vt 0.000000 0.000000
s 1
f 20/1/1 14/1/1 16/1/1
s 2
f 29/1/2 13/1/2 14/1/2
s 3
f 26/1/3 10/1/3 11/1/3
s 4
f 27/1/4 11/1/4 12/1/4
s 5
f 19/1/5 18/1/5 15/1/5
s 6
f 24/1/6 1/1/6 9/1/6
s 7
f 21/1/7 16/1/7 17/1/7
s 8
f 22/1/8 17/1/8 18/1/8
s 9
f 3/1/9 8/1/9 9/1/9
s 10
f 28/1/10 12/1/10 13/1/10
s 11
f 25/1/11 9/1/11 10/1/11
s 1
f 20/1/1 29/1/1 14/1/1
s 2
f 29/1/2 28/1/2 13/1/2
s 3
f 26/1/3 25/1/3 10/1/3
s 4
f 27/1/4 26/1/4 11/1/4
s 5
f 19/1/5 22/1/5 18/1/5
s 6
f 24/1/6 23/1/6 1/1/6
s 7
f 21/1/7 20/1/7 16/1/7
s 8
f 22/1/8 21/1/8 17/1/8
s 9
f 18/1/9 17/1/9 13/1/9
f 17/1/9 16/1/9 14/1/9
f 13/1/9 17/1/9 14/1/9
f 13/1/9 12/1/9 10/1/9
f 12/1/9 11/1/9 10/1/9
f 6/1/9 15/1/9 18/1/9
f 8/1/9 7/1/9 6/1/9
f 4/1/9 5/1/9 3/1/9
f 5/1/9 8/1/9 3/1/9
f 1/1/9 2/1/9 9/1/9
f 2/1/9 3/1/9 9/1/9
f 8/1/9 6/1/9 10/1/9
f 6/1/9 18/1/9 10/1/9
f 18/1/9 13/1/9 10/1/9
f 10/1/9 9/1/9 8/1/9
s 10
f 28/1/10 27/1/10 12/1/10
s 11
f 25/1/11 24/1/11 9/1/11
