# Blender 4.5.1 LTS
# www.blender.org
mtllib province_029.mtl
o province_029
v -0.148208 0.001999 -0.014195
v -0.147009 0.001999 -0.010084
v -0.150263 0.001999 -0.005630
v -0.142726 0.001999 -0.000320
v -0.139643 0.001999 0.002592
v -0.136388 0.001999 0.010129
v -0.136731 0.001999 0.018523
v -0.141527 0.001999 0.022120
v -0.148208 0.001999 0.018352
v -0.154032 0.001999 0.018694
v -0.157972 0.001999 0.021606
v -0.162768 0.001999 0.020578
v -0.171847 0.001999 0.014069
v -0.160014 0.001999 -0.018182
v -0.168330 0.001999 -0.013899
v -0.169715 0.001999 -0.010402
v -0.169337 0.001999 -0.004420
v -0.172161 0.001999 0.011054
v -0.160014 -0.000001 -0.018182
v -0.168330 -0.000001 -0.013899
v -0.169715 -0.000001 -0.010402
v -0.169337 -0.000001 -0.004420
v -0.172161 -0.000001 0.011054
vn -0.0000 1.0000 -0.0000
vn -0.4578 -0.0000 -0.8890
vn -0.9298 -0.0000 -0.3680
vn -0.9980 -0.0000 0.0629
vn -0.9838 -0.0000 -0.1795
vt 0.000000 0.000000
s 0
f 15/1/1 16/1/1 17/1/1 18/1/1 13/1/1 12/1/1 11/1/1 10/1/1 9/1/1 8/1/1 7/1/1 6/1/1 5/1/1 4/1/1 3/1/1 2/1/1 1/1/1 14/1/1
f 15/1/2 14/1/2 19/1/2 20/1/2
f 16/1/3 15/1/3 20/1/3 21/1/3
f 17/1/4 16/1/4 21/1/4 22/1/4
f 18/1/5 17/1/5 22/1/5 23/1/5
