# Blender 4.5.1 LTS
# www.blender.org
o province_009
v -1.215100 0.045516 12.485766
v -0.819402 0.045516 12.281921
v -0.423704 0.045516 12.401830
v -0.291805 0.045516 12.761556
v 0.211811 0.045516 12.809519
v 0.511582 0.045516 13.169243
v 0.187829 0.045516 13.445032
v 0.391674 0.045516 13.828740
v 0.343710 0.045516 14.512219
v 0.583527 0.045516 14.859953
v 0.427646 0.045516 15.603386
v -0.759448 0.045516 15.771259
v -0.867365 0.045516 15.495470
v -0.807411 0.045516 15.147735
v -1.346999 0.045516 15.183707
v -1.790661 0.045516 15.507462
v -2.414185 0.045516 15.171718
v -2.534093 0.045516 14.907918
v -3.109653 0.045516 14.704073
v -3.181599 0.045516 14.152493
v -2.582056 0.045516 13.756797
v -1.862606 0.045516 13.912677
v -1.370981 0.045516 13.816751
v -1.478898 0.045516 13.385080
v -1.179127 0.045516 13.049337
v 0.511582 -0.094484 13.169243
v 0.187829 -0.094484 13.445032
v 0.391674 -0.094484 13.828740
v 0.343710 -0.094484 14.512219
v 0.583527 -0.094484 14.859953
v 0.427646 -0.094484 15.603386
v -0.759448 -0.094484 15.771259
vn 0.9787 -0.0000 0.2052
vn 0.8831 -0.0000 -0.4692
vn 0.9975 -0.0000 0.0700
vn 0.6485 -0.0000 0.7612
vn 0.8232 -0.0000 -0.5677
vn -0.0000 1.0000 -0.0000
vn 0.1400 -0.0000 0.9901
vt 0.000000 0.000000
s 1
f 31/1/1 10/1/1 11/1/1
s 2
f 28/1/2 7/1/2 8/1/2
s 3
f 29/1/3 8/1/3 9/1/3
s 4
f 27/1/4 6/1/4 7/1/4
s 5
f 30/1/5 9/1/5 10/1/5
s 6
f 22/1/6 21/1/6 18/1/6
s 7
f 32/1/7 11/1/7 12/1/7
s 1
f 31/1/1 30/1/1 10/1/1
s 2
f 28/1/2 27/1/2 7/1/2
s 3
f 29/1/3 28/1/3 8/1/3
s 4
f 27/1/4 26/1/4 6/1/4
s 5
f 30/1/5 29/1/5 9/1/5
s 6
f 13/1/6 12/1/6 14/1/6
f 12/1/6 11/1/6 14/1/6
f 11/1/6 10/1/6 14/1/6
f 10/1/6 9/1/6 14/1/6
f 9/1/6 8/1/6 23/1/6
f 8/1/6 7/1/6 23/1/6
f 7/1/6 6/1/6 5/1/6
f 4/1/6 3/1/6 2/1/6
f 7/1/6 5/1/6 4/1/6
f 14/1/6 9/1/6 23/1/6
f 17/1/6 16/1/6 15/1/6
f 17/1/6 15/1/6 18/1/6
f 15/1/6 14/1/6 23/1/6
f 18/1/6 15/1/6 22/1/6
f 20/1/6 19/1/6 18/1/6
f 22/1/6 15/1/6 23/1/6
f 7/1/6 4/1/6 25/1/6
f 23/1/6 7/1/6 25/1/6
f 4/1/6 2/1/6 25/1/6
f 2/1/6 1/1/6 25/1/6
f 25/1/6 24/1/6 23/1/6
f 20/1/6 18/1/6 21/1/6
s 7
f 32/1/7 31/1/7 11/1/7
