# Blender 4.5.1 LTS
# www.blender.org
o province_108
v -0.759448 0.045516 15.771259
v -0.867365 0.045516 15.495472
v -0.807411 0.045516 15.147737
v -1.346999 0.045516 15.183708
v -1.790661 0.045516 15.507462
v -2.414185 0.045516 15.171719
v -2.534093 0.045516 14.907920
v -3.109654 0.045516 14.704075
v -3.181599 0.045516 14.152495
v -6.215283 0.045516 13.301147
v -5.579768 0.045516 13.337118
v -4.944253 0.045516 13.732816
v -4.272766 0.045516 13.792769
v -3.661232 0.045516 14.068558
v -6.847439 0.045516 14.467136
v -6.191300 0.045516 13.828264
v -6.329435 0.045516 14.950605
v -5.984098 0.045516 14.933339
v -5.557298 0.045516 15.709216
v -5.672062 0.045516 15.651022
v -5.443845 0.045516 16.211649
v -4.803168 0.045516 16.633558
v -3.590494 0.045516 16.061869
v -3.119082 0.045516 16.428522
v -2.138880 0.045516 16.101788
v -1.535587 0.045516 16.497698
v -5.672062 -0.094484 15.651022
v -5.557298 -0.094484 15.709216
v -5.443845 -0.094484 16.211649
v -4.803168 -0.094484 16.633558
v -3.590494 -0.094484 16.061869
v -3.119082 -0.094484 16.428522
v -2.138880 -0.094484 16.101788
v -0.759448 -0.094484 15.771259
v -1.535587 -0.094484 16.497698
vn -0.4523 -0.0000 0.8919
vn -0.9754 -0.0000 0.2203
vn 0.6833 -0.0000 0.7301
vn 0.4264 -0.0000 0.9045
vn 0.3162 -0.0000 0.9487
vn -0.6139 -0.0000 0.7894
vn -0.0000 1.0000 -0.0000
vn -0.5500 -0.0000 0.8352
vn -0.5487 -0.0000 0.8360
vt 0.000000 0.000000
s 1
f 27/1/1 19/1/1 20/1/1
s 2
f 28/1/2 21/1/2 19/1/2
s 3
f 35/1/3 1/1/3 26/1/3
s 4
f 30/1/4 23/1/4 22/1/4
s 5
f 32/1/5 25/1/5 24/1/5
s 6
f 31/1/6 24/1/6 23/1/6
s 7
f 1/1/7 2/1/7 5/1/7
s 8
f 29/1/8 22/1/8 21/1/8
s 9
f 33/1/9 26/1/9 25/1/9
s 1
f 27/1/1 28/1/1 19/1/1
s 2
f 28/1/2 29/1/2 21/1/2
s 3
f 35/1/3 34/1/3 1/1/3
s 4
f 30/1/4 31/1/4 23/1/4
s 5
f 32/1/5 33/1/5 25/1/5
s 6
f 31/1/6 32/1/6 24/1/6
s 7
f 14/1/7 13/1/7 19/1/7
f 13/1/7 12/1/7 19/1/7
f 12/1/7 11/1/7 16/1/7
f 11/1/7 10/1/7 16/1/7
f 16/1/7 15/1/7 17/1/7
f 8/1/7 9/1/7 14/1/7
f 12/1/7 16/1/7 18/1/7
f 19/1/7 12/1/7 18/1/7
f 16/1/7 17/1/7 18/1/7
f 18/1/7 20/1/7 19/1/7
f 19/1/7 21/1/7 22/1/7
f 23/1/7 24/1/7 6/1/7
f 24/1/7 25/1/7 6/1/7
f 19/1/7 22/1/7 23/1/7
f 8/1/7 14/1/7 23/1/7
f 6/1/7 7/1/7 8/1/7
f 3/1/7 4/1/7 2/1/7
f 4/1/7 5/1/7 2/1/7
f 6/1/7 8/1/7 23/1/7
f 14/1/7 19/1/7 23/1/7
f 5/1/7 6/1/7 25/1/7
f 25/1/7 26/1/7 5/1/7
f 26/1/7 1/1/7 5/1/7
s 8
f 29/1/8 30/1/8 22/1/8
s 9
f 33/1/9 35/1/9 26/1/9
