# Blender 4.5.1 LTS
# www.blender.org
mtllib province_186.mtl
o province_186
v -1.720404 0.006502 0.799575
v -1.718977 0.006502 0.728201
v -1.746099 0.006502 0.699652
v -1.744671 0.006502 0.656827
v -1.714694 0.006502 0.625423
v -1.741816 0.006502 0.589736
v -1.791778 0.006502 0.555476
v -1.780358 0.006502 0.515507
v -1.741816 0.006502 0.492667
v -1.671870 0.006502 0.498377
v -1.621908 0.006502 0.536919
v -1.581939 0.006502 0.518362
v -1.521984 0.006502 0.501232
v -1.496290 0.006502 0.444133
v -1.466313 0.006502 0.762461
v -1.574801 0.006502 0.809568
v -1.447266 0.006502 0.434746
v -1.348435 0.006502 0.485889
v -1.304205 0.006502 0.490803
v -1.297482 0.006502 0.513494
v -1.375954 0.006502 0.568144
v -1.371380 0.006502 0.627599
v -1.395627 0.006502 0.681798
v -1.389808 0.006502 0.766163
v -1.371380 -0.013498 0.627599
v -1.447266 -0.013498 0.434746
v -1.348435 -0.013498 0.485889
v -1.304205 -0.013498 0.490803
v -1.297482 -0.013498 0.513494
v -1.375954 -0.013498 0.568144
v -1.395627 -0.013498 0.681798
v -1.720404 -0.013498 0.799575
v -1.466313 -0.013498 0.762461
v -1.574801 -0.013498 0.809568
v -1.389808 -0.013498 0.766163
vn -0.0000 1.0000 -0.0000
vn 0.4596 -0.0000 -0.8881
vn 0.1104 -0.0000 -0.9939
vn 0.9588 -0.0000 -0.2841
vn 0.5715 -0.0000 0.8206
vn 0.9971 -0.0000 -0.0767
vn 0.9128 -0.0000 0.4084
vn 0.9976 -0.0000 -0.0688
vn -0.0483 -0.0000 0.9988
vn 0.3983 -0.0000 0.9173
vn -0.0685 -0.0000 0.9977
vt 0.000000 0.000000
s 0
f 9/1/1 8/1/1 6/1/1
f 18/1/2 26/1/2 17/1/2
f 19/1/3 27/1/3 18/1/3
f 20/1/4 28/1/4 19/1/4
f 21/1/5 29/1/5 20/1/5
f 22/1/6 30/1/6 21/1/6
f 23/1/7 25/1/7 22/1/7
f 24/1/8 31/1/8 23/1/8
f 15/1/9 35/1/9 24/1/9
f 16/1/10 33/1/10 15/1/10
f 1/1/11 34/1/11 16/1/11
f 1/1/1 16/1/1 2/1/1
f 16/1/1 15/1/1 11/1/1
f 2/1/1 16/1/1 5/1/1
f 15/1/1 24/1/1 23/1/1
f 23/1/1 22/1/1 13/1/1
f 22/1/1 21/1/1 13/1/1
f 21/1/1 20/1/1 18/1/1
f 20/1/1 19/1/1 18/1/1
f 18/1/1 17/1/1 21/1/1
f 17/1/1 14/1/1 13/1/1
f 21/1/1 17/1/1 13/1/1
f 15/1/1 23/1/1 12/1/1
f 15/1/1 12/1/1 11/1/1
f 5/1/1 16/1/1 11/1/1
f 4/1/1 3/1/1 2/1/1
f 5/1/1 4/1/1 2/1/1
f 13/1/1 12/1/1 23/1/1
f 8/1/1 7/1/1 6/1/1
f 6/1/1 5/1/1 11/1/1
f 11/1/1 10/1/1 6/1/1
f 10/1/1 9/1/1 6/1/1
f 18/1/2 27/1/2 26/1/2
f 19/1/3 28/1/3 27/1/3
f 20/1/4 29/1/4 28/1/4
f 21/1/5 30/1/5 29/1/5
f 22/1/6 25/1/6 30/1/6
f 23/1/7 31/1/7 25/1/7
f 24/1/8 35/1/8 31/1/8
f 15/1/9 33/1/9 35/1/9
f 16/1/10 34/1/10 33/1/10
f 1/1/11 32/1/11 34/1/11
