# Blender 4.5.1 LTS
# www.blender.org
o province_002
v 13.844536 0.045516 -1.531731
v 14.553993 0.045516 -2.111288
v 13.734618 0.045516 -2.391075
v 13.724626 0.045516 -2.740808
v 13.424855 0.045516 -2.920671
v 13.654679 0.045516 -3.570174
v 13.864519 0.045516 -3.979862
v 13.594725 0.045516 -4.499465
v 13.025160 0.045516 -4.409534
v 12.515549 0.045516 -4.579404
v 11.736144 0.045516 -4.309610
v 12.135839 0.045516 -3.859953
v 11.975961 0.045516 -3.360335
v 12.135839 0.045516 -3.080548
v 14.114525 0.045516 -4.112094
v 11.912541 0.045516 -2.893265
v 11.922635 0.045516 -2.553706
v 12.377980 0.045516 -2.427760
v 12.471691 0.045516 -1.938373
v 13.595325 0.045516 -1.076275
v 11.912541 -0.094484 -2.893265
v 11.922635 -0.094484 -2.553706
v 12.377980 -0.094484 -2.427760
v 12.471691 -0.094484 -1.938373
v 13.844536 -0.094484 -1.531731
v 14.553993 -0.094484 -2.111288
v 13.595325 -0.094484 -1.076275
vn -0.2666 -0.0000 0.9638
vn 0.8773 -0.0000 0.4800
vn -0.9822 -0.0000 0.1881
vn 0.6326 -0.0000 0.7744
vn -0.9996 -0.0000 0.0297
vn -0.0000 1.0000 -0.0000
vn -0.6087 -0.0000 0.7934
vt 0.000000 0.000000
s 1
f 22/1/1 18/1/1 17/1/1
s 2
f 27/1/2 1/1/2 20/1/2
s 3
f 23/1/3 19/1/3 18/1/3
s 4
f 25/1/4 2/1/4 1/1/4
s 5
f 21/1/5 17/1/5 16/1/5
s 6
f 3/1/6 5/1/6 18/1/6
s 7
f 24/1/7 20/1/7 19/1/7
s 1
f 22/1/1 23/1/1 18/1/1
s 2
f 27/1/2 25/1/2 1/1/2
s 3
f 23/1/3 24/1/3 19/1/3
s 4
f 25/1/4 26/1/4 2/1/4
s 5
f 21/1/5 22/1/5 17/1/5
s 6
f 9/1/6 10/1/6 12/1/6
f 10/1/6 11/1/6 12/1/6
f 12/1/6 13/1/6 14/1/6
f 7/1/6 8/1/6 9/1/6
f 6/1/6 7/1/6 9/1/6
f 9/1/6 12/1/6 6/1/6
f 12/1/6 14/1/6 5/1/6
f 6/1/6 12/1/6 5/1/6
f 14/1/6 16/1/6 18/1/6
f 16/1/6 17/1/6 18/1/6
f 18/1/6 19/1/6 3/1/6
f 19/1/6 20/1/6 1/1/6
f 3/1/6 4/1/6 5/1/6
f 14/1/6 18/1/6 5/1/6
f 19/1/6 1/1/6 3/1/6
f 1/1/6 2/1/6 3/1/6
s 7
f 24/1/7 27/1/7 20/1/7
l 7 15
