# Blender 4.5.1 LTS
# www.blender.org
mtllib province_174.mtl
o province_174
v -0.409073 0.001999 -0.044102
v -0.369779 0.001999 -0.025626
v -0.373068 0.001999 -0.030354
v -0.379852 0.001999 -0.028915
v -0.382524 0.001999 -0.026243
v -0.389513 0.001999 -0.026243
v -0.394652 0.001999 -0.024599
v -0.396913 0.001999 -0.026860
v -0.401641 0.001999 -0.028093
v -0.403285 0.001999 -0.031382
v -0.408013 0.001999 -0.035082
v -0.409246 0.001999 -0.038988
v -0.381891 0.001999 -0.063061
v -0.372298 0.001999 -0.062376
v -0.368187 0.001999 -0.057751
v -0.368016 0.001999 -0.050214
v -0.362877 0.001999 -0.047473
v -0.358080 0.001999 -0.046103
v -0.359622 0.001999 -0.037024
v -0.363219 0.001999 -0.034454
v -0.361164 0.001999 -0.028116
v -0.406592 0.001999 -0.047449
v -0.408317 0.001999 -0.048577
v -0.401382 0.001999 -0.045170
v -0.392438 0.001999 -0.049003
v -0.389151 0.001999 -0.051961
v -0.386864 0.001999 -0.056861
v -0.386864 0.001999 -0.062094
v -0.408317 -0.000001 -0.048577
v -0.406592 -0.000001 -0.047449
v -0.401382 -0.000001 -0.045170
v -0.392438 -0.000001 -0.049003
v -0.389151 -0.000001 -0.051961
v -0.386864 -0.000001 -0.056861
v -0.381891 -0.000001 -0.063061
v -0.372298 -0.000001 -0.062376
v -0.368187 -0.000001 -0.057751
v -0.368016 -0.000001 -0.050214
v -0.362877 -0.000001 -0.047473
v -0.358080 -0.000001 -0.046103
v -0.386864 -0.000001 -0.062094
vn -1.0000 -0.0000 -0.0000
vn -0.9062 -0.0000 -0.4229
vn -0.6690 -0.0000 -0.7433
vn -0.3939 -0.0000 -0.9191
vn 0.4008 -0.0000 -0.9162
vn -0.0000 1.0000 -0.0000
vn 0.5473 -0.0000 -0.8370
vn -0.1909 -0.0000 -0.9816
vn 0.0712 -0.0000 -0.9975
vn 0.7474 -0.0000 -0.6644
vn 0.9997 -0.0000 -0.0227
vn 0.4706 -0.0000 -0.8824
vn 0.2747 -0.0000 -0.9615
vt 0.000000 0.000000
s 0
f 27/1/1 28/1/1 41/1/1 34/1/1
f 26/1/2 27/1/2 34/1/2 33/1/2
f 25/1/3 26/1/3 33/1/3 32/1/3
f 24/1/4 25/1/4 32/1/4 31/1/4
f 22/1/5 24/1/5 31/1/5 30/1/5
f 1/1/6 12/1/6 11/1/6 10/1/6 9/1/6 8/1/6 7/1/6 6/1/6 5/1/6 4/1/6 3/1/6 2/1/6 21/1/6 20/1/6 19/1/6 18/1/6 17/1/6 16/1/6 15/1/6 14/1/6 13/1/6 28/1/6 27/1/6 26/1/6 25/1/6 24/1/6 22/1/6 23/1/6
f 23/1/7 22/1/7 30/1/7 29/1/7
f 28/1/8 13/1/8 35/1/8 41/1/8
f 13/1/9 14/1/9 36/1/9 35/1/9
f 14/1/10 15/1/10 37/1/10 36/1/10
f 15/1/11 16/1/11 38/1/11 37/1/11
f 16/1/12 17/1/12 39/1/12 38/1/12
f 17/1/13 18/1/13 40/1/13 39/1/13
