# Blender 4.5.1 LTS
# www.blender.org
o province_093
v 5.359293 0.045516 -4.514352
v 5.349300 0.045516 -3.794902
v 7.467683 0.045516 -4.494368
v 6.218637 0.045516 -4.304513
v 7.547621 0.045516 -4.094673
v 8.067225 0.045516 -4.054703
v 8.566843 0.045516 -4.274535
v 8.816653 0.045516 -4.084681
v 5.620667 0.045516 -3.225484
v 8.769511 0.045516 -3.754691
v 8.366500 0.045516 -3.558715
v 7.627393 0.045516 -3.527486
v 7.048758 0.045516 -3.078545
v 6.507477 0.045516 -3.069370
v 6.087155 0.045516 -3.279531
v 5.620667 -0.094484 -3.225484
v 8.769511 -0.094484 -3.754691
v 8.366500 -0.094484 -3.558715
v 7.627393 -0.094484 -3.527486
v 7.048758 -0.094484 -3.078545
v 6.507477 -0.094484 -3.069370
v 6.087155 -0.094484 -3.279531
vn 0.4373 -0.0000 0.8993
vn 0.1151 -0.0000 0.9934
vn 0.0422 -0.0000 0.9991
vn -0.4472 -0.0000 0.8944
vn -0.0000 1.0000 -0.0000
vn 0.0169 -0.0000 0.9999
vn 0.6130 -0.0000 0.7901
vt 0.000000 0.000000
s 1
f 18/1/1 10/1/1 11/1/1
s 2
f 16/1/2 15/1/2 9/1/2
s 3
f 19/1/3 11/1/3 12/1/3
s 4
f 22/1/4 14/1/4 15/1/4
s 5
f 2/1/5 15/1/5 4/1/5
s 6
f 21/1/6 13/1/6 14/1/6
s 7
f 20/1/7 12/1/7 13/1/7
s 1
f 18/1/1 17/1/1 10/1/1
s 2
f 16/1/2 22/1/2 15/1/2
s 3
f 19/1/3 18/1/3 11/1/3
s 4
f 22/1/4 21/1/4 14/1/4
s 5
f 12/1/5 11/1/5 6/1/5
f 11/1/5 10/1/5 7/1/5
f 6/1/5 11/1/5 7/1/5
f 10/1/5 8/1/5 7/1/5
f 14/1/5 13/1/5 4/1/5
f 13/1/5 12/1/5 5/1/5
f 4/1/5 13/1/5 5/1/5
f 5/1/5 3/1/5 4/1/5
f 12/1/5 6/1/5 5/1/5
f 15/1/5 14/1/5 4/1/5
f 2/1/5 9/1/5 15/1/5
f 4/1/5 1/1/5 2/1/5
s 6
f 21/1/6 20/1/6 13/1/6
s 7
f 20/1/7 19/1/7 12/1/7
