# Blender 4.5.1 LTS
# www.blender.org
mtllib province_011.mtl
o province_011
v 1.397263 0.006502 0.055886
v 1.335595 0.006502 0.043553
v 1.300651 0.006502 -0.014004
v 1.156761 0.006502 -0.011948
v 1.111538 0.006502 -0.055115
v 1.123871 0.006502 -0.129116
v 1.101260 0.006502 -0.178449
v 1.142372 0.006502 -0.231894
v 1.206094 0.006502 -0.266839
v 1.257484 0.006502 -0.347006
v 1.306817 0.006502 -0.301784
v 1.405485 0.006502 -0.322340
v 1.508264 0.006502 -0.277117
v 1.522653 0.006502 -0.213394
v 1.557597 0.006502 -0.182561
v 1.543208 0.006502 -0.120893
v 1.458930 0.006502 -0.094171
v 1.452763 0.006502 -0.051004
v 1.475374 0.006502 0.002441
vn -0.0000 1.0000 -0.0000
vt 0.000000 0.000000
s 0
f 3/1/1 18/1/1 17/1/1
f 6/1/1 5/1/1 4/1/1
f 3/1/1 2/1/1 18/1/1
f 2/1/1 1/1/1 18/1/1
f 6/1/1 4/1/1 3/1/1
f 8/1/1 7/1/1 6/1/1
f 11/1/1 10/1/1 9/1/1
f 9/1/1 8/1/1 6/1/1
f 1/1/1 19/1/1 18/1/1
f 9/1/1 6/1/1 3/1/1
f 12/1/1 11/1/1 17/1/1
f 11/1/1 9/1/1 3/1/1
f 17/1/1 11/1/1 3/1/1
f 14/1/1 13/1/1 12/1/1
f 16/1/1 15/1/1 14/1/1
f 17/1/1 16/1/1 14/1/1
f 14/1/1 12/1/1 17/1/1
