# Blender 4.5.1 LTS
# www.blender.org
mtllib province_134.mtl
o province_134
v 2.549554 0.006502 -0.466871
v 2.630954 0.006502 -0.370670
v 2.568488 0.006502 -0.767921
v 2.525321 0.006502 -0.693921
v 2.572599 0.006502 -0.619920
v 2.636322 0.006502 -0.554142
v 2.621716 0.006502 -0.510506
v 2.642489 0.006502 -0.778199
v 2.859485 0.006502 -0.635527
v 2.790490 0.006502 -0.637906
v 2.738149 0.006502 -0.655750
v 2.694135 0.006502 -0.659318
v 2.670343 0.006502 -0.705712
v 2.685808 0.006502 -0.750915
v 2.546240 0.006502 -0.425908
v 2.651177 0.006502 -0.390893
v 2.682106 0.006502 -0.434907
v 2.736826 0.006502 -0.440855
v 2.778461 0.006502 -0.472973
v 2.824854 0.006502 -0.516987
v 2.870058 0.006502 -0.526504
v 2.891470 0.006502 -0.559812
v 2.868868 0.006502 -0.589551
vn -0.0000 1.0000 -0.0000
vt 0.000000 0.000000
s 0
f 23/1/1 10/1/1 20/1/1
f 15/1/1 2/1/1 16/1/1
f 17/1/1 18/1/1 6/1/1
f 18/1/1 19/1/1 6/1/1
f 15/1/1 16/1/1 1/1/1
f 16/1/1 17/1/1 7/1/1
f 7/1/1 1/1/1 16/1/1
f 4/1/1 5/1/1 13/1/1
f 5/1/1 6/1/1 12/1/1
f 13/1/1 5/1/1 12/1/1
f 3/1/1 4/1/1 13/1/1
f 6/1/1 7/1/1 17/1/1
f 19/1/1 20/1/1 10/1/1
f 6/1/1 19/1/1 11/1/1
f 20/1/1 21/1/1 23/1/1
f 21/1/1 22/1/1 23/1/1
f 23/1/1 9/1/1 10/1/1
f 8/1/1 3/1/1 13/1/1
f 13/1/1 14/1/1 8/1/1
f 10/1/1 11/1/1 19/1/1
f 11/1/1 12/1/1 6/1/1
