# Blender 4.5.1 LTS
# www.blender.org
o province_116
v 18.500603 0.045516 6.966984
v 18.529383 0.045516 6.607257
v 17.781151 0.045516 6.204363
v 17.723595 0.045516 5.758303
v 18.140877 0.045516 5.269074
v 17.478979 0.045516 4.736680
v 17.898661 0.045516 4.484871
v 18.845942 0.045516 4.604780
v 19.565395 0.045516 4.448898
v 20.212902 0.045516 4.760662
v 20.680546 0.045516 4.029218
v 21.124208 0.045516 3.813383
v 21.723753 0.045516 4.161118
v 22.071489 0.045516 4.892562
v 22.742979 0.045516 4.988489
v 23.534378 0.045516 4.844598
v 23.942066 0.045516 4.508853
v 25.177128 0.045516 4.676725
v 26.496128 0.045516 7.842318
v 26.136402 0.045516 7.506572
v 25.285049 0.045516 7.830326
v 25.045233 0.045516 7.650462
v 24.541616 0.045516 7.506571
v 24.433699 0.045516 7.218790
v 23.894108 0.045516 7.182818
v 23.558363 0.045516 7.710417
v 22.922848 0.045516 7.842317
v 22.623075 0.045516 8.058151
v 22.083487 0.045516 7.758379
v 21.711771 0.045516 7.482589
v 21.064262 0.045516 7.470597
v 20.884399 0.045516 7.770370
v 20.608608 0.045516 7.806343
v 20.188927 0.045516 8.549777
v 19.349567 0.045516 8.801585
v 19.085768 0.045516 8.333941
v 19.241650 0.045516 7.710414
v 18.833960 0.045516 7.242770
v 25.581753 0.045516 4.864235
v 25.208099 0.045516 5.132798
v 25.089476 0.045516 5.870913
v 25.382448 0.045516 6.310373
v 25.721424 0.045516 6.201416
v 26.234241 0.045516 6.889058
v 26.894300 0.045516 6.980100
v 26.905403 0.045516 7.368659
v 27.271780 0.045516 7.651292
v 26.965784 0.045516 7.989085
v 25.208099 -0.094484 5.132798
v 25.089476 -0.094484 5.870913
v 25.382448 -0.094484 6.310373
v 25.721424 -0.094484 6.201416
v 26.234241 -0.094484 6.889058
v 26.894300 -0.094484 6.980100
v 26.905403 -0.094484 7.368659
v 27.271780 -0.094484 7.651292
v 26.965784 -0.094484 7.989085
v 17.478979 -0.094484 4.736680
v 17.898661 -0.094484 4.484871
v 18.845942 -0.094484 4.604780
v 19.565395 -0.094484 4.448898
v 20.212902 -0.094484 4.760662
v 20.680546 -0.094484 4.029218
v 21.124208 -0.094484 3.813383
v 21.723753 -0.094484 4.161118
v 22.071489 -0.094484 4.892562
v 22.742979 -0.094484 4.988489
v 23.534378 -0.094484 4.844598
v 23.942066 -0.094484 4.508853
v 25.177128 -0.094484 4.676725
v 25.581753 -0.094484 4.864235
vn 0.8016 -0.0000 -0.5978
vn 0.1366 -0.0000 -0.9906
vn -0.8425 -0.0000 -0.5387
vn 0.9996 -0.0000 -0.0286
vn 0.8321 -0.0000 -0.5547
vn 0.8320 -0.0000 -0.5547
vn 0.1414 -0.0000 -0.9899
vn 0.5017 -0.0000 -0.8650
vn 0.7411 -0.0000 0.6714
vn -0.2118 -0.0000 -0.9773
vn -0.6357 -0.0000 -0.7719
vn 0.9031 -0.0000 -0.4294
vn -0.4375 -0.0000 -0.8992
vn 0.5836 -0.0000 0.8120
vn 0.1256 -0.0000 -0.9921
vn -0.3060 -0.0000 -0.9520
vn 0.4205 -0.0000 -0.9073
vn 0.9873 -0.0000 0.1587
vn -0.5145 -0.0000 -0.8575
vn -0.0000 1.0000 -0.0000
vn 0.6108 -0.0000 -0.7918
vn 0.1347 -0.0000 -0.9909
vn -0.1789 -0.0000 -0.9839
vn 0.4338 -0.0000 -0.9010
vt 0.000000 0.000000
s 1
f 53/1/1 43/1/1 44/1/1
s 2
f 54/1/2 44/1/2 45/1/2
s 3
f 63/1/3 10/1/3 11/1/3
s 4
f 55/1/4 45/1/4 46/1/4
s 5
f 51/1/5 41/1/5 42/1/6
s 6
f 67/1/7 14/1/7 15/1/7
s 7
f 65/1/8 12/1/8 13/1/8
s 8
f 57/1/9 47/1/9 48/1/9
s 9
f 61/1/10 8/1/10 9/1/10
s 10
f 69/1/11 16/1/11 17/1/11
s 11
f 66/1/12 13/1/12 14/1/12
s 12
f 64/1/13 11/1/13 12/1/13
s 13
f 49/1/14 39/1/14 40/1/14
s 14
f 60/1/15 7/1/15 8/1/15
s 15
f 52/1/16 42/1/16 43/1/16
s 16
f 71/1/17 18/1/17 39/1/17
s 17
f 50/1/18 40/1/18 41/1/18
s 18
f 59/1/19 6/1/19 7/1/19
s 19
f 38/1/20 10/1/20 2/1/20
s 20
f 56/1/21 46/1/21 47/1/21
s 21
f 70/1/22 17/1/22 18/1/22
s 22
f 68/1/23 15/1/23 16/1/23
s 23
f 62/1/24 9/1/24 10/1/24
s 1
f 53/1/1 52/1/1 43/1/1
s 2
f 54/1/2 53/1/2 44/1/2
s 3
f 63/1/3 62/1/3 10/1/3
s 4
f 55/1/4 54/1/4 45/1/4
s 5
f 51/1/5 50/1/5 41/1/5
s 6
f 67/1/7 66/1/7 14/1/7
s 7
f 65/1/8 64/1/8 12/1/8
s 8
f 57/1/9 56/1/9 47/1/9
s 9
f 61/1/10 60/1/10 8/1/10
s 10
f 69/1/11 68/1/11 16/1/11
s 11
f 66/1/12 65/1/12 13/1/12
s 12
f 64/1/13 63/1/13 11/1/13
s 13
f 49/1/14 71/1/14 39/1/14
s 14
f 60/1/15 59/1/15 7/1/15
s 15
f 52/1/16 51/1/16 42/1/16
s 16
f 71/1/17 70/1/17 18/1/17
s 17
f 50/1/18 49/1/18 40/1/18
s 18
f 59/1/19 58/1/19 6/1/19
s 19
f 20/1/20 19/1/20 46/1/20
f 19/1/20 48/1/20 46/1/20
f 48/1/20 47/1/20 46/1/20
f 46/1/20 45/1/20 44/1/20
f 44/1/20 43/1/20 42/1/20
f 46/1/20 44/1/20 20/1/20
f 44/1/20 42/1/20 22/1/20
f 20/1/20 44/1/20 22/1/20
f 22/1/20 21/1/20 20/1/20
f 24/1/20 23/1/20 22/1/20
f 27/1/20 26/1/20 25/1/20
f 24/1/20 22/1/20 42/1/20
f 25/1/20 24/1/20 41/1/20
f 24/1/20 42/1/20 41/1/20
f 29/1/20 28/1/20 27/1/20
f 27/1/20 25/1/20 30/1/20
f 25/1/20 41/1/20 16/1/20
f 40/1/20 39/1/20 18/1/20
f 25/1/20 16/1/20 15/1/20
f 41/1/20 40/1/20 16/1/20
f 30/1/20 29/1/20 27/1/20
f 33/1/20 32/1/20 31/1/20
f 31/1/20 30/1/20 14/1/20
f 25/1/20 15/1/20 30/1/20
f 40/1/20 18/1/20 17/1/20
f 40/1/20 17/1/20 16/1/20
f 30/1/20 15/1/20 14/1/20
f 35/1/20 34/1/20 36/1/20
f 34/1/20 33/1/20 37/1/20
f 36/1/20 34/1/20 37/1/20
f 33/1/20 31/1/20 38/1/20
f 14/1/20 13/1/20 10/1/20
f 13/1/20 12/1/20 11/1/20
f 10/1/20 13/1/20 11/1/20
f 31/1/20 14/1/20 10/1/20
f 31/1/20 10/1/20 38/1/20
f 10/1/20 9/1/20 8/1/20
f 8/1/20 7/1/20 5/1/20
f 7/1/20 6/1/20 5/1/20
f 5/1/20 4/1/20 3/1/20
f 10/1/20 8/1/20 2/1/20
f 8/1/20 5/1/20 2/1/20
f 5/1/20 3/1/20 2/1/20
f 2/1/20 1/1/20 38/1/20
f 38/1/20 37/1/20 33/1/20
s 20
f 56/1/21 55/1/21 46/1/21
s 21
f 70/1/22 69/1/22 17/1/22
s 22
f 68/1/23 67/1/23 15/1/23
s 23
f 62/1/24 61/1/24 9/1/24
