# Blender 4.5.1 LTS
# www.blender.org
mtllib province_061.mtl
o province_061
v -3.494930 0.006502 1.186187
v -3.447348 0.006502 1.142173
v -3.441400 0.006502 1.064851
v -3.436404 0.006502 1.485005
v -3.413564 0.006502 1.426479
v -3.409282 0.006502 1.362242
v -3.386442 0.006502 1.312280
v -3.459244 0.006502 1.192372
v -3.133659 0.006502 1.533064
v -3.160782 0.006502 1.511652
v -3.115102 0.006502 1.468828
v -3.122240 0.006502 1.394599
v -3.069423 0.006502 1.356057
v -3.063713 0.006502 1.286110
v -3.093690 0.006502 1.258988
v -3.086122 0.006502 1.221052
v -3.212197 0.006502 1.135432
v -3.259763 0.006502 1.130425
v -3.400177 0.006502 1.016097
v -3.418150 0.006502 1.509984
v -3.196591 0.006502 1.536074
v -3.247941 0.006502 1.551478
v -3.310654 0.006502 1.547639
v -3.340807 0.006502 1.511742
v -3.156420 0.006502 1.566506
v -3.120365 0.006502 1.561699
v -3.167254 0.006502 1.175143
v -3.076833 0.006502 1.199930
v -3.212197 -0.013498 1.135432
v -3.259763 -0.013498 1.130425
v -3.400177 -0.013498 1.016097
v -3.156420 -0.013498 1.566506
v -3.196591 -0.013498 1.536074
v -3.247941 -0.013498 1.551478
v -3.310654 -0.013498 1.547639
v -3.340807 -0.013498 1.511742
v -3.418150 -0.013498 1.509984
v -3.120365 -0.013498 1.561699
v -3.167254 -0.013498 1.175143
v -3.076833 -0.013498 1.199930
vn -0.0000 1.0000 -0.0000
vn 0.1047 -0.0000 -0.9945
vn 0.6314 -0.0000 -0.7755
vn -0.6039 -0.0000 0.7971
vn 0.2873 -0.0000 0.9578
vn -0.0611 -0.0000 0.9981
vn -0.7657 -0.0000 0.6432
vn -0.0227 -0.0000 0.9997
vn 0.1322 -0.0000 0.9912
vn 0.6621 -0.0000 -0.7494
vn 0.2644 -0.0000 -0.9644
vt 0.000000 0.000000
s 0
f 10/1/1 24/1/1 21/1/1
f 17/1/2 30/1/2 18/1/2
f 18/1/3 31/1/3 19/1/3
f 21/1/4 32/1/4 25/1/4
f 22/1/5 33/1/5 21/1/5
f 23/1/6 34/1/6 22/1/6
f 24/1/7 35/1/7 23/1/7
f 20/1/8 36/1/8 24/1/8
f 25/1/9 38/1/9 26/1/9
f 27/1/10 29/1/10 17/1/10
f 39/1/11 28/1/11 40/1/11
f 2/1/1 1/1/1 8/1/1
f 7/1/1 6/1/1 24/1/1
f 6/1/1 5/1/1 24/1/1
f 2/1/1 8/1/1 18/1/1
f 8/1/1 7/1/1 18/1/1
f 19/1/1 3/1/1 18/1/1
f 3/1/1 2/1/1 18/1/1
f 27/1/1 17/1/1 18/1/1
f 16/1/1 28/1/1 27/1/1
f 27/1/1 18/1/1 7/1/1
f 5/1/1 4/1/1 20/1/1
f 27/1/1 7/1/1 12/1/1
f 27/1/1 12/1/1 15/1/1
f 15/1/1 16/1/1 27/1/1
f 13/1/1 14/1/1 15/1/1
f 10/1/1 11/1/1 12/1/1
f 12/1/1 13/1/1 15/1/1
f 5/1/1 20/1/1 24/1/1
f 24/1/1 23/1/1 22/1/1
f 21/1/1 25/1/1 10/1/1
f 25/1/1 26/1/1 9/1/1
f 10/1/1 25/1/1 9/1/1
f 24/1/1 22/1/1 21/1/1
f 7/1/1 24/1/1 12/1/1
f 10/1/1 12/1/1 24/1/1
f 17/1/2 29/1/2 30/1/2
f 18/1/3 30/1/3 31/1/3
f 21/1/4 33/1/4 32/1/4
f 22/1/5 34/1/5 33/1/5
f 23/1/6 35/1/6 34/1/6
f 24/1/7 36/1/7 35/1/7
f 20/1/8 37/1/8 36/1/8
f 25/1/9 32/1/9 38/1/9
f 27/1/10 39/1/10 29/1/10
f 39/1/11 27/1/11 28/1/11
