# Blender 4.5.1 LTS
# www.blender.org
o province_045
v -33.304028 0.045516 -8.051371
v -32.951782 0.045516 -8.279292
v -32.868904 0.045516 -8.507214
v -32.537380 0.045516 -8.652255
v -32.205856 0.045516 -8.714415
v -31.853617 0.045516 -9.087378
v -31.004091 0.045516 -9.128818
v -33.102581 0.045516 -7.677258
v -32.699688 0.045516 -7.303144
v -32.268017 0.045516 -7.029754
v -31.663681 0.045516 -6.871475
v -30.584509 0.045516 -6.900253
v -30.368671 0.045516 -6.770752
v -30.196005 0.045516 -6.468584
v -29.836281 0.045516 -6.223972
v -29.419001 0.045516 -6.108860
v -29.044888 0.045516 -6.123249
v -28.900999 0.045516 -6.353472
v -28.713942 0.045516 -6.526140
v -28.656387 0.045516 -6.900253
v -28.656387 0.045516 -7.130477
v -28.454941 0.045516 -7.375090
v -28.267887 0.045516 -7.662869
v -28.253498 0.045516 -7.835536
v -28.483719 0.045516 -8.166483
v -28.958557 0.045516 -8.065761
v -29.145611 0.045516 -7.878703
v -29.634838 0.045516 -7.878703
v -29.994562 0.045516 -7.763591
v -30.152843 0.045516 -7.921870
v -30.483788 0.045516 -8.008204
v -30.598902 0.045516 -8.238428
v -30.929848 0.045516 -8.497429
v -31.016180 0.045516 -8.770820
v -33.304028 -0.094484 -8.051371
v -33.102581 -0.094484 -7.677258
v -32.699688 -0.094484 -7.303144
v -32.268017 -0.094484 -7.029754
v -31.663681 -0.094484 -6.871475
v -30.584509 -0.094484 -6.900253
v -30.368671 -0.094484 -6.770752
v -30.196005 -0.094484 -6.468584
v -29.836281 -0.094484 -6.223972
v -29.419001 -0.094484 -6.108860
v -29.044888 -0.094484 -6.123249
vn -0.5350 -0.0000 0.8448
vn -0.2534 -0.0000 0.9674
vn -0.6804 -0.0000 0.7328
vn -0.5145 -0.0000 0.8575
vn -0.2659 -0.0000 0.9640
vn 0.0267 -0.0000 0.9996
vn -0.5623 -0.0000 0.8269
vn -0.8805 -0.0000 0.4741
vn -0.0000 1.0000 -0.0000
vn -0.8682 -0.0000 0.4961
vn 0.0384 -0.0000 0.9993
vn -0.6805 -0.0000 0.7328
vt 0.000000 0.000000
s 1
f 37/1/1 10/1/1 9/1/1
s 2
f 38/1/2 11/1/2 10/1/2
s 3
f 36/1/3 9/1/3 8/1/3
s 4
f 40/1/4 13/1/4 12/1/4
s 5
f 43/1/5 16/1/5 15/1/5
s 6
f 39/1/6 12/1/6 11/1/6
s 7
f 42/1/7 15/1/7 14/1/7
s 8
f 35/1/8 8/1/8 1/1/8
s 9
f 29/1/9 31/1/9 12/1/9
s 10
f 41/1/10 14/1/10 13/1/10
s 11
f 44/1/11 17/1/11 16/1/11
s 1
f 37/1/1 38/1/1 10/1/1
s 2
f 38/1/2 39/1/2 11/1/2
s 3
f 36/1/3 37/1/12 9/1/3
s 4
f 40/1/4 41/1/4 13/1/4
s 5
f 43/1/5 44/1/5 16/1/5
s 6
f 39/1/6 40/1/6 12/1/6
s 7
f 42/1/7 43/1/7 15/1/7
s 8
f 35/1/8 36/1/8 8/1/8
s 9
f 14/1/9 15/1/9 28/1/9
f 15/1/9 16/1/9 18/1/9
f 16/1/9 17/1/9 18/1/9
f 18/1/9 19/1/9 20/1/9
f 21/1/9 22/1/9 27/1/9
f 22/1/9 23/1/9 26/1/9
f 27/1/9 22/1/9 26/1/9
f 18/1/9 20/1/9 15/1/9
f 20/1/9 21/1/9 15/1/9
f 13/1/9 14/1/9 28/1/9
f 15/1/9 21/1/9 28/1/9
f 23/1/9 24/1/9 26/1/9
f 10/1/9 11/1/9 5/1/9
f 11/1/9 12/1/9 31/1/9
f 12/1/9 13/1/9 29/1/9
f 29/1/9 13/1/9 28/1/9
f 24/1/9 25/1/9 26/1/9
f 27/1/9 28/1/9 21/1/9
f 29/1/9 30/1/9 31/1/9
f 31/1/9 32/1/9 33/1/9
f 34/1/9 7/1/9 6/1/9
f 33/1/9 34/1/9 5/1/9
f 34/1/9 6/1/9 5/1/9
f 5/1/9 4/1/9 9/1/9
f 4/1/9 3/1/9 2/1/9
f 31/1/9 33/1/9 11/1/9
f 33/1/9 5/1/9 11/1/9
f 4/1/9 2/1/9 9/1/9
f 2/1/9 1/1/9 8/1/9
f 8/1/9 9/1/9 2/1/9
f 9/1/9 10/1/9 5/1/9
s 10
f 41/1/10 42/1/10 14/1/10
s 11
f 44/1/11 45/1/11 17/1/11
