# Blender 4.5.1 LTS
# www.blender.org
o province_066
v -19.891623 0.045516 7.605232
v -19.571867 0.045516 7.835056
v -19.032280 0.045516 7.914994
v -18.862410 0.045516 8.224758
v -18.512676 0.045516 8.574491
v -18.695871 0.045516 7.123934
v -18.271196 0.045516 7.173896
v -17.679981 0.045516 6.857471
v -17.155380 0.045516 6.890779
v -17.097094 0.045516 7.232184
v -16.872265 0.045516 7.390396
v -16.514206 0.045516 7.132260
v -15.589911 0.045516 7.123933
v -15.048658 0.045516 7.332107
v -14.998697 0.045516 7.756783
v -15.352594 0.045516 8.006593
v -17.677206 0.045516 8.589480
v -18.135189 0.045516 8.575603
v -18.329485 0.045516 8.464577
v -18.914545 0.045516 6.980071
v -19.344563 0.045516 7.073047
v -19.523815 0.045516 7.220666
v -19.891623 0.045516 7.296616
v -15.810035 0.045516 8.525851
v -16.236094 0.045516 8.285684
v -16.561525 0.045516 8.363789
v -16.736677 0.045516 8.136091
v -16.890730 0.045516 8.102023
v -19.344563 -0.094484 7.073047
v -19.523815 -0.094484 7.220666
v -19.891623 -0.094484 7.296616
v -15.810035 -0.094484 8.525851
v -16.236094 -0.094484 8.285684
v -16.561525 -0.094484 8.363789
v -18.695871 -0.094484 7.123934
v -18.271196 -0.094484 7.173896
v -17.679981 -0.094484 6.857471
v -17.155380 -0.094484 6.890779
v -17.097094 -0.094484 7.232184
v -16.872265 -0.094484 7.390396
v -16.514206 -0.094484 7.132260
v -15.589911 -0.094484 7.123933
v -15.048658 -0.094484 7.332107
v -14.998697 -0.094484 7.756783
v -18.914545 -0.094484 6.980071
v -16.736677 -0.094484 8.136091
v -16.890730 -0.094484 8.102023
vn 0.3590 -0.0000 -0.9333
vn -0.2159 -0.0000 0.9764
vn -0.2113 -0.0000 -0.9774
vn -0.4719 -0.0000 -0.8817
vn 0.0634 -0.0000 -0.9980
vn 0.5755 -0.0000 -0.8178
vn 0.5496 -0.0000 -0.8354
vn -0.4911 -0.0000 0.8711
vn -0.0000 1.0000 -0.0000
vn 0.9857 -0.0000 -0.1683
vn 0.1168 -0.0000 -0.9932
vn 0.2334 -0.0000 0.9724
vn -0.0090 -0.0000 -1.0000
vn -0.2022 -0.0000 -0.9793
vn -0.7926 -0.0000 0.6097
vn -0.5848 -0.0000 -0.8112
vn -0.6357 -0.0000 -0.7719
vn 0.9932 -0.0000 -0.1168
vt 0.000000 0.000000
s 1
f 43/1/1 13/1/1 14/1/1
s 2
f 47/1/2 27/1/2 28/1/2
s 3
f 45/1/3 21/1/3 20/1/3
s 4
f 37/1/4 7/1/4 8/1/4
s 5
f 38/1/5 8/1/5 9/1/5
s 6
f 40/1/6 10/1/6 11/1/6
s 7
f 35/1/7 20/1/7 6/1/7
s 8
f 33/1/8 24/1/8 25/1/8
s 9
f 25/1/9 16/1/9 13/1/9
s 10
f 39/1/10 9/1/10 10/1/10
s 11
f 36/1/11 6/1/11 7/1/11
s 12
f 34/1/12 25/1/12 26/1/12
s 13
f 42/1/13 12/1/13 13/1/13
s 14
f 30/1/14 23/1/14 22/1/14
s 15
f 46/1/15 26/1/15 27/1/15
s 16
f 41/1/16 11/1/16 12/1/16
s 17
f 29/1/17 22/1/17 21/1/17
s 18
f 44/1/18 14/1/18 15/1/18
s 1
f 43/1/1 42/1/1 13/1/1
s 2
f 47/1/2 46/1/2 27/1/2
s 3
f 45/1/3 29/1/3 21/1/3
s 4
f 37/1/4 36/1/4 7/1/4
s 5
f 38/1/5 37/1/5 8/1/5
s 6
f 40/1/6 39/1/6 10/1/6
s 7
f 35/1/7 45/1/7 20/1/7
s 8
f 33/1/8 32/1/8 24/1/8
s 9
f 22/1/9 23/1/9 1/1/9
f 1/1/9 2/1/9 22/1/9
f 2/1/9 3/1/9 22/1/9
f 3/1/9 4/1/9 7/1/9
f 4/1/9 5/1/9 19/1/9
f 19/1/9 18/1/9 17/1/9
f 4/1/9 19/1/9 7/1/9
f 20/1/9 21/1/9 6/1/9
f 21/1/9 22/1/9 3/1/9
f 6/1/9 21/1/9 3/1/9
f 7/1/9 19/1/9 17/1/9
f 17/1/9 28/1/9 10/1/9
f 7/1/9 17/1/9 10/1/9
f 27/1/9 26/1/9 25/1/9
f 3/1/9 7/1/9 6/1/9
f 28/1/9 27/1/9 11/1/9
f 9/1/9 8/1/9 10/1/9
f 8/1/9 7/1/9 10/1/9
f 25/1/9 24/1/9 16/1/9
f 28/1/9 11/1/9 10/1/9
f 27/1/9 25/1/9 12/1/9
f 11/1/9 27/1/9 12/1/9
f 13/1/9 12/1/9 25/1/9
f 15/1/9 14/1/9 16/1/9
f 14/1/9 13/1/9 16/1/9
s 10
f 39/1/10 38/1/10 9/1/10
s 11
f 36/1/11 35/1/11 6/1/11
s 12
f 34/1/12 33/1/12 25/1/12
s 13
f 42/1/13 41/1/13 12/1/13
s 14
f 30/1/14 31/1/14 23/1/14
s 15
f 46/1/15 34/1/15 26/1/15
s 16
f 41/1/16 40/1/16 11/1/16
s 17
f 29/1/17 30/1/17 22/1/17
s 18
f 44/1/18 43/1/18 14/1/18
