# Blender 4.5.1 LTS
# www.blender.org
mtllib province_094.mtl
o province_094
v 1.033267 0.006502 0.127254
v 0.958920 0.006502 0.039028
v 0.891511 0.006502 0.009289
v 0.846902 0.006502 -0.077946
v 0.800310 0.006502 -0.144364
v 0.835998 0.006502 -0.201860
v 1.156761 0.006502 -0.011948
v 1.121816 0.006502 0.025052
v 1.060149 0.006502 0.025052
v 1.111538 0.006502 -0.055115
v 1.123871 0.006502 -0.129116
v 1.101260 0.006502 -0.178449
v 1.031371 0.006502 -0.162005
v 0.975870 0.006502 -0.186672
v 0.885425 0.006502 -0.166116
vn -0.0000 1.0000 -0.0000
vt 0.000000 0.000000
s 0
f 14/1/1 15/1/1 4/1/1
f 2/1/1 1/1/1 9/1/1
f 9/1/1 8/1/1 10/1/1
f 8/1/1 7/1/1 10/1/1
f 10/1/1 11/1/1 13/1/1
f 11/1/1 12/1/1 13/1/1
f 3/1/1 2/1/1 13/1/1
f 2/1/1 9/1/1 13/1/1
f 6/1/1 5/1/1 15/1/1
f 5/1/1 4/1/1 15/1/1
f 4/1/1 3/1/1 14/1/1
f 9/1/1 10/1/1 13/1/1
f 13/1/1 14/1/1 3/1/1
