# Blender 4.5.1 LTS
# www.blender.org
mtllib province_072.mtl
o province_072
v -2.269694 0.006502 -0.455037
v -2.233511 0.006502 -0.397211
v -2.204764 0.006502 -0.355576
v -2.273990 0.006502 -0.416872
v -1.966102 0.006502 -0.657313
v -2.056890 0.006502 -0.722406
v -2.124254 0.006502 -0.376132
v -2.074577 0.006502 -0.410392
v -2.012910 0.006502 -0.415531
v -2.011197 0.006502 -0.477198
v -1.983790 0.006502 -0.516596
v -1.994068 0.006502 -0.586828
v -2.102032 0.006502 -0.730080
v -2.204169 0.006502 -0.677038
v -2.260476 0.006502 -0.605304
v -2.261174 0.006502 -0.564148
v -2.211540 0.006502 -0.485879
v -2.232250 0.006502 -0.474081
v -2.060030 0.006502 -0.752561
v -2.232250 -0.013498 -0.474081
v -2.211540 -0.013498 -0.485879
v -2.102032 -0.013498 -0.730080
v -2.204169 -0.013498 -0.677038
v -2.260476 -0.013498 -0.605304
v -2.261174 -0.013498 -0.564148
v -2.060030 -0.013498 -0.752561
vn -0.0000 1.0000 -0.0000
vn -0.4609 -0.0000 -0.8875
vn -0.7866 -0.0000 -0.6174
vn -0.9999 -0.0000 -0.0170
vn -0.8445 -0.0000 0.5355
vn -0.4719 -0.0000 -0.8817
vn -0.4950 -0.0000 -0.8689
vn -0.9999 -0.0000 -0.0169
vt 0.000000 0.000000
s 0
f 17/1/1 10/1/1 12/1/1
f 13/1/2 23/1/2 14/1/2
f 14/1/3 24/1/3 15/1/3
f 15/1/4 25/1/4 16/1/4
f 16/1/5 21/1/5 17/1/5
f 19/1/6 22/1/6 13/1/6
f 17/1/7 20/1/7 18/1/7
f 13/1/1 14/1/1 12/1/1
f 14/1/1 15/1/1 16/1/1
f 17/1/1 14/1/1 16/1/1
f 18/1/1 1/1/1 2/1/1
f 1/1/1 4/1/1 2/1/1
f 14/1/1 17/1/1 12/1/1
f 17/1/1 18/1/1 2/1/1
f 2/1/1 3/1/1 7/1/1
f 19/1/1 13/1/1 6/1/1
f 6/1/1 13/1/1 12/1/1
f 12/1/1 5/1/1 6/1/1
f 17/1/1 2/1/1 7/1/1
f 8/1/1 9/1/1 10/1/1
f 17/1/1 7/1/1 8/1/1
f 10/1/1 11/1/1 12/1/1
f 17/1/1 8/1/1 10/1/1
f 13/1/2 22/1/2 23/1/2
f 14/1/3 23/1/3 24/1/3
f 15/1/8 24/1/8 25/1/8
f 16/1/5 25/1/5 21/1/5
f 19/1/6 26/1/6 22/1/6
f 17/1/7 21/1/7 20/1/7
