# Blender 4.5.1 LTS
# www.blender.org
mtllib province_159.mtl
o province_159
v -2.369816 0.006502 -1.119377
v -2.351972 0.006502 -1.060889
v -2.379729 0.006502 -1.014298
v -2.364859 0.006502 -0.934994
v -2.342555 0.006502 -0.908559
v -2.319424 0.006502 -0.854037
v -2.268207 0.006502 -0.862298
v -2.213685 0.006502 -0.857342
v -2.173207 0.006502 -0.799516
v -2.117033 0.006502 -0.788776
v -2.278946 0.006502 -1.136724
v -2.174859 0.006502 -1.135898
v -2.091424 0.006502 -1.117724
v -2.110981 0.006502 -0.754885
v -2.012691 0.006502 -1.161465
v -1.971517 0.006502 -1.102530
v -1.965340 0.006502 -1.056346
v -2.041389 0.006502 -1.017241
v -2.059717 0.006502 -0.970940
v -2.053858 0.006502 -0.878027
v -2.072340 0.006502 -0.775659
v -2.110981 -0.013498 -0.754885
v -1.971517 -0.013498 -1.102530
v -1.965340 -0.013498 -1.056346
v -2.041389 -0.013498 -1.017241
v -2.059717 -0.013498 -0.970940
v -2.053858 -0.013498 -0.878027
v -2.072340 -0.013498 -0.775659
v -2.369816 -0.013498 -1.119377
v -2.278946 -0.013498 -1.136724
v -2.174859 -0.013498 -1.135898
v -2.091424 -0.013498 -1.117724
v -2.012691 -0.013498 -1.161465
vn -0.0000 1.0000 -0.0000
vn 0.8198 -0.0000 -0.5727
vn 0.9912 -0.0000 -0.1326
vn 0.4573 -0.0000 0.8893
vn 0.9298 -0.0000 0.3681
vn 0.9980 -0.0000 -0.0629
vn 0.9841 -0.0000 0.1777
vn 0.4735 -0.0000 0.8808
vn -0.4856 -0.0000 -0.8742
vn -0.1875 -0.0000 -0.9823
vn 0.0079 -0.0000 -1.0000
vn 0.2128 -0.0000 -0.9771
vn 0.9298 -0.0000 0.3680
vt 0.000000 0.000000
s 0
f 21/1/1 20/1/1 10/1/1
f 16/1/2 33/1/2 15/1/2
f 17/1/3 23/1/3 16/1/3
f 18/1/4 24/1/4 17/1/4
f 19/1/5 25/1/5 18/1/5
f 20/1/6 26/1/6 19/1/6
f 21/1/7 27/1/7 20/1/7
f 14/1/8 28/1/8 21/1/8
f 15/1/9 32/1/9 13/1/9
f 11/1/10 29/1/10 1/1/10
f 12/1/11 30/1/11 11/1/11
f 13/1/12 31/1/12 12/1/12
f 12/1/1 11/1/1 2/1/1
f 11/1/1 1/1/1 2/1/1
f 2/1/1 3/1/1 4/1/1
f 16/1/1 15/1/1 13/1/1
f 13/1/1 12/1/1 19/1/1
f 12/1/1 2/1/1 8/1/1
f 2/1/1 4/1/1 5/1/1
f 5/1/1 6/1/1 7/1/1
f 8/1/1 9/1/1 20/1/1
f 9/1/1 10/1/1 20/1/1
f 5/1/1 7/1/1 2/1/1
f 7/1/1 8/1/1 2/1/1
f 12/1/1 8/1/1 19/1/1
f 17/1/1 16/1/1 18/1/1
f 16/1/1 13/1/1 18/1/1
f 10/1/1 14/1/1 21/1/1
f 19/1/1 8/1/1 20/1/1
f 19/1/1 18/1/1 13/1/1
f 16/1/2 23/1/2 33/1/2
f 17/1/3 24/1/3 23/1/3
f 18/1/4 25/1/4 24/1/4
f 19/1/13 26/1/13 25/1/13
f 20/1/6 27/1/6 26/1/6
f 21/1/7 28/1/7 27/1/7
f 14/1/8 22/1/8 28/1/8
f 15/1/9 33/1/9 32/1/9
f 11/1/10 30/1/10 29/1/10
f 12/1/11 31/1/11 30/1/11
f 13/1/12 32/1/12 31/1/12
