# Blender 4.5.1 LTS
# www.blender.org
mtllib province_142.mtl
o province_142
v 3.223969 0.006502 -0.646947
v 3.193992 0.006502 -0.561298
v 3.203984 0.006502 -0.479931
v 3.281068 0.006502 -0.455664
v 3.281068 0.006502 -0.427114
v 3.215404 0.006502 -0.422832
v 3.236731 0.006502 -0.370575
v 3.303890 0.006502 -0.691347
v 3.366050 0.006502 -0.729828
v 3.457811 0.006502 -0.706147
v 3.514052 0.006502 -0.711122
v 3.584716 0.006502 -0.703608
v 3.638853 0.006502 -0.717280
v 3.276130 0.006502 -0.363723
v 3.375483 0.006502 -0.385992
v 3.433724 0.006502 -0.440807
v 3.505669 0.006502 -0.459650
v 3.574188 0.006502 -0.541873
v 3.572475 0.006502 -0.615531
v 3.644706 0.006502 -0.650648
v 3.654413 0.006502 -0.695756
vn -0.0000 1.0000 -0.0000
vt 0.000000 0.000000
s 0
f 10/1/1 8/1/1 16/1/1
f 8/1/1 1/1/1 4/1/1
f 1/1/1 2/1/1 4/1/1
f 2/1/1 3/1/1 4/1/1
f 5/1/1 6/1/1 7/1/1
f 5/1/1 7/1/1 14/1/1
f 8/1/1 4/1/1 16/1/1
f 4/1/1 5/1/1 15/1/1
f 16/1/1 4/1/1 15/1/1
f 10/1/1 9/1/1 8/1/1
f 12/1/1 11/1/1 19/1/1
f 11/1/1 10/1/1 19/1/1
f 21/1/1 13/1/1 12/1/1
f 19/1/1 20/1/1 12/1/1
f 20/1/1 21/1/1 12/1/1
f 17/1/1 18/1/1 19/1/1
f 14/1/1 15/1/1 5/1/1
f 16/1/1 17/1/1 10/1/1
f 17/1/1 19/1/1 10/1/1
