# Blender 4.5.1 LTS
# www.blender.org
o province_048
v -24.053158 0.045516 -7.134507
v -24.041164 0.045516 -7.518212
v -24.233019 0.045516 -7.782011
v -24.089130 0.045516 -7.877936
v -23.669453 0.045516 -7.877936
v -23.537554 0.045516 -8.093771
v -22.962992 0.045516 -8.118752
v -22.255203 0.045516 -8.060463
v -21.114408 0.045516 -8.068790
v -20.656427 0.045516 -7.877271
v -20.273386 0.045516 -7.419289
v -20.315023 0.045516 -7.127845
v -20.523197 0.045516 -6.986287
v -20.814638 0.045516 -6.694844
v -21.089428 0.045516 -6.828075
v -21.414181 0.045516 -6.803094
v -21.572393 0.045516 -6.494997
v -21.822201 0.045516 -6.261842
v -22.096991 0.045516 -6.103630
v -22.330143 0.045516 -6.278496
v -22.588280 0.045516 -6.328458
v -22.821434 0.045516 -6.644882
v -23.204475 0.045516 -6.686517
v -23.429302 0.045516 -6.544958
v -23.754053 0.045516 -6.686517
v -23.537554 -0.094484 -8.093771
v -22.962992 -0.094484 -8.118752
v -22.255203 -0.094484 -8.060463
v -21.114408 -0.094484 -8.068790
v -20.656427 -0.094484 -7.877271
v -20.273386 -0.094484 -7.419289
vn -0.0434 -0.0000 -0.9991
vn 0.0821 -0.0000 -0.9966
vn -0.0073 -0.0000 -1.0000
vn -0.0000 1.0000 -0.0000
vn 0.7671 -0.0000 -0.6416
vn 0.3858 -0.0000 -0.9226
vt 0.000000 0.000000
s 1
f 27/1/1 6/1/1 7/1/1
s 2
f 28/1/2 7/1/2 8/1/2
s 3
f 29/1/3 8/1/3 9/1/3
s 4
f 22/1/4 20/1/4 16/1/4
s 5
f 31/1/5 10/1/5 11/1/5
s 6
f 30/1/6 9/1/6 10/1/6
s 1
f 27/1/1 26/1/1 6/1/1
s 2
f 28/1/2 27/1/2 7/1/2
s 3
f 29/1/3 28/1/3 8/1/3
s 4
f 8/1/4 7/1/4 22/1/4
f 7/1/4 6/1/4 5/1/4
f 5/1/4 4/1/4 2/1/4
f 4/1/4 3/1/4 2/1/4
f 7/1/4 5/1/4 23/1/4
f 22/1/4 7/1/4 23/1/4
f 10/1/4 9/1/4 15/1/4
f 9/1/4 8/1/4 16/1/4
f 12/1/4 11/1/4 13/1/4
f 11/1/4 10/1/4 13/1/4
f 15/1/4 14/1/4 13/1/4
f 9/1/4 16/1/4 15/1/4
f 2/1/4 1/1/4 5/1/4
f 1/1/4 25/1/4 23/1/4
f 25/1/4 24/1/4 23/1/4
f 22/1/4 21/1/4 20/1/4
f 1/1/4 23/1/4 5/1/4
f 8/1/4 22/1/4 16/1/4
f 15/1/4 13/1/4 10/1/4
f 18/1/4 17/1/4 20/1/4
f 17/1/4 16/1/4 20/1/4
f 20/1/4 19/1/4 18/1/4
s 5
f 31/1/5 30/1/5 10/1/5
s 6
f 30/1/6 29/1/6 9/1/6
