# Blender 4.5.1 LTS
# www.blender.org
mtllib province_152.mtl
o province_152
v -3.711954 0.006502 -0.995234
v -3.768482 0.006502 -0.996947
v -3.780473 0.006502 -0.948983
v -3.819871 0.006502 -0.904446
v -3.869547 0.006502 -0.906159
v -3.891816 0.006502 -0.868474
v -3.938066 0.006502 -0.835927
v -3.998020 0.006502 -0.837640
v -4.025428 0.006502 -0.811945
v -3.658852 0.006502 -0.964400
v -3.861078 0.006502 -0.613764
v -3.938399 0.006502 -0.657778
v -4.006205 0.006502 -0.729152
v -4.008584 0.006502 -0.770787
v -3.631153 0.006502 -0.948356
v -3.636511 0.006502 -0.963229
v -3.619991 0.006502 -0.892548
v -3.581370 0.006502 -0.863123
v -3.549105 0.006502 -0.826556
v -3.546694 0.006502 -0.795210
v -3.498033 0.006502 -0.746548
v -3.513550 0.006502 -0.708616
v -3.589670 0.006502 -0.705258
v -3.648106 0.006502 -0.672229
v -3.716780 0.006502 -0.608291
v -3.790440 0.006502 -0.573400
v -3.636511 -0.013498 -0.963229
v -3.631153 -0.013498 -0.948356
v -3.619991 -0.013498 -0.892548
v -3.581370 -0.013498 -0.863123
v -3.549105 -0.013498 -0.826556
v -3.546694 -0.013498 -0.795210
v -3.498033 -0.013498 -0.746548
v -3.513550 -0.013498 -0.708616
v -3.589670 -0.013498 -0.705258
v -3.648106 -0.013498 -0.672229
v -3.716780 -0.013498 -0.608291
v -4.025428 -0.013498 -0.811945
v -3.861078 -0.013498 -0.613764
v -3.938399 -0.013498 -0.657778
v -4.006205 -0.013498 -0.729152
v -4.008584 -0.013498 -0.770787
v -3.790440 -0.013498 -0.573400
vn 0.4281 -0.0000 0.9037
vn 0.6814 -0.0000 0.7319
vn 0.4921 -0.0000 0.8706
vn 0.0441 -0.0000 0.9990
vn 0.9256 -0.0000 0.3786
vn 0.7071 -0.0000 -0.7071
vn 0.9971 -0.0000 -0.0767
vn 0.7498 -0.0000 -0.6616
vn 0.6060 -0.0000 -0.7954
vn 0.9806 -0.0000 -0.1961
vn -0.0000 1.0000 -0.0000
vn 0.9408 -0.0000 -0.3390
vn -0.4961 -0.0000 0.8682
vn -0.4947 -0.0000 0.8691
vn -0.7250 -0.0000 0.6887
vn -0.9984 -0.0000 0.0570
vn -0.9255 -0.0000 0.3788
vn 0.9255 -0.0000 0.3786
vt 0.000000 0.000000
s 0
f 26/1/1 37/1/1 25/1/1
f 25/1/2 36/1/2 24/1/2
f 24/1/3 35/1/3 23/1/3
f 23/1/4 34/1/4 22/1/4
f 22/1/5 33/1/5 21/1/5
f 21/1/6 32/1/6 20/1/6
f 20/1/7 31/1/7 19/1/7
f 19/1/8 30/1/8 18/1/8
f 18/1/9 29/1/9 17/1/9
f 17/1/10 28/1/10 15/1/10
f 24/1/11 23/1/11 17/1/11
f 15/1/12 27/1/12 16/1/12
f 11/1/13 43/1/13 26/1/13
f 12/1/14 39/1/14 11/1/14
f 13/1/15 40/1/15 12/1/15
f 14/1/16 41/1/16 13/1/16
f 9/1/17 42/1/17 14/1/17
f 26/1/1 43/1/1 37/1/1
f 25/1/2 37/1/2 36/1/2
f 24/1/3 36/1/3 35/1/3
f 23/1/4 35/1/4 34/1/4
f 22/1/18 34/1/18 33/1/18
f 21/1/6 33/1/6 32/1/6
f 20/1/7 32/1/7 31/1/7
f 19/1/8 31/1/8 30/1/8
f 18/1/9 30/1/9 29/1/9
f 17/1/10 29/1/10 28/1/10
f 1/1/11 2/1/11 3/1/11
f 4/1/11 5/1/11 6/1/11
f 1/1/11 3/1/11 10/1/11
f 3/1/11 4/1/11 17/1/11
f 10/1/11 3/1/11 17/1/11
f 15/1/11 16/1/11 10/1/11
f 4/1/11 6/1/11 11/1/11
f 6/1/11 7/1/11 12/1/11
f 11/1/11 6/1/11 12/1/11
f 7/1/11 8/1/11 14/1/11
f 8/1/11 9/1/11 14/1/11
f 14/1/11 13/1/11 7/1/11
f 13/1/11 12/1/11 7/1/11
f 17/1/11 4/1/11 24/1/11
f 17/1/11 15/1/11 10/1/11
f 19/1/11 18/1/11 20/1/11
f 18/1/11 17/1/11 23/1/11
f 20/1/11 18/1/11 23/1/11
f 22/1/11 21/1/11 20/1/11
f 24/1/11 4/1/11 11/1/11
f 11/1/11 26/1/11 25/1/11
f 23/1/11 22/1/11 20/1/11
f 11/1/11 25/1/11 24/1/11
f 15/1/12 28/1/12 27/1/12
f 11/1/13 39/1/13 43/1/13
f 12/1/14 40/1/14 39/1/14
f 13/1/15 41/1/15 40/1/15
f 14/1/16 42/1/16 41/1/16
f 9/1/17 38/1/17 42/1/17
