# Blender 4.5.1 LTS
# www.blender.org
mtllib province_139.mtl
o province_139
v 0.334065 0.001999 -0.002224
v 0.341203 0.001999 -0.004841
v 0.345723 0.001999 -0.010789
v 0.335850 0.001999 0.005508
v 0.334184 0.001999 0.007768
v 0.326452 0.001999 0.008482
v 0.325976 0.001999 0.010742
v 0.328237 0.001999 0.013003
v 0.328831 0.001999 0.014906
v 0.335541 0.001999 0.015477
v 0.345961 0.001999 0.014049
v 0.351386 0.001999 0.015191
v 0.356239 0.001999 0.021615
v 0.364231 0.001999 0.017175
v 0.347151 0.001999 -0.008077
v 0.353289 0.001999 -0.006792
v 0.358856 0.001999 -0.007791
v 0.364423 0.001999 -0.002938
v 0.363281 0.001999 0.001630
v 0.360712 0.001999 0.003201
v 0.360569 0.001999 0.007483
v 0.365422 0.001999 0.011908
vn -0.0000 1.0000 -0.0000
vt 0.000000 0.000000
s 0
f 2/1/1 1/1/1 4/1/1 5/1/1 6/1/1 7/1/1 8/1/1 9/1/1 10/1/1 11/1/1 12/1/1 13/1/1 14/1/1 22/1/1 21/1/1 20/1/1 19/1/1 18/1/1 17/1/1 16/1/1 15/1/1 3/1/1
