# Blender 4.5.1 LTS
# www.blender.org
o province_013
v -8.690393 0.045516 2.967373
v -8.373968 0.045516 3.183874
v -7.724464 0.045516 3.092277
v -7.274808 0.045516 2.859121
v -8.995764 0.045516 3.286316
v -8.885019 0.045516 3.660560
v -9.457807 0.045516 4.059465
v -9.438186 0.045516 4.314528
v -6.729689 0.045516 3.279010
v -7.421989 0.045516 3.694390
v -7.315503 0.045516 4.084839
v -7.481428 0.045516 4.330408
v -7.984874 0.045516 4.401205
v -8.368610 0.045516 4.526506
v -8.951586 0.045516 4.255546
v -9.438186 -0.094484 4.314528
v -8.995764 -0.094484 3.286316
v -8.885019 -0.094484 3.660560
v -9.457807 -0.094484 4.059465
v -6.729689 -0.094484 3.279010
v -7.421989 -0.094484 3.694390
v -7.315503 -0.094484 4.084839
v -7.481428 -0.094484 4.330408
v -7.984874 -0.094484 4.401205
v -8.368610 -0.094484 4.526506
v -8.951586 -0.094484 4.255546
vn 0.9648 -0.0000 -0.2631
vn 0.8286 -0.0000 0.5599
vn 0.1393 -0.0000 0.9903
vn 0.3104 -0.0000 0.9506
vn -0.9589 -0.0000 0.2838
vn -0.5715 -0.0000 -0.8206
vn -0.9971 -0.0000 0.0767
vn 0.5145 -0.0000 0.8575
vn 0.1203 -0.0000 0.9927
vn -0.0000 1.0000 -0.0000
vn -0.4215 -0.0000 0.9068
vn -0.9589 -0.0000 0.2837
vt 0.000000 0.000000
s 1
f 22/1/1 10/1/1 11/1/1
s 2
f 23/1/2 11/1/2 12/1/2
s 3
f 24/1/3 12/1/3 13/1/3
s 4
f 25/1/4 13/1/4 14/1/4
s 5
f 17/1/5 6/1/5 5/1/5
s 6
f 18/1/6 7/1/6 6/1/6
s 7
f 19/1/7 8/1/7 7/1/7
s 8
f 21/1/8 9/1/8 10/1/8
s 9
f 16/1/9 15/1/9 8/1/9
s 10
f 13/1/10 12/1/10 10/1/10
s 11
f 26/1/11 14/1/11 15/1/11
s 1
f 22/1/1 21/1/1 10/1/1
s 2
f 23/1/2 22/1/2 11/1/2
s 3
f 24/1/3 23/1/3 12/1/3
s 4
f 25/1/4 24/1/4 13/1/4
s 5
f 17/1/5 18/1/12 6/1/5
s 6
f 18/1/6 19/1/6 7/1/6
s 7
f 19/1/7 16/1/7 8/1/7
s 8
f 21/1/8 20/1/8 9/1/8
s 9
f 16/1/9 26/1/9 15/1/9
s 10
f 9/1/10 4/1/10 10/1/10
f 4/1/10 3/1/10 10/1/10
f 2/1/10 1/1/10 5/1/10
f 3/1/10 2/1/10 10/1/10
f 12/1/10 11/1/10 10/1/10
f 2/1/10 5/1/10 6/1/10
f 6/1/10 7/1/10 15/1/10
f 7/1/10 8/1/10 15/1/10
f 15/1/10 14/1/10 6/1/10
f 14/1/10 13/1/10 6/1/10
f 10/1/10 2/1/10 13/1/10
f 2/1/10 6/1/10 13/1/10
s 11
f 26/1/11 25/1/11 14/1/11
