# Blender 4.5.1 LTS
# www.blender.org
mtllib province_123.mtl
o province_123
v 4.233963 0.006502 0.952459
v 4.228824 0.006502 0.902782
v 4.300769 0.006502 1.012413
v 4.371002 0.006502 0.995283
v 4.412114 0.006502 1.053525
v 4.355585 0.006502 1.134035
v 4.372715 0.006502 1.193990
v 4.406974 0.006502 1.241953
v 4.403548 0.006502 1.312186
v 4.424104 0.006502 1.370427
v 4.513179 0.006502 1.396122
v 4.528596 0.006502 1.474919
v 4.683998 0.006502 1.526720
v 4.321325 0.006502 0.839402
v 4.357298 0.006502 0.777734
v 4.434382 0.006502 0.764030
v 4.508040 0.006502 0.815420
v 4.638227 0.006502 0.777734
v 4.674200 0.006502 0.721206
v 4.746145 0.006502 0.772595
v 4.878045 0.006502 0.765743
v 4.855776 0.006502 0.861670
v 4.926008 0.006502 0.966162
v 4.961980 0.006502 1.034682
v 4.910591 0.006502 1.176859
v 4.854063 0.006502 1.252231
v 4.859201 0.006502 1.319037
v 4.737579 0.006502 1.425242
vn -0.0000 1.0000 -0.0000
vt 0.000000 0.000000
s 0
f 11/1/1 28/1/1 26/1/1
f 14/1/1 2/1/1 1/1/1
f 1/1/1 3/1/1 4/1/1
f 5/1/1 6/1/1 7/1/1
f 14/1/1 1/1/1 4/1/1
f 5/1/1 7/1/1 8/1/1
f 14/1/1 4/1/1 17/1/1
f 4/1/1 5/1/1 17/1/1
f 16/1/1 15/1/1 14/1/1
f 17/1/1 16/1/1 14/1/1
f 20/1/1 19/1/1 18/1/1
f 18/1/1 17/1/1 5/1/1
f 8/1/1 9/1/1 11/1/1
f 9/1/1 10/1/1 11/1/1
f 18/1/1 5/1/1 22/1/1
f 5/1/1 8/1/1 26/1/1
f 22/1/1 25/1/1 23/1/1
f 22/1/1 21/1/1 20/1/1
f 20/1/1 18/1/1 22/1/1
f 25/1/1 22/1/1 5/1/1
f 11/1/1 12/1/1 28/1/1
f 12/1/1 13/1/1 28/1/1
f 28/1/1 27/1/1 26/1/1
f 8/1/1 11/1/1 26/1/1
f 5/1/1 26/1/1 25/1/1
f 25/1/1 24/1/1 23/1/1
