# Blender 4.5.1 LTS
# www.blender.org
o province_170
v 4.911634 0.045516 -10.461811
v 4.623854 0.045516 -10.042132
v 4.180192 0.045516 -9.934215
v 4.072274 0.045516 -9.454580
v 3.652595 0.045516 -9.070873
v 3.784494 0.045516 -8.699158
v 3.735198 0.045516 -8.267487
v 4.112577 0.045516 -7.961054
v 4.192183 0.045516 -7.655954
v 5.966831 0.045516 -10.281948
v 5.511179 0.045516 -10.097290
v 7.513652 0.045516 -8.231514
v 7.537632 0.045516 -8.579249
v 6.938091 0.045516 -8.831057
v 4.421601 0.045516 -7.306839
v 6.342410 0.045516 -10.320470
v 6.745005 0.045516 -9.813634
v 6.816787 0.045516 -9.779428
v 7.045429 0.045516 -7.849999
v 4.803518 0.045516 -7.484156
v 5.231485 0.045516 -7.287522
v 5.906752 0.045516 -7.914556
v 6.395586 0.045516 -7.638802
v 6.745005 -0.094484 -9.813634
v 4.421601 -0.094484 -7.306839
v 6.342410 -0.094484 -10.320470
v 4.803518 -0.094484 -7.484156
v 5.231485 -0.094484 -7.287522
v 5.906752 -0.094484 -7.914556
v 6.395586 -0.094484 -7.638802
v 7.045429 -0.094484 -7.849999
v 6.816787 -0.094484 -9.779428
vn -0.0000 1.0000 -0.0000
vn -0.4175 -0.0000 0.9087
vn 0.7830 -0.0000 -0.6220
vn 0.6805 -0.0000 0.7328
vn -0.4913 -0.0000 0.8710
vn 0.4302 -0.0000 -0.9027
vn 0.4211 -0.0000 0.9070
vn 0.3091 -0.0000 0.9510
vt 0.000000 0.000000
s 1
f 11/1/1 4/1/1 22/1/1
s 2
f 27/1/2 21/1/2 20/1/2
s 3
f 24/1/3 16/1/3 17/1/3
s 4
f 28/1/4 22/1/4 21/1/4
s 5
f 29/1/5 23/1/5 22/1/5
s 6
f 32/1/6 17/1/6 18/1/6
s 7
f 25/1/7 20/1/7 15/1/7
s 8
f 30/1/8 19/1/8 23/1/8
s 1
f 16/1/1 10/1/1 17/1/1
f 10/1/1 11/1/1 17/1/1
f 11/1/1 1/1/1 2/1/1
f 2/1/1 3/1/1 4/1/1
f 4/1/1 5/1/1 6/1/1
f 6/1/1 7/1/1 8/1/1
f 8/1/1 9/1/1 20/1/1
f 9/1/1 15/1/1 20/1/1
f 20/1/1 21/1/1 22/1/1
f 4/1/1 6/1/1 8/1/1
f 11/1/1 2/1/1 4/1/1
f 14/1/1 18/1/1 17/1/1
f 12/1/1 13/1/1 14/1/1
f 23/1/1 19/1/1 14/1/1
f 19/1/1 12/1/1 14/1/1
f 8/1/1 20/1/1 22/1/1
f 22/1/1 23/1/1 14/1/1
f 14/1/1 17/1/1 11/1/1
f 4/1/1 8/1/1 22/1/1
f 14/1/1 11/1/1 22/1/1
s 2
f 27/1/2 28/1/2 21/1/2
s 3
f 24/1/3 26/1/3 16/1/3
s 4
f 28/1/4 29/1/4 22/1/4
s 5
f 29/1/5 30/1/5 23/1/5
s 6
f 32/1/6 24/1/6 17/1/6
s 7
f 25/1/7 27/1/7 20/1/7
s 8
f 30/1/8 31/1/8 19/1/8
