# Blender 4.5.1 LTS
# www.blender.org
mtllib province_129.mtl
o province_129
v 2.080067 0.006502 3.314528
v 2.130029 0.006502 3.247912
v 2.134787 0.006502 3.164642
v 2.203783 0.006502 3.125386
v 2.235901 0.006502 3.118249
v 1.884082 0.006502 3.115422
v 1.927249 0.006502 3.156534
v 1.927249 0.006502 3.267536
v 1.962194 0.006502 3.296314
v 2.032084 0.006502 3.306592
v 1.933416 0.006502 3.016754
v 2.005361 0.006502 3.010588
v 2.032084 0.006502 2.887253
v 2.255946 0.006502 3.069568
v 2.182178 0.006502 3.016172
v 2.178754 0.006502 2.942546
v 2.217582 0.006502 2.907878
v 2.209757 0.006502 2.876576
v 2.100914 0.006502 2.855645
v 2.079384 0.006502 2.822632
v 1.991971 0.006502 2.824467
v 2.030369 0.006502 2.811628
v 2.255946 -0.013498 3.069568
v 2.182178 -0.013498 3.016172
v 2.178754 -0.013498 2.942546
v 2.217582 -0.013498 2.907878
v 2.209757 -0.013498 2.876576
v 2.100914 -0.013498 2.855645
v 2.079384 -0.013498 2.822632
v 1.991971 -0.013498 2.824467
v 2.030369 -0.013498 2.811628
v 2.080067 -0.013498 3.314528
v 1.884082 -0.013498 3.115422
v 1.927249 -0.013498 3.156534
v 1.927249 -0.013498 3.267536
v 1.962194 -0.013498 3.296314
v 2.032084 -0.013498 3.306592
vn 0.5864 -0.0000 -0.8101
vn 0.2190 -0.0000 -0.9757
vn -0.3171 -0.0000 -0.9484
vn 0.8376 -0.0000 -0.5463
vn 0.1888 -0.0000 -0.9820
vn 0.9701 -0.0000 -0.2425
vn 0.6660 -0.0000 0.7459
vn -0.0000 1.0000 -0.0000
vn 0.9989 -0.0000 -0.0465
vn -0.6897 -0.0000 0.7241
vn -1.0000 -0.0000 -0.0000
vn -0.6357 -0.0000 0.7719
vn -0.1455 -0.0000 0.9894
vn -0.1632 -0.0000 0.9866
vn 0.9701 -0.0000 -0.2426
vt 0.000000 0.000000
s 0
f 14/1/1 24/1/1 15/1/1
f 20/1/2 31/1/2 22/1/2
f 22/1/3 30/1/3 21/1/3
f 19/1/4 29/1/4 20/1/4
f 18/1/5 28/1/5 19/1/5
f 17/1/6 27/1/6 18/1/6
f 16/1/7 26/1/7 17/1/7
f 18/1/8 19/1/8 16/1/8
f 15/1/9 25/1/9 16/1/9
f 6/1/10 34/1/10 7/1/10
f 7/1/11 35/1/11 8/1/11
f 8/1/12 36/1/12 9/1/12
f 9/1/13 37/1/13 10/1/13
f 10/1/14 32/1/14 1/1/14
f 14/1/1 23/1/1 24/1/1
f 20/1/2 29/1/2 31/1/2
f 22/1/3 31/1/3 30/1/3
f 19/1/4 28/1/4 29/1/4
f 18/1/5 27/1/5 28/1/5
f 17/1/15 26/1/15 27/1/15
f 16/1/7 25/1/7 26/1/7
f 11/1/8 6/1/8 7/1/8
f 7/1/8 8/1/8 9/1/8
f 10/1/8 1/1/8 2/1/8
f 7/1/8 9/1/8 10/1/8
f 12/1/8 11/1/8 7/1/8
f 22/1/8 21/1/8 13/1/8
f 12/1/8 7/1/8 3/1/8
f 7/1/8 10/1/8 3/1/8
f 20/1/8 22/1/8 13/1/8
f 13/1/8 12/1/8 16/1/8
f 10/1/8 2/1/8 3/1/8
f 4/1/8 5/1/8 14/1/8
f 12/1/8 3/1/8 15/1/8
f 16/1/8 12/1/8 15/1/8
f 3/1/8 4/1/8 15/1/8
f 4/1/8 14/1/8 15/1/8
f 20/1/8 13/1/8 19/1/8
f 19/1/8 13/1/8 16/1/8
f 17/1/8 18/1/8 16/1/8
f 15/1/9 24/1/9 25/1/9
f 6/1/10 33/1/10 34/1/10
f 7/1/11 34/1/11 35/1/11
f 8/1/12 35/1/12 36/1/12
f 9/1/13 36/1/13 37/1/13
f 10/1/14 37/1/14 32/1/14
