# Blender 4.5.1 LTS
# www.blender.org
mtllib province_040.mtl
o province_040
v -0.662116 0.001999 -0.298309
v -0.669825 0.001999 -0.295169
v -0.677390 0.001999 -0.296882
v -0.684528 0.001999 -0.291172
v -0.693235 0.001999 -0.289459
v -0.663686 0.001999 -0.309158
v -0.675106 0.001999 -0.319436
v -0.670253 0.001999 -0.328001
v -0.676248 0.001999 -0.331142
v -0.683243 0.001999 -0.331712
v -0.693093 0.001999 -0.334282
v -0.700658 0.001999 -0.339421
v -0.705797 0.001999 -0.340848
v -0.710793 0.001999 -0.335567
v -0.705083 0.001999 -0.327858
v -0.705369 0.001999 -0.319722
v -0.709366 0.001999 -0.312441
v -0.701086 0.001999 -0.305589
v -0.699231 0.001999 -0.298880
v -0.693235 -0.000001 -0.289459
v -0.670253 -0.000001 -0.328001
v -0.676248 -0.000001 -0.331142
v -0.683243 -0.000001 -0.331712
v -0.693093 -0.000001 -0.334282
v -0.700658 -0.000001 -0.339421
v -0.705797 -0.000001 -0.340848
v -0.710793 -0.000001 -0.335567
v -0.705083 -0.000001 -0.327858
v -0.705369 -0.000001 -0.319722
v -0.709366 -0.000001 -0.312441
v -0.701086 -0.000001 -0.305589
v -0.699231 -0.000001 -0.298880
vn -0.0000 1.0000 -0.0000
vn -0.6376 -0.0000 0.7704
vn -0.9638 -0.0000 0.2666
vn -0.8437 -0.0000 0.5369
vn 0.4640 -0.0000 -0.8858
vn 0.0814 -0.0000 -0.9967
vn 0.2524 -0.0000 -0.9676
vn 0.5619 -0.0000 -0.8272
vn 0.2676 -0.0000 -0.9635
vn -0.7265 -0.0000 -0.6872
vn -0.8036 -0.0000 0.5952
vn -0.9994 -0.0000 -0.0351
vn -0.8766 -0.0000 -0.4813
vt 0.000000 0.000000
s 0
f 2/1/1 1/1/1 6/1/1 7/1/1 8/1/1 9/1/1 10/1/1 11/1/1 12/1/1 13/1/1 14/1/1 15/1/1 16/1/1 17/1/1 18/1/1 19/1/1 5/1/1 4/1/1 3/1/1
f 18/1/2 17/1/2 30/1/2 31/1/2
f 19/1/3 18/1/3 31/1/3 32/1/3
f 5/1/4 19/1/4 32/1/4 20/1/4
f 9/1/5 8/1/5 21/1/5 22/1/5
f 10/1/6 9/1/6 22/1/6 23/1/6
f 11/1/7 10/1/7 23/1/7 24/1/7
f 12/1/8 11/1/8 24/1/8 25/1/8
f 13/1/9 12/1/9 25/1/9 26/1/9
f 14/1/10 13/1/10 26/1/10 27/1/10
f 15/1/11 14/1/11 27/1/11 28/1/11
f 16/1/12 15/1/12 28/1/12 29/1/12
f 17/1/13 16/1/13 29/1/13 30/1/13
