# Blender 4.5.1 LTS
# www.blender.org
mtllib province_122.mtl
o province_122
v 4.268223 0.006502 1.497530
v 4.303168 0.006502 1.561253
v 4.264112 0.006502 1.641421
v 4.183122 0.006502 1.709255
v 4.181888 0.006502 1.807923
v 4.528596 0.006502 1.474919
v 4.449799 0.006502 1.498901
v 4.324751 0.006502 1.442372
v 4.683998 0.006502 1.526720
v 4.760466 0.006502 1.595787
v 4.777732 0.006502 1.706789
v 4.871467 0.006502 1.751189
v 4.980001 0.006502 1.795590
v 4.955335 0.006502 1.839991
v 4.866533 0.006502 1.874524
v 4.782665 0.006502 1.876991
v 4.723465 0.006502 1.948525
v 4.669197 0.006502 2.024993
v 4.572996 0.006502 2.071860
v 4.521195 0.006502 2.027459
v 4.405260 0.006502 1.997859
v 4.338659 0.006502 1.906591
v 4.296726 0.006502 1.874524
v 4.264658 0.006502 1.805457
v 4.181888 -0.013498 1.807923
v 4.572996 -0.013498 2.071860
v 4.521195 -0.013498 2.027459
v 4.405260 -0.013498 1.997859
v 4.338659 -0.013498 1.906591
v 4.296726 -0.013498 1.874524
v 4.264658 -0.013498 1.805457
vn -0.0000 1.0000 -0.0000
vn -0.6508 -0.0000 0.7593
vn -0.2474 -0.0000 0.9689
vn -0.8078 -0.0000 0.5895
vn -0.6075 -0.0000 0.7943
vn -0.9070 -0.0000 0.4211
vn 0.0298 -0.0000 0.9996
vn -0.6074 -0.0000 0.7944
vt 0.000000 0.000000
s 0
f 11/1/1 22/1/1 17/1/1
f 20/1/2 26/1/2 19/1/2
f 21/1/3 27/1/3 20/1/3
f 22/1/4 28/1/4 21/1/4
f 23/1/5 29/1/5 22/1/5
f 24/1/6 30/1/6 23/1/6
f 5/1/7 31/1/7 24/1/7
f 3/1/1 4/1/1 24/1/1
f 4/1/1 5/1/1 24/1/1
f 24/1/1 23/1/1 22/1/1
f 8/1/1 1/1/1 2/1/1
f 2/1/1 3/1/1 7/1/1
f 3/1/1 24/1/1 7/1/1
f 22/1/1 21/1/1 20/1/1
f 24/1/1 22/1/1 7/1/1
f 7/1/1 8/1/1 2/1/1
f 9/1/1 6/1/1 7/1/1
f 11/1/1 10/1/1 9/1/1
f 14/1/1 13/1/1 12/1/1
f 11/1/1 9/1/1 7/1/1
f 14/1/1 12/1/1 15/1/1
f 12/1/1 11/1/1 16/1/1
f 16/1/1 15/1/1 12/1/1
f 19/1/1 18/1/1 20/1/1
f 18/1/1 17/1/1 20/1/1
f 17/1/1 16/1/1 11/1/1
f 20/1/1 17/1/1 22/1/1
f 7/1/1 22/1/1 11/1/1
f 20/1/2 27/1/2 26/1/2
f 21/1/3 28/1/3 27/1/3
f 22/1/4 29/1/4 28/1/4
f 23/1/8 30/1/8 29/1/8
f 24/1/6 31/1/6 30/1/6
f 5/1/7 25/1/7 31/1/7
