# Blender 4.5.1 LTS
# www.blender.org
mtllib province_070.mtl
o province_070
v -0.142874 0.001999 0.094997
v -0.142668 0.001999 0.101164
v -0.147601 0.001999 0.105069
v -0.148013 0.001999 0.108769
v -0.141846 0.001999 0.119869
v -0.146779 0.001999 0.124392
v -0.147601 0.001999 0.128708
v -0.150890 0.001999 0.133436
v -0.144194 0.001999 0.137860
v -0.140340 0.001999 0.135577
v -0.133345 0.001999 0.136147
v -0.128349 0.001999 0.140002
v -0.124352 0.001999 0.138146
v -0.118356 0.001999 0.136433
v -0.115787 0.001999 0.130723
v -0.139305 0.001999 0.096853
v -0.131597 0.001999 0.096995
v -0.126886 0.001999 0.094569
v -0.121604 0.001999 0.094569
v -0.117607 0.001999 0.096282
v -0.118321 0.001999 0.102705
v -0.113896 0.001999 0.105846
v -0.113610 0.001999 0.108558
v -0.116465 0.001999 0.111698
v -0.116037 0.001999 0.117408
v -0.110327 0.001999 0.119407
v -0.105616 0.001999 0.120977
v -0.110884 0.001999 0.129784
v -0.106363 0.001999 0.123701
v -0.105456 0.001999 0.123203
v -0.105456 -0.000001 0.123203
v -0.106363 -0.000001 0.123701
v -0.110884 -0.000001 0.129784
vn -0.0000 1.0000 -0.0000
vn 0.8026 -0.0000 0.5965
vn 0.4812 -0.0000 0.8766
vt 0.000000 0.000000
s 0
f 16/1/1 1/1/1 2/1/1 3/1/1 4/1/1 5/1/1 6/1/1 7/1/1 8/1/1 9/1/1 10/1/1 11/1/1 12/1/1 13/1/1 14/1/1 15/1/1 28/1/1 29/1/1 30/1/1 27/1/1 26/1/1 25/1/1 24/1/1 23/1/1 22/1/1 21/1/1 20/1/1 19/1/1 18/1/1 17/1/1
f 29/1/2 28/1/2 33/1/2 32/1/2
f 30/1/3 29/1/3 32/1/3 31/1/3
