# Blender 4.5.1 LTS
# www.blender.org
o province_070
v -12.370101 0.045516 0.608101
v -12.355712 0.045516 1.039771
v -12.701048 0.045516 1.313162
v -12.729826 0.045516 1.572164
v -12.298155 0.045516 2.349169
v -12.643492 0.045516 2.665727
v -12.701048 0.045516 2.967896
v -12.931272 0.045516 3.298842
v -12.462508 0.045516 3.608550
v -12.192714 0.045516 3.448673
v -11.703089 0.045516 3.488642
v -11.353355 0.045516 3.758435
v -11.073569 0.045516 3.628535
v -10.653892 0.045516 3.508627
v -10.474029 0.045516 3.108932
v -12.120293 0.045516 0.738002
v -11.580706 0.045516 0.747994
v -11.250958 0.045516 0.578124
v -10.881241 0.045516 0.578124
v -10.601456 0.045516 0.698033
v -10.651417 0.045516 1.147689
v -10.341655 0.045516 1.367520
v -10.321670 0.045516 1.557375
v -10.521517 0.045516 1.777207
v -10.491539 0.045516 2.176901
v -9.762097 0.045516 2.426709
v -10.130860 0.045516 3.043220
v -9.814382 0.045516 2.617422
v -9.750847 0.045516 2.582550
v -9.750847 -0.094484 2.582550
v -9.814382 -0.094484 2.617422
v -10.130860 -0.094484 3.043220
vn 0.8026 -0.0000 0.5965
vn -0.0000 1.0000 -0.0000
vn 0.4812 -0.0000 0.8766
vt 0.000000 0.000000
s 1
f 32/1/1 28/1/1 27/1/1
s 2
f 5/1/2 25/1/2 24/1/2
s 3
f 31/1/3 29/1/3 28/1/3
s 1
f 32/1/1 31/1/1 28/1/1
s 2
f 8/1/2 9/1/2 7/1/2
f 9/1/2 10/1/2 7/1/2
f 11/1/2 12/1/2 13/1/2
f 10/1/2 11/1/2 5/1/2
f 7/1/2 10/1/2 6/1/2
f 5/1/2 6/1/2 10/1/2
f 11/1/2 13/1/2 15/1/2
f 13/1/2 14/1/2 15/1/2
f 15/1/2 27/1/2 25/1/2
f 27/1/2 28/1/2 25/1/2
f 3/1/2 4/1/2 2/1/2
f 4/1/2 5/1/2 2/1/2
f 16/1/2 1/1/2 2/1/2
f 5/1/2 11/1/2 25/1/2
f 11/1/2 15/1/2 25/1/2
f 28/1/2 29/1/2 26/1/2
f 16/1/2 2/1/2 17/1/2
f 2/1/2 5/1/2 17/1/2
f 19/1/2 18/1/2 21/1/2
f 18/1/2 17/1/2 21/1/2
f 28/1/2 26/1/2 25/1/2
f 17/1/2 5/1/2 24/1/2
f 21/1/2 17/1/2 24/1/2
f 21/1/2 20/1/2 19/1/2
f 23/1/2 22/1/2 24/1/2
f 22/1/2 21/1/2 24/1/2
s 3
f 31/1/3 30/1/3 29/1/3
