# Blender 4.5.1 LTS
# www.blender.org
mtllib province_119.mtl
o province_119
v 2.258207 0.006502 1.340278
v 2.331865 0.006502 1.408797
v 2.410663 0.006502 1.431066
v 2.516868 0.006502 1.511576
v 2.667610 0.006502 1.509863
v 2.614222 0.006502 1.593514
v 2.644200 0.006502 1.638052
v 2.636776 0.006502 1.718847
v 2.588813 0.006502 1.756533
v 2.557868 0.006502 1.824612
v 2.495059 0.006502 1.810338
v 2.433677 0.006502 1.828895
v 2.378005 0.006502 1.818902
v 2.369440 0.006502 1.787498
v 2.279508 0.006502 1.754665
v 2.265233 0.006502 1.723261
v 2.218126 0.006502 1.727543
v 2.192431 0.006502 1.780360
v 2.125340 0.006502 1.760375
v 2.052538 0.006502 1.690428
v 2.056820 0.006502 1.636184
v 1.931201 0.006502 1.606207
v 1.966889 0.006502 1.569092
v 2.071095 0.006502 1.564809
v 2.112492 0.006502 1.534832
v 2.126767 0.006502 1.477733
v 2.175302 0.006502 1.433481
v 2.193859 0.006502 1.380664
v 2.258207 -0.013498 1.340278
v 1.931201 -0.013498 1.606207
v 1.966889 -0.013498 1.569092
v 2.071095 -0.013498 1.564809
v 2.112492 -0.013498 1.534832
v 2.126767 -0.013498 1.477733
v 2.175302 -0.013498 1.433481
v 2.193859 -0.013498 1.380664
vn -0.0000 1.0000 -0.0000
vn -0.7208 -0.0000 -0.6931
vn -0.0411 -0.0000 -0.9992
vn -0.5865 -0.0000 -0.8099
vn -0.9701 -0.0000 -0.2425
vn -0.6738 -0.0000 -0.7390
vn -0.9435 -0.0000 -0.3315
vn -0.5316 -0.0000 -0.8470
vt 0.000000 0.000000
s 0
f 14/1/1 4/1/1 16/1/1
f 23/1/2 30/1/2 22/1/2
f 24/1/3 31/1/3 23/1/3
f 25/1/4 32/1/4 24/1/4
f 26/1/5 33/1/5 25/1/5
f 27/1/6 34/1/6 26/1/6
f 28/1/7 35/1/7 27/1/7
f 1/1/8 36/1/8 28/1/8
f 2/1/1 1/1/1 28/1/1
f 27/1/1 26/1/1 25/1/1
f 2/1/1 28/1/1 27/1/1
f 4/1/1 3/1/1 16/1/1
f 3/1/1 2/1/1 16/1/1
f 6/1/1 5/1/1 4/1/1
f 8/1/1 7/1/1 9/1/1
f 7/1/1 6/1/1 9/1/1
f 11/1/1 10/1/1 9/1/1
f 6/1/1 4/1/1 9/1/1
f 9/1/1 4/1/1 11/1/1
f 2/1/1 27/1/1 16/1/1
f 27/1/1 25/1/1 16/1/1
f 24/1/1 23/1/1 21/1/1
f 23/1/1 22/1/1 21/1/1
f 25/1/1 24/1/1 21/1/1
f 16/1/1 25/1/1 17/1/1
f 11/1/1 14/1/1 12/1/1
f 14/1/1 13/1/1 12/1/1
f 16/1/1 15/1/1 14/1/1
f 19/1/1 18/1/1 17/1/1
f 20/1/1 19/1/1 21/1/1
f 19/1/1 17/1/1 21/1/1
f 21/1/1 17/1/1 25/1/1
f 11/1/1 4/1/1 14/1/1
f 23/1/2 31/1/2 30/1/2
f 24/1/3 32/1/3 31/1/3
f 25/1/4 33/1/4 32/1/4
f 26/1/5 34/1/5 33/1/5
f 27/1/6 35/1/6 34/1/6
f 28/1/7 36/1/7 35/1/7
f 1/1/8 29/1/8 36/1/8
