# Blender 4.5.1 LTS
# www.blender.org
o province_117
v 16.155186 0.045516 7.427434
v 16.644413 0.045516 7.154041
v 17.234367 0.045516 6.966984
v 17.752373 0.045516 7.225986
v 18.227213 0.045516 7.197208
v 18.500603 0.045516 6.966984
v 19.085768 0.045516 8.333941
v 19.241650 0.045516 7.710414
v 18.833960 0.045516 7.242770
v 16.454956 0.045516 7.775169
v 16.442966 0.045516 8.266794
v 16.898619 0.045516 8.590549
v 16.395002 0.045516 9.070184
v 15.807449 0.045516 9.381947
v 16.323057 0.045516 9.861582
v 16.874638 0.045516 10.017463
v 17.618073 0.045516 10.581035
v 18.673271 0.045516 10.569044
v 19.032999 0.045516 10.077417
v 19.032999 0.045516 9.837599
v 19.476662 0.045516 9.537827
v 19.572590 0.045516 9.130137
v 16.155186 -0.094484 7.427434
v 16.454956 -0.094484 7.775169
v 16.442966 -0.094484 8.266794
v 16.898619 -0.094484 8.590549
v 16.395002 -0.094484 9.070184
v 15.807449 -0.094484 9.381947
vn -0.5792 -0.0000 0.8152
vn -0.9997 -0.0000 -0.0244
vn -0.6897 -0.0000 -0.7241
vn -0.7574 -0.0000 0.6529
vn -0.0000 1.0000 -0.0000
vn -0.4687 -0.0000 -0.8833
vt 0.000000 0.000000
s 1
f 25/1/1 12/1/1 11/1/1
s 2
f 24/1/2 11/1/2 10/1/2
s 3
f 26/1/3 13/1/3 12/1/3
s 4
f 23/1/4 10/1/4 1/1/4
s 5
f 3/1/5 2/1/5 10/1/5
s 6
f 27/1/6 14/1/6 13/1/6
s 1
f 25/1/1 26/1/1 12/1/1
s 2
f 24/1/2 25/1/2 11/1/2
s 3
f 26/1/3 27/1/3 13/1/3
s 4
f 23/1/4 24/1/4 10/1/4
s 5
f 14/1/5 15/1/5 13/1/5
f 15/1/5 16/1/5 13/1/5
f 16/1/5 17/1/5 20/1/5
f 17/1/5 18/1/5 20/1/5
f 18/1/5 19/1/5 20/1/5
f 20/1/5 21/1/5 22/1/5
f 7/1/5 8/1/5 9/1/5
f 20/1/5 22/1/5 7/1/5
f 10/1/5 11/1/5 12/1/5
f 12/1/5 13/1/5 16/1/5
f 16/1/5 20/1/5 12/1/5
f 20/1/5 7/1/5 12/1/5
f 7/1/5 9/1/5 5/1/5
f 9/1/5 6/1/5 5/1/5
f 2/1/5 1/1/5 10/1/5
f 10/1/5 12/1/5 4/1/5
f 12/1/5 7/1/5 4/1/5
f 7/1/5 5/1/5 4/1/5
f 4/1/5 3/1/5 10/1/5
s 6
f 27/1/6 28/1/6 14/1/6
