# Blender 4.5.1 LTS
# www.blender.org
mtllib province_184.mtl
o province_184
v -3.493503 0.006502 1.777638
v -3.406427 0.006502 1.809043
v -3.337908 0.006502 1.883272
v -3.243694 0.006502 1.911821
v -3.183740 0.006502 1.880417
v -3.168038 0.006502 1.827600
v -3.136633 0.006502 1.740524
v -3.169465 0.006502 1.652020
v -3.487793 0.006502 1.734814
v -3.430694 0.006502 1.686280
v -3.482083 0.006502 1.630608
v -3.479228 0.006502 1.592066
v -3.135919 0.006502 1.619427
v -3.420950 0.006502 1.533788
v -3.201341 0.006502 1.562411
v -3.245157 0.006502 1.575555
v -3.322337 0.006502 1.570830
v -3.352138 0.006502 1.535353
v -3.163001 0.006502 1.591456
v -3.075558 0.006502 1.579797
v -3.041043 0.006502 1.622487
v -3.113525 0.006502 1.584860
v -3.163001 -0.013498 1.591456
v -3.201341 -0.013498 1.562411
v -3.245157 -0.013498 1.575555
v -3.322337 -0.013498 1.570830
v -3.352138 -0.013498 1.535353
v -3.420950 -0.013498 1.533788
v -3.113525 -0.013498 1.584860
v -3.075558 -0.013498 1.579797
v -3.493503 -0.013498 1.777638
v -3.406427 -0.013498 1.809043
v -3.337908 -0.013498 1.883272
v -3.243694 -0.013498 1.911821
v -3.183740 -0.013498 1.880417
v -3.168038 -0.013498 1.827600
v -3.136633 -0.013498 1.740524
v -3.169465 -0.013498 1.652020
v -3.135919 -0.013498 1.619427
v -3.041043 -0.013498 1.622487
vn -0.0000 1.0000 -0.0000
vn 0.6039 -0.0000 -0.7971
vn -0.2873 -0.0000 -0.9578
vn 0.0611 -0.0000 -0.9981
vn 0.7657 -0.0000 -0.6432
vn 0.0227 -0.0000 -0.9997
vn -0.1322 -0.0000 -0.9912
vn 0.7776 -0.0000 -0.6287
vn -0.3393 -0.0000 0.9407
vn -0.7348 -0.0000 0.6783
vn -0.2900 -0.0000 0.9570
vn 0.4640 -0.0000 0.8858
vn 0.9585 -0.0000 0.2850
vn -0.0322 -0.0000 0.9995
vn 0.9407 -0.0000 0.3393
vn 0.9376 -0.0000 -0.3478
vn 0.6969 -0.0000 0.7172
vt 0.000000 0.000000
s 0
f 8/1/1 17/1/1 10/1/1
f 19/1/2 24/1/2 15/1/2
f 15/1/3 25/1/3 16/1/3
f 16/1/4 26/1/4 17/1/4
f 17/1/5 27/1/5 18/1/5
f 18/1/6 28/1/6 14/1/6
f 22/1/7 23/1/7 19/1/7
f 21/1/8 30/1/8 20/1/8
f 20/1/7 29/1/7 22/1/7
f 1/1/9 32/1/9 2/1/9
f 2/1/10 33/1/10 3/1/10
f 3/1/11 34/1/11 4/1/11
f 4/1/12 35/1/12 5/1/12
f 5/1/13 36/1/13 6/1/13
f 13/1/14 40/1/14 21/1/14
f 6/1/15 37/1/15 7/1/15
f 7/1/16 38/1/16 8/1/16
f 8/1/17 39/1/17 13/1/17
f 2/1/1 3/1/1 6/1/1
f 3/1/1 4/1/1 6/1/1
f 4/1/1 5/1/1 6/1/1
f 6/1/1 7/1/1 8/1/1
f 13/1/1 21/1/1 20/1/1
f 6/1/1 8/1/1 2/1/1
f 13/1/1 20/1/1 22/1/1
f 8/1/1 13/1/1 19/1/1
f 13/1/1 22/1/1 19/1/1
f 19/1/1 15/1/1 16/1/1
f 1/1/1 2/1/1 9/1/1
f 2/1/1 8/1/1 10/1/1
f 10/1/1 9/1/1 2/1/1
f 12/1/1 11/1/1 10/1/1
f 18/1/1 14/1/1 17/1/1
f 14/1/1 12/1/1 10/1/1
f 17/1/1 14/1/1 10/1/1
f 19/1/1 16/1/1 8/1/1
f 16/1/1 17/1/1 8/1/1
f 19/1/2 23/1/2 24/1/2
f 15/1/3 24/1/3 25/1/3
f 16/1/4 25/1/4 26/1/4
f 17/1/5 26/1/5 27/1/5
f 18/1/6 27/1/6 28/1/6
f 22/1/7 29/1/7 23/1/7
f 21/1/8 40/1/8 30/1/8
f 20/1/7 30/1/7 29/1/7
f 1/1/9 31/1/9 32/1/9
f 2/1/10 32/1/10 33/1/10
f 3/1/11 33/1/11 34/1/11
f 4/1/12 34/1/12 35/1/12
f 5/1/13 35/1/13 36/1/13
f 13/1/14 39/1/14 40/1/14
f 6/1/15 36/1/15 37/1/15
f 7/1/16 37/1/16 38/1/16
f 8/1/17 38/1/17 39/1/17
