# Blender 4.5.1 LTS
# www.blender.org
mtllib province_082.mtl
o province_082
v -0.018413 0.001999 0.007573
v -0.014987 0.001999 0.002862
v -0.007278 0.001999 0.003576
v -0.002139 0.001999 -0.000849
v -0.002567 0.001999 -0.006559
v -0.004138 0.001999 -0.009985
v -0.001140 0.001999 -0.016266
v -0.007992 0.001999 -0.025117
v -0.000426 0.001999 -0.024831
v 0.009423 0.001999 -0.032539
v -0.070571 0.001999 -0.046400
v -0.063377 0.001999 -0.047633
v -0.052894 0.001999 -0.044755
v -0.041588 0.001999 -0.048661
v -0.035832 0.001999 -0.045989
v -0.029666 0.001999 -0.048867
v -0.024527 0.001999 -0.050305
v -0.019182 0.001999 -0.047428
v -0.020415 0.001999 -0.042083
v -0.015277 0.001999 -0.038794
v -0.011371 0.001999 -0.039205
v -0.005821 0.001999 -0.045167
v -0.004176 0.001999 -0.052155
v -0.001504 0.001999 -0.052567
v 0.001579 0.001999 -0.046811
v 0.003840 0.001999 -0.045372
v 0.004457 0.001999 -0.038178
v 0.009596 0.001999 -0.035094
v -0.075413 0.001999 -0.038025
v -0.068512 0.001999 -0.027179
v -0.059578 0.001999 -0.013779
v -0.051299 0.001999 -0.007233
v -0.044410 0.001999 -0.008344
v -0.042099 0.001999 -0.000571
v -0.075054 0.001999 -0.048001
v -0.032399 0.001999 -0.000407
v -0.027596 0.001999 0.004196
v -0.026200 0.001999 0.010292
v -0.042099 -0.000001 -0.000571
v -0.075413 -0.000001 -0.038025
v -0.068512 -0.000001 -0.027179
v -0.059578 -0.000001 -0.013779
v -0.051299 -0.000001 -0.007233
v -0.044410 -0.000001 -0.008344
v -0.075054 -0.000001 -0.048001
v -0.032399 -0.000001 -0.000407
v -0.027596 -0.000001 0.004196
v -0.026200 -0.000001 0.010292
vn -0.9748 -0.0000 0.2233
vn -0.6919 -0.0000 0.7220
vn -0.0169 -0.0000 0.9999
vn -0.9994 -0.0000 -0.0359
vn -0.9585 -0.0000 0.2850
vn 0.1592 -0.0000 0.9872
vn -0.6202 -0.0000 0.7844
vn -0.8321 -0.0000 0.5547
vn -0.8437 -0.0000 0.5369
vn -0.0000 1.0000 -0.0000
vt 0.000000 0.000000
s 0
f 38/1/1 37/1/1 47/1/1 48/1/1
f 37/1/2 36/1/2 46/1/2 47/1/2
f 36/1/3 34/1/3 39/1/3 46/1/3
f 29/1/4 35/1/4 45/1/4 40/1/4
f 34/1/5 33/1/5 44/1/5 39/1/5
f 33/1/6 32/1/6 43/1/6 44/1/6
f 32/1/7 31/1/7 42/1/7 43/1/7
f 31/1/8 30/1/8 41/1/8 42/1/8
f 30/1/9 29/1/9 40/1/9 41/1/9
f 11/1/10 35/1/10 29/1/10 30/1/10 31/1/10 32/1/10 33/1/10 34/1/10 36/1/10 37/1/10 38/1/10 1/1/10 2/1/10 3/1/10 4/1/10 5/1/10 6/1/10 7/1/10 8/1/10 9/1/10 10/1/10 28/1/10 27/1/10 26/1/10 25/1/10 24/1/10 23/1/10 22/1/10 21/1/10 20/1/10 19/1/10 18/1/10 17/1/10 16/1/10 15/1/10 14/1/10 13/1/10 12/1/10
