# Blender 4.5.1 LTS
# www.blender.org
mtllib province_002.mtl
o province_002
v 0.231621 0.001999 0.064428
v 0.241756 0.001999 0.056148
v 0.230051 0.001999 0.052152
v 0.229908 0.001999 0.047155
v 0.225626 0.001999 0.044586
v 0.228909 0.001999 0.035307
v 0.231907 0.001999 0.029455
v 0.228052 0.001999 0.022032
v 0.219916 0.001999 0.023316
v 0.212636 0.001999 0.020890
v 0.201501 0.001999 0.024744
v 0.207211 0.001999 0.031168
v 0.204927 0.001999 0.038305
v 0.207211 0.001999 0.042302
v 0.235478 0.001999 0.027566
v 0.204021 0.001999 0.044977
v 0.204165 0.001999 0.049828
v 0.210670 0.001999 0.051627
v 0.212009 0.001999 0.058619
v 0.228061 0.001999 0.070934
v 0.204021 -0.000001 0.044977
v 0.204165 -0.000001 0.049828
v 0.210670 -0.000001 0.051627
v 0.212009 -0.000001 0.058619
v 0.231621 -0.000001 0.064428
v 0.241756 -0.000001 0.056148
v 0.228061 -0.000001 0.070934
vn -0.0000 1.0000 -0.0000
vn -0.9996 -0.0000 0.0297
vn -0.2666 -0.0000 0.9638
vn -0.9822 -0.0000 0.1881
vn -0.6087 -0.0000 0.7934
vn 0.6326 -0.0000 0.7744
vn 0.8773 -0.0000 0.4800
vt 0.000000 0.000000
s 0
f 16/1/1 17/1/1 18/1/1 19/1/1 20/1/1 1/1/1 2/1/1 3/1/1 4/1/1 5/1/1 6/1/1 7/1/1 8/1/1 9/1/1 10/1/1 11/1/1 12/1/1 13/1/1 14/1/1
f 17/1/2 16/1/2 21/1/2 22/1/2
f 18/1/3 17/1/3 22/1/3 23/1/3
f 19/1/4 18/1/4 23/1/4 24/1/4
f 20/1/5 19/1/5 24/1/5 27/1/5
f 2/1/6 1/1/6 25/1/6 26/1/6
f 1/1/7 20/1/7 27/1/7 25/1/7
l 7 15
