# Blender 4.5.1 LTS
# www.blender.org
mtllib province_066.mtl
o province_066
v -2.841660 0.006502 1.086462
v -2.795981 0.006502 1.119294
v -2.718897 0.006502 1.130713
v -2.694630 0.006502 1.174965
v -2.644668 0.006502 1.224927
v -2.670839 0.006502 1.017705
v -2.610171 0.006502 1.024842
v -2.525712 0.006502 0.979639
v -2.450769 0.006502 0.984397
v -2.442442 0.006502 1.033169
v -2.410324 0.006502 1.055771
v -2.359172 0.006502 1.018894
v -2.227130 0.006502 1.017705
v -2.149808 0.006502 1.047444
v -2.142671 0.006502 1.108112
v -2.193228 0.006502 1.143799
v -2.525315 0.006502 1.227069
v -2.590741 0.006502 1.225086
v -2.618498 0.006502 1.209225
v -2.702078 0.006502 0.997153
v -2.763509 0.006502 1.010435
v -2.789116 0.006502 1.031524
v -2.841660 0.006502 1.042374
v -2.258576 0.006502 1.217979
v -2.319442 0.006502 1.183669
v -2.365932 0.006502 1.194827
v -2.390954 0.006502 1.162299
v -2.412961 0.006502 1.157432
v -2.763509 -0.013498 1.010435
v -2.789116 -0.013498 1.031524
v -2.841660 -0.013498 1.042374
v -2.258576 -0.013498 1.217979
v -2.319442 -0.013498 1.183669
v -2.365932 -0.013498 1.194827
v -2.670839 -0.013498 1.017705
v -2.610171 -0.013498 1.024842
v -2.525712 -0.013498 0.979639
v -2.450769 -0.013498 0.984397
v -2.442442 -0.013498 1.033169
v -2.410324 -0.013498 1.055771
v -2.359172 -0.013498 1.018894
v -2.227130 -0.013498 1.017705
v -2.149808 -0.013498 1.047444
v -2.142671 -0.013498 1.108112
v -2.702078 -0.013498 0.997153
v -2.390954 -0.013498 1.162299
v -2.412961 -0.013498 1.157432
vn -0.0000 1.0000 -0.0000
vn -0.2113 -0.0000 -0.9774
vn -0.6357 -0.0000 -0.7719
vn -0.2022 -0.0000 -0.9793
vn -0.4911 -0.0000 0.8711
vn 0.2334 -0.0000 0.9724
vn -0.7926 -0.0000 0.6097
vn 0.5496 -0.0000 -0.8354
vn 0.1168 -0.0000 -0.9932
vn -0.4719 -0.0000 -0.8817
vn 0.0634 -0.0000 -0.9980
vn 0.9857 -0.0000 -0.1683
vn 0.5755 -0.0000 -0.8178
vn -0.5848 -0.0000 -0.8112
vn -0.0090 -0.0000 -1.0000
vn 0.3590 -0.0000 -0.9333
vn 0.9932 -0.0000 -0.1168
vn -0.2159 -0.0000 0.9764
vn -0.4910 -0.0000 0.8711
vt 0.000000 0.000000
s 0
f 25/1/1 16/1/1 13/1/1
f 20/1/2 29/1/2 21/1/2
f 21/1/3 30/1/3 22/1/3
f 22/1/4 31/1/4 23/1/4
f 25/1/5 32/1/5 24/1/5
f 26/1/6 33/1/6 25/1/6
f 27/1/7 34/1/7 26/1/7
f 6/1/8 45/1/8 20/1/8
f 7/1/9 35/1/9 6/1/9
f 8/1/10 36/1/10 7/1/10
f 9/1/11 37/1/11 8/1/11
f 10/1/12 38/1/12 9/1/12
f 11/1/13 39/1/13 10/1/13
f 12/1/14 40/1/14 11/1/14
f 13/1/15 41/1/15 12/1/15
f 14/1/16 42/1/16 13/1/16
f 15/1/17 43/1/17 14/1/17
f 28/1/18 46/1/18 27/1/18
f 4/1/1 5/1/1 19/1/1
f 19/1/1 18/1/1 17/1/1
f 19/1/1 17/1/1 7/1/1
f 17/1/1 28/1/1 10/1/1
f 7/1/1 17/1/1 10/1/1
f 3/1/1 4/1/1 7/1/1
f 4/1/1 19/1/1 7/1/1
f 1/1/1 2/1/1 22/1/1
f 2/1/1 3/1/1 22/1/1
f 22/1/1 23/1/1 1/1/1
f 20/1/1 21/1/1 6/1/1
f 21/1/1 22/1/1 3/1/1
f 6/1/1 21/1/1 3/1/1
f 27/1/1 26/1/1 25/1/1
f 3/1/1 7/1/1 6/1/1
f 28/1/1 27/1/1 11/1/1
f 9/1/1 8/1/1 10/1/1
f 8/1/1 7/1/1 10/1/1
f 25/1/1 24/1/1 16/1/1
f 28/1/1 11/1/1 10/1/1
f 27/1/1 25/1/1 12/1/1
f 11/1/1 27/1/1 12/1/1
f 13/1/1 12/1/1 25/1/1
f 15/1/1 14/1/1 16/1/1
f 14/1/1 13/1/1 16/1/1
f 20/1/2 45/1/2 29/1/2
f 21/1/3 29/1/3 30/1/3
f 22/1/4 30/1/4 31/1/4
f 25/1/19 33/1/19 32/1/19
f 26/1/6 34/1/6 33/1/6
f 27/1/7 46/1/7 34/1/7
f 6/1/8 35/1/8 45/1/8
f 7/1/9 36/1/9 35/1/9
f 8/1/10 37/1/10 36/1/10
f 9/1/11 38/1/11 37/1/11
f 10/1/12 39/1/12 38/1/12
f 11/1/13 40/1/13 39/1/13
f 12/1/14 41/1/14 40/1/14
f 13/1/15 42/1/15 41/1/15
f 14/1/16 43/1/16 42/1/16
f 15/1/17 44/1/17 43/1/17
f 28/1/18 47/1/18 46/1/18
