# Blender 4.5.1 LTS
# www.blender.org
o province_110
v -3.532211 0.045516 17.851429
v -4.309218 0.045516 18.058632
v -5.552429 0.045516 17.972298
v -5.932299 0.045516 17.678762
v -6.709306 0.045516 18.352165
v -7.071909 0.045516 18.093164
v -7.020108 0.045516 17.419762
v -7.658980 0.045516 17.178024
v -7.848916 0.045516 16.608221
v -8.574122 0.045516 16.142017
v -8.833124 0.045516 15.503145
v -8.677723 0.045516 15.106009
v -8.159719 0.045516 14.916073
v -7.797115 0.045516 14.570736
v -7.037375 0.045516 14.726136
v -6.847440 0.045516 14.467135
v -6.329435 0.045516 14.950605
v -5.984099 0.045516 14.933339
v -3.566744 0.045516 17.039890
v -5.720227 0.045516 15.746008
v -5.672063 0.045516 15.651022
v -5.591945 0.045516 16.314117
v -4.816741 0.045516 16.824615
v -3.627955 0.045516 16.264189
v -3.199010 0.045516 16.598608
v -5.672063 -0.094484 15.651022
v -5.720227 -0.094484 15.746008
v -5.591945 -0.094484 16.314117
v -4.816741 -0.094484 16.824615
v -3.627955 -0.094484 16.264189
v -3.199010 -0.094484 16.598608
vn 0.6149 -0.0000 -0.7886
vn 0.5500 -0.0000 -0.8352
vn -0.4264 -0.0000 -0.9045
vn 0.9754 -0.0000 -0.2203
vn 0.8919 -0.0000 0.4523
vn -0.0000 1.0000 -0.0000
vt 0.000000 0.000000
s 1
f 31/1/1 24/1/1 25/1/1
s 2
f 29/1/2 22/1/2 23/1/2
s 3
f 30/1/3 23/1/3 24/1/3
s 4
f 28/1/4 20/1/4 22/1/4
s 5
f 27/1/5 21/1/5 20/1/5
s 6
f 7/1/6 5/1/6 4/1/6
s 1
f 31/1/1 30/1/1 24/1/1
s 2
f 29/1/2 28/1/2 22/1/2
s 3
f 30/1/3 29/1/3 23/1/3
s 4
f 28/1/4 27/1/4 20/1/4
s 5
f 27/1/5 26/1/5 21/1/5
s 6
f 20/1/6 21/1/6 17/1/6
f 21/1/6 18/1/6 17/1/6
f 17/1/6 16/1/6 15/1/6
f 22/1/6 20/1/6 9/1/6
f 20/1/6 17/1/6 9/1/6
f 17/1/6 15/1/6 9/1/6
f 15/1/6 14/1/6 13/1/6
f 13/1/6 12/1/6 11/1/6
f 15/1/6 13/1/6 9/1/6
f 13/1/6 11/1/6 10/1/6
f 9/1/6 8/1/6 7/1/6
f 13/1/6 10/1/6 9/1/6
f 23/1/6 22/1/6 4/1/6
f 25/1/6 24/1/6 19/1/6
f 24/1/6 23/1/6 19/1/6
f 2/1/6 1/1/6 19/1/6
f 22/1/6 9/1/6 7/1/6
f 7/1/6 6/1/6 5/1/6
f 22/1/6 7/1/6 4/1/6
f 2/1/6 19/1/6 23/1/6
f 4/1/6 3/1/6 23/1/6
f 3/1/6 2/1/6 23/1/6
