# Blender 4.5.1 LTS
# www.blender.org
o province_071
v -15.514618 0.045516 -0.919651
v -15.278687 0.045516 -1.093129
v -15.433346 0.045516 -2.489035
v -15.842754 0.045516 -2.065748
v -15.988475 0.045516 -1.468983
v -13.952891 0.045516 -0.125736
v -13.593166 0.045516 0.032542
v -14.869776 0.045516 -2.632925
v -14.522041 0.045516 -2.872742
v -14.090372 0.045516 -2.908714
v -13.243434 0.045516 -0.047397
v -12.733823 0.045516 -0.557007
v -12.513991 0.045516 -0.706893
v -12.474021 0.045516 -1.466312
v -11.984396 0.045516 -1.885992
v -12.404076 0.045516 -2.085839
v -13.023602 0.045516 -1.826038
v -13.673106 0.045516 -1.875999
v -13.773030 0.045516 -2.465549
v -14.967415 0.045516 -1.052832
v -15.122219 0.045516 -1.042506
v -14.837462 0.045516 -0.781114
v -14.535954 0.045516 -0.781114
v -14.535954 0.045516 -0.248480
v -14.267256 0.045516 -0.035918
v -15.122219 -0.094484 -1.042506
v -14.967415 -0.094484 -1.052832
v -14.837462 -0.094484 -0.781114
v -14.535954 -0.094484 -0.781114
v -14.535954 -0.094484 -0.248480
v -14.267256 -0.094484 -0.035918
vn 0.0666 -0.0000 0.9978
vn -0.0000 -0.0000 1.0000
vn -0.9021 -0.0000 0.4315
vn -1.0000 -0.0000 -0.0000
vn -0.0000 1.0000 -0.0000
vn -0.6204 -0.0000 0.7843
vt 0.000000 0.000000
s 1
f 26/1/1 20/1/1 21/1/1
s 2
f 28/1/2 23/1/2 22/1/2
s 3
f 27/1/3 22/1/3 20/1/3
s 4
f 29/1/4 24/1/4 23/1/4
s 5
f 12/1/5 14/1/5 17/1/5
s 6
f 30/1/6 25/1/6 24/1/6
s 1
f 26/1/1 27/1/1 20/1/1
s 2
f 28/1/2 29/1/2 23/1/2
s 3
f 27/1/3 28/1/3 22/1/3
s 4
f 29/1/4 30/1/4 24/1/4
s 5
f 23/1/5 24/1/5 6/1/5
f 24/1/5 25/1/5 6/1/5
f 6/1/5 7/1/5 11/1/5
f 20/1/5 22/1/5 23/1/5
f 2/1/5 21/1/5 20/1/5
f 5/1/5 1/1/5 2/1/5
f 3/1/5 4/1/5 2/1/5
f 4/1/5 5/1/5 2/1/5
f 3/1/5 2/1/5 20/1/5
f 10/1/5 9/1/5 19/1/5
f 9/1/5 8/1/5 19/1/5
f 8/1/5 3/1/5 20/1/5
f 23/1/5 6/1/5 18/1/5
f 6/1/5 11/1/5 12/1/5
f 20/1/5 23/1/5 18/1/5
f 6/1/5 12/1/5 18/1/5
f 12/1/5 13/1/5 14/1/5
f 8/1/5 20/1/5 18/1/5
f 18/1/5 19/1/5 8/1/5
f 15/1/5 16/1/5 14/1/5
f 16/1/5 17/1/5 14/1/5
f 17/1/5 18/1/5 12/1/5
s 6
f 30/1/6 31/1/6 25/1/6
