# Blender 4.5.1 LTS
# www.blender.org
o province_067
v -13.463664 0.045516 3.342009
v -13.852167 0.045516 3.083007
v -14.384560 0.045516 2.939117
v -14.859397 0.045516 2.737671
v -14.620857 0.045516 4.847600
v -14.021316 0.045516 5.087417
v -13.761515 0.045516 4.887570
v -13.701560 0.045516 4.527845
v -13.821469 0.045516 4.238067
v -13.581653 0.045516 3.998250
v -15.323126 0.045516 3.006851
v -15.099602 0.045516 3.230303
v -15.138628 0.045516 3.477480
v -14.798356 0.045516 3.671922
v -14.859219 0.045516 4.045796
v -15.059681 0.045516 4.339805
v -14.986712 0.045516 4.863860
v -15.323126 -0.094484 3.006851
v -15.099602 -0.094484 3.230303
v -15.138628 -0.094484 3.477480
v -14.798356 -0.094484 3.671922
v -14.859219 -0.094484 4.045796
v -15.059681 -0.094484 4.339805
v -14.986712 -0.094484 4.863860
v -14.620857 -0.094484 4.847600
v -14.021316 -0.094484 5.087417
vn -0.8262 -0.0000 -0.5633
vn -0.7070 -0.0000 0.7072
vn -0.9878 -0.0000 -0.1560
vn -0.9870 -0.0000 -0.1607
vn -0.0000 1.0000 -0.0000
vn -0.3714 -0.0000 0.9285
vn 0.0444 -0.0000 0.9990
vn -0.4961 -0.0000 0.8682
vn -0.9904 -0.0000 0.1379
vt 0.000000 0.000000
s 1
f 22/1/1 16/1/1 15/1/1
s 2
f 18/1/2 12/1/2 11/1/2
s 3
f 19/1/3 13/1/3 12/1/3
s 4
f 21/1/4 15/1/4 14/1/4
s 5
f 9/1/5 14/1/5 15/1/5
s 6
f 25/1/6 6/1/6 5/1/6
s 7
f 24/1/7 5/1/7 17/1/7
s 8
f 20/1/8 14/1/8 13/1/8
s 9
f 23/1/9 17/1/9 16/1/9
s 1
f 22/1/1 23/1/1 16/1/1
s 2
f 18/1/2 19/1/2 12/1/2
s 3
f 19/1/3 20/1/3 13/1/3
s 4
f 21/1/4 22/1/4 15/1/4
s 5
f 7/1/5 8/1/5 6/1/5
f 8/1/5 9/1/5 5/1/5
f 6/1/5 8/1/5 5/1/5
f 9/1/5 10/1/5 14/1/5
f 10/1/5 1/1/5 2/1/5
f 2/1/5 3/1/5 14/1/5
f 3/1/5 4/1/5 12/1/5
f 4/1/5 11/1/5 12/1/5
f 12/1/5 13/1/5 14/1/5
f 10/1/5 2/1/5 14/1/5
f 16/1/5 17/1/5 5/1/5
f 3/1/5 12/1/5 14/1/5
f 16/1/5 5/1/5 15/1/5
f 5/1/5 9/1/5 15/1/5
s 6
f 25/1/6 26/1/6 6/1/6
s 7
f 24/1/7 25/1/7 5/1/7
s 8
f 20/1/8 21/1/8 14/1/8
s 9
f 23/1/9 24/1/9 17/1/9
