# Blender 4.5.1 LTS
# www.blender.org
o province_072
v -15.887858 0.045516 -3.185261
v -15.634581 0.045516 -2.780479
v -15.433346 0.045516 -2.489035
v -15.917928 0.045516 -2.918105
v -13.762715 0.045516 -4.601192
v -14.398230 0.045516 -5.056843
v -14.869776 0.045516 -2.632925
v -14.522041 0.045516 -2.872742
v -14.090371 0.045516 -2.908714
v -14.078380 0.045516 -3.340384
v -13.886528 0.045516 -3.616173
v -13.958473 0.045516 -4.107798
v -15.429182 0.045516 -4.739266
v -15.823335 0.045516 -4.237125
v -15.828218 0.045516 -3.949034
v -15.480780 0.045516 -3.401153
v -15.625751 0.045516 -3.318566
v -14.420214 0.045516 -5.267926
v -15.625751 -0.094484 -3.318566
v -15.480780 -0.094484 -3.401153
v -15.429182 -0.094484 -4.739266
v -15.823335 -0.094484 -4.237125
v -15.828218 -0.094484 -3.949034
v -14.420214 -0.094484 -5.267926
vn -0.8445 -0.0000 0.5355
vn -0.4641 -0.0000 -0.8858
vn -0.9999 -0.0000 -0.0169
vn -0.7866 -0.0000 -0.6174
vn -0.0000 1.0000 -0.0000
vn -0.4950 -0.0000 -0.8689
vn -0.9999 -0.0000 -0.0170
vt 0.000000 0.000000
s 1
f 23/1/1 16/1/1 15/1/1
s 2
f 13/1/2 24/1/2 21/1/2
s 3
f 22/1/3 15/1/3 14/1/3
s 4
f 21/1/4 14/1/4 13/1/4
s 5
f 2/1/5 3/1/5 7/1/5
s 6
f 20/1/6 17/1/6 16/1/6
s 1
f 23/1/1 20/1/1 16/1/1
s 2
f 13/1/2 18/1/2 24/1/2
s 3
f 22/1/3 23/1/7 15/1/3
s 4
f 21/1/4 22/1/4 14/1/4
s 5
f 6/1/5 18/1/5 13/1/5
f 13/1/5 14/1/5 15/1/5
f 13/1/5 15/1/5 16/1/5
f 5/1/5 6/1/5 12/1/5
f 6/1/5 13/1/5 12/1/5
f 10/1/5 11/1/5 12/1/5
f 12/1/5 13/1/5 16/1/5
f 8/1/5 9/1/5 10/1/5
f 10/1/5 12/1/5 16/1/5
f 17/1/5 1/1/5 2/1/5
f 1/1/5 4/1/5 2/1/5
f 10/1/5 16/1/5 8/1/5
f 16/1/5 17/1/5 2/1/5
f 8/1/5 16/1/5 7/1/5
f 7/1/5 16/1/5 2/1/5
s 6
f 20/1/6 19/1/6 17/1/6
