# Blender 4.5.1 LTS
# www.blender.org
mtllib province_128.mtl
o province_128
v 2.135263 0.006502 2.784930
v 2.162385 0.006502 2.710701
v 2.210920 0.006502 2.687861
v 2.134863 0.006502 2.591249
v 2.036195 0.006502 2.591249
v 1.982750 0.006502 2.550137
v 1.960138 0.006502 2.437080
v 1.886137 0.006502 2.412413
v 1.789525 0.006502 2.437080
v 1.678523 0.006502 2.511081
v 1.674412 0.006502 2.613860
v 1.742246 0.006502 2.648805
v 1.705246 0.006502 2.696083
v 2.098766 0.006502 2.805326
v 1.714445 0.006502 2.739011
v 1.983223 0.006502 2.801203
v 1.781894 0.006502 2.770487
v 1.840435 0.006502 2.770487
v 1.873815 0.006502 2.716565
v 1.923870 0.006502 2.797606
v 2.022523 0.006502 2.788103
v 2.098766 -0.013498 2.805326
v 1.714445 -0.013498 2.739011
v 1.781894 -0.013498 2.770487
v 1.840435 -0.013498 2.770487
v 1.873815 -0.013498 2.716565
v 1.923870 -0.013498 2.797606
v 1.983223 -0.013498 2.801203
v 2.022523 -0.013498 2.788103
v 2.210920 -0.013498 2.687861
v 2.134863 -0.013498 2.591249
v 2.036195 -0.013498 2.591249
v 1.982750 -0.013498 2.550137
v 1.960138 -0.013498 2.437080
v 1.886137 -0.013498 2.412413
v 1.789525 -0.013498 2.437080
v 1.678523 -0.013498 2.511081
v 1.674412 -0.013498 2.613860
v 1.742246 -0.013498 2.648805
v 1.705246 -0.013498 2.696083
vn -0.2204 -0.0000 0.9754
vn 0.3162 -0.0000 0.9487
vn -0.0605 -0.0000 0.9982
vn -0.8508 -0.0000 0.5255
vn 0.8503 -0.0000 0.5264
vn -0.0000 -0.0000 1.0000
vn -0.4229 -0.0000 0.9062
vn -0.0000 1.0000 -0.0000
vn 0.7857 -0.0000 -0.6186
vn -0.0000 -0.0000 -1.0000
vn 0.6097 -0.0000 -0.7926
vn 0.9806 -0.0000 -0.1961
vn 0.3162 -0.0000 -0.9487
vn -0.2474 -0.0000 -0.9689
vn -0.5547 -0.0000 -0.8321
vn -0.9992 -0.0000 -0.0400
vn -0.4580 -0.0000 0.8890
vn -0.7875 -0.0000 -0.6163
vn -0.9778 -0.0000 0.2095
vn -0.2203 -0.0000 0.9754
vt 0.000000 0.000000
s 0
f 21/1/1 22/1/1 14/1/1
f 16/1/2 29/1/2 21/1/2
f 20/1/3 28/1/3 16/1/3
f 19/1/4 27/1/4 20/1/4
f 18/1/5 26/1/5 19/1/5
f 17/1/6 25/1/6 18/1/6
f 15/1/7 24/1/7 17/1/7
f 2/1/8 4/1/8 5/1/8
f 3/1/9 31/1/9 4/1/9
f 4/1/10 32/1/10 5/1/10
f 5/1/11 33/1/11 6/1/11
f 6/1/12 34/1/12 7/1/12
f 7/1/13 35/1/13 8/1/13
f 8/1/14 36/1/14 9/1/14
f 9/1/15 37/1/15 10/1/15
f 10/1/16 38/1/16 11/1/16
f 11/1/17 39/1/17 12/1/17
f 12/1/18 40/1/18 13/1/18
f 13/1/19 23/1/19 15/1/19
f 21/1/20 29/1/20 22/1/20
f 16/1/2 28/1/2 29/1/2
f 20/1/3 27/1/3 28/1/3
f 19/1/4 26/1/4 27/1/4
f 18/1/5 25/1/5 26/1/5
f 17/1/6 24/1/6 25/1/6
f 15/1/7 23/1/7 24/1/7
f 12/1/8 13/1/8 15/1/8
f 15/1/8 17/1/8 12/1/8
f 17/1/8 18/1/8 19/1/8
f 19/1/8 20/1/8 16/1/8
f 17/1/8 19/1/8 12/1/8
f 10/1/8 11/1/8 12/1/8
f 19/1/8 16/1/8 21/1/8
f 21/1/8 14/1/8 1/1/8
f 2/1/8 3/1/8 4/1/8
f 21/1/8 1/1/8 2/1/8
f 12/1/8 19/1/8 6/1/8
f 19/1/8 21/1/8 5/1/8
f 9/1/8 10/1/8 12/1/8
f 7/1/8 8/1/8 6/1/8
f 8/1/8 9/1/8 6/1/8
f 9/1/8 12/1/8 6/1/8
f 19/1/8 5/1/8 6/1/8
f 21/1/8 2/1/8 5/1/8
f 3/1/9 30/1/9 31/1/9
f 4/1/10 31/1/10 32/1/10
f 5/1/11 32/1/11 33/1/11
f 6/1/12 33/1/12 34/1/12
f 7/1/13 34/1/13 35/1/13
f 8/1/14 35/1/14 36/1/14
f 9/1/15 36/1/15 37/1/15
f 10/1/16 37/1/16 38/1/16
f 11/1/17 38/1/17 39/1/17
f 12/1/18 39/1/18 40/1/18
f 13/1/19 40/1/19 23/1/19
