# Blender 4.5.1 LTS
# www.blender.org
o province_023
v -18.834097 0.045516 -3.271579
v -19.223797 0.045516 -3.321541
v -19.773376 0.045516 -3.181648
v -19.913269 0.045516 -3.601326
v -19.703430 0.045516 -3.811166
v -19.873301 0.045516 -4.030998
v -18.834494 0.045516 -5.787205
v -18.944408 0.045516 -5.487434
v -19.334108 0.045516 -5.287587
v -19.404057 0.045516 -4.847924
v -19.723812 0.045516 -4.388276
v -16.554014 0.045516 -6.544958
v -16.810762 0.045516 -6.302089
v -17.178535 0.045516 -6.260454
v -17.476919 0.045516 -6.052279
v -17.865511 0.045516 -5.989828
v -18.247164 0.045516 -6.059219
v -18.559423 0.045516 -5.823288
v -16.397884 0.045516 -6.359914
v -16.235971 0.045516 -5.978262
v -15.877449 0.045516 -6.036088
v -15.495797 0.045516 -6.001393
v -15.212449 0.045516 -5.596610
v -14.819231 0.045516 -5.521436
v -16.710146 0.045516 -3.381870
v -17.589100 0.045516 -3.422349
v -18.687460 0.045516 -2.873562
v -18.524261 0.045516 -2.771600
v -14.776867 0.045516 -5.284195
v -15.539385 0.045516 -4.869389
v -15.980396 0.045516 -4.307552
v -15.987389 0.045516 -3.874182
v -18.524261 -0.094484 -2.771600
v -18.687460 -0.094484 -2.873562
v -14.776867 -0.094484 -5.284195
v -15.539385 -0.094484 -4.869389
v -15.980396 -0.094484 -4.307552
v -15.987389 -0.094484 -3.874182
vn 0.7866 -0.0000 0.6174
vn 0.7866 -0.0000 0.6175
vn -0.0000 1.0000 -0.0000
vn -0.5299 -0.0000 0.8481
vn 0.9999 -0.0000 0.0161
vn 0.4779 -0.0000 0.8784
vt 0.000000 0.000000
s 1
f 37/1/1 30/1/2 31/1/1
s 2
f 30/1/3 29/1/3 23/1/3
s 3
f 34/1/4 28/1/4 27/1/4
s 4
f 38/1/5 31/1/5 32/1/5
s 5
f 36/1/6 29/1/6 30/1/6
s 1
f 37/1/1 36/1/2 30/1/2
s 2
f 10/1/3 11/1/3 1/1/3
f 11/1/3 6/1/3 5/1/3
f 5/1/3 4/1/3 3/1/3
f 11/1/3 5/1/3 1/1/3
f 8/1/3 9/1/3 10/1/3
f 18/1/3 7/1/3 8/1/3
f 16/1/3 17/1/3 18/1/3
f 13/1/3 14/1/3 15/1/3
f 15/1/3 16/1/3 26/1/3
f 16/1/3 18/1/3 8/1/3
f 26/1/3 16/1/3 8/1/3
f 8/1/3 10/1/3 26/1/3
f 5/1/3 3/1/3 2/1/3
f 5/1/3 2/1/3 1/1/3
f 19/1/3 12/1/3 13/1/3
f 13/1/3 15/1/3 20/1/3
f 26/1/3 10/1/3 1/1/3
f 1/1/3 27/1/3 28/1/3
f 26/1/3 25/1/3 31/1/3
f 25/1/3 32/1/3 31/1/3
f 1/1/3 28/1/3 26/1/3
f 20/1/3 15/1/3 31/1/3
f 20/1/3 19/1/3 13/1/3
f 22/1/3 21/1/3 23/1/3
f 21/1/3 20/1/3 30/1/3
f 23/1/3 21/1/3 30/1/3
f 29/1/3 24/1/3 23/1/3
f 31/1/3 15/1/3 26/1/3
f 30/1/3 20/1/3 31/1/3
s 3
f 34/1/4 33/1/4 28/1/4
s 4
f 38/1/5 37/1/5 31/1/5
s 5
f 36/1/6 35/1/6 29/1/6
