# Blender 4.5.1 LTS
# www.blender.org
o province_112
v 1.699635 0.045516 21.183926
v 1.924104 0.045516 20.562321
v 2.303974 0.045516 20.458719
v 2.303974 0.045516 19.612644
v 2.718378 0.045516 19.198242
v 2.234906 0.045516 21.252993
v 2.752911 0.045516 21.719196
v 2.735644 0.045516 22.289000
v 3.840721 0.045516 22.962404
v 3.685319 0.045516 22.444401
v 4.099723 0.045516 22.012730
v 5.791872 0.045516 21.943661
v 5.809138 0.045516 21.494722
v 5.256600 0.045516 21.149385
v 4.721328 0.045516 21.166653
v 4.721328 0.045516 20.734982
v 5.239333 0.045516 20.320580
v 3.702586 0.045516 19.802574
v 1.699635 -0.094484 21.183926
v 2.718378 -0.094484 19.198242
v 2.234906 -0.094484 21.252993
v 2.752911 -0.094484 21.719196
v 2.735644 -0.094484 22.289000
v 3.840721 -0.094484 22.962404
v 5.239333 -0.094484 20.320580
v 3.702586 -0.094484 19.802574
vn 0.3194 -0.0000 -0.9476
vn -0.9995 -0.0000 -0.0303
vn -0.5204 -0.0000 0.8539
vn 0.5233 -0.0000 -0.8522
vn -0.1280 -0.0000 0.9918
vn -0.0000 1.0000 -0.0000
vn -0.6690 -0.0000 0.7433
vt 0.000000 0.000000
s 1
f 25/1/1 18/1/1 17/1/1
s 2
f 22/1/2 8/1/2 7/1/2
s 3
f 23/1/3 9/1/3 8/1/3
s 4
f 26/1/4 5/1/4 18/1/4
s 5
f 19/1/5 6/1/5 1/1/5
s 6
f 15/1/6 16/1/6 7/1/6
s 7
f 21/1/7 7/1/7 6/1/7
s 1
f 25/1/1 26/1/1 18/1/1
s 2
f 22/1/2 23/1/2 8/1/2
s 3
f 23/1/3 24/1/3 9/1/3
s 4
f 26/1/4 20/1/4 5/1/4
s 5
f 19/1/5 21/1/5 6/1/5
s 6
f 7/1/6 8/1/6 10/1/6
f 8/1/6 9/1/6 10/1/6
f 2/1/6 1/1/6 6/1/6
f 6/1/6 7/1/6 3/1/6
f 7/1/6 10/1/6 11/1/6
f 11/1/6 12/1/6 15/1/6
f 12/1/6 13/1/6 14/1/6
f 7/1/6 11/1/6 15/1/6
f 3/1/6 7/1/6 18/1/6
f 3/1/6 2/1/6 6/1/6
f 5/1/6 4/1/6 18/1/6
f 4/1/6 3/1/6 18/1/6
f 16/1/6 17/1/6 18/1/6
f 18/1/6 7/1/6 16/1/6
f 12/1/6 14/1/6 15/1/6
s 7
f 21/1/7 22/1/7 7/1/7
