# Blender 4.5.1 LTS
# www.blender.org
mtllib province_108.mtl
o province_108
v -0.108493 0.006502 2.253037
v -0.123909 0.006502 2.213639
v -0.115344 0.006502 2.163962
v -0.192428 0.006502 2.169101
v -0.255809 0.006502 2.215352
v -0.344884 0.006502 2.167388
v -0.362013 0.006502 2.129703
v -0.444236 0.006502 2.100582
v -0.454514 0.006502 2.021785
v -0.887898 0.006502 1.900164
v -0.797110 0.006502 1.905303
v -0.706322 0.006502 1.961831
v -0.610395 0.006502 1.970396
v -0.523033 0.006502 2.009794
v -0.978206 0.006502 2.066734
v -0.884471 0.006502 1.975466
v -0.904205 0.006502 2.135801
v -0.854871 0.006502 2.133334
v -0.793900 0.006502 2.244174
v -0.810295 0.006502 2.235860
v -0.777692 0.006502 2.315950
v -0.686167 0.006502 2.376223
v -0.512928 0.006502 2.294553
v -0.445583 0.006502 2.346932
v -0.305554 0.006502 2.300255
v -0.219370 0.006502 2.356814
v -0.810295 -0.013498 2.235860
v -0.793900 -0.013498 2.244174
v -0.777692 -0.013498 2.315950
v -0.686167 -0.013498 2.376223
v -0.512928 -0.013498 2.294553
v -0.445583 -0.013498 2.346932
v -0.305554 -0.013498 2.300255
v -0.108493 -0.013498 2.253037
v -0.219370 -0.013498 2.356814
vn -0.4523 -0.0000 0.8919
vn -0.0000 1.0000 -0.0000
vn -0.9754 -0.0000 0.2203
vn -0.5500 -0.0000 0.8352
vn 0.4264 -0.0000 0.9045
vn -0.6139 -0.0000 0.7894
vn 0.3162 -0.0000 0.9487
vn -0.5487 -0.0000 0.8360
vn 0.6833 -0.0000 0.7301
vt 0.000000 0.000000
s 0
f 20/1/1 28/1/1 19/1/1
f 8/1/2 9/1/2 14/1/2
f 19/1/3 29/1/3 21/1/3
f 21/1/4 30/1/4 22/1/4
f 22/1/5 31/1/5 23/1/5
f 23/1/6 32/1/6 24/1/6
f 24/1/7 33/1/7 25/1/7
f 25/1/8 35/1/8 26/1/8
f 26/1/9 34/1/9 1/1/9
f 20/1/1 27/1/1 28/1/1
f 26/1/2 1/1/2 5/1/2
f 1/1/2 2/1/2 5/1/2
f 2/1/2 3/1/2 4/1/2
f 2/1/2 4/1/2 5/1/2
f 25/1/2 26/1/2 5/1/2
f 23/1/2 24/1/2 6/1/2
f 24/1/2 25/1/2 6/1/2
f 21/1/2 22/1/2 19/1/2
f 22/1/2 23/1/2 19/1/2
f 18/1/2 20/1/2 19/1/2
f 25/1/2 5/1/2 6/1/2
f 18/1/2 19/1/2 12/1/2
f 19/1/2 23/1/2 14/1/2
f 15/1/2 17/1/2 16/1/2
f 17/1/2 18/1/2 16/1/2
f 11/1/2 10/1/2 16/1/2
f 19/1/2 14/1/2 13/1/2
f 6/1/2 7/1/2 8/1/2
f 23/1/2 6/1/2 8/1/2
f 11/1/2 16/1/2 12/1/2
f 16/1/2 18/1/2 12/1/2
f 13/1/2 12/1/2 19/1/2
f 23/1/2 8/1/2 14/1/2
f 19/1/3 28/1/3 29/1/3
f 21/1/4 29/1/4 30/1/4
f 22/1/5 30/1/5 31/1/5
f 23/1/6 31/1/6 32/1/6
f 24/1/7 32/1/7 33/1/7
f 25/1/8 33/1/8 35/1/8
f 26/1/9 35/1/9 34/1/9
