# Blender 4.5.1 LTS
# www.blender.org
o province_056
v -20.523199 0.045516 -6.986286
v -20.814642 0.045516 -6.694843
v -21.089432 0.045516 -6.828074
v -21.414181 0.045516 -6.803094
v -21.572393 0.045516 -6.494997
v -21.822203 0.045516 -6.261842
v -22.096992 0.045516 -6.103630
v -21.989738 0.045516 -4.379618
v -21.973085 0.045516 -4.795965
v -22.147951 0.045516 -5.129043
v -21.981413 0.045516 -5.378852
v -21.731604 0.045516 -5.553718
v -21.731604 0.045516 -5.803526
v -19.873301 0.045516 -4.030998
v -20.272995 0.045516 -4.310783
v -20.322956 0.045516 -4.640531
v -20.742632 0.045516 -4.770431
v -21.002434 0.045516 -4.430691
v -21.562006 0.045516 -4.360745
v -19.983612 0.045516 -6.546623
v -19.533957 0.045516 -6.586593
v -19.304132 0.045516 -6.476677
v -19.324118 0.045516 -6.186899
v -18.884455 0.045516 -5.987051
v -18.834492 0.045516 -5.787204
v -18.944407 0.045516 -5.487434
v -19.334108 0.045516 -5.287587
v -19.404057 0.045516 -4.847924
v -19.723812 0.045516 -4.388276
vn -0.0000 1.0000 -0.0000
vt 0.000000 0.000000
s 1
f 16/1/1 15/1/1 29/1/1
f 22/1/1 21/1/1 23/1/1
f 21/1/1 20/1/1 23/1/1
f 20/1/1 1/1/1 2/1/1
f 2/1/1 3/1/1 5/1/1
f 3/1/1 4/1/1 5/1/1
f 20/1/1 2/1/1 17/1/1
f 2/1/1 5/1/1 13/1/1
f 6/1/1 7/1/1 13/1/1
f 2/1/1 13/1/1 17/1/1
f 5/1/1 6/1/1 13/1/1
f 25/1/1 24/1/1 23/1/1
f 23/1/1 20/1/1 27/1/1
f 26/1/1 25/1/1 23/1/1
f 29/1/1 28/1/1 16/1/1
f 28/1/1 27/1/1 16/1/1
f 27/1/1 26/1/1 23/1/1
f 20/1/1 17/1/1 16/1/1
f 13/1/1 12/1/1 17/1/1
f 12/1/1 11/1/1 9/1/1
f 11/1/1 10/1/1 9/1/1
f 9/1/1 8/1/1 19/1/1
f 27/1/1 20/1/1 16/1/1
f 15/1/1 14/1/1 29/1/1
f 12/1/1 9/1/1 17/1/1
f 9/1/1 19/1/1 17/1/1
f 19/1/1 18/1/1 17/1/1
