# Blender 4.5.1 LTS
# www.blender.org
mtllib province_084.mtl
o province_084
v -0.065844 0.001999 -0.080111
v -0.067077 0.001999 -0.073122
v -0.062555 0.001999 -0.069422
v -0.057210 0.001999 -0.071272
v -0.051043 0.001999 -0.071478
v -0.045082 0.001999 -0.076206
v -0.041382 0.001999 -0.072506
v -0.044671 0.001999 -0.067983
v -0.041382 0.001999 -0.063667
v -0.033366 0.001999 -0.063256
v -0.059882 0.001999 -0.080111
v -0.049810 0.001999 -0.089156
v -0.033982 0.001999 -0.089978
v -0.026582 0.001999 -0.088128
v -0.021032 0.001999 -0.090389
v -0.029426 0.001999 -0.068052
v -0.023773 0.001999 -0.066168
v -0.017264 0.001999 -0.066853
v -0.013324 0.001999 -0.071992
v -0.020176 0.001999 -0.081071
v -0.065844 -0.000001 -0.080111
v -0.059882 -0.000001 -0.080111
v -0.049810 -0.000001 -0.089156
v -0.033982 -0.000001 -0.089978
v -0.026582 -0.000001 -0.088128
v -0.021032 -0.000001 -0.090389
vn -0.0000 1.0000 -0.0000
vn -0.0000 -0.0000 -1.0000
vn -0.6681 -0.0000 -0.7440
vn -0.0519 -0.0000 -0.9987
vn 0.2425 -0.0000 -0.9701
vn -0.3773 -0.0000 -0.9261
vt 0.000000 0.000000
s 0
f 11/1/1 1/1/1 2/1/1 3/1/1 4/1/1 5/1/1 6/1/1 7/1/1 8/1/1 9/1/1 10/1/1 16/1/1 17/1/1 18/1/1 19/1/1 20/1/1 15/1/1 14/1/1 13/1/1 12/1/1
f 1/1/2 11/1/2 22/1/2 21/1/2
f 11/1/3 12/1/3 23/1/3 22/1/3
f 12/1/4 13/1/4 24/1/4 23/1/4
f 13/1/5 14/1/5 25/1/5 24/1/5
f 14/1/6 15/1/6 26/1/6 25/1/6
