# Blender 4.5.1 LTS
# www.blender.org
o province_003
v 5.851983 0.045516 -1.413018
v 5.720139 0.045516 -1.940393
v 6.261392 0.045516 -2.217959
v 6.337723 0.045516 -2.689821
v 7.708821 0.045516 -1.249146
v 7.219594 0.045516 -1.134034
v 6.831091 0.045516 -1.306702
v 6.197975 0.045516 -1.162812
v 7.996602 0.045516 -1.623260
v 8.442659 0.045516 -1.867873
v 8.802386 0.045516 -2.429045
v 8.831163 0.045516 -2.947050
v 5.743919 0.045516 -3.089729
v 8.429559 0.045516 -3.403965
v 7.700485 0.045516 -3.372784
v 7.107203 0.045516 -2.912479
v 6.469384 0.045516 -2.901668
v 6.028623 0.045516 -3.122049
v 5.743919 -0.094484 -3.089729
v 8.429559 -0.094484 -3.403965
v 7.700485 -0.094484 -3.372784
v 7.107203 -0.094484 -2.912479
v 6.469384 -0.094484 -2.901668
v 6.028623 -0.094484 -3.122049
vn -0.1128 -0.0000 -0.9936
vn -0.6130 -0.0000 -0.7901
vn -0.0169 -0.0000 -0.9999
vn -0.0427 -0.0000 -0.9991
vn -0.0000 1.0000 -0.0000
vn 0.4472 -0.0000 -0.8944
vt 0.000000 0.000000
s 1
f 24/1/1 13/1/1 18/1/1
s 2
f 21/1/2 16/1/2 15/1/2
s 3
f 22/1/3 17/1/3 16/1/3
s 4
f 20/1/4 15/1/4 14/1/4
s 5
f 3/1/5 8/1/5 7/1/5
s 6
f 23/1/6 18/1/6 17/1/6
s 1
f 24/1/1 19/1/1 13/1/1
s 2
f 21/1/2 22/1/2 16/1/2
s 3
f 22/1/3 23/1/3 17/1/3
s 4
f 20/1/4 21/1/4 15/1/4
s 5
f 17/1/5 18/1/5 4/1/5
f 18/1/5 13/1/5 4/1/5
f 14/1/5 15/1/5 11/1/5
f 15/1/5 16/1/5 10/1/5
f 14/1/5 11/1/5 12/1/5
f 16/1/5 17/1/5 4/1/5
f 3/1/5 2/1/5 1/1/5
f 16/1/5 4/1/5 3/1/5
f 10/1/5 11/1/5 15/1/5
f 6/1/5 5/1/5 9/1/5
f 9/1/5 10/1/5 16/1/5
f 16/1/5 3/1/5 7/1/5
f 9/1/5 16/1/5 7/1/5
f 3/1/5 1/1/5 8/1/5
f 7/1/5 6/1/5 9/1/5
s 6
f 23/1/6 24/1/6 18/1/6
