# Blender 4.5.1 LTS
# www.blender.org
mtllib province_023.mtl
o province_023
v -0.235216 0.001999 0.039573
v -0.240784 0.001999 0.038859
v -0.248635 0.001999 0.040858
v -0.250633 0.001999 0.034862
v -0.247635 0.001999 0.031865
v -0.250062 0.001999 0.028724
v -0.235222 0.001999 0.003635
v -0.236792 0.001999 0.007918
v -0.242359 0.001999 0.010773
v -0.243359 0.001999 0.017054
v -0.247927 0.001999 0.023620
v -0.202644 0.001999 -0.007190
v -0.206312 0.001999 -0.003720
v -0.211566 0.001999 -0.003125
v -0.215828 0.001999 -0.000151
v -0.221379 0.001999 0.000741
v -0.226832 0.001999 -0.000251
v -0.231293 0.001999 0.003120
v -0.200413 0.001999 -0.004546
v -0.198100 0.001999 0.000906
v -0.192979 0.001999 0.000080
v -0.187526 0.001999 0.000576
v -0.183479 0.001999 0.006358
v -0.177861 0.001999 0.007432
v -0.204874 0.001999 0.037997
v -0.217431 0.001999 0.037419
v -0.233122 0.001999 0.045259
v -0.230790 0.001999 0.046715
v -0.177256 0.001999 0.010821
v -0.188149 0.001999 0.016747
v -0.194449 0.001999 0.024773
v -0.194549 0.001999 0.030964
v -0.230790 -0.000001 0.046715
v -0.233122 -0.000001 0.045259
v -0.177256 -0.000001 0.010821
v -0.188149 -0.000001 0.016747
v -0.194449 -0.000001 0.024773
v -0.194549 -0.000001 0.030964
vn -0.5299 -0.0000 0.8481
vn -0.0000 1.0000 -0.0000
vn 0.4779 -0.0000 0.8784
vn 0.7866 -0.0000 0.6174
vn 0.9999 -0.0000 0.0161
vt 0.000000 0.000000
s 0
f 28/1/1 27/1/1 34/1/1 33/1/1
f 19/1/2 12/1/2 13/1/2 14/1/2 15/1/2 16/1/2 17/1/2 18/1/2 7/1/2 8/1/2 9/1/2 10/1/2 11/1/2 6/1/2 5/1/2 4/1/2 3/1/2 2/1/2 1/1/2 27/1/2 28/1/2 26/1/2 25/1/2 32/1/2 31/1/2 30/1/2 29/1/2 24/1/2 23/1/2 22/1/2 21/1/2 20/1/2
f 29/1/3 30/1/3 36/1/3 35/1/3
f 30/1/4 31/1/4 37/1/4 36/1/4
f 31/1/5 32/1/5 38/1/5 37/1/5
