# Blender 4.5.1 LTS
# www.blender.org
mtllib province_081.mtl
o province_081
v -0.069168 0.001999 0.073490
v -0.066789 0.001999 0.077058
v -0.076672 0.001999 0.068669
v -0.071271 0.001999 0.059557
v -0.066513 0.001999 0.065981
v -0.055450 0.001999 0.063364
v -0.048075 0.001999 0.058130
v -0.042936 0.001999 0.063412
v -0.036369 0.001999 0.065410
v -0.032087 0.001999 0.070977
v -0.024664 0.001999 0.070549
v -0.018526 0.001999 0.065838
v -0.024521 0.001999 0.098956
v -0.031373 0.001999 0.094816
v -0.031516 0.001999 0.089820
v -0.038653 0.001999 0.085109
v -0.041651 0.001999 0.081398
v -0.045648 0.001999 0.081969
v -0.048503 0.001999 0.087679
v -0.051929 0.001999 0.087536
v -0.053642 0.001999 0.083539
v -0.062920 0.001999 0.083254
v -0.013503 0.001999 0.065724
v -0.012258 0.001999 0.073732
v -0.015722 0.001999 0.078494
v -0.013592 0.001999 0.084428
v -0.013999 0.001999 0.091755
v -0.016443 0.001999 0.099950
v -0.013503 -0.000001 0.065724
v -0.012258 -0.000001 0.073732
v -0.015722 -0.000001 0.078494
v -0.013592 -0.000001 0.084428
v -0.013999 -0.000001 0.091755
v -0.016443 -0.000001 0.099950
vn 0.9583 -0.0000 0.2858
vn 0.9985 -0.0000 0.0555
vn 0.9412 -0.0000 -0.3379
vn 0.8087 -0.0000 0.5882
vn 0.9881 -0.0000 -0.1536
vn -0.0000 1.0000 -0.0000
vt 0.000000 0.000000
s 0
f 27/1/1 28/1/1 34/1/1 33/1/1
f 26/1/2 27/1/2 33/1/2 32/1/2
f 25/1/3 26/1/3 32/1/3 31/1/3
f 24/1/4 25/1/4 31/1/4 30/1/4
f 23/1/5 24/1/5 30/1/5 29/1/5
f 23/1/6 12/1/6 11/1/6 10/1/6 9/1/6 8/1/6 7/1/6 6/1/6 5/1/6 4/1/6 3/1/6 1/1/6 2/1/6 22/1/6 21/1/6 20/1/6 19/1/6 18/1/6 17/1/6 16/1/6 15/1/6 14/1/6 13/1/6 28/1/6 27/1/6 26/1/6 25/1/6 24/1/6
