# Blender 4.5.1 LTS
# www.blender.org
mtllib province_139.mtl
o province_139
v 3.002233 0.006502 -0.885337
v 3.073607 0.006502 -0.911507
v 3.118811 0.006502 -0.970985
v 3.020077 0.006502 -0.808015
v 3.003423 0.006502 -0.785413
v 2.926101 0.006502 -0.778275
v 2.921343 0.006502 -0.755674
v 2.943945 0.006502 -0.733072
v 2.949893 0.006502 -0.714039
v 3.016984 0.006502 -0.708329
v 3.121190 0.006502 -0.722603
v 3.175435 0.006502 -0.711184
v 3.223969 0.006502 -0.646947
v 3.303890 0.006502 -0.691347
v 3.133086 0.006502 -0.943863
v 3.194468 0.006502 -0.931016
v 3.250139 0.006502 -0.941008
v 3.305811 0.006502 -0.892474
v 3.294391 0.006502 -0.846794
v 3.268697 0.006502 -0.831092
v 3.267269 0.006502 -0.788268
v 3.315804 0.006502 -0.744016
vn -0.0000 1.0000 -0.0000
vt 0.000000 0.000000
s 0
f 11/1/1 12/1/1 21/1/1
f 2/1/1 1/1/1 4/1/1
f 5/1/1 6/1/1 8/1/1
f 6/1/1 7/1/1 8/1/1
f 3/1/1 2/1/1 15/1/1
f 2/1/1 4/1/1 11/1/1
f 15/1/1 2/1/1 16/1/1
f 5/1/1 8/1/1 10/1/1
f 8/1/1 9/1/1 10/1/1
f 2/1/1 11/1/1 16/1/1
f 4/1/1 5/1/1 11/1/1
f 18/1/1 17/1/1 20/1/1
f 17/1/1 16/1/1 20/1/1
f 5/1/1 10/1/1 11/1/1
f 20/1/1 16/1/1 11/1/1
f 20/1/1 19/1/1 18/1/1
f 14/1/1 22/1/1 21/1/1
f 13/1/1 14/1/1 12/1/1
f 14/1/1 21/1/1 12/1/1
f 21/1/1 20/1/1 11/1/1
