# Blender 4.5.1 LTS
# www.blender.org
mtllib province_138.mtl
o province_138
v 2.949893 0.006502 -0.714039
v 2.928480 0.006502 -0.680731
v 2.859485 0.006502 -0.635527
v 2.778461 0.006502 -0.472973
v 2.824854 0.006502 -0.516987
v 2.870058 0.006502 -0.526504
v 2.891470 0.006502 -0.559812
v 2.868868 0.006502 -0.589551
v 2.814148 0.006502 -0.453940
v 2.823664 0.006502 -0.417063
v 2.849835 0.006502 -0.362343
v 2.923588 0.006502 -0.332604
v 3.016984 0.006502 -0.708329
v 3.121190 0.006502 -0.722603
v 3.175435 0.006502 -0.711184
v 3.223969 0.006502 -0.646947
v 3.193992 0.006502 -0.561298
v 3.203984 0.006502 -0.479931
v 3.281068 0.006502 -0.455664
v 3.281068 0.006502 -0.427115
v 3.215404 0.006502 -0.422832
v 3.126900 0.006502 -0.431968
v 3.071228 0.006502 -0.475649
v 3.024121 0.006502 -0.459947
v 2.994144 0.006502 -0.412840
v 2.945610 0.006502 -0.391427
vn -0.0000 1.0000 -0.0000
vt 0.000000 0.000000
s 0
f 23/1/1 18/1/1 17/1/1
f 10/1/1 11/1/1 26/1/1
f 11/1/1 12/1/1 26/1/1
f 26/1/1 25/1/1 6/1/1
f 25/1/1 24/1/1 6/1/1
f 5/1/1 4/1/1 9/1/1
f 9/1/1 10/1/1 6/1/1
f 10/1/1 26/1/1 6/1/1
f 6/1/1 5/1/1 9/1/1
f 3/1/1 8/1/1 2/1/1
f 8/1/1 7/1/1 2/1/1
f 7/1/1 6/1/1 24/1/1
f 23/1/1 22/1/1 18/1/1
f 22/1/1 21/1/1 18/1/1
f 7/1/1 24/1/1 23/1/1
f 1/1/1 2/1/1 13/1/1
f 2/1/1 7/1/1 13/1/1
f 15/1/1 14/1/1 17/1/1
f 14/1/1 13/1/1 17/1/1
f 7/1/1 23/1/1 13/1/1
f 13/1/1 23/1/1 17/1/1
f 21/1/1 20/1/1 19/1/1
f 21/1/1 19/1/1 18/1/1
f 16/1/1 15/1/1 17/1/1
