# Blender 4.5.1 LTS
# www.blender.org
o province_128
v 14.946840 0.045516 19.494513
v 15.136695 0.045516 18.974907
v 15.476438 0.045516 18.815027
v 14.944042 0.045516 18.138741
v 14.253366 0.045516 18.138741
v 13.879249 0.045516 17.850958
v 13.720968 0.045516 17.059557
v 13.202962 0.045516 16.886889
v 12.526674 0.045516 17.059557
v 11.749663 0.045516 17.577564
v 11.720885 0.045516 18.297020
v 12.195724 0.045516 18.541634
v 11.936722 0.045516 18.872583
v 14.691360 0.045516 19.637281
v 12.001112 0.045516 19.173077
v 13.882559 0.045516 19.608419
v 12.473256 0.045516 19.393410
v 12.883045 0.045516 19.393410
v 13.116706 0.045516 19.015957
v 13.467089 0.045516 19.583241
v 14.157663 0.045516 19.516718
v 14.691360 -0.094484 19.637281
v 12.001112 -0.094484 19.173077
v 12.473256 -0.094484 19.393410
v 12.883045 -0.094484 19.393410
v 13.116706 -0.094484 19.015957
v 13.467089 -0.094484 19.583241
v 13.882559 -0.094484 19.608419
v 14.157663 -0.094484 19.516718
v 15.476438 -0.094484 18.815027
v 14.944042 -0.094484 18.138741
v 14.253366 -0.094484 18.138741
v 13.879249 -0.094484 17.850958
v 13.720968 -0.094484 17.059557
v 13.202962 -0.094484 16.886889
v 12.526674 -0.094484 17.059557
v 11.749663 -0.094484 17.577564
v 11.720885 -0.094484 18.297020
v 12.195724 -0.094484 18.541634
v 11.936722 -0.094484 18.872583
vn -0.2474 -0.0000 -0.9689
vn -0.2204 -0.0000 0.9754
vn -0.2203 -0.0000 0.9754
vn -0.5547 -0.0000 -0.8321
vn -0.0000 1.0000 -0.0000
vn 0.3162 -0.0000 -0.9487
vn -0.9992 -0.0000 -0.0400
vn -0.0605 -0.0000 0.9982
vn -0.4580 -0.0000 0.8890
vn 0.3162 -0.0000 0.9487
vn 0.9806 -0.0000 -0.1961
vn -0.7875 -0.0000 -0.6163
vn -0.8508 -0.0000 0.5255
vn -0.0000 -0.0000 -1.0000
vn -0.0000 -0.0000 1.0000
vn 0.8503 -0.0000 0.5264
vn 0.7857 -0.0000 -0.6186
vn -0.4229 -0.0000 0.9062
vn -0.9778 -0.0000 0.2095
vn 0.6097 -0.0000 -0.7926
vn -0.5547 -0.0000 -0.8320
vt 0.000000 0.000000
s 1
f 35/1/1 9/1/1 8/1/1
s 2
f 29/1/2 14/1/3 21/1/2
s 3
f 36/1/4 10/1/4 9/1/4
s 4
f 5/1/5 6/1/5 19/1/5
s 5
f 34/1/6 8/1/6 7/1/6
s 6
f 37/1/7 11/1/7 10/1/7
s 7
f 27/1/8 16/1/8 20/1/8
s 8
f 38/1/9 12/1/9 11/1/9
s 9
f 28/1/10 21/1/10 16/1/10
s 10
f 33/1/11 7/1/11 6/1/11
s 11
f 39/1/12 13/1/12 12/1/12
s 12
f 26/1/13 20/1/13 19/1/13
s 13
f 31/1/14 5/1/14 4/1/14
s 14
f 24/1/15 18/1/15 17/1/15
s 15
f 25/1/16 19/1/16 18/1/16
s 16
f 30/1/17 4/1/17 3/1/17
s 17
f 23/1/18 17/1/18 15/1/18
s 18
f 40/1/19 15/1/19 13/1/19
s 19
f 32/1/20 6/1/20 5/1/20
s 1
f 35/1/1 36/1/1 9/1/1
s 2
f 29/1/2 22/1/3 14/1/3
s 3
f 36/1/4 37/1/21 10/1/4
s 4
f 20/1/5 16/1/5 19/1/5
f 16/1/5 21/1/5 19/1/5
f 21/1/5 14/1/5 1/1/5
f 2/1/5 3/1/5 4/1/5
f 21/1/5 1/1/5 2/1/5
f 17/1/5 18/1/5 19/1/5
f 13/1/5 15/1/5 12/1/5
f 15/1/5 17/1/5 12/1/5
f 10/1/5 11/1/5 12/1/5
f 19/1/5 21/1/5 5/1/5
f 21/1/5 2/1/5 5/1/5
f 12/1/5 17/1/5 19/1/5
f 9/1/5 10/1/5 12/1/5
f 7/1/5 8/1/5 6/1/5
f 8/1/5 9/1/5 6/1/5
f 9/1/5 12/1/5 6/1/5
f 12/1/5 19/1/5 6/1/5
f 2/1/5 4/1/5 5/1/5
s 5
f 34/1/6 35/1/6 8/1/6
s 6
f 37/1/7 38/1/7 11/1/7
s 7
f 27/1/8 28/1/8 16/1/8
s 8
f 38/1/9 39/1/9 12/1/9
s 9
f 28/1/10 29/1/10 21/1/10
s 10
f 33/1/11 34/1/11 7/1/11
s 11
f 39/1/12 40/1/12 13/1/12
s 12
f 26/1/13 27/1/13 20/1/13
s 13
f 31/1/14 32/1/14 5/1/14
s 14
f 24/1/15 25/1/15 18/1/15
s 15
f 25/1/16 26/1/16 19/1/16
s 16
f 30/1/17 31/1/17 4/1/17
s 17
f 23/1/18 24/1/18 17/1/18
s 18
f 40/1/19 23/1/19 15/1/19
s 19
f 32/1/20 33/1/20 6/1/20
