# Blender 4.5.1 LTS
# www.blender.org
mtllib province_174.mtl
o province_174
v -4.429156 0.006502 -1.304117
v -4.036214 0.006502 -1.119362
v -4.069103 0.006502 -1.166640
v -4.136937 0.006502 -1.152251
v -4.163659 0.006502 -1.125529
v -4.233548 0.006502 -1.125529
v -4.284937 0.006502 -1.109084
v -4.307549 0.006502 -1.131696
v -4.354827 0.006502 -1.144029
v -4.371272 0.006502 -1.176918
v -4.418550 0.006502 -1.213918
v -4.430883 0.006502 -1.252974
v -4.157327 0.006502 -1.493709
v -4.061401 0.006502 -1.486857
v -4.020289 0.006502 -1.440606
v -4.018576 0.006502 -1.365236
v -3.967187 0.006502 -1.337828
v -3.919224 0.006502 -1.324124
v -3.934640 0.006502 -1.233337
v -3.970613 0.006502 -1.207642
v -3.950057 0.006502 -1.144262
v -4.404337 0.006502 -1.337587
v -4.421590 0.006502 -1.348868
v -4.352244 0.006502 -1.314796
v -4.262800 0.006502 -1.353129
v -4.229929 0.006502 -1.382712
v -4.207064 0.006502 -1.431711
v -4.207064 0.006502 -1.484038
v -4.421590 -0.013498 -1.348868
v -4.404337 -0.013498 -1.337587
v -4.352244 -0.013498 -1.314796
v -4.262800 -0.013498 -1.353129
v -4.229929 -0.013498 -1.382712
v -4.207064 -0.013498 -1.431711
v -4.157327 -0.013498 -1.493709
v -4.061401 -0.013498 -1.486857
v -4.020289 -0.013498 -1.440606
v -4.018576 -0.013498 -1.365236
v -3.967187 -0.013498 -1.337828
v -3.919224 -0.013498 -1.324124
v -4.207064 -0.013498 -1.484038
vn -1.0000 -0.0000 -0.0000
vn -0.9062 -0.0000 -0.4229
vn -0.6690 -0.0000 -0.7433
vn -0.3939 -0.0000 -0.9191
vn 0.4008 -0.0000 -0.9162
vn -0.0000 1.0000 -0.0000
vn 0.5473 -0.0000 -0.8370
vn -0.1909 -0.0000 -0.9816
vn 0.0712 -0.0000 -0.9975
vn 0.7474 -0.0000 -0.6644
vn 0.9997 -0.0000 -0.0227
vn 0.4706 -0.0000 -0.8824
vn 0.2747 -0.0000 -0.9615
vn 0.5473 -0.0000 -0.8369
vt 0.000000 0.000000
s 0
f 28/1/1 34/1/1 27/1/1
f 27/1/2 33/1/2 26/1/2
f 26/1/3 32/1/3 25/1/3
f 25/1/4 31/1/4 24/1/4
f 24/1/5 30/1/5 22/1/5
f 27/1/6 26/1/6 16/1/6
f 22/1/7 29/1/7 23/1/7
f 13/1/8 41/1/8 28/1/8
f 14/1/9 35/1/9 13/1/9
f 15/1/10 36/1/10 14/1/10
f 16/1/11 37/1/11 15/1/11
f 17/1/12 38/1/12 16/1/12
f 18/1/13 39/1/13 17/1/13
f 28/1/1 41/1/1 34/1/1
f 27/1/2 34/1/2 33/1/2
f 26/1/3 33/1/3 32/1/3
f 25/1/4 32/1/4 31/1/4
f 24/1/5 31/1/5 30/1/5
f 23/1/6 1/1/6 22/1/6
f 1/1/6 12/1/6 24/1/6
f 22/1/6 1/1/6 24/1/6
f 12/1/6 11/1/6 24/1/6
f 11/1/6 10/1/6 24/1/6
f 10/1/6 9/1/6 8/1/6
f 8/1/6 7/1/6 6/1/6
f 6/1/6 5/1/6 4/1/6
f 3/1/6 2/1/6 20/1/6
f 2/1/6 21/1/6 20/1/6
f 8/1/6 6/1/6 25/1/6
f 6/1/6 4/1/6 25/1/6
f 4/1/6 3/1/6 16/1/6
f 25/1/6 4/1/6 26/1/6
f 10/1/6 8/1/6 24/1/6
f 3/1/6 20/1/6 16/1/6
f 20/1/6 19/1/6 17/1/6
f 16/1/6 20/1/6 17/1/6
f 19/1/6 18/1/6 17/1/6
f 16/1/6 15/1/6 14/1/6
f 8/1/6 25/1/6 24/1/6
f 26/1/6 4/1/6 16/1/6
f 16/1/6 14/1/6 27/1/6
f 14/1/6 13/1/6 27/1/6
f 13/1/6 28/1/6 27/1/6
f 22/1/14 30/1/14 29/1/14
f 13/1/8 35/1/8 41/1/8
f 14/1/9 36/1/9 35/1/9
f 15/1/10 37/1/10 36/1/10
f 16/1/11 38/1/11 37/1/11
f 17/1/12 39/1/12 38/1/12
f 18/1/13 40/1/13 39/1/13
