# Blender 4.5.1 LTS
# www.blender.org
o province_176
v 7.607575 0.045516 -5.453635
v 7.467683 0.045516 -4.494367
v 7.547621 0.045516 -4.094672
v 8.067225 0.045516 -4.054703
v 8.566843 0.045516 -4.274535
v 8.816652 0.045516 -4.084680
v 11.186563 0.045516 -5.188939
v 10.816845 0.045516 -5.238901
v 10.577028 0.045516 -5.608618
v 10.227295 0.045516 -5.358809
v 10.147356 0.045516 -4.999084
v 9.747662 0.045516 -4.779252
v 9.667722 0.045516 -4.349580
v 9.218065 0.045516 -4.269640
v 11.146593 0.045516 -5.688557
v 11.466348 0.045516 -6.218153
v 11.096630 0.045516 -6.737756
v 10.756889 0.045516 -6.777726
v 10.806850 0.045516 -6.298092
v 10.277255 0.045516 -6.358046
v 9.697697 0.045516 -6.278107
v 9.347964 0.045516 -6.627840
v 8.828362 0.045516 -6.418001
v 8.588545 0.045516 -6.138214
v 8.198842 0.045516 -6.098245
vn -0.0000 1.0000 -0.0000
vt 0.000000 0.000000
s 1
f 9/1/1 15/1/1 19/1/1
f 25/1/1 1/1/1 24/1/1
f 1/1/1 2/1/1 5/1/1
f 2/1/1 3/1/1 4/1/1
f 5/1/1 6/1/1 14/1/1
f 2/1/1 4/1/1 5/1/1
f 1/1/1 5/1/1 24/1/1
f 22/1/1 23/1/1 21/1/1
f 23/1/1 24/1/1 21/1/1
f 19/1/1 20/1/1 9/1/1
f 20/1/1 21/1/1 10/1/1
f 9/1/1 20/1/1 10/1/1
f 5/1/1 14/1/1 12/1/1
f 14/1/1 13/1/1 12/1/1
f 12/1/1 11/1/1 10/1/1
f 21/1/1 24/1/1 12/1/1
f 24/1/1 5/1/1 12/1/1
f 17/1/1 18/1/1 19/1/1
f 12/1/1 10/1/1 21/1/1
f 9/1/1 8/1/1 15/1/1
f 8/1/1 7/1/1 15/1/1
f 16/1/1 17/1/1 19/1/1
f 15/1/1 16/1/1 19/1/1
