# Blender 4.5.1 LTS
# www.blender.org
mtllib province_052.mtl
o province_052
v -0.293204 0.001999 0.112132
v -0.288908 0.001999 0.118327
v -0.281060 0.001999 0.115023
v -0.276765 0.001999 0.115767
v -0.266273 0.001999 0.123862
v -0.256360 0.001999 0.123284
v -0.251239 0.001999 0.127001
v -0.245621 0.001999 0.123449
v -0.243226 0.001999 0.121053
v -0.246282 0.001999 0.116840
v -0.241491 0.001999 0.107919
v -0.236534 0.001999 0.102549
v -0.239343 0.001999 0.098997
v -0.241656 0.001999 0.093049
v -0.283797 0.001999 0.093039
v -0.277997 0.001999 0.092027
v -0.269442 0.001999 0.088994
v -0.265879 0.001999 0.089730
v -0.294706 0.001999 0.112177
v -0.295257 0.001999 0.110079
v -0.287431 0.001999 0.107985
v -0.283493 0.001999 0.099847
v -0.255568 0.001999 0.089591
v -0.250122 0.001999 0.093373
v -0.243204 0.001999 0.090073
v -0.272320 0.001999 0.084914
v -0.274842 0.001999 0.085816
v -0.283797 -0.000001 0.093039
v -0.277997 -0.000001 0.092027
v -0.269442 -0.000001 0.088994
v -0.265879 -0.000001 0.089730
v -0.294706 -0.000001 0.112177
v -0.295257 -0.000001 0.110079
v -0.287431 -0.000001 0.107985
v -0.283493 -0.000001 0.099847
v -0.255568 -0.000001 0.089591
v -0.250122 -0.000001 0.093373
v -0.243204 -0.000001 0.090073
v -0.272320 -0.000001 0.084914
v -0.274842 -0.000001 0.085816
v -0.251239 0.001999 0.127001
v -0.293204 0.001999 0.112132
v -0.288908 0.001999 0.118327
v -0.281060 0.001999 0.115023
v -0.276765 0.001999 0.115767
v -0.266273 0.001999 0.123862
v -0.256360 0.001999 0.123284
v -0.294706 0.001999 0.112177
v -0.288908 0.001999 0.118327
vn -0.8915 -0.0000 -0.4529
vn -0.3368 -0.0000 -0.9416
vn 0.8171 -0.0000 -0.5765
vn -0.4305 -0.0000 -0.9026
vn 0.5704 -0.0000 -0.8214
vn -0.0135 -0.0000 -0.9999
vn -0.9990 -0.0000 0.0446
vn -0.9002 -0.0000 -0.4356
vn -0.2585 -0.0000 -0.9660
vn -0.9672 -0.0000 0.2541
vn 0.2024 -0.0000 -0.9793
vn -0.1720 -0.0000 -0.9851
vn -0.0000 1.0000 -0.0000
vt 0.000000 0.000000
s 0
f 16/1/1 27/1/1 40/1/1 29/1/1
f 27/1/2 26/1/2 39/1/2 40/1/2
f 26/1/3 17/1/3 30/1/3 39/1/3
f 24/1/4 25/1/4 38/1/4 37/1/4
f 23/1/5 24/1/5 37/1/5 36/1/5
f 18/1/6 23/1/6 36/1/6 31/1/6
f 22/1/7 15/1/7 28/1/7 35/1/7
f 21/1/8 22/1/8 35/1/8 34/1/8
f 20/1/9 21/1/9 34/1/9 33/1/9
f 19/1/10 20/1/10 33/1/10 32/1/10
f 17/1/11 18/1/11 31/1/11 30/1/11
f 15/1/12 16/1/12 29/1/12 28/1/12
f 16/1/13 15/1/13 22/1/13 21/1/13 20/1/13 19/1/13 1/1/13 2/1/13 3/1/13 4/1/13 5/1/13 6/1/13 7/1/13 8/1/13 9/1/13 10/1/13 11/1/13 12/1/13 13/1/13 14/1/13 25/1/13 24/1/13 23/1/13 18/1/13 17/1/13 26/1/13 27/1/13
f 2/1/13 1/1/13 42/1/13 43/1/13
f 3/1/13 2/1/13 43/1/13 44/1/13
f 4/1/13 3/1/13 44/1/13 45/1/13
f 5/1/13 4/1/13 45/1/13 46/1/13
f 6/1/13 5/1/13 46/1/13 47/1/13
f 7/1/13 6/1/13 47/1/13 41/1/13
f 1/1/13 19/1/13 48/1/13 42/1/13
