# Blender 4.5.1 LTS
# www.blender.org
o province_134
v 17.846876 0.045516 -3.268098
v 18.416679 0.045516 -2.594692
v 17.979416 0.045516 -5.375449
v 17.677246 0.045516 -4.857444
v 18.008192 0.045516 -4.339440
v 18.454250 0.045516 -3.878991
v 18.352011 0.045516 -3.573545
v 18.497421 0.045516 -5.447394
v 20.016396 0.045516 -4.448689
v 19.533430 0.045516 -4.465343
v 19.167042 0.045516 -4.590248
v 18.858944 0.045516 -4.615229
v 18.692404 0.045516 -4.939981
v 18.800653 0.045516 -5.256407
v 17.823677 0.045516 -2.981357
v 18.558239 0.045516 -2.736250
v 18.774740 0.045516 -3.044349
v 19.157782 0.045516 -3.085984
v 19.449226 0.045516 -3.310812
v 19.773979 0.045516 -3.618911
v 20.090403 0.045516 -3.685527
v 20.240290 0.045516 -3.918682
v 20.082079 0.045516 -4.126856
vn -0.0000 1.0000 -0.0000
vt 0.000000 0.000000
s 1
f 20/1/1 23/1/1 10/1/1
f 13/1/1 14/1/1 8/1/1
f 8/1/1 3/1/1 13/1/1
f 3/1/1 4/1/1 13/1/1
f 4/1/1 5/1/1 13/1/1
f 5/1/1 6/1/1 12/1/1
f 13/1/1 5/1/1 12/1/1
f 7/1/1 1/1/1 16/1/1
f 1/1/1 15/1/1 16/1/1
f 15/1/1 2/1/1 16/1/1
f 6/1/1 7/1/1 17/1/1
f 17/1/1 7/1/1 16/1/1
f 17/1/1 18/1/1 6/1/1
f 18/1/1 19/1/1 6/1/1
f 20/1/1 21/1/1 23/1/1
f 21/1/1 22/1/1 23/1/1
f 19/1/1 20/1/1 10/1/1
f 6/1/1 19/1/1 11/1/1
f 10/1/1 11/1/1 19/1/1
f 11/1/1 12/1/1 6/1/1
f 23/1/1 9/1/1 10/1/1
