# Blender 4.5.1 LTS
# www.blender.org
o province_011
v 9.780840 0.045516 0.391202
v 9.349169 0.045516 0.304868
v 9.104556 0.045516 -0.098025
v 8.097324 0.045516 -0.083636
v 7.780766 0.045516 -0.385805
v 7.867100 0.045516 -0.903809
v 7.708821 0.045516 -1.249146
v 7.996601 0.045516 -1.623260
v 8.442659 0.045516 -1.867873
v 8.802385 0.045516 -2.429045
v 9.147721 0.045516 -2.112487
v 9.838394 0.045516 -2.256377
v 10.557845 0.045516 -1.939819
v 10.658568 0.045516 -1.493760
v 10.903181 0.045516 -1.277924
v 10.802459 0.045516 -0.846254
v 10.212508 0.045516 -0.659196
v 10.169342 0.045516 -0.357027
v 10.327621 0.045516 0.017087
vn -0.0000 1.0000 -0.0000
vt 0.000000 0.000000
s 1
f 3/1/1 9/1/1 6/1/1
f 3/1/1 2/1/1 18/1/1
f 2/1/1 1/1/1 18/1/1
f 1/1/1 19/1/1 18/1/1
f 17/1/1 16/1/1 14/1/1
f 16/1/1 15/1/1 14/1/1
f 18/1/1 17/1/1 3/1/1
f 5/1/1 4/1/1 6/1/1
f 4/1/1 3/1/1 6/1/1
f 14/1/1 13/1/1 12/1/1
f 11/1/1 10/1/1 9/1/1
f 14/1/1 12/1/1 17/1/1
f 12/1/1 11/1/1 17/1/1
f 3/1/1 17/1/1 11/1/1
f 8/1/1 7/1/1 6/1/1
f 11/1/1 9/1/1 3/1/1
f 9/1/1 8/1/1 6/1/1
