# Blender 4.5.1 LTS
# www.blender.org
mtllib province_080.mtl
o province_080
v -0.819167 0.006502 -0.281799
v -0.724002 0.006502 -0.379343
v -0.664524 0.006502 -0.461423
v -0.612478 0.006502 -0.504158
v -0.767778 0.006502 -0.228982
v -0.702114 0.006502 -0.208997
v -0.659289 0.006502 -0.153325
v -0.585060 0.006502 -0.157608
v -0.523679 0.006502 -0.204715
v -0.567087 0.006502 -0.511723
v -0.473452 0.006502 -0.205856
v -0.533711 0.006502 -0.323454
v -0.510072 0.006502 -0.378118
v -0.516734 0.006502 -0.483382
v -0.567087 -0.013498 -0.511723
v -0.473452 -0.013498 -0.205856
v -0.533711 -0.013498 -0.323454
v -0.510072 -0.013498 -0.378118
v -0.516734 -0.013498 -0.483382
vn 0.4905 -0.0000 -0.8714
vn 0.9980 -0.0000 -0.0632
vn 0.9179 -0.0000 0.3969
vn 0.8900 -0.0000 -0.4560
vn -0.0000 1.0000 -0.0000
vt 0.000000 0.000000
s 0
f 14/1/1 15/1/1 10/1/1
f 13/1/2 19/1/2 14/1/2
f 12/1/3 18/1/3 13/1/3
f 11/1/4 17/1/4 12/1/4
f 6/1/5 9/1/5 12/1/5
f 14/1/1 19/1/1 15/1/1
f 13/1/2 18/1/2 19/1/2
f 12/1/3 17/1/3 18/1/3
f 11/1/4 16/1/4 17/1/4
f 14/1/5 10/1/5 4/1/5
f 4/1/5 3/1/5 13/1/5
f 3/1/5 2/1/5 12/1/5
f 2/1/5 1/1/5 5/1/5
f 6/1/5 7/1/5 8/1/5
f 2/1/5 5/1/5 6/1/5
f 14/1/5 4/1/5 13/1/5
f 3/1/5 12/1/5 13/1/5
f 9/1/5 11/1/5 12/1/5
f 6/1/5 8/1/5 9/1/5
f 2/1/5 6/1/5 12/1/5
