# Blender 4.5.1 LTS
# www.blender.org
mtllib province_065.mtl
o province_065
v -2.644668 0.006502 1.224927
v -2.686065 0.006502 1.267751
v -2.747447 0.006502 1.286309
v -2.525315 0.006502 1.227069
v -2.590741 0.006502 1.225086
v -2.618498 0.006502 1.209225
v -2.315158 0.006502 1.493730
v -2.398428 0.006502 1.546269
v -2.534237 0.006502 1.553208
v -2.782363 0.006502 1.280036
v -2.778126 0.006502 1.258940
v -2.799929 0.006502 1.316766
v -2.798514 0.006502 1.352149
v -2.771972 0.006502 1.380088
v -2.741648 0.006502 1.384043
v -2.706408 0.006502 1.357094
v -2.663305 0.006502 1.420614
v -2.678252 0.006502 1.460472
v -2.640481 0.006502 1.499817
v -2.616923 0.006502 1.570489
v -2.274228 0.006502 1.236456
v -2.322880 0.006502 1.209034
v -2.375411 0.006502 1.221641
v -2.409867 0.006502 1.176847
v -2.412961 0.006502 1.157432
v -2.232832 0.006502 1.283910
v -2.167873 0.006502 1.306181
v -2.166277 0.006502 1.327994
v -2.273659 0.006502 1.344675
v -2.229111 0.006502 1.433772
v -2.268342 0.006502 1.483090
v -2.782363 -0.013498 1.280036
v -2.799929 -0.013498 1.316766
v -2.798514 -0.013498 1.352149
v -2.771972 -0.013498 1.380088
v -2.741648 -0.013498 1.384043
v -2.706408 -0.013498 1.357094
v -2.663305 -0.013498 1.420614
v -2.678252 -0.013498 1.460472
v -2.640481 -0.013498 1.499817
v -2.616923 -0.013498 1.570489
v -2.274228 -0.013498 1.236456
v -2.322880 -0.013498 1.209034
v -2.375411 -0.013498 1.221641
v -2.232832 -0.013498 1.283910
v -2.167873 -0.013498 1.306181
v -2.166277 -0.013498 1.327994
v -2.273659 -0.013498 1.344675
v -2.229111 -0.013498 1.433772
v -2.268342 -0.013498 1.483090
v -2.315158 -0.013498 1.493730
v -2.398428 -0.013498 1.546269
v -2.534237 -0.013498 1.553208
v -2.778126 -0.013498 1.258940
v -2.409867 -0.013498 1.176847
v -2.412961 -0.013498 1.157432
vn -0.0000 1.0000 -0.0000
vn -0.9021 -0.0000 -0.4315
vn -0.9992 -0.0000 0.0400
vn -0.7250 -0.0000 0.6887
vn -0.1293 -0.0000 0.9916
vn 0.6074 -0.0000 0.7944
vn -0.8275 -0.0000 0.5615
vn -0.9363 -0.0000 -0.3511
vn -0.7214 -0.0000 0.6925
vn -0.9487 -0.0000 0.3162
vn 0.4910 -0.0000 -0.8712
vn -0.2334 -0.0000 -0.9724
vn 0.7926 -0.0000 -0.6097
vn 0.7536 -0.0000 -0.6574
vn 0.3243 -0.0000 -0.9459
vn 0.9973 -0.0000 -0.0730
vn 0.1535 -0.0000 0.9881
vn 0.8944 -0.0000 -0.4472
vn 0.7826 -0.0000 0.6225
vn 0.2046 -0.0000 0.9789
vn 0.2216 -0.0000 0.9751
vn 0.5336 -0.0000 0.8457
vn 0.0510 -0.0000 0.9987
vn -0.9804 -0.0000 -0.1969
vn 0.9875 -0.0000 -0.1574
vn -0.7250 -0.0000 0.6888
vn 0.6075 -0.0000 0.7944
vt 0.000000 0.000000
s 0
f 5/1/1 2/1/1 17/1/1
f 10/1/2 33/1/2 12/1/2
f 12/1/3 34/1/3 13/1/3
f 13/1/4 35/1/4 14/1/4
f 14/1/5 36/1/5 15/1/5
f 15/1/6 37/1/6 16/1/6
f 16/1/7 38/1/7 17/1/7
f 17/1/8 39/1/8 18/1/8
f 18/1/9 40/1/9 19/1/9
f 19/1/10 41/1/10 20/1/10
f 21/1/11 43/1/11 22/1/11
f 22/1/12 44/1/12 23/1/12
f 23/1/13 55/1/13 24/1/13
f 26/1/14 42/1/14 21/1/14
f 27/1/15 45/1/15 26/1/15
f 28/1/16 46/1/16 27/1/16
f 29/1/17 47/1/17 28/1/17
f 30/1/18 48/1/18 29/1/18
f 31/1/19 49/1/19 30/1/19
f 20/1/20 53/1/20 9/1/20
f 7/1/21 50/1/21 31/1/21
f 8/1/22 51/1/22 7/1/22
f 9/1/23 52/1/23 8/1/23
f 11/1/24 32/1/24 10/1/24
f 24/1/25 56/1/25 25/1/25
f 19/1/1 20/1/1 9/1/1
f 9/1/1 8/1/1 4/1/1
f 8/1/1 7/1/1 4/1/1
f 7/1/1 31/1/1 29/1/1
f 31/1/1 30/1/1 29/1/1
f 29/1/1 28/1/1 26/1/1
f 28/1/1 27/1/1 26/1/1
f 19/1/1 9/1/1 17/1/1
f 17/1/1 9/1/1 4/1/1
f 17/1/1 18/1/1 19/1/1
f 14/1/1 15/1/1 16/1/1
f 13/1/1 14/1/1 3/1/1
f 14/1/1 16/1/1 3/1/1
f 16/1/1 17/1/1 2/1/1
f 17/1/1 4/1/1 5/1/1
f 7/1/1 29/1/1 23/1/1
f 4/1/1 7/1/1 23/1/1
f 12/1/1 13/1/1 3/1/1
f 3/1/1 11/1/1 10/1/1
f 10/1/1 12/1/1 3/1/1
f 29/1/1 26/1/1 21/1/1
f 23/1/1 29/1/1 21/1/1
f 21/1/1 22/1/1 23/1/1
f 6/1/1 1/1/1 5/1/1
f 1/1/1 2/1/1 5/1/1
f 2/1/1 3/1/1 16/1/1
f 24/1/1 25/1/1 4/1/1
f 23/1/1 24/1/1 4/1/1
f 10/1/2 32/1/2 33/1/2
f 12/1/3 33/1/3 34/1/3
f 13/1/26 34/1/26 35/1/26
f 14/1/5 35/1/5 36/1/5
f 15/1/27 36/1/27 37/1/27
f 16/1/7 37/1/7 38/1/7
f 17/1/8 38/1/8 39/1/8
f 18/1/9 39/1/9 40/1/9
f 19/1/10 40/1/10 41/1/10
f 21/1/11 42/1/11 43/1/11
f 22/1/12 43/1/12 44/1/12
f 23/1/13 44/1/13 55/1/13
f 26/1/14 45/1/14 42/1/14
f 27/1/15 46/1/15 45/1/15
f 28/1/16 47/1/16 46/1/16
f 29/1/17 48/1/17 47/1/17
f 30/1/18 49/1/18 48/1/18
f 31/1/19 50/1/19 49/1/19
f 20/1/20 41/1/20 53/1/20
f 7/1/21 51/1/21 50/1/21
f 8/1/22 52/1/22 51/1/22
f 9/1/23 53/1/23 52/1/23
f 11/1/24 54/1/24 32/1/24
f 24/1/25 55/1/25 56/1/25
