# Blender 4.5.1 LTS
# www.blender.org
mtllib province_036.mtl
o province_036
v 1.697024 0.006502 2.846141
v 1.637412 0.006502 2.887253
v 1.647690 0.006502 2.981810
v 1.738135 0.006502 3.053755
v 1.884082 0.006502 3.115423
v 1.933416 0.006502 3.016755
v 2.005361 0.006502 3.010588
v 2.032084 0.006502 2.887253
v 1.714929 0.006502 2.765569
v 1.991971 0.006502 2.824467
v 1.776600 0.006502 2.794349
v 1.853728 0.006502 2.794349
v 1.873793 0.006502 2.761936
v 1.909350 0.006502 2.819505
v 1.714929 -0.013498 2.765569
v 1.776600 -0.013498 2.794349
v 1.853728 -0.013498 2.794349
v 1.873793 -0.013498 2.761936
v 1.909350 -0.013498 2.819505
v 1.991971 -0.013498 2.824467
v 1.697024 -0.013498 2.846141
v 1.637412 -0.013498 2.887253
v 1.647690 -0.013498 2.981810
v 1.738135 -0.013498 3.053755
v 1.884082 -0.013498 3.115423
vn 0.0600 -0.0000 -0.9982
vn 0.8508 -0.0000 -0.5255
vn -0.8503 -0.0000 -0.5264
vn -0.0000 -0.0000 -1.0000
vn 0.4229 -0.0000 -0.9062
vn -0.0000 1.0000 -0.0000
vn -0.5677 -0.0000 -0.8232
vn -0.9941 -0.0000 0.1081
vn -0.6225 -0.0000 0.7826
vn -0.3892 -0.0000 0.9211
vn -0.9762 -0.0000 -0.2169
vt 0.000000 0.000000
s 0
f 10/1/1 19/1/1 14/1/1
f 14/1/2 18/1/2 13/1/2
f 13/1/3 17/1/3 12/1/3
f 12/1/4 16/1/4 11/1/4
f 11/1/5 15/1/5 9/1/5
f 14/1/6 12/1/6 6/1/6
f 1/1/7 22/1/7 2/1/7
f 2/1/8 23/1/8 3/1/8
f 3/1/9 24/1/9 4/1/9
f 4/1/10 25/1/10 5/1/10
f 9/1/11 21/1/11 1/1/11
f 10/1/1 20/1/1 19/1/1
f 14/1/2 19/1/2 18/1/2
f 13/1/3 18/1/3 17/1/3
f 12/1/4 17/1/4 16/1/4
f 11/1/5 16/1/5 15/1/5
f 3/1/6 4/1/6 1/1/6
f 4/1/6 5/1/6 6/1/6
f 6/1/6 7/1/6 8/1/6
f 4/1/6 6/1/6 12/1/6
f 1/1/6 4/1/6 11/1/6
f 1/1/6 2/1/6 3/1/6
f 11/1/6 9/1/6 1/1/6
f 14/1/6 13/1/6 12/1/6
f 12/1/6 11/1/6 4/1/6
f 6/1/6 8/1/6 14/1/6
f 8/1/6 10/1/6 14/1/6
f 1/1/7 21/1/7 22/1/7
f 2/1/8 22/1/8 23/1/8
f 3/1/9 23/1/9 24/1/9
f 4/1/10 24/1/10 25/1/10
f 9/1/11 15/1/11 21/1/11
