# Blender 4.5.1 LTS
# www.blender.org
mtllib province_043.mtl
o province_043
v -6.384271 0.006502 -3.094727
v -6.222298 0.006502 -3.218338
v -6.149836 0.006502 -3.205551
v -6.030487 0.006502 -3.214076
v -5.987862 0.006502 -3.282275
v -5.889826 0.006502 -3.248175
v -5.821626 0.006502 -3.184238
v -5.723589 0.006502 -3.150139
v -5.659653 0.006502 -3.081939
v -5.663915 0.006502 -2.915704
v -5.757689 0.006502 -2.838979
v -5.928188 0.006502 -2.843242
v -6.068849 0.006502 -2.941278
v -6.209510 0.006502 -2.937016
v -6.299022 0.006502 -3.022265
v -6.384271 -0.013498 -3.094727
v -5.987862 -0.013498 -3.282275
v -5.889826 -0.013498 -3.248175
v -5.821626 -0.013498 -3.184238
v -5.723589 -0.013498 -3.150139
v -5.659653 -0.013498 -3.081939
v -5.663915 -0.013498 -2.915704
v -5.757689 -0.013498 -2.838979
v -5.928188 -0.013498 -2.843242
v -6.068849 -0.013498 -2.941278
v -6.209510 -0.013498 -2.937016
v -6.299022 -0.013498 -3.022265
vn -0.0000 1.0000 -0.0000
vn 0.6332 -0.0000 0.7740
vn -0.0250 -0.0000 0.9997
vn -0.5718 -0.0000 0.8204
vn 0.0303 -0.0000 0.9995
vn -0.6897 -0.0000 0.7241
vn -0.6476 -0.0000 0.7619
vn 0.3285 -0.0000 -0.9445
vn 0.6839 -0.0000 -0.7295
vn 0.7295 -0.0000 -0.6839
vn 0.9997 -0.0000 0.0256
vt 0.000000 0.000000
s 0
f 4/1/1 13/1/1 7/1/1
f 11/1/2 22/1/2 10/1/2
f 12/1/3 23/1/3 11/1/3
f 13/1/4 24/1/4 12/1/4
f 14/1/5 25/1/5 13/1/5
f 15/1/6 26/1/6 14/1/6
f 1/1/7 27/1/7 15/1/7
f 6/1/8 17/1/8 5/1/8
f 7/1/9 18/1/9 6/1/9
f 8/1/8 19/1/8 7/1/8
f 9/1/10 20/1/10 8/1/10
f 10/1/11 21/1/11 9/1/11
f 3/1/1 2/1/1 15/1/1
f 2/1/1 1/1/1 15/1/1
f 15/1/1 14/1/1 3/1/1
f 14/1/1 13/1/1 3/1/1
f 6/1/1 5/1/1 4/1/1
f 4/1/1 3/1/1 13/1/1
f 13/1/1 12/1/1 7/1/1
f 12/1/1 11/1/1 7/1/1
f 7/1/1 6/1/1 4/1/1
f 9/1/1 8/1/1 10/1/1
f 8/1/1 7/1/1 11/1/1
f 11/1/1 10/1/1 8/1/1
f 11/1/2 23/1/2 22/1/2
f 12/1/3 24/1/3 23/1/3
f 13/1/4 25/1/4 24/1/4
f 14/1/5 26/1/5 25/1/5
f 15/1/6 27/1/6 26/1/6
f 1/1/7 16/1/7 27/1/7
f 6/1/8 18/1/8 17/1/8
f 7/1/9 19/1/9 18/1/9
f 8/1/8 20/1/8 19/1/8
f 9/1/10 21/1/10 20/1/10
f 10/1/11 22/1/11 21/1/11
