# Blender 4.5.1 LTS
# www.blender.org
o province_107
v -2.833864 0.045516 12.078078
v -2.102423 0.045516 12.114051
v -1.898578 0.045516 12.341876
v -1.215100 0.045516 12.485766
v -0.819402 0.045516 12.281921
v -0.423704 0.045516 12.401830
v -0.291805 0.045516 12.761556
v 0.211811 0.045516 12.809519
v 0.511582 0.045516 13.169243
v 1.566777 0.045516 12.365856
v -2.696040 0.045516 11.201600
v -3.057178 0.045516 11.767381
v -2.147466 0.045516 11.032807
v -1.865640 0.045516 11.290128
v -1.184523 0.045516 10.969602
v -0.923475 0.045516 10.617756
v -0.467488 0.045516 10.649568
v 0.099705 0.045516 10.890926
v 0.620695 0.045516 10.879842
v 0.848819 0.045516 11.529995
v 1.557933 0.045516 12.065178
v -2.696040 -0.094484 11.201600
v -3.057178 -0.094484 11.767381
v -2.147466 -0.094484 11.032807
v -1.865640 -0.094484 11.290128
v -1.184523 -0.094484 10.969602
v -0.923475 -0.094484 10.617756
v -0.467488 -0.094484 10.649568
v 0.099705 -0.094484 10.890926
v 0.620695 -0.094484 10.879842
v 0.848819 -0.094484 11.529995
v 0.511582 -0.094484 13.169243
v 1.566777 -0.094484 12.365856
v 1.557933 -0.094484 12.065178
vn 0.6743 -0.0000 -0.7385
vn -0.0213 -0.0000 -0.9998
vn 0.6024 -0.0000 -0.7982
vn 0.9996 -0.0000 -0.0294
vn 0.9436 -0.0000 -0.3311
vn -0.2941 -0.0000 -0.9558
vn 0.3916 -0.0000 -0.9202
vn -0.0000 1.0000 -0.0000
vn 0.0696 -0.0000 -0.9976
vn -0.8429 -0.0000 -0.5380
vn -0.8031 -0.0000 -0.5958
vn -0.4258 -0.0000 -0.9048
vn 0.6058 -0.0000 0.7956
vt 0.000000 0.000000
s 1
f 25/1/1 13/1/1 14/1/1
s 2
f 30/1/2 18/1/2 19/1/2
s 3
f 34/1/3 20/1/3 21/1/3
s 4
f 33/1/4 21/1/4 10/1/4
s 5
f 31/1/5 19/1/5 20/1/5
s 6
f 24/1/6 11/1/6 13/1/6
s 7
f 29/1/7 17/1/7 18/1/7
s 8
f 14/1/8 11/1/8 2/1/8
s 9
f 28/1/9 16/1/9 17/1/9
s 10
f 22/1/10 12/1/10 11/1/10
s 11
f 27/1/11 15/1/11 16/1/11
s 12
f 26/1/12 14/1/12 15/1/12
s 13
f 32/1/13 10/1/13 9/1/13
s 1
f 25/1/1 24/1/1 13/1/1
s 2
f 30/1/2 29/1/2 18/1/2
s 3
f 34/1/3 31/1/3 20/1/3
s 4
f 33/1/4 34/1/4 21/1/4
s 5
f 31/1/5 30/1/5 19/1/5
s 6
f 24/1/6 22/1/6 11/1/6
s 7
f 29/1/7 28/1/7 17/1/7
s 8
f 8/1/8 9/1/8 10/1/8
f 10/1/8 21/1/8 20/1/8
f 20/1/8 19/1/8 18/1/8
f 18/1/8 17/1/8 5/1/8
f 17/1/8 16/1/8 15/1/8
f 17/1/8 15/1/8 5/1/8
f 10/1/8 20/1/8 8/1/8
f 20/1/8 18/1/8 6/1/8
f 6/1/8 18/1/8 5/1/8
f 7/1/8 8/1/8 6/1/8
f 6/1/8 8/1/8 20/1/8
f 14/1/8 13/1/8 11/1/8
f 15/1/8 14/1/8 5/1/8
f 3/1/8 4/1/8 14/1/8
f 4/1/8 5/1/8 14/1/8
f 12/1/8 1/1/8 11/1/8
f 1/1/8 2/1/8 11/1/8
f 2/1/8 3/1/8 14/1/8
s 9
f 28/1/9 27/1/9 16/1/9
s 10
f 22/1/10 23/1/10 12/1/10
s 11
f 27/1/11 26/1/11 15/1/11
s 12
f 26/1/12 25/1/12 14/1/12
s 13
f 32/1/13 33/1/13 10/1/13
