# Blender 4.5.1 LTS
# www.blender.org
mtllib province_101.mtl
o province_101
v -0.097991 0.001999 0.168099
v -0.093827 0.001999 0.179519
v -0.086095 0.001999 0.178448
v -0.079910 0.001999 0.172857
v -0.069679 0.001999 0.178686
v -0.066586 0.001999 0.167980
v -0.060758 0.001999 0.163936
v -0.060758 0.001999 0.151683
v -0.067895 0.001999 0.152040
v -0.101270 0.001999 0.150384
v -0.103299 0.001999 0.154920
v -0.102667 0.001999 0.164077
v -0.071164 0.001999 0.150012
v -0.078100 0.001999 0.151000
v -0.085863 0.001999 0.153534
v -0.094426 0.001999 0.149554
v -0.101270 -0.000001 0.150384
v -0.103299 -0.000001 0.154920
v -0.071164 -0.000001 0.150012
v -0.078100 -0.000001 0.151000
v -0.085863 -0.000001 0.153534
v -0.094426 -0.000001 0.149554
v -0.097991 -0.000001 0.168099
v -0.093827 -0.000001 0.179519
v -0.102667 -0.000001 0.164077
vn -0.1409 -0.0000 -0.9900
vn -0.0000 1.0000 -0.0000
vn -0.3104 -0.0000 -0.9506
vn 0.4215 -0.0000 -0.9068
vn -0.1203 -0.0000 -0.9927
vn -0.9128 -0.0000 -0.4084
vn -0.9976 -0.0000 0.0688
vn -0.9395 -0.0000 0.3425
vn -0.6520 -0.0000 0.7582
vt 0.000000 0.000000
s 0
f 14/1/1 13/1/1 19/1/1 20/1/1
f 9/1/2 13/1/2 14/1/2 15/1/2 16/1/2 10/1/2 11/1/2 12/1/2 1/1/2 2/1/2 3/1/2 4/1/2 5/1/2 6/1/2 7/1/2 8/1/2
f 15/1/3 14/1/3 20/1/3 21/1/3
f 16/1/4 15/1/4 21/1/4 22/1/4
f 10/1/5 16/1/5 22/1/5 17/1/5
f 11/1/6 10/1/6 17/1/6 18/1/6
f 12/1/7 11/1/7 18/1/7 25/1/7
f 2/1/8 1/1/8 23/1/8 24/1/8
f 1/1/9 12/1/9 25/1/9 23/1/9
