# Blender 4.5.1 LTS
# www.blender.org
mtllib province_048.mtl
o province_048
v -3.408757 0.006502 -0.979817
v -3.436165 0.006502 -1.019215
v -3.434452 0.006502 -1.074030
v -3.461860 0.006502 -1.111716
v -3.441304 0.006502 -1.125419
v -3.381351 0.006502 -1.125419
v -3.362508 0.006502 -1.156253
v -3.280427 0.006502 -1.159822
v -3.179315 0.006502 -1.151495
v -3.016344 0.006502 -1.152684
v -2.950918 0.006502 -1.125324
v -2.896198 0.006502 -1.059898
v -2.902146 0.006502 -1.018264
v -2.931885 0.006502 -0.998041
v -2.973520 0.006502 -0.956406
v -3.012775 0.006502 -0.975439
v -3.059169 0.006502 -0.971871
v -3.081770 0.006502 -0.927857
v -3.117457 0.006502 -0.894549
v -3.156713 0.006502 -0.871947
v -3.190021 0.006502 -0.896928
v -3.226897 0.006502 -0.904065
v -3.260205 0.006502 -0.949269
v -3.314925 0.006502 -0.955217
v -3.347043 0.006502 -0.934994
v -3.393436 0.006502 -0.955217
v -3.362508 -0.013498 -1.156253
v -3.280427 -0.013498 -1.159822
v -3.179315 -0.013498 -1.151495
v -3.016344 -0.013498 -1.152684
v -2.950918 -0.013498 -1.125324
v -2.896198 -0.013498 -1.059898
vn -0.0000 1.0000 -0.0000
vn -0.0434 -0.0000 -0.9991
vn 0.0821 -0.0000 -0.9966
vn -0.0073 -0.0000 -1.0000
vn 0.3858 -0.0000 -0.9226
vn 0.7671 -0.0000 -0.6416
vt 0.000000 0.000000
s 0
f 21/1/1 20/1/1 19/1/1
f 8/1/2 27/1/2 7/1/2
f 9/1/3 28/1/3 8/1/3
f 10/1/4 29/1/4 9/1/4
f 11/1/5 30/1/5 10/1/5
f 12/1/6 31/1/6 11/1/6
f 1/1/1 26/1/1 24/1/1
f 26/1/1 25/1/1 24/1/1
f 3/1/1 2/1/1 1/1/1
f 5/1/1 4/1/1 3/1/1
f 8/1/1 7/1/1 6/1/1
f 6/1/1 5/1/1 3/1/1
f 3/1/1 1/1/1 6/1/1
f 1/1/1 24/1/1 6/1/1
f 23/1/1 22/1/1 21/1/1
f 24/1/1 23/1/1 8/1/1
f 6/1/1 24/1/1 8/1/1
f 11/1/1 10/1/1 16/1/1
f 10/1/1 9/1/1 17/1/1
f 9/1/1 8/1/1 23/1/1
f 12/1/1 11/1/1 14/1/1
f 10/1/1 17/1/1 16/1/1
f 14/1/1 11/1/1 16/1/1
f 14/1/1 13/1/1 12/1/1
f 16/1/1 15/1/1 14/1/1
f 19/1/1 18/1/1 21/1/1
f 18/1/1 17/1/1 21/1/1
f 9/1/1 23/1/1 17/1/1
f 23/1/1 21/1/1 17/1/1
f 8/1/2 28/1/2 27/1/2
f 9/1/3 29/1/3 28/1/3
f 10/1/4 30/1/4 29/1/4
f 11/1/5 31/1/5 30/1/5
f 12/1/6 32/1/6 31/1/6
