# Blender 4.5.1 LTS
# www.blender.org
o province_043
v -44.689896 0.045516 -21.663088
v -43.556084 0.045516 -22.528366
v -43.048851 0.045516 -22.438854
v -42.213406 0.045516 -22.498529
v -41.915035 0.045516 -22.975925
v -41.228783 0.045516 -22.737228
v -40.751385 0.045516 -22.289669
v -40.065125 0.045516 -22.050972
v -39.617569 0.045516 -21.573576
v -39.647408 0.045516 -20.409925
v -40.303825 0.045516 -19.872854
v -41.497314 0.045516 -19.902691
v -42.481941 0.045516 -20.588947
v -43.466568 0.045516 -20.559111
v -44.689896 -0.094484 -21.663088
v -41.915035 -0.094484 -22.975925
v -41.228783 -0.094484 -22.737228
v -40.751385 -0.094484 -22.289669
v -40.065125 -0.094484 -22.050972
v -39.617569 -0.094484 -21.573576
v -39.647408 -0.094484 -20.409925
v -40.303825 -0.094484 -19.872854
v -41.497314 -0.094484 -19.902691
v -42.481941 -0.094484 -20.588947
v -43.466568 -0.094484 -20.559111
vn 0.0303 -0.0000 0.9995
vn 0.9997 -0.0000 0.0256
vn 0.6332 -0.0000 0.7740
vn 0.3285 -0.0000 -0.9445
vn 0.6839 -0.0000 -0.7295
vn -0.6700 -0.0000 0.7424
vn 0.7295 -0.0000 -0.6839
vn -0.5718 -0.0000 0.8204
vn -0.0000 1.0000 -0.0000
vn -0.0250 -0.0000 0.9997
vt 0.000000 0.000000
s 1
f 25/1/1 13/1/1 14/1/1
s 2
f 21/1/2 9/1/2 10/1/2
s 3
f 22/1/3 10/1/3 11/1/3
s 4
f 17/1/4 5/1/4 6/1/4
s 5
f 18/1/5 6/1/5 7/1/5
s 6
f 14/1/6 15/1/6 25/1/6
s 7
f 20/1/7 8/1/7 9/1/7
s 8
f 24/1/8 12/1/8 13/1/8
s 9
f 4/1/9 13/1/9 7/1/9
s 10
f 19/1/4 7/1/4 8/1/4
s 11
f 23/1/10 11/1/10 12/1/10
s 1
f 25/1/1 24/1/1 13/1/1
s 2
f 21/1/2 20/1/2 9/1/2
s 3
f 22/1/3 21/1/3 10/1/3
s 4
f 17/1/4 16/1/4 5/1/4
s 5
f 18/1/5 17/1/5 6/1/5
s 6
f 14/1/6 1/1/6 15/1/6
s 7
f 20/1/7 19/1/7 8/1/7
s 8
f 24/1/8 23/1/8 12/1/8
s 9
f 12/1/9 11/1/9 7/1/9
f 11/1/9 10/1/9 8/1/9
f 7/1/9 11/1/9 8/1/9
f 10/1/9 9/1/9 8/1/9
f 7/1/9 6/1/9 4/1/9
f 6/1/9 5/1/9 4/1/9
f 13/1/9 12/1/9 7/1/9
f 1/1/9 14/1/9 2/1/9
f 14/1/9 13/1/9 3/1/9
f 3/1/9 2/1/9 14/1/9
f 4/1/9 3/1/9 13/1/9
s 10
f 19/1/4 18/1/4 7/1/4
s 11
f 23/1/10 22/1/10 11/1/10
