# Blender 4.5.1 LTS
# www.blender.org
mtllib province_006.mtl
o province_006
v -2.477415 0.006502 0.476306
v -2.469980 0.006502 0.441611
v -2.442719 0.006502 0.406089
v -2.426198 0.006502 0.342480
v -2.291713 0.006502 0.385091
v -2.354165 0.006502 0.362291
v -2.389852 0.006502 0.373195
v -2.430824 0.006502 0.505054
v -2.361433 0.006502 0.530828
v -2.350528 0.006502 0.565524
v -2.410998 0.006502 0.570480
v -2.447676 0.006502 0.564533
v -2.466511 0.006502 0.592289
v -2.506163 0.006502 0.585350
v -2.511120 0.006502 0.646811
v -2.470476 0.006502 0.705298
v -2.386215 0.006502 0.739994
v -2.283120 0.006502 0.717194
v -2.199850 0.006502 0.705298
v -2.245533 0.006502 0.372776
v -2.212660 0.006502 0.439382
v -2.182515 0.006502 0.469527
v -2.188800 0.006502 0.509329
v -2.140262 0.006502 0.537065
v -2.145446 0.006502 0.568907
v -2.176287 0.006502 0.614140
v -2.164632 0.006502 0.697845
v -2.245533 -0.013498 0.372776
v -2.212660 -0.013498 0.439382
v -2.182515 -0.013498 0.469527
v -2.188800 -0.013498 0.509329
v -2.140262 -0.013498 0.537065
v -2.145446 -0.013498 0.568907
v -2.176287 -0.013498 0.614140
v -2.164632 -0.013498 0.697845
v -2.470476 -0.013498 0.705298
v -2.386215 -0.013498 0.739994
v -2.283120 -0.013498 0.717194
v -2.199850 -0.013498 0.705298
v -2.477415 0.006502 0.476306
v -2.430824 0.006502 0.505054
v -2.361433 0.006502 0.530828
v -2.350528 0.006502 0.565524
v -2.410998 0.006502 0.570480
v -2.447676 0.006502 0.564533
v -2.466511 0.006502 0.592289
v -2.506163 0.006502 0.585350
v -2.511120 0.006502 0.646811
v -2.470476 0.006502 0.705298
v -2.470476 -0.013498 0.705298
vn -0.0000 1.0000 -0.0000
vn 0.8967 -0.0000 -0.4426
vn 0.7071 -0.0000 -0.7071
vn 0.9878 -0.0000 0.1560
vn 0.4961 -0.0000 -0.8682
vn 0.9870 -0.0000 0.1607
vn 0.8262 -0.0000 0.5633
vn 0.9904 -0.0000 -0.1379
vn 0.2070 -0.0000 0.9783
vn -0.3808 -0.0000 0.9247
vn 0.2159 -0.0000 0.9764
vn 0.1414 -0.0000 0.9899
vt 0.000000 0.000000
s 0
f 11/1/1 13/1/1 16/1/1
f 21/1/2 28/1/2 20/1/2
f 22/1/3 29/1/3 21/1/3
f 23/1/4 30/1/4 22/1/4
f 24/1/5 31/1/5 23/1/5
f 25/1/6 32/1/6 24/1/6
f 26/1/7 33/1/7 25/1/7
f 27/1/8 34/1/8 26/1/8
f 19/1/9 35/1/9 27/1/9
f 16/1/10 37/1/10 17/1/10
f 17/1/11 38/1/11 18/1/11
f 18/1/12 39/1/12 19/1/12
f 15/1/1 47/1/1 48/1/1
f 16/1/1 48/1/1 49/1/1
f 8/1/1 40/1/1 41/1/1
f 9/1/1 41/1/1 42/1/1
f 10/1/1 42/1/1 43/1/1
f 11/1/1 43/1/1 44/1/1
f 12/1/1 44/1/1 45/1/1
f 13/1/1 45/1/1 46/1/1
f 14/1/1 46/1/1 47/1/1
f 2/1/1 1/1/1 8/1/1
f 2/1/1 8/1/1 3/1/1
f 8/1/1 9/1/1 7/1/1
f 3/1/1 8/1/1 7/1/1
f 7/1/1 4/1/1 3/1/1
f 5/1/1 6/1/1 7/1/1
f 21/1/1 20/1/1 5/1/1
f 23/1/1 22/1/1 21/1/1
f 25/1/1 24/1/1 23/1/1
f 19/1/1 27/1/1 26/1/1
f 26/1/1 25/1/1 23/1/1
f 23/1/1 21/1/1 9/1/1
f 21/1/1 5/1/1 9/1/1
f 5/1/1 7/1/1 9/1/1
f 9/1/1 10/1/1 23/1/1
f 26/1/1 23/1/1 10/1/1
f 18/1/1 19/1/1 26/1/1
f 16/1/1 17/1/1 11/1/1
f 17/1/1 18/1/1 10/1/1
f 14/1/1 15/1/1 13/1/1
f 15/1/1 16/1/1 13/1/1
f 11/1/1 12/1/1 13/1/1
f 17/1/1 10/1/1 11/1/1
f 18/1/1 26/1/1 10/1/1
f 21/1/2 29/1/2 28/1/2
f 22/1/3 30/1/3 29/1/3
f 23/1/4 31/1/4 30/1/4
f 24/1/5 32/1/5 31/1/5
f 25/1/6 33/1/6 32/1/6
f 26/1/7 34/1/7 33/1/7
f 27/1/8 35/1/8 34/1/8
f 19/1/9 39/1/9 35/1/9
f 16/1/10 36/1/10 37/1/10
f 17/1/11 37/1/11 38/1/11
f 18/1/12 38/1/12 39/1/12
f 15/1/1 14/1/1 47/1/1
f 16/1/1 15/1/1 48/1/1
f 8/1/1 1/1/1 40/1/1
f 9/1/1 8/1/1 41/1/1
f 10/1/1 9/1/1 42/1/1
f 11/1/1 10/1/1 43/1/1
f 12/1/1 11/1/1 44/1/1
f 13/1/1 12/1/1 45/1/1
f 14/1/1 13/1/1 46/1/1
