# Blender 4.5.1 LTS
# www.blender.org
mtllib province_168.mtl
o province_168
v -0.687479 0.006502 1.276639
v -0.755998 0.006502 1.309186
v -0.810814 0.006502 1.350297
v -0.853638 0.006502 1.350297
v -0.905027 0.006502 1.444511
v -0.653220 0.006502 1.387983
v -0.598404 0.006502 1.430807
v -0.574423 0.006502 1.477058
v -0.512755 0.006502 1.487336
v -0.476783 0.006502 1.451363
v -0.433958 0.006502 1.468493
v -0.440810 0.006502 1.538725
v -0.552154 0.006502 1.636365
v -0.600117 0.006502 1.595253
v -0.682340 0.006502 1.639791
v -0.838221 0.006502 1.658634
v -0.858777 0.006502 1.735718
v -0.946139 0.006502 1.836783
v -1.007806 0.006502 1.768264
v -0.961556 0.006502 1.727153
v -0.970121 0.006502 1.638078
v -0.930722 0.006502 1.554142
v -0.845073 0.006502 1.531873
v -0.834795 0.006502 1.494188
v -0.401552 0.006502 1.580788
v -0.456408 0.006502 1.666760
v -0.401552 -0.013498 1.580788
v -0.456408 -0.013498 1.666760
v -0.905027 -0.013498 1.444511
v -1.007806 -0.013498 1.768264
v -0.961556 -0.013498 1.727153
v -0.970121 -0.013498 1.638078
v -0.930722 -0.013498 1.554142
v -0.845073 -0.013498 1.531873
v -0.834795 -0.013498 1.494188
vn -0.0000 1.0000 -0.0000
vn 0.8430 -0.0000 0.5379
vn -0.6644 -0.0000 -0.7474
vn -0.9954 -0.0000 0.0957
vn -0.9052 -0.0000 -0.4249
vn -0.2516 -0.0000 -0.9678
vn -0.9648 -0.0000 -0.2631
vn -0.5775 -0.0000 0.8164
vt 0.000000 0.000000
s 0
f 6/1/1 3/1/1 24/1/1
f 26/1/2 27/1/2 25/1/2
f 20/1/3 30/1/3 19/1/3
f 21/1/4 31/1/4 20/1/4
f 22/1/5 32/1/5 21/1/5
f 23/1/6 33/1/6 22/1/6
f 24/1/7 34/1/7 23/1/7
f 5/1/8 35/1/8 24/1/8
f 13/1/1 26/1/1 12/1/1
f 26/1/1 25/1/1 12/1/1
f 12/1/1 11/1/1 9/1/1
f 11/1/1 10/1/1 9/1/1
f 16/1/1 15/1/1 23/1/1
f 15/1/1 14/1/1 8/1/1
f 24/1/1 15/1/1 7/1/1
f 14/1/1 13/1/1 9/1/1
f 13/1/1 12/1/1 9/1/1
f 8/1/1 7/1/1 15/1/1
f 7/1/1 6/1/1 24/1/1
f 9/1/1 8/1/1 14/1/1
f 15/1/1 24/1/1 23/1/1
f 18/1/1 17/1/1 20/1/1
f 17/1/1 16/1/1 20/1/1
f 20/1/1 19/1/1 18/1/1
f 22/1/1 21/1/1 16/1/1
f 21/1/1 20/1/1 16/1/1
f 23/1/1 22/1/1 16/1/1
f 6/1/1 1/1/1 2/1/1
f 4/1/1 5/1/1 24/1/1
f 6/1/1 2/1/1 3/1/1
f 3/1/1 4/1/1 24/1/1
f 26/1/2 28/1/2 27/1/2
f 20/1/3 31/1/3 30/1/3
f 21/1/4 32/1/4 31/1/4
f 22/1/5 33/1/5 32/1/5
f 23/1/6 34/1/6 33/1/6
f 24/1/7 35/1/7 34/1/7
f 5/1/8 29/1/8 35/1/8
