# Blender 4.5.1 LTS
# www.blender.org
mtllib province_072.mtl
o province_072
v -0.193127 0.001999 0.040806
v -0.189509 0.001999 0.046589
v -0.186634 0.001999 0.050752
v -0.193557 0.001999 0.044623
v -0.162768 0.001999 0.020578
v -0.171847 0.001999 0.014069
v -0.178583 0.001999 0.048697
v -0.173616 0.001999 0.045271
v -0.167449 0.001999 0.044757
v -0.167278 0.001999 0.038590
v -0.164537 0.001999 0.034650
v -0.165565 0.001999 0.027627
v -0.176361 0.001999 0.013302
v -0.186575 0.001999 0.018606
v -0.192206 0.001999 0.025779
v -0.192275 0.001999 0.029895
v -0.187312 0.001999 0.037722
v -0.189383 0.001999 0.038902
v -0.172161 0.001999 0.011054
v -0.189383 -0.000001 0.038902
v -0.187312 -0.000001 0.037722
v -0.176361 -0.000001 0.013302
v -0.186575 -0.000001 0.018606
v -0.192206 -0.000001 0.025779
v -0.192275 -0.000001 0.029895
v -0.172161 -0.000001 0.011054
vn -0.0000 1.0000 -0.0000
vn -0.4609 -0.0000 -0.8875
vn -0.7866 -0.0000 -0.6174
vn -0.9999 -0.0000 -0.0169
vn -0.8445 -0.0000 0.5355
vn -0.4719 -0.0000 -0.8817
vn -0.4950 -0.0000 -0.8689
vt 0.000000 0.000000
s 0
f 13/1/1 14/1/1 15/1/1 16/1/1 17/1/1 18/1/1 1/1/1 4/1/1 2/1/1 3/1/1 7/1/1 8/1/1 9/1/1 10/1/1 11/1/1 12/1/1 5/1/1 6/1/1 19/1/1
f 14/1/2 13/1/2 22/1/2 23/1/2
f 15/1/3 14/1/3 23/1/3 24/1/3
f 16/1/4 15/1/4 24/1/4 25/1/4
f 17/1/5 16/1/5 25/1/5 21/1/5
f 13/1/6 19/1/6 26/1/6 22/1/6
f 18/1/7 17/1/7 21/1/7 20/1/7
