# Blender 4.5.1 LTS
# www.blender.org
mtllib province_079.mtl
o province_079
v -0.032610 0.001999 0.040167
v -0.041413 0.001999 0.040286
v -0.044863 0.001999 0.034814
v -0.056402 0.001999 0.034933
v -0.065442 0.001999 0.029580
v -0.027406 0.001999 0.035894
v -0.071442 0.001999 0.022340
v -0.042508 0.001999 0.001808
v -0.048460 0.001999 0.007761
v -0.054247 0.001999 0.015550
v -0.062219 0.001999 0.013242
v -0.062548 0.001999 0.013537
v -0.033375 0.001999 0.001963
v -0.029860 0.001999 0.005332
v -0.028481 0.001999 0.011362
v -0.018786 0.001999 0.019696
v -0.018197 0.001999 0.026181
v -0.022867 0.001999 0.035137
v -0.042508 -0.000001 0.001808
v -0.071442 -0.000001 0.022340
v -0.048460 -0.000001 0.007761
v -0.054247 -0.000001 0.015550
v -0.062219 -0.000001 0.013242
v -0.062548 -0.000001 0.013537
v -0.033375 -0.000001 0.001963
v -0.029860 -0.000001 0.005332
v -0.028481 -0.000001 0.011362
v -0.018786 -0.000001 0.019696
v -0.018197 -0.000001 0.026181
v -0.022867 -0.000001 0.035137
vn 0.8867 -0.0000 0.4624
vn 0.9959 -0.0000 -0.0905
vn 0.6519 -0.0000 -0.7583
vn 0.9749 -0.0000 -0.2228
vn 0.6919 -0.0000 -0.7220
vn 0.0169 -0.0000 -0.9999
vn -0.7035 -0.0000 -0.7107
vn -0.6668 -0.0000 -0.7452
vn 0.2781 -0.0000 -0.9606
vn -0.8027 -0.0000 -0.5963
vn -0.7071 -0.0000 -0.7071
vn -0.0000 1.0000 -0.0000
vt 0.000000 0.000000
s 0
f 17/1/1 18/1/1 30/1/1 29/1/1
f 16/1/2 17/1/2 29/1/2 28/1/2
f 15/1/3 16/1/3 28/1/3 27/1/3
f 14/1/4 15/1/4 27/1/4 26/1/4
f 13/1/5 14/1/5 26/1/5 25/1/5
f 8/1/6 13/1/6 25/1/6 19/1/6
f 7/1/7 12/1/7 24/1/7 20/1/7
f 12/1/8 11/1/8 23/1/8 24/1/8
f 11/1/9 10/1/9 22/1/9 23/1/9
f 10/1/10 9/1/10 21/1/10 22/1/10
f 9/1/11 8/1/11 19/1/11 21/1/11
f 2/1/12 1/1/12 6/1/12 18/1/12 17/1/12 16/1/12 15/1/12 14/1/12 13/1/12 8/1/12 9/1/12 10/1/12 11/1/12 12/1/12 7/1/12 5/1/12 4/1/12 3/1/12
