# Blender 4.5.1 LTS
# www.blender.org
o province_111
v -1.529260 0.045516 19.819847
v -0.251515 0.045516 20.303318
v 0.749961 0.045516 20.424187
v 1.699636 0.045516 21.183926
v 1.924104 0.045516 20.562321
v 2.303974 0.045516 20.458719
v 2.303974 0.045516 19.612644
v 2.718378 0.045516 19.198242
v 1.388833 0.045516 18.196766
v 0.076555 0.045516 17.437027
v -0.372383 0.045516 17.730562
v -0.406916 0.045516 18.283100
v -1.252990 0.045516 18.835640
v -1.960930 0.045516 18.939240
v -1.529260 -0.094484 19.819847
v -0.251515 -0.094484 20.303318
v 0.749961 -0.094484 20.424187
v 1.699636 -0.094484 21.183926
v 2.718378 -0.094484 19.198242
v 1.388833 -0.094484 18.196766
v 0.076555 -0.094484 17.437027
vn 0.6017 -0.0000 -0.7988
vn 0.5010 -0.0000 -0.8654
vn -0.6247 -0.0000 0.7809
vn -0.1198 -0.0000 0.9928
vn -0.0000 1.0000 -0.0000
vn -0.3539 -0.0000 0.9353
vt 0.000000 0.000000
s 1
f 19/1/1 9/1/1 8/1/1
s 2
f 20/1/2 10/1/2 9/1/2
s 3
f 17/1/3 4/1/3 3/1/3
s 4
f 16/1/4 3/1/4 2/1/4
s 5
f 9/1/5 12/1/5 3/1/5
s 6
f 15/1/6 2/1/6 1/1/6
s 1
f 19/1/1 20/1/1 9/1/1
s 2
f 20/1/2 21/1/2 10/1/2
s 3
f 17/1/3 18/1/3 4/1/3
s 4
f 16/1/4 17/1/4 3/1/4
s 5
f 13/1/5 14/1/5 1/1/5
f 1/1/5 2/1/5 13/1/5
f 2/1/5 3/1/5 12/1/5
f 3/1/5 4/1/5 5/1/5
f 5/1/5 6/1/5 7/1/5
f 7/1/5 8/1/5 9/1/5
f 9/1/5 10/1/5 12/1/5
f 10/1/5 11/1/5 12/1/5
f 12/1/5 13/1/5 2/1/5
f 5/1/5 7/1/5 3/1/5
f 7/1/5 9/1/5 3/1/5
s 6
f 15/1/6 16/1/6 2/1/6
