# Blender 4.5.1 LTS
# www.blender.org
mtllib province_135.mtl
o province_135
v 2.430764 0.006502 -1.014590
v 2.568077 0.006502 -1.074613
v 2.587810 0.006502 -1.108324
v 2.698400 0.006502 -1.088180
v 2.666744 0.006502 -1.076669
v 2.480920 0.006502 -1.058991
v 2.422542 0.006502 -0.942645
v 2.459543 0.006502 -0.874811
v 2.543821 0.006502 -0.846033
v 2.568488 0.006502 -0.767921
v 2.642489 0.006502 -0.778199
v 2.689767 0.006502 -0.819311
v 2.751434 0.006502 -0.852200
v 2.806935 0.006502 -0.903589
v 2.790490 0.006502 -0.959090
v 2.755545 0.006502 -0.961145
v 2.730879 0.006502 -0.987868
v 2.739101 0.006502 -1.039257
vn -0.0000 1.0000 -0.0000
vt 0.000000 0.000000
s 0
f 2/1/1 9/1/1 17/1/1
f 2/1/1 6/1/1 9/1/1
f 6/1/1 1/1/1 7/1/1
f 9/1/1 6/1/1 8/1/1
f 7/1/1 8/1/1 6/1/1
f 9/1/1 10/1/1 11/1/1
f 5/1/1 3/1/1 2/1/1
f 9/1/1 11/1/1 12/1/1
f 12/1/1 13/1/1 16/1/1
f 13/1/1 14/1/1 16/1/1
f 12/1/1 16/1/1 17/1/1
f 14/1/1 15/1/1 16/1/1
f 17/1/1 18/1/1 5/1/1
f 18/1/1 4/1/1 5/1/1
f 9/1/1 12/1/1 17/1/1
f 5/1/1 2/1/1 17/1/1
