# Blender 4.5.1 LTS
# www.blender.org
o province_044
v -33.125004 0.045516 -11.482624
v -33.990276 0.045516 -11.422950
v -34.736198 0.045516 -10.706863
v -34.855549 0.045516 -9.871428
v -34.139458 0.045516 -9.483546
v -33.870926 0.045516 -9.125503
v -33.930599 0.045516 -8.588438
v -33.542721 0.045516 -8.439253
v -33.304024 0.045516 -8.051372
v -32.951782 0.045516 -8.279293
v -32.868900 0.045516 -8.507214
v -32.537376 0.045516 -8.652256
v -32.205856 0.045516 -8.714416
v -31.853613 0.045516 -9.087378
v -31.004087 0.045516 -9.128818
v -32.549442 0.045516 -11.026973
v -32.177731 0.045516 -11.026973
v -31.566200 0.045516 -11.122900
v -30.966656 0.045516 -11.098918
v -30.451054 0.045516 -10.835120
v -29.935448 0.045516 -10.415442
v -30.763411 0.045516 -9.516134
v -30.951132 0.045516 -9.442077
v -30.465023 0.045516 -9.385589
v -29.930798 0.045516 -9.614541
v -29.746492 0.045516 -9.780416
v -29.616472 0.045516 -10.059031
v -29.616472 0.045516 -10.381034
v -30.951132 -0.094484 -9.442077
v -30.763411 -0.094484 -9.516134
v -30.465023 -0.094484 -9.385589
v -29.930798 -0.094484 -9.614541
v -29.746492 -0.094484 -9.780416
v -29.616472 -0.094484 -10.059031
v -33.125004 -0.094484 -11.482624
v -33.990276 -0.094484 -11.422950
v -34.736198 -0.094484 -10.706863
v -34.855549 -0.094484 -9.871428
v -34.139458 -0.094484 -9.483546
v -33.870926 -0.094484 -9.125503
v -33.930599 -0.094484 -8.588438
v -33.542721 -0.094484 -8.439253
v -33.304024 -0.094484 -8.051372
v -32.549442 -0.094484 -11.026973
v -32.177731 -0.094484 -11.026973
v -31.566200 -0.094484 -11.122900
v -30.966656 -0.094484 -11.098918
v -30.451054 -0.094484 -10.835120
v -29.935448 -0.094484 -10.415442
v -29.616472 -0.094484 -10.381034
vn 1.0000 -0.0000 -0.0000
vn 0.9062 -0.0000 0.4229
vn -0.0688 -0.0000 -0.9976
vn 0.3670 -0.0000 0.9302
vn -0.9939 -0.0000 -0.1104
vn 0.1072 -0.0000 -0.9942
vn -0.8000 -0.0000 0.6000
vn 0.3939 -0.0000 0.9191
vn 0.6313 -0.0000 -0.7756
vn -0.9899 -0.0000 -0.1414
vn 0.4555 -0.0000 -0.8902
vn -0.6925 -0.0000 -0.7214
vn -0.1550 -0.0000 -0.9879
vn 0.6207 -0.0000 -0.7840
vn -0.4763 -0.0000 0.8793
vn -0.0000 -0.0000 -1.0000
vn -0.4008 -0.0000 0.9162
vn 0.6690 -0.0000 0.7433
vn -0.3590 -0.0000 0.9333
vn -0.0000 1.0000 -0.0000
vn -0.8517 -0.0000 0.5241
vn 0.0400 -0.0000 -0.9992
vn -0.9900 -0.0000 -0.1414
vt 0.000000 0.000000
s 1
f 34/1/1 28/1/1 27/1/1
s 2
f 33/1/2 27/1/2 26/1/2
s 3
f 35/1/3 2/1/3 1/1/3
s 4
f 29/1/4 22/1/4 23/1/4
s 5
f 40/1/5 7/1/5 6/1/5
s 6
f 50/1/6 21/1/6 28/1/6
s 7
f 39/1/7 6/1/7 5/1/7
s 8
f 31/1/8 25/1/8 24/1/8
s 9
f 49/1/9 20/1/9 21/1/9
s 10
f 37/1/10 4/1/10 3/1/10
s 11
f 48/1/11 19/1/11 20/1/11
s 12
f 36/1/12 3/1/12 2/1/12
s 13
f 46/1/13 17/1/13 18/1/13
s 14
f 44/1/14 1/1/14 16/1/14
s 15
f 38/1/15 5/1/15 4/1/15
s 16
f 45/1/16 16/1/16 17/1/16
s 17
f 30/1/17 24/1/17 22/1/17
s 18
f 32/1/18 26/1/18 25/1/18
s 19
f 41/1/19 8/1/19 7/1/19
s 20
f 26/1/20 27/1/20 21/1/20
s 21
f 42/1/21 9/1/21 8/1/21
s 22
f 47/1/22 18/1/22 19/1/22
s 1
f 34/1/1 50/1/1 28/1/1
s 2
f 33/1/2 34/1/2 27/1/2
s 3
f 35/1/3 36/1/3 2/1/3
s 4
f 29/1/4 30/1/4 22/1/4
s 5
f 40/1/5 41/1/5 7/1/5
s 6
f 50/1/6 49/1/6 21/1/6
s 7
f 39/1/7 40/1/7 6/1/7
s 8
f 31/1/8 32/1/8 25/1/8
s 9
f 49/1/9 48/1/9 20/1/9
s 10
f 37/1/10 38/1/23 4/1/10
s 11
f 48/1/11 47/1/11 19/1/11
s 12
f 36/1/12 37/1/12 3/1/12
s 13
f 46/1/13 45/1/13 17/1/13
s 14
f 44/1/14 35/1/14 1/1/14
s 15
f 38/1/15 39/1/15 5/1/15
s 16
f 45/1/16 44/1/16 16/1/16
s 17
f 30/1/17 31/1/17 24/1/17
s 18
f 32/1/18 33/1/18 26/1/18
s 19
f 41/1/19 42/1/19 8/1/19
s 20
f 6/1/20 7/1/20 8/1/20
f 8/1/20 9/1/20 10/1/20
f 8/1/20 10/1/20 11/1/20
f 6/1/20 8/1/20 11/1/20
f 12/1/20 13/1/20 14/1/20
f 6/1/20 11/1/20 12/1/20
f 3/1/20 4/1/20 5/1/20
f 5/1/20 6/1/20 16/1/20
f 6/1/20 12/1/20 16/1/20
f 14/1/20 15/1/20 23/1/20
f 12/1/20 14/1/20 16/1/20
f 2/1/20 3/1/20 5/1/20
f 16/1/20 1/1/20 2/1/20
f 19/1/20 18/1/20 23/1/20
f 18/1/20 17/1/20 23/1/20
f 19/1/20 23/1/20 22/1/20
f 16/1/20 2/1/20 5/1/20
f 20/1/20 19/1/20 22/1/20
f 17/1/20 16/1/20 14/1/20
f 14/1/20 23/1/20 17/1/20
f 22/1/20 24/1/20 25/1/20
f 27/1/20 28/1/20 21/1/20
f 21/1/20 20/1/20 22/1/20
f 22/1/20 25/1/20 21/1/20
f 25/1/20 26/1/20 21/1/20
s 21
f 42/1/21 43/1/21 9/1/21
s 22
f 47/1/22 46/1/22 18/1/22
