# Blender 4.5.1 LTS
# www.blender.org
mtllib province_156.mtl
o province_156
v 0.159794 0.001999 0.027957
v 0.201501 0.001999 0.024744
v 0.207211 0.001999 0.031168
v 0.204927 0.001999 0.038305
v 0.207211 0.001999 0.042302
v 0.196362 0.001999 0.019890
v 0.193650 0.001999 0.012182
v 0.188368 0.001999 0.011468
v 0.184942 0.001999 0.006187
v 0.179946 0.001999 0.009755
v 0.178804 0.001999 0.014894
v 0.173094 0.001999 0.018035
v 0.171952 0.001999 0.024173
v 0.165529 0.001999 0.025315
v 0.159121 0.001999 0.032671
v 0.194048 0.001999 0.044360
v 0.190244 0.001999 0.041594
v 0.191113 0.001999 0.033335
v 0.177679 0.001999 0.031285
v 0.164661 0.001999 0.033288
v 0.204021 0.001999 0.044977
v 0.159121 -0.000001 0.032671
v 0.194048 -0.000001 0.044360
v 0.190244 -0.000001 0.041594
v 0.191113 -0.000001 0.033335
v 0.177679 -0.000001 0.031285
v 0.164661 -0.000001 0.033288
v 0.204021 -0.000001 0.044977
vn -0.0000 1.0000 -0.0000
vn -0.5882 -0.0000 0.8087
vn -0.9945 -0.0000 -0.1047
vn -0.1508 -0.0000 0.9886
vn 0.1521 -0.0000 0.9884
vn -0.1106 -0.0000 0.9939
vn -0.0617 -0.0000 0.9981
vt 0.000000 0.000000
s 0
f 15/1/1 20/1/1 19/1/1 18/1/1 17/1/1 16/1/1 21/1/1 5/1/1 4/1/1 3/1/1 2/1/1 6/1/1 7/1/1 8/1/1 9/1/1 10/1/1 11/1/1 12/1/1 13/1/1 14/1/1 1/1/1
f 16/1/2 17/1/2 24/1/2 23/1/2
f 17/1/3 18/1/3 25/1/3 24/1/3
f 18/1/4 19/1/4 26/1/4 25/1/4
f 19/1/5 20/1/5 27/1/5 26/1/5
f 20/1/6 15/1/6 22/1/6 27/1/6
f 21/1/7 16/1/7 23/1/7 28/1/7
