# Blender 4.5.1 LTS
# www.blender.org
mtllib province_001.mtl
o province_001
v 0.010936 0.006502 2.491004
v -0.053198 0.006502 2.532938
v -0.058131 0.006502 2.611871
v -0.178999 0.006502 2.690806
v -0.280133 0.006502 2.705606
v -0.336867 0.006502 2.656272
v -0.475001 0.006502 2.656272
v -0.504601 0.006502 2.550204
v -0.509535 0.006502 2.434270
v -0.211066 0.006502 2.429337
v -0.457001 0.006502 2.371230
v -0.313507 0.006502 2.323578
v -0.223666 0.006502 2.382535
v -0.457001 -0.013498 2.371230
v -0.313507 -0.013498 2.323578
v 0.010936 -0.013498 2.491004
v -0.211066 -0.013498 2.429337
v -0.223666 -0.013498 2.382535
vn -0.0000 1.0000 -0.0000
vn -0.3152 -0.0000 -0.9490
vn 0.5487 -0.0000 -0.8360
vn 0.2676 -0.0000 -0.9635
vn 0.9656 -0.0000 -0.2600
vt 0.000000 0.000000
s 0
f 6/1/1 4/1/1 10/1/1
f 12/1/2 14/1/2 11/1/2
f 13/1/3 15/1/3 12/1/3
f 1/1/4 17/1/4 10/1/4
f 10/1/5 18/1/5 13/1/5
f 2/1/1 1/1/1 10/1/1
f 10/1/1 13/1/1 12/1/1
f 12/1/1 11/1/1 10/1/1
f 11/1/1 9/1/1 8/1/1
f 10/1/1 11/1/1 8/1/1
f 8/1/1 7/1/1 6/1/1
f 6/1/1 5/1/1 4/1/1
f 8/1/1 6/1/1 10/1/1
f 3/1/1 2/1/1 4/1/1
f 2/1/1 10/1/1 4/1/1
f 12/1/2 15/1/2 14/1/2
f 13/1/3 18/1/3 15/1/3
f 1/1/4 16/1/4 17/1/4
f 10/1/5 17/1/5 18/1/5
