# Blender 4.5.1 LTS
# www.blender.org
mtllib province_053.mtl
o province_053
v -2.802068 0.006502 0.425915
v -2.850807 0.006502 0.406915
v -2.794633 0.006502 0.371394
v -2.770676 0.006502 0.347437
v -2.801242 0.006502 0.305307
v -2.753329 0.006502 0.216089
v -2.703763 0.006502 0.162394
v -2.731850 0.006502 0.126872
v -2.759937 0.006502 0.430046
v -2.714502 0.006502 0.485394
v -2.673198 0.006502 0.491176
v -2.610415 0.006502 0.458959
v -2.581502 0.006502 0.435002
v -2.542676 0.006502 0.440785
v -2.512937 0.006502 0.481263
v -2.477415 0.006502 0.476306
v -2.469980 0.006502 0.441611
v -2.442719 0.006502 0.406089
v -2.426198 0.006502 0.342480
v -2.459241 0.006502 0.283002
v -2.413806 0.006502 0.235915
v -2.427850 0.006502 0.184698
v -2.488154 0.006502 0.102915
v -2.535241 0.006502 0.120263
v -2.589763 0.006502 0.101263
v -2.626937 0.006502 0.105393
v -2.655850 0.006502 0.069046
v -2.692198 0.006502 0.110350
v -2.802068 0.006502 0.425915
v -2.759937 0.006502 0.430046
v -2.850807 0.006502 0.406915
v -2.714502 0.006502 0.485394
v -2.673198 0.006502 0.491176
v -2.610415 0.006502 0.458959
v -2.581502 0.006502 0.435002
v -2.542676 0.006502 0.440785
v -2.512937 0.006502 0.481263
v -2.477415 0.006502 0.476306
vn -0.0000 1.0000 -0.0000
vt 0.000000 0.000000
s 0
f 26/1/1 28/1/1 7/1/1
f 10/1/1 30/1/1 32/1/1
f 11/1/1 32/1/1 33/1/1
f 12/1/1 33/1/1 34/1/1
f 13/1/1 34/1/1 35/1/1
f 14/1/1 35/1/1 36/1/1
f 15/1/1 36/1/1 37/1/1
f 16/1/1 37/1/1 38/1/1
f 9/1/1 29/1/1 30/1/1
f 1/1/1 31/1/1 29/1/1
f 9/1/1 10/1/1 11/1/1
f 11/1/1 12/1/1 9/1/1
f 12/1/1 13/1/1 4/1/1
f 9/1/1 12/1/1 4/1/1
f 14/1/1 15/1/1 17/1/1
f 15/1/1 16/1/1 17/1/1
f 1/1/1 9/1/1 3/1/1
f 3/1/1 9/1/1 4/1/1
f 13/1/1 14/1/1 20/1/1
f 14/1/1 17/1/1 18/1/1
f 20/1/1 14/1/1 18/1/1
f 18/1/1 19/1/1 20/1/1
f 20/1/1 21/1/1 22/1/1
f 2/1/1 1/1/1 3/1/1
f 20/1/1 22/1/1 24/1/1
f 22/1/1 23/1/1 24/1/1
f 24/1/1 25/1/1 26/1/1
f 13/1/1 20/1/1 7/1/1
f 4/1/1 13/1/1 6/1/1
f 20/1/1 24/1/1 7/1/1
f 24/1/1 26/1/1 7/1/1
f 26/1/1 27/1/1 28/1/1
f 28/1/1 8/1/1 7/1/1
f 7/1/1 6/1/1 13/1/1
f 6/1/1 5/1/1 4/1/1
f 10/1/1 9/1/1 30/1/1
f 11/1/1 10/1/1 32/1/1
f 12/1/1 11/1/1 33/1/1
f 13/1/1 12/1/1 34/1/1
f 14/1/1 13/1/1 35/1/1
f 15/1/1 14/1/1 36/1/1
f 16/1/1 15/1/1 37/1/1
f 9/1/1 1/1/1 29/1/1
f 1/1/1 2/1/1 31/1/1
