# Blender 4.5.1 LTS
# www.blender.org
mtllib province_165.mtl
o province_165
v -0.342059 0.001999 0.208973
v -0.337420 0.001999 0.205523
v -0.332424 0.001999 0.207545
v -0.328141 0.001999 0.207308
v -0.322907 0.001999 0.203977
v -0.315651 0.001999 0.204928
v -0.342059 0.001999 0.214540
v -0.345200 0.001999 0.219822
v -0.309798 0.001999 0.234810
v -0.307514 0.001999 0.228958
v -0.307086 0.001999 0.222534
v -0.304802 0.001999 0.217538
v -0.312082 0.001999 0.205547
v -0.349628 0.001999 0.222852
v -0.346129 0.001999 0.226601
v -0.339397 0.001999 0.226320
v -0.332942 0.001999 0.231198
v -0.325764 0.001999 0.231333
v -0.324605 0.001999 0.232695
v -0.342059 -0.000001 0.208973
v -0.342059 -0.000001 0.214540
v -0.345200 -0.000001 0.219822
v -0.324605 -0.000001 0.232695
v -0.325764 -0.000001 0.231333
v -0.349628 -0.000001 0.222852
v -0.346129 -0.000001 0.226601
v -0.339397 -0.000001 0.226320
v -0.332942 -0.000001 0.231198
vn -0.7311 -0.0000 0.6823
vn 0.0416 -0.0000 0.9991
vn -0.6028 -0.0000 0.7979
vn -0.0000 1.0000 -0.0000
vn -1.0000 -0.0000 -0.0000
vn -0.8595 -0.0000 -0.5111
vn -0.5647 -0.0000 -0.8253
vn -0.7616 -0.0000 0.6481
vn -0.0189 -0.0000 0.9998
vt 0.000000 0.000000
s 0
f 15/1/1 14/1/1 25/1/1 26/1/1
f 16/1/2 15/1/2 26/1/2 27/1/2
f 17/1/3 16/1/3 27/1/3 28/1/3
f 2/1/4 1/1/4 7/1/4 8/1/4 14/1/4 15/1/4 16/1/4 17/1/4 18/1/4 19/1/4 9/1/4 10/1/4 11/1/4 12/1/4 13/1/4 6/1/4 5/1/4 4/1/4 3/1/4
f 7/1/5 1/1/5 20/1/5 21/1/5
f 8/1/6 7/1/6 21/1/6 22/1/6
f 14/1/7 8/1/7 22/1/7 25/1/7
f 19/1/8 18/1/8 24/1/8 23/1/8
f 18/1/9 17/1/9 28/1/9 24/1/9
