# Blender 4.5.1 LTS
# www.blender.org
mtllib province_036.mtl
o province_036
v 0.203544 0.001999 0.370924
v 0.197583 0.001999 0.375035
v 0.198611 0.001999 0.384491
v 0.207656 0.001999 0.391685
v 0.222250 0.001999 0.397852
v 0.227184 0.001999 0.387985
v 0.234378 0.001999 0.387369
v 0.237050 0.001999 0.375035
v 0.205335 0.001999 0.362867
v 0.233039 0.001999 0.368756
v 0.211502 0.001999 0.365745
v 0.219215 0.001999 0.365745
v 0.221221 0.001999 0.362503
v 0.224777 0.001999 0.368260
v 0.205335 -0.000001 0.362867
v 0.211502 -0.000001 0.365745
v 0.219215 -0.000001 0.365745
v 0.221221 -0.000001 0.362503
v 0.224777 -0.000001 0.368260
v 0.233039 -0.000001 0.368756
v 0.203544 -0.000001 0.370924
v 0.197583 -0.000001 0.375035
v 0.198611 -0.000001 0.384491
v 0.207656 -0.000001 0.391685
v 0.222250 -0.000001 0.397852
vn 0.0600 -0.0000 -0.9982
vn 0.8508 -0.0000 -0.5255
vn -0.8503 -0.0000 -0.5264
vn -0.0000 -0.0000 -1.0000
vn 0.4229 -0.0000 -0.9062
vn -0.0000 1.0000 -0.0000
vn -0.5677 -0.0000 -0.8232
vn -0.9941 -0.0000 0.1081
vn -0.6225 -0.0000 0.7826
vn -0.3892 -0.0000 0.9211
vn -0.9762 -0.0000 -0.2169
vt 0.000000 0.000000
s 0
f 14/1/1 10/1/1 20/1/1 19/1/1
f 13/1/2 14/1/2 19/1/2 18/1/2
f 12/1/3 13/1/3 18/1/3 17/1/3
f 11/1/4 12/1/4 17/1/4 16/1/4
f 9/1/5 11/1/5 16/1/5 15/1/5
f 4/1/6 5/1/6 6/1/6 7/1/6 8/1/6 10/1/6 14/1/6 13/1/6 12/1/6 11/1/6 9/1/6 1/1/6 2/1/6 3/1/6
f 2/1/7 1/1/7 21/1/7 22/1/7
f 3/1/8 2/1/8 22/1/8 23/1/8
f 4/1/9 3/1/9 23/1/9 24/1/9
f 5/1/10 4/1/10 24/1/10 25/1/10
f 1/1/11 9/1/11 15/1/11 21/1/11
