# Blender 4.5.1 LTS
# www.blender.org
mtllib province_151.mtl
o province_151
v -0.060772 0.001999 0.269988
v -0.066939 0.001999 0.263136
v -0.054948 0.001999 0.276326
v -0.088645 0.001999 0.261409
v -0.099252 0.001999 0.269303
v -0.098512 0.001999 0.281883
v -0.105912 0.001999 0.286323
v -0.108872 0.001999 0.294216
v -0.090125 0.001999 0.302110
v -0.100979 0.001999 0.304330
v -0.104185 0.001999 0.297670
v -0.082725 0.001999 0.299397
v -0.077545 0.001999 0.294463
v -0.066692 0.001999 0.296683
v -0.063978 0.001999 0.292983
v -0.054605 0.001999 0.283856
v -0.066939 -0.000001 0.263136
v -0.088645 -0.000001 0.261409
v -0.099252 -0.000001 0.269303
v -0.098512 -0.000001 0.281883
v -0.105912 -0.000001 0.286323
v -0.108872 -0.000001 0.294216
vn -0.0000 1.0000 -0.0000
vn 0.0793 -0.0000 -0.9969
vn -0.5970 -0.0000 -0.8022
vn -0.9983 -0.0000 0.0587
vn -0.5145 -0.0000 -0.8575
vn -0.9363 -0.0000 -0.3511
vt 0.000000 0.000000
s 0
f 10/1/1 9/1/1 12/1/1 13/1/1 14/1/1 15/1/1 16/1/1 3/1/1 1/1/1 2/1/1 4/1/1 5/1/1 6/1/1 7/1/1 8/1/1 11/1/1
f 4/1/2 2/1/2 17/1/2 18/1/2
f 5/1/3 4/1/3 18/1/3 19/1/3
f 6/1/4 5/1/4 19/1/4 20/1/4
f 7/1/5 6/1/5 20/1/5 21/1/5
f 8/1/6 7/1/6 21/1/6 22/1/6
