# Blender 4.5.1 LTS
# www.blender.org
mtllib province_083.mtl
o province_083
v -0.070571 0.001999 -0.046400
v -0.063377 0.001999 -0.047633
v -0.052894 0.001999 -0.044755
v -0.041588 0.001999 -0.048661
v -0.035832 0.001999 -0.045989
v -0.029666 0.001999 -0.048867
v -0.076327 0.001999 -0.078878
v -0.065844 0.001999 -0.080111
v -0.067077 0.001999 -0.073122
v -0.062555 0.001999 -0.069422
v -0.057210 0.001999 -0.071272
v -0.051043 0.001999 -0.071478
v -0.045082 0.001999 -0.076206
v -0.041382 0.001999 -0.072506
v -0.044671 0.001999 -0.067983
v -0.041382 0.001999 -0.063667
v -0.033366 0.001999 -0.063256
v -0.029871 0.001999 -0.057500
v -0.086043 0.001999 -0.071964
v -0.079360 0.001999 -0.061838
v -0.075054 0.001999 -0.048001
v -0.079360 -0.000001 -0.061838
v -0.075054 -0.000001 -0.048001
v -0.076327 -0.000001 -0.078878
v -0.065844 -0.000001 -0.080111
v -0.086043 -0.000001 -0.071964
vn -0.9548 -0.0000 0.2971
vn -0.8346 -0.0000 0.5508
vn -0.0000 1.0000 -0.0000
vn -0.5798 -0.0000 -0.8148
vn -0.1168 -0.0000 -0.9932
vt 0.000000 0.000000
s 0
f 21/1/1 20/1/1 22/1/1 23/1/1
f 20/1/2 19/1/2 26/1/2 22/1/2
f 7/1/3 19/1/3 20/1/3 21/1/3 1/1/3 2/1/3 3/1/3 4/1/3 5/1/3 6/1/3 18/1/3 17/1/3 16/1/3 15/1/3 14/1/3 13/1/3 12/1/3 11/1/3 10/1/3 9/1/3 8/1/3
f 19/1/4 7/1/4 24/1/4 26/1/4
f 7/1/5 8/1/5 25/1/5 24/1/5
