# Blender 4.5.1 LTS
# www.blender.org
mtllib province_015.mtl
o province_015
v -0.362373 0.006502 0.190698
v -0.259595 0.006502 0.194980
v -0.233900 0.006502 0.230667
v -0.192788 0.006502 0.231124
v -0.142541 0.006502 0.189270
v -0.076877 0.006502 0.176423
v -0.016923 0.006502 0.123606
v -0.025488 0.006502 0.087919
v -0.076877 0.006502 0.039385
v -0.075450 0.006502 -0.002012
v -0.149679 0.006502 -0.027707
v -0.172518 0.006502 -0.073386
v -0.295282 0.006502 -0.081951
v -0.332396 0.006502 -0.111928
v -0.435096 0.006502 -0.122072
v -0.469205 0.006502 -0.075125
v -0.450250 0.006502 -0.022323
v -0.454745 0.006502 0.058578
v -0.479756 0.006502 0.142440
v -0.435096 -0.013498 -0.122072
v -0.469205 -0.013498 -0.075125
v -0.450250 -0.013498 -0.022323
v -0.454745 -0.013498 0.058578
v -0.479756 -0.013498 0.142440
vn -0.9583 -0.0000 -0.2858
vn -0.9985 -0.0000 -0.0555
vn -0.9412 -0.0000 0.3379
vn -0.8090 -0.0000 -0.5878
vn -0.0000 1.0000 -0.0000
vt 0.000000 0.000000
s 0
f 18/1/1 24/1/1 19/1/1
f 17/1/2 23/1/2 18/1/2
f 16/1/3 22/1/3 17/1/3
f 15/1/4 21/1/4 16/1/4
f 9/1/5 11/1/5 5/1/5
f 18/1/1 23/1/1 24/1/1
f 17/1/2 22/1/2 23/1/2
f 16/1/3 21/1/3 22/1/3
f 15/1/4 20/1/4 21/1/4
f 13/1/5 14/1/5 17/1/5
f 14/1/5 15/1/5 17/1/5
f 15/1/5 16/1/5 17/1/5
f 18/1/5 19/1/5 1/1/5
f 17/1/5 18/1/5 13/1/5
f 11/1/5 12/1/5 13/1/5
f 18/1/5 1/1/5 13/1/5
f 1/1/5 2/1/5 13/1/5
f 2/1/5 3/1/5 4/1/5
f 5/1/5 6/1/5 9/1/5
f 6/1/5 7/1/5 8/1/5
f 9/1/5 6/1/5 8/1/5
f 2/1/5 4/1/5 5/1/5
f 9/1/5 10/1/5 11/1/5
f 11/1/5 13/1/5 2/1/5
f 2/1/5 5/1/5 11/1/5
