# Blender 4.5.1 LTS
# www.blender.org
mtllib province_032.mtl
o province_032
v 0.292761 0.006502 -0.137425
v 0.209492 0.006502 -0.114625
v 0.192639 0.006502 -0.037303
v 0.134152 0.006502 -0.007564
v 0.116309 0.006502 0.057863
v 0.124239 0.006502 0.130228
v 0.078639 0.006502 0.212506
v 0.179752 0.006502 0.199619
v 0.294744 0.006502 0.145098
v 0.339353 0.006502 0.137167
v 0.414692 0.006502 0.115358
v 0.502918 0.006502 0.139150
v 0.565371 0.006502 0.156993
v 0.615927 0.006502 0.123289
v 0.605023 0.006502 0.048941
v 0.513823 0.006502 0.017219
v 0.507875 0.006502 -0.030364
v 0.376031 0.006502 -0.074972
vn -0.0000 1.0000 -0.0000
vt 0.000000 0.000000
s 0
f 18/1/1 11/1/1 16/1/1
f 6/1/1 7/1/1 8/1/1
f 9/1/1 10/1/1 3/1/1
f 10/1/1 11/1/1 18/1/1
f 6/1/1 8/1/1 9/1/1
f 4/1/1 5/1/1 3/1/1
f 5/1/1 6/1/1 9/1/1
f 3/1/1 5/1/1 9/1/1
f 1/1/1 2/1/1 3/1/1
f 10/1/1 18/1/1 3/1/1
f 12/1/1 13/1/1 15/1/1
f 13/1/1 14/1/1 15/1/1
f 11/1/1 12/1/1 16/1/1
f 16/1/1 12/1/1 15/1/1
f 16/1/1 17/1/1 18/1/1
f 18/1/1 1/1/1 3/1/1
