# Blender 4.5.1 LTS
# www.blender.org
mtllib province_180.mtl
o province_180
v 1.789811 0.006502 3.636903
v 1.795759 0.006502 3.603595
v 1.886167 0.006502 3.527462
v 2.036053 0.006502 3.531031
v 2.202593 0.006502 3.500102
v 2.257314 0.006502 3.435865
v 2.253745 0.006502 3.393040
v 2.139546 0.006502 3.356164
v 2.080067 0.006502 3.314528
v 2.130029 0.006502 3.247912
v 2.134787 0.006502 3.164642
v 2.203783 0.006502 3.125386
v 2.235901 0.006502 3.118249
v 2.899597 0.006502 3.418979
v 2.859673 0.006502 3.352855
v 2.788545 0.006502 3.345447
v 2.779252 0.006502 3.304288
v 2.612832 0.006502 3.271698
v 2.693545 0.006502 3.322143
v 2.878816 0.006502 3.491713
v 2.920172 0.006502 3.545475
v 2.899343 0.006502 3.636903
v 2.255946 0.006502 3.069568
v 2.299682 0.006502 3.063350
v 2.302894 0.006502 3.115825
v 2.343603 0.006502 3.139572
v 2.334497 0.006502 3.178270
v 2.410877 0.006502 3.247578
v 2.459353 0.006502 3.214823
v 2.497523 0.006502 3.216732
v 2.531628 0.006502 3.260245
v 2.899597 -0.013498 3.418979
v 2.859673 -0.013498 3.352855
v 2.788545 -0.013498 3.345447
v 2.779252 -0.013498 3.304288
v 2.693545 -0.013498 3.322143
v 2.612832 -0.013498 3.271698
v 2.878816 -0.013498 3.491713
v 2.920172 -0.013498 3.545475
v 2.255946 -0.013498 3.069568
v 2.299682 -0.013498 3.063350
v 2.302894 -0.013498 3.115825
v 2.343603 -0.013498 3.139572
v 2.334497 -0.013498 3.178270
v 2.410877 -0.013498 3.247578
v 2.459353 -0.013498 3.214823
v 2.497523 -0.013498 3.216732
v 2.531628 -0.013498 3.260245
v 1.789811 -0.013498 3.636903
v 1.795759 -0.013498 3.603595
v 1.886167 -0.013498 3.527462
v 2.036053 -0.013498 3.531031
v 2.202593 -0.013498 3.500102
v 2.257314 -0.013498 3.435865
v 2.253745 -0.013498 3.393040
v 2.139546 -0.013498 3.356164
v 2.080067 -0.013498 3.314528
v 2.899343 -0.013498 3.636903
vn 0.1397 -0.0000 -0.9902
vn 0.7871 -0.0000 -0.6169
vn 0.0499 -0.0000 -0.9988
vn -0.5599 -0.0000 -0.8286
vn 0.6720 -0.0000 -0.7406
vn 0.9734 -0.0000 0.2290
vn 0.5039 -0.0000 -0.8638
vn 0.9981 -0.0000 -0.0611
vn -0.1408 -0.0000 -0.9900
vn 0.9750 -0.0000 0.2221
vn 0.7926 -0.0000 -0.6097
vn 0.9615 -0.0000 0.2747
vn -0.2040 -0.0000 -0.9790
vn 0.5300 -0.0000 -0.8480
vn 0.9754 -0.0000 -0.2203
vn 0.1036 -0.0000 -0.9946
vn 0.8561 -0.0000 -0.5169
vn -0.0000 1.0000 -0.0000
vn -0.9844 -0.0000 -0.1758
vn -0.6441 -0.0000 -0.7649
vn 0.0238 -0.0000 -0.9997
vn -0.1826 -0.0000 -0.9832
vn -0.7612 -0.0000 -0.6485
vn -0.9965 -0.0000 0.0830
vn -0.3073 -0.0000 0.9516
vn -0.5735 -0.0000 0.8192
vn -0.0000 -0.0000 1.0000
vn -0.9965 -0.0000 0.0831
vt 0.000000 0.000000
s 0
f 18/1/1 48/1/1 31/1/1
f 31/1/2 47/1/2 30/1/2
f 30/1/3 46/1/3 29/1/3
f 29/1/4 45/1/4 28/1/4
f 28/1/5 44/1/5 27/1/5
f 27/1/6 43/1/6 26/1/6
f 26/1/7 42/1/7 25/1/7
f 25/1/8 41/1/8 24/1/8
f 24/1/9 40/1/9 23/1/9
f 22/1/10 39/1/10 21/1/10
f 21/1/11 38/1/11 20/1/11
f 20/1/12 32/1/12 14/1/12
f 17/1/13 36/1/13 19/1/13
f 19/1/14 37/1/14 18/1/14
f 16/1/15 35/1/15 17/1/15
f 15/1/16 34/1/16 16/1/16
f 14/1/17 33/1/17 15/1/17
f 5/1/18 4/1/18 1/1/18
f 2/1/19 49/1/19 1/1/19
f 3/1/20 50/1/20 2/1/20
f 4/1/21 51/1/21 3/1/21
f 5/1/22 52/1/22 4/1/22
f 6/1/23 53/1/23 5/1/23
f 7/1/24 54/1/24 6/1/24
f 8/1/25 55/1/25 7/1/25
f 9/1/26 56/1/26 8/1/26
f 1/1/27 58/1/27 22/1/27
f 18/1/1 37/1/1 48/1/1
f 31/1/2 48/1/2 47/1/2
f 30/1/3 47/1/3 46/1/3
f 29/1/4 46/1/4 45/1/4
f 28/1/5 45/1/5 44/1/5
f 27/1/6 44/1/6 43/1/6
f 26/1/7 43/1/7 42/1/7
f 25/1/8 42/1/8 41/1/8
f 24/1/9 41/1/9 40/1/9
f 22/1/10 58/1/10 39/1/10
f 21/1/11 39/1/11 38/1/11
f 20/1/12 38/1/12 32/1/12
f 17/1/13 35/1/13 36/1/13
f 19/1/14 36/1/14 37/1/14
f 16/1/15 34/1/15 35/1/15
f 15/1/16 33/1/16 34/1/16
f 14/1/17 32/1/17 33/1/17
f 19/1/18 18/1/18 31/1/18
f 31/1/18 30/1/18 29/1/18
f 31/1/18 29/1/18 28/1/18
f 16/1/18 17/1/18 19/1/18
f 19/1/18 31/1/18 6/1/18
f 31/1/18 28/1/18 6/1/18
f 6/1/18 28/1/18 7/1/18
f 27/1/18 26/1/18 25/1/18
f 25/1/18 24/1/18 23/1/18
f 13/1/18 12/1/18 27/1/18
f 12/1/18 11/1/18 10/1/18
f 25/1/18 23/1/18 13/1/18
f 27/1/18 25/1/18 13/1/18
f 12/1/18 10/1/18 27/1/18
f 10/1/18 9/1/18 8/1/18
f 10/1/18 8/1/18 7/1/18
f 28/1/18 27/1/18 7/1/18
f 27/1/18 10/1/18 7/1/18
f 14/1/18 15/1/18 16/1/18
f 16/1/18 19/1/18 20/1/18
f 19/1/18 6/1/18 22/1/18
f 20/1/18 19/1/18 22/1/18
f 6/1/18 5/1/18 22/1/18
f 20/1/18 14/1/18 16/1/18
f 22/1/18 21/1/18 20/1/18
f 2/1/18 1/1/18 3/1/18
f 1/1/18 22/1/18 5/1/18
f 4/1/18 3/1/18 1/1/18
f 2/1/19 50/1/19 49/1/19
f 3/1/20 51/1/20 50/1/20
f 4/1/21 52/1/21 51/1/21
f 5/1/22 53/1/22 52/1/22
f 6/1/23 54/1/23 53/1/23
f 7/1/28 55/1/28 54/1/28
f 8/1/25 56/1/25 55/1/25
f 9/1/26 57/1/26 56/1/26
f 1/1/27 49/1/27 58/1/27
