# Blender 4.5.1 LTS
# www.blender.org
o province_172
v 3.183475 0.045516 6.931010
v 3.500033 0.045516 6.355449
v 3.384921 0.045516 5.851834
v 3.571978 0.045516 5.506498
v 4.190705 0.045516 5.808667
v 4.636765 0.045516 5.707943
v 4.982101 0.045516 5.492108
v 5.068436 0.045516 5.017271
v 3.411301 0.045516 7.194808
v 3.315374 0.045516 7.566525
v 3.818989 0.045516 7.854304
v 3.890934 0.045516 8.345929
v 4.502468 0.045516 8.537784
v 4.622376 0.045516 8.921491
v 5.874221 0.045516 5.218717
v 6.176390 0.045516 5.564053
v 6.838285 0.045516 5.290661
v 7.154843 0.045516 5.635997
v 6.895841 0.045516 6.125225
v 6.478560 0.045516 6.369837
v 7.068510 0.045516 6.686396
v 7.341902 0.045516 7.103677
v 7.198012 0.045516 7.650460
v 6.205170 0.045516 7.679237
v 5.572053 0.045516 7.449012
v 5.068438 0.045516 7.808738
v 5.082827 0.045516 8.456244
v 4.622376 -0.094484 8.921491
v 7.198012 -0.094484 7.650460
v 6.205170 -0.094484 7.679237
v 5.572053 -0.094484 7.449012
v 5.068438 -0.094484 7.808738
v 5.082827 -0.094484 8.456244
vn 0.0290 -0.0000 0.9996
vn 0.7108 -0.0000 0.7034
vn 0.5812 -0.0000 0.8137
vn -0.0000 1.0000 -0.0000
vn -0.3417 -0.0000 0.9398
vn 0.9998 -0.0000 -0.0222
vt 0.000000 0.000000
s 1
f 30/1/1 23/1/1 24/1/1
s 2
f 28/1/2 27/1/2 14/1/2
s 3
f 32/1/3 25/1/3 26/1/3
s 4
f 25/1/4 24/1/4 20/1/4
s 5
f 31/1/5 24/1/5 25/1/5
s 6
f 33/1/6 26/1/6 27/1/6
s 1
f 30/1/1 29/1/1 23/1/1
s 2
f 28/1/2 33/1/2 27/1/2
s 3
f 32/1/3 31/1/3 25/1/3
s 4
f 18/1/4 17/1/4 19/1/4
f 17/1/4 16/1/4 19/1/4
f 16/1/4 15/1/4 7/1/4
f 15/1/4 8/1/4 7/1/4
f 22/1/4 21/1/4 23/1/4
f 21/1/4 20/1/4 24/1/4
f 20/1/4 19/1/4 16/1/4
f 16/1/4 7/1/4 20/1/4
f 7/1/4 6/1/4 25/1/4
f 20/1/4 7/1/4 25/1/4
f 5/1/4 4/1/4 3/1/4
f 6/1/4 5/1/4 26/1/4
f 21/1/4 24/1/4 23/1/4
f 25/1/4 6/1/4 26/1/4
f 5/1/4 3/1/4 2/1/4
f 2/1/4 1/1/4 9/1/4
f 9/1/4 10/1/4 11/1/4
f 11/1/4 12/1/4 13/1/4
f 13/1/4 14/1/4 27/1/4
f 13/1/4 27/1/4 26/1/4
f 9/1/4 11/1/4 26/1/4
f 11/1/4 13/1/4 26/1/4
f 5/1/4 2/1/4 26/1/4
f 2/1/4 9/1/4 26/1/4
s 5
f 31/1/5 30/1/5 24/1/5
s 6
f 33/1/6 32/1/6 26/1/6
