# Blender 4.5.1 LTS
# www.blender.org
mtllib province_060.mtl
o province_060
v -0.309798 0.001999 0.234810
v -0.360474 0.001999 0.227958
v -0.364471 0.001999 0.232098
v -0.368753 0.001999 0.234239
v -0.369895 0.001999 0.239521
v -0.362330 0.001999 0.244660
v -0.354193 0.001999 0.253510
v -0.349339 0.001999 0.263931
v -0.340204 0.001999 0.264074
v -0.323930 0.001999 0.262789
v -0.315508 0.001999 0.264074
v -0.314937 0.001999 0.259791
v -0.309227 0.001999 0.254938
v -0.314366 0.001999 0.249371
v -0.314081 0.001999 0.245516
v -0.351774 0.001999 0.224050
v -0.347125 0.001999 0.229031
v -0.340153 0.001999 0.228740
v -0.333762 0.001999 0.233569
v -0.325809 0.001999 0.233719
v -0.324605 0.001999 0.232695
v -0.308253 0.001999 0.239689
v -0.307973 0.001999 0.237308
v -0.307973 -0.000001 0.237308
v -0.308253 -0.000001 0.239689
v -0.360474 -0.000001 0.227958
v -0.364471 -0.000001 0.232098
v -0.368753 -0.000001 0.234239
v -0.369895 -0.000001 0.239521
v -0.362330 -0.000001 0.244660
v -0.354193 -0.000001 0.253510
v -0.349339 -0.000001 0.263931
v -0.340204 -0.000001 0.264074
v -0.323930 -0.000001 0.262789
v -0.315508 -0.000001 0.264074
v -0.351774 -0.000001 0.224050
v -0.324605 -0.000001 0.232695
v -0.325809 -0.000001 0.233719
v -0.347125 -0.000001 0.229031
v -0.340153 -0.000001 0.228740
v -0.333762 -0.000001 0.233569
vn 0.0189 -0.0000 -0.9998
vn -0.6480 -0.0000 -0.7616
vn -0.0000 1.0000 -0.0000
vn 0.9932 -0.0000 0.1168
vn -0.7194 -0.0000 -0.6946
vn -0.4472 -0.0000 -0.8944
vn -0.9774 -0.0000 -0.2113
vn -0.5619 -0.0000 0.8272
vn -0.7362 -0.0000 0.6768
vn -0.9065 -0.0000 0.4222
vn -0.0156 -0.0000 0.9999
vn 0.0787 -0.0000 0.9969
vn -0.1508 -0.0000 0.9886
vn -0.4098 -0.0000 -0.9122
vn 0.6028 -0.0000 -0.7979
vn -0.0416 -0.0000 -0.9991
vn 0.7311 -0.0000 -0.6823
vt 0.000000 0.000000
s 0
f 19/1/1 20/1/1 38/1/1 41/1/1
f 20/1/2 21/1/2 37/1/2 38/1/2
f 10/1/3 11/1/3 12/1/3 13/1/3 14/1/3 15/1/3 22/1/3 23/1/3 1/1/3 21/1/3 20/1/3 19/1/3 18/1/3 17/1/3 16/1/3 2/1/3 3/1/3 4/1/3 5/1/3 6/1/3 7/1/3 8/1/3 9/1/3
f 23/1/4 22/1/4 25/1/4 24/1/4
f 3/1/5 2/1/5 26/1/5 27/1/5
f 4/1/6 3/1/6 27/1/6 28/1/6
f 5/1/7 4/1/7 28/1/7 29/1/7
f 6/1/8 5/1/8 29/1/8 30/1/8
f 7/1/9 6/1/9 30/1/9 31/1/9
f 8/1/10 7/1/10 31/1/10 32/1/10
f 9/1/11 8/1/11 32/1/11 33/1/11
f 10/1/12 9/1/12 33/1/12 34/1/12
f 11/1/13 10/1/13 34/1/13 35/1/13
f 2/1/14 16/1/14 36/1/14 26/1/14
f 18/1/15 19/1/15 41/1/15 40/1/15
f 17/1/16 18/1/16 40/1/16 39/1/16
f 16/1/17 17/1/17 39/1/17 36/1/17
