# Blender 4.5.1 LTS
# www.blender.org
o province_019
v 13.219816 0.045516 4.909348
v 13.277372 0.045516 5.743913
v 13.478820 0.045516 6.434588
v 14.198273 0.045516 6.679203
v 15.061617 0.045516 6.636035
v 15.363788 0.045516 7.283543
v 16.155186 0.045516 7.427434
v 16.644413 0.045516 7.154041
v 17.234367 0.045516 6.966984
v 17.752373 0.045516 7.225986
v 18.227213 0.045516 7.197208
v 18.500603 0.045516 6.966984
v 18.529383 0.045516 6.607257
v 17.781151 0.045516 6.204363
v 17.723593 0.045516 5.758303
v 18.140877 0.045516 5.269074
v 17.478977 0.045516 4.736680
v 17.191198 0.045516 4.837402
v 16.572468 0.045516 4.592789
v 15.493288 0.045516 4.333785
v 14.658724 0.045516 4.420120
v 13.968047 0.045516 4.722290
v 13.219816 -0.094484 4.909348
v 13.277372 -0.094484 5.743913
v 13.478820 -0.094484 6.434588
v 14.198273 -0.094484 6.679203
v 15.061617 -0.094484 6.636035
v 15.363788 -0.094484 7.283543
v 16.155186 -0.094484 7.427434
v 17.478977 -0.094484 4.736680
v 17.191198 -0.094484 4.837402
v 16.572468 -0.094484 4.592789
v 15.493288 -0.094484 4.333785
v 14.658724 -0.094484 4.420120
v 13.968047 -0.094484 4.722290
vn -0.0000 1.0000 -0.0000
vn 0.3677 -0.0000 -0.9300
vn -0.2425 -0.0000 -0.9701
vn 0.0499 -0.0000 0.9988
vn 0.2334 -0.0000 -0.9724
vn -0.9062 -0.0000 0.4229
vn -0.9600 -0.0000 0.2800
vn -0.9976 -0.0000 0.0688
vn -0.1789 -0.0000 0.9839
vn -0.1029 -0.0000 -0.9947
vn -0.3219 -0.0000 0.9468
vn -0.3304 -0.0000 -0.9439
vn -0.4008 -0.0000 -0.9162
vt 0.000000 0.000000
s 1
f 19/1/1 5/1/1 8/1/1
s 2
f 31/1/2 19/1/2 18/1/2
s 3
f 35/1/3 1/1/3 22/1/3
s 4
f 26/1/4 5/1/4 4/1/4
s 5
f 32/1/5 20/1/5 19/1/5
s 6
f 27/1/6 6/1/6 5/1/6
s 7
f 24/1/7 3/1/7 2/1/7
s 8
f 23/1/8 2/1/8 1/1/8
s 9
f 28/1/9 7/1/9 6/1/9
s 10
f 33/1/10 21/1/10 20/1/10
s 11
f 25/1/11 4/1/11 3/1/11
s 12
f 30/1/12 18/1/12 17/1/12
s 13
f 34/1/13 22/1/13 21/1/13
s 1
f 9/1/1 10/1/1 14/1/1
f 10/1/1 11/1/1 14/1/1
f 11/1/1 12/1/1 13/1/1
f 11/1/1 13/1/1 14/1/1
f 15/1/1 16/1/1 17/1/1
f 9/1/1 14/1/1 15/1/1
f 6/1/1 7/1/1 5/1/1
f 7/1/1 8/1/1 5/1/1
f 8/1/1 9/1/1 15/1/1
f 15/1/1 17/1/1 18/1/1
f 18/1/1 19/1/1 8/1/1
f 19/1/1 20/1/1 5/1/1
f 20/1/1 21/1/1 5/1/1
f 21/1/1 22/1/1 5/1/1
f 22/1/1 1/1/1 2/1/1
f 2/1/1 3/1/1 4/1/1
f 2/1/1 4/1/1 22/1/1
f 4/1/1 5/1/1 22/1/1
f 15/1/1 18/1/1 8/1/1
s 2
f 31/1/2 32/1/2 19/1/2
s 3
f 35/1/3 23/1/3 1/1/3
s 4
f 26/1/4 27/1/4 5/1/4
s 5
f 32/1/5 33/1/5 20/1/5
s 6
f 27/1/6 28/1/6 6/1/6
s 7
f 24/1/7 25/1/7 3/1/7
s 8
f 23/1/8 24/1/8 2/1/8
s 9
f 28/1/9 29/1/9 7/1/9
s 10
f 33/1/10 34/1/10 21/1/10
s 11
f 25/1/11 26/1/11 4/1/11
s 12
f 30/1/12 31/1/12 18/1/12
s 13
f 34/1/13 35/1/13 22/1/13
