# Blender 4.5.1 LTS
# www.blender.org
o province_104
v -3.392305 0.045516 5.736722
v -2.642011 0.045516 7.785355
v -3.001736 0.045516 7.065905
v -2.989745 0.045516 6.646225
v -3.433406 0.045516 6.166592
v -2.018486 0.045516 7.521557
v -1.394963 0.045516 7.869290
v -0.831393 0.045516 7.845310
v -0.507640 0.045516 8.348925
v -0.087960 0.045516 8.564760
v 0.511582 0.045516 8.600733
v -2.794494 0.045516 5.688897
v -2.105427 0.045516 5.939079
v -1.711825 0.045516 5.828379
v -1.356507 0.045516 6.098420
v -0.983299 0.045516 6.036219
v -0.970277 0.045516 6.426883
v -0.291381 0.045516 6.701674
v 0.140603 0.045516 6.604129
v 0.737935 0.045516 7.089460
v 0.730398 0.045516 8.451939
v 0.717807 0.045516 7.962664
v 0.380724 0.045516 7.573720
v 0.140603 -0.094484 6.604129
v -2.794494 -0.094484 5.688897
v -2.105427 -0.094484 5.939079
v -1.711825 -0.094484 5.828379
v -1.356507 -0.094484 6.098420
v -0.983299 -0.094484 6.036219
v -0.970277 -0.094484 6.426883
v -0.291381 -0.094484 6.701674
v 0.737935 -0.094484 7.089460
v 0.730398 -0.094484 8.451939
v 0.717807 -0.094484 7.962664
v 0.380724 -0.094484 7.573720
vn 0.8047 -0.0000 0.5936
vn -0.2203 -0.0000 -0.9754
vn -0.2707 -0.0000 -0.9627
vn 0.9997 -0.0000 -0.0257
vn 0.9994 -0.0000 -0.0333
vn -0.1644 -0.0000 -0.9864
vn 0.6306 -0.0000 -0.7761
vn 0.6051 -0.0000 -0.7962
vn -0.0000 1.0000 -0.0000
vn 0.3752 -0.0000 -0.9269
vn 0.7557 -0.0000 -0.6549
vn 0.3413 -0.0000 -0.9400
vt 0.000000 0.000000
s 1
f 35/1/1 20/1/1 23/1/1
s 2
f 24/1/2 18/1/2 19/1/2
s 3
f 27/1/3 13/1/3 14/1/3
s 4
f 33/1/4 22/1/4 21/1/4
s 5
f 30/1/5 16/1/5 17/1/5
s 6
f 29/1/6 15/1/6 16/1/6
s 7
f 32/1/7 19/1/7 20/1/7
s 8
f 28/1/8 14/1/8 15/1/8
s 9
f 18/1/9 17/1/9 8/1/9
s 10
f 31/1/10 17/1/10 18/1/10
s 11
f 34/1/11 23/1/11 22/1/11
s 12
f 26/1/12 12/1/12 13/1/12
s 1
f 35/1/1 32/1/1 20/1/1
s 2
f 24/1/2 31/1/2 18/1/2
s 3
f 27/1/3 26/1/3 13/1/3
s 4
f 33/1/4 34/1/4 22/1/4
s 5
f 30/1/5 29/1/5 16/1/5
s 6
f 29/1/6 28/1/6 15/1/6
s 7
f 32/1/7 24/1/7 19/1/7
s 8
f 28/1/8 27/1/8 14/1/8
s 9
f 9/1/9 10/1/9 23/1/9
f 10/1/9 11/1/9 22/1/9
f 23/1/9 10/1/9 22/1/9
f 11/1/9 21/1/9 22/1/9
f 23/1/9 20/1/9 19/1/9
f 8/1/9 9/1/9 23/1/9
f 6/1/9 7/1/9 17/1/9
f 7/1/9 8/1/9 17/1/9
f 3/1/9 2/1/9 6/1/9
f 1/1/9 5/1/9 12/1/9
f 5/1/9 4/1/9 12/1/9
f 4/1/9 3/1/9 6/1/9
f 4/1/9 6/1/9 13/1/9
f 13/1/9 6/1/9 15/1/9
f 15/1/9 14/1/9 13/1/9
f 13/1/9 12/1/9 4/1/9
f 8/1/9 23/1/9 18/1/9
f 6/1/9 17/1/9 15/1/9
f 23/1/9 19/1/9 18/1/9
f 17/1/9 16/1/9 15/1/9
s 10
f 31/1/10 30/1/10 17/1/10
s 11
f 34/1/11 35/1/11 23/1/11
s 12
f 26/1/12 25/1/12 12/1/12
