# Blender 4.5.1 LTS
# www.blender.org
mtllib province_064.mtl
o province_064
v -3.069423 0.006502 1.356057
v -3.063713 0.006502 1.286110
v -3.093690 0.006502 1.258988
v -3.086122 0.006502 1.221052
v -2.841660 0.006502 1.086462
v -2.795981 0.006502 1.119294
v -2.718897 0.006502 1.130713
v -2.694630 0.006502 1.174965
v -2.644668 0.006502 1.224927
v -2.686065 0.006502 1.267752
v -2.747447 0.006502 1.286309
v -2.897617 0.006502 1.382806
v -2.957572 0.006502 1.367390
v -3.026091 0.006502 1.394797
v -2.899163 0.006502 1.005952
v -2.949808 0.006502 1.040137
v -3.001672 0.006502 1.089037
v -3.028956 0.006502 1.093782
v -3.046808 0.006502 1.180844
v -3.076833 0.006502 1.199930
v -2.841660 0.006502 1.042374
v -2.803889 0.006502 1.269741
v -2.778126 0.006502 1.258940
v -2.824444 0.006502 1.312719
v -2.822542 0.006502 1.360725
v -3.046808 -0.013498 1.180844
v -2.803889 -0.013498 1.269741
v -2.899163 -0.013498 1.005952
v -2.949808 -0.013498 1.040137
v -3.001672 -0.013498 1.089037
v -3.028956 -0.013498 1.093782
v -2.841660 -0.013498 1.042374
v -2.824444 -0.013498 1.312719
v -2.822542 -0.013498 1.360725
v -2.778126 -0.013498 1.258940
v -3.076833 -0.013498 1.199930
vn -0.5365 -0.0000 -0.8439
vn -0.0000 1.0000 -0.0000
vn -0.5595 -0.0000 -0.8289
vn -0.6860 -0.0000 -0.7276
vn -0.1713 -0.0000 -0.9852
vn -0.9796 -0.0000 -0.2009
vn 0.5351 -0.0000 -0.8448
vn 0.9021 -0.0000 0.4315
vn 0.9992 -0.0000 -0.0396
vn 0.3866 -0.0000 0.9222
vn -0.5595 -0.0000 -0.8288
vn 0.3867 -0.0000 0.9222
vt 0.000000 0.000000
s 0
f 19/1/1 36/1/1 20/1/1
f 23/1/2 6/1/2 22/1/2
f 15/1/3 29/1/3 16/1/3
f 16/1/4 30/1/4 17/1/4
f 17/1/5 31/1/5 18/1/5
f 18/1/6 26/1/6 19/1/6
f 21/1/7 28/1/7 15/1/7
f 24/1/8 27/1/8 22/1/8
f 25/1/9 33/1/9 24/1/9
f 22/1/10 35/1/10 23/1/10
f 19/1/1 26/1/1 36/1/1
f 2/1/2 1/1/2 13/1/2
f 1/1/2 14/1/2 13/1/2
f 13/1/2 12/1/2 24/1/2
f 12/1/2 25/1/2 24/1/2
f 4/1/2 3/1/2 2/1/2
f 19/1/2 20/1/2 4/1/2
f 17/1/2 18/1/2 19/1/2
f 15/1/2 16/1/2 5/1/2
f 16/1/2 17/1/2 5/1/2
f 5/1/2 21/1/2 15/1/2
f 8/1/2 7/1/2 6/1/2
f 9/1/2 8/1/2 10/1/2
f 8/1/2 6/1/2 23/1/2
f 10/1/2 8/1/2 23/1/2
f 6/1/2 5/1/2 22/1/2
f 5/1/2 17/1/2 19/1/2
f 19/1/2 4/1/2 2/1/2
f 5/1/2 19/1/2 22/1/2
f 23/1/2 11/1/2 10/1/2
f 19/1/2 2/1/2 13/1/2
f 22/1/2 19/1/2 24/1/2
f 13/1/2 24/1/2 19/1/2
f 15/1/11 28/1/11 29/1/11
f 16/1/4 29/1/4 30/1/4
f 17/1/5 30/1/5 31/1/5
f 18/1/6 31/1/6 26/1/6
f 21/1/7 32/1/7 28/1/7
f 24/1/8 33/1/8 27/1/8
f 25/1/9 34/1/9 33/1/9
f 22/1/12 27/1/12 35/1/12
