# Blender 4.5.1 LTS
# www.blender.org
mtllib province_040.mtl
o province_040
v -6.959582 0.006502 -3.846190
v -7.036666 0.006502 -3.814785
v -7.112323 0.006502 -3.831915
v -7.183698 0.006502 -3.774816
v -7.270774 0.006502 -3.757686
v -6.975285 0.006502 -3.954679
v -7.089483 0.006502 -4.057459
v -7.040948 0.006502 -4.143108
v -7.100903 0.006502 -4.174513
v -7.170850 0.006502 -4.180223
v -7.269346 0.006502 -4.205917
v -7.345003 0.006502 -4.257307
v -7.396392 0.006502 -4.271582
v -7.446354 0.006502 -4.218765
v -7.389255 0.006502 -4.141680
v -7.392110 0.006502 -4.060313
v -7.432079 0.006502 -3.987511
v -7.349285 0.006502 -3.918992
v -7.330728 0.006502 -3.851900
v -7.270774 -0.013498 -3.757686
v -7.040948 -0.013498 -4.143108
v -7.100903 -0.013498 -4.174513
v -7.170850 -0.013498 -4.180223
v -7.269346 -0.013498 -4.205917
v -7.345003 -0.013498 -4.257307
v -7.396392 -0.013498 -4.271582
v -7.446354 -0.013498 -4.218765
v -7.389255 -0.013498 -4.141680
v -7.392110 -0.013498 -4.060313
v -7.432079 -0.013498 -3.987511
v -7.349285 -0.013498 -3.918992
v -7.330728 -0.013498 -3.851900
vn -0.0000 1.0000 -0.0000
vn -0.6376 -0.0000 0.7704
vn -0.9638 -0.0000 0.2666
vn -0.8437 -0.0000 0.5369
vn 0.4640 -0.0000 -0.8858
vn 0.0814 -0.0000 -0.9967
vn 0.2524 -0.0000 -0.9676
vn 0.5619 -0.0000 -0.8272
vn 0.2677 -0.0000 -0.9635
vn -0.7265 -0.0000 -0.6872
vn -0.8036 -0.0000 0.5952
vn -0.9994 -0.0000 -0.0351
vn -0.8766 -0.0000 -0.4813
vn 0.2676 -0.0000 -0.9635
vt 0.000000 0.000000
s 0
f 11/1/1 12/1/1 15/1/1
f 17/1/2 31/1/2 18/1/2
f 18/1/3 32/1/3 19/1/3
f 19/1/4 20/1/4 5/1/4
f 8/1/5 22/1/5 9/1/5
f 9/1/6 23/1/6 10/1/6
f 10/1/7 24/1/7 11/1/7
f 11/1/8 25/1/8 12/1/8
f 12/1/9 26/1/9 13/1/9
f 13/1/10 27/1/10 14/1/10
f 14/1/11 28/1/11 15/1/11
f 15/1/12 29/1/12 16/1/12
f 16/1/13 30/1/13 17/1/13
f 3/1/1 2/1/1 6/1/1
f 2/1/1 1/1/1 6/1/1
f 6/1/1 7/1/1 3/1/1
f 7/1/1 8/1/1 9/1/1
f 7/1/1 9/1/1 10/1/1
f 5/1/1 4/1/1 19/1/1
f 4/1/1 3/1/1 19/1/1
f 18/1/1 19/1/1 3/1/1
f 16/1/1 17/1/1 18/1/1
f 13/1/1 14/1/1 12/1/1
f 14/1/1 15/1/1 12/1/1
f 15/1/1 16/1/1 11/1/1
f 16/1/1 18/1/1 7/1/1
f 11/1/1 16/1/1 10/1/1
f 3/1/1 7/1/1 18/1/1
f 7/1/1 10/1/1 16/1/1
f 17/1/2 30/1/2 31/1/2
f 18/1/3 31/1/3 32/1/3
f 19/1/4 32/1/4 20/1/4
f 8/1/5 21/1/5 22/1/5
f 9/1/6 22/1/6 23/1/6
f 10/1/7 23/1/7 24/1/7
f 11/1/8 24/1/8 25/1/8
f 12/1/14 25/1/14 26/1/14
f 13/1/10 26/1/10 27/1/10
f 14/1/11 27/1/11 28/1/11
f 15/1/12 28/1/12 29/1/12
f 16/1/13 29/1/13 30/1/13
