# Blender 4.5.1 LTS
# www.blender.org
o province_064
v -21.485958 0.045516 9.492397
v -21.445992 0.045516 9.002772
v -21.655830 0.045516 8.812917
v -21.602852 0.045516 8.547364
v -19.891623 0.045516 7.605232
v -19.571867 0.045516 7.835056
v -19.032280 0.045516 7.914994
v -18.862410 0.045516 8.224758
v -18.512676 0.045516 8.574491
v -18.802456 0.045516 8.874261
v -19.232128 0.045516 9.004162
v -20.283321 0.045516 9.679645
v -20.703003 0.045516 9.571728
v -21.182636 0.045516 9.763580
v -20.294142 0.045516 7.041661
v -20.648653 0.045516 7.280958
v -21.011703 0.045516 7.623259
v -21.202690 0.045516 7.656474
v -21.327658 0.045516 8.265911
v -21.537828 0.045516 8.399511
v -19.891623 0.045516 7.296616
v -19.627224 0.045516 8.888189
v -19.446878 0.045516 8.812577
v -19.771105 0.045516 9.189030
v -19.757795 0.045516 9.525078
v -21.327658 -0.094484 8.265911
v -19.627224 -0.094484 8.888189
v -20.294142 -0.094484 7.041661
v -20.648653 -0.094484 7.280958
v -21.011703 -0.094484 7.623259
v -21.202690 -0.094484 7.656474
v -19.891623 -0.094484 7.296616
v -19.771105 -0.094484 9.189030
v -19.757795 -0.094484 9.525078
v -19.446878 -0.094484 8.812577
v -21.537828 -0.094484 8.399511
vn -0.1713 -0.0000 -0.9852
vn -0.5365 -0.0000 -0.8439
vn 0.9992 -0.0000 -0.0396
vn -0.9796 -0.0000 -0.2009
vn 0.5351 -0.0000 -0.8448
vn 0.3867 -0.0000 0.9222
vn -0.0000 1.0000 -0.0000
vn -0.5595 -0.0000 -0.8288
vn 0.9021 -0.0000 0.4315
vn -0.6860 -0.0000 -0.7276
vn 0.3866 -0.0000 0.9222
vt 0.000000 0.000000
s 1
f 30/1/1 18/1/1 17/1/1
s 2
f 26/1/2 20/1/2 19/1/2
s 3
f 34/1/3 24/1/3 25/1/3
s 4
f 31/1/4 19/1/4 18/1/4
s 5
f 32/1/5 15/1/5 21/1/5
s 6
f 27/1/6 23/1/6 22/1/6
s 7
f 24/1/7 19/1/7 13/1/7
s 8
f 28/1/8 16/1/8 15/1/8
s 9
f 33/1/9 22/1/9 24/1/9
s 10
f 29/1/10 17/1/10 16/1/10
s 1
f 30/1/1 31/1/1 18/1/1
s 2
f 26/1/2 36/1/2 20/1/2
s 3
f 34/1/3 33/1/3 24/1/3
s 4
f 31/1/4 26/1/4 19/1/4
s 5
f 32/1/5 28/1/5 15/1/5
s 6
f 27/1/6 35/1/11 23/1/6
s 7
f 23/1/7 11/1/7 10/1/7
f 10/1/7 9/1/7 8/1/7
f 8/1/7 7/1/7 6/1/7
f 5/1/7 21/1/7 15/1/7
f 10/1/7 8/1/7 23/1/7
f 8/1/7 6/1/7 23/1/7
f 5/1/7 15/1/7 16/1/7
f 6/1/7 5/1/7 22/1/7
f 23/1/7 6/1/7 22/1/7
f 5/1/7 16/1/7 17/1/7
f 17/1/7 18/1/7 19/1/7
f 19/1/7 20/1/7 4/1/7
f 4/1/7 3/1/7 2/1/7
f 2/1/7 1/1/7 13/1/7
f 1/1/7 14/1/7 13/1/7
f 13/1/7 12/1/7 24/1/7
f 12/1/7 25/1/7 24/1/7
f 19/1/7 4/1/7 2/1/7
f 5/1/7 17/1/7 19/1/7
f 24/1/7 22/1/7 19/1/7
f 22/1/7 5/1/7 19/1/7
f 19/1/7 2/1/7 13/1/7
s 8
f 28/1/8 29/1/8 16/1/8
s 9
f 33/1/9 27/1/9 22/1/9
s 10
f 29/1/10 30/1/10 17/1/10
