# Blender 4.5.1 LTS
# www.blender.org
mtllib province_151.mtl
o province_151
v -0.946139 0.006502 1.836783
v -1.007806 0.006502 1.768264
v -0.887898 0.006502 1.900164
v -1.224874 0.006502 1.750997
v -1.330942 0.006502 1.829931
v -1.323542 0.006502 1.955732
v -1.397543 0.006502 2.000133
v -1.427143 0.006502 2.079067
v -1.239675 0.006502 2.158001
v -1.348209 0.006502 2.180201
v -1.380276 0.006502 2.113601
v -1.165674 0.006502 2.130867
v -1.113873 0.006502 2.081534
v -1.005339 0.006502 2.103734
v -0.978206 0.006502 2.066734
v -0.884471 0.006502 1.975466
v -1.007806 -0.013498 1.768264
v -1.224874 -0.013498 1.750997
v -1.330942 -0.013498 1.829931
v -1.323542 -0.013498 1.955732
v -1.397543 -0.013498 2.000133
v -1.427143 -0.013498 2.079067
vn -0.0000 1.0000 -0.0000
vn 0.0793 -0.0000 -0.9969
vn -0.5970 -0.0000 -0.8022
vn -0.9983 -0.0000 0.0587
vn -0.5145 -0.0000 -0.8575
vn -0.9363 -0.0000 -0.3511
vt 0.000000 0.000000
s 0
f 4/1/1 6/1/1 13/1/1
f 2/1/2 18/1/2 4/1/2
f 4/1/3 19/1/3 5/1/3
f 5/1/4 20/1/4 6/1/4
f 6/1/5 21/1/5 7/1/5
f 7/1/6 22/1/6 8/1/6
f 11/1/1 10/1/1 9/1/1
f 9/1/1 12/1/1 6/1/1
f 12/1/1 13/1/1 6/1/1
f 13/1/1 14/1/1 15/1/1
f 15/1/1 16/1/1 1/1/1
f 16/1/1 3/1/1 1/1/1
f 1/1/1 2/1/1 13/1/1
f 2/1/1 4/1/1 13/1/1
f 11/1/1 9/1/1 6/1/1
f 13/1/1 15/1/1 1/1/1
f 4/1/1 5/1/1 6/1/1
f 6/1/1 7/1/1 11/1/1
f 7/1/1 8/1/1 11/1/1
f 2/1/2 17/1/2 18/1/2
f 4/1/3 18/1/3 19/1/3
f 5/1/4 19/1/4 20/1/4
f 6/1/5 20/1/5 21/1/5
f 7/1/6 21/1/6 22/1/6
