# Blender 4.5.1 LTS
# www.blender.org
mtllib province_113.mtl
o province_113
v 0.302833 0.006502 0.601812
v 0.271429 0.006502 0.621797
v 0.041612 0.006502 0.671530
v 0.047779 0.006502 0.607808
v 0.095057 0.006502 0.593419
v 0.152613 0.006502 0.630419
v 0.234836 0.006502 0.632475
v 0.195780 0.006502 1.002478
v 0.251280 0.006502 0.914088
v 0.308836 0.006502 0.926421
v 0.327337 0.006502 0.998366
v 0.376670 0.006502 1.027144
v 0.454782 0.006502 0.990144
v 0.500005 0.006502 0.907921
v 0.483560 0.006502 0.835976
v 0.510283 0.006502 0.786642
v 0.598672 0.006502 0.829809
v 0.662395 0.006502 0.815420
v 0.711729 0.006502 0.784587
v 0.724062 0.006502 0.716753
v 0.738451 0.006502 0.657141
v 0.800119 0.006502 0.624252
v 0.800119 0.006502 0.570807
v 0.767229 0.006502 0.523529
v 0.695284 0.006502 0.589307
v 0.615117 0.006502 0.595474
v 0.569894 0.006502 0.537918
v 0.460949 0.006502 0.593418
v 0.370504 0.006502 0.568751
v 0.034323 0.006502 0.924495
v 0.026294 0.006502 0.866286
v -0.002180 0.006502 0.827643
v -0.006285 0.006502 0.755794
v -0.034547 0.006502 0.716228
v -0.006366 0.006502 0.669931
v 0.138168 0.006502 1.008879
v 0.034323 -0.013498 0.924495
v 0.026294 -0.013498 0.866286
v -0.002180 -0.013498 0.827643
v -0.006285 -0.013498 0.755794
v -0.034547 -0.013498 0.716228
v -0.006366 -0.013498 0.669931
v 0.138168 -0.013498 1.008879
vn -0.0000 1.0000 -0.0000
vn -0.9906 -0.0000 0.1366
vn -0.8051 -0.0000 0.5932
vn -0.9984 -0.0000 0.0570
vn -0.8137 -0.0000 0.5812
vn -0.8542 -0.0000 -0.5199
vn -0.6306 -0.0000 0.7761
vt 0.000000 0.000000
s 0
f 30/1/1 9/1/1 31/1/1
f 31/1/2 37/1/2 30/1/2
f 32/1/3 38/1/3 31/1/3
f 33/1/4 39/1/4 32/1/4
f 34/1/5 40/1/5 33/1/5
f 35/1/6 41/1/6 34/1/6
f 30/1/7 43/1/7 36/1/7
f 29/1/1 1/1/1 28/1/1
f 1/1/1 2/1/1 16/1/1
f 28/1/1 1/1/1 16/1/1
f 26/1/1 27/1/1 28/1/1
f 23/1/1 24/1/1 25/1/1
f 26/1/1 28/1/1 16/1/1
f 22/1/1 23/1/1 25/1/1
f 2/1/1 7/1/1 9/1/1
f 16/1/1 2/1/1 15/1/1
f 22/1/1 25/1/1 21/1/1
f 25/1/1 26/1/1 21/1/1
f 21/1/1 26/1/1 20/1/1
f 20/1/1 26/1/1 18/1/1
f 18/1/1 19/1/1 20/1/1
f 6/1/1 5/1/1 3/1/1
f 5/1/1 4/1/1 3/1/1
f 26/1/1 16/1/1 17/1/1
f 7/1/1 6/1/1 9/1/1
f 17/1/1 18/1/1 26/1/1
f 15/1/1 2/1/1 10/1/1
f 13/1/1 14/1/1 10/1/1
f 14/1/1 15/1/1 10/1/1
f 10/1/1 2/1/1 9/1/1
f 3/1/1 35/1/1 33/1/1
f 35/1/1 34/1/1 33/1/1
f 6/1/1 3/1/1 31/1/1
f 9/1/1 6/1/1 31/1/1
f 12/1/1 13/1/1 11/1/1
f 10/1/1 11/1/1 13/1/1
f 36/1/1 8/1/1 9/1/1
f 30/1/1 36/1/1 9/1/1
f 33/1/1 32/1/1 31/1/1
f 3/1/1 33/1/1 31/1/1
f 31/1/2 38/1/2 37/1/2
f 32/1/3 39/1/3 38/1/3
f 33/1/4 40/1/4 39/1/4
f 34/1/5 41/1/5 40/1/5
f 35/1/6 42/1/6 41/1/6
f 30/1/7 37/1/7 43/1/7
