# Blender 4.5.1 LTS
# www.blender.org
mtllib province_084.mtl
o province_084
v -0.996857 0.006502 -1.664210
v -1.009191 0.006502 -1.594321
v -0.963968 0.006502 -1.557320
v -0.910523 0.006502 -1.575821
v -0.848856 0.006502 -1.577876
v -0.789244 0.006502 -1.625154
v -0.752244 0.006502 -1.588154
v -0.785133 0.006502 -1.542931
v -0.752244 0.006502 -1.499764
v -0.672077 0.006502 -1.495653
v -0.937246 0.006502 -1.664210
v -0.836522 0.006502 -1.754655
v -0.678243 0.006502 -1.762878
v -0.604243 0.006502 -1.744378
v -0.548742 0.006502 -1.766989
v -0.632678 0.006502 -1.543617
v -0.576150 0.006502 -1.524774
v -0.511057 0.006502 -1.531626
v -0.471658 0.006502 -1.583015
v -0.540177 0.006502 -1.673803
v -0.996857 -0.013498 -1.664210
v -0.937246 -0.013498 -1.664210
v -0.836522 -0.013498 -1.754655
v -0.678243 -0.013498 -1.762878
v -0.604243 -0.013498 -1.744378
v -0.548742 -0.013498 -1.766989
vn -0.0000 1.0000 -0.0000
vn -0.0000 -0.0000 -1.0000
vn -0.6681 -0.0000 -0.7440
vn -0.0519 -0.0000 -0.9987
vn 0.2425 -0.0000 -0.9701
vn -0.3773 -0.0000 -0.9261
vt 0.000000 0.000000
s 0
f 20/1/1 14/1/1 16/1/1
f 11/1/2 21/1/2 1/1/2
f 12/1/3 22/1/3 11/1/3
f 13/1/4 23/1/4 12/1/4
f 14/1/5 24/1/5 13/1/5
f 15/1/6 25/1/6 14/1/6
f 11/1/1 1/1/1 2/1/1
f 2/1/1 3/1/1 11/1/1
f 3/1/1 4/1/1 11/1/1
f 4/1/1 5/1/1 11/1/1
f 5/1/1 6/1/1 11/1/1
f 7/1/1 8/1/1 9/1/1
f 7/1/1 9/1/1 10/1/1
f 7/1/1 10/1/1 16/1/1
f 12/1/1 11/1/1 6/1/1
f 6/1/1 7/1/1 13/1/1
f 7/1/1 16/1/1 14/1/1
f 16/1/1 17/1/1 20/1/1
f 17/1/1 18/1/1 20/1/1
f 18/1/1 19/1/1 20/1/1
f 20/1/1 15/1/1 14/1/1
f 14/1/1 13/1/1 7/1/1
f 13/1/1 12/1/1 6/1/1
f 11/1/2 22/1/2 21/1/2
f 12/1/3 23/1/3 22/1/3
f 13/1/4 24/1/4 23/1/4
f 14/1/5 25/1/5 24/1/5
f 15/1/6 26/1/6 25/1/6
