# Blender 4.5.1 LTS
# www.blender.org
mtllib province_085.mtl
o province_085
v 0.009423 0.001999 -0.032539
v 0.015847 0.001999 -0.026687
v 0.027981 0.001999 -0.026116
v 0.037687 0.001999 -0.018836
v 0.047823 0.001999 -0.014268
v 0.052676 0.001999 -0.009272
v 0.053247 0.001999 -0.004418
v 0.049678 0.001999 -0.000421
v 0.049821 0.001999 0.005432
v 0.055674 0.001999 0.007287
v 0.058957 0.001999 0.017708
v 0.003840 0.001999 -0.045372
v 0.004457 0.001999 -0.038178
v 0.009596 0.001999 -0.035094
v 0.030015 0.001999 -0.065894
v 0.022478 0.001999 -0.064523
v 0.012714 0.001999 -0.057843
v 0.011686 0.001999 -0.049792
v 0.073003 0.001999 0.015138
v 0.078314 0.001999 0.012055
v 0.078999 0.001999 0.002976
v 0.087564 0.001999 0.000407
v 0.091846 0.001999 -0.004047
v 0.029702 0.001999 -0.078560
v 0.091096 0.001999 -0.012747
v 0.077571 0.001999 -0.014045
v 0.074518 0.001999 -0.024641
v 0.069964 0.001999 -0.028891
v 0.061392 0.001999 -0.028891
v 0.058973 0.001999 -0.041851
v 0.051943 0.001999 -0.042687
v 0.047854 0.001999 -0.053009
v 0.050398 0.001999 -0.056825
v 0.050398 0.001999 -0.060766
v 0.045985 0.001999 -0.065180
v 0.045474 0.001999 -0.071311
v 0.037445 0.001999 -0.078553
v 0.029702 -0.000001 -0.078560
v 0.091096 -0.000001 -0.012747
v 0.077571 -0.000001 -0.014045
v 0.074518 -0.000001 -0.024641
v 0.069964 -0.000001 -0.028891
v 0.061392 -0.000001 -0.028891
v 0.058973 -0.000001 -0.041851
v 0.051943 -0.000001 -0.042687
v 0.047854 -0.000001 -0.053009
v 0.050398 -0.000001 -0.056825
v 0.050398 -0.000001 -0.060766
v 0.045985 -0.000001 -0.065180
v 0.045474 -0.000001 -0.071311
v 0.037445 -0.000001 -0.078553
vn 0.0009 -0.0000 -1.0000
vn 0.6698 -0.0000 -0.7426
vn 0.9965 -0.0000 -0.0830
vn 0.7071 -0.0000 -0.7071
vn 1.0000 -0.0000 -0.0000
vn 0.8321 -0.0000 0.5547
vn 0.9297 -0.0000 -0.3684
vn 0.1182 -0.0000 -0.9930
vn 0.9830 -0.0000 -0.1835
vn -0.0000 -0.0000 -1.0000
vn 0.6823 -0.0000 -0.7311
vn 0.9609 -0.0000 -0.2769
vn 0.0955 -0.0000 -0.9954
vn -0.0000 1.0000 -0.0000
vt 0.000000 0.000000
s 0
f 24/1/1 37/1/1 51/1/1 38/1/1
f 37/1/2 36/1/2 50/1/2 51/1/2
f 36/1/3 35/1/3 49/1/3 50/1/3
f 35/1/4 34/1/4 48/1/4 49/1/4
f 34/1/5 33/1/5 47/1/5 48/1/5
f 33/1/6 32/1/6 46/1/6 47/1/6
f 32/1/7 31/1/7 45/1/7 46/1/7
f 31/1/8 30/1/8 44/1/8 45/1/8
f 30/1/9 29/1/9 43/1/9 44/1/9
f 29/1/10 28/1/10 42/1/10 43/1/10
f 28/1/11 27/1/11 41/1/11 42/1/11
f 27/1/12 26/1/12 40/1/12 41/1/12
f 26/1/13 25/1/13 39/1/13 40/1/13
f 37/1/14 24/1/14 15/1/14 16/1/14 17/1/14 18/1/14 12/1/14 13/1/14 14/1/14 1/1/14 2/1/14 3/1/14 4/1/14 5/1/14 6/1/14 7/1/14 8/1/14 9/1/14 10/1/14 11/1/14 19/1/14 20/1/14 21/1/14 22/1/14 23/1/14 25/1/14 26/1/14 27/1/14 28/1/14 29/1/14 30/1/14 31/1/14 32/1/14 33/1/14 34/1/14 35/1/14 36/1/14
