# Blender 4.5.1 LTS
# www.blender.org
o province_023
v -18.834097 0.045516 -3.271579
v -19.223797 0.045516 -3.321541
v -19.773376 0.045516 -3.181648
v -19.913269 0.045516 -3.601326
v -19.703430 0.045516 -3.811166
v -19.873301 0.045516 -4.030998
v -18.834494 0.045516 -5.787205
v -18.944408 0.045516 -5.487434
v -19.334108 0.045516 -5.287587
v -19.404057 0.045516 -4.847924
v -19.723812 0.045516 -4.388276
v -16.554014 0.045516 -6.544958
v -16.810762 0.045516 -6.302089
v -17.178535 0.045516 -6.260454
v -17.476919 0.045516 -6.052279
v -17.865511 0.045516 -5.989828
v -18.247164 0.045516 -6.059219
v -18.559423 0.045516 -5.823288
v -16.397884 0.045516 -6.359914
v -16.235971 0.045516 -5.978262
v -15.877449 0.045516 -6.036088
v -15.495797 0.045516 -6.001393
v -15.212449 0.045516 -5.596610
v -14.819231 0.045516 -5.521436
v -16.710146 0.045516 -3.381870
v -17.589100 0.045516 -3.422349
v -18.687460 0.045516 -2.873562
v -18.524261 0.045516 -2.771600
v -14.776867 0.045516 -5.284195
v -15.539385 0.045516 -4.869389
v -15.980396 0.045516 -4.307552
v -15.987389 0.045516 -3.874182
v -18.524261 -0.094484 -2.771600
v -18.687460 -0.094484 -2.873562
v -14.776867 -0.094484 -5.284195
v -15.539385 -0.094484 -4.869389
v -15.980396 -0.094484 -4.307552
v -15.987389 -0.094484 -3.874182
vn 0.7866 -0.0000 0.6174
vn -0.0000 1.0000 -0.0000
vn -0.5299 -0.0000 0.8481
vn 0.9999 -0.0000 0.0161
vn 0.4779 -0.0000 0.8784
vt 0.000000 0.000000
s 1
f 37/1/1 30/1/1 31/1/1
s 2
f 30/1/2 29/1/2 23/1/2
s 3
f 34/1/3 28/1/3 27/1/3
s 4
f 38/1/4 31/1/4 32/1/4
s 5
f 36/1/5 29/1/5 30/1/5
s 1
f 37/1/1 36/1/1 30/1/1
s 2
f 10/1/2 11/1/2 1/1/2
f 11/1/2 6/1/2 5/1/2
f 5/1/2 4/1/2 3/1/2
f 11/1/2 5/1/2 1/1/2
f 8/1/2 9/1/2 10/1/2
f 18/1/2 7/1/2 8/1/2
f 16/1/2 17/1/2 18/1/2
f 13/1/2 14/1/2 15/1/2
f 15/1/2 16/1/2 26/1/2
f 16/1/2 18/1/2 8/1/2
f 26/1/2 16/1/2 8/1/2
f 8/1/2 10/1/2 26/1/2
f 5/1/2 3/1/2 2/1/2
f 5/1/2 2/1/2 1/1/2
f 19/1/2 12/1/2 13/1/2
f 13/1/2 15/1/2 20/1/2
f 26/1/2 10/1/2 1/1/2
f 1/1/2 27/1/2 28/1/2
f 26/1/2 25/1/2 31/1/2
f 25/1/2 32/1/2 31/1/2
f 1/1/2 28/1/2 26/1/2
f 20/1/2 15/1/2 31/1/2
f 20/1/2 19/1/2 13/1/2
f 22/1/2 21/1/2 23/1/2
f 21/1/2 20/1/2 30/1/2
f 23/1/2 21/1/2 30/1/2
f 29/1/2 24/1/2 23/1/2
f 31/1/2 15/1/2 26/1/2
f 30/1/2 20/1/2 31/1/2
s 3
f 34/1/3 33/1/3 28/1/3
s 4
f 38/1/4 37/1/4 31/1/4
s 5
f 36/1/5 35/1/5 29/1/5
