# Blender 4.5.1 LTS
# www.blender.org
mtllib province_157.mtl
o province_157
v 0.169252 0.001999 0.105054
v 0.174391 0.001999 0.101560
v 0.173568 0.001999 0.091898
v 0.189602 0.001999 0.068054
v 0.188163 0.001999 0.074220
v 0.179735 0.001999 0.076893
v 0.179118 0.001999 0.081209
v 0.181380 0.001999 0.086554
v 0.194330 0.001999 0.110399
v 0.203374 0.001999 0.101971
v 0.204608 0.001999 0.092721
v 0.201935 0.001999 0.089843
v 0.205019 0.001999 0.087171
v 0.204813 0.001999 0.079154
v 0.198235 0.001999 0.078332
v 0.196180 0.001999 0.071137
v 0.170039 0.001999 0.109620
v 0.177621 0.001999 0.117181
v 0.189545 0.001999 0.119783
v 0.170039 -0.000001 0.109620
v 0.177621 -0.000001 0.117181
v 0.189545 -0.000001 0.119783
v 0.194330 -0.000001 0.110399
v 0.203374 -0.000001 0.101971
v 0.204608 -0.000001 0.092721
v 0.201935 -0.000001 0.089843
v 0.205019 -0.000001 0.087171
vn -0.0000 1.0000 -0.0000
vn -0.7062 -0.0000 0.7081
vn -0.2132 -0.0000 0.9770
vn 0.6817 -0.0000 0.7316
vn 0.9912 -0.0000 0.1322
vn 0.7328 -0.0000 -0.6805
vn 0.6549 -0.0000 0.7557
vn 0.8909 -0.0000 0.4542
vt 0.000000 0.000000
s 0
f 17/1/1 18/1/1 19/1/1 9/1/1 10/1/1 11/1/1 12/1/1 13/1/1 14/1/1 15/1/1 16/1/1 4/1/1 5/1/1 6/1/1 7/1/1 8/1/1 3/1/1 2/1/1 1/1/1
f 18/1/2 17/1/2 20/1/2 21/1/2
f 19/1/3 18/1/3 21/1/3 22/1/3
f 10/1/4 9/1/4 23/1/4 24/1/4
f 11/1/5 10/1/5 24/1/5 25/1/5
f 12/1/6 11/1/6 25/1/6 26/1/6
f 13/1/7 12/1/7 26/1/7 27/1/7
f 9/1/8 19/1/8 22/1/8 23/1/8
