# Blender 4.5.1 LTS
# www.blender.org
mtllib province_028.mtl
o province_028
v 0.537216 0.006502 -0.859030
v 0.580041 0.006502 -0.903567
v 0.996295 0.006502 -1.037179
v 0.535789 0.006502 -0.804785
v 0.600025 0.006502 -0.774808
v 0.681392 0.006502 -0.806213
v 0.744201 0.006502 -0.750541
v 0.814148 0.006502 -0.821915
v 0.879812 0.006502 -0.803358
v 0.991155 0.006502 -0.921839
v 0.942621 0.006502 -0.986076
v 0.572540 0.006502 -0.990571
v 0.643292 0.006502 -1.022925
v 0.983706 0.006502 -1.088934
v 0.686271 0.006502 -1.042880
v 0.751896 0.006502 -1.012728
v 0.847283 0.006502 -1.101302
v 0.911061 0.006502 -1.065324
v 0.572540 -0.013498 -0.990571
v 0.643292 -0.013498 -1.022925
v 0.686271 -0.013498 -1.042880
v 0.751896 -0.013498 -1.012728
v 0.847283 -0.013498 -1.101302
v 0.911061 -0.013498 -1.065324
v 0.983706 -0.013498 -1.088934
vn -0.0000 1.0000 -0.0000
vn -0.4159 -0.0000 -0.9094
vn -0.4211 -0.0000 -0.9070
vn 0.4175 -0.0000 -0.9087
vn -0.6805 -0.0000 -0.7328
vn 0.4913 -0.0000 -0.8710
vn -0.3091 -0.0000 -0.9510
vt 0.000000 0.000000
s 0
f 18/1/1 16/1/1 11/1/1
f 13/1/2 19/1/2 12/1/2
f 15/1/3 20/1/3 13/1/3
f 16/1/4 21/1/4 15/1/4
f 17/1/5 22/1/5 16/1/5
f 18/1/6 23/1/6 17/1/6
f 14/1/7 24/1/7 18/1/7
f 1/1/1 4/1/1 5/1/1
f 6/1/1 7/1/1 8/1/1
f 1/1/1 5/1/1 2/1/1
f 5/1/1 6/1/1 2/1/1
f 13/1/1 12/1/1 2/1/1
f 8/1/1 9/1/1 11/1/1
f 9/1/1 10/1/1 11/1/1
f 2/1/1 6/1/1 16/1/1
f 6/1/1 8/1/1 16/1/1
f 15/1/1 13/1/1 16/1/1
f 13/1/1 2/1/1 16/1/1
f 18/1/1 17/1/1 16/1/1
f 11/1/1 3/1/1 18/1/1
f 3/1/1 14/1/1 18/1/1
f 8/1/1 11/1/1 16/1/1
f 13/1/2 20/1/2 19/1/2
f 15/1/3 21/1/3 20/1/3
f 16/1/4 22/1/4 21/1/4
f 17/1/5 23/1/5 22/1/5
f 18/1/6 24/1/6 23/1/6
f 14/1/7 25/1/7 24/1/7
