# Blender 4.5.1 LTS
# www.blender.org
o province_080
v -5.734172 0.045516 -1.972591
v -5.068015 0.045516 -2.655403
v -4.651666 0.045516 -3.229964
v -4.287344 0.045516 -3.529104
v -5.374447 0.045516 -1.602874
v -4.914797 0.045516 -1.462980
v -4.615026 0.045516 -1.073278
v -4.095423 0.045516 -1.103255
v -3.665751 0.045516 -1.433003
v -3.969609 0.045516 -3.582059
v -3.314162 0.045516 -1.440994
v -3.735975 0.045516 -2.264177
v -3.570504 0.045516 -2.646828
v -3.617141 0.045516 -3.383674
v -3.969609 -0.094484 -3.582059
v -3.314162 -0.094484 -1.440994
v -3.735975 -0.094484 -2.264177
v -3.570504 -0.094484 -2.646828
v -3.617141 -0.094484 -3.383674
vn 0.9980 -0.0000 -0.0632
vn 0.8900 -0.0000 -0.4560
vn 0.9179 -0.0000 0.3969
vn -0.0000 1.0000 -0.0000
vn 0.4905 -0.0000 -0.8714
vt 0.000000 0.000000
s 1
f 18/1/1 14/1/1 13/1/1
s 2
f 16/1/2 12/1/2 11/1/2
s 3
f 17/1/3 13/1/3 12/1/3
s 4
f 2/1/4 6/1/4 12/1/4
s 5
f 19/1/5 10/1/5 14/1/5
s 1
f 18/1/1 19/1/1 14/1/1
s 2
f 16/1/2 17/1/2 12/1/2
s 3
f 17/1/3 18/1/3 13/1/3
s 4
f 1/1/4 5/1/4 2/1/4
f 5/1/4 6/1/4 2/1/4
f 6/1/4 7/1/4 8/1/4
f 9/1/4 11/1/4 12/1/4
f 6/1/4 8/1/4 9/1/4
f 4/1/4 3/1/4 13/1/4
f 3/1/4 2/1/4 12/1/4
f 14/1/4 10/1/4 4/1/4
f 12/1/4 13/1/4 3/1/4
f 13/1/4 14/1/4 4/1/4
f 6/1/4 9/1/4 12/1/4
s 5
f 19/1/5 15/1/5 10/1/5
