# Blender 4.5.1 LTS
# www.blender.org
mtllib province_078.mtl
o province_078
v -0.073175 0.001999 0.048138
v -0.075911 0.001999 0.052539
v -0.074959 0.001999 0.057059
v -0.071271 0.001999 0.059557
v -0.066513 0.001999 0.065981
v -0.055450 0.001999 0.063364
v -0.048075 0.001999 0.058130
v -0.038558 0.001999 0.048375
v -0.032610 0.001999 0.040167
v -0.041413 0.001999 0.040286
v -0.044863 0.001999 0.034814
v -0.056402 0.001999 0.034933
v -0.065442 0.001999 0.029580
v -0.075117 0.001999 0.045351
v -0.071442 0.001999 0.022340
v -0.070850 0.001999 0.032390
v -0.074215 0.001999 0.036355
v -0.077543 0.001999 0.039437
v -0.075117 -0.000001 0.045351
v -0.071442 -0.000001 0.022340
v -0.070850 -0.000001 0.032390
v -0.074215 -0.000001 0.036355
v -0.077543 -0.000001 0.039437
vn -0.0000 1.0000 -0.0000
vn -0.9983 -0.0000 0.0587
vn -0.7625 -0.0000 -0.6470
vn -0.6794 -0.0000 -0.7338
vn -0.9251 -0.0000 0.3796
vt 0.000000 0.000000
s 0
f 17/1/1 18/1/1 14/1/1 1/1/1 2/1/1 3/1/1 4/1/1 5/1/1 6/1/1 7/1/1 8/1/1 9/1/1 10/1/1 11/1/1 12/1/1 13/1/1 15/1/1 16/1/1
f 16/1/2 15/1/2 20/1/2 21/1/2
f 17/1/3 16/1/3 21/1/3 22/1/3
f 18/1/4 17/1/4 22/1/4 23/1/4
f 14/1/5 18/1/5 23/1/5 19/1/5
