# Blender 4.5.1 LTS
# www.blender.org
mtllib province_094.mtl
o province_094
v 0.137169 0.001999 0.099035
v 0.129734 0.001999 0.090213
v 0.122993 0.001999 0.087239
v 0.118532 0.001999 0.078515
v 0.113873 0.001999 0.071873
v 0.117442 0.001999 0.066124
v 0.149518 0.001999 0.085115
v 0.146024 0.001999 0.088815
v 0.139857 0.001999 0.088815
v 0.144996 0.001999 0.080798
v 0.146229 0.001999 0.073398
v 0.143968 0.001999 0.068465
v 0.136979 0.001999 0.070109
v 0.131429 0.001999 0.067643
v 0.122385 0.001999 0.069698
vn -0.0000 1.0000 -0.0000
vt 0.000000 0.000000
s 0
f 2/1/1 1/1/1 9/1/1 8/1/1 7/1/1 10/1/1 11/1/1 12/1/1 13/1/1 14/1/1 15/1/1 6/1/1 5/1/1 4/1/1 3/1/1
