# Blender 4.5.1 LTS
# www.blender.org
mtllib province_013.mtl
o province_013
v -0.090306 0.001999 0.128701
v -0.085786 0.001999 0.131794
v -0.076507 0.001999 0.130485
v -0.070084 0.001999 0.127154
v -0.094669 0.001999 0.133257
v -0.093087 0.001999 0.138603
v -0.101269 0.001999 0.144302
v -0.100989 0.001999 0.147946
v -0.062296 0.001999 0.133153
v -0.072186 0.001999 0.139087
v -0.070665 0.001999 0.144665
v -0.073035 0.001999 0.148173
v -0.080228 0.001999 0.149184
v -0.085709 0.001999 0.150974
v -0.094038 0.001999 0.147103
v -0.100989 -0.000001 0.147946
v -0.094669 -0.000001 0.133257
v -0.093087 -0.000001 0.138603
v -0.101269 -0.000001 0.144302
v -0.062296 -0.000001 0.133153
v -0.072186 -0.000001 0.139087
v -0.070665 -0.000001 0.144665
v -0.073035 -0.000001 0.148173
v -0.080228 -0.000001 0.149184
v -0.085709 -0.000001 0.150974
v -0.094038 -0.000001 0.147103
vn 0.1393 -0.0000 0.9903
vn 0.8286 -0.0000 0.5599
vn 0.9648 -0.0000 -0.2631
vn 0.5145 -0.0000 0.8575
vn -0.0000 1.0000 -0.0000
vn 0.3104 -0.0000 0.9506
vn -0.4215 -0.0000 0.9068
vn 0.1203 -0.0000 0.9927
vn -0.9589 -0.0000 0.2838
vn -0.5715 -0.0000 -0.8206
vn -0.9971 -0.0000 0.0767
vt 0.000000 0.000000
s 0
f 12/1/1 13/1/1 24/1/1 23/1/1
f 11/1/2 12/1/2 23/1/2 22/1/2
f 10/1/3 11/1/3 22/1/3 21/1/3
f 9/1/4 10/1/4 21/1/4 20/1/4
f 6/1/5 7/1/5 8/1/5 15/1/5 14/1/5 13/1/5 12/1/5 11/1/5 10/1/5 9/1/5 4/1/5 3/1/5 2/1/5 1/1/5 5/1/5
f 13/1/6 14/1/6 25/1/6 24/1/6
f 14/1/7 15/1/7 26/1/7 25/1/7
f 15/1/8 8/1/8 16/1/8 26/1/8
f 6/1/9 5/1/9 17/1/9 18/1/9
f 7/1/10 6/1/10 18/1/10 19/1/10
f 8/1/11 7/1/11 19/1/11 16/1/11
