# Blender 4.5.1 LTS
# www.blender.org
mtllib province_054.mtl
o province_054
v -2.731850 0.006502 0.126872
v -2.754981 0.006502 0.067394
v -2.488154 0.006502 0.102915
v -2.535241 0.006502 0.120263
v -2.589763 0.006502 0.101263
v -2.626937 0.006502 0.105393
v -2.655850 0.006502 0.069046
v -2.692198 0.006502 0.110350
v -2.544982 0.006502 -0.247537
v -2.406517 0.006502 -0.228980
v -2.422176 0.006502 0.077396
v -2.360163 0.006502 0.000329
v -2.363176 0.006502 -0.079972
v -2.339295 0.006502 -0.129396
v -2.373326 0.006502 0.084462
v -2.770461 0.006502 0.037636
v -2.724672 0.006502 -0.022831
v -2.719393 0.006502 -0.065059
v -2.672756 0.006502 -0.096150
v -2.663789 0.006502 -0.139493
v -2.624663 0.006502 -0.187647
v -2.600777 0.006502 -0.266135
v -2.770461 -0.013498 0.037636
v -2.724672 -0.013498 -0.022831
v -2.719393 -0.013498 -0.065059
v -2.672756 -0.013498 -0.096150
v -2.663789 -0.013498 -0.139493
v -2.624663 -0.013498 -0.187647
v -2.600777 -0.013498 -0.266135
vn -0.9567 -0.0000 -0.2911
vn -0.7761 -0.0000 -0.6306
vn -0.9793 -0.0000 -0.2026
vn -0.5547 -0.0000 -0.8320
vn -0.9923 -0.0000 -0.1240
vn -0.7972 -0.0000 -0.6037
vn -0.0000 1.0000 -0.0000
vn -0.5547 -0.0000 -0.8321
vt 0.000000 0.000000
s 0
f 22/1/1 28/1/1 21/1/1
f 21/1/2 27/1/2 20/1/2
f 20/1/3 26/1/3 19/1/3
f 19/1/4 25/1/4 18/1/4
f 18/1/5 24/1/5 17/1/5
f 17/1/6 23/1/6 16/1/6
f 17/1/7 7/1/7 19/1/7
f 22/1/1 29/1/1 28/1/1
f 21/1/2 28/1/2 27/1/2
f 20/1/3 27/1/3 26/1/3
f 19/1/8 26/1/8 25/1/8
f 18/1/5 25/1/5 24/1/5
f 17/1/6 24/1/6 23/1/6
f 4/1/7 3/1/7 5/1/7
f 3/1/7 11/1/7 13/1/7
f 5/1/7 3/1/7 19/1/7
f 11/1/7 15/1/7 12/1/7
f 13/1/7 14/1/7 10/1/7
f 11/1/7 12/1/7 13/1/7
f 19/1/7 3/1/7 13/1/7
f 7/1/7 6/1/7 5/1/7
f 1/1/7 8/1/7 2/1/7
f 8/1/7 7/1/7 2/1/7
f 17/1/7 16/1/7 2/1/7
f 7/1/7 5/1/7 19/1/7
f 13/1/7 10/1/7 9/1/7
f 9/1/7 22/1/7 21/1/7
f 13/1/7 9/1/7 21/1/7
f 19/1/7 13/1/7 21/1/7
f 17/1/7 2/1/7 7/1/7
f 21/1/7 20/1/7 19/1/7
f 19/1/7 18/1/7 17/1/7
