# Blender 4.5.1 LTS
# www.blender.org
mtllib province_158.mtl
o province_158
v 0.023820 0.001999 0.151613
v 0.018064 0.001999 0.145857
v 0.010459 0.001999 0.148324
v 0.003063 0.001999 0.148676
v 0.004652 0.001999 0.153444
v -0.000637 0.001999 0.157886
v -0.000245 0.001999 0.162785
v -0.002589 0.001999 0.166805
v 0.003104 0.001999 0.168861
v 0.009885 0.001999 0.166954
v 0.015087 0.001999 0.170907
v 0.022089 0.001999 0.169740
v 0.022314 0.001999 0.176493
v 0.029882 0.001999 0.179556
v 0.034822 0.001999 0.178441
v 0.034191 0.001999 0.173865
v 0.031282 0.001999 0.169918
v 0.030871 0.001999 0.162714
v 0.027530 0.001999 0.158038
v 0.030595 0.001999 0.153003
v 0.034822 -0.000001 0.178441
v 0.003063 -0.000001 0.148676
v 0.004652 -0.000001 0.153444
v -0.000637 -0.000001 0.157886
v -0.000245 -0.000001 0.162785
v -0.002589 -0.000001 0.166805
v 0.003104 -0.000001 0.168861
v 0.009885 -0.000001 0.166954
v 0.015087 -0.000001 0.170907
v 0.022089 -0.000001 0.169740
v 0.022314 -0.000001 0.176493
v 0.029882 -0.000001 0.179556
v 0.034191 -0.000001 0.173865
v 0.031282 -0.000001 0.169918
v 0.030871 -0.000001 0.162714
v 0.027530 -0.000001 0.158038
v 0.030595 -0.000001 0.153003
vn -0.0000 1.0000 -0.0000
vn -0.9487 -0.0000 0.3162
vn -0.6432 -0.0000 -0.7657
vn -0.9968 -0.0000 0.0797
vn -0.8638 -0.0000 -0.5039
vn -0.3396 -0.0000 0.9406
vn 0.2707 -0.0000 0.9627
vn -0.6051 -0.0000 0.7962
vn 0.1644 -0.0000 0.9864
vn -0.9994 -0.0000 0.0333
vn -0.3752 -0.0000 0.9269
vn 0.2203 -0.0000 0.9754
vn 0.9906 -0.0000 -0.1366
vn 0.8051 -0.0000 -0.5932
vn 0.9984 -0.0000 -0.0571
vn 0.8137 -0.0000 -0.5812
vn 0.8542 -0.0000 0.5199
vt 0.000000 0.000000
s 0
f 8/1/1 9/1/1 10/1/1 11/1/1 12/1/1 13/1/1 14/1/1 15/1/1 16/1/1 17/1/1 18/1/1 19/1/1 20/1/1 1/1/1 2/1/1 3/1/1 4/1/1 5/1/1 6/1/1 7/1/1
f 5/1/2 4/1/2 22/1/2 23/1/2
f 6/1/3 5/1/3 23/1/3 24/1/3
f 7/1/4 6/1/4 24/1/4 25/1/4
f 8/1/5 7/1/5 25/1/5 26/1/5
f 9/1/6 8/1/6 26/1/6 27/1/6
f 10/1/7 9/1/7 27/1/7 28/1/7
f 11/1/8 10/1/8 28/1/8 29/1/8
f 12/1/9 11/1/9 29/1/9 30/1/9
f 13/1/10 12/1/10 30/1/10 31/1/10
f 14/1/11 13/1/11 31/1/11 32/1/11
f 15/1/12 14/1/12 32/1/12 21/1/12
f 16/1/13 15/1/13 21/1/13 33/1/13
f 17/1/14 16/1/14 33/1/14 34/1/14
f 18/1/15 17/1/15 34/1/15 35/1/15
f 19/1/16 18/1/16 35/1/16 36/1/16
f 20/1/17 19/1/17 36/1/17 37/1/17
