# Blender 4.5.1 LTS
# www.blender.org
mtllib province_162.mtl
o province_162
v 6.679950 0.006502 0.776521
v 6.669672 0.006502 0.709714
v 6.618283 0.006502 0.637769
v 6.503513 0.006502 0.624065
v 6.443559 0.006502 0.574389
v 6.119580 0.006502 0.571006
v 6.114946 0.006502 0.660596
v 6.181402 0.006502 0.703318
v 6.233973 0.006502 0.742259
v 6.206017 0.006502 0.891357
v 6.146328 0.006502 0.933991
v 6.137737 0.006502 0.995559
v 6.183133 0.006502 1.029240
v 6.269102 0.006502 1.048705
v 6.370527 0.006502 1.030415
v 6.480794 0.006502 0.997001
v 6.550734 0.006502 0.942414
v 6.596421 0.006502 0.925493
v 6.667089 0.006502 0.858271
v 6.722787 0.006502 0.822214
v 6.378049 0.006502 0.554451
v 6.334408 0.006502 0.612568
v 6.235853 0.006502 0.582398
v 6.216961 0.006502 0.534311
v 6.152725 0.006502 0.513364
v 6.119580 -0.013498 0.571006
v 6.114946 -0.013498 0.660596
v 6.181402 -0.013498 0.703318
v 6.233973 -0.013498 0.742259
v 6.206017 -0.013498 0.891357
v 6.146328 -0.013498 0.933991
v 6.137737 -0.013498 0.995559
v 6.183133 -0.013498 1.029240
v 6.269102 -0.013498 1.048705
v 6.370527 -0.013498 1.030415
v 6.480794 -0.013498 0.997001
v 6.550734 -0.013498 0.942414
v 6.596421 -0.013498 0.925493
v 6.667089 -0.013498 0.858271
v 6.722787 -0.013498 0.822214
v 6.378049 -0.013498 0.554451
v 6.334408 -0.013498 0.612568
v 6.235853 -0.013498 0.582398
v 6.216961 -0.013498 0.534311
v 6.152725 -0.013498 0.513364
vn -0.8669 -0.0000 -0.4985
vn 0.3100 -0.0000 -0.9507
vn 0.9308 -0.0000 -0.3656
vn 0.2927 -0.0000 -0.9562
vn -0.7996 -0.0000 -0.6005
vn 0.5434 -0.0000 0.8395
vn 0.6892 -0.0000 0.7245
vn 0.3473 -0.0000 0.9378
vn 0.6153 -0.0000 0.7883
vn 0.2900 -0.0000 0.9570
vn 0.1775 -0.0000 0.9841
vn -0.2208 -0.0000 0.9753
vn -0.5959 -0.0000 0.8031
vn -0.9904 -0.0000 -0.1382
vn -0.5812 -0.0000 -0.8137
vn -0.9829 -0.0000 -0.1843
vn -0.5952 -0.0000 0.8036
vn -0.5408 -0.0000 0.8412
vn -0.9987 -0.0000 -0.0516
vn -0.0000 1.0000 -0.0000
vn 0.9307 -0.0000 -0.3657
vn 0.6892 -0.0000 0.7246
vn 0.3473 -0.0000 0.9377
vn -0.5958 -0.0000 0.8031
vn -0.9987 -0.0000 -0.0517
vt 0.000000 0.000000
s 0
f 25/1/1 26/1/1 6/1/1
f 24/1/2 45/1/2 25/1/2
f 23/1/3 44/1/3 24/1/3
f 22/1/4 43/1/4 23/1/4
f 21/1/5 42/1/5 22/1/5
f 19/1/6 40/1/6 20/1/6
f 18/1/7 39/1/7 19/1/7
f 17/1/8 38/1/8 18/1/8
f 16/1/9 37/1/9 17/1/9
f 15/1/10 36/1/10 16/1/10
f 14/1/11 35/1/11 15/1/11
f 13/1/12 34/1/12 14/1/12
f 12/1/13 33/1/13 13/1/13
f 11/1/14 32/1/14 12/1/14
f 10/1/15 31/1/15 11/1/15
f 9/1/16 30/1/16 10/1/16
f 8/1/17 29/1/17 9/1/17
f 7/1/18 28/1/18 8/1/18
f 6/1/19 27/1/19 7/1/19
f 1/1/20 4/1/20 18/1/20
f 25/1/1 45/1/1 26/1/1
f 24/1/2 44/1/2 45/1/2
f 23/1/21 43/1/21 44/1/21
f 22/1/4 42/1/4 43/1/4
f 21/1/5 41/1/5 42/1/5
f 19/1/6 39/1/6 40/1/6
f 18/1/22 38/1/22 39/1/22
f 17/1/23 37/1/23 38/1/23
f 16/1/9 36/1/9 37/1/9
f 15/1/10 35/1/10 36/1/10
f 14/1/11 34/1/11 35/1/11
f 13/1/12 33/1/12 34/1/12
f 12/1/24 32/1/24 33/1/24
f 11/1/14 31/1/14 32/1/14
f 10/1/15 30/1/15 31/1/15
f 9/1/16 29/1/16 30/1/16
f 8/1/17 28/1/17 29/1/17
f 7/1/18 27/1/18 28/1/18
f 6/1/25 26/1/25 27/1/25
f 6/1/20 7/1/20 23/1/20
f 7/1/20 8/1/20 23/1/20
f 8/1/20 9/1/20 23/1/20
f 24/1/20 25/1/20 6/1/20
f 23/1/20 24/1/20 6/1/20
f 5/1/20 21/1/20 22/1/20
f 22/1/20 23/1/20 9/1/20
f 10/1/20 11/1/20 13/1/20
f 11/1/20 12/1/20 13/1/20
f 22/1/20 9/1/20 4/1/20
f 9/1/20 10/1/20 16/1/20
f 4/1/20 9/1/20 17/1/20
f 4/1/20 5/1/20 22/1/20
f 2/1/20 3/1/20 4/1/20
f 19/1/20 20/1/20 1/1/20
f 1/1/20 2/1/20 4/1/20
f 17/1/20 9/1/20 16/1/20
f 13/1/20 14/1/20 10/1/20
f 14/1/20 15/1/20 10/1/20
f 15/1/20 16/1/20 10/1/20
f 17/1/20 18/1/20 4/1/20
f 18/1/20 19/1/20 1/1/20
