# Blender 4.5.1 LTS
# www.blender.org
mtllib province_045.mtl
o province_045
v -4.757718 0.006502 -1.150196
v -4.707397 0.006502 -1.182756
v -4.695558 0.006502 -1.215316
v -4.648197 0.006502 -1.236036
v -4.600837 0.006502 -1.244916
v -4.550517 0.006502 -1.298197
v -4.429156 0.006502 -1.304117
v -4.728940 0.006502 -1.096751
v -4.671384 0.006502 -1.043306
v -4.609717 0.006502 -1.004251
v -4.523383 0.006502 -0.981639
v -4.416493 0.006502 -0.983695
v -4.369215 0.006502 -0.985750
v -4.338382 0.006502 -0.967250
v -4.313715 0.006502 -0.924083
v -4.262326 0.006502 -0.889139
v -4.202714 0.006502 -0.872694
v -4.149270 0.006502 -0.874750
v -4.128714 0.006502 -0.907639
v -4.101992 0.006502 -0.932306
v -4.093770 0.006502 -0.985750
v -4.093770 0.006502 -1.018640
v -4.064991 0.006502 -1.053584
v -4.038270 0.006502 -1.094696
v -4.036214 0.006502 -1.119362
v -4.069103 0.006502 -1.166640
v -4.136937 0.006502 -1.152251
v -4.163659 0.006502 -1.125529
v -4.233548 0.006502 -1.125529
v -4.284937 0.006502 -1.109084
v -4.307549 0.006502 -1.131696
v -4.354827 0.006502 -1.144029
v -4.371272 0.006502 -1.176918
v -4.418550 0.006502 -1.213918
v -4.430883 0.006502 -1.252974
v -4.757718 -0.013498 -1.150196
v -4.728940 -0.013498 -1.096751
v -4.671384 -0.013498 -1.043306
v -4.609717 -0.013498 -1.004251
v -4.523383 -0.013498 -0.981639
v -4.416493 -0.013498 -0.983695
v -4.369215 -0.013498 -0.985750
v -4.338382 -0.013498 -0.967250
v -4.313715 -0.013498 -0.924083
v -4.262326 -0.013498 -0.889139
v -4.202714 -0.013498 -0.872694
v -4.149270 -0.013498 -0.874750
vn -0.0000 1.0000 -0.0000
vn -0.8805 -0.0000 0.4741
vn -0.6804 -0.0000 0.7328
vn -0.5350 -0.0000 0.8448
vn -0.2534 -0.0000 0.9674
vn 0.0192 -0.0000 0.9998
vn 0.0434 -0.0000 0.9991
vn -0.5145 -0.0000 0.8575
vn -0.8682 -0.0000 0.4961
vn -0.5623 -0.0000 0.8269
vn -0.2659 -0.0000 0.9640
vn 0.0384 -0.0000 0.9993
vn -0.5351 -0.0000 0.8448
vt 0.000000 0.000000
s 0
f 24/1/1 25/1/1 27/1/1
f 1/1/2 37/1/2 8/1/2
f 8/1/3 38/1/3 9/1/3
f 9/1/4 39/1/4 10/1/4
f 10/1/5 40/1/5 11/1/5
f 11/1/6 41/1/6 12/1/6
f 12/1/7 42/1/7 13/1/7
f 13/1/8 43/1/8 14/1/8
f 14/1/9 44/1/9 15/1/9
f 15/1/10 45/1/10 16/1/10
f 16/1/11 46/1/11 17/1/11
f 17/1/12 47/1/12 18/1/12
f 2/1/1 1/1/1 8/1/1
f 8/1/1 9/1/1 2/1/1
f 9/1/1 10/1/1 5/1/1
f 2/1/1 9/1/1 4/1/1
f 10/1/1 11/1/1 5/1/1
f 11/1/1 12/1/1 32/1/1
f 11/1/1 32/1/1 34/1/1
f 12/1/1 13/1/1 32/1/1
f 4/1/1 3/1/1 2/1/1
f 7/1/1 6/1/1 35/1/1
f 6/1/1 5/1/1 35/1/1
f 5/1/1 4/1/1 9/1/1
f 14/1/1 15/1/1 29/1/1
f 15/1/1 16/1/1 29/1/1
f 14/1/1 29/1/1 30/1/1
f 16/1/1 17/1/1 19/1/1
f 11/1/1 34/1/1 5/1/1
f 13/1/1 14/1/1 30/1/1
f 32/1/1 13/1/1 30/1/1
f 32/1/1 33/1/1 34/1/1
f 34/1/1 35/1/1 5/1/1
f 17/1/1 18/1/1 19/1/1
f 19/1/1 20/1/1 21/1/1
f 22/1/1 23/1/1 28/1/1
f 23/1/1 24/1/1 27/1/1
f 28/1/1 23/1/1 27/1/1
f 19/1/1 21/1/1 16/1/1
f 21/1/1 22/1/1 16/1/1
f 30/1/1 31/1/1 32/1/1
f 28/1/1 29/1/1 22/1/1
f 22/1/1 29/1/1 16/1/1
f 26/1/1 27/1/1 25/1/1
f 1/1/2 36/1/2 37/1/2
f 8/1/3 37/1/3 38/1/3
f 9/1/13 38/1/13 39/1/13
f 10/1/5 39/1/5 40/1/5
f 11/1/6 40/1/6 41/1/6
f 12/1/7 41/1/7 42/1/7
f 13/1/8 42/1/8 43/1/8
f 14/1/9 43/1/9 44/1/9
f 15/1/10 44/1/10 45/1/10
f 16/1/11 45/1/11 46/1/11
f 17/1/12 46/1/12 47/1/12
