# Blender 4.5.1 LTS
# www.blender.org
o province_167
v 4.192184 0.045516 -12.104558
v 3.712550 0.045516 -12.560211
v 2.981109 0.045516 -12.476274
v 2.369576 0.045516 -12.764054
v 1.806006 0.045516 -12.740074
v 1.470263 0.045516 -13.135771
v 1.362345 0.045516 -13.855222
v 2.045823 0.045516 -13.999112
v 2.381567 0.045516 -14.238929
v 2.477494 0.045516 -14.790508
v 2.981110 0.045516 -14.958380
v 3.220927 0.045516 -14.682590
v 3.148982 0.045516 -14.154993
v 3.520698 0.045516 -13.855222
v 4.240149 0.045516 -13.543460
v 4.491956 0.045516 -13.123780
v 4.935618 0.045516 -12.668128
v 1.362345 -0.094484 -13.855222
v 2.045823 -0.094484 -13.999112
v 2.381567 -0.094484 -14.238929
v 2.477494 -0.094484 -14.790508
v 2.981110 -0.094484 -14.958380
v 3.220927 -0.094484 -14.682590
v 3.148982 -0.094484 -14.154993
v 3.520698 -0.094484 -13.855222
v 4.240149 -0.094484 -13.543460
v 4.491956 -0.094484 -13.123780
v 4.935618 -0.094484 -12.668128
vn 0.9908 -0.0000 0.1351
vn 0.6278 -0.0000 -0.7784
vn -0.5812 -0.0000 -0.8137
vn 0.7546 -0.0000 -0.6562
vn -0.3162 -0.0000 -0.9487
vn -0.9852 -0.0000 -0.1713
vn 0.8575 -0.0000 -0.5145
vn -0.2060 -0.0000 -0.9785
vn -0.0000 1.0000 -0.0000
vn 0.3976 -0.0000 -0.9176
vn 0.7165 -0.0000 -0.6976
vt 0.000000 0.000000
s 1
f 24/1/1 12/1/1 13/1/1
s 2
f 25/1/2 13/1/2 14/1/2
s 3
f 20/1/3 8/1/3 9/1/3
s 4
f 23/1/4 11/1/4 12/1/4
s 5
f 22/1/5 10/1/5 11/1/5
s 6
f 21/1/6 9/1/6 10/1/6
s 7
f 27/1/7 15/1/7 16/1/7
s 8
f 19/1/8 7/1/8 8/1/8
s 9
f 13/1/9 9/1/9 4/1/9
s 10
f 26/1/10 14/1/10 15/1/10
s 11
f 28/1/11 16/1/11 17/1/11
s 1
f 24/1/1 23/1/1 12/1/1
s 2
f 25/1/2 24/1/2 13/1/2
s 3
f 20/1/3 19/1/3 8/1/3
s 4
f 23/1/4 22/1/4 11/1/4
s 5
f 22/1/5 21/1/5 10/1/5
s 6
f 21/1/6 20/1/6 9/1/6
s 7
f 27/1/7 26/1/7 15/1/7
s 8
f 19/1/8 18/1/8 7/1/8
s 9
f 16/1/9 15/1/9 2/1/9
f 15/1/9 14/1/9 2/1/9
f 13/1/9 12/1/9 10/1/9
f 12/1/9 11/1/9 10/1/9
f 17/1/9 16/1/9 1/1/9
f 16/1/9 2/1/9 1/1/9
f 14/1/9 13/1/9 4/1/9
f 2/1/9 14/1/9 3/1/9
f 4/1/9 3/1/9 14/1/9
f 6/1/9 5/1/9 4/1/9
f 8/1/9 7/1/9 6/1/9
f 13/1/9 10/1/9 9/1/9
f 9/1/9 8/1/9 4/1/9
f 8/1/9 6/1/9 4/1/9
s 10
f 26/1/10 25/1/10 14/1/10
s 11
f 28/1/11 27/1/11 16/1/11
