# Blender 4.5.1 LTS
# www.blender.org
mtllib province_080.mtl
o province_080
v -0.048075 0.001999 0.058130
v -0.038558 0.001999 0.048375
v -0.032610 0.001999 0.040167
v -0.027406 0.001999 0.035894
v -0.042936 0.001999 0.063412
v -0.036369 0.001999 0.065410
v -0.032087 0.001999 0.070977
v -0.024664 0.001999 0.070549
v -0.018526 0.001999 0.065838
v -0.022867 0.001999 0.035137
v -0.013503 0.001999 0.065724
v -0.019529 0.001999 0.053964
v -0.017165 0.001999 0.048498
v -0.017831 0.001999 0.037972
v -0.022867 -0.000001 0.035137
v -0.013503 -0.000001 0.065724
v -0.019529 -0.000001 0.053964
v -0.017165 -0.000001 0.048498
v -0.017831 -0.000001 0.037972
vn 0.4905 -0.0000 -0.8714
vn 0.9980 -0.0000 -0.0632
vn 0.9179 -0.0000 0.3969
vn 0.8900 -0.0000 -0.4560
vn -0.0000 1.0000 -0.0000
vt 0.000000 0.000000
s 0
f 10/1/1 14/1/1 19/1/1 15/1/1
f 14/1/2 13/1/2 18/1/2 19/1/2
f 13/1/3 12/1/3 17/1/3 18/1/3
f 12/1/4 11/1/4 16/1/4 17/1/4
f 10/1/5 4/1/5 3/1/5 2/1/5 1/1/5 5/1/5 6/1/5 7/1/5 8/1/5 9/1/5 11/1/5 12/1/5 13/1/5 14/1/5
