# Blender 4.5.1 LTS
# www.blender.org
o province_149
v 27.334547 0.045516 -5.637777
v 28.362381 0.045516 -5.622673
v 28.621386 0.045516 -5.294602
v 26.960892 0.045516 -5.884714
v 28.024719 0.045516 -5.270221
v 27.361467 0.045516 -7.758166
v 26.953775 0.045516 -7.182605
v 26.953775 0.045516 -6.882833
v 27.205584 0.045516 -6.750934
v 27.157621 0.045516 -6.439171
v 26.917805 0.045516 -6.199353
v 28.272774 0.045516 -8.069930
v 29.172089 0.045516 -8.081921
v 29.495842 0.045516 -7.770158
v 29.891542 0.045516 -7.758166
v 30.299232 0.045516 -7.326495
v 29.663715 0.045516 -7.038714
v 29.543808 0.045516 -6.750933
v 28.860327 0.045516 -6.678988
v 28.740417 0.045516 -6.283288
v 29.016209 0.045516 -5.803653
v 27.361467 -0.094484 -7.758166
v 28.272774 -0.094484 -8.069930
v 29.172089 -0.094484 -8.081921
v 29.495842 -0.094484 -7.770158
v 29.891542 -0.094484 -7.758166
vn 0.0303 -0.0000 -0.9995
vn -0.0133 -0.0000 -0.9999
vn -0.3237 -0.0000 -0.9462
vn -0.0000 1.0000 -0.0000
vn 0.6936 -0.0000 -0.7203
vt 0.000000 0.000000
s 1
f 26/1/1 14/1/1 15/1/1
s 2
f 24/1/2 12/1/2 13/1/2
s 3
f 23/1/3 6/1/3 12/1/3
s 4
f 10/1/4 2/1/4 20/1/4
s 5
f 25/1/5 13/1/5 14/1/5
s 1
f 26/1/1 25/1/1 14/1/1
s 2
f 24/1/2 23/1/2 12/1/2
s 3
f 23/1/3 22/1/3 6/1/3
s 4
f 16/1/4 15/1/4 17/1/4
f 15/1/4 14/1/4 17/1/4
f 14/1/4 13/1/4 19/1/4
f 13/1/4 12/1/4 19/1/4
f 12/1/4 6/1/4 19/1/4
f 6/1/4 7/1/4 9/1/4
f 7/1/4 8/1/4 9/1/4
f 10/1/4 11/1/4 4/1/4
f 6/1/4 9/1/4 19/1/4
f 10/1/4 4/1/4 1/1/4
f 9/1/4 10/1/4 20/1/4
f 19/1/4 9/1/4 20/1/4
f 17/1/4 14/1/4 19/1/4
f 19/1/4 18/1/4 17/1/4
f 10/1/4 1/1/4 2/1/4
f 1/1/4 5/1/4 2/1/4
f 2/1/4 3/1/4 21/1/4
f 2/1/4 21/1/4 20/1/4
s 5
f 25/1/5 24/1/5 13/1/5
