# Blender 4.5.1 LTS
# www.blender.org
mtllib province_171.mtl
o province_171
v -2.426198 0.006502 0.342480
v -2.459241 0.006502 0.283002
v -2.413806 0.006502 0.235915
v -2.427850 0.006502 0.184698
v -2.488154 0.006502 0.102915
v -2.422176 0.006502 0.077396
v -2.360163 0.006502 0.000329
v -2.363175 0.006502 -0.079972
v -2.339295 0.006502 -0.129396
v -2.373326 0.006502 0.084462
v -2.299643 0.006502 -0.131379
v -2.259991 0.006502 -0.100648
v -2.216374 0.006502 -0.131379
v -2.182669 0.006502 -0.156161
v -2.095435 0.006502 0.191787
v -2.143017 0.006502 0.214586
v -2.195556 0.006502 0.213595
v -2.291713 0.006502 0.385091
v -2.354165 0.006502 0.362291
v -2.389852 0.006502 0.373195
v -2.159728 0.006502 -0.140109
v -2.160316 0.006502 -0.148929
v -2.134675 0.006502 -0.087726
v -2.100426 0.006502 -0.087726
v -2.100426 0.006502 -0.025475
v -2.060390 0.006502 0.006133
v -2.041630 0.006502 0.045284
v -2.075713 0.006502 0.099468
v -2.093966 0.006502 0.114070
v -2.088056 0.006502 0.135217
v -2.232192 0.006502 0.277019
v -2.216519 0.006502 0.261164
v -2.213838 0.006502 0.317398
v -2.245533 0.006502 0.372776
v -2.160316 -0.013498 -0.148929
v -2.159728 -0.013498 -0.140109
v -2.088056 -0.013498 0.135217
v -2.093966 -0.013498 0.114070
v -2.216519 -0.013498 0.261164
v -2.232192 -0.013498 0.277019
v -2.134675 -0.013498 -0.087726
v -2.100426 -0.013498 -0.087726
v -2.100426 -0.013498 -0.025475
v -2.060390 -0.013498 0.006133
v -2.041630 -0.013498 0.045284
v -2.075713 -0.013498 0.099468
v -2.213838 -0.013498 0.317398
v -2.245533 -0.013498 0.372776
vn 0.8679 -0.0000 0.4967
vn 0.9104 -0.0000 -0.4138
vn 0.6247 -0.0000 0.7809
vn 0.8465 -0.0000 0.5325
vn 0.9018 -0.0000 -0.4321
vn 0.6196 -0.0000 -0.7849
vn 1.0000 -0.0000 -0.0000
vn -0.0000 -0.0000 -1.0000
vn 0.9021 -0.0000 -0.4315
vn -0.0000 1.0000 -0.0000
vn 0.9978 -0.0000 -0.0665
vn 0.9631 -0.0000 -0.2691
vn 0.7112 -0.0000 0.7030
vn 0.9978 -0.0000 -0.0666
vt 0.000000 0.000000
s 0
f 34/1/1 47/1/1 33/1/1
f 33/1/2 40/1/2 31/1/2
f 29/1/3 46/1/3 28/1/3
f 28/1/4 45/1/4 27/1/4
f 27/1/5 44/1/5 26/1/5
f 26/1/6 43/1/6 25/1/6
f 25/1/7 42/1/7 24/1/7
f 24/1/8 41/1/8 23/1/8
f 23/1/9 36/1/9 21/1/9
f 3/1/10 1/1/10 19/1/10
f 21/1/11 35/1/11 22/1/11
f 30/1/12 38/1/12 29/1/12
f 31/1/13 39/1/13 32/1/13
f 34/1/1 48/1/1 47/1/1
f 33/1/2 47/1/2 40/1/2
f 29/1/3 38/1/3 46/1/3
f 28/1/4 46/1/4 45/1/4
f 27/1/5 45/1/5 44/1/5
f 26/1/6 44/1/6 43/1/6
f 25/1/7 43/1/7 42/1/7
f 24/1/8 42/1/8 41/1/8
f 23/1/9 41/1/9 36/1/9
f 34/1/10 33/1/10 31/1/10
f 31/1/10 32/1/10 17/1/10
f 17/1/10 16/1/10 29/1/10
f 16/1/10 15/1/10 30/1/10
f 29/1/10 16/1/10 30/1/10
f 29/1/10 28/1/10 25/1/10
f 28/1/10 27/1/10 26/1/10
f 26/1/10 25/1/10 28/1/10
f 25/1/10 24/1/10 23/1/10
f 21/1/10 22/1/10 14/1/10
f 23/1/10 21/1/10 13/1/10
f 21/1/10 14/1/10 13/1/10
f 25/1/10 23/1/10 12/1/10
f 23/1/10 13/1/10 12/1/10
f 12/1/10 11/1/10 8/1/10
f 11/1/10 9/1/10 8/1/10
f 29/1/10 25/1/10 7/1/10
f 17/1/10 29/1/10 10/1/10
f 10/1/10 29/1/10 7/1/10
f 25/1/10 12/1/10 7/1/10
f 8/1/10 7/1/10 12/1/10
f 10/1/10 6/1/10 4/1/10
f 6/1/10 5/1/10 4/1/10
f 18/1/10 34/1/10 31/1/10
f 31/1/10 17/1/10 3/1/10
f 17/1/10 10/1/10 3/1/10
f 19/1/10 18/1/10 31/1/10
f 1/1/10 20/1/10 19/1/10
f 3/1/10 2/1/10 1/1/10
f 10/1/10 4/1/10 3/1/10
f 19/1/10 31/1/10 3/1/10
f 21/1/14 36/1/14 35/1/14
f 30/1/12 37/1/12 38/1/12
f 31/1/13 40/1/13 39/1/13
