# Blender 4.5.1 LTS
# www.blender.org
o province_051
v -23.047264 0.045516 -2.489399
v -23.538553 0.045516 -2.331187
v -23.613497 0.045516 -2.031417
v -24.163074 0.045516 -2.081378
v -24.521133 0.045516 -1.839897
v -24.125603 0.045516 -1.486002
v -23.993759 0.045516 -1.028020
v -24.312960 0.045516 -0.743516
v -24.167236 0.045516 -0.500646
v -23.639864 0.045516 -0.500646
v -23.334541 0.045516 -0.243898
v -23.216576 0.045516 0.096119
v -22.633690 0.045516 0.109997
v -20.961359 0.045516 -0.389620
v -21.058508 0.045516 -0.729637
v -20.711552 0.045516 -1.076594
v -20.794823 0.045516 -1.319463
v -21.148716 0.045516 -1.499880
v -21.079325 0.045516 -1.902349
v -21.405462 0.045516 -2.096645
v -21.981409 0.045516 -2.075828
v -22.279793 0.045516 -2.270123
v -22.821045 0.045516 -2.263184
v -22.402609 0.045516 0.325674
v -21.937027 0.045516 0.244580
v -21.130856 0.045516 0.038455
v -20.970747 0.045516 0.071572
v -21.368042 0.045516 -0.297738
v -21.726681 0.045516 -0.169444
v -22.402609 -0.094484 0.325674
v -21.937027 -0.094484 0.244580
v -21.130856 -0.094484 0.038455
v -20.970747 -0.094484 0.071572
v -21.368042 -0.094484 -0.297738
v -21.726681 -0.094484 -0.169444
v -24.521133 -0.094484 -1.839897
v -24.125603 -0.094484 -1.486002
v -23.993759 -0.094484 -1.028020
v -24.312960 -0.094484 -0.743516
vn 0.8915 -0.0000 0.4529
vn 0.8915 -0.0000 0.4530
vn -0.8171 -0.0000 0.5765
vn 0.3368 -0.0000 0.9416
vn -0.9610 -0.0000 0.2766
vn 0.1716 -0.0000 0.9852
vn -0.0000 1.0000 -0.0000
vn -0.2026 -0.0000 0.9793
vn -0.6654 -0.0000 -0.7465
vn -0.6668 -0.0000 0.7452
vt 0.000000 0.000000
s 1
f 31/1/1 29/1/2 25/1/1
s 2
f 34/1/3 26/1/3 28/1/3
s 3
f 35/1/4 28/1/4 29/1/4
s 4
f 37/1/5 7/1/5 6/1/5
s 5
f 30/1/6 25/1/6 24/1/6
s 6
f 3/1/7 7/1/7 10/1/7
s 7
f 32/1/8 27/1/8 26/1/8
s 8
f 38/1/9 8/1/9 7/1/9
s 9
f 36/1/10 6/1/10 5/1/10
s 1
f 31/1/1 35/1/2 29/1/2
s 2
f 34/1/3 32/1/3 26/1/3
s 3
f 35/1/4 34/1/4 28/1/4
s 4
f 37/1/5 38/1/5 7/1/5
s 5
f 30/1/6 31/1/6 25/1/6
s 6
f 16/1/7 17/1/7 15/1/7
f 17/1/7 18/1/7 15/1/7
f 18/1/7 19/1/7 20/1/7
f 21/1/7 22/1/7 23/1/7
f 18/1/7 20/1/7 21/1/7
f 27/1/7 14/1/7 26/1/7
f 14/1/7 15/1/7 28/1/7
f 28/1/7 26/1/7 14/1/7
f 24/1/7 25/1/7 13/1/7
f 25/1/7 29/1/7 13/1/7
f 29/1/7 28/1/7 15/1/7
f 15/1/7 18/1/7 29/1/7
f 18/1/7 21/1/7 29/1/7
f 23/1/7 1/1/7 2/1/7
f 21/1/7 23/1/7 11/1/7
f 13/1/7 21/1/7 11/1/7
f 13/1/7 29/1/7 21/1/7
f 11/1/7 12/1/7 13/1/7
f 8/1/7 9/1/7 7/1/7
f 9/1/7 10/1/7 7/1/7
f 10/1/7 11/1/7 23/1/7
f 23/1/7 2/1/7 3/1/7
f 3/1/7 4/1/7 6/1/7
f 4/1/7 5/1/7 6/1/7
f 23/1/7 3/1/7 10/1/7
f 3/1/7 6/1/7 7/1/7
s 7
f 32/1/8 33/1/8 27/1/8
s 8
f 38/1/9 39/1/9 8/1/9
s 9
f 36/1/10 37/1/10 6/1/10
