# Blender 4.5.1 LTS
# www.blender.org
o province_029
v -12.743494 0.045516 -7.035332
v -12.659559 0.045516 -6.747552
v -12.887384 0.045516 -6.435790
v -12.359787 0.045516 -6.064074
v -12.143952 0.045516 -5.860229
v -11.916126 0.045516 -5.332633
v -11.940108 0.045516 -4.745082
v -12.275852 0.045516 -4.493274
v -12.743494 0.045516 -4.757072
v -13.151182 0.045516 -4.733091
v -13.426972 0.045516 -4.529247
v -13.762716 0.045516 -4.601192
v -14.398230 0.045516 -5.056843
v -13.569954 0.045516 -7.314396
v -14.152064 0.045516 -7.014632
v -14.248968 0.045516 -6.769825
v -14.222559 0.045516 -6.351056
v -14.420214 0.045516 -5.267926
v -13.569954 -0.094484 -7.314396
v -14.152064 -0.094484 -7.014632
v -14.248968 -0.094484 -6.769825
v -14.222559 -0.094484 -6.351056
v -14.420214 -0.094484 -5.267926
vn -0.9980 -0.0000 0.0629
vn -0.9298 -0.0000 -0.3681
vn -0.9298 -0.0000 -0.3680
vn -0.9838 -0.0000 -0.1795
vn -0.0000 1.0000 -0.0000
vn -0.4578 -0.0000 -0.8890
vt 0.000000 0.000000
s 1
f 21/1/1 17/1/1 16/1/1
s 2
f 20/1/2 16/1/2 15/1/3
s 3
f 22/1/4 18/1/4 17/1/4
s 4
f 18/1/5 10/1/5 3/1/5
s 5
f 19/1/6 15/1/6 14/1/6
s 1
f 21/1/1 22/1/1 17/1/1
s 2
f 20/1/2 21/1/2 16/1/2
s 3
f 22/1/4 23/1/4 18/1/4
s 4
f 2/1/5 1/1/5 3/1/5
f 1/1/5 14/1/5 3/1/5
f 14/1/5 15/1/5 16/1/5
f 17/1/5 18/1/5 3/1/5
f 18/1/5 13/1/5 12/1/5
f 10/1/5 18/1/5 12/1/5
f 14/1/5 16/1/5 3/1/5
f 16/1/5 17/1/5 3/1/5
f 5/1/5 4/1/5 9/1/5
f 4/1/5 3/1/5 10/1/5
f 7/1/5 6/1/5 9/1/5
f 6/1/5 5/1/5 9/1/5
f 9/1/5 8/1/5 7/1/5
f 12/1/5 11/1/5 10/1/5
f 10/1/5 9/1/5 4/1/5
s 5
f 19/1/6 20/1/6 15/1/6
