# Blender 4.5.1 LTS
# www.blender.org
mtllib province_161.mtl
o province_161
v 0.456725 0.001999 0.176588
v 0.449016 0.001999 0.169393
v 0.449187 0.001999 0.161000
v 0.442678 0.001999 0.154833
v 0.465975 0.001999 0.170250
v 0.469572 0.001999 0.164083
v 0.477280 0.001999 0.162713
v 0.484646 0.001999 0.167852
v 0.497665 0.001999 0.164083
v 0.501262 0.001999 0.158430
v 0.445652 0.001999 0.151264
v 0.442480 0.001999 0.147497
v 0.436532 0.001999 0.147894
v 0.431972 0.001999 0.143235
v 0.433855 0.001999 0.134610
v 0.444165 0.001999 0.133817
v 0.472219 0.001999 0.120831
v 0.501760 0.001999 0.121822
v 0.507014 0.001999 0.131240
v 0.506023 0.001999 0.137287
v 0.510484 0.001999 0.142343
v 0.501562 0.001999 0.149777
v 0.442678 -0.000001 0.154833
v 0.445652 -0.000001 0.151264
v 0.442480 -0.000001 0.147497
v 0.436532 -0.000001 0.147894
v 0.431972 -0.000001 0.143235
v 0.433855 -0.000001 0.134610
v 0.444165 -0.000001 0.133817
v 0.472219 -0.000001 0.120831
v 0.501760 -0.000001 0.121822
vn -0.0000 1.0000 -0.0000
vn -0.7682 -0.0000 -0.6402
vn -0.7649 -0.0000 0.6441
vn 0.0665 -0.0000 0.9978
vn -0.7147 -0.0000 0.6995
vn -0.9770 -0.0000 -0.2134
vn -0.0767 -0.0000 -0.9971
vn -0.4201 -0.0000 -0.9075
vn 0.0335 -0.0000 -0.9994
vt 0.000000 0.000000
s 0
f 1/1/1 5/1/1 6/1/1 7/1/1 8/1/1 9/1/1 10/1/1 22/1/1 21/1/1 20/1/1 19/1/1 18/1/1 17/1/1 16/1/1 15/1/1 14/1/1 13/1/1 12/1/1 11/1/1 4/1/1 3/1/1 2/1/1
f 4/1/2 11/1/2 24/1/2 23/1/2
f 11/1/3 12/1/3 25/1/3 24/1/3
f 12/1/4 13/1/4 26/1/4 25/1/4
f 13/1/5 14/1/5 27/1/5 26/1/5
f 14/1/6 15/1/6 28/1/6 27/1/6
f 15/1/7 16/1/7 29/1/7 28/1/7
f 16/1/8 17/1/8 30/1/8 29/1/8
f 17/1/9 18/1/9 31/1/9 30/1/9
